<?xml version="1.0" standalone="no"?>
<!DOCTYPE svg PUBLIC "-//W3C//DTD SVG 1.1//EN" "http://www.w3.org/Graphics/SVG/1.1/DTD/svg11.dtd" >
<svg>
<metadata>
Created by FontForge 20090622 at Sun Feb 10 22:00:29 2019
 By deploy user
Copyright (c) 2014 by Dieter Hofrichter. All rights reserved.
</metadata>
<defs>
<font id="Orgon-Light" horiz-adv-x="382" >
  <font-face 
    font-family="Orgon-Light"
    font-weight="400"
    font-stretch="normal"
    units-per-em="1000"
    panose-1="2 0 5 3 0 0 0 2 0 4"
    ascent="752"
    descent="-248"
    x-height="498"
    cap-height="708"
    bbox="-153 -278 1182 982"
    underline-thickness="50"
    underline-position="-50"
    unicode-range="U+0020-U+FB04"
  />
<missing-glyph horiz-adv-x="501" 
d="M0 0v707h501v-707h-501zM251 399l170 257h-341zM280 354l172 -257v514zM80 50h341l-170 258zM50 611v-514l171 257z" />
    <glyph glyph-name="f_f" unicode="ff" horiz-adv-x="635" 
d="M181 18q0 -20 -18 -20h-34q-19 0 -19 21v411h-54q-19 0 -19 18v30q0 20 19 20h54v61q0 101 40 140q38 38 125 38q48 0 68 -7q11 -5 11 -17q0 -14 -4 -36q-3 -12 -17 -12q-2 0 -21.5 2t-33.5 2q-61 0 -80 -28q-17 -24 -17 -95v-48h246v81q0 100 41 140q41 38 124 38
q48 0 68 -7q12 -4 12 -17q0 -14 -4 -36q-4 -12 -18 -12q-1 0 -21 2t-34 2q-61 0 -80 -28q-16 -23 -16 -95v-68h107q18 0 18 -18v-33q0 -17 -18 -17h-107v-412q0 -20 -18 -20h-35q-19 0 -19 21v411h-246v-412z" />
    <glyph glyph-name="fi" unicode="fi" horiz-adv-x="569" 
d="M181 20q0 -20 -18 -20h-34q-19 0 -19 22v408h-54q-19 0 -19 18v30q0 20 19 20h54v81q0 101 40 140q38 38 127 38q49 0 71 -8q12 -5 12 -16q0 -14 -4 -38q-3 -12 -17 -12q-2 0 -24 3t-36 3q-63 0 -81 -29q-17 -24 -17 -94v-68h277q21 0 21 -23v-454q0 -21 -19 -21h-33
q-19 0 -19 21v409h-227v-410zM492 662q0 -50 -49 -50q-48 0 -48 49q0 51 48 51q49 0 49 -50z" />
    <glyph glyph-name="fl" unicode="fl" horiz-adv-x="569" 
d="M181 18q0 -20 -18 -20h-34q-19 0 -19 21v411h-54q-19 0 -19 18v30q0 20 19 20h54v80q0 98 40 138q42 41 149 41q126 0 166 -14q14 -4 14 -24v-701q0 -20 -19 -20h-33q-19 0 -19 20v664q-47 7 -113 7q-77 0 -97 -32q-17 -24 -17 -91v-68h107q19 0 19 -18v-33
q0 -17 -19 -17h-107v-412z" />
    <glyph glyph-name="f_f_i" unicode="ffi" horiz-adv-x="886" 
d="M181 18q0 -20 -18 -20h-34q-19 0 -19 21v411h-54q-19 0 -19 18v30q0 20 19 20h54v61q0 101 40 140q38 38 125 38q48 0 68 -7q11 -5 11 -17q0 -14 -4 -36q-3 -12 -17 -12q-2 0 -21.5 2t-33.5 2q-61 0 -80 -28q-17 -24 -17 -95v-48h246v81q0 100 41 140q41 38 126 38
q49 0 71 -8q12 -5 12 -16q0 -13 -4 -37q-3 -12 -17 -12q-2 0 -23.5 2.5t-36.5 2.5q-62 0 -81 -28q-16 -23 -16 -95v-68h277q20 0 20 -23v-454q0 -21 -19 -21h-33q-19 0 -19 21v409h-226v-412q0 -20 -18 -20h-35q-19 0 -19 21v411h-246v-412zM809 662q0 -50 -48 -50
q-49 0 -49 49q0 51 49 51q48 0 48 -50z" />
    <glyph glyph-name="f_f_l" unicode="ffl" horiz-adv-x="886" 
d="M181 18q0 -20 -18 -20h-34q-19 0 -19 21v411h-54q-19 0 -19 18v30q0 20 19 20h54v61q0 101 40 140q38 38 125 38q48 0 68 -7q11 -5 11 -17q0 -16 -5 -36q-3 -12 -17 -12q-1 0 -21 2t-34 2q-60 0 -79 -28q-17 -24 -17 -95v-48h246v80q0 99 41 138q41 41 148 41
q127 0 167 -14q13 -4 13 -24v-701q0 -20 -19 -20h-33q-19 0 -19 20v665q-48 6 -113 6q-77 0 -97 -32q-16 -23 -16 -91v-68h107q18 0 18 -18v-33q0 -17 -18 -17h-107v-412q0 -20 -18 -20h-35q-19 0 -19 21v411h-246v-412z" />
    <glyph glyph-name="T_h" unicode="Th" horiz-adv-x="1119" 
d="M325 19q0 -21 -20 -21h-36q-20 0 -20 21v615h-202q-20 0 -20 18v35q0 19 20 19h582v24q0 21 18 21h36q18 0 18 -21v-269q24 23 79 36t104 13q65 0 96 -15t43 -47q9 -26 9 -98v-332q0 -20 -19 -20h-33q-19 0 -19 20v317q0 46 -7 67q-7 20 -27 29.5t-63 9.5q-89 0 -140 -20
q-14 -5 -18 -13q-5 -7 -5 -25v-365q0 -20 -19 -20h-33q-20 0 -20 20v616h-304v-615z" />
    <glyph glyph-name="Tcaron_h" unicode="&#x164;h" horiz-adv-x="1119" 
d="M325 19q0 -21 -20 -21h-36q-20 0 -20 21v615h-202q-20 0 -20 18v35q0 19 20 19h582v24q0 21 18 21h36q18 0 18 -21v-269q24 23 79 36t104 13q65 0 96 -15t43 -47q9 -26 9 -98v-332q0 -20 -19 -20h-33q-19 0 -19 20v317q0 46 -7 67q-7 20 -27 29.5t-63 9.5q-89 0 -140 -20
q-14 -5 -18 -13q-5 -7 -5 -25v-365q0 -20 -19 -20h-33q-20 0 -20 20v616h-304v-615zM400 910h32q15 0 15 -13q0 -8 -7 -15l-106 -102q-17 -17 -31 -17h-39q-9 0 -30 18l-106 102q-6 5 -6 14q0 13 18 13h31q12 0 30 -13l85 -68l83 67q18 14 31 14z" />
    <glyph glyph-name="f_b" unicode="fb" horiz-adv-x="889" 
d="M181 18q0 -20 -18 -20h-34q-19 0 -19 21v411h-54q-19 0 -19 18v30q0 20 19 20h54v80q0 98 40 138q42 41 149 41q126 0 166 -14q14 -4 14 -24v-253q52 43 172 43q93 0 138.5 -57.5t45.5 -189.5q0 -108 -27.5 -167t-76 -79.5t-132.5 -20.5q-33 0 -72.5 8.5t-53.5 21.5
l-1 -17q-2 -13 -22 -13h-22q-11 0 -15.5 5.5t-4.5 19.5v663q-48 6 -113 6q-77 0 -97 -32q-17 -24 -17 -91v-68h107q19 0 19 -18v-33q0 -17 -19 -17h-107v-412zM479 85q13 -9 49 -16.5t65 -7.5q101 0 135 41.5t34 152.5q0 102 -28 143.5t-108 41.5q-90 0 -128 -26
q-11 -8 -15 -16t-4 -27v-286z" />
    <glyph glyph-name="f_f_b" unicode="ffb" horiz-adv-x="1208" 
d="M181 18q0 -20 -18 -20h-34q-19 0 -19 21v411h-54q-19 0 -19 18v30q0 20 19 20h54v61q0 101 40 140q38 38 125 38q48 0 68 -7q11 -5 11 -17q0 -9 -5 -36q-3 -12 -17 -12q-2 0 -21.5 2t-34.5 2q-59 0 -78 -28q-17 -24 -17 -95v-48h246v80q0 99 41 138q41 41 148 41
q127 0 167 -14q13 -4 13 -24v-253q52 43 172 43q93 0 138.5 -57.5t45.5 -189.5q0 -108 -27.5 -167t-76 -79.5t-132.5 -20.5q-33 0 -72.5 8.5t-53.5 21.5l-1 -17q-2 -13 -22 -13h-22q-11 0 -15.5 5.5t-4.5 19.5v663q-48 6 -113 6q-77 0 -97 -32q-16 -23 -16 -91v-68h107
q18 0 18 -18v-33q0 -17 -18 -17h-107v-412q0 -20 -18 -20h-35q-19 0 -19 21v411h-246v-412zM796 85q14 -9 49.5 -16.5t65.5 -7.5q101 0 135 42t34 152q0 102 -28.5 143.5t-108.5 41.5q-87 0 -128 -26q-13 -10 -16 -16t-3 -21v-292z" />
    <glyph glyph-name="f_f_h" unicode="ffh" horiz-adv-x="1215" 
d="M181 18q0 -20 -18 -20h-34q-19 0 -19 21v411h-54q-19 0 -19 18v30q0 20 19 20h54v61q0 101 40 140q38 38 125 38q48 0 68 -7q11 -5 11 -17q0 -9 -5 -36q-3 -12 -17 -12q-2 0 -21.5 2t-34.5 2q-59 0 -78 -28q-17 -24 -17 -95v-48h246v80q0 99 41 138q41 41 148 41
q127 0 167 -14q13 -4 13 -24v-254q24 22 78 33.5t105 11.5q66 0 97 -15t43 -47q9 -26 9 -98v-332q0 -20 -19 -20h-34q-19 0 -19 20v317q0 49 -6 67q-8 21 -27.5 30t-63.5 9q-88 0 -139 -20q-14 -5 -18 -13q-6 -8 -6 -25v-365q0 -20 -19 -20h-33q-19 0 -19 20v665
q-48 6 -113 6q-77 0 -97 -32q-16 -23 -16 -91v-68h107q18 0 18 -18v-33q0 -17 -18 -17h-107v-412q0 -20 -18 -20h-35q-19 0 -19 21v411h-246v-412z" />
    <glyph glyph-name="f_f_j" unicode="ffj" horiz-adv-x="899" 
d="M181 18q0 -20 -18 -20h-34q-19 0 -19 21v411h-54q-19 0 -19 18v30q0 20 19 20h54v61q0 101 40 140q38 38 125 38q48 0 68 -7q11 -5 11 -17q0 -9 -5 -36q-3 -12 -17 -12q-2 0 -21.5 2t-34.5 2q-59 0 -78 -28q-17 -24 -17 -95v-48h246v81q0 100 41 140q41 38 124 38
q48 0 68 -7q12 -4 12 -17q0 -14 -6 -36q-3 -12 -17 -12q-2 0 -21.5 2t-34.5 2q-59 0 -78 -28q-16 -23 -16 -95v-68h288q18 0 18 -20v-557q0 -94 -33 -128q-42 -42 -145 -42q-26 0 -26 18q0 24 1 32q1 16 21 17q65 2 86 20q25 22 25 85v507h-235v-412q0 -20 -18 -20h-35
q-19 0 -19 21v411h-246v-412zM815 662q0 -48 -45 -48q-47 0 -47 47q0 49 47 49q23 0 34 -10.5t11 -37.5z" />
    <glyph glyph-name="f_f_k" unicode="ffk" horiz-adv-x="1134" 
d="M181 18q0 -20 -18 -20h-34q-19 0 -19 21v411h-54q-19 0 -19 18v30q0 20 19 20h54v61q0 101 40 140q38 38 125 38q48 0 68 -7q11 -5 11 -17q0 -14 -4 -36q-3 -12 -17 -12q-2 0 -21.5 2t-33.5 2q-61 0 -80 -28q-17 -24 -17 -95v-48h246v80q0 99 41 138q41 41 148 41
q127 0 167 -14q13 -4 13 -24v-411h58q32 0 45 18l119 158q12 16 29 16h35q17 0 17 -14q0 -6 -10 -21l-146 -185l33 -45l58 -83l83 -116q13 -15 13 -24q0 -14 -18 -14h-37q-17 0 -28 16l-153 212q-13 18 -39 18h-59v-226q0 -20 -19 -20h-33q-19 0 -19 20v665q-48 6 -113 6
q-77 0 -97 -32q-16 -23 -16 -91v-68h107q18 0 18 -18v-33q0 -17 -18 -17h-107v-412q0 -20 -18 -20h-35q-19 0 -19 21v411h-246v-412z" />
    <glyph glyph-name="f_h" unicode="fh" horiz-adv-x="897" 
d="M181 18q0 -20 -18 -20h-34q-19 0 -19 21v411h-54q-19 0 -19 18v30q0 20 19 20h54v80q0 98 40 138q42 41 149 41q126 0 166 -14q14 -4 14 -24v-254q23 22 77.5 33.5t105.5 11.5q66 0 96.5 -15t42.5 -47q9 -23 9 -98v-332q0 -20 -18 -20h-34q-19 0 -19 20v317q0 46 -7 67
t-26.5 30t-63.5 9q-90 0 -139 -20q-12 -4 -18 -13q-6 -8 -6 -26v-364q0 -20 -19 -20h-33q-19 0 -19 20v665q-48 6 -113 6q-77 0 -97 -32q-17 -24 -17 -91v-68h107q19 0 19 -18v-33q0 -17 -19 -17h-107v-412z" />
    <glyph glyph-name="f_j" unicode="fj" horiz-adv-x="582" 
d="M181 18q0 -20 -18 -20h-34q-19 0 -19 21v411h-54q-19 0 -19 18v30q0 20 19 20h54v81q0 101 40 140q38 38 125 38q48 0 68 -7q11 -5 11 -17q0 -14 -4 -36q-3 -12 -17 -12q-2 0 -21.5 2t-33.5 2q-61 0 -80 -28q-17 -24 -17 -95v-68h289q18 0 18 -20v-557q0 -94 -33 -128
q-42 -42 -145 -42q-27 0 -27 18q0 24 1 32q1 16 22 17q65 2 86 20q25 22 25 85v507h-236v-412zM498 662q0 -48 -46 -48t-46 47q0 49 46 49q23 0 34.5 -10.5t11.5 -37.5z" />
    <glyph glyph-name="f_k" unicode="fk" horiz-adv-x="817" 
d="M181 18q0 -20 -18 -20h-34q-19 0 -19 21v411h-54q-19 0 -19 18v30q0 20 19 20h54v80q0 98 40 138q42 41 149 41q126 0 166 -14q14 -4 14 -24v-411h58q30 0 44 18l122 158q12 16 28 16h33q17 0 17 -14q0 -9 -10 -21l-146 -184q14 -18 33 -45l59 -84l83 -116q13 -15 13 -24
q0 -14 -19 -14h-36q-17 0 -28 16l-154 212q-13 18 -38 18h-59v-226q0 -20 -19 -20h-33q-19 0 -19 20v665q-48 6 -113 6q-77 0 -97 -32q-17 -24 -17 -91v-68h107q19 0 19 -18v-33q0 -17 -19 -17h-107v-412z" />
    <glyph glyph-name="uni0162_h" unicode="&#x162;h" horiz-adv-x="1119" 
d="M299 -61q61 -1 81.5 -24.5t20.5 -65.5q0 -98 -130 -98q-26 0 -52 6q-15 3 -15 18q0 10 5 25q3 13 17 13q2 0 5 -0.5t7 -1.5t6 -1q22 -4 32 -4q30 0 42 9t12 29q0 21 -11 30t-37 9q-4 0 -13 -0.5t-11 -0.5q-19 0 -19 18q0 11 4 29l13 72q-7 4 -7 18v615h-202q-20 0 -20 18
v35q0 19 20 19h582v24q0 21 18 21h36q18 0 18 -21v-269q24 23 79 36t104 13q65 0 96 -15t43 -47q9 -26 9 -98v-332q0 -20 -19 -20h-33q-19 0 -19 20v317q0 46 -7 67q-7 20 -27 29.5t-63 9.5q-89 0 -140 -20q-14 -5 -18 -13q-5 -7 -5 -25v-365q0 -20 -19 -20h-33
q-20 0 -20 20v616h-304v-615q0 -18 -16 -21z" />
    <glyph glyph-name="uni021A_h" unicode="&#x21a;h" horiz-adv-x="1119" 
d="M325 19q0 -21 -20 -21h-36q-20 0 -20 21v615h-202q-20 0 -20 18v35q0 19 20 19h582v24q0 21 18 21h36q18 0 18 -21v-269q24 23 79 36t104 13q65 0 96 -15t43 -47q9 -26 9 -98v-332q0 -20 -19 -20h-33q-19 0 -19 20v317q0 46 -7 67q-7 20 -27 29.5t-63 9.5q-89 0 -140 -20
q-14 -5 -18 -13q-5 -7 -5 -25v-365q0 -20 -19 -20h-33q-20 0 -20 20v616h-304v-615zM306 -69q20 0 20 -22q0 -44 -15.5 -92t-47.5 -83q-10 -12 -21 -12q-12 0 -25 9q-10 6 -10 15q0 6 7 18q38 57 38 138q0 29 22 29h32z" />
    <glyph glyph-name=".notdef" horiz-adv-x="501" 
d="M0 0v707h501v-707h-501zM251 399l170 257h-341zM280 354l172 -257v514zM80 50h341l-170 258zM50 611v-514l171 257z" />
    <glyph glyph-name=".null" horiz-adv-x="0" 
 />
    <glyph glyph-name="nonmarkingreturn" horiz-adv-x="333" 
 />
    <glyph glyph-name="space" unicode=" " horiz-adv-x="224" 
 />
    <glyph glyph-name="exclam" unicode="!" horiz-adv-x="284" 
d="M195 238q0 -21 -21 -21h-21q-23 0 -23 23q-7 394 -7 439q0 27 23 27h35q22 0 22 -26q0 -45 -8 -442zM208 42q0 -51 -50 -51q-20 0 -35 11.5t-15 39.5q0 27 14.5 39.5t35.5 12.5q50 0 50 -52z" />
    <glyph glyph-name="quotedbl" unicode="&#x22;" horiz-adv-x="345" 
d="M126 476q-1 -20 -18 -20h-24q-19 0 -20 22q-9 176 -9 212q0 26 24 26h34q22 0 22 -25q0 -5 -9 -215zM281 476q-1 -20 -19 -20h-24q-18 0 -19 22q-9 177 -9 212q0 26 24 26h34q22 0 22 -25q0 -5 -9 -215z" />
    <glyph glyph-name="numbersign" unicode="#" horiz-adv-x="596" 
d="M168 4q-3 -20 -20 -20h-13q-18 0 -18 15l3 24l28 193h-87q-18 0 -18 16v33q0 18 19 18h96l18 120h-94q-18 0 -18 16v33q0 17 19 17h102l30 199q3 23 21 23h15q17 0 17 -16q0 -6 -2 -20l-28 -186h155l30 199q3 23 22 23h13q18 0 18 -16q0 -3 -3 -24l-27 -182h88
q19 0 19 -17v-33q0 -16 -18 -16h-99l-18 -120h94q19 0 19 -18v-33q0 -16 -18 -16h-105l-31 -212q-3 -20 -21 -20h-13q-18 0 -18 15q0 5 2 21l29 196h-156zM228 403l-18 -120h156l18 120h-156z" />
    <glyph glyph-name="dollar" unicode="$" horiz-adv-x="548" 
d="M304 -74q0 -20 -16 -20h-14q-17 0 -17 20v68q-111 2 -179 32q-15 8 -15 19t8 32q7 18 21 18q10 0 24 -6q71 -28 141 -29v243l-52 15q-64 18 -98.5 62t-34.5 109q0 171 185 185v68q0 20 18 20h14q15 0 15 -20v-66q87 -2 143 -20q16 -6 16 -20q0 -7 -7 -35q-3 -12 -16 -12
q-8 0 -24 4q-59 15 -112 17v-243l33 -9q84 -27 117.5 -63t33.5 -109q0 -174 -184 -190v-70zM146 495q0 -44 21.5 -69.5t89.5 -45.5v228q-64 -6 -87.5 -34t-23.5 -79zM414 179q0 41 -20.5 65t-89.5 45v-227q36 4 60 16t34 30.5t13 34t3 36.5z" />
    <glyph glyph-name="percent" unicode="%" horiz-adv-x="847" 
d="M347 474q0 -126 -35.5 -172t-122.5 -46q-83 0 -118.5 45t-35.5 169t40.5 169t119.5 45q58 0 88.5 -15.5t47 -61t16.5 -133.5zM288 473q0 97 -20 128t-75 31q-53 0 -76 -33t-23 -129q0 -69 11.5 -105t30.5 -47t53 -11q56 0 77.5 31.5t21.5 134.5zM279 -15q-10 -17 -22 -17
h-16q-11 0 -11 12q0 6 6 18l333 691q11 22 24 22h16q13 0 13 -13q-1 -7 -10 -24zM813 210q0 -126 -36 -172t-122 -46q-83 0 -119 45t-36 169t41 169t120 45q57 0 88 -15.5t47.5 -61.5t16.5 -133zM752 209q0 96 -20 126.5t-73 30.5t-76 -32t-23 -128q0 -98 22 -129.5
t73 -31.5q55 0 76 31t21 133z" />
    <glyph glyph-name="ampersand" unicode="&#x26;" horiz-adv-x="720" 
d="M571 283q18 -30 18 -73q0 -128 -65.5 -175.5t-194.5 -47.5q-134 0 -198.5 47.5t-64.5 158.5q0 81 35.5 123.5t104.5 59.5q-107 29 -107 149q0 97 50.5 142.5t172.5 46.5q78 0 127 -15q26 -7 26 -22q0 -12 -8 -38q-3 -12 -18 -12q-7 0 -33 7q-45 10 -87 10
q-94 0 -124.5 -29.5t-30.5 -94.5q0 -53 33.5 -85t94.5 -32q23 0 23 -19v-30q0 -19 -24 -19q-88 -1 -123 -34.5t-35 -102.5q0 -82 47 -111.5t143 -29.5q97 0 141 28.5t44 121.5q0 38 -14 67q-24 -3 -108 -3q-27 0 -27 19v27q0 22 23 22q177 0 272 34q26 10 29 10q9 0 15 -14
q9 -20 9 -34q0 -13 -22 -22q-60 -22 -124 -30z" />
    <glyph glyph-name="quotesingle" unicode="'" horiz-adv-x="190" 
d="M126 476q-1 -20 -18 -20h-24q-19 0 -20 22q-9 176 -9 212q0 26 24 26h34q22 0 22 -25q0 -5 -9 -215z" />
    <glyph glyph-name="parenleft" unicode="(" horiz-adv-x="312" 
d="M129 313q0 -96 14 -169.5t43 -124.5t51.5 -78.5t61.5 -63.5q6 -6 6 -12t-7 -13q-8 -7 -14 -7q-9 0 -23 10q-201 125 -201 456q0 318 199 447q13 9 22 9t17 -8q7 -7 7 -14q0 -5 -6 -11q-80 -65 -125 -162t-45 -259z" />
    <glyph glyph-name="parenright" unicode=")" horiz-adv-x="312" 
d="M183 292q0 96 -13.5 167t-43.5 122t-50.5 74.5t-62.5 63.5q-6 6 -6 13t8 13q6 6 14 6q9 0 22 -9q201 -125 201 -448q0 -308 -198 -439q-16 -10 -23 -10q-8 0 -17 9q-7 7 -7 13q0 5 6 11q80 63 125 158t45 256z" />
    <glyph glyph-name="asterisk" unicode="*" horiz-adv-x="408" 
d="M202 469l-74 -108q-7 -9 -15 -9q-6 0 -25 13q-9 7 -9 16q0 8 6 14q28 37 83 103q-64 17 -125 35q-16 5 -16 17q0 10 7 25q5 13 17 13q7 0 17 -4q60 -20 115 -41q-7 98 -7 127q0 13 5.5 19t22.5 6q16 0 22 -5.5t6 -18.5q0 -19 -5 -129q72 29 117 43q12 3 18 3q10 0 15 -12
q5 -17 5 -24q0 -13 -15 -18q-81 -24 -129 -36q6 -8 37 -45.5t47 -58.5q6 -6 6 -14t-10 -15q-17 -12 -24 -12q-10 0 -16 8z" />
    <glyph glyph-name="plus" unicode="+" horiz-adv-x="701" 
d="M380 53q0 -18 -19 -18h-22q-18 0 -18 18v212h-213q-18 0 -18 20v20q0 20 18 20h212v210q0 19 19 19h22q19 0 19 -19v-210h213q18 0 18 -20v-20q0 -20 -18 -20h-213v-212z" />
    <glyph glyph-name="comma" unicode="," horiz-adv-x="213" 
d="M135 103q24 0 24 -23q0 -61 -24 -128t-63 -105q-12 -14 -24 -14t-24 10q-13 11 -13 19q0 6 7 17q59 73 59 195q0 29 25 29h33z" />
    <glyph glyph-name="hyphen" unicode="-" horiz-adv-x="302" 
d="M249 231h-196q-18 0 -18 17v38q0 18 19 18h194q19 0 19 -18v-40q0 -15 -18 -15z" />
    <glyph glyph-name="period" unicode="." horiz-adv-x="214" 
d="M161 43q0 -55 -54 -55q-53 0 -53 54q0 55 53 55q25 0 39.5 -11.5t14.5 -42.5z" />
    <glyph glyph-name="slash" unicode="/" horiz-adv-x="381" 
d="M74 -80q-9 -20 -25 -20h-20q-16 0 -16 13q0 8 4 19l287 795q9 24 24 24h21q18 0 18 -13q0 -8 -7 -27z" />
    <glyph glyph-name="zero" unicode="0" horiz-adv-x="559" 
d="M515 344q0 -141 -25.5 -219.5t-75.5 -108t-137 -29.5q-84 0 -132.5 28.5t-74.5 105.5t-26 215q0 107 17 178.5t51.5 108.5t75.5 51t98 14q51 0 86 -8t64 -29.5t45 -60t25 -99t9 -147.5zM440 344q0 115 -16 174t-48.5 80t-93.5 21q-57 0 -90.5 -21t-53 -83.5t-19.5 -176.5
q0 -118 18.5 -180.5t50.5 -82t90 -19.5q46 0 73.5 10t49 40.5t30.5 87.5t9 150z" />
    <glyph glyph-name="one" unicode="1" horiz-adv-x="559" 
d="M271 592l-95 -43q-14 -6 -19 -6q-9 0 -13 9q-14 32 -14 39q0 10 13 16l126 61q16 8 33 8h24q18 0 18 -19v-638q0 -21 -20 -21h-34q-19 0 -19 21v573z" />
    <glyph glyph-name="two" unicode="2" horiz-adv-x="559" 
d="M477 0h-407q-19 0 -19 17v29q0 16 10 23l49 41l54 43l49 40q31 26 50.5 44t42.5 42l43 45q62 71 62 161q0 67 -32.5 100.5t-118.5 33.5q-56 0 -118 -20l-32 -9q-12 0 -15 11q-9 25 -9 36q0 15 23 23q75 28 164 28q121 0 167 -50.5t46 -143.5q0 -115 -66 -192
q-100 -115 -266 -232q59 1 323 1q20 0 20 -19v-33q0 -19 -20 -19z" />
    <glyph glyph-name="three" unicode="3" horiz-adv-x="559" 
d="M337 358q64 -6 101 -48.5t37 -119.5q0 -105 -57.5 -154t-180.5 -49q-101 0 -154 19q-23 9 -23 26q0 12 10 36q6 11 16 11q4 0 14.5 -3.5t16.5 -4.5q58 -15 120 -15q54 0 88.5 11t49.5 32t20 40.5t5 48.5q0 66 -38 98.5t-132 32.5h-22q-19 0 -19 20v29q0 20 19 20h23
q151 0 151 114q0 66 -29.5 91.5t-110.5 25.5q-59 0 -110 -16q-28 -10 -34 -10q-11 0 -15 11q-7 30 -7 35q0 15 23 24q71 25 155 25q119 0 161.5 -43t42.5 -138q0 -59 -32.5 -97t-88.5 -52z" />
    <glyph glyph-name="four" unicode="4" horiz-adv-x="559" 
d="M432 19q0 -21 -20 -21h-33q-20 0 -20 21v158h-294q-22 0 -22 19v25q0 15 8 31l225 400q14 24 31 24h33q16 0 16 -14q0 -11 -8 -25q-147 -265 -224 -391h235v168q0 23 20 23h34q19 0 19 -22v-169h90q22 0 22 -19v-32q0 -18 -22 -18h-90v-158z" />
    <glyph glyph-name="five" unicode="5" horiz-adv-x="559" 
d="M160 406q65 18 122 18q113 0 163 -48.5t50 -163.5q0 -225 -249 -225q-100 0 -157 19q-21 7 -21 23q0 12 10 38q4 12 17 12q4 0 14.5 -3.5t16.5 -4.5q58 -15 124 -15q170 0 170 153q0 84 -40.5 115.5t-120.5 31.5q-65 0 -126 -19q-21 -6 -25 -6q-18 0 -18 20q0 15 1 24
l23 275q2 26 23 26h303q20 0 20 -18v-33q0 -19 -21 -19h-262z" />
    <glyph glyph-name="six" unicode="6" horiz-adv-x="559" 
d="M131 340q19 38 70 62t111 24q103 0 151 -51t48 -164q0 -224 -226 -224q-111 0 -169 70t-58 238q0 98 10.5 164t39.5 121t86 81.5t144 26.5q75 0 124 -15q11 -4 11 -18q0 -10 -6 -36q-4 -13 -16 -13q-6 0 -26 5q-40 8 -82 8q-40 0 -70.5 -6.5t-52 -16.5t-37 -30.5t-24 -39
t-14.5 -52.5t-8.5 -60.5t-5.5 -73.5zM135 249q0 -33 2 -55q15 -140 153 -140q77 0 113.5 38.5t36.5 120.5q0 71 -32 108t-106 37q-52 0 -94.5 -20t-63.5 -54q-9 -15 -9 -35z" />
    <glyph glyph-name="seven" unicode="7" horiz-adv-x="559" 
d="M414 607q-62 -1 -343 -1q-22 0 -22 19v33q0 18 21 18h408q19 0 19 -18v-19q0 -18 -6 -33l-74 -168l-92 -216.5t-76 -199.5q-9 -24 -27 -24h-38q-19 0 -19 15q0 9 7 27q143 363 242 567z" />
    <glyph glyph-name="eight" unicode="8" horiz-adv-x="559" 
d="M374 356q133 -23 133 -170q0 -101 -56 -150t-172 -49q-118 0 -172.5 47t-54.5 148q0 139 131 173q-110 29 -110 158q0 175 212 175q107 0 155.5 -40.5t48.5 -132.5q0 -126 -115 -159zM416 507q0 59 -30 86.5t-106 27.5t-105 -29t-29 -89q0 -62 37.5 -90t96.5 -28
q54 0 95 28.5t41 93.5zM433 187q0 132 -153 132q-154 0 -154 -131q0 -78 40 -106.5t113 -28.5q74 0 114 30t40 104z" />
    <glyph glyph-name="nine" unicode="9" horiz-adv-x="559" 
d="M428 339q-20 -38 -70.5 -62t-111.5 -24q-103 0 -149.5 49.5t-46.5 162.5q0 107 57.5 165t173.5 58q110 0 164.5 -69t54.5 -239q0 -78 -5.5 -133t-22.5 -107.5t-47 -84t-80 -50.5t-121 -19q-84 0 -131 17q-10 4 -10 17t8 39q4 11 12 11q5 0 15 -2l11 -2q49 -11 94 -11
q39 0 69 7t51 17.5t35.5 32t23 40t14 54t7.5 61t5 72.5zM425 433q0 24 -3 46q-8 67 -40 104.5t-107 37.5q-78 0 -116 -38.5t-38 -119.5q0 -71 31 -107t105 -36q112 0 158 72q10 18 10 41z" />
    <glyph glyph-name="colon" unicode=":" horiz-adv-x="233" 
d="M181 43q0 -55 -54 -55q-53 0 -53 54q0 55 53 55q25 0 39.5 -11.5t14.5 -42.5zM181 443q0 -55 -54 -55q-53 0 -53 54q0 55 53 55q54 0 54 -54z" />
    <glyph glyph-name="semicolon" unicode=";" horiz-adv-x="233" 
d="M181 443q0 -55 -54 -55q-53 0 -53 54q0 55 53 55q54 0 54 -54zM155 103q24 0 24 -23q0 -61 -23.5 -127.5t-63.5 -105.5q-14 -14 -24 -14q-12 0 -24 10q-13 10 -13 19q0 6 7 17q59 73 59 195q0 29 25 29h33z" />
    <glyph glyph-name="less" unicode="&#x3c;" horiz-adv-x="701" 
d="M567 71q0 -16 -13 -16q-8 0 -13 3l-413 197q-14 8 -14 24v27q0 17 14 24l412 201q10 5 15 5q12 0 12 -17v-28q0 -15 -15 -23l-372 -173l372 -172q15 -6 15 -23v-29z" />
    <glyph glyph-name="equal" unicode="=" horiz-adv-x="701" 
d="M611 186q0 -20 -18 -20h-485q-18 0 -18 20v19q0 19 18 19h485q18 0 18 -19v-19zM611 380q0 -19 -18 -19h-485q-18 0 -18 19v21q0 19 18 19h485q18 0 18 -19v-21z" />
    <glyph glyph-name="greater" unicode="&#x3e;" horiz-adv-x="701" 
d="M134 520q0 16 13 16q5 0 11 -3l412 -197q16 -9 16 -26v-25q0 -19 -15 -26l-413 -201q-8 -4 -11 -4q-13 0 -13 17v27q0 17 14 23l373 176l-373 170q-14 7 -14 22v31z" />
    <glyph glyph-name="question" unicode="?" horiz-adv-x="409" 
d="M185 217h-21q-18 0 -20 15q-2 23 -2 52q0 49 14.5 77t58.5 57q49 33 67.5 62.5t18.5 74.5q0 96 -111 96q-61 0 -108 -13q-2 0 -5.5 -1.5t-7 -2t-6.5 -0.5q-12 0 -16 12q-6 18 -6 32q0 16 13 20q64 22 143 22q100 0 140 -40.5t40 -114.5q0 -62 -20 -98t-80 -78
q-42 -30 -54 -48t-16 -57q-1 -10 -2 -26.5t-2 -26.5q-2 -14 -18 -14zM222 43q0 -54 -52 -54t-52 53q0 54 52 54t52 -53z" />
    <glyph glyph-name="at" unicode="@" horiz-adv-x="805" 
d="M483 110q-48 -53 -131 -53q-130 0 -130 127q0 68 27 136t74 109q53 46 144 46q53 0 87 -20l2 6q4 11 19 11h15q12 0 12 -12q0 -7 -3 -22l-57 -265q-5 -22 -5 -40q0 -24 23 -24q21 0 44 14q49 32 76.5 98.5t27.5 139.5q0 123 -63 183.5t-193 60.5q-152 0 -248.5 -107
t-96.5 -273q0 -143 76 -221t226 -78q75 0 119 8.5t95 26.5q22 8 27 8q9 0 15 -15q4 -10 4 -16q0 -10 -23 -19q-106 -42 -239 -42q-167 0 -259.5 89.5t-92.5 258.5q0 185 110.5 304.5t288.5 119.5q146 0 225.5 -70.5t79.5 -214.5q0 -123 -62.5 -213.5t-153.5 -90.5
q-59 0 -60 50zM539 412q-27 16 -77 16q-66 0 -106 -35q-34 -31 -55.5 -88t-21.5 -111q0 -46 21.5 -67.5t67.5 -21.5q53 0 95 33q10 7 16 15q6 10 10 28z" />
    <glyph glyph-name="A" unicode="A" horiz-adv-x="598" 
d="M164 223l-74 -200q-9 -25 -26 -25h-35q-21 0 -21 15q0 7 7 26l240 650q7 19 26 19h35q20 0 26 -19l240 -650q7 -19 7 -26q0 -15 -19 -15h-35q-11 0 -16.5 5.5t-11.5 21.5l-73 198h-270zM186 292h226l-113 312z" />
    <glyph glyph-name="B" unicode="B" horiz-adv-x="623" 
d="M280 0h-157q-21 0 -21 22v662q0 22 19 22h160q49 0 101 -6q155 -16 155 -169q0 -66 -25 -104.5t-80 -56.5q128 -30 128 -165q0 -142 -103 -183q-56 -22 -177 -22zM177 70h108q94 0 131 16q67 28 67 124q0 78 -68 109q-28 13 -109 13h-129v-262zM177 402h127q78 0 99 10
q59 29 59 108q0 36 -11.5 58.5t-24.5 30.5t-36 17q-28 10 -105 10h-108v-234z" />
    <glyph glyph-name="C" unicode="C" horiz-adv-x="600" 
d="M140 357q0 -55 3 -93.5t15 -80.5t32.5 -67.5t58 -42t90.5 -16.5q97 0 171 28q18 7 28 7t16 -14q8 -22 8 -33q0 -13 -22 -22q-86 -36 -208 -36q-138 0 -203.5 79.5t-65.5 275.5q0 202 65 289.5t234 87.5q94 0 161 -15q24 -5 24 -22q0 -20 -8 -41q-3 -10 -16 -10
q-4 0 -32 6q-58 12 -142 12q-54 0 -93 -15.5t-61 -40.5t-35 -65t-16.5 -78.5t-3.5 -92.5z" />
    <glyph glyph-name="D" unicode="D" horiz-adv-x="701" 
d="M177 71h105q106 0 154 22q69 32 96.5 99.5t27.5 168.5q0 97 -26 159.5t-89 91.5q-50 23 -164 23h-104v-564zM271 0h-150q-19 0 -19 21v664q0 21 18 21h158q117 0 181 -19q179 -52 179 -326q0 -131 -41 -215.5t-142 -121.5q-64 -24 -184 -24z" />
    <glyph glyph-name="E" unicode="E" horiz-adv-x="557" 
d="M499 0h-377q-20 0 -20 21v663q0 22 18 22h365q20 0 20 -19v-33q0 -19 -20 -19h-308v-232h278q20 0 20 -20v-33q0 -18 -20 -18h-278v-261h322q21 0 21 -20v-33q0 -18 -21 -18z" />
    <glyph glyph-name="F" unicode="F" horiz-adv-x="530" 
d="M177 20q0 -22 -20 -22h-36q-19 0 -19 21v665q0 22 18 22h362q21 0 21 -19v-33q0 -18 -21 -18h-305v-257h271q21 0 21 -19v-33q0 -18 -21 -18h-271v-289z" />
    <glyph glyph-name="G" unicode="G" horiz-adv-x="669" 
d="M596 60q0 -16 -4 -23.5t-17 -12.5q-96 -37 -235 -37q-143 0 -210 79t-67 276q0 202 67 289.5t239 87.5q100 0 168 -17q24 -6 24 -21q0 -20 -8 -41q-4 -11 -16 -11q-10 0 -31 6q-58 14 -150 14q-69 0 -113.5 -22t-66 -65.5t-29 -90t-7.5 -114.5q0 -55 3 -93.5t15 -80.5
t33.5 -67.5t60 -42t93.5 -16.5q99 0 180 24v200h-158q-18 0 -18 17v39q0 17 18 17h207q22 0 22 -24v-270z" />
    <glyph glyph-name="H" unicode="H" horiz-adv-x="706" 
d="M177 19q0 -21 -20 -21h-36q-19 0 -19 21v668q0 21 20 21h37q18 0 18 -21v-284h352v284q0 21 20 21h37q18 0 18 -21v-668q0 -21 -20 -21h-36q-19 0 -19 21v313h-352v-313z" />
    <glyph glyph-name="I" unicode="I" horiz-adv-x="279" 
d="M177 19q0 -21 -20 -21h-36q-19 0 -19 21v668q0 21 20 21h37q18 0 18 -21v-668z" />
    <glyph glyph-name="J" unicode="J" horiz-adv-x="308" 
d="M207 687v-617q0 -53 -6.5 -82t-25.5 -50q-38 -41 -128 -41q-30 0 -44 3q-15 2 -15 16q0 17 3 35q3 17 19 17q2 0 17 -1t22 -1q47 0 65 18q17 17 17 97v606q0 21 21 21h36q19 0 19 -21z" />
    <glyph glyph-name="K" unicode="K" horiz-adv-x="589" 
d="M177 19q0 -21 -20 -21h-36q-19 0 -19 21v668q0 21 20 21h37q18 0 18 -21v-285h58q31 0 44 17l197 273q12 16 28 16h38q17 0 17 -13q0 -10 -10 -22l-223 -303l240 -332q12 -15 12 -25q0 -15 -19 -15h-41q-16 0 -27 16l-218 301q-11 17 -38 17h-58v-313z" />
    <glyph glyph-name="L" unicode="L" horiz-adv-x="545" 
d="M497 0h-375q-20 0 -20 21v666q0 21 20 21h37q18 0 18 -21v-616h320q21 0 21 -20v-33q0 -18 -21 -18z" />
    <glyph glyph-name="M" unicode="M" horiz-adv-x="828" 
d="M176 19q0 -21 -20 -21h-36q-18 0 -18 21v663q0 24 19 24h67q17 0 26 -19l105 -218l66 -134l32 -68l26 57l33 68l57 120l83 176q8 18 27 18h61q22 0 22 -26v-660q0 -22 -20 -22h-35q-19 0 -19 22q0 477 3 598q-37 -91 -207 -439q-7 -16 -24 -16h-19q-17 0 -26 19
q-166 344 -206 436q3 -126 3 -599z" />
    <glyph glyph-name="N" unicode="N" horiz-adv-x="707" 
d="M175 19q0 -21 -20 -21h-34q-19 0 -19 21v668q0 21 20 21h33q14 0 22 -12q256 -390 356 -555q-1 78 -1 545q0 22 21 22h34q19 0 19 -21v-668q0 -21 -21 -21h-27q-18 0 -29 17q-305 468 -355 557q1 -91 1 -553z" />
    <glyph glyph-name="O" unicode="O" horiz-adv-x="697" 
d="M634 358q0 -145 -32.5 -227t-93 -113t-163.5 -31q-100 0 -159 30.5t-91 112.5t-32 227q0 109 21 182.5t62 111.5t90 53t117 15q61 0 102.5 -8t77.5 -30.5t57 -62.5t32.5 -104t11.5 -156zM556 356q0 76 -7.5 127t-21.5 84.5t-40.5 51t-57.5 24t-79 6.5q-54 0 -90 -11.5
t-65 -43t-42 -90t-13 -147.5q0 -95 12.5 -155t40.5 -91.5t63 -42.5t90 -11q43 0 73 6t57.5 24t44 50.5t26 87t9.5 131.5z" />
    <glyph glyph-name="P" unicode="P" horiz-adv-x="620" 
d="M177 19q0 -21 -21 -21h-35q-19 0 -19 21v665q0 22 21 22h157q122 0 178 -22q102 -42 102 -180q0 -75 -34 -125t-99 -68q-48 -14 -142 -14h-108v-278zM177 366h113q84 0 126 16q66 28 66 118q0 94 -65 121q-32 14 -132 14h-108v-269z" />
    <glyph glyph-name="Q" unicode="Q" horiz-adv-x="697" 
d="M634 358q0 -132 -25 -209.5t-78 -116.5l142 -92q10 -7 10 -15q0 -5 -23 -41q-6 -9 -14 -9q-7 0 -13 5l-180 119q-48 -12 -108 -12q-100 0 -159 30.5t-91 112.5t-32 227q0 109 21 182.5t62 111.5t90 53t117 15q61 0 102.5 -8t77.5 -30.5t57 -62.5t32.5 -104t11.5 -156z
M556 356q0 76 -7.5 127t-21.5 84.5t-40.5 51t-57.5 24t-79 6.5q-54 0 -90 -11.5t-65 -43t-42 -90t-13 -147.5q0 -95 12.5 -155t40.5 -91.5t63 -42.5t90 -11q43 0 73 6t57.5 24t44 50.5t26 87t9.5 131.5z" />
    <glyph glyph-name="R" unicode="R" horiz-adv-x="623" 
d="M177 19q0 -21 -21 -21h-35q-19 0 -19 21v665q0 22 21 22h148q125 0 178 -21q55 -22 78 -64.5t23 -108.5q0 -152 -133 -190l-9 -3l166 -280q8 -16 8 -26q0 -15 -17 -15h-39q-17 0 -29 22l-167 289q-17 -1 -54 -1h-99v-289zM177 375h105q86 0 125 16q65 26 65 116
q0 53 -16 77t-48 38t-132 14h-99v-261z" />
    <glyph glyph-name="S" unicode="S" horiz-adv-x="563" 
d="M347 375q91 -27 126.5 -65t35.5 -116q0 -100 -57 -153.5t-189 -53.5q-113 0 -195 34q-20 8 -20 21q0 12 9 37q5 16 22 16q8 0 27 -7q74 -30 159 -30q55 0 91 11.5t51 32.5t20 39.5t5 44.5q0 43 -25.5 71.5t-110.5 51.5l-95 26q-70 19 -106 66.5t-36 116.5q0 98 57 149.5
t184 51.5q90 0 164 -23q18 -6 18 -22q0 -10 -7 -34q-4 -14 -18 -14q-3 0 -26 5q-72 18 -137 18q-91 0 -124.5 -31.5t-33.5 -92.5q0 -47 24.5 -75t99.5 -50z" />
    <glyph glyph-name="T" unicode="T" horiz-adv-x="574" 
d="M325 19q0 -21 -20 -21h-36q-20 0 -20 21v617h-202q-20 0 -20 18v33q0 19 20 19h480q21 0 21 -19v-33q0 -18 -21 -18h-202v-617z" />
    <glyph glyph-name="U" unicode="U" horiz-adv-x="692" 
d="M597 685v-403q0 -83 -5 -125.5t-23 -73.5q-54 -96 -227 -96q-86 0 -142 22.5t-83 80.5q-22 48 -22 190v405q0 21 20 21h37q18 0 18 -21v-429q0 -104 22 -139q37 -60 154 -60q123 0 154 57q24 41 24 138v433q0 21 20 21h35q18 0 18 -21z" />
    <glyph glyph-name="V" unicode="V" horiz-adv-x="587" 
d="M308 -2h-35q-17 0 -25 21l-233 648q-7 19 -7 26q0 15 20 15h38q18 0 26 -24q162 -455 201 -577q14 42 206 575q9 26 26 26h35q19 0 19 -16q0 -10 -6 -26l-239 -648q-8 -20 -26 -20z" />
    <glyph glyph-name="W" unicode="W" horiz-adv-x="914" 
d="M459 564q-40 -141 -169 -546q-7 -20 -26 -20h-34q-18 0 -24 21l-171 646q-4 16 -4 27q0 16 18 16h39q18 0 24 -24q124 -481 144 -565q43 160 162 537q4 14 9.5 20t16.5 6h32q17 0 25 -25q140 -449 162 -538q29 126 144 562q6 27 25 27h34q18 0 18 -16q0 -10 -5 -30
l-176 -644q-5 -20 -24 -20h-34q-19 0 -25 21z" />
    <glyph glyph-name="X" unicode="X" horiz-adv-x="636" 
d="M110 19q-9 -13 -15 -17t-17 -4h-36q-18 0 -18 13q0 11 13 28l230 327l-210 296q-15 22 -15 30q0 16 17 16h41q17 0 30 -18l189 -270l188 266q16 22 35 22h34q16 0 16 -14q0 -9 -13 -29l-212 -302l227 -322q14 -21 14 -28q0 -15 -18 -15h-40q-10 0 -16.5 5t-17.5 20
q-148 204 -202 286z" />
    <glyph glyph-name="Y" unicode="Y" horiz-adv-x="566" 
d="M321 20q0 -22 -20 -22h-36q-19 0 -19 22v287l-224 355q-14 24 -14 31q0 6 4.5 11.5t11.5 5.5h42q17 0 29 -20l191 -310q41 72 188 306q15 24 32 24h37q16 0 16 -14q0 -11 -11 -28l-227 -359v-289z" />
    <glyph glyph-name="Z" unicode="Z" horiz-adv-x="598" 
d="M547 0h-500q-24 0 -24 23v17q0 13 13 32l416 563h-373q-22 0 -22 20v30q0 21 22 21h450q22 0 22 -21v-15q0 -21 -12 -38l-413 -561h421q22 0 22 -20v-32q0 -19 -22 -19z" />
    <glyph glyph-name="bracketleft" unicode="[" horiz-adv-x="283" 
d="M144 -96h104q13 0 13 -13v-16q0 -15 -13 -15h-153q-15 0 -15 17v859q0 7 4.5 12t10.5 5h153q13 0 13 -13v-18q0 -13 -13 -13h-104v-805z" />
    <glyph glyph-name="backslash" unicode="\" horiz-adv-x="381" 
d="M363 -68q4 -11 4 -19q0 -13 -16 -13h-20q-16 0 -25 20l-286 791q-7 19 -7 27q0 13 18 13h21q15 0 24 -24z" />
    <glyph glyph-name="bracketright" unicode="]" horiz-adv-x="283" 
d="M139 709h-104q-14 0 -14 12v16q0 16 14 16h153q6 0 10.5 -5.5t4.5 -12.5v-859q0 -7 -4.5 -11.5t-10.5 -4.5h-153q-14 0 -14 12v18q0 13 14 13h104v806z" />
    <glyph glyph-name="asciicircum" unicode="^" horiz-adv-x="708" 
d="M565 306q4 -5 4 -11q0 -14 -17 -14h-28q-15 0 -21 15l-150 310l-147 -310q-8 -15 -21 -15h-29q-16 0 -16 14q0 4 4 12l169 355q7 13 21 13h40q14 0 21 -13z" />
    <glyph glyph-name="underscore" unicode="_" horiz-adv-x="493" 
d="M0 -78h493v-55h-493v55z" />
    <glyph glyph-name="grave" unicode="`" horiz-adv-x="197" 
d="M125 592l-122 130q-8 10 -8 16q0 13 15 13h54q15 0 25 -13l106 -131q5 -6 5 -15q0 -12 -13 -12h-35q-16 0 -27 12z" />
    <glyph glyph-name="a" unicode="a" horiz-adv-x="532" 
d="M376 39q-55 -51 -150 -51q-173 0 -173 161q0 80 64 117q49 28 152 28q73 0 106 -5v47q0 47 -7 64q-17 43 -109 43q-68 0 -115 -11q-28 -7 -33 -7q-12 0 -14 12q-6 18 -6 35q0 15 16 19q71 21 164 21q107 0 144 -38q18 -18 24 -46.5t6 -78.5v-328q0 -14 -4.5 -18.5
t-15.5 -4.5h-25q-20 0 -21 14zM375 232q-38 5 -98 5q-90 0 -127 -27q-26 -19 -26 -61q0 -48 25.5 -73t92.5 -25q68 0 109 27q12 7 19 16q5 9 5 25v113z" />
    <glyph glyph-name="b" unicode="b" horiz-adv-x="572" 
d="M155 25l-1 -17q-1 -13 -21 -13h-23q-20 0 -20 25v707q0 21 20 21h33q19 0 19 -21v-261q50 43 172 43q93 0 138.5 -57.5t45.5 -189.5q0 -81 -14.5 -134t-46 -82t-72.5 -40t-103 -11q-33 0 -72.5 8.5t-54.5 21.5zM162 85q13 -9 48.5 -16.5t65.5 -7.5q101 0 135 41.5
t34 152.5q0 102 -28.5 143.5t-108.5 41.5q-87 0 -128 -26q-13 -10 -15 -16q-3 -6 -3 -21v-292z" />
    <glyph glyph-name="c" unicode="c" horiz-adv-x="458" 
d="M128 251q0 -47 4.5 -78t17.5 -60.5t41.5 -44t71.5 -14.5q71 0 119 18q20 6 23 6q10 0 13 -12q8 -27 8 -32q0 -14 -16 -21q-62 -26 -150 -26q-105 0 -155 56.5t-50 197.5q0 142 52 206.5t176 64.5q70 0 115 -12q17 -4 17 -19q0 -19 -7 -38q-4 -11 -15 -11q-9 0 -24 3
q-38 9 -87 9q-40 0 -68.5 -10.5t-45 -26.5t-25.5 -42.5t-12 -52t-3 -61.5z" />
    <glyph glyph-name="d" unicode="d" horiz-adv-x="572" 
d="M481 20q0 -13 -4.5 -17.5t-15.5 -4.5h-26q-20 0 -21 13l-3 25q-48 -48 -160 -48q-96 0 -146.5 59t-50.5 191q0 153 57.5 213t185.5 60q78 0 112 -17v234q0 20 21 20h33q18 0 18 -20v-708zM409 120v304q-30 19 -111 19q-99 0 -135 -44.5t-36 -155.5q0 -99 32 -143.5
t110 -44.5q82 0 122 28q10 6 16 16q2 4 2 21z" />
    <glyph glyph-name="e" unicode="e" horiz-adv-x="526" 
d="M127 226q1 -100 38.5 -136t120.5 -36q78 0 137 22q16 6 22 6q9 0 14 -10q9 -24 9 -35q0 -12 -16 -19q-66 -31 -172 -31q-125 0 -175.5 61t-50.5 200q0 138 57 201t171 63q50 0 86 -12.5t57 -32.5t33 -53t16 -67.5t4 -82.5q0 -24 -8 -32q-6 -6 -21 -6h-322zM127 289h279
q1 7 1 24q0 69 -27 102.5t-101 33.5q-83 0 -116.5 -40t-35.5 -120z" />
    <glyph glyph-name="f" unicode="f" horiz-adv-x="317" 
d="M181 18q0 -20 -18 -20h-34q-19 0 -19 21v411h-54q-19 0 -19 18v30q0 20 19 20h54v81q0 101 40 140q38 38 125 38q48 0 68 -7q11 -5 11 -17q0 -13 -4 -37q-3 -12 -17 -12q-2 0 -21.5 2.5t-33.5 2.5q-62 0 -80 -29q-17 -24 -17 -94v-68h107q19 0 19 -18v-33q0 -17 -19 -17
h-107v-412z" />
    <glyph glyph-name="g" unicode="g" horiz-adv-x="513" 
d="M113 12q-70 18 -70 102q0 74 67 102q-36 45 -36 122q0 174 195 174q52 0 91 -14h132q20 0 20 -20v-25q0 -18 -20 -18h-61q23 -39 23 -91q0 -179 -193 -179q-49 0 -77 10q-26 8 -32 8q-10 0 -24 -10q-18 -16 -18 -48q0 -41 28 -50q22 -7 151 -7q133 0 176 -27.5t43 -121.5
q0 -85 -54 -126t-190 -41q-67 0 -112.5 11t-68 33t-31 46.5t-8.5 58.5q0 80 69 111zM437 -82q0 46 -24.5 62.5t-109.5 18.5q-42 1 -91 1q-28 0 -43 -5q-58 -17 -58 -84q0 -49 35.5 -70.5t121.5 -21.5q101 0 135 23t34 76zM387 339q0 63 -29.5 85.5t-92.5 22.5
q-59 0 -90.5 -23t-31.5 -84q0 -68 30 -90.5t91 -22.5q59 0 91 24.5t32 87.5z" />
    <glyph glyph-name="h" unicode="h" horiz-adv-x="580" 
d="M162 18q0 -20 -19 -20h-34q-19 0 -19 20v711q0 22 19 22h35q18 0 18 -22v-264q23 22 77.5 33.5t105.5 11.5q65 0 96 -15t43 -47q9 -26 9 -98v-332q0 -20 -19 -20h-33q-19 0 -19 20v317q0 46 -7 67q-8 21 -27 30t-63 9q-90 0 -139 -20q-12 -4 -18 -13q-6 -8 -6 -25v-365z
" />
    <glyph glyph-name="i" unicode="i" horiz-adv-x="252" 
d="M162 18q0 -20 -19 -20h-34q-19 0 -19 20v460q0 22 19 22h35q18 0 18 -21v-461zM174 662q0 -50 -48 -50t-48 49q0 51 48 51t48 -50z" />
    <glyph glyph-name="j" unicode="j" horiz-adv-x="255" 
d="M162 479v-558q0 -94 -34 -128q-41 -42 -144 -42q-27 0 -27 18q0 24 1 32q2 16 21 16q64 2 87 21q24 21 24 84v556q0 22 19 22h35q18 0 18 -21zM174 662q0 -50 -48 -50t-48 49q0 51 48 51t48 -50z" />
    <glyph glyph-name="k" unicode="k" horiz-adv-x="500" 
d="M162 18q0 -20 -19 -20h-34q-19 0 -19 20v701q0 22 19 22h35q18 0 18 -21v-411h56q32 0 45 18l120 157q13 16 29 16h37q16 0 16 -14q0 -9 -10 -21l-149 -184l177 -245q13 -17 13 -24q0 -14 -19 -14h-38q-16 0 -28 17l-151 211q-13 18 -39 18h-59v-226z" />
    <glyph glyph-name="l" unicode="l" horiz-adv-x="252" 
d="M162 18q0 -20 -19 -20h-34q-19 0 -19 20v709q0 21 20 21h34q18 0 18 -21v-709z" />
    <glyph glyph-name="m" unicode="m" horiz-adv-x="881" 
d="M162 17q0 -19 -19 -19h-34q-19 0 -19 19v464q0 21 22 21h29q10 0 14 -4.5t5 -16.5l2 -20q23 24 74 36.5t100 12.5q106 0 130 -55q50 55 185 55q63 0 93.5 -15t43.5 -47q10 -23 10 -98v-333q0 -19 -20 -19h-33q-19 0 -19 19v318q0 45 -7 68q-7 21 -25 29.5t-62 8.5
q-68 0 -125 -23q-15 -6 -21 -15q-6 -6 -6 -30v-356q0 -19 -19 -19h-33q-19 0 -19 19v318q0 52 -6 68q-8 21 -26 29.5t-62 8.5q-70 0 -128 -25q-13 -4 -19 -13q-6 -6 -6 -25v-361z" />
    <glyph glyph-name="n" unicode="n" horiz-adv-x="580" 
d="M162 18q0 -20 -19 -20h-34q-19 0 -19 20v463q0 21 22 21h29q10 0 14 -4.5t5 -16.5l2 -20q23 25 77 37t106 12q65 0 96 -15t43 -47q9 -26 9 -98v-332q0 -20 -19 -20h-33q-19 0 -19 20v317q0 50 -7 68q-7 20 -26.5 29t-63.5 9q-89 0 -139 -25q-13 -7 -18 -14q-6 -8 -6 -25
v-359z" />
    <glyph glyph-name="o" unicode="o" horiz-adv-x="556" 
d="M502 253q0 -79 -13.5 -131.5t-43 -82t-70 -41t-99.5 -11.5q-58 0 -97 11.5t-68.5 40t-43 80.5t-13.5 131t17 132.5t49.5 81t70.5 38t91 10.5q59 0 96 -9t67.5 -36t43.5 -79t13 -135zM430 249q0 83 -14.5 124.5t-45 56t-90.5 14.5q-81 0 -117 -39t-36 -152
q0 -64 8.5 -103.5t29 -60.5t45.5 -28t67 -7q41 0 66 6t46.5 25.5t31 59.5t9.5 104z" />
    <glyph glyph-name="p" unicode="p" horiz-adv-x="572" 
d="M162 -224q0 -20 -20 -20h-33q-19 0 -19 20v700q0 24 21 24h27q20 0 21 -15l2 -22q49 45 164 45q97 0 145 -56.5t48 -192.5q0 -153 -57 -212t-184 -59q-74 0 -115 14v-226zM162 69q36 -16 112 -16q99 0 135 45.5t36 156.5q0 100 -29.5 142t-108.5 42q-80 0 -127 -23
q-13 -6 -15 -13q-3 -7 -3 -22v-312z" />
    <glyph glyph-name="q" unicode="q" horiz-adv-x="569" 
d="M403 30q-48 -37 -169 -37q-91 0 -138.5 58t-47.5 189q0 81 15 134t47.5 82t74.5 40.5t104 11.5q84 0 122 -28l1 8q1 14 21 14h22q19 0 19 -22v-703q0 -20 -18 -20h-35q-18 0 -18 20v253zM403 417q-15 9 -48 16.5t-64 7.5q-101 0 -136 -42t-35 -153q0 -101 29 -143.5
t109 -42.5q83 0 127 20q13 5 16 14q2 4 2 21v302z" />
    <glyph glyph-name="r" unicode="r" horiz-adv-x="360" 
d="M162 18q0 -20 -19 -20h-34q-19 0 -19 20v463q0 21 22 21h30q10 0 13.5 -4t4.5 -16l2 -21q18 22 58 35.5t84 13.5q22 0 33 -3q13 -4 13 -18q0 -24 -4 -39q-2 -11 -16 -11q-4 0 -18.5 1t-20.5 1q-63 0 -105 -22q-16 -8 -20 -15q-4 -8 -4 -22v-364z" />
    <glyph glyph-name="s" unicode="s" horiz-adv-x="439" 
d="M279 272q63 -15 93 -46t30 -91q0 -148 -191 -148q-100 0 -158 24q-15 6 -15 19q0 11 10 37q5 13 17 13q5 0 20 -5q61 -21 127 -21q72 0 96 20.5t24 56.5q0 30 -17 46.5t-76 31.5l-80 19q-112 28 -112 135q0 148 188 148q76 0 129 -14q18 -5 18 -20q0 -11 -7 -39
q-3 -12 -15 -12l-18 3q-57 14 -109 14q-67 0 -91 -18.5t-24 -56.5q0 -31 17 -47.5t73 -30.5z" />
    <glyph glyph-name="t" unicode="t" horiz-adv-x="310" 
d="M173 430v-287q0 -49 11 -69q9 -20 49 -20q14 0 33 2.5t21 2.5q11 0 14 -12q0 -2 1.5 -9.5t2 -13.5t0.5 -9q0 -14 -17 -19q-32 -9 -78 -9q-62 0 -87 34q-21 27 -21 105v304h-57q-17 0 -17 18v30q0 20 20 20h55q0 34 3 114q0 22 17 22h33q16 0 16 -22v-114h97q19 0 19 -17
v-33q0 -18 -19 -18h-96z" />
    <glyph glyph-name="u" unicode="u" horiz-adv-x="580" 
d="M418 34q-23 -23 -74.5 -34t-102.5 -11q-121 0 -145 63q-10 29 -10 99v328q0 21 19 21h34q19 0 19 -21v-311q0 -49 8 -70q14 -41 96 -41q81 0 132 22q14 5 18 12q5 8 5 25v363q0 21 20 21h33q19 0 19 -21v-461q0 -20 -21 -20h-30q-18 0 -19 20z" />
    <glyph glyph-name="v" unicode="v" horiz-adv-x="457" 
d="M242 -2h-31q-15 0 -23 18l-175 445q-6 15 -6 24q0 15 19 15h39q15 0 25 -25l139 -375q57 160 141 374q10 26 25 26h36q19 0 19 -15q0 -9 -6 -24l-178 -445q-6 -18 -24 -18z" />
    <glyph glyph-name="w" unicode="w" horiz-adv-x="735" 
d="M368 377q-24 -81 -124 -360q-6 -19 -25 -19h-29q-19 0 -25 20l-138 447q-5 15 -5 20q0 15 18 15h40q9 0 13 -5t9 -20q77 -245 110 -369q35 115 118 347q10 28 28 28h26q14 0 24 -27q99 -268 125 -348q38 148 104 368q5 15 9.5 20.5t14.5 5.5h35q17 0 17 -15q0 -7 -6 -27
l-136 -441q-6 -19 -23 -19h-31q-17 0 -24 20q-102 283 -125 359z" />
    <glyph glyph-name="x" unicode="x" horiz-adv-x="500" 
d="M248 205l-137 -183q-18 -24 -33 -24h-36q-16 0 -16 13q0 10 11 24l165 219l-153 207q-13 16 -13 24q0 15 17 15h40q16 0 33 -23l125 -170l126 170q17 23 33 23h38q15 0 15 -14q0 -7 -12 -24l-155 -205l167 -222q11 -14 11 -24q0 -13 -16 -13h-39q-17 0 -36 24z" />
    <glyph glyph-name="y" unicode="y" horiz-adv-x="457" 
d="M190 12l-177 449q-6 15 -6 24q0 15 19 15h38q15 0 25 -25l141 -372q34 97 142 371q10 26 25 26h36q18 0 18 -15q0 -9 -6 -24l-210 -522q-18 -44 -32 -75q-25 -54 -54 -82q-37 -32 -97 -32q-39 0 -52 4q-18 5 -18 18q0 18 7 37q4 10 15 10q1 0 15 -1.5t29 -1.5q35 0 50 12
q18 13 44 68q5 11 33 80z" />
    <glyph glyph-name="z" unicode="z" horiz-adv-x="477" 
d="M427 0h-376q-18 0 -18 17v17q0 13 12 29l286 367h-269q-16 0 -16 15v35q0 18 17 18h353q17 0 17 -17v-18q0 -16 -13 -33l-285 -362h293q16 0 16 -15v-38q0 -15 -17 -15z" />
    <glyph glyph-name="braceleft" unicode="{" horiz-adv-x="313" 
d="M98 307q43 -11 65.5 -42.5t22.5 -100.5v-157q0 -58 16 -81q17 -25 86 -27q12 0 12 -16v-15q0 -15 -15 -15q-59 1 -91 10t-50 34q-23 32 -23 107v154q0 64 -20 91t-65 34q-14 1 -14 16v13q0 16 13 17q47 8 66.5 36.5t19.5 87.5v145q0 76 23 110q34 51 140 51q16 0 16 -18
v-10q0 -18 -15 -18q-69 -2 -86 -34q-13 -23 -13 -76v-150q0 -71 -21.5 -100.5t-66.5 -45.5z" />
    <glyph glyph-name="bar" unicode="|" horiz-adv-x="223" 
d="M143 -128q0 -21 -19 -21h-25q-19 0 -19 21v864q0 21 20 21h25q18 0 18 -20v-865z" />
    <glyph glyph-name="braceright" unicode="}" horiz-adv-x="313" 
d="M212 305q-42 11 -64.5 42.5t-22.5 100.5v157q0 60 -16 81q-17 23 -86 27q-12 0 -12 16v15q0 15 15 15q59 -1 91 -10t50 -34q23 -32 23 -107v-154q0 -64 20 -91.5t65 -33.5q14 -3 14 -16v-13q0 -16 -13 -17q-47 -8 -66.5 -36.5t-19.5 -87.5v-145q0 -77 -24 -110
q-35 -51 -138 -51q-17 0 -17 18v10q0 18 15 18q69 2 87 34q12 21 12 76v150q0 70 21 100t66 46z" />
    <glyph glyph-name="asciitilde" unicode="~" horiz-adv-x="701" 
d="M141 247q-9 -11 -16 -11q-11 0 -23 12q-8 6 -8 17q0 10 5 15q70 87 145 87q43 0 120 -46q58 -34 96 -34q28 0 49 14t48 49q10 12 18 12t22 -11q10 -9 10 -17q0 -10 -7 -19q-33 -46 -64.5 -67t-76.5 -21q-50 0 -117 39q-69 40 -103 40q-49 0 -98 -59z" />
    <glyph glyph-name="exclamdown" unicode="&#xa1;" horiz-adv-x="284" 
d="M88 263q0 21 22 21h21q23 0 23 -23q7 -395 7 -439q0 -27 -24 -27h-34q-22 0 -22 25q0 41 7 443zM76 458q0 51 50 51q49 0 49 -51q0 -52 -49 -52q-50 0 -50 52z" />
    <glyph glyph-name="cent" unicode="&#xa2;" horiz-adv-x="488" 
d="M312 -74q0 -20 -16 -20h-14q-16 0 -16 20v72q-97 3 -144 60t-47 191q0 127 44 188t147 70v70q0 19 17 19h14q15 0 15 -19v-68q64 -1 108 -11q18 -4 18 -19q0 -20 -6 -36q-4 -11 -14 -11t-24 3q-32 7 -82 8v-381q47 2 94 18q18 6 22 6q9 0 13 -11q7 -16 7 -32
q0 -13 -16 -20q-50 -22 -120 -25v-72zM150 258q0 -42 4.5 -73t16 -59t35.5 -44t60 -19v377q-70 -10 -93 -54.5t-23 -127.5z" />
    <glyph glyph-name="sterling" unicode="&#xa3;" horiz-adv-x="570" 
d="M539 18q0 -18 -19 -18h-427q-19 0 -19 17v28q0 13 11 20q110 60 110 133q0 38 -18 88h-86q-19 0 -19 16v24q0 17 19 17h70q-29 91 -29 155q0 190 219 190q86 0 146 -20q16 -5 16 -18t-10 -41q-3 -11 -13 -11q-12 0 -25 5q-48 16 -118 16q-75 -1 -107 -32t-32 -89
q0 -56 30 -155h206q20 0 20 -17v-24q0 -16 -20 -16h-192q14 -54 14 -88q0 -79 -84 -127h337q20 0 20 -19v-34z" />
    <glyph glyph-name="currency" unicode="&#xa4;" horiz-adv-x="541" 
d="M468 123q-7 -7 -14 -7t-14 7l-52 50q-50 -37 -118 -37q-67 0 -119 37l-48 -50q-8 -8 -15 -8q-8 0 -15 7l-9 9q-7 9 -7 14q0 7 7 16l52 52q-39 50 -39 119q0 65 39 118l-52 51q-7 6 -7 15q0 7 8 15l8 8q8 8 14 8t14 -8l51 -51q50 40 118 40q69 0 117 -39l51 50q8 8 14 8
q8 0 15 -8l8 -8q7 -7 7 -14q0 -8 -8 -16l-51 -50q40 -49 40 -119q0 -68 -40 -119l54 -52q6 -6 6 -14q0 -9 -7 -16zM409 332q0 63 -39.5 102.5t-99.5 39.5t-100 -40t-40 -101q0 -64 39.5 -104t100.5 -40q60 0 99.5 40t39.5 103z" />
    <glyph glyph-name="yen" unicode="&#xa5;" horiz-adv-x="592" 
d="M484 340h-123l-29 -46v-40h152q19 0 19 -17v-12q0 -18 -19 -18h-152v-189q0 -20 -20 -20h-33q-20 0 -20 20v189h-149q-19 0 -19 18v11q0 18 19 18h149v38l-30 48h-119q-19 0 -19 17v12q0 18 19 18h89l-152 243q-14 24 -14 30q0 16 16 16h42q17 0 28 -18
q142 -233 178 -299q53 93 177 294q9 15 15 19t17 4h37q16 0 16 -14q0 -9 -11 -26l-158 -249h94q19 0 19 -18v-12q0 -17 -19 -17z" />
    <glyph glyph-name="brokenbar" unicode="&#xa6;" horiz-adv-x="237" 
d="M143 432q0 -21 -19 -21h-25q-19 0 -19 21v265q0 21 20 21h25q18 0 18 -21v-265zM143 3q0 -21 -19 -21h-25q-19 0 -19 21v265q0 21 20 21h25q18 0 18 -21v-265z" />
    <glyph glyph-name="section" unicode="&#xa7;" horiz-adv-x="496" 
d="M357 111q32 -24 46.5 -49.5t14.5 -67.5q0 -67 -41.5 -111.5t-144.5 -44.5q-99 0 -170 32q-10 4 -10 15q0 15 13 41q4 8 14 8q3 0 19 -6q69 -23 135 -23q112 0 112 84q0 38 -21.5 58.5t-92.5 54.5l-58 28q-77 36 -102.5 69t-25.5 87q0 58 30.5 92t76.5 46q-55 39 -55 118
q0 26 7 50t24.5 48.5t53.5 39t86 14.5q83 0 133 -19q10 -4 10 -15q0 -16 -13 -44q-4 -7 -12 -7q-3 0 -23 5q-39 13 -101 13q-95 0 -95 -83q0 -36 19.5 -57t81.5 -51l62 -30q75 -36 100 -69.5t25 -92.5q0 -52 -28 -87t-70 -46zM386 239q0 35 -16.5 56t-60.5 42q-65 33 -90 44
q-12 6 -24 6q-10 0 -19 -3q-64 -17 -64 -89q0 -30 15.5 -49t54.5 -39q55 -29 112 -53q8 -4 20 -4q9 0 18 4q23 10 38.5 32.5t15.5 52.5z" />
    <glyph glyph-name="dieresis" unicode="&#xa8;" horiz-adv-x="197" 
d="M57 662q0 -48 -46 -48t-46 47q0 50 46 50t46 -49zM231 662q0 -48 -46 -48t-46 47q0 50 46 50t46 -49z" />
    <glyph glyph-name="copyright" unicode="&#xa9;" horiz-adv-x="830" 
d="M769 345q0 -155 -98 -257t-257 -102t-257 102t-98 257t98 257.5t256 102.5q163 0 259.5 -101.5t96.5 -258.5zM731 345q0 141 -87 232.5t-231 91.5q-142 0 -228.5 -91.5t-86.5 -232.5q0 -140 86.5 -231.5t229.5 -91.5q144 0 230.5 91t86.5 232zM289 348q0 -83 26.5 -126.5
t100.5 -43.5q58 0 101 15q17 5 20 5q7 0 12 -16q6 -16 6 -22q0 -10 -14 -16q-53 -22 -133 -22q-90 0 -137 49t-47 168q0 120 49 175.5t157 55.5q62 0 100 -9q15 -4 15 -16q0 -18 -6 -34q-3 -7 -11 -7t-21 3q-29 6 -77 6q-85 0 -113 -41.5t-28 -123.5z" />
    <glyph glyph-name="ordfeminine" unicode="&#xaa;" horiz-adv-x="351" 
d="M238 288q-34 -30 -92 -30q-109 0 -109 97q0 51 39 73q31 19 97 19q39 0 63 -3v23q0 27 -5 36q-12 22 -63 22q-40 0 -71 -7q-12 -3 -21 -3q-8 0 -10 9q-5 15 -5 26t11 14q39 13 105 13q72 0 97 -23q19 -18 19 -76v-199q0 -16 -15 -16h-23q-15 0 -16 11zM236 402
q-14 1 -55 1q-60 0 -74 -13q-15 -12 -15 -34q0 -26 15 -38.5t53 -12.5q43 0 62 13q5 3 10 11q4 5 4 16v57z" />
    <glyph glyph-name="guillemotleft" unicode="&#xab;" horiz-adv-x="479" 
d="M116 265l128 -164q10 -13 10 -23q0 -12 -13 -12h-38q-14 0 -32 21l-123 151q-13 15 -13 26q0 12 8 21l128 158q18 21 32 21h38q13 0 13 -11q0 -10 -11 -24zM311 265l127 -164q11 -16 11 -23q0 -12 -14 -12h-38q-13 0 -32 22l-123 150q-13 15 -13 26q0 9 9 21l128 158
q16 21 32 21h37q14 0 14 -11q0 -10 -11 -24z" />
    <glyph glyph-name="logicalnot" unicode="&#xac;" horiz-adv-x="701" 
d="M601 53q0 -18 -18 -18h-21q-18 0 -18 18v212h-445q-18 0 -18 20v20q0 20 18 20h484q18 0 18 -20v-252z" />
    <glyph glyph-name="uni00AD" unicode="&#xad;" horiz-adv-x="302" 
d="M249 234h-196q-18 0 -18 17v32q0 18 19 18h194q19 0 19 -18v-34q0 -15 -18 -15z" />
    <glyph glyph-name="registered" unicode="&#xae;" horiz-adv-x="830" 
d="M769 345q0 -155 -98 -257t-257 -102t-257 102t-98 257t98 257.5t256 102.5q163 0 259.5 -101.5t96.5 -258.5zM731 345q0 141 -87 232.5t-231 91.5q-142 0 -228.5 -91.5t-86.5 -232.5q0 -140 86.5 -231.5t229.5 -91.5q144 0 230.5 91t86.5 232zM339 147q0 -15 -17 -15h-27
q-17 0 -17 16v401q0 23 21 23h89q84 0 120 -15q61 -25 61 -112q0 -91 -79 -119l98 -164q6 -10 6 -18q0 -12 -14 -12h-32q-15 0 -23 15l-94 169q-12 -1 -39 -1h-53v-168zM339 366h57q52 0 73 9q18 7 29.5 25.5t11.5 42.5q0 52 -39 68q-22 8 -78 8h-54v-153z" />
    <glyph glyph-name="macron" unicode="&#xaf;" horiz-adv-x="197" 
d="M214 611h-231q-19 0 -19 16v33q0 18 19 18h230q19 0 19 -18v-33q0 -16 -18 -16z" />
    <glyph glyph-name="degree" unicode="&#xb0;" horiz-adv-x="336" 
d="M306 575q0 -65 -38 -101.5t-101 -36.5q-61 0 -98.5 36t-37.5 101t38.5 101.5t102.5 36.5q63 0 98.5 -35.5t35.5 -101.5zM259 574q0 47 -23.5 72t-65.5 25t-66 -25.5t-24 -73.5q0 -45 24.5 -70t66.5 -25q41 0 64.5 26t23.5 71z" />
    <glyph glyph-name="plusminus" unicode="&#xb1;" horiz-adv-x="701" 
d="M380 150q0 -18 -19 -18h-22q-18 0 -18 18v206h-213q-18 0 -18 19v20q0 19 18 19h212v203q0 19 19 19h22q19 0 19 -19v-203h213q18 0 18 -19v-20q0 -19 -18 -19h-213v-206zM611 20q0 -20 -18 -20h-485q-18 0 -18 20v20q0 19 18 19h485q18 0 18 -19v-20z" />
    <glyph glyph-name="twosuperior" unicode="&#xb2;" 
d="M316 420h-268q-13 0 -13 12v24q0 11 7 17q131 94 179 144q43 43 43 93q0 38 -21 57t-72 19q-36 0 -72 -9q-23 -5 -25 -5q-8 0 -10 7q-7 21 -7 30q0 10 15 15q48 16 109 16q80 0 110.5 -33.5t30.5 -92.5q0 -69 -45 -114q-66 -66 -158 -127q38 1 197 1q14 0 14 -13v-28
q0 -13 -14 -13z" />
    <glyph glyph-name="threesuperior" unicode="&#xb3;" 
d="M223 638q90 -8 90 -101q0 -64 -36 -94.5t-120 -30.5q-62 0 -101 11q-16 5 -16 15t8 31q4 8 12 8q2 0 5 -1t8 -2t8 -2q37 -7 74 -7q61 0 80 18.5t19 52.5q0 38 -22.5 55t-80.5 17h-15q-13 0 -13 14v24q0 15 13 15h15q92 0 92 63q0 36 -18 49t-68 13q-40 0 -68 -8
q-15 -5 -23 -5t-10 7q-6 16 -6 29q0 11 16 16q47 15 103 15q80 0 106 -26t26 -87q0 -72 -78 -89z" />
    <glyph glyph-name="acute" unicode="&#xb4;" horiz-adv-x="197" 
d="M71 592q-11 -12 -26 -12h-36q-13 0 -13 13q0 7 6 15l105 130q10 13 25 13h54q14 0 14 -12q0 -9 -8 -17z" />
    <glyph glyph-name="mu" unicode="&#xb5;" horiz-adv-x="599" 
d="M171 16v-200q0 -20 -19 -20h-34q-19 0 -19 20v663q0 21 19 21h33q19 0 19 -21v-312q0 -50 8 -69q8 -21 29 -31t67 -10q76 0 132 22q14 5 19 12t5 25v363q0 21 20 21h33q19 0 19 -21v-461q0 -20 -22 -20h-29q-19 0 -20 20l-1 17q-42 -43 -164 -43q-68 0 -95 24z" />
    <glyph glyph-name="paragraph" unicode="&#xb6;" horiz-adv-x="560" 
d="M314 -110q0 -18 -16 -18h-13q-17 0 -17 18v349q-116 0 -169 60.5t-53 162.5q0 57 12 99t41 76t83.5 51.5t133.5 17.5h129q25 0 25 -24v-792q0 -18 -16 -18h-13q-17 0 -17 18v770h-110v-770z" />
    <glyph glyph-name="periodcentered" unicode="&#xb7;" horiz-adv-x="214" 
d="M161 270q0 -55 -54 -55q-53 0 -53 54q0 55 53 55q54 0 54 -54z" />
    <glyph glyph-name="cedilla" unicode="&#xb8;" horiz-adv-x="197" 
d="M98 -61q57 -1 76 -23.5t19 -63.5q0 -91 -120 -91q-35 0 -49 5q-13 4 -13 16q0 14 3 24q4 13 17 13q1 0 15 -2q18 -4 31 -4q28 0 39 9t11 28q0 21 -10 30t-34 9q-3 0 -12.5 -0.5t-11.5 -0.5q-17 0 -17 17q0 4 1.5 14.5t1.5 14.5l14 76h51z" />
    <glyph glyph-name="onesuperior" unicode="&#xb9;" 
d="M174 769l-57 -25q-8 -4 -13 -4q-7 0 -10 8q-11 26 -11 31q0 6 9 10l83 38q12 5 21 5h23q14 0 14 -14v-384q0 -15 -14 -15h-31q-14 0 -14 15v335z" />
    <glyph glyph-name="ordmasculine" unicode="&#xba;" horiz-adv-x="364" 
d="M327 419q0 -93 -34.5 -128t-112.5 -35q-75 0 -109 34.5t-34 126.5t38 126t109 34q77 0 110 -31t33 -127zM267 417q0 67 -17 87.5t-67 20.5q-46 0 -67 -22t-21 -85q0 -68 19.5 -89.5t67.5 -21.5q46 0 65.5 20.5t19.5 89.5z" />
    <glyph glyph-name="guillemotright" unicode="&#xbb;" horiz-adv-x="479" 
d="M363 266l-128 164q-11 14 -11 22q0 12 14 12h38q14 0 31 -21l124 -151q13 -15 13 -25t-9 -22l-127 -157q-19 -22 -32 -22h-38q-14 0 -14 11q0 10 11 24zM168 266l-128 164q-11 14 -11 22q0 12 14 12h38q15 0 32 -21l124 -151q13 -15 13 -25t-9 -22l-128 -157
q-17 -22 -32 -22h-38q-14 0 -14 11q0 10 11 24z" />
    <glyph glyph-name="onequarter" unicode="&#xbc;" horiz-adv-x="847" 
d="M252 -15q-10 -17 -23 -17h-15q-11 0 -11 13q0 5 6 17l332 691q11 22 24 22h16q13 0 13 -13q-1 -7 -10 -24zM184 613l-57 -25q-8 -4 -13 -4q-7 0 -10 8q-11 26 -11 31q0 6 9 10l83 38q12 5 21 5h23q14 0 14 -14v-384q0 -15 -14 -15h-31q-14 0 -14 15v335zM692 14
q0 -15 -14 -15h-28q-14 0 -14 15v88h-189q-15 0 -15 13v23q0 12 6 21l146 238q8 15 21 15h29q12 0 12 -9q0 -6 -5 -15l-145 -233h140v92q0 15 14 15h29q13 0 13 -14v-93h53q15 0 15 -13v-27q0 -13 -15 -13h-53v-88z" />
    <glyph glyph-name="onehalf" unicode="&#xbd;" horiz-adv-x="847" 
d="M239 -15q-10 -17 -23 -17h-15q-11 0 -11 13q0 5 6 17l332 691q11 22 24 22h16q13 0 13 -13q-1 -7 -10 -24zM174 613l-57 -25q-8 -4 -13 -4q-7 0 -10 8q-11 26 -11 31q0 6 9 10l83 38q12 5 21 5h23q14 0 14 -14v-384q0 -15 -14 -15h-31q-14 0 -14 15v335zM746 0h-268
q-13 0 -13 12v24q0 11 7 17q131 94 179 144q43 43 43 93q0 38 -21 57t-72 19q-36 0 -72 -9q-23 -5 -25 -5q-8 0 -10 7q-7 21 -7 30q0 10 15 15q48 16 109 16q80 0 110.5 -33.5t30.5 -92.5q0 -69 -45 -114q-66 -66 -158 -127q38 1 197 1q14 0 14 -13v-28q0 -13 -14 -13z" />
    <glyph glyph-name="threequarters" unicode="&#xbe;" horiz-adv-x="847" 
d="M303 -15q-10 -17 -23 -17h-15q-11 0 -11 13q0 5 6 17l332 691q11 22 24 22h16q13 0 13 -13q-1 -7 -10 -24zM260 482q90 -8 90 -101q0 -64 -36 -94.5t-120 -30.5q-62 0 -101 11q-16 5 -16 15t8 31q4 8 12 8q2 0 5 -1t8 -2t8 -2q37 -7 74 -7q61 0 80 18.5t19 52.5
q0 38 -22.5 55t-80.5 17h-15q-13 0 -13 14v24q0 15 13 15h15q92 0 92 63q0 36 -18 49t-68 13q-40 0 -68 -8q-15 -5 -23 -5t-10 7q-6 16 -6 29q0 11 16 16q47 15 103 15q80 0 106 -26t26 -87q0 -72 -78 -89zM737 14q0 -15 -14 -15h-28q-14 0 -14 15v88h-189q-15 0 -15 13v23
q0 12 6 21l146 238q8 15 21 15h29q12 0 12 -9q0 -6 -5 -15l-145 -233h140v92q0 15 14 15h29q13 0 13 -14v-93h53q15 0 15 -13v-27q0 -13 -15 -13h-53v-88z" />
    <glyph glyph-name="questiondown" unicode="&#xbf;" horiz-adv-x="409" 
d="M224 283h22q18 0 19 -16q2 -22 2 -51q0 -49 -14.5 -77t-58.5 -57q-50 -33 -68 -62.5t-18 -75.5t25 -70.5t85 -24.5q62 0 109 13q16 4 19 4q12 0 16 -13q6 -18 6 -31q0 -15 -13 -20q-64 -22 -144 -22q-100 0 -139.5 40.5t-39.5 114.5q0 62 20 98t80 78q42 30 55 48.5
t16 56.5q0 5 3 53q0 14 18 14zM187 457q0 53 52 53q51 0 51 -52q0 -54 -51 -54q-24 0 -38 11t-14 42z" />
    <glyph glyph-name="Agrave" unicode="&#xc0;" horiz-adv-x="598" 
d="M164 223l-74 -200q-9 -25 -26 -25h-35q-21 0 -21 15q0 7 7 26l240 650q7 19 26 19h35q20 0 26 -19l240 -650q7 -19 7 -26q0 -15 -19 -15h-35q-11 0 -16.5 5.5t-11.5 21.5l-73 198h-270zM186 292h226l-113 312zM296 772l-154 108q-11 7 -11 19t15 12h58q15 0 32 -14
l133 -106q10 -9 10 -17q0 -12 -14 -12h-38q-17 0 -31 10z" />
    <glyph glyph-name="Aacute" unicode="&#xc1;" horiz-adv-x="598" 
d="M164 223l-74 -200q-9 -25 -26 -25h-35q-21 0 -21 15q0 7 7 26l240 650q7 19 26 19h35q20 0 26 -19l240 -650q7 -19 7 -26q0 -15 -19 -15h-35q-11 0 -16.5 5.5t-11.5 21.5l-73 198h-270zM186 292h226l-113 312zM290 763q-12 -10 -30 -10h-38q-14 0 -14 12q0 9 10 17
l134 107q14 13 31 13h58q15 0 15 -12t-11 -19z" />
    <glyph glyph-name="Acircumflex" unicode="&#xc2;" horiz-adv-x="598" 
d="M164 223l-74 -200q-9 -25 -26 -25h-35q-21 0 -21 15q0 7 7 26l240 650q7 19 26 19h35q20 0 26 -19l240 -650q7 -19 7 -26q0 -15 -19 -15h-35q-11 0 -16.5 5.5t-11.5 21.5l-73 198h-270zM186 292h226l-113 312zM186 762h-32q-15 0 -15 13q0 8 7 15l106 102q17 17 31 17h39
q11 0 28 -15l108 -105q6 -5 6 -14q0 -13 -18 -13h-31q-12 0 -30 13l-85 68l-83 -67q-18 -14 -31 -14z" />
    <glyph glyph-name="Atilde" unicode="&#xc3;" horiz-adv-x="598" 
d="M164 223l-74 -200q-9 -25 -26 -25h-35q-21 0 -21 15q0 7 7 26l240 650q7 19 26 19h35q20 0 26 -19l240 -650q7 -19 7 -26q0 -15 -19 -15h-35q-11 0 -16.5 5.5t-11.5 21.5l-73 198h-270zM186 292h226l-113 312zM191 771h-19q-16 0 -16 14q0 8 6 23q32 80 88 80
q25 0 80 -29q43 -22 61 -22q26 0 43 38q7 18 22 18h19q16 0 16 -14q0 -11 -5 -23q-32 -86 -89 -86q-26 0 -79 27q-47 25 -66 25q-13 0 -21 -7t-17 -28q-8 -16 -23 -16z" />
    <glyph glyph-name="Adieresis" unicode="&#xc4;" horiz-adv-x="598" 
d="M164 223l-74 -200q-9 -25 -26 -25h-35q-21 0 -21 15q0 7 7 26l240 650q7 19 26 19h35q20 0 26 -19l240 -650q7 -19 7 -26q0 -15 -19 -15h-35q-11 0 -16.5 5.5t-11.5 21.5l-73 198h-270zM186 292h226l-113 312zM253 821q0 -48 -47 -48q-45 0 -45 47q0 50 45 50
q47 0 47 -49zM441 821q0 -48 -47 -48q-45 0 -45 47q0 50 45 50q47 0 47 -49z" />
    <glyph glyph-name="Aring" unicode="&#xc5;" horiz-adv-x="598" 
d="M164 223l-74 -200q-9 -25 -26 -25h-35q-21 0 -21 15q0 7 7 26l240 650q7 19 26 19h35q20 0 26 -19l240 -650q7 -19 7 -26q0 -15 -19 -15h-35q-11 0 -16.5 5.5t-11.5 21.5l-73 198h-270zM186 292h226l-113 312zM391 827q0 -44 -26 -68t-69 -24q-41 0 -66 24t-25 68
t25.5 69.5t68.5 25.5t67.5 -25t24.5 -70zM354 829q0 60 -57 60q-26 0 -41.5 -15.5t-15.5 -45.5q0 -29 15.5 -44.5t42.5 -15.5q56 0 56 61z" />
    <glyph glyph-name="AE" unicode="&#xc6;" horiz-adv-x="949" 
d="M232 230l-138 -209q-14 -23 -32 -23h-41q-18 0 -18 14q0 4 14 26l426 648q14 20 37 20h397q21 0 21 -19v-33q0 -19 -21 -19h-308v-232h278q20 0 20 -20v-33q0 -18 -20 -18h-278v-261h323q20 0 20 -20v-33q0 -18 -20 -18h-378q-20 0 -20 21v209h-262zM273 300h221v339
q-41 -68 -221 -339z" />
    <glyph glyph-name="Ccedilla" unicode="&#xc7;" horiz-adv-x="600" 
d="M345 -61q61 -1 81.5 -24.5t20.5 -65.5q0 -98 -130 -98q-26 0 -52 6q-15 3 -15 18q0 10 5 25q3 13 17 13q2 0 5 -0.5t7 -1.5t6 -1q22 -4 32 -4q30 0 42 9t12 29q0 21 -11 30t-37 9q-4 0 -13 -0.5t-11 -0.5q-19 0 -19 18q0 11 4 29l11 59q-121 8 -179 88.5t-58 265.5
q0 202 65 289.5t234 87.5q94 0 161 -15q24 -5 24 -22q0 -20 -8 -41q-3 -10 -16 -10q-4 0 -32 6q-58 12 -142 12q-54 0 -93 -15.5t-61 -40.5t-35 -65t-16.5 -78.5t-3.5 -92.5q0 -55 3 -93.5t15 -80.5t32.5 -67.5t58 -42t90.5 -16.5q97 0 171 28q18 7 28 7t16 -14q8 -22 8 -33
q0 -13 -22 -22q-80 -33 -187 -36z" />
    <glyph glyph-name="Egrave" unicode="&#xc8;" horiz-adv-x="557" 
d="M499 0h-377q-20 0 -20 21v663q0 22 18 22h365q20 0 20 -19v-33q0 -19 -20 -19h-308v-232h278q20 0 20 -20v-33q0 -18 -20 -18h-278v-261h322q21 0 21 -20v-33q0 -18 -21 -18zM303 772l-154 108q-11 7 -11 19t15 12h58q15 0 32 -14l133 -106q10 -9 10 -17q0 -12 -14 -12
h-38q-17 0 -31 10z" />
    <glyph glyph-name="Eacute" unicode="&#xc9;" horiz-adv-x="557" 
d="M499 0h-377q-20 0 -20 21v663q0 22 18 22h365q20 0 20 -19v-33q0 -19 -20 -19h-308v-232h278q20 0 20 -20v-33q0 -18 -20 -18h-278v-261h322q21 0 21 -20v-33q0 -18 -21 -18zM279 763q-12 -10 -30 -10h-38q-14 0 -14 12q0 9 10 17l134 107q14 13 31 13h58q15 0 15 -12
t-11 -19z" />
    <glyph glyph-name="Ecircumflex" unicode="&#xca;" horiz-adv-x="557" 
d="M499 0h-377q-20 0 -20 21v663q0 22 18 22h365q20 0 20 -19v-33q0 -19 -20 -19h-308v-232h278q20 0 20 -20v-33q0 -18 -20 -18h-278v-261h322q21 0 21 -20v-33q0 -18 -21 -18zM191 762h-32q-15 0 -15 13q0 8 7 15l106 102q17 17 31 17h39q11 0 28 -15l108 -105q6 -5 6 -14
q0 -13 -18 -13h-31q-12 0 -30 13l-85 68l-83 -67q-18 -14 -31 -14z" />
    <glyph glyph-name="Edieresis" unicode="&#xcb;" horiz-adv-x="557" 
d="M499 0h-377q-20 0 -20 21v663q0 22 18 22h365q20 0 20 -19v-33q0 -19 -20 -19h-308v-232h278q20 0 20 -20v-33q0 -18 -20 -18h-278v-261h322q21 0 21 -20v-33q0 -18 -21 -18zM259 821q0 -48 -47 -48q-45 0 -45 47q0 50 45 50q47 0 47 -49zM447 821q0 -48 -47 -48
q-45 0 -45 47q0 50 45 50q47 0 47 -49z" />
    <glyph glyph-name="Igrave" unicode="&#xcc;" horiz-adv-x="279" 
d="M177 19q0 -21 -20 -21h-36q-19 0 -19 21v668q0 21 20 21h37q18 0 18 -21v-668zM142 772l-154 108q-11 7 -11 19t15 12h58q15 0 32 -14l133 -106q10 -9 10 -17q0 -12 -14 -12h-38q-17 0 -31 10z" />
    <glyph glyph-name="Iacute" unicode="&#xcd;" horiz-adv-x="279" 
d="M177 19q0 -21 -20 -21h-36q-19 0 -19 21v668q0 21 20 21h37q18 0 18 -21v-668zM134 772q-12 -10 -30 -10h-38q-14 0 -14 12q0 9 10 17l134 107q14 13 31 13h58q15 0 15 -12t-11 -19z" />
    <glyph glyph-name="Icircumflex" unicode="&#xce;" horiz-adv-x="279" 
d="M177 19q0 -21 -20 -21h-36q-19 0 -19 21v668q0 21 20 21h37q18 0 18 -21v-668zM23 762h-32q-15 0 -15 13q0 8 7 15l106 102q17 17 31 17h39q11 0 28 -15l108 -105q6 -5 6 -14q0 -13 -18 -13h-31q-12 0 -30 13l-85 68l-83 -67q-18 -14 -31 -14z" />
    <glyph glyph-name="Idieresis" unicode="&#xcf;" horiz-adv-x="279" 
d="M177 19q0 -21 -20 -21h-36q-19 0 -19 21v668q0 21 20 21h37q18 0 18 -21v-668zM91 821q0 -48 -47 -48q-45 0 -45 47q0 50 45 50q47 0 47 -49zM279 821q0 -48 -47 -48q-45 0 -45 47q0 50 45 50q47 0 47 -49z" />
    <glyph glyph-name="Eth" unicode="&#xd0;" horiz-adv-x="701" 
d="M271 0h-150q-19 0 -19 21v315h-61q-18 0 -18 16v29q0 17 19 17h60v287q0 21 18 21h158q117 0 181 -19q179 -52 179 -326q0 -131 -41 -215.5t-142 -121.5q-64 -24 -184 -24zM177 71h105q106 0 154 22q69 32 96.5 99.5t27.5 168.5q0 97 -26 159.5t-89 91.5q-50 23 -164 23
h-104v-237h184q19 0 19 -17v-29q0 -16 -18 -16h-185v-265z" />
    <glyph glyph-name="Ntilde" unicode="&#xd1;" horiz-adv-x="707" 
d="M175 19q0 -21 -20 -21h-34q-19 0 -19 21v668q0 21 20 21h33q14 0 22 -12q256 -390 356 -555q-1 78 -1 545q0 22 21 22h34q19 0 19 -21v-668q0 -21 -21 -21h-27q-18 0 -29 17q-305 468 -355 557q1 -91 1 -553zM221 771h-19q-16 0 -16 14q0 8 6 23q32 80 88 80q25 0 80 -29
q43 -22 61 -22q26 0 43 38q7 18 22 18h19q16 0 16 -14q0 -11 -5 -23q-32 -86 -89 -86q-26 0 -79 27q-47 25 -66 25q-13 0 -21 -7t-17 -28q-8 -16 -23 -16z" />
    <glyph glyph-name="Ograve" unicode="&#xd2;" horiz-adv-x="697" 
d="M634 358q0 -145 -32.5 -227t-93 -113t-163.5 -31q-100 0 -159 30.5t-91 112.5t-32 227q0 109 21 182.5t62 111.5t90 53t117 15q61 0 102.5 -8t77.5 -30.5t57 -62.5t32.5 -104t11.5 -156zM556 356q0 76 -7.5 127t-21.5 84.5t-40.5 51t-57.5 24t-79 6.5q-54 0 -90 -11.5
t-65 -43t-42 -90t-13 -147.5q0 -95 12.5 -155t40.5 -91.5t63 -42.5t90 -11q43 0 73 6t57.5 24t44 50.5t26 87t9.5 131.5zM362 772l-154 108q-11 7 -11 19t15 12h58q15 0 32 -14l133 -106q10 -9 10 -17q0 -12 -14 -12h-38q-17 0 -31 10z" />
    <glyph glyph-name="Oacute" unicode="&#xd3;" horiz-adv-x="697" 
d="M634 358q0 -145 -32.5 -227t-93 -113t-163.5 -31q-100 0 -159 30.5t-91 112.5t-32 227q0 109 21 182.5t62 111.5t90 53t117 15q61 0 102.5 -8t77.5 -30.5t57 -62.5t32.5 -104t11.5 -156zM556 356q0 76 -7.5 127t-21.5 84.5t-40.5 51t-57.5 24t-79 6.5q-54 0 -90 -11.5
t-65 -43t-42 -90t-13 -147.5q0 -95 12.5 -155t40.5 -91.5t63 -42.5t90 -11q43 0 73 6t57.5 24t44 50.5t26 87t9.5 131.5zM341 772q-13 -10 -30 -10h-38q-14 0 -14 12q0 9 10 17l134 107q14 13 31 13h58q15 0 15 -12t-11 -19z" />
    <glyph glyph-name="Ocircumflex" unicode="&#xd4;" horiz-adv-x="697" 
d="M634 358q0 -145 -32.5 -227t-93 -113t-163.5 -31q-100 0 -159 30.5t-91 112.5t-32 227q0 109 21 182.5t62 111.5t90 53t117 15q61 0 102.5 -8t77.5 -30.5t57 -62.5t32.5 -104t11.5 -156zM556 356q0 76 -7.5 127t-21.5 84.5t-40.5 51t-57.5 24t-79 6.5q-54 0 -90 -11.5
t-65 -43t-42 -90t-13 -147.5q0 -95 12.5 -155t40.5 -91.5t63 -42.5t90 -11q43 0 73 6t57.5 24t44 50.5t26 87t9.5 131.5zM233 762h-32q-15 0 -15 13q0 8 7 15l106 102q17 17 31 17h39q11 0 28 -15l108 -105q6 -5 6 -14q0 -13 -18 -13h-31q-12 0 -30 13l-85 68l-83 -67
q-18 -14 -31 -14z" />
    <glyph glyph-name="Otilde" unicode="&#xd5;" horiz-adv-x="697" 
d="M634 358q0 -145 -32.5 -227t-93 -113t-163.5 -31q-100 0 -159 30.5t-91 112.5t-32 227q0 109 21 182.5t62 111.5t90 53t117 15q61 0 102.5 -8t77.5 -30.5t57 -62.5t32.5 -104t11.5 -156zM556 356q0 76 -7.5 127t-21.5 84.5t-40.5 51t-57.5 24t-79 6.5q-54 0 -90 -11.5
t-65 -43t-42 -90t-13 -147.5q0 -95 12.5 -155t40.5 -91.5t63 -42.5t90 -11q43 0 73 6t57.5 24t44 50.5t26 87t9.5 131.5zM216 771h-19q-16 0 -16 14q0 8 6 23q32 80 88 80q25 0 80 -29q43 -22 61 -22q26 0 43 38q7 18 22 18h19q16 0 16 -14q0 -11 -5 -23q-32 -86 -89 -86
q-26 0 -79 27q-47 25 -66 25q-13 0 -21 -7t-17 -28q-8 -16 -23 -16z" />
    <glyph glyph-name="Odieresis" unicode="&#xd6;" horiz-adv-x="697" 
d="M634 358q0 -145 -32.5 -227t-93 -113t-163.5 -31q-100 0 -159 30.5t-91 112.5t-32 227q0 109 21 182.5t62 111.5t90 53t117 15q61 0 102.5 -8t77.5 -30.5t57 -62.5t32.5 -104t11.5 -156zM556 356q0 76 -7.5 127t-21.5 84.5t-40.5 51t-57.5 24t-79 6.5q-54 0 -90 -11.5
t-65 -43t-42 -90t-13 -147.5q0 -95 12.5 -155t40.5 -91.5t63 -42.5t90 -11q43 0 73 6t57.5 24t44 50.5t26 87t9.5 131.5zM298 821q0 -48 -47 -48q-45 0 -45 47q0 50 45 50q47 0 47 -49zM486 821q0 -48 -47 -48q-45 0 -45 47q0 50 45 50q47 0 47 -49z" />
    <glyph glyph-name="multiply" unicode="&#xd7;" horiz-adv-x="701" 
d="M551 139q7 -9 7 -14q0 -6 -7 -13l-15 -17q-8 -8 -14 -8q-5 0 -12 7l-161 157l-159 -159q-8 -6 -13 -6q-7 0 -13 6l-15 17q-6 8 -6 13q0 8 6 14l160 160l-162 160q-7 7 -7 14q0 6 7 13l16 18q5 5 13 5q7 0 13 -6l161 -161l163 161q6 6 13 6q6 0 12 -6l16 -16q6 -10 6 -14
q0 -6 -6 -14l-164 -160z" />
    <glyph glyph-name="Oslash" unicode="&#xd8;" horiz-adv-x="697" 
d="M101 -16q-6 -8 -13 -8q-8 0 -23 13q-7 6 -7 11t6 13l52 71q-53 84 -53 273q0 109 21 182.5t62 111.5t90 53t117 15q132 0 191 -46l43 58q6 9 13 9t12 -4q18 -12 18 -19t-5 -13l-48 -66q57 -81 57 -280q0 -145 -32.5 -227t-93 -113t-163.5 -31q-136 0 -199 59zM557 356
q0 147 -30 213l-335 -460q42 -55 154 -55q43 0 73 6t58 24.5t44.5 51.5t26 87.5t9.5 132.5zM140 357q0 -134 27 -203l332 456q-42 42 -149 42q-54 0 -90.5 -12t-65 -43.5t-41.5 -90.5t-13 -149z" />
    <glyph glyph-name="Ugrave" unicode="&#xd9;" horiz-adv-x="692" 
d="M597 685v-403q0 -83 -5 -125.5t-23 -73.5q-54 -96 -227 -96q-86 0 -142 22.5t-83 80.5q-22 48 -22 190v405q0 21 20 21h37q18 0 18 -21v-429q0 -104 22 -139q37 -60 154 -60q123 0 154 57q24 41 24 138v433q0 21 20 21h35q18 0 18 -21zM353 772l-154 108q-11 7 -11 19
t15 12h58q15 0 32 -14l133 -106q10 -9 10 -17q0 -12 -14 -12h-38q-17 0 -31 10z" />
    <glyph glyph-name="Uacute" unicode="&#xda;" horiz-adv-x="692" 
d="M597 685v-403q0 -83 -5 -125.5t-23 -73.5q-54 -96 -227 -96q-86 0 -142 22.5t-83 80.5q-22 48 -22 190v405q0 21 20 21h37q18 0 18 -21v-429q0 -104 22 -139q37 -60 154 -60q123 0 154 57q24 41 24 138v433q0 21 20 21h35q18 0 18 -21zM340 772q-12 -10 -30 -10h-38
q-14 0 -14 12q0 9 10 17l134 107q14 13 31 13h58q15 0 15 -12t-11 -19z" />
    <glyph glyph-name="Ucircumflex" unicode="&#xdb;" horiz-adv-x="692" 
d="M597 685v-403q0 -83 -5 -125.5t-23 -73.5q-54 -96 -227 -96q-86 0 -142 22.5t-83 80.5q-22 48 -22 190v405q0 21 20 21h37q18 0 18 -21v-429q0 -104 22 -139q37 -60 154 -60q123 0 154 57q24 41 24 138v433q0 21 20 21h35q18 0 18 -21zM233 762h-32q-15 0 -15 13
q0 8 7 15l106 102q17 17 31 17h39q11 0 28 -15l108 -105q6 -5 6 -14q0 -13 -18 -13h-31q-12 0 -30 13l-85 68l-83 -67q-18 -14 -31 -14z" />
    <glyph glyph-name="Udieresis" unicode="&#xdc;" horiz-adv-x="692" 
d="M597 685v-403q0 -83 -5 -125.5t-23 -73.5q-54 -96 -227 -96q-86 0 -142 22.5t-83 80.5q-22 48 -22 190v405q0 21 20 21h37q18 0 18 -21v-429q0 -104 22 -139q37 -60 154 -60q123 0 154 57q24 41 24 138v433q0 21 20 21h35q18 0 18 -21zM295 821q0 -48 -47 -48
q-45 0 -45 47q0 50 45 50q47 0 47 -49zM483 821q0 -48 -47 -48q-45 0 -45 47q0 50 45 50q47 0 47 -49z" />
    <glyph glyph-name="Yacute" unicode="&#xdd;" horiz-adv-x="566" 
d="M321 20q0 -22 -20 -22h-36q-19 0 -19 22v287l-224 355q-14 24 -14 31q0 6 4.5 11.5t11.5 5.5h42q17 0 29 -20l191 -310q41 72 188 306q15 24 32 24h37q16 0 16 -14q0 -11 -11 -28l-227 -359v-289zM282 771q-12 -10 -30 -10h-38q-14 0 -14 12q0 9 10 17l134 107
q14 13 31 13h58q15 0 15 -12t-11 -19z" />
    <glyph glyph-name="Thorn" unicode="&#xde;" horiz-adv-x="620" 
d="M177 157v-138q0 -21 -20 -21h-36q-19 0 -19 21v668q0 21 20 21h37q18 0 18 -21v-119h103q123 0 178 -23q102 -41 102 -181q0 -154 -132 -192q-52 -15 -143 -15h-108zM177 226h114q87 0 125 16q67 26 67 118q0 95 -66 123q-34 15 -132 15h-108v-272z" />
    <glyph glyph-name="germandbls" unicode="&#xdf;" horiz-adv-x="541" 
d="M162 18q0 -20 -19 -20h-34q-19 0 -19 20v472q0 107 18 143q45 91 183 91q97 0 138.5 -41t41.5 -123q0 -76 -26 -114t-84 -55q84 -9 115 -56.5t31 -141.5q0 -109 -47 -155.5t-141 -46.5q-45 0 -85 9q-12 3 -12 16q0 11 8 37q4 12 14 12q2 0 8.5 -2t9.5 -2q24 -5 57 -5
q65 0 90.5 31t25.5 109q0 40 -6 65.5t-23 47t-51 31t-88 9.5h-14q-17 0 -17 16v32q0 19 18 19h14q62 0 96 29.5t34 105.5q0 108 -111 108q-85 0 -111 -51q-14 -28 -14 -110v-480z" />
    <glyph glyph-name="agrave" unicode="&#xe0;" horiz-adv-x="532" 
d="M376 39q-55 -51 -150 -51q-173 0 -173 161q0 80 64 117q49 28 152 28q73 0 106 -5v47q0 47 -7 64q-17 43 -109 43q-68 0 -115 -11q-28 -7 -33 -7q-12 0 -14 12q-6 18 -6 35q0 15 16 19q71 21 164 21q107 0 144 -38q18 -18 24 -46.5t6 -78.5v-328q0 -14 -4.5 -18.5
t-15.5 -4.5h-25q-20 0 -21 14zM375 232q-38 5 -98 5q-90 0 -127 -27q-26 -19 -26 -61q0 -48 25.5 -73t92.5 -25q68 0 109 27q12 7 19 16q5 9 5 25v113zM257 592l-122 130q-8 10 -8 16q0 13 15 13h54q15 0 25 -13l106 -131q5 -6 5 -15q0 -12 -13 -12h-35q-16 0 -27 12z" />
    <glyph glyph-name="aacute" unicode="&#xe1;" horiz-adv-x="532" 
d="M376 39q-55 -51 -150 -51q-173 0 -173 161q0 80 64 117q49 28 152 28q73 0 106 -5v47q0 47 -7 64q-17 43 -109 43q-68 0 -115 -11q-28 -7 -33 -7q-12 0 -14 12q-6 18 -6 35q0 15 16 19q71 21 164 21q107 0 144 -38q18 -18 24 -46.5t6 -78.5v-328q0 -14 -4.5 -18.5
t-15.5 -4.5h-25q-20 0 -21 14zM375 232q-38 5 -98 5q-90 0 -127 -27q-26 -19 -26 -61q0 -48 25.5 -73t92.5 -25q68 0 109 27q12 7 19 16q5 9 5 25v113zM274 592q-11 -12 -26 -12h-36q-13 0 -13 13q0 7 6 15l105 130q10 13 25 13h54q14 0 14 -12q0 -9 -8 -17z" />
    <glyph glyph-name="acircumflex" unicode="&#xe2;" horiz-adv-x="532" 
d="M376 39q-55 -51 -150 -51q-173 0 -173 161q0 80 64 117q49 28 152 28q73 0 106 -5v47q0 47 -7 64q-17 43 -109 43q-68 0 -115 -11q-28 -7 -33 -7q-12 0 -14 12q-6 18 -6 35q0 15 16 19q71 21 164 21q107 0 144 -38q18 -18 24 -46.5t6 -78.5v-328q0 -14 -4.5 -18.5
t-15.5 -4.5h-25q-20 0 -21 14zM375 232q-38 5 -98 5q-90 0 -127 -27q-26 -19 -26 -61q0 -48 25.5 -73t92.5 -25q68 0 109 27q12 7 19 16q5 9 5 25v113zM155 573h-30q-14 0 -14 12q0 5 7 16l95 133q11 17 28 17h42q13 0 24 -15l96 -136q7 -12 7 -15q0 -12 -15 -12h-30
q-14 0 -25 13l-81 101l-78 -100q-12 -14 -26 -14z" />
    <glyph glyph-name="atilde" unicode="&#xe3;" horiz-adv-x="532" 
d="M376 39q-55 -51 -150 -51q-173 0 -173 161q0 80 64 117q49 28 152 28q73 0 106 -5v47q0 47 -7 64q-17 43 -109 43q-68 0 -115 -11q-28 -7 -33 -7q-12 0 -14 12q-6 18 -6 35q0 15 16 19q71 21 164 21q107 0 144 -38q18 -18 24 -46.5t6 -78.5v-328q0 -14 -4.5 -18.5
t-15.5 -4.5h-25q-20 0 -21 14zM375 232q-38 5 -98 5q-90 0 -127 -27q-26 -19 -26 -61q0 -48 25.5 -73t92.5 -25q68 0 109 27q12 7 19 16q5 9 5 25v113zM118 598h-22q-15 0 -15 14q0 6 6 21q28 85 86 85q25 0 77 -29q38 -21 60 -21q12 0 19.5 6.5t16.5 30.5q7 18 22 18h22
q15 0 15 -13q0 -5 -6 -25q-25 -87 -85 -87q-32 0 -80 26q-44 24 -57 24t-20.5 -6.5t-16.5 -27.5q-8 -16 -22 -16z" />
    <glyph glyph-name="adieresis" unicode="&#xe4;" horiz-adv-x="532" 
d="M376 39q-55 -51 -150 -51q-173 0 -173 161q0 80 64 117q49 28 152 28q73 0 106 -5v47q0 47 -7 64q-17 43 -109 43q-68 0 -115 -11q-28 -7 -33 -7q-12 0 -14 12q-6 18 -6 35q0 15 16 19q71 21 164 21q107 0 144 -38q18 -18 24 -46.5t6 -78.5v-328q0 -14 -4.5 -18.5
t-15.5 -4.5h-25q-20 0 -21 14zM375 232q-38 5 -98 5q-90 0 -127 -27q-26 -19 -26 -61q0 -48 25.5 -73t92.5 -25q68 0 109 27q12 7 19 16q5 9 5 25v113zM227 662q0 -48 -46 -48t-46 47q0 50 46 50t46 -49zM401 662q0 -48 -46 -48t-46 47q0 50 46 50t46 -49z" />
    <glyph glyph-name="aring" unicode="&#xe5;" horiz-adv-x="532" 
d="M376 39q-55 -51 -150 -51q-173 0 -173 161q0 80 64 117q49 28 152 28q73 0 106 -5v47q0 47 -7 64q-17 43 -109 43q-68 0 -115 -11q-28 -7 -33 -7q-12 0 -14 12q-6 18 -6 35q0 15 16 19q71 21 164 21q107 0 144 -38q18 -18 24 -46.5t6 -78.5v-328q0 -14 -4.5 -18.5
t-15.5 -4.5h-25q-20 0 -21 14zM375 232q-38 5 -98 5q-90 0 -127 -27q-26 -19 -26 -61q0 -48 25.5 -73t92.5 -25q68 0 109 27q12 7 19 16q5 9 5 25v113zM357 670q0 -45 -26.5 -69.5t-70.5 -24.5q-42 0 -67.5 24.5t-25.5 69.5t26.5 71t69.5 26q44 0 69 -25.5t25 -71.5z
M320 672q0 61 -59 61q-27 0 -43 -16t-16 -46q0 -29 16 -45.5t44 -16.5q27 0 42.5 16.5t15.5 46.5z" />
    <glyph glyph-name="ae" unicode="&#xe6;" horiz-adv-x="843" 
d="M445 232q1 -105 39.5 -141.5t121.5 -36.5q79 0 136 22q14 6 23 6q8 0 13 -10q9 -24 9 -35q0 -12 -17 -19q-65 -31 -171 -31q-128 0 -178 68q-70 -67 -194 -67q-174 0 -174 161q0 83 62 116q52 29 156 29q63 0 104 -3v43q0 47 -8 66q-17 43 -108 43q-63 0 -116 -11
q-5 -1 -17 -4t-16 -3q-11 0 -13 12q-6 30 -6 34q0 16 16 20q73 21 163 21q68 0 107.5 -18.5t48.5 -68.5q21 42 68.5 64.5t106.5 22.5q50 0 85.5 -12t56.5 -32t33 -53t16 -68t4 -85q0 -18 -8 -25q-5 -5 -20 -5h-323zM375 234q-24 2 -97 2q-100 0 -128 -24q-26 -23 -26 -63
q0 -48 25.5 -73t92.5 -25q45 0 88 13t64 37q-19 47 -19 133zM446 292h280q1 8 1 21q0 69 -27.5 102.5t-101.5 33.5q-83 0 -116.5 -38.5t-35.5 -118.5z" />
    <glyph glyph-name="ccedilla" unicode="&#xe7;" horiz-adv-x="458" 
d="M262 -61q57 -1 76 -23.5t19 -63.5q0 -91 -120 -91q-35 0 -49 5q-13 4 -13 16q0 14 3 24q4 13 17 13q1 0 15 -2q18 -4 31 -4q28 0 39 9t11 28q0 21 -10 30t-34 9q-3 0 -12.5 -0.5t-11.5 -0.5q-17 0 -17 17q0 4 1.5 14.5t1.5 14.5l10 56q-83 9 -123.5 66.5t-40.5 184.5
q0 142 52 206.5t176 64.5q70 0 115 -12q17 -4 17 -19q0 -19 -7 -38q-4 -11 -15 -11q-9 0 -24 3q-38 9 -87 9q-40 0 -68.5 -10.5t-45 -26.5t-25.5 -42.5t-12 -52t-3 -61.5q0 -47 4.5 -78t17.5 -60.5t41.5 -44t71.5 -14.5q71 0 119 18q20 6 23 6q10 0 13 -12q8 -27 8 -32
q0 -14 -16 -21q-60 -24 -140 -26z" />
    <glyph glyph-name="egrave" unicode="&#xe8;" horiz-adv-x="526" 
d="M127 226q1 -100 38.5 -136t120.5 -36q78 0 137 22q16 6 22 6q9 0 14 -10q9 -24 9 -35q0 -12 -16 -19q-66 -31 -172 -31q-125 0 -175.5 61t-50.5 200q0 138 57 201t171 63q50 0 86 -12.5t57 -32.5t33 -53t16 -67.5t4 -82.5q0 -24 -8 -32q-6 -6 -21 -6h-322zM127 289h279
q1 7 1 24q0 69 -27 102.5t-101 33.5q-83 0 -116.5 -40t-35.5 -120zM265 592l-122 130q-8 10 -8 16q0 13 15 13h54q15 0 25 -13l106 -131q5 -6 5 -15q0 -12 -13 -12h-35q-16 0 -27 12z" />
    <glyph glyph-name="eacute" unicode="&#xe9;" horiz-adv-x="526" 
d="M127 226q1 -100 38.5 -136t120.5 -36q78 0 137 22q16 6 22 6q9 0 14 -10q9 -24 9 -35q0 -12 -16 -19q-66 -31 -172 -31q-125 0 -175.5 61t-50.5 200q0 138 57 201t171 63q50 0 86 -12.5t57 -32.5t33 -53t16 -67.5t4 -82.5q0 -24 -8 -32q-6 -6 -21 -6h-322zM127 289h279
q1 7 1 24q0 69 -27 102.5t-101 33.5q-83 0 -116.5 -40t-35.5 -120zM270 592q-11 -12 -26 -12h-36q-13 0 -13 13q0 7 6 15l105 130q10 13 25 13h54q14 0 14 -12q0 -9 -8 -17z" />
    <glyph glyph-name="ecircumflex" unicode="&#xea;" horiz-adv-x="526" 
d="M127 226q1 -100 38.5 -136t120.5 -36q78 0 137 22q16 6 22 6q9 0 14 -10q9 -24 9 -35q0 -12 -16 -19q-66 -31 -172 -31q-125 0 -175.5 61t-50.5 200q0 138 57 201t171 63q50 0 86 -12.5t57 -32.5t33 -53t16 -67.5t4 -82.5q0 -24 -8 -32q-6 -6 -21 -6h-322zM127 289h279
q1 7 1 24q0 69 -27 102.5t-101 33.5q-83 0 -116.5 -40t-35.5 -120zM173 573h-30q-14 0 -14 12q0 5 7 16l95 133q11 17 28 17h42q13 0 24 -15l96 -136q7 -12 7 -15q0 -12 -15 -12h-30q-14 0 -25 13l-81 101l-78 -100q-12 -14 -26 -14z" />
    <glyph glyph-name="edieresis" unicode="&#xeb;" horiz-adv-x="526" 
d="M127 226q1 -100 38.5 -136t120.5 -36q78 0 137 22q16 6 22 6q9 0 14 -10q9 -24 9 -35q0 -12 -16 -19q-66 -31 -172 -31q-125 0 -175.5 61t-50.5 200q0 138 57 201t171 63q50 0 86 -12.5t57 -32.5t33 -53t16 -67.5t4 -82.5q0 -24 -8 -32q-6 -6 -21 -6h-322zM127 289h279
q1 7 1 24q0 69 -27 102.5t-101 33.5q-83 0 -116.5 -40t-35.5 -120zM222 662q0 -48 -46 -48t-46 47q0 50 46 50t46 -49zM396 662q0 -48 -46 -48t-46 47q0 50 46 50t46 -49z" />
    <glyph glyph-name="igrave" unicode="&#xec;" horiz-adv-x="252" 
d="M113 592l-122 130q-8 10 -8 16q0 13 15 13h54q15 0 25 -13l106 -131q5 -6 5 -15q0 -12 -13 -12h-35q-16 0 -27 12zM162 18q0 -20 -19 -20h-34q-19 0 -19 20v460q0 22 19 22h35q18 0 18 -21v-461z" />
    <glyph glyph-name="iacute" unicode="&#xed;" horiz-adv-x="252" 
d="M121 592q-11 -12 -26 -12h-36q-13 0 -13 13q0 7 6 15l105 130q10 13 25 13h54q14 0 14 -12q0 -9 -8 -17zM162 18q0 -20 -19 -20h-34q-19 0 -19 20v460q0 22 19 22h35q18 0 18 -21v-461z" />
    <glyph glyph-name="icircumflex" unicode="&#xee;" horiz-adv-x="252" 
d="M162 18q0 -20 -19 -20h-34q-19 0 -19 20v460q0 22 19 22h35q18 0 18 -21v-461zM21 573h-30q-14 0 -14 12q0 5 7 16l95 133q11 17 28 17h42q13 0 24 -15l96 -136q7 -12 7 -15q0 -12 -15 -12h-30q-14 0 -25 13l-81 101l-78 -100q-12 -14 -26 -14z" />
    <glyph glyph-name="idieresis" unicode="&#xef;" horiz-adv-x="252" 
d="M84 662q0 -48 -46 -48t-46 47q0 50 46 50t46 -49zM258 662q0 -48 -46 -48t-46 47q0 50 46 50t46 -49zM162 18q0 -20 -19 -20h-34q-19 0 -19 20v460q0 22 19 22h35q18 0 18 -21v-461z" />
    <glyph glyph-name="eth" unicode="&#xf0;" horiz-adv-x="556" 
d="M478 699l-66 -43q55 -62 72.5 -159t17.5 -243q0 -105 -26 -164t-73 -81t-127 -22q-58 0 -97 11.5t-68.5 40t-43 80.5t-13.5 131q0 78 17 130.5t49 79.5t70 37.5t89 10.5q42 0 85 -12t60 -42q-17 109 -71 163l-83 -54q-14 -9 -18 -9q-6 0 -17 16q-9 14 -9 18q0 7 10 15
l73 48q-50 29 -135 35q-17 2 -17 14q0 15 4 35q3 12 17 12q18 0 29 -1q101 -9 165 -54l74 49q10 6 15 6q6 0 11 -8q15 -19 15 -26q0 -5 -9 -14zM430 248q0 82 -15.5 124t-45.5 56t-88 14q-81 0 -117.5 -38.5t-36.5 -151.5q0 -64 8.5 -104t29 -60.5t45.5 -27t67 -6.5t66 5.5
t46 24.5t31.5 59t9.5 105z" />
    <glyph glyph-name="ntilde" unicode="&#xf1;" horiz-adv-x="580" 
d="M162 18q0 -20 -19 -20h-34q-19 0 -19 20v463q0 21 22 21h29q10 0 14 -4.5t5 -16.5l2 -20q23 25 77 37t106 12q65 0 96 -15t43 -47q9 -26 9 -98v-332q0 -20 -19 -20h-33q-19 0 -19 20v317q0 50 -7 68q-7 20 -26.5 29t-63.5 9q-89 0 -139 -25q-13 -7 -18 -14q-6 -8 -6 -25
v-359zM167 598h-22q-15 0 -15 14q0 6 6 21q28 85 86 85q25 0 77 -29q38 -21 60 -21q12 0 19.5 6.5t16.5 30.5q7 18 22 18h22q15 0 15 -13q0 -5 -6 -25q-26 -87 -85 -87q-32 0 -80 26q-44 24 -57 24t-20.5 -6.5t-16.5 -27.5q-8 -16 -22 -16z" />
    <glyph glyph-name="ograve" unicode="&#xf2;" horiz-adv-x="556" 
d="M502 253q0 -79 -13.5 -131.5t-43 -82t-70 -41t-99.5 -11.5q-58 0 -97 11.5t-68.5 40t-43 80.5t-13.5 131t17 132.5t49.5 81t70.5 38t91 10.5q59 0 96 -9t67.5 -36t43.5 -79t13 -135zM430 249q0 83 -14.5 124.5t-45 56t-90.5 14.5q-81 0 -117 -39t-36 -152
q0 -64 8.5 -103.5t29 -60.5t45.5 -28t67 -7q41 0 66 6t46.5 25.5t31 59.5t9.5 104zM258 592l-122 130q-8 10 -8 16q0 13 15 13h54q15 0 25 -13l106 -131q5 -6 5 -15q0 -12 -13 -12h-35q-16 0 -27 12z" />
    <glyph glyph-name="oacute" unicode="&#xf3;" horiz-adv-x="556" 
d="M502 253q0 -79 -13.5 -131.5t-43 -82t-70 -41t-99.5 -11.5q-58 0 -97 11.5t-68.5 40t-43 80.5t-13.5 131t17 132.5t49.5 81t70.5 38t91 10.5q59 0 96 -9t67.5 -36t43.5 -79t13 -135zM430 249q0 83 -14.5 124.5t-45 56t-90.5 14.5q-81 0 -117 -39t-36 -152
q0 -64 8.5 -103.5t29 -60.5t45.5 -28t67 -7q41 0 66 6t46.5 25.5t31 59.5t9.5 104zM275 592q-11 -12 -26 -12h-36q-13 0 -13 13q0 7 6 15l105 130q10 13 25 13h54q14 0 14 -12q0 -9 -8 -17z" />
    <glyph glyph-name="ocircumflex" unicode="&#xf4;" horiz-adv-x="556" 
d="M502 253q0 -79 -13.5 -131.5t-43 -82t-70 -41t-99.5 -11.5q-58 0 -97 11.5t-68.5 40t-43 80.5t-13.5 131t17 132.5t49.5 81t70.5 38t91 10.5q59 0 96 -9t67.5 -36t43.5 -79t13 -135zM430 249q0 83 -14.5 124.5t-45 56t-90.5 14.5q-81 0 -117 -39t-36 -152
q0 -64 8.5 -103.5t29 -60.5t45.5 -28t67 -7q41 0 66 6t46.5 25.5t31 59.5t9.5 104zM173 573h-30q-14 0 -14 12q0 5 7 16l95 133q11 17 28 17h42q13 0 24 -15l96 -136q7 -12 7 -15q0 -12 -15 -12h-30q-14 0 -25 13l-81 101l-78 -100q-12 -14 -26 -14z" />
    <glyph glyph-name="otilde" unicode="&#xf5;" horiz-adv-x="556" 
d="M502 253q0 -79 -13.5 -131.5t-43 -82t-70 -41t-99.5 -11.5q-58 0 -97 11.5t-68.5 40t-43 80.5t-13.5 131t17 132.5t49.5 81t70.5 38t91 10.5q59 0 96 -9t67.5 -36t43.5 -79t13 -135zM430 249q0 83 -14.5 124.5t-45 56t-90.5 14.5q-81 0 -117 -39t-36 -152
q0 -64 8.5 -103.5t29 -60.5t45.5 -28t67 -7q41 0 66 6t46.5 25.5t31 59.5t9.5 104zM153 598h-22q-15 0 -15 14q0 6 6 21q28 85 86 85q25 0 77 -29q38 -21 60 -21q12 0 19.5 6.5t16.5 30.5q7 18 22 18h22q15 0 15 -13q0 -5 -6 -25q-26 -87 -85 -87q-32 0 -80 26
q-44 24 -57 24t-20.5 -6.5t-16.5 -27.5q-8 -16 -22 -16z" />
    <glyph glyph-name="odieresis" unicode="&#xf6;" horiz-adv-x="556" 
d="M502 253q0 -79 -13.5 -131.5t-43 -82t-70 -41t-99.5 -11.5q-58 0 -97 11.5t-68.5 40t-43 80.5t-13.5 131t17 132.5t49.5 81t70.5 38t91 10.5q59 0 96 -9t67.5 -36t43.5 -79t13 -135zM430 249q0 83 -14.5 124.5t-45 56t-90.5 14.5q-81 0 -117 -39t-36 -152
q0 -64 8.5 -103.5t29 -60.5t45.5 -28t67 -7q41 0 66 6t46.5 25.5t31 59.5t9.5 104zM238 662q0 -48 -46 -48t-46 47q0 50 46 50t46 -49zM412 662q0 -48 -46 -48t-46 47q0 50 46 50t46 -49z" />
    <glyph glyph-name="divide" unicode="&#xf7;" horiz-adv-x="701" 
d="M391 457q0 -22 -11.5 -33.5t-29.5 -11.5q-40 0 -40 45t42 45q39 0 39 -45zM610 285q0 -20 -16 -20h-487q-17 0 -17 20v21q0 19 17 19h487q16 0 16 -19v-21zM391 128q0 -22 -11.5 -33.5t-29.5 -11.5q-40 0 -40 45t42 45q39 0 39 -45z" />
    <glyph glyph-name="oslash" unicode="&#xf8;" horiz-adv-x="556" 
d="M98 -28q-6 -8 -12 -8q-8 0 -21 12q-7 6 -7 11q0 6 5 13l37 50q-46 59 -46 200q0 79 17 132.5t49.5 81t70.5 38t91 10.5q92 0 136 -25l38 52q5 8 13 8q7 0 12 -4q15 -10 15 -17q0 -6 -4 -13l-39 -54q49 -58 49 -206q0 -79 -13.5 -131.5t-43 -82t-70 -41t-99.5 -11.5
q-96 0 -144 32zM431 249q0 106 -23 149l-235 -323q31 -26 104 -26q41 0 66.5 6.5t47 26.5t31 61t9.5 106zM125 253q0 -94 20 -140l232 318q-30 18 -97 18q-82 0 -118.5 -40t-36.5 -156z" />
    <glyph glyph-name="ugrave" unicode="&#xf9;" horiz-adv-x="580" 
d="M418 34q-23 -23 -74.5 -34t-102.5 -11q-121 0 -145 63q-10 29 -10 99v328q0 21 19 21h34q19 0 19 -21v-311q0 -49 8 -70q14 -41 96 -41q81 0 132 22q14 5 18 12q5 8 5 25v363q0 21 20 21h33q19 0 19 -21v-461q0 -20 -21 -20h-30q-18 0 -19 20zM262 594l-122 130
q-8 10 -8 16q0 13 15 13h54q15 0 25 -13l106 -131q5 -6 5 -15q0 -12 -13 -12h-35q-16 0 -27 12z" />
    <glyph glyph-name="uacute" unicode="&#xfa;" horiz-adv-x="580" 
d="M418 34q-23 -23 -74.5 -34t-102.5 -11q-121 0 -145 63q-10 29 -10 99v328q0 21 19 21h34q19 0 19 -21v-311q0 -49 8 -70q14 -41 96 -41q81 0 132 22q14 5 18 12q5 8 5 25v363q0 21 20 21h33q19 0 19 -21v-461q0 -20 -21 -20h-30q-18 0 -19 20zM292 592q-11 -12 -26 -12
h-36q-13 0 -13 13q0 7 6 15l105 130q10 13 25 13h54q14 0 14 -12q0 -9 -8 -17z" />
    <glyph glyph-name="ucircumflex" unicode="&#xfb;" horiz-adv-x="580" 
d="M418 34q-23 -23 -74.5 -34t-102.5 -11q-121 0 -145 63q-10 29 -10 99v328q0 21 19 21h34q19 0 19 -21v-311q0 -49 8 -70q14 -41 96 -41q81 0 132 22q14 5 18 12q5 8 5 25v363q0 21 20 21h33q19 0 19 -21v-461q0 -20 -21 -20h-30q-18 0 -19 20zM191 573h-30q-14 0 -14 12
q0 5 7 16l95 133q11 17 28 17h42q13 0 24 -15l96 -136q7 -12 7 -15q0 -12 -15 -12h-30q-14 0 -25 13l-81 101l-78 -100q-12 -14 -26 -14z" />
    <glyph glyph-name="udieresis" unicode="&#xfc;" horiz-adv-x="580" 
d="M418 34q-23 -23 -74.5 -34t-102.5 -11q-121 0 -145 63q-10 29 -10 99v328q0 21 19 21h34q19 0 19 -21v-311q0 -49 8 -70q14 -41 96 -41q81 0 132 22q14 5 18 12q5 8 5 25v363q0 21 20 21h33q19 0 19 -21v-461q0 -20 -21 -20h-30q-18 0 -19 20zM252 662q0 -48 -46 -48
t-46 47q0 50 46 50t46 -49zM426 662q0 -48 -46 -48t-46 47q0 50 46 50t46 -49z" />
    <glyph glyph-name="yacute" unicode="&#xfd;" horiz-adv-x="457" 
d="M190 12l-177 449q-6 15 -6 24q0 15 19 15h38q15 0 25 -25l141 -372q34 97 142 371q10 26 25 26h36q18 0 18 -15q0 -9 -6 -24l-210 -522q-18 -44 -32 -75q-25 -54 -54 -82q-37 -32 -97 -32q-39 0 -52 4q-18 5 -18 18q0 18 7 37q4 10 15 10q1 0 15 -1.5t29 -1.5q35 0 50 12
q18 13 44 68q5 11 33 80zM237 592q-11 -12 -26 -12h-36q-13 0 -13 13q0 7 6 15l105 130q10 13 25 13h54q14 0 14 -12q0 -9 -8 -17z" />
    <glyph glyph-name="thorn" unicode="&#xfe;" horiz-adv-x="572" 
d="M162 -224q0 -20 -20 -20h-33q-19 0 -19 20v951q0 21 20 21h32q12 0 16 -4.5t4 -15.5v-265q48 45 163 45q97 0 145 -56.5t48 -192.5q0 -153 -57 -212t-184 -59q-74 0 -115 14v-226zM162 68q33 -15 112 -15q99 0 135 45.5t36 156.5q0 100 -29.5 142.5t-108.5 42.5
q-78 0 -126 -22q-14 -7 -16 -14q-3 -7 -3 -22v-314z" />
    <glyph glyph-name="ydieresis" unicode="&#xff;" horiz-adv-x="457" 
d="M190 12l-177 449q-6 15 -6 24q0 15 19 15h38q15 0 25 -25l141 -372q34 97 142 371q10 26 25 26h36q18 0 18 -15q0 -9 -6 -24l-210 -522q-18 -44 -32 -75q-25 -54 -54 -82q-37 -32 -97 -32q-39 0 -52 4q-18 5 -18 18q0 18 7 37q4 10 15 10q1 0 15 -1.5t29 -1.5q35 0 50 12
q18 13 44 68q5 11 33 80zM191 662q0 -48 -46 -48t-46 47q0 50 46 50t46 -49zM365 662q0 -48 -46 -48t-46 47q0 50 46 50t46 -49z" />
    <glyph glyph-name="Amacron" unicode="&#x100;" horiz-adv-x="598" 
d="M164 223l-74 -200q-9 -25 -26 -25h-35q-21 0 -21 15q0 7 7 26l240 650q7 19 26 19h35q20 0 26 -19l240 -650q7 -19 7 -26q0 -15 -19 -15h-35q-11 0 -16.5 5.5t-11.5 21.5l-73 198h-270zM186 292h226l-113 312zM423 793h-251q-18 0 -18 17v30q0 18 19 18h249q19 0 19 -18
v-31q0 -16 -18 -16z" />
    <glyph glyph-name="amacron" unicode="&#x101;" horiz-adv-x="532" 
d="M376 39q-55 -51 -150 -51q-173 0 -173 161q0 80 64 117q49 28 152 28q73 0 106 -5v47q0 47 -7 64q-17 43 -109 43q-68 0 -115 -11q-28 -7 -33 -7q-12 0 -14 12q-6 18 -6 35q0 15 16 19q71 21 164 21q107 0 144 -38q18 -18 24 -46.5t6 -78.5v-328q0 -14 -4.5 -18.5
t-15.5 -4.5h-25q-20 0 -21 14zM375 232q-38 5 -98 5q-90 0 -127 -27q-26 -19 -26 -61q0 -48 25.5 -73t92.5 -25q68 0 109 27q12 7 19 16q5 9 5 25v113zM382 611h-231q-19 0 -19 16v33q0 18 19 18h230q19 0 19 -18v-33q0 -16 -18 -16z" />
    <glyph glyph-name="Abreve" unicode="&#x102;" horiz-adv-x="598" 
d="M164 223l-74 -200q-9 -25 -26 -25h-35q-21 0 -21 15q0 7 7 26l240 650q7 19 26 19h35q20 0 26 -19l240 -650q7 -19 7 -26q0 -15 -19 -15h-35q-11 0 -16.5 5.5t-11.5 21.5l-73 198h-270zM186 292h226l-113 312zM435 905q16 0 16 -14q0 -18 -5 -37q-28 -95 -149 -95
q-126 0 -147 100q-3 11 -3 30q0 16 17 16h26q16 0 18 -14q5 -35 24.5 -51.5t65.5 -16.5q49 0 68 16.5t25 51.5q1 14 17 14h27z" />
    <glyph glyph-name="abreve" unicode="&#x103;" horiz-adv-x="532" 
d="M376 39q-55 -51 -150 -51q-173 0 -173 161q0 80 64 117q49 28 152 28q73 0 106 -5v47q0 47 -7 64q-17 43 -109 43q-68 0 -115 -11q-28 -7 -33 -7q-12 0 -14 12q-6 18 -6 35q0 15 16 19q71 21 164 21q107 0 144 -38q18 -18 24 -46.5t6 -78.5v-328q0 -14 -4.5 -18.5
t-15.5 -4.5h-25q-20 0 -21 14zM375 232q-38 5 -98 5q-90 0 -127 -27q-26 -19 -26 -61q0 -48 25.5 -73t92.5 -25q68 0 109 27q12 7 19 16q5 9 5 25v113zM391 723q14 0 14 -15q0 -17 -4 -36q-24 -100 -141 -100q-116 0 -137 102q-3 12 -3 33q0 16 16 16h25q15 0 17 -15
q5 -39 22.5 -57t60.5 -18q46 0 64 18.5t23 56.5q1 15 17 15h26z" />
    <glyph glyph-name="Aogonek" unicode="&#x104;" horiz-adv-x="598" 
d="M164 223l-74 -200q-9 -25 -26 -25h-35q-21 0 -21 15q0 7 7 26l240 650q7 19 26 19h35q20 0 26 -19l240 -650q7 -19 7 -26q0 -15 -19 -15h-1q-54 -37 -73.5 -62.5t-19.5 -63.5q0 -28 13.5 -39.5t42.5 -11.5q12 0 29 3t19 3q9 0 13 -11q5 -14 5 -28q0 -12 -14 -16
q-24 -8 -63 -8q-113 0 -113 100q0 53 26.5 82t82.5 59q-7 9 -10 20l-73 198h-270zM186 292h226l-113 312z" />
    <glyph glyph-name="aogonek" unicode="&#x105;" horiz-adv-x="532" 
d="M446 6l-6 -4q-2 -2 -5 -2q-53 -36 -72.5 -60t-19.5 -61q0 -49 52 -49q11 0 27 2.5t19 2.5q10 0 13 -11q4 -18 4 -26q0 -11 -13 -15q-24 -8 -61 -8q-106 0 -106 96q0 50 25 78.5t77 55.5q0 1 -0.5 3t-0.5 4l-3 27q-55 -51 -150 -51q-173 0 -173 161q0 80 64 117
q49 28 152 28q73 0 106 -5v47q0 47 -7 64q-17 43 -109 43q-68 0 -115 -11q-28 -7 -33 -7q-12 0 -14 12q-6 18 -6 35q0 15 16 19q71 21 164 21q107 0 144 -38q18 -18 24 -46.5t6 -78.5v-328q0 -11 -3 -15h4zM375 232q-38 5 -98 5q-90 0 -127 -27q-26 -19 -26 -61
q0 -48 25.5 -73t92.5 -25q68 0 109 27q12 7 19 16q5 9 5 25v113z" />
    <glyph glyph-name="Cacute" unicode="&#x106;" horiz-adv-x="600" 
d="M140 357q0 -55 3 -93.5t15 -80.5t32.5 -67.5t58 -42t90.5 -16.5q97 0 171 28q18 7 28 7t16 -14q8 -22 8 -33q0 -13 -22 -22q-86 -36 -208 -36q-138 0 -203.5 79.5t-65.5 275.5q0 202 65 289.5t234 87.5q94 0 161 -15q24 -5 24 -22q0 -20 -8 -41q-3 -10 -16 -10
q-4 0 -32 6q-58 12 -142 12q-54 0 -93 -15.5t-61 -40.5t-35 -65t-16.5 -78.5t-3.5 -92.5zM354 772q-13 -10 -30 -10h-38q-14 0 -14 12q0 9 10 17l134 107q14 13 31 13h58q15 0 15 -12t-11 -19z" />
    <glyph glyph-name="cacute" unicode="&#x107;" horiz-adv-x="458" 
d="M128 251q0 -47 4.5 -78t17.5 -60.5t41.5 -44t71.5 -14.5q71 0 119 18q20 6 23 6q10 0 13 -12q8 -27 8 -32q0 -14 -16 -21q-62 -26 -150 -26q-105 0 -155 56.5t-50 197.5q0 142 52 206.5t176 64.5q70 0 115 -12q17 -4 17 -19q0 -19 -7 -38q-4 -11 -15 -11q-9 0 -24 3
q-38 9 -87 9q-40 0 -68.5 -10.5t-45 -26.5t-25.5 -42.5t-12 -52t-3 -61.5zM286 592q-11 -12 -26 -12h-36q-13 0 -13 13q0 7 6 15l105 130q10 13 25 13h54q14 0 14 -12q0 -9 -8 -17z" />
    <glyph glyph-name="Ccircumflex" unicode="&#x108;" horiz-adv-x="600" 
d="M140 357q0 -55 3 -93.5t15 -80.5t32.5 -67.5t58 -42t90.5 -16.5q97 0 171 28q18 7 28 7t16 -14q8 -22 8 -33q0 -13 -22 -22q-86 -36 -208 -36q-138 0 -203.5 79.5t-65.5 275.5q0 202 65 289.5t234 87.5q94 0 161 -15q24 -5 24 -22q0 -20 -8 -41q-3 -10 -16 -10
q-4 0 -32 6q-58 12 -142 12q-54 0 -93 -15.5t-61 -40.5t-35 -65t-16.5 -78.5t-3.5 -92.5zM232 762h-32q-15 0 -15 13q0 8 7 15l106 102q17 17 31 17h39q11 0 28 -15l108 -105q6 -5 6 -14q0 -13 -18 -13h-31q-12 0 -30 13l-85 68l-83 -67q-18 -14 -31 -14z" />
    <glyph glyph-name="ccircumflex" unicode="&#x109;" horiz-adv-x="458" 
d="M128 251q0 -47 4.5 -78t17.5 -60.5t41.5 -44t71.5 -14.5q71 0 119 18q20 6 23 6q10 0 13 -12q8 -27 8 -32q0 -14 -16 -21q-62 -26 -150 -26q-105 0 -155 56.5t-50 197.5q0 142 52 206.5t176 64.5q70 0 115 -12q17 -4 17 -19q0 -19 -7 -38q-4 -11 -15 -11q-9 0 -24 3
q-38 9 -87 9q-40 0 -68.5 -10.5t-45 -26.5t-25.5 -42.5t-12 -52t-3 -61.5zM168 573h-30q-14 0 -14 12q0 5 7 16l95 133q11 17 28 17h42q13 0 24 -15l96 -136q7 -12 7 -15q0 -12 -15 -12h-30q-14 0 -25 13l-81 101l-78 -100q-12 -14 -26 -14z" />
    <glyph glyph-name="Cdotaccent" unicode="&#x10a;" horiz-adv-x="600" 
d="M140 357q0 -55 3 -93.5t15 -80.5t32.5 -67.5t58 -42t90.5 -16.5q97 0 171 28q18 7 28 7t16 -14q8 -22 8 -33q0 -13 -22 -22q-86 -36 -208 -36q-138 0 -203.5 79.5t-65.5 275.5q0 202 65 289.5t234 87.5q94 0 161 -15q24 -5 24 -22q0 -20 -8 -41q-3 -10 -16 -10
q-4 0 -32 6q-58 12 -142 12q-54 0 -93 -15.5t-61 -40.5t-35 -65t-16.5 -78.5t-3.5 -92.5zM397 821q0 -48 -47 -48q-45 0 -45 47q0 50 45 50q47 0 47 -49z" />
    <glyph glyph-name="cdotaccent" unicode="&#x10b;" horiz-adv-x="458" 
d="M128 251q0 -47 4.5 -78t17.5 -60.5t41.5 -44t71.5 -14.5q71 0 119 18q20 6 23 6q10 0 13 -12q8 -27 8 -32q0 -14 -16 -21q-62 -26 -150 -26q-105 0 -155 56.5t-50 197.5q0 142 52 206.5t176 64.5q70 0 115 -12q17 -4 17 -19q0 -19 -7 -38q-4 -11 -15 -11q-9 0 -24 3
q-38 9 -87 9q-40 0 -68.5 -10.5t-45 -26.5t-25.5 -42.5t-12 -52t-3 -61.5zM313 662q0 -48 -46 -48t-46 47q0 50 46 50t46 -49z" />
    <glyph glyph-name="Ccaron" unicode="&#x10c;" horiz-adv-x="600" 
d="M140 357q0 -55 3 -93.5t15 -80.5t32.5 -67.5t58 -42t90.5 -16.5q97 0 171 28q18 7 28 7t16 -14q8 -22 8 -33q0 -13 -22 -22q-86 -36 -208 -36q-138 0 -203.5 79.5t-65.5 275.5q0 202 65 289.5t234 87.5q94 0 161 -15q24 -5 24 -22q0 -20 -8 -41q-3 -10 -16 -10
q-4 0 -32 6q-58 12 -142 12q-54 0 -93 -15.5t-61 -40.5t-35 -65t-16.5 -78.5t-3.5 -92.5zM460 910h32q15 0 15 -13q0 -8 -7 -15l-106 -102q-17 -17 -31 -17h-39q-9 0 -30 18l-106 102q-6 5 -6 14q0 13 18 13h31q12 0 30 -13l85 -68l83 67q18 14 31 14z" />
    <glyph glyph-name="ccaron" unicode="&#x10d;" horiz-adv-x="458" 
d="M128 251q0 -47 4.5 -78t17.5 -60.5t41.5 -44t71.5 -14.5q71 0 119 18q20 6 23 6q10 0 13 -12q8 -27 8 -32q0 -14 -16 -21q-62 -26 -150 -26q-105 0 -155 56.5t-50 197.5q0 142 52 206.5t176 64.5q70 0 115 -12q17 -4 17 -19q0 -19 -7 -38q-4 -11 -15 -11q-9 0 -24 3
q-38 9 -87 9q-40 0 -68.5 -10.5t-45 -26.5t-25.5 -42.5t-12 -52t-3 -61.5zM372 755h30q15 0 15 -12q0 -7 -8 -17l-95 -133q-12 -17 -27 -17h-42q-15 0 -25 15l-96 136q-6 10 -6 16q0 12 14 12h30q14 0 25 -12l82 -103l78 100q11 15 25 15z" />
    <glyph glyph-name="Dcaron" unicode="&#x10e;" horiz-adv-x="701" 
d="M177 71h105q106 0 154 22q69 32 96.5 99.5t27.5 168.5q0 97 -26 159.5t-89 91.5q-50 23 -164 23h-104v-564zM271 0h-150q-19 0 -19 21v664q0 21 18 21h158q117 0 181 -19q179 -52 179 -326q0 -131 -41 -215.5t-142 -121.5q-64 -24 -184 -24zM436 910h32q15 0 15 -13
q0 -8 -7 -15l-106 -102q-17 -17 -31 -17h-39q-9 0 -30 18l-106 102q-6 5 -6 14q0 13 18 13h31q12 0 30 -13l85 -68l83 67q18 14 31 14z" />
    <glyph glyph-name="dcaron" unicode="&#x10f;" horiz-adv-x="572" 
d="M481 20q0 -13 -4.5 -17.5t-15.5 -4.5h-26q-20 0 -21 13l-3 25q-48 -48 -160 -48q-96 0 -146.5 59t-50.5 191q0 153 57.5 213t185.5 60q78 0 112 -17v234q0 20 21 20h33q18 0 18 -20v-708zM409 120v304q-30 19 -111 19q-99 0 -135 -44.5t-36 -155.5q0 -99 32 -143.5
t110 -44.5q82 0 122 28q10 6 16 16q2 4 2 21zM618 743q19 0 19 -21q0 -107 -62 -176q-9 -11 -21 -11t-26 9q-10 7 -10 14t7 19q38 57 38 137q0 29 21 29h34z" />
    <glyph glyph-name="Dcroat" unicode="&#x110;" horiz-adv-x="701" 
d="M271 0h-150q-19 0 -19 21v315h-61q-18 0 -18 16v29q0 17 19 17h60v287q0 21 18 21h158q117 0 181 -19q179 -52 179 -326q0 -131 -41 -215.5t-142 -121.5q-64 -24 -184 -24zM177 71h105q106 0 154 22q69 32 96.5 99.5t27.5 168.5q0 97 -26 159.5t-89 91.5q-50 23 -164 23
h-104v-237h184q19 0 19 -17v-29q0 -16 -18 -16h-185v-265z" />
    <glyph glyph-name="dcroat" unicode="&#x111;" horiz-adv-x="572" 
d="M481 20q0 -13 -4.5 -17.5t-15.5 -4.5h-26q-20 0 -21 13l-3 25q-48 -48 -160 -48q-96 0 -146.5 59t-50.5 191q0 153 57.5 213t185.5 60q78 0 112 -17v92h-113q-18 0 -18 16v22q0 18 19 18h112v86q0 20 21 20h33q18 0 18 -20v-86h55q20 0 20 -18v-23q0 -15 -19 -15h-56
v-566zM409 120v304q-30 19 -111 19q-99 0 -135 -44.5t-36 -155.5q0 -99 32 -143.5t110 -44.5q82 0 122 28q10 6 16 16q2 4 2 21z" />
    <glyph glyph-name="Emacron" unicode="&#x112;" horiz-adv-x="557" 
d="M499 0h-377q-20 0 -20 21v663q0 22 18 22h365q20 0 20 -19v-33q0 -19 -20 -19h-308v-232h278q20 0 20 -20v-33q0 -18 -20 -18h-278v-261h322q21 0 21 -20v-33q0 -18 -21 -18zM438 793h-251q-18 0 -18 17v30q0 18 19 18h249q19 0 19 -18v-31q0 -16 -18 -16z" />
    <glyph glyph-name="emacron" unicode="&#x113;" horiz-adv-x="526" 
d="M127 226q1 -100 38.5 -136t120.5 -36q78 0 137 22q16 6 22 6q9 0 14 -10q9 -24 9 -35q0 -12 -16 -19q-66 -31 -172 -31q-125 0 -175.5 61t-50.5 200q0 138 57 201t171 63q50 0 86 -12.5t57 -32.5t33 -53t16 -67.5t4 -82.5q0 -24 -8 -32q-6 -6 -21 -6h-322zM127 289h279
q1 7 1 24q0 69 -27 102.5t-101 33.5q-83 0 -116.5 -40t-35.5 -120zM388 611h-231q-19 0 -19 16v33q0 18 19 18h230q19 0 19 -18v-33q0 -16 -18 -16z" />
    <glyph glyph-name="Ebreve" unicode="&#x114;" horiz-adv-x="557" 
d="M499 0h-377q-20 0 -20 21v663q0 22 18 22h365q20 0 20 -19v-33q0 -19 -20 -19h-308v-232h278q20 0 20 -20v-33q0 -18 -20 -18h-278v-261h322q21 0 21 -20v-33q0 -18 -21 -18zM440 905q16 0 16 -14q0 -18 -5 -37q-28 -95 -149 -95q-126 0 -147 100q-3 11 -3 30q0 16 17 16
h26q16 0 18 -14q5 -35 24.5 -51.5t65.5 -16.5q49 0 68 16.5t25 51.5q1 14 17 14h27z" />
    <glyph glyph-name="ebreve" unicode="&#x115;" horiz-adv-x="526" 
d="M127 226q1 -100 38.5 -136t120.5 -36q78 0 137 22q16 6 22 6q9 0 14 -10q9 -24 9 -35q0 -12 -16 -19q-66 -31 -172 -31q-125 0 -175.5 61t-50.5 200q0 138 57 201t171 63q50 0 86 -12.5t57 -32.5t33 -53t16 -67.5t4 -82.5q0 -24 -8 -32q-6 -6 -21 -6h-322zM127 289h279
q1 7 1 24q0 69 -27 102.5t-101 33.5q-83 0 -116.5 -40t-35.5 -120zM398 723q14 0 14 -15q0 -17 -4 -36q-24 -100 -141 -100q-116 0 -137 102q-3 12 -3 33q0 16 16 16h25q16 0 17 -15q5 -39 22.5 -57t60.5 -18q46 0 64 18.5t23 56.5q1 15 17 15h26z" />
    <glyph glyph-name="Edotaccent" unicode="&#x116;" horiz-adv-x="557" 
d="M499 0h-377q-20 0 -20 21v663q0 22 18 22h365q20 0 20 -19v-33q0 -19 -20 -19h-308v-232h278q20 0 20 -20v-33q0 -18 -20 -18h-278v-261h322q21 0 21 -20v-33q0 -18 -21 -18zM351 821q0 -48 -47 -48q-45 0 -45 47q0 50 45 50q47 0 47 -49z" />
    <glyph glyph-name="edotaccent" unicode="&#x117;" horiz-adv-x="526" 
d="M127 226q1 -100 38.5 -136t120.5 -36q78 0 137 22q16 6 22 6q9 0 14 -10q9 -24 9 -35q0 -12 -16 -19q-66 -31 -172 -31q-125 0 -175.5 61t-50.5 200q0 138 57 201t171 63q50 0 86 -12.5t57 -32.5t33 -53t16 -67.5t4 -82.5q0 -24 -8 -32q-6 -6 -21 -6h-322zM127 289h279
q1 7 1 24q0 69 -27 102.5t-101 33.5q-83 0 -116.5 -40t-35.5 -120zM319 662q0 -48 -46 -48t-46 47q0 50 46 50t46 -49z" />
    <glyph glyph-name="Eogonek" unicode="&#x118;" horiz-adv-x="557" 
d="M499 0h-17q-55 -38 -75.5 -63.5t-20.5 -64.5q0 -28 13.5 -39.5t42.5 -11.5q12 0 29 3t19 3q9 0 13 -11q5 -14 5 -28q0 -12 -14 -16q-24 -8 -63 -8q-113 0 -113 100q0 50 24.5 79t74.5 57h-295q-20 0 -20 21v663q0 22 18 22h365q20 0 20 -19v-33q0 -19 -20 -19h-308v-232
h278q20 0 20 -20v-33q0 -18 -20 -18h-278v-261h322q21 0 21 -20v-33q0 -18 -21 -18z" />
    <glyph glyph-name="eogonek" unicode="&#x119;" horiz-adv-x="526" 
d="M127 226q1 -100 38.5 -136t120.5 -36q78 0 137 22q16 6 22 6q9 0 14 -10q9 -24 9 -35q0 -12 -16 -19q-28 -14 -72 -22q-50 -33 -69 -57t-19 -60q0 -49 52 -49q12 0 28 2.5t18 2.5q10 0 13 -11q4 -18 4 -26q0 -11 -13 -15q-24 -8 -61 -8q-106 0 -106 96q0 73 70 116h-17
q-125 0 -175.5 61t-50.5 200q0 138 57 201t171 63q50 0 86 -12.5t57 -32.5t33 -53t16 -67.5t4 -82.5q0 -24 -8 -32q-6 -6 -21 -6h-322zM127 289h279q1 7 1 24q0 69 -27 102.5t-101 33.5q-83 0 -116.5 -40t-35.5 -120z" />
    <glyph glyph-name="Ecaron" unicode="&#x11a;" horiz-adv-x="557" 
d="M499 0h-377q-20 0 -20 21v663q0 22 18 22h365q20 0 20 -19v-33q0 -19 -20 -19h-308v-232h278q20 0 20 -20v-33q0 -18 -20 -18h-278v-261h322q21 0 21 -20v-33q0 -18 -21 -18zM419 910h32q15 0 15 -13q0 -8 -7 -15l-106 -102q-17 -17 -31 -17h-39q-9 0 -30 18l-106 102
q-6 5 -6 14q0 13 18 13h31q12 0 30 -13l85 -68l83 67q18 14 31 14z" />
    <glyph glyph-name="ecaron" unicode="&#x11b;" horiz-adv-x="526" 
d="M127 226q1 -100 38.5 -136t120.5 -36q78 0 137 22q16 6 22 6q9 0 14 -10q9 -24 9 -35q0 -12 -16 -19q-66 -31 -172 -31q-125 0 -175.5 61t-50.5 200q0 138 57 201t171 63q50 0 86 -12.5t57 -32.5t33 -53t16 -67.5t4 -82.5q0 -24 -8 -32q-6 -6 -21 -6h-322zM127 289h279
q1 7 1 24q0 69 -27 102.5t-101 33.5q-83 0 -116.5 -40t-35.5 -120zM378 755h30q15 0 15 -12q0 -7 -8 -17l-95 -133q-12 -17 -27 -17h-42q-15 0 -25 15l-96 136q-6 10 -6 16q0 12 14 12h30q14 0 25 -12l82 -103l78 100q11 15 25 15z" />
    <glyph glyph-name="Gcircumflex" unicode="&#x11c;" horiz-adv-x="669" 
d="M596 60q0 -16 -4 -23.5t-17 -12.5q-96 -37 -235 -37q-143 0 -210 79t-67 276q0 202 67 289.5t239 87.5q100 0 168 -17q24 -6 24 -21q0 -20 -8 -41q-4 -11 -16 -11q-10 0 -31 6q-58 14 -150 14q-69 0 -113.5 -22t-66 -65.5t-29 -90t-7.5 -114.5q0 -55 3 -93.5t15 -80.5
t33.5 -67.5t60 -42t93.5 -16.5q99 0 180 24v200h-158q-18 0 -18 17v39q0 17 18 17h207q22 0 22 -24v-270zM239 762h-32q-15 0 -15 13q0 8 7 15l106 102q17 17 31 17h39q11 0 28 -15l108 -105q6 -5 6 -14q0 -13 -18 -13h-31q-12 0 -30 13l-85 68l-83 -67q-18 -14 -31 -14z
" />
    <glyph glyph-name="gcircumflex" unicode="&#x11d;" horiz-adv-x="513" 
d="M113 12q-70 18 -70 102q0 74 67 102q-36 45 -36 122q0 174 195 174q52 0 91 -14h132q20 0 20 -20v-25q0 -18 -20 -18h-61q23 -39 23 -91q0 -179 -193 -179q-49 0 -77 10q-26 8 -32 8q-10 0 -24 -10q-18 -16 -18 -48q0 -41 28 -50q22 -7 151 -7q133 0 176 -27.5t43 -121.5
q0 -85 -54 -126t-190 -41q-67 0 -112.5 11t-68 33t-31 46.5t-8.5 58.5q0 80 69 111zM437 -82q0 46 -24.5 62.5t-109.5 18.5q-42 1 -91 1q-28 0 -43 -5q-58 -17 -58 -84q0 -49 35.5 -70.5t121.5 -21.5q101 0 135 23t34 76zM387 339q0 63 -29.5 85.5t-92.5 22.5
q-59 0 -90.5 -23t-31.5 -84q0 -68 30 -90.5t91 -22.5q59 0 91 24.5t32 87.5zM163 573h-30q-14 0 -14 12q0 5 7 16l95 133q11 17 28 17h42q13 0 24 -15l96 -136q7 -12 7 -15q0 -12 -15 -12h-30q-14 0 -25 13l-81 101l-78 -100q-12 -14 -26 -14z" />
    <glyph glyph-name="Gbreve" unicode="&#x11e;" horiz-adv-x="669" 
d="M596 60q0 -16 -4 -23.5t-17 -12.5q-96 -37 -235 -37q-143 0 -210 79t-67 276q0 202 67 289.5t239 87.5q100 0 168 -17q24 -6 24 -21q0 -20 -8 -41q-4 -11 -16 -11q-10 0 -31 6q-58 14 -150 14q-69 0 -113.5 -22t-66 -65.5t-29 -90t-7.5 -114.5q0 -55 3 -93.5t15 -80.5
t33.5 -67.5t60 -42t93.5 -16.5q99 0 180 24v200h-158q-18 0 -18 17v39q0 17 18 17h207q22 0 22 -24v-270zM486 905q16 0 16 -14q0 -18 -5 -37q-28 -95 -149 -95q-126 0 -147 100q-3 11 -3 30q0 16 17 16h26q16 0 18 -14q5 -35 24.5 -51.5t65.5 -16.5q49 0 68 16.5t25 51.5
q1 14 17 14h27z" />
    <glyph glyph-name="gbreve" unicode="&#x11f;" horiz-adv-x="513" 
d="M113 12q-70 18 -70 102q0 74 67 102q-36 45 -36 122q0 174 195 174q52 0 91 -14h132q20 0 20 -20v-25q0 -18 -20 -18h-61q23 -39 23 -91q0 -179 -193 -179q-49 0 -77 10q-26 8 -32 8q-10 0 -24 -10q-18 -16 -18 -48q0 -41 28 -50q22 -7 151 -7q133 0 176 -27.5t43 -121.5
q0 -85 -54 -126t-190 -41q-67 0 -112.5 11t-68 33t-31 46.5t-8.5 58.5q0 80 69 111zM437 -82q0 46 -24.5 62.5t-109.5 18.5q-42 1 -91 1q-28 0 -43 -5q-58 -17 -58 -84q0 -49 35.5 -70.5t121.5 -21.5q101 0 135 23t34 76zM387 339q0 63 -29.5 85.5t-92.5 22.5
q-59 0 -90.5 -23t-31.5 -84q0 -68 30 -90.5t91 -22.5q59 0 91 24.5t32 87.5zM392 723q14 0 14 -15q0 -17 -4 -36q-24 -100 -141 -100q-116 0 -137 102q-3 12 -3 33q0 16 16 16h25q16 0 17 -15q5 -39 22.5 -57t60.5 -18q46 0 64 18.5t23 56.5q1 15 17 15h26z" />
    <glyph glyph-name="Gdotaccent" unicode="&#x120;" horiz-adv-x="669" 
d="M596 60q0 -16 -4 -23.5t-17 -12.5q-96 -37 -235 -37q-143 0 -210 79t-67 276q0 202 67 289.5t239 87.5q100 0 168 -17q24 -6 24 -21q0 -20 -8 -41q-4 -11 -16 -11q-10 0 -31 6q-58 14 -150 14q-69 0 -113.5 -22t-66 -65.5t-29 -90t-7.5 -114.5q0 -55 3 -93.5t15 -80.5
t33.5 -67.5t60 -42t93.5 -16.5q99 0 180 24v200h-158q-18 0 -18 17v39q0 17 18 17h207q22 0 22 -24v-270zM410 821q0 -48 -47 -48q-45 0 -45 47q0 50 45 50q47 0 47 -49z" />
    <glyph glyph-name="gdotaccent" unicode="&#x121;" horiz-adv-x="513" 
d="M113 12q-70 18 -70 102q0 74 67 102q-36 45 -36 122q0 174 195 174q52 0 91 -14h132q20 0 20 -20v-25q0 -18 -20 -18h-61q23 -39 23 -91q0 -179 -193 -179q-49 0 -77 10q-26 8 -32 8q-10 0 -24 -10q-18 -16 -18 -48q0 -41 28 -50q22 -7 151 -7q133 0 176 -27.5t43 -121.5
q0 -85 -54 -126t-190 -41q-67 0 -112.5 11t-68 33t-31 46.5t-8.5 58.5q0 80 69 111zM437 -82q0 46 -24.5 62.5t-109.5 18.5q-42 1 -91 1q-28 0 -43 -5q-58 -17 -58 -84q0 -49 35.5 -70.5t121.5 -21.5q101 0 135 23t34 76zM387 339q0 63 -29.5 85.5t-92.5 22.5
q-59 0 -90.5 -23t-31.5 -84q0 -68 30 -90.5t91 -22.5q59 0 91 24.5t32 87.5zM311 662q0 -48 -46 -48t-46 47q0 50 46 50t46 -49z" />
    <glyph glyph-name="Gcommaaccent" unicode="&#x122;" horiz-adv-x="669" 
d="M596 60q0 -16 -4 -23.5t-17 -12.5q-96 -37 -235 -37q-143 0 -210 79t-67 276q0 202 67 289.5t239 87.5q100 0 168 -17q24 -6 24 -21q0 -20 -8 -41q-4 -11 -16 -11q-10 0 -31 6q-58 14 -150 14q-69 0 -113.5 -22t-66 -65.5t-29 -90t-7.5 -114.5q0 -55 3 -93.5t15 -80.5
t33.5 -67.5t60 -42t93.5 -16.5q99 0 180 24v200h-158q-18 0 -18 17v39q0 17 18 17h207q22 0 22 -24v-270zM381 -69q20 0 20 -22q0 -44 -15.5 -92t-47.5 -83q-10 -12 -21 -12t-25 9q-10 6 -10 15q0 6 7 18q38 57 38 138q0 29 22 29h32z" />
    <glyph glyph-name="gcommaaccent" unicode="&#x123;" horiz-adv-x="513" 
d="M113 12q-70 18 -70 102q0 74 67 102q-36 45 -36 122q0 174 195 174q52 0 91 -14h132q20 0 20 -20v-25q0 -18 -20 -18h-61q23 -39 23 -91q0 -179 -193 -179q-49 0 -77 10q-26 8 -32 8q-10 0 -24 -10q-18 -16 -18 -48q0 -41 28 -50q22 -7 151 -7q133 0 176 -27.5t43 -121.5
q0 -85 -54 -126t-190 -41q-67 0 -112.5 11t-68 33t-31 46.5t-8.5 58.5q0 80 69 111zM437 -82q0 46 -24.5 62.5t-109.5 18.5q-42 1 -91 1q-28 0 -43 -5q-58 -17 -58 -84q0 -49 35.5 -70.5t121.5 -21.5q101 0 135 23t34 76zM387 339q0 63 -29.5 85.5t-92.5 22.5
q-59 0 -90.5 -23t-31.5 -84q0 -68 30 -90.5t91 -22.5q59 0 91 24.5t32 87.5zM280 578h-28q-20 0 -20 21q0 107 63 174q13 11 20 11q10 0 21 -9q10 -8 10 -15q0 -9 -6 -17q-38 -59 -38 -136q0 -29 -22 -29z" />
    <glyph glyph-name="Hcircumflex" unicode="&#x124;" horiz-adv-x="706" 
d="M177 19q0 -21 -20 -21h-36q-19 0 -19 21v668q0 21 20 21h37q18 0 18 -21v-284h352v284q0 21 20 21h37q18 0 18 -21v-668q0 -21 -20 -21h-36q-19 0 -19 21v313h-352v-313zM237 762h-32q-15 0 -15 13q0 8 7 15l106 102q17 17 31 17h39q11 0 28 -15l108 -105q6 -5 6 -14
q0 -13 -18 -13h-31q-12 0 -30 13l-85 68l-83 -67q-18 -14 -31 -14z" />
    <glyph glyph-name="hcircumflex" unicode="&#x125;" horiz-adv-x="580" 
d="M162 18q0 -20 -19 -20h-34q-19 0 -19 20v711q0 22 19 22h35q18 0 18 -22v-264q23 22 77.5 33.5t105.5 11.5q65 0 96 -15t43 -47q9 -26 9 -98v-332q0 -20 -19 -20h-33q-19 0 -19 20v317q0 46 -7 67q-8 21 -27 30t-63 9q-90 0 -139 -20q-12 -4 -18 -13q-6 -8 -6 -25v-365z
M55 784h-32q-15 0 -15 13q0 8 7 15l106 102q17 17 31 17h39q11 0 28 -15l108 -105q6 -5 6 -14q0 -13 -18 -13h-31q-12 0 -30 13l-85 68l-83 -67q-18 -14 -31 -14z" />
    <glyph glyph-name="Hbar" unicode="&#x126;" horiz-adv-x="706" 
d="M177 19q0 -21 -20 -21h-36q-19 0 -19 21v472h-60q-18 0 -18 17v28q0 18 19 18h59v133q0 21 20 21h37q18 0 18 -21v-133h352v133q0 21 20 21h37q18 0 18 -21v-133h58q20 0 20 -18v-28q0 -17 -19 -17h-59v-472q0 -21 -20 -21h-36q-19 0 -19 21v313h-352v-313zM177 403h352
v88h-352v-88z" />
    <glyph glyph-name="hbar" unicode="&#x127;" horiz-adv-x="580" 
d="M162 18q0 -20 -19 -20h-34q-19 0 -19 20v568h-55q-18 0 -18 16v22q0 18 19 18h54v87q0 22 19 22h35q18 0 18 -22v-87h114q18 0 18 -18v-23q0 -15 -17 -15h-115v-121q23 22 77.5 33.5t105.5 11.5q65 0 96 -15t43 -47q9 -26 9 -98v-332q0 -20 -19 -20h-33q-19 0 -19 20v317
q0 46 -7 67q-8 21 -27 30t-63 9q-90 0 -139 -20q-12 -4 -18 -13q-6 -8 -6 -25v-365z" />
    <glyph glyph-name="Itilde" unicode="&#x128;" horiz-adv-x="279" 
d="M177 19q0 -21 -20 -21h-36q-19 0 -19 21v668q0 21 20 21h37q18 0 18 -21v-668zM8 771h-19q-16 0 -16 14q0 8 6 23q32 80 88 80q25 0 80 -29q43 -22 61 -22q26 0 43 38q7 18 22 18h19q16 0 16 -14q0 -11 -5 -23q-32 -86 -89 -86q-26 0 -79 27q-47 25 -66 25q-13 0 -21 -7
t-17 -28q-8 -16 -23 -16z" />
    <glyph glyph-name="itilde" unicode="&#x129;" horiz-adv-x="252" 
d="M2 598h-22q-15 0 -15 14q0 6 6 21q28 85 86 85q25 0 77 -29q38 -21 60 -21q12 0 19.5 6.5t16.5 30.5q7 18 22 18h22q15 0 15 -13q0 -5 -6 -25q-25 -87 -85 -87q-32 0 -80 26q-44 24 -57 24t-20.5 -6.5t-16.5 -27.5q-8 -16 -22 -16zM162 18q0 -20 -19 -20h-34
q-19 0 -19 20v460q0 22 19 22h35q18 0 18 -21v-461z" />
    <glyph glyph-name="Imacron" unicode="&#x12a;" horiz-adv-x="279" 
d="M177 19q0 -21 -20 -21h-36q-19 0 -19 21v668q0 21 20 21h37q18 0 18 -21v-668zM264 793h-251q-18 0 -18 17v30q0 18 19 18h249q19 0 19 -18v-31q0 -16 -18 -16z" />
    <glyph glyph-name="imacron" unicode="&#x12b;" horiz-adv-x="252" 
d="M241 611h-231q-19 0 -19 16v33q0 18 19 18h230q19 0 19 -18v-33q0 -16 -18 -16zM162 18q0 -20 -19 -20h-34q-19 0 -19 20v460q0 22 19 22h35q18 0 18 -21v-461z" />
    <glyph glyph-name="Ibreve" unicode="&#x12c;" horiz-adv-x="279" 
d="M177 19q0 -21 -20 -21h-36q-19 0 -19 21v668q0 21 20 21h37q18 0 18 -21v-668zM275 905q16 0 16 -14q0 -18 -5 -37q-28 -95 -149 -95q-126 0 -147 100q-3 11 -3 30q0 16 17 16h26q16 0 18 -14q5 -35 24.5 -51.5t65.5 -16.5q49 0 68 16.5t25 51.5q1 14 17 14h27z" />
    <glyph glyph-name="ibreve" unicode="&#x12d;" horiz-adv-x="252" 
d="M255 723q14 0 14 -15q0 -17 -4 -36q-24 -100 -141 -100q-116 0 -137 102q-3 12 -3 33q0 16 16 16h25q15 0 17 -15q5 -39 22.5 -57t60.5 -18q46 0 64 18.5t23 56.5q1 15 17 15h26zM162 18q0 -20 -19 -20h-34q-19 0 -19 20v460q0 22 19 22h35q18 0 18 -21v-461z" />
    <glyph glyph-name="Iogonek" unicode="&#x12e;" horiz-adv-x="279" 
d="M177 19q0 -20 -18 -21q-54 -37 -73.5 -62.5t-19.5 -63.5q0 -28 13.5 -39.5t42.5 -11.5q12 0 29 3t19 3q9 0 13 -11q5 -14 5 -28q0 -12 -14 -16q-24 -8 -63 -8q-113 0 -113 100q0 52 26 81t81 59q-3 6 -3 15v668q0 21 20 21h37q18 0 18 -21v-668z" />
    <glyph glyph-name="iogonek" unicode="&#x12f;" horiz-adv-x="252" 
d="M180 6q-60 -40 -81.5 -64.5t-21.5 -62.5q0 -49 52 -49q11 0 27 2.5t19 2.5q10 0 13 -11q4 -18 4 -26q0 -11 -13 -15q-24 -8 -61 -8q-106 0 -106 96q0 47 22 74.5t67 53.5q-11 1 -11 19v460q0 22 19 22h35q18 0 18 -21v-461q0 -6 -2 -12h20zM174 662q0 -50 -48 -50t-48 49
q0 51 48 51t48 -50z" />
    <glyph glyph-name="Idotaccent" unicode="&#x130;" horiz-adv-x="279" 
d="M177 19q0 -21 -20 -21h-36q-19 0 -19 21v668q0 21 20 21h37q18 0 18 -21v-668zM186 821q0 -48 -47 -48q-45 0 -45 47q0 50 45 50q47 0 47 -49z" />
    <glyph glyph-name="dotlessi" unicode="&#x131;" horiz-adv-x="252" 
d="M162 18q0 -20 -19 -20h-34q-19 0 -19 20v460q0 22 19 22h35q18 0 18 -21v-461z" />
    <glyph glyph-name="IJ" unicode="&#x132;" horiz-adv-x="587" 
d="M177 19q0 -21 -20 -21h-36q-19 0 -19 21v668q0 21 20 21h37q18 0 18 -21v-668zM485 687v-617q0 -53 -6.5 -82t-25.5 -50q-38 -41 -128 -41q-30 0 -44 3q-15 2 -15 16q0 17 3 35q3 17 19 17q2 0 17 -1t22 -1q47 0 65 18q17 17 17 97v606q0 21 21 21h36q19 0 19 -21z" />
    <glyph glyph-name="ij" unicode="&#x133;" horiz-adv-x="507" 
d="M162 18q0 -20 -19 -20h-34q-19 0 -19 20v460q0 22 19 22h35q18 0 18 -21v-461zM174 662q0 -50 -48 -50t-48 49q0 51 48 51t48 -50zM413 479v-558q0 -94 -34 -128q-41 -42 -144 -42q-27 0 -27 18q0 24 1 32q2 16 21 16q64 2 87 21q24 21 24 84v556q0 22 19 22h35
q18 0 18 -21zM425 662q0 -50 -48 -50t-48 49q0 51 48 51t48 -50z" />
    <glyph glyph-name="Jcircumflex" unicode="&#x134;" horiz-adv-x="308" 
d="M207 687v-617q0 -53 -6.5 -82t-25.5 -50q-38 -41 -128 -41q-30 0 -44 3q-15 2 -15 16q0 17 3 35q3 17 19 17q2 0 17 -1t22 -1q47 0 65 18q17 17 17 97v606q0 21 21 21h36q19 0 19 -21zM53 762h-32q-15 0 -15 13q0 8 7 15l106 102q17 17 31 17h39q11 0 28 -15l108 -105
q6 -5 6 -14q0 -13 -18 -13h-31q-12 0 -30 13l-85 68l-83 -67q-18 -14 -31 -14z" />
    <glyph glyph-name="jcircumflex" unicode="&#x135;" horiz-adv-x="255" 
d="M162 482v-561q0 -94 -34 -128q-41 -42 -144 -42q-27 0 -27 18q0 24 1 32q2 16 21 16q64 2 87 21q24 21 24 84v559q0 21 19 21h35q18 0 18 -20zM22 573h-25q-14 0 -14 12q0 7 7 16l95 133q11 17 28 17h31q16 0 24 -15l96 -136q7 -7 7 -15q0 -12 -15 -12h-24q-14 0 -25 13
l-81 101l-79 -100q-12 -14 -25 -14z" />
    <glyph glyph-name="Kcommaaccent" unicode="&#x136;" horiz-adv-x="589" 
d="M177 19q0 -21 -20 -21h-36q-19 0 -19 21v668q0 21 20 21h37q18 0 18 -21v-285h58q31 0 44 17l197 273q12 16 28 16h38q17 0 17 -13q0 -10 -10 -22l-223 -303l240 -332q12 -15 12 -25q0 -15 -19 -15h-41q-16 0 -27 16l-218 301q-11 17 -38 17h-58v-313zM342 -69
q20 0 20 -22q0 -44 -15.5 -92t-47.5 -83q-10 -12 -21 -12q-12 0 -25 9q-10 6 -10 15q0 6 7 18q38 57 38 138q0 29 22 29h32z" />
    <glyph glyph-name="kcommaaccent" unicode="&#x137;" horiz-adv-x="500" 
d="M162 18q0 -20 -19 -20h-34q-19 0 -19 20v701q0 22 19 22h35q18 0 18 -21v-411h56q32 0 45 18l120 157q13 16 29 16h37q16 0 16 -14q0 -9 -10 -21l-149 -184l177 -245q13 -17 13 -24q0 -14 -19 -14h-38q-16 0 -28 17l-151 211q-13 18 -39 18h-59v-226zM295 -69
q20 0 20 -22q0 -44 -15.5 -92t-47.5 -83q-10 -12 -21 -12q-12 0 -25 9q-10 6 -10 15q0 6 7 18q38 57 38 138q0 29 22 29h32z" />
    <glyph glyph-name="kgreenlandic" unicode="&#x138;" horiz-adv-x="500" 
d="M162 18q0 -20 -19 -20h-34q-19 0 -19 20v460q0 21 19 21h35q18 0 18 -21v-182h57q33 0 45 17l123 171q12 16 28 16h33q17 0 17 -14q0 -6 -10 -21q-117 -159 -148 -195q70 -86 178 -234q12 -14 12 -24q0 -14 -18 -14h-37q-16 0 -27 16l-156 202q-12 17 -38 17h-59v-215z
" />
    <glyph glyph-name="Lacute" unicode="&#x139;" horiz-adv-x="545" 
d="M497 0h-375q-20 0 -20 21v666q0 21 20 21h37q18 0 18 -21v-616h320q21 0 21 -20v-33q0 -18 -21 -18zM151 772q-13 -10 -30 -10h-38q-14 0 -14 12q0 9 10 17l134 107q14 13 31 13h58q15 0 15 -12t-11 -19z" />
    <glyph glyph-name="lacute" unicode="&#x13a;" horiz-adv-x="252" 
d="M162 18q0 -20 -19 -20h-34q-19 0 -19 20v709q0 21 20 21h34q18 0 18 -21v-709zM126 792q-13 -10 -30 -10h-38q-14 0 -14 12q0 10 10 17l134 107q14 13 31 13h58q15 0 15 -12t-11 -19z" />
    <glyph glyph-name="Lcommaaccent" unicode="&#x13b;" horiz-adv-x="545" 
d="M497 0h-375q-20 0 -20 21v666q0 21 20 21h37q18 0 18 -21v-616h320q21 0 21 -20v-33q0 -18 -21 -18zM321 -69q20 0 20 -22q0 -44 -15.5 -92t-47.5 -83q-10 -12 -21 -12t-25 9q-10 6 -10 15q0 6 7 18q38 57 38 138q0 29 22 29h32z" />
    <glyph glyph-name="lcommaaccent" unicode="&#x13c;" horiz-adv-x="252" 
d="M162 18q0 -20 -19 -20h-34q-19 0 -19 20v709q0 21 20 21h34q18 0 18 -21v-709zM145 -69q20 0 20 -22q0 -44 -15.5 -92t-47.5 -83q-10 -12 -21 -12t-25 9q-10 6 -10 15q0 6 7 18q38 57 38 138q0 29 22 29h32z" />
    <glyph glyph-name="Lcaron" unicode="&#x13d;" horiz-adv-x="545" 
d="M497 0h-375q-20 0 -20 21v666q0 21 20 21h37q18 0 18 -21v-616h320q21 0 21 -20v-33q0 -18 -21 -18zM367 723q19 0 19 -21q0 -107 -62 -176q-9 -11 -21 -11q-13 0 -26 9q-10 7 -10 14t7 19q38 57 38 137q0 29 21 29h34z" />
    <glyph glyph-name="lcaron" unicode="&#x13e;" horiz-adv-x="252" 
d="M162 18q0 -20 -19 -20h-34q-19 0 -19 20v709q0 21 20 21h34q18 0 18 -21v-709zM312 750q19 0 19 -21q0 -107 -62 -176q-9 -11 -21 -11t-26 9q-10 7 -10 14t7 19q38 57 38 137q0 29 21 29h34z" />
    <glyph glyph-name="Ldot" unicode="&#x13f;" horiz-adv-x="545" 
d="M497 0h-375q-20 0 -20 21v664q0 21 20 21h37q18 0 18 -21v-617h320q21 0 21 -19v-31q0 -18 -21 -18zM454 346q0 -54 -54 -54q-53 0 -53 54q0 55 54 55q53 0 53 -55z" />
    <glyph glyph-name="ldot" unicode="&#x140;" horiz-adv-x="352" 
d="M162 18q0 -20 -19 -20h-34q-19 0 -19 20v709q0 21 20 21h34q18 0 18 -21v-709zM351 346q0 -53 -50 -53q-51 0 -51 52q0 53 51 53q50 0 50 -52z" />
    <glyph glyph-name="Lslash" unicode="&#x141;" horiz-adv-x="545" 
d="M497 0h-375q-20 0 -20 21v228l-54 -37q-8 -5 -14 -5q-8 0 -15 12q-15 22 -15 29q0 8 9 15l89 62v362q0 21 20 21h37q18 0 18 -21v-310l146 102q6 5 13 5t16 -13q15 -21 15 -28q0 -10 -8 -15l-182 -127v-230h320q21 0 21 -20v-33q0 -18 -21 -18z" />
    <glyph glyph-name="lslash" unicode="&#x142;" horiz-adv-x="252" 
d="M162 18q0 -20 -19 -20h-34q-19 0 -19 20v277l-49 -32q-9 -6 -14 -6q-6 1 -15 13q-13 22 -13 27q0 7 10 13l81 54v363q0 21 20 21h34q18 0 18 -21v-315l48 32q8 6 13 6q8 0 17 -12q14 -21 14 -26q0 -7 -10 -14l-82 -55v-325z" />
    <glyph glyph-name="Nacute" unicode="&#x143;" horiz-adv-x="707" 
d="M175 19q0 -21 -20 -21h-34q-19 0 -19 21v668q0 21 20 21h33q14 0 22 -12q256 -390 356 -555q-1 78 -1 545q0 22 21 22h34q19 0 19 -21v-668q0 -21 -21 -21h-27q-18 0 -29 17q-305 468 -355 557q1 -91 1 -553zM358 772q-12 -10 -30 -10h-38q-14 0 -14 12q0 9 10 17
l134 107q14 13 31 13h58q15 0 15 -12t-11 -19z" />
    <glyph glyph-name="nacute" unicode="&#x144;" horiz-adv-x="580" 
d="M162 18q0 -20 -19 -20h-34q-19 0 -19 20v463q0 21 22 21h29q10 0 14 -4.5t5 -16.5l2 -20q23 25 77 37t106 12q65 0 96 -15t43 -47q9 -26 9 -98v-332q0 -20 -19 -20h-33q-19 0 -19 20v317q0 50 -7 68q-7 20 -26.5 29t-63.5 9q-89 0 -139 -25q-13 -7 -18 -14q-6 -8 -6 -25
v-359zM310 592q-11 -12 -26 -12h-36q-13 0 -13 13q0 7 6 15l105 130q10 13 25 13h54q14 0 14 -12q0 -9 -8 -17z" />
    <glyph glyph-name="Ncommaaccent" unicode="&#x145;" horiz-adv-x="707" 
d="M175 19q0 -21 -20 -21h-34q-19 0 -19 21v668q0 21 20 21h33q14 0 22 -12q256 -390 356 -555q-1 78 -1 545q0 22 21 22h34q19 0 19 -21v-668q0 -21 -21 -21h-27q-18 0 -29 17q-305 468 -355 557q1 -91 1 -553zM373 -69q20 0 20 -22q0 -44 -15.5 -92t-47.5 -83
q-10 -12 -21 -12t-25 9q-10 6 -10 15q0 6 7 18q38 57 38 138q0 29 22 29h32z" />
    <glyph glyph-name="ncommaaccent" unicode="&#x146;" horiz-adv-x="580" 
d="M162 18q0 -20 -19 -20h-34q-19 0 -19 20v463q0 21 22 21h29q10 0 14 -4.5t5 -16.5l2 -20q23 25 77 37t106 12q65 0 96 -15t43 -47q9 -26 9 -98v-332q0 -20 -19 -20h-33q-19 0 -19 20v317q0 50 -7 68q-7 20 -26.5 29t-63.5 9q-89 0 -139 -25q-13 -7 -18 -14q-6 -8 -6 -25
v-359zM313 -69q20 0 20 -22q0 -44 -15.5 -92t-47.5 -83q-10 -12 -21 -12q-12 0 -25 9q-10 6 -10 15q0 6 7 18q38 57 38 138q0 29 22 29h32z" />
    <glyph glyph-name="Ncaron" unicode="&#x147;" horiz-adv-x="707" 
d="M175 19q0 -21 -20 -21h-34q-19 0 -19 21v668q0 21 20 21h33q14 0 22 -12q256 -390 356 -555q-1 78 -1 545q0 22 21 22h34q19 0 19 -21v-668q0 -21 -21 -21h-27q-18 0 -29 17q-305 468 -355 557q1 -91 1 -553zM471 910h32q15 0 15 -13q0 -8 -7 -15l-106 -102
q-17 -17 -31 -17h-39q-9 0 -30 18l-106 102q-6 5 -6 14q0 13 18 13h31q12 0 30 -13l85 -68l83 67q18 14 31 14z" />
    <glyph glyph-name="ncaron" unicode="&#x148;" horiz-adv-x="580" 
d="M162 18q0 -20 -19 -20h-34q-19 0 -19 20v463q0 21 22 21h29q10 0 14 -4.5t5 -16.5l2 -20q23 25 77 37t106 12q65 0 96 -15t43 -47q9 -26 9 -98v-332q0 -20 -19 -20h-33q-19 0 -19 20v317q0 50 -7 68q-7 20 -26.5 29t-63.5 9q-89 0 -139 -25q-13 -7 -18 -14q-6 -8 -6 -25
v-359zM392 755h30q15 0 15 -12q0 -7 -8 -17l-95 -133q-12 -17 -27 -17h-42q-15 0 -25 15l-96 136q-6 10 -6 16q0 12 14 12h30q14 0 25 -12l82 -103l78 100q11 15 25 15z" />
    <glyph glyph-name="napostrophe" unicode="&#x149;" horiz-adv-x="580" 
d="M162 18q0 -20 -19 -20h-34q-19 0 -19 20v463q0 21 22 21h29q10 0 14 -4.5t5 -16.5l2 -20q23 25 77 37t106 12q65 0 96 -15t43 -47q9 -26 9 -98v-332q0 -20 -19 -20h-33q-19 0 -19 20v317q0 50 -7 68q-7 20 -26.5 29t-63.5 9q-89 0 -139 -25q-13 -7 -18 -14q-6 -8 -6 -25
v-359zM144 776q20 0 20 -22q0 -44 -15.5 -92t-47.5 -83q-10 -12 -21 -12q-12 0 -25 9q-10 6 -10 15q0 6 7 18q38 57 38 138q0 29 22 29h32z" />
    <glyph glyph-name="Eng" unicode="&#x14a;" horiz-adv-x="707" 
d="M175 21q0 -21 -20 -21h-34q-19 0 -19 21v664q0 21 20 21h33q15 0 22 -13q297 -450 356 -547q-1 78 -1 538q0 22 21 22h34q19 0 19 -21v-732q0 -100 -32 -134q-35 -39 -128 -39q-30 0 -43 3q-16 2 -16 17q0 14 2 34q3 17 19 17q2 0 17 -1t23 -1q47 0 65 18q12 11 14.5 29
t2.5 61v61q-332 505 -356 547q1 -91 1 -544z" />
    <glyph glyph-name="eng" unicode="&#x14b;" horiz-adv-x="580" 
d="M162 18q0 -20 -19 -20h-34q-19 0 -19 20v461q0 21 22 21h29q10 0 14 -4.5t5 -16.5l2 -18q23 25 77 37t106 12q65 0 96 -15t43 -47q9 -26 9 -98v-388q0 -93 -36 -129q-33 -34 -109 -34q-31 0 -46 3q-16 2 -16 15q0 12 2 30q2 15 19 15q4 0 19 -1t23 -1q35 0 51 15
q22 18 22 91v372q0 51 -7 68q-7 20 -26.5 29t-63.5 9q-93 0 -139 -24q-13 -4 -18 -14q-6 -6 -6 -25v-363z" />
    <glyph glyph-name="Omacron" unicode="&#x14c;" horiz-adv-x="697" 
d="M634 358q0 -145 -32.5 -227t-93 -113t-163.5 -31q-100 0 -159 30.5t-91 112.5t-32 227q0 109 21 182.5t62 111.5t90 53t117 15q61 0 102.5 -8t77.5 -30.5t57 -62.5t32.5 -104t11.5 -156zM556 356q0 76 -7.5 127t-21.5 84.5t-40.5 51t-57.5 24t-79 6.5q-54 0 -90 -11.5
t-65 -43t-42 -90t-13 -147.5q0 -95 12.5 -155t40.5 -91.5t63 -42.5t90 -11q43 0 73 6t57.5 24t44 50.5t26 87t9.5 131.5zM478 793h-251q-18 0 -18 17v30q0 18 19 18h249q19 0 19 -18v-31q0 -16 -18 -16z" />
    <glyph glyph-name="omacron" unicode="&#x14d;" horiz-adv-x="556" 
d="M502 253q0 -79 -13.5 -131.5t-43 -82t-70 -41t-99.5 -11.5q-58 0 -97 11.5t-68.5 40t-43 80.5t-13.5 131t17 132.5t49.5 81t70.5 38t91 10.5q59 0 96 -9t67.5 -36t43.5 -79t13 -135zM430 249q0 83 -14.5 124.5t-45 56t-90.5 14.5q-81 0 -117 -39t-36 -152
q0 -64 8.5 -103.5t29 -60.5t45.5 -28t67 -7q41 0 66 6t46.5 25.5t31 59.5t9.5 104zM400 611h-231q-19 0 -19 16v33q0 18 19 18h230q19 0 19 -18v-33q0 -16 -18 -16z" />
    <glyph glyph-name="Obreve" unicode="&#x14e;" horiz-adv-x="697" 
d="M634 358q0 -145 -32.5 -227t-93 -113t-163.5 -31q-100 0 -159 30.5t-91 112.5t-32 227q0 109 21 182.5t62 111.5t90 53t117 15q61 0 102.5 -8t77.5 -30.5t57 -62.5t32.5 -104t11.5 -156zM556 356q0 76 -7.5 127t-21.5 84.5t-40.5 51t-57.5 24t-79 6.5q-54 0 -90 -11.5
t-65 -43t-42 -90t-13 -147.5q0 -95 12.5 -155t40.5 -91.5t63 -42.5t90 -11q43 0 73 6t57.5 24t44 50.5t26 87t9.5 131.5zM488 905q16 0 16 -14q0 -18 -5 -37q-28 -95 -149 -95q-126 0 -147 100q-3 11 -3 30q0 16 17 16h26q16 0 18 -14q5 -35 24.5 -51.5t65.5 -16.5
q49 0 68 16.5t25 51.5q1 14 17 14h27z" />
    <glyph glyph-name="obreve" unicode="&#x14f;" horiz-adv-x="556" 
d="M502 253q0 -79 -13.5 -131.5t-43 -82t-70 -41t-99.5 -11.5q-58 0 -97 11.5t-68.5 40t-43 80.5t-13.5 131t17 132.5t49.5 81t70.5 38t91 10.5q59 0 96 -9t67.5 -36t43.5 -79t13 -135zM430 249q0 83 -14.5 124.5t-45 56t-90.5 14.5q-81 0 -117 -39t-36 -152
q0 -64 8.5 -103.5t29 -60.5t45.5 -28t67 -7q41 0 66 6t46.5 25.5t31 59.5t9.5 104zM408 723q14 0 14 -15q0 -17 -4 -36q-24 -100 -141 -100q-116 0 -137 102q-3 12 -3 33q0 16 16 16h25q16 0 17 -15q5 -39 22.5 -57t60.5 -18q46 0 64 18.5t23 56.5q1 15 17 15h26z" />
    <glyph glyph-name="Ohungarumlaut" unicode="&#x150;" horiz-adv-x="697" 
d="M634 358q0 -145 -32.5 -227t-93 -113t-163.5 -31q-100 0 -159 30.5t-91 112.5t-32 227q0 109 21 182.5t62 111.5t90 53t117 15q61 0 102.5 -8t77.5 -30.5t57 -62.5t32.5 -104t11.5 -156zM556 356q0 76 -7.5 127t-21.5 84.5t-40.5 51t-57.5 24t-79 6.5q-54 0 -90 -11.5
t-65 -43t-42 -90t-13 -147.5q0 -95 12.5 -155t40.5 -91.5t63 -42.5t90 -11q43 0 73 6t57.5 24t44 50.5t26 87t9.5 131.5zM281 772q-14 -10 -31 -10h-34q-13 0 -13 12q0 9 9 17l127 107q14 13 31 13h49q16 0 16 -13q0 -10 -12 -18zM467 772q-14 -10 -32 -10h-33q-14 0 -14 12
q0 9 9 17l128 107q16 13 30 13h50q16 0 16 -13q0 -10 -12 -18z" />
    <glyph glyph-name="ohungarumlaut" unicode="&#x151;" horiz-adv-x="556" 
d="M502 253q0 -79 -13.5 -131.5t-43 -82t-70 -41t-99.5 -11.5q-58 0 -97 11.5t-68.5 40t-43 80.5t-13.5 131t17 132.5t49.5 81t70.5 38t91 10.5q59 0 96 -9t67.5 -36t43.5 -79t13 -135zM430 249q0 83 -14.5 124.5t-45 56t-90.5 14.5q-81 0 -117 -39t-36 -152
q0 -64 8.5 -103.5t29 -60.5t45.5 -28t67 -7q41 0 66 6t46.5 25.5t31 59.5t9.5 104zM225 592q-11 -12 -26 -12h-31q-13 0 -13 12q0 9 5 15l99 131q9 13 25 13h44q15 0 15 -12q0 -9 -9 -18zM380 592q-12 -12 -26 -12h-30q-14 0 -14 12q0 8 6 15l98 131q10 13 25 13h44
q15 0 15 -12q0 -9 -9 -18z" />
    <glyph glyph-name="OE" unicode="&#x152;" horiz-adv-x="964" 
d="M907 0h-387q-88 -11 -156 -11q-167 0 -234 79.5t-67 282.5q0 201 75.5 282.5t231.5 81.5q84 0 145 -9h376q21 0 21 -19v-33q0 -19 -21 -19h-307v-232h278q20 0 20 -20v-33q0 -18 -20 -18h-278v-261h323q20 0 20 -20v-33q0 -18 -20 -18zM509 71v566q-42 8 -146 8
q-56 0 -94 -11.5t-69 -42t-45.5 -90t-14.5 -149.5q0 -118 25 -182.5t70 -87.5t124 -23q84 0 150 12z" />
    <glyph glyph-name="oe" unicode="&#x153;" horiz-adv-x="901" 
d="M501 228q1 -103 39.5 -138.5t121.5 -35.5q70 0 134 22q14 6 23 6q8 0 13 -10q9 -18 9 -33t-15 -21q-68 -31 -169 -31q-153 0 -194 100q-21 -54 -66.5 -77t-120.5 -23q-58 0 -97 11.5t-68.5 40t-43 80.5t-13.5 131t17 132.5t49.5 81t70.5 38t91 10.5q78 0 123 -21t65 -78
q46 99 188 99q61 0 101 -17t59.5 -53t26.5 -76.5t7 -101.5q0 -24 -8 -31q-5 -5 -20 -5h-323zM431 248q0 85 -15 127t-45 55.5t-91 13.5q-54 0 -85 -13.5t-49.5 -56t-18.5 -121.5q0 -85 17.5 -129t47 -57t85.5 -13q40 0 64 5.5t47 24t33 59t10 105.5zM502 289h280q1 7 1 24
q0 69 -27.5 102.5t-101.5 33.5q-82 0 -116 -41t-36 -119z" />
    <glyph glyph-name="Racute" unicode="&#x154;" horiz-adv-x="623" 
d="M177 19q0 -21 -21 -21h-35q-19 0 -19 21v665q0 22 21 22h148q125 0 178 -21q55 -22 78 -64.5t23 -108.5q0 -152 -133 -190l-9 -3l166 -280q8 -16 8 -26q0 -15 -17 -15h-39q-17 0 -29 22l-167 289q-17 -1 -54 -1h-99v-289zM177 375h105q86 0 125 16q65 26 65 116
q0 53 -16 77t-48 38t-132 14h-99v-261zM299 772q-12 -10 -30 -10h-38q-14 0 -14 12q0 9 10 17l134 107q14 13 31 13h58q15 0 15 -12t-11 -19z" />
    <glyph glyph-name="racute" unicode="&#x155;" horiz-adv-x="360" 
d="M162 18q0 -20 -19 -20h-34q-19 0 -19 20v463q0 21 22 21h30q10 0 13.5 -4t4.5 -16l2 -21q18 22 58 35.5t84 13.5q22 0 33 -3q13 -4 13 -18q0 -24 -4 -39q-2 -11 -16 -11q-4 0 -18.5 1t-20.5 1q-63 0 -105 -22q-16 -8 -20 -15q-4 -8 -4 -22v-364zM226 592q-11 -12 -26 -12
h-36q-13 0 -13 13q0 7 6 15l105 130q10 13 25 13h54q14 0 14 -12q0 -9 -8 -17z" />
    <glyph glyph-name="Rcommaaccent" unicode="&#x156;" horiz-adv-x="623" 
d="M177 19q0 -21 -21 -21h-35q-19 0 -19 21v665q0 22 21 22h148q125 0 178 -21q55 -22 78 -64.5t23 -108.5q0 -152 -133 -190l-9 -3l166 -280q8 -16 8 -26q0 -15 -17 -15h-39q-17 0 -29 22l-167 289q-17 -1 -54 -1h-99v-289zM177 375h105q86 0 125 16q65 26 65 116
q0 53 -16 77t-48 38t-132 14h-99v-261zM336 -69q20 0 20 -22q0 -44 -15.5 -92t-47.5 -83q-10 -12 -21 -12q-12 0 -25 9q-10 6 -10 15q0 6 7 18q38 57 38 138q0 29 22 29h32z" />
    <glyph glyph-name="rcommaaccent" unicode="&#x157;" horiz-adv-x="360" 
d="M162 18q0 -20 -19 -20h-34q-19 0 -19 20v463q0 21 22 21h30q10 0 13.5 -4t4.5 -16l2 -21q18 22 58 35.5t84 13.5q22 0 33 -3q13 -4 13 -18q0 -24 -4 -39q-2 -11 -16 -11q-4 0 -18.5 1t-20.5 1q-63 0 -105 -22q-16 -8 -20 -15q-4 -8 -4 -22v-364zM148 -69q20 0 20 -22
q0 -44 -15.5 -92t-47.5 -83q-10 -12 -21 -12q-12 0 -25 9q-10 6 -10 15q0 6 7 18q38 57 38 138q0 29 22 29h32z" />
    <glyph glyph-name="Rcaron" unicode="&#x158;" horiz-adv-x="623" 
d="M177 19q0 -21 -21 -21h-35q-19 0 -19 21v665q0 22 21 22h148q125 0 178 -21q55 -22 78 -64.5t23 -108.5q0 -152 -133 -190l-9 -3l166 -280q8 -16 8 -26q0 -15 -17 -15h-39q-17 0 -29 22l-167 289q-17 -1 -54 -1h-99v-289zM177 375h105q86 0 125 16q65 26 65 116
q0 53 -16 77t-48 38t-132 14h-99v-261zM411 910h32q15 0 15 -13q0 -8 -7 -15l-106 -102q-17 -17 -31 -17h-39q-9 0 -30 18l-106 102q-6 5 -6 14q0 13 18 13h31q12 0 30 -13l85 -68l83 67q18 14 31 14z" />
    <glyph glyph-name="rcaron" unicode="&#x159;" horiz-adv-x="360" 
d="M162 18q0 -20 -19 -20h-34q-19 0 -19 20v463q0 21 22 21h30q10 0 13.5 -4t4.5 -16l2 -21q18 22 58 35.5t84 13.5q22 0 33 -3q13 -4 13 -18q0 -24 -4 -39q-2 -11 -16 -11q-4 0 -18.5 1t-20.5 1q-63 0 -105 -22q-16 -8 -20 -15q-4 -8 -4 -22v-364zM315 755h30q15 0 15 -12
q0 -7 -8 -17l-95 -133q-12 -17 -27 -17h-42q-15 0 -25 15l-96 136q-6 10 -6 16q0 12 14 12h30q14 0 25 -12l82 -103l78 100q11 15 25 15z" />
    <glyph glyph-name="Sacute" unicode="&#x15a;" horiz-adv-x="563" 
d="M347 375q91 -27 126.5 -65t35.5 -116q0 -100 -57 -153.5t-189 -53.5q-113 0 -195 34q-20 8 -20 21q0 12 9 37q5 16 22 16q8 0 27 -7q74 -30 159 -30q55 0 91 11.5t51 32.5t20 39.5t5 44.5q0 43 -25.5 71.5t-110.5 51.5l-95 26q-70 19 -106 66.5t-36 116.5q0 98 57 149.5
t184 51.5q90 0 164 -23q18 -6 18 -22q0 -10 -7 -34q-4 -14 -18 -14q-3 0 -26 5q-72 18 -137 18q-91 0 -124.5 -31.5t-33.5 -92.5q0 -47 24.5 -75t99.5 -50zM278 772q-13 -10 -30 -10h-38q-14 0 -14 12q0 9 10 17l134 107q14 13 31 13h58q15 0 15 -12t-11 -19z" />
    <glyph glyph-name="sacute" unicode="&#x15b;" horiz-adv-x="439" 
d="M279 272q63 -15 93 -46t30 -91q0 -148 -191 -148q-100 0 -158 24q-15 6 -15 19q0 11 10 37q5 13 17 13q5 0 20 -5q61 -21 127 -21q72 0 96 20.5t24 56.5q0 30 -17 46.5t-76 31.5l-80 19q-112 28 -112 135q0 148 188 148q76 0 129 -14q18 -5 18 -20q0 -11 -7 -39
q-3 -12 -15 -12l-18 3q-57 14 -109 14q-67 0 -91 -18.5t-24 -56.5q0 -31 17 -47.5t73 -30.5zM232 592q-11 -12 -26 -12h-36q-13 0 -13 13q0 7 6 15l105 130q10 13 25 13h54q14 0 14 -12q0 -9 -8 -17z" />
    <glyph glyph-name="Scircumflex" unicode="&#x15c;" horiz-adv-x="563" 
d="M347 375q91 -27 126.5 -65t35.5 -116q0 -100 -57 -153.5t-189 -53.5q-113 0 -195 34q-20 8 -20 21q0 12 9 37q5 16 22 16q8 0 27 -7q74 -30 159 -30q55 0 91 11.5t51 32.5t20 39.5t5 44.5q0 43 -25.5 71.5t-110.5 51.5l-95 26q-70 19 -106 66.5t-36 116.5q0 98 57 149.5
t184 51.5q90 0 164 -23q18 -6 18 -22q0 -10 -7 -34q-4 -14 -18 -14q-3 0 -26 5q-72 18 -137 18q-91 0 -124.5 -31.5t-33.5 -92.5q0 -47 24.5 -75t99.5 -50zM169 762h-32q-15 0 -15 13q0 8 7 15l106 102q17 17 31 17h39q11 0 28 -15l108 -105q6 -5 6 -14q0 -13 -18 -13h-31
q-12 0 -30 13l-85 68l-83 -67q-18 -14 -31 -14z" />
    <glyph glyph-name="scircumflex" unicode="&#x15d;" horiz-adv-x="439" 
d="M279 272q63 -15 93 -46t30 -91q0 -148 -191 -148q-100 0 -158 24q-15 6 -15 19q0 11 10 37q5 13 17 13q5 0 20 -5q61 -21 127 -21q72 0 96 20.5t24 56.5q0 30 -17 46.5t-76 31.5l-80 19q-112 28 -112 135q0 148 188 148q76 0 129 -14q18 -5 18 -20q0 -11 -7 -39
q-3 -12 -15 -12l-18 3q-57 14 -109 14q-67 0 -91 -18.5t-24 -56.5q0 -31 17 -47.5t73 -30.5zM120 573h-30q-14 0 -14 12q0 5 7 16l95 133q11 17 28 17h42q13 0 24 -15l96 -136q7 -12 7 -15q0 -12 -15 -12h-30q-14 0 -25 13l-81 101l-78 -100q-12 -14 -26 -14z" />
    <glyph glyph-name="Scedilla" unicode="&#x15e;" horiz-adv-x="563" 
d="M264 -61q61 -1 81.5 -24.5t20.5 -65.5q0 -98 -130 -98q-26 0 -52 6q-15 3 -15 18q0 10 5 25q3 13 17 13q2 0 5 -0.5t7 -1.5t6 -1q22 -4 32 -4q30 0 42 9t12 29q0 21 -11 30t-37 9q-5 0 -14 -0.5t-10 -0.5q-19 0 -19 18q0 11 4 29l11 59q-86 6 -151 33q-20 8 -20 21
q0 12 9 37q5 16 22 16q8 0 27 -7q74 -30 159 -30q55 0 91 11.5t51 32.5t20 39.5t5 44.5q0 43 -25.5 71.5t-110.5 51.5l-95 26q-70 19 -106 66.5t-36 116.5q0 98 57 149.5t184 51.5q90 0 164 -23q18 -6 18 -22q0 -10 -7 -34q-4 -14 -18 -14q-3 0 -26 5q-72 18 -137 18
q-91 0 -124.5 -31.5t-33.5 -92.5q0 -47 24.5 -75t99.5 -50l87 -25q91 -27 126.5 -65t35.5 -116q0 -98 -55 -151.5t-182 -55.5z" />
    <glyph glyph-name="scedilla" unicode="&#x15f;" horiz-adv-x="439" 
d="M215 -61q57 -1 76 -23.5t19 -63.5q0 -91 -120 -91q-35 0 -49 5q-13 4 -13 16q0 14 3 24q4 13 17 13q1 0 15 -2q18 -4 31 -4q28 0 39 9t11 28q0 21 -10 30t-34 9q-3 0 -12.5 -0.5t-11.5 -0.5q-17 0 -17 17q0 4 1.5 14.5t1.5 14.5l10 54q-77 5 -119 23q-15 6 -15 19
q0 11 10 37q5 13 17 13q5 0 20 -5q61 -21 127 -21q72 0 96 20.5t24 56.5q0 30 -17 46.5t-76 31.5l-80 19q-112 28 -112 135q0 148 188 148q76 0 129 -14q18 -5 18 -20q0 -11 -7 -39q-3 -12 -15 -12l-18 3q-57 14 -109 14q-67 0 -91 -18.5t-24 -56.5q0 -31 17 -47.5t73 -30.5
l71 -18q63 -15 93 -46t30 -91q0 -144 -179 -148z" />
    <glyph glyph-name="Scaron" unicode="&#x160;" horiz-adv-x="563" 
d="M347 375q91 -27 126.5 -65t35.5 -116q0 -100 -57 -153.5t-189 -53.5q-113 0 -195 34q-20 8 -20 21q0 12 9 37q5 16 22 16q8 0 27 -7q74 -30 159 -30q55 0 91 11.5t51 32.5t20 39.5t5 44.5q0 43 -25.5 71.5t-110.5 51.5l-95 26q-70 19 -106 66.5t-36 116.5q0 98 57 149.5
t184 51.5q90 0 164 -23q18 -6 18 -22q0 -10 -7 -34q-4 -14 -18 -14q-3 0 -26 5q-72 18 -137 18q-91 0 -124.5 -31.5t-33.5 -92.5q0 -47 24.5 -75t99.5 -50zM399 910h32q15 0 15 -13q0 -8 -7 -15l-106 -102q-17 -17 -31 -17h-39q-9 0 -30 18l-106 102q-6 5 -6 14q0 13 18 13
h31q12 0 30 -13l85 -68l83 67q18 14 31 14z" />
    <glyph glyph-name="scaron" unicode="&#x161;" horiz-adv-x="439" 
d="M279 272q63 -15 93 -46t30 -91q0 -148 -191 -148q-100 0 -158 24q-15 6 -15 19q0 11 10 37q5 13 17 13q5 0 20 -5q61 -21 127 -21q72 0 96 20.5t24 56.5q0 30 -17 46.5t-76 31.5l-80 19q-112 28 -112 135q0 148 188 148q76 0 129 -14q18 -5 18 -20q0 -11 -7 -39
q-3 -12 -15 -12l-18 3q-57 14 -109 14q-67 0 -91 -18.5t-24 -56.5q0 -31 17 -47.5t73 -30.5zM330 755h30q15 0 15 -12q0 -7 -8 -17l-95 -133q-12 -17 -27 -17h-42q-15 0 -25 15l-96 136q-6 10 -6 16q0 12 14 12h30q14 0 25 -12l82 -103l78 100q11 15 25 15z" />
    <glyph glyph-name="uni0162" unicode="&#x162;" horiz-adv-x="574" 
d="M294 -61q61 -1 81.5 -24.5t20.5 -65.5q0 -98 -130 -98q-26 0 -52 6q-15 3 -15 18q0 10 5 25q3 13 17 13q2 0 5 -0.5t7 -1.5t6 -1q22 -4 32 -4q30 0 42 9t12 29q0 21 -11 30t-37 9q-5 0 -14 -0.5t-10 -0.5q-19 0 -19 18q0 11 4 29l13 71q-8 5 -8 19v617h-202q-20 0 -20 18
v33q0 19 20 19h480q21 0 21 -19v-33q0 -18 -21 -18h-202v-617q0 -18 -15 -20z" />
    <glyph glyph-name="uni0163" unicode="&#x163;" horiz-adv-x="310" 
d="M194 -61q57 -1 76 -23.5t19 -63.5q0 -91 -120 -91q-35 0 -49 5q-13 4 -13 16q0 14 3 24q4 13 17 13q1 0 15 -2q18 -4 31 -4q28 0 39 9t11 28q0 21 -10 30t-34 9q-3 0 -12.5 -0.5t-11.5 -0.5q-17 0 -17 17q0 4 1.5 14.5t1.5 14.5l12 65q-21 8 -30 22q-21 27 -21 105v304
h-57q-17 0 -17 18v30q0 20 20 20h55q0 34 3 114q0 22 17 22h33q16 0 16 -22v-114h97q19 0 19 -17v-33q0 -18 -19 -18h-96v-287q0 -49 11 -69q9 -20 49 -20q14 0 33 2.5t21 2.5q11 0 14 -12q0 -2 1.5 -9.5t2 -13.5t0.5 -9q0 -14 -17 -19q-32 -9 -78 -9h-8z" />
    <glyph glyph-name="Tcaron" unicode="&#x164;" horiz-adv-x="574" 
d="M319 19q0 -21 -20 -21h-36q-20 0 -20 21v617h-202q-20 0 -20 18v33q0 19 20 19h480q21 0 21 -19v-33q0 -18 -21 -18h-202v-617zM395 910h32q15 0 15 -13q0 -8 -7 -15l-106 -102q-17 -17 -31 -17h-39q-9 0 -30 18l-106 102q-6 5 -6 14q0 13 18 13h31q12 0 30 -13l85 -68
l83 67q18 14 31 14z" />
    <glyph glyph-name="tcaron" unicode="&#x165;" horiz-adv-x="310" 
d="M173 430v-287q0 -49 11 -69q9 -20 49 -20q14 0 33 2.5t21 2.5q11 0 14 -12q0 -2 1.5 -9.5t2 -13.5t0.5 -9q0 -14 -17 -19q-32 -9 -78 -9q-62 0 -87 34q-21 27 -21 105v304h-57q-17 0 -17 18v30q0 20 20 20h55q0 34 3 114q0 22 17 22h33q16 0 16 -22v-114h97q19 0 19 -17
v-33q0 -18 -19 -18h-96zM325 755q19 0 19 -21q0 -107 -62 -176q-9 -11 -21 -11q-13 0 -26 9q-10 7 -10 14t7 19q38 57 38 137q0 29 21 29h34z" />
    <glyph glyph-name="Tbar" unicode="&#x166;" horiz-adv-x="574" 
d="M325 19q0 -21 -20 -21h-36q-20 0 -20 21v344h-130q-18 0 -18 16v28q0 18 19 18h129v211h-202q-20 0 -20 18v33q0 19 20 19h480q21 0 21 -19v-33q0 -18 -21 -18h-202v-211h133q19 0 19 -18v-28q0 -16 -18 -16h-134v-344z" />
    <glyph glyph-name="tbar" unicode="&#x167;" horiz-adv-x="310" 
d="M173 430v-95h91q18 0 18 -18v-23q0 -16 -17 -16h-92v-135q0 -49 11 -69q9 -20 49 -20q14 0 33 2.5t21 2.5q11 0 14 -12q0 -2 1.5 -9.5t2 -13.5t0.5 -9q0 -14 -17 -19q-32 -9 -78 -9q-62 0 -87 34q-21 27 -21 105v152h-53q-18 0 -18 16v22q0 19 19 19h52v95h-57
q-17 0 -17 18v30q0 20 20 20h55q0 34 3 114q0 22 17 22h33q16 0 16 -22v-114h97q19 0 19 -17v-33q0 -18 -19 -18h-96z" />
    <glyph glyph-name="Utilde" unicode="&#x168;" horiz-adv-x="692" 
d="M597 685v-403q0 -83 -5 -125.5t-23 -73.5q-54 -96 -227 -96q-86 0 -142 22.5t-83 80.5q-22 48 -22 190v405q0 21 20 21h37q18 0 18 -21v-429q0 -104 22 -139q37 -60 154 -60q123 0 154 57q24 41 24 138v433q0 21 20 21h35q18 0 18 -21zM216 771h-19q-16 0 -16 14
q0 8 6 23q32 80 88 80q25 0 80 -29q43 -22 61 -22q26 0 43 38q7 18 22 18h19q16 0 16 -14q0 -11 -5 -23q-32 -86 -89 -86q-26 0 -79 27q-47 25 -66 25q-13 0 -21 -7t-17 -28q-8 -16 -23 -16z" />
    <glyph glyph-name="utilde" unicode="&#x169;" horiz-adv-x="580" 
d="M418 34q-23 -23 -74.5 -34t-102.5 -11q-121 0 -145 63q-10 29 -10 99v328q0 21 19 21h34q19 0 19 -21v-311q0 -49 8 -70q14 -41 96 -41q81 0 132 22q14 5 18 12q5 8 5 25v363q0 21 20 21h33q19 0 19 -21v-461q0 -20 -21 -20h-30q-18 0 -19 20zM170 598h-22q-15 0 -15 14
q0 6 6 21q28 85 86 85q25 0 77 -29q38 -21 60 -21q12 0 19.5 6.5t16.5 30.5q7 18 22 18h22q15 0 15 -13q0 -5 -6 -25q-25 -87 -85 -87q-32 0 -80 26q-44 24 -57 24t-20.5 -6.5t-16.5 -27.5q-8 -16 -22 -16z" />
    <glyph glyph-name="Umacron" unicode="&#x16a;" horiz-adv-x="692" 
d="M597 685v-403q0 -83 -5 -125.5t-23 -73.5q-54 -96 -227 -96q-86 0 -142 22.5t-83 80.5q-22 48 -22 190v405q0 21 20 21h37q18 0 18 -21v-429q0 -104 22 -139q37 -60 154 -60q123 0 154 57q24 41 24 138v433q0 21 20 21h35q18 0 18 -21zM475 793h-251q-18 0 -18 17v30
q0 18 19 18h249q19 0 19 -18v-31q0 -16 -18 -16z" />
    <glyph glyph-name="umacron" unicode="&#x16b;" horiz-adv-x="580" 
d="M418 34q-23 -23 -74.5 -34t-102.5 -11q-121 0 -145 63q-10 29 -10 99v328q0 21 19 21h34q19 0 19 -21v-311q0 -49 8 -70q14 -41 96 -41q81 0 132 22q14 5 18 12q5 8 5 25v363q0 21 20 21h33q19 0 19 -21v-461q0 -20 -21 -20h-30q-18 0 -19 20zM406 611h-231q-19 0 -19 16
v33q0 18 19 18h230q19 0 19 -18v-33q0 -16 -18 -16z" />
    <glyph glyph-name="Ubreve" unicode="&#x16c;" horiz-adv-x="692" 
d="M597 685v-403q0 -83 -5 -125.5t-23 -73.5q-54 -96 -227 -96q-86 0 -142 22.5t-83 80.5q-22 48 -22 190v405q0 21 20 21h37q18 0 18 -21v-429q0 -104 22 -139q37 -60 154 -60q123 0 154 57q24 41 24 138v433q0 21 20 21h35q18 0 18 -21zM484 905q16 0 16 -14q0 -18 -5 -37
q-28 -95 -149 -95q-126 0 -147 100q-3 11 -3 30q0 16 17 16h26q16 0 18 -14q5 -35 24.5 -51.5t65.5 -16.5q49 0 68 16.5t25 51.5q1 14 17 14h27z" />
    <glyph glyph-name="ubreve" unicode="&#x16d;" horiz-adv-x="580" 
d="M418 34q-23 -23 -74.5 -34t-102.5 -11q-121 0 -145 63q-10 29 -10 99v328q0 21 19 21h34q19 0 19 -21v-311q0 -49 8 -70q14 -41 96 -41q81 0 132 22q14 5 18 12q5 8 5 25v363q0 21 20 21h33q19 0 19 -21v-461q0 -20 -21 -20h-30q-18 0 -19 20zM417 723q14 0 14 -15
q0 -17 -4 -36q-24 -100 -141 -100q-116 0 -137 102q-3 12 -3 33q0 16 16 16h25q15 0 17 -15q5 -39 22.5 -57t60.5 -18q46 0 64 18.5t23 56.5q1 15 17 15h26z" />
    <glyph glyph-name="Uring" unicode="&#x16e;" horiz-adv-x="692" 
d="M597 685v-403q0 -83 -5 -125.5t-23 -73.5q-54 -96 -227 -96q-86 0 -142 22.5t-83 80.5q-22 48 -22 190v405q0 21 20 21h37q18 0 18 -21v-429q0 -104 22 -139q37 -60 154 -60q123 0 154 57q24 41 24 138v433q0 21 20 21h35q18 0 18 -21zM444 827q0 -44 -26 -68t-69 -24
q-41 0 -66 24t-25 68t25.5 69.5t68.5 25.5t67.5 -25t24.5 -70zM407 829q0 60 -57 60q-26 0 -41.5 -15.5t-15.5 -45.5q0 -29 15.5 -44.5t42.5 -15.5q56 0 56 61z" />
    <glyph glyph-name="uring" unicode="&#x16f;" horiz-adv-x="580" 
d="M418 34q-23 -23 -74.5 -34t-102.5 -11q-121 0 -145 63q-10 29 -10 99v328q0 21 19 21h34q19 0 19 -21v-311q0 -49 8 -70q14 -41 96 -41q81 0 132 22q14 5 18 12q5 8 5 25v363q0 21 20 21h33q19 0 19 -21v-461q0 -20 -21 -20h-30q-18 0 -19 20zM382 670q0 -45 -26.5 -69.5
t-70.5 -24.5q-42 0 -67.5 24.5t-25.5 69.5t26.5 71t69.5 26q44 0 69 -25.5t25 -71.5zM345 672q0 61 -59 61q-27 0 -43 -16t-16 -46q0 -29 16.5 -45.5t43.5 -16.5t42.5 16.5t15.5 46.5z" />
    <glyph glyph-name="Uhungarumlaut" unicode="&#x170;" horiz-adv-x="692" 
d="M597 685v-403q0 -83 -5 -125.5t-23 -73.5q-54 -96 -227 -96q-86 0 -142 22.5t-83 80.5q-22 48 -22 190v405q0 21 20 21h37q18 0 18 -21v-429q0 -104 22 -139q37 -60 154 -60q123 0 154 57q24 41 24 138v433q0 21 20 21h35q18 0 18 -21zM265 772q-14 -10 -31 -10h-34
q-13 0 -13 12q0 9 9 17l127 107q14 13 31 13h49q16 0 16 -13q0 -10 -12 -18zM451 772q-14 -10 -32 -10h-33q-14 0 -14 12q0 9 9 17l128 107q16 13 30 13h50q16 0 16 -13q0 -10 -12 -18z" />
    <glyph glyph-name="uhungarumlaut" unicode="&#x171;" horiz-adv-x="580" 
d="M418 34q-23 -23 -74.5 -34t-102.5 -11q-121 0 -145 63q-10 29 -10 99v328q0 21 19 21h34q19 0 19 -21v-311q0 -49 8 -70q14 -41 96 -41q81 0 132 22q14 5 18 12q5 8 5 25v363q0 21 20 21h33q19 0 19 -21v-461q0 -20 -21 -20h-30q-18 0 -19 20zM228 592q-10 -12 -26 -12
h-31q-13 0 -13 12q0 9 5 15l99 131q9 13 25 13h44q15 0 15 -12q0 -9 -9 -18zM383 592q-12 -12 -26 -12h-30q-14 0 -14 12q0 8 6 15l98 131q10 13 25 13h44q15 0 15 -12q0 -9 -9 -18z" />
    <glyph glyph-name="Uogonek" unicode="&#x172;" horiz-adv-x="692" 
d="M597 685v-403q0 -83 -5 -125.5t-23 -73.5q-47 -85 -190 -95q-44 -31 -61.5 -55.5t-17.5 -60.5q0 -28 13.5 -39.5t42.5 -11.5q12 0 29 3t19 3q9 0 13 -11q5 -14 5 -28q0 -12 -14 -16q-24 -8 -63 -8q-113 0 -113 100q0 44 19.5 72t58.5 52q-149 7 -193 102q-22 48 -22 190
v405q0 21 20 21h37q18 0 18 -21v-429q0 -104 22 -139q37 -60 154 -60q123 0 154 57q24 41 24 138v433q0 21 20 21h35q18 0 18 -21z" />
    <glyph glyph-name="uogonek" unicode="&#x173;" horiz-adv-x="580" 
d="M418 34q-23 -23 -74.5 -34t-102.5 -11q-121 0 -145 63q-10 29 -10 99v328q0 21 19 21h34q19 0 19 -21v-311q0 -49 8 -70q14 -41 96 -41q81 0 132 22q14 5 18 12q5 8 5 25v363q0 21 20 21h33q19 0 19 -21v-461q0 -17 -17 -20q-51 -34 -70.5 -58t-19.5 -61q0 -49 52 -49
q12 0 28 2.5t18 2.5q10 0 13 -11q4 -18 4 -26q0 -11 -13 -15q-24 -8 -61 -8q-106 0 -106 96q0 50 25 78.5t78 56.5h1q-2 6 -2 12z" />
    <glyph glyph-name="Wcircumflex" unicode="&#x174;" horiz-adv-x="914" 
d="M459 564q-40 -141 -169 -546q-7 -20 -26 -20h-34q-18 0 -24 21l-171 646q-4 16 -4 27q0 16 18 16h39q18 0 24 -24q124 -481 144 -565q43 160 162 537q4 14 9.5 20t16.5 6h32q17 0 25 -25q140 -449 162 -538q29 126 144 562q6 27 25 27h34q18 0 18 -16q0 -10 -5 -30
l-176 -644q-5 -20 -24 -20h-34q-19 0 -25 21zM343 762h-32q-15 0 -15 13q0 8 7 15l106 102q17 17 31 17h39q11 0 28 -15l108 -105q6 -5 6 -14q0 -13 -18 -13h-31q-12 0 -30 13l-85 68l-83 -67q-18 -14 -31 -14z" />
    <glyph glyph-name="wcircumflex" unicode="&#x175;" horiz-adv-x="735" 
d="M368 377q-24 -81 -124 -360q-6 -19 -25 -19h-29q-19 0 -25 20l-138 447q-5 15 -5 20q0 15 18 15h40q9 0 13 -5t9 -20q77 -245 110 -369q35 115 118 347q10 28 28 28h26q14 0 24 -27q99 -268 125 -348q38 148 104 368q5 15 9.5 20.5t14.5 5.5h35q17 0 17 -15q0 -7 -6 -27
l-136 -441q-6 -19 -23 -19h-31q-17 0 -24 20q-102 283 -125 359zM263 573h-30q-14 0 -14 12q0 5 7 16l95 133q11 17 28 17h42q13 0 24 -15l96 -136q7 -12 7 -15q0 -12 -15 -12h-30q-14 0 -25 13l-81 101l-78 -100q-12 -14 -26 -14z" />
    <glyph glyph-name="Ycircumflex" unicode="&#x176;" horiz-adv-x="566" 
d="M321 20q0 -22 -20 -22h-36q-19 0 -19 22v287l-224 355q-14 24 -14 31q0 6 4.5 11.5t11.5 5.5h42q17 0 29 -20l191 -310q41 72 188 306q15 24 32 24h37q16 0 16 -14q0 -11 -11 -28l-227 -359v-289zM169 762h-32q-15 0 -15 13q0 8 7 15l106 102q17 17 31 17h39q11 0 28 -15
l108 -105q6 -5 6 -14q0 -13 -18 -13h-31q-12 0 -30 13l-85 68l-83 -67q-18 -14 -31 -14z" />
    <glyph glyph-name="ycircumflex" unicode="&#x177;" horiz-adv-x="457" 
d="M190 12l-177 449q-6 15 -6 24q0 15 19 15h38q15 0 25 -25l141 -372q34 97 142 371q10 26 25 26h36q18 0 18 -15q0 -9 -6 -24l-210 -522q-18 -44 -32 -75q-25 -54 -54 -82q-37 -32 -97 -32q-39 0 -52 4q-18 5 -18 18q0 18 7 37q4 10 15 10q1 0 15 -1.5t29 -1.5q35 0 50 12
q18 13 44 68q5 11 33 80zM124 573h-30q-14 0 -14 12q0 5 7 16l95 133q11 17 28 17h42q13 0 24 -15l96 -136q7 -12 7 -15q0 -12 -15 -12h-30q-14 0 -25 13l-81 101l-78 -100q-12 -14 -26 -14z" />
    <glyph glyph-name="Ydieresis" unicode="&#x178;" horiz-adv-x="566" 
d="M321 20q0 -22 -20 -22h-36q-19 0 -19 22v287l-224 355q-14 24 -14 31q0 6 4.5 11.5t11.5 5.5h42q17 0 29 -20l191 -310q41 72 188 306q15 24 32 24h37q16 0 16 -14q0 -11 -11 -28l-227 -359v-289zM237 821q0 -48 -47 -48q-45 0 -45 47q0 50 45 50q47 0 47 -49zM425 821
q0 -48 -47 -48q-45 0 -45 47q0 50 45 50q47 0 47 -49z" />
    <glyph glyph-name="Zacute" unicode="&#x179;" horiz-adv-x="598" 
d="M547 0h-500q-24 0 -24 23v17q0 13 13 32l416 563h-373q-22 0 -22 20v30q0 21 22 21h450q22 0 22 -21v-15q0 -21 -12 -38l-413 -561h421q22 0 22 -20v-32q0 -19 -22 -19zM320 772q-12 -10 -30 -10h-38q-14 0 -14 12q0 9 10 17l134 107q14 13 31 13h58q15 0 15 -12t-11 -19
z" />
    <glyph glyph-name="zacute" unicode="&#x17a;" horiz-adv-x="477" 
d="M427 0h-376q-18 0 -18 17v17q0 13 12 29l286 367h-269q-16 0 -16 15v35q0 18 17 18h353q17 0 17 -17v-18q0 -16 -13 -33l-285 -362h293q16 0 16 -15v-38q0 -15 -17 -15zM264 592q-11 -12 -26 -12h-36q-13 0 -13 13q0 7 6 15l105 130q10 13 25 13h54q14 0 14 -12
q0 -9 -8 -17z" />
    <glyph glyph-name="Zdotaccent" unicode="&#x17b;" horiz-adv-x="598" 
d="M547 0h-500q-24 0 -24 23v17q0 13 13 32l416 563h-373q-22 0 -22 20v30q0 21 22 21h450q22 0 22 -21v-15q0 -21 -12 -38l-413 -561h421q22 0 22 -20v-32q0 -19 -22 -19zM364 821q0 -48 -47 -48q-45 0 -45 47q0 50 45 50q47 0 47 -49z" />
    <glyph glyph-name="zdotaccent" unicode="&#x17c;" horiz-adv-x="477" 
d="M427 0h-376q-18 0 -18 17v17q0 13 12 29l286 367h-269q-16 0 -16 15v35q0 18 17 18h353q17 0 17 -17v-18q0 -16 -13 -33l-285 -362h293q16 0 16 -15v-38q0 -15 -17 -15zM299 662q0 -48 -46 -48t-46 47q0 50 46 50t46 -49z" />
    <glyph glyph-name="Zcaron" unicode="&#x17d;" horiz-adv-x="598" 
d="M547 0h-500q-24 0 -24 23v17q0 13 13 32l416 563h-373q-22 0 -22 20v30q0 21 22 21h450q22 0 22 -21v-15q0 -21 -12 -38l-413 -561h421q22 0 22 -20v-32q0 -19 -22 -19zM417 910h32q15 0 15 -13q0 -8 -7 -15l-106 -102q-17 -17 -31 -17h-39q-9 0 -30 18l-106 102
q-6 5 -6 14q0 13 18 13h31q12 0 30 -13l85 -68l83 67q18 14 31 14z" />
    <glyph glyph-name="zcaron" unicode="&#x17e;" horiz-adv-x="477" 
d="M427 0h-376q-18 0 -18 17v17q0 13 12 29l286 367h-269q-16 0 -16 15v35q0 18 17 18h353q17 0 17 -17v-18q0 -16 -13 -33l-285 -362h293q16 0 16 -15v-38q0 -15 -17 -15zM341 755h30q15 0 15 -12q0 -7 -8 -17l-95 -133q-12 -17 -27 -17h-42q-15 0 -25 15l-96 136
q-6 10 -6 16q0 12 14 12h30q15 0 25 -12l82 -103l78 100q11 15 25 15z" />
    <glyph glyph-name="longs" unicode="&#x17f;" horiz-adv-x="254" 
d="M162 18q0 -20 -18 -20h-35q-19 0 -19 21v560q0 100 40 140q39 38 119 38q43 0 63 -7q11 -5 11 -17q0 -10 -4 -32q-3 -12 -16 -12q-1 0 -18.5 2t-32.5 2q-56 0 -74 -29q-16 -23 -16 -94v-552z" />
    <glyph glyph-name="florin" unicode="&#x192;" horiz-adv-x="468" 
d="M389 381h-117l-27 -320q-5 -60 -16 -91.5t-33 -52.5q-41 -38 -120 -38q-42 0 -60 6q-11 3 -11 16q0 15 4 35q3 13 18 13q2 0 18.5 -2t29.5 -2q55 0 70 26q21 37 26 96l27 314h-85q-18 0 -18 17v23q0 17 18 17h90l7 74q9 99 51 139q41 38 119 38q47 0 68 -7q11 -5 11 -17
q0 -18 -4 -34q-5 -12 -17 -12q-2 0 -21.5 2.5t-34.5 2.5q-54 0 -75 -30q-19 -30 -24 -92l-6 -64h112q20 0 20 -17v-23q0 -17 -20 -17z" />
    <glyph glyph-name="Aringacute" unicode="&#x1fa;" horiz-adv-x="598" 
d="M378 757q0 -49 -36 -69l240 -649q7 -17 7 -26q0 -15 -19 -15h-35q-11 0 -16.5 5.5t-11.5 21.5l-73 198h-270l-74 -200q-9 -25 -26 -25h-35q-21 0 -21 15q0 7 7 26l239 648q-34 21 -34 70q0 39 21.5 61t57.5 22q37 0 58 -22t21 -61zM186 292h226l-113 312zM307 868
q-12 -9 -25 -9h-19q-13 0 -13 10q0 6 7 14l97 87q10 12 28 12h38q14 0 14 -11q0 -10 -10 -18zM345 759q0 49 -47 49q-46 0 -46 -50q0 -43 36 -50h21q36 7 36 51z" />
    <glyph glyph-name="aringacute" unicode="&#x1fb;" horiz-adv-x="532" 
d="M376 39q-55 -51 -150 -51q-173 0 -173 161q0 82 64 119q49 28 152 28q73 0 106 -5v45q0 44 -7 64q-19 43 -109 43q-68 0 -115 -11q-30 -7 -34 -7q-10 0 -14 12q-5 22 -5 35q0 15 16 19q71 21 164 21q107 0 144 -38q18 -18 24 -46.5t6 -78.5v-328q0 -14 -4.5 -18.5
t-15.5 -4.5h-25q-20 0 -21 14zM375 234q-38 5 -98 5q-91 0 -126 -26q-27 -23 -27 -64q0 -48 25.5 -73t92.5 -25q68 0 109 27q12 7 19 16q5 9 5 25v115zM369 670q0 -45 -26.5 -69.5t-70.5 -24.5q-43 0 -68 24.5t-25 69.5t26 71t70 26t69 -25.5t25 -71.5zM333 672
q0 30 -16 46.5t-44 16.5q-27 0 -43.5 -16.5t-16.5 -47.5q0 -30 16.5 -46.5t44.5 -16.5q27 0 43 17t16 47zM282 812q-11 -12 -26 -12h-22q-14 0 -14 12q0 9 5 15l103 128q10 14 26 14h40q15 0 15 -12q0 -10 -9 -17z" />
    <glyph glyph-name="AEacute" unicode="&#x1fc;" horiz-adv-x="949" 
d="M232 230l-138 -209q-14 -23 -32 -23h-41q-18 0 -18 14q0 4 14 26l426 648q14 20 37 20h397q21 0 21 -19v-33q0 -19 -21 -19h-308v-232h278q20 0 20 -20v-33q0 -18 -20 -18h-278v-261h323q20 0 20 -20v-33q0 -18 -20 -18h-378q-20 0 -20 21v209h-262zM273 300h221v339
q-41 -68 -221 -339zM643 772q-13 -10 -30 -10h-38q-14 0 -14 12q0 9 10 17l134 107q14 13 31 13h58q15 0 15 -12t-11 -19z" />
    <glyph glyph-name="aeacute" unicode="&#x1fd;" horiz-adv-x="843" 
d="M445 232q1 -105 39.5 -141.5t121.5 -36.5q79 0 136 22q14 6 23 6q8 0 13 -10q9 -24 9 -35q0 -12 -17 -19q-65 -31 -171 -31q-128 0 -178 68q-70 -67 -194 -67q-174 0 -174 161q0 83 62 116q52 29 156 29q63 0 104 -3v43q0 47 -8 66q-17 43 -108 43q-63 0 -116 -11
q-5 -1 -17 -4t-16 -3q-11 0 -13 12q-6 30 -6 34q0 16 16 20q73 21 163 21q68 0 107.5 -18.5t48.5 -68.5q21 42 68.5 64.5t106.5 22.5q50 0 85.5 -12t56.5 -32t33 -53t16 -68t4 -85q0 -18 -8 -25q-5 -5 -20 -5h-323zM375 234q-24 2 -97 2q-100 0 -128 -24q-26 -23 -26 -63
q0 -48 25.5 -73t92.5 -25q45 0 88 13t64 37q-19 47 -19 133zM446 292h280q1 8 1 21q0 69 -27.5 102.5t-101.5 33.5q-83 0 -116.5 -38.5t-35.5 -118.5zM453 592q-11 -12 -26 -12h-36q-13 0 -13 13q0 7 6 15l105 130q10 13 25 13h54q14 0 14 -12q0 -9 -8 -17z" />
    <glyph glyph-name="Oslashacute" unicode="&#x1fe;" horiz-adv-x="697" 
d="M101 -16q-6 -8 -13 -8q-8 0 -23 13q-7 6 -7 11t6 13l52 71q-53 84 -53 273q0 109 21 182.5t62 111.5t90 53t117 15q132 0 191 -46l43 58q6 9 13 9t12 -4q18 -12 18 -19t-5 -13l-48 -66q57 -81 57 -280q0 -145 -32.5 -227t-93 -113t-163.5 -31q-136 0 -199 59zM557 356
q0 147 -30 213l-335 -460q42 -55 154 -55q43 0 73 6t58 24.5t44.5 51.5t26 87.5t9.5 132.5zM140 357q0 -134 27 -203l332 456q-42 42 -149 42q-54 0 -90.5 -12t-65 -43.5t-41.5 -90.5t-13 -149zM367 772q-13 -10 -30 -10h-38q-14 0 -14 12q0 9 10 17l134 107q14 13 31 13h58
q15 0 15 -12t-11 -19z" />
    <glyph glyph-name="oslashacute" unicode="&#x1ff;" horiz-adv-x="556" 
d="M98 -28q-6 -8 -12 -8q-8 0 -21 12q-7 6 -7 11q0 6 5 13l37 50q-46 59 -46 200q0 79 17 132.5t49.5 81t70.5 38t91 10.5q92 0 136 -25l38 52q5 8 13 8q7 0 12 -4q15 -10 15 -17q0 -6 -4 -13l-39 -54q49 -58 49 -206q0 -79 -13.5 -131.5t-43 -82t-70 -41t-99.5 -11.5
q-96 0 -144 32zM431 249q0 106 -23 149l-235 -323q31 -26 104 -26q41 0 66.5 6.5t47 26.5t31 61t9.5 106zM125 253q0 -94 20 -140l232 318q-30 18 -97 18q-82 0 -118.5 -40t-36.5 -156zM291 592q-11 -12 -26 -12h-36q-13 0 -13 13q0 7 6 15l105 130q10 13 25 13h54
q14 0 14 -12q0 -9 -8 -17z" />
    <glyph glyph-name="uni0218" unicode="&#x218;" horiz-adv-x="563" 
d="M347 375q91 -27 126.5 -65t35.5 -116q0 -100 -57 -153.5t-189 -53.5q-113 0 -195 34q-20 8 -20 21q0 12 9 37q5 16 22 16q8 0 27 -7q74 -30 159 -30q55 0 91 11.5t51 32.5t20 39.5t5 44.5q0 43 -25.5 71.5t-110.5 51.5l-95 26q-70 19 -106 66.5t-36 116.5q0 98 57 149.5
t184 51.5q90 0 164 -23q18 -6 18 -22q0 -10 -7 -34q-4 -14 -18 -14q-3 0 -26 5q-72 18 -137 18q-91 0 -124.5 -31.5t-33.5 -92.5q0 -47 24.5 -75t99.5 -50zM290 -69q20 0 20 -22q0 -44 -15.5 -92t-47.5 -83q-10 -12 -21 -12q-12 0 -25 9q-10 6 -10 15q0 6 7 18q38 57 38 138
q0 29 22 29h32z" />
    <glyph glyph-name="uni0219" unicode="&#x219;" horiz-adv-x="439" 
d="M279 272q63 -15 93 -46t30 -91q0 -148 -191 -148q-100 0 -158 24q-15 6 -15 19q0 11 10 37q5 13 17 13q5 0 20 -5q61 -21 127 -21q72 0 96 20.5t24 56.5q0 30 -17 46.5t-76 31.5l-80 19q-112 28 -112 135q0 148 188 148q76 0 129 -14q18 -5 18 -20q0 -11 -7 -39
q-3 -12 -15 -12l-18 3q-57 14 -109 14q-67 0 -91 -18.5t-24 -56.5q0 -31 17 -47.5t73 -30.5zM237 -69q20 0 20 -22q0 -44 -15.5 -92t-47.5 -83q-10 -12 -21 -12t-25 9q-10 6 -10 15q0 6 7 18q38 57 38 138q0 29 22 29h32z" />
    <glyph glyph-name="uni021A" unicode="&#x21a;" horiz-adv-x="574" 
d="M319 19q0 -21 -20 -21h-36q-20 0 -20 21v617h-202q-20 0 -20 18v33q0 19 20 19h480q21 0 21 -19v-33q0 -18 -21 -18h-202v-617zM302 -69q20 0 20 -22q0 -44 -15.5 -92t-47.5 -83q-10 -12 -21 -12q-12 0 -25 9q-10 6 -10 15q0 6 7 18q38 57 38 138q0 29 22 29h32z" />
    <glyph glyph-name="uni021B" unicode="&#x21b;" horiz-adv-x="310" 
d="M173 430v-287q0 -49 11 -69q9 -20 49 -20q14 0 33 2.5t21 2.5q11 0 14 -12q0 -2 1.5 -9.5t2 -13.5t0.5 -9q0 -14 -17 -19q-32 -9 -78 -9q-62 0 -87 34q-21 27 -21 105v304h-57q-17 0 -17 18v30q0 20 20 20h55q0 34 3 114q0 22 17 22h33q16 0 16 -22v-114h97q19 0 19 -17
v-33q0 -18 -19 -18h-96zM205 -69q20 0 20 -22q0 -44 -15.5 -92t-47.5 -83q-10 -12 -21 -12t-25 9q-10 6 -10 15q0 6 7 18q38 57 38 138q0 29 22 29h32z" />
    <glyph glyph-name="circumflex" unicode="&#x2c6;" horiz-adv-x="197" 
d="M-6 573h-30q-14 0 -14 12q0 5 7 16l95 133q11 17 28 17h42q13 0 24 -15l96 -136q7 -12 7 -15q0 -12 -15 -12h-30q-14 0 -25 13l-81 101l-78 -100q-12 -14 -26 -14z" />
    <glyph glyph-name="caron" unicode="&#x2c7;" horiz-adv-x="197" 
d="M204 755h30q15 0 15 -12q0 -7 -8 -17l-95 -133q-12 -17 -27 -17h-42q-15 0 -25 15l-96 136q-6 10 -6 16q0 12 14 12h30q14 0 25 -12l82 -103l78 100q11 15 25 15z" />
    <glyph glyph-name="breve" unicode="&#x2d8;" horiz-adv-x="197" 
d="M229 723q14 0 14 -15q0 -17 -4 -36q-24 -100 -141 -100q-116 0 -137 102q-3 12 -3 33q0 16 16 16h25q15 0 17 -15q5 -39 22.5 -57t60.5 -18q46 0 64 18.5t23 56.5q1 15 17 15h26z" />
    <glyph glyph-name="dotaccent" unicode="&#x2d9;" horiz-adv-x="197" 
d="M144 662q0 -48 -46 -48t-46 47q0 50 46 50t46 -49z" />
    <glyph glyph-name="ring" unicode="&#x2da;" horiz-adv-x="197" 
d="M193 670q0 -45 -26.5 -69.5t-70.5 -24.5q-42 0 -67.5 24.5t-25.5 69.5t26.5 71t69.5 26q44 0 69 -25.5t25 -71.5zM156 672q0 61 -59 61q-27 0 -43 -16t-16 -46q0 -29 16 -45.5t44 -16.5q27 0 42.5 16.5t15.5 46.5z" />
    <glyph glyph-name="ogonek" unicode="&#x2db;" horiz-adv-x="197" 
d="M180 6q-60 -40 -81.5 -64.5t-21.5 -62.5q0 -49 52 -49q11 0 27 2.5t19 2.5q10 0 13 -11q4 -18 4 -26q0 -11 -13 -15q-24 -8 -61 -8q-106 0 -106 96q0 50 25 78.5t78 56.5h65z" />
    <glyph glyph-name="tilde" unicode="&#x2dc;" horiz-adv-x="197" 
d="M-26 598h-22q-15 0 -15 14q0 6 6 21q28 85 86 85q25 0 77 -29q38 -21 60 -21q12 0 19.5 6.5t16.5 30.5q7 18 22 18h22q15 0 15 -13q0 -5 -6 -25q-25 -87 -85 -87q-32 0 -80 26q-44 24 -57 24t-20.5 -6.5t-16.5 -27.5q-8 -16 -22 -16z" />
    <glyph glyph-name="hungarumlaut" unicode="&#x2dd;" horiz-adv-x="197" 
d="M-3 592q-11 -12 -26 -12h-31q-13 0 -13 12q0 9 5 15l99 131q9 13 25 13h44q15 0 15 -12q0 -9 -9 -18zM152 592q-12 -12 -26 -12h-30q-14 0 -14 12q0 8 6 15l98 131q10 13 25 13h44q15 0 15 -12q0 -9 -9 -18z" />
    <glyph glyph-name="uni0394" unicode="&#x394;" horiz-adv-x="656" 
d="M638 33q4 -8 4 -17q0 -16 -18 -16h-593q-19 0 -19 16q0 6 4 14l263 628q7 18 26 18h50q17 0 24 -18zM328 599q-22 -62 -217 -528h432q-198 478 -215 528z" />
    <glyph glyph-name="uni03A9" unicode="&#x3a9;" horiz-adv-x="727" 
d="M325 19q0 -19 -21 -19h-214q-19 0 -19 18v32q0 21 18 21h172q-97 38 -140.5 106.5t-43.5 191.5q0 161 70.5 240.5t222.5 79.5q151 0 214 -77t63 -237q0 -119 -41.5 -189.5t-137.5 -114.5h167q20 0 20 -21v-31q0 -11 -4 -15t-15 -4h-213q-22 0 -22 19v56q0 18 16 25
q76 34 114 95.5t38 172.5q0 135 -45.5 192.5t-156.5 57.5q-112 0 -161.5 -60t-49.5 -193q0 -105 37.5 -167.5t114.5 -97.5q17 -7 17 -25v-56z" />
    <glyph glyph-name="uni03BC" unicode="&#x3bc;" horiz-adv-x="599" 
d="M171 16v-200q0 -20 -19 -20h-34q-19 0 -19 20v663q0 21 19 21h33q19 0 19 -21v-312q0 -50 8 -69q8 -21 29 -31t67 -10q86 0 132 23q15 5 19 11q5 7 5 25v363q0 21 20 21h33q19 0 19 -21v-461q0 -20 -22 -20h-29q-19 0 -20 20l-1 17q-42 -43 -164 -43q-68 0 -95 24z" />
    <glyph glyph-name="pi" unicode="&#x3c0;" horiz-adv-x="596" 
d="M198 21q0 -21 -19 -21h-34q-20 0 -20 21v410h-47q-19 0 -19 19v27q0 21 20 21h464q20 0 20 -21v-27q0 -19 -19 -19h-47v-246q0 -81 11 -136q5 -20 5 -30q0 -19 -17 -19h-34q-20 0 -23 18q-15 63 -15 165v248h-226v-410z" />
    <glyph glyph-name="Wgrave" unicode="&#x1e80;" horiz-adv-x="914" 
d="M459 564q-40 -141 -169 -546q-7 -20 -26 -20h-34q-18 0 -24 21l-171 646q-4 16 -4 27q0 16 18 16h39q18 0 24 -24q124 -481 144 -565q43 160 162 537q4 14 9.5 20t16.5 6h32q17 0 25 -25q140 -449 162 -538q29 126 144 562q6 27 25 27h34q18 0 18 -16q0 -10 -5 -30
l-176 -644q-5 -20 -24 -20h-34q-19 0 -25 21zM461 772l-154 108q-11 7 -11 19t15 12h58q15 0 32 -14l133 -106q10 -9 10 -17q0 -12 -14 -12h-38q-17 0 -31 10z" />
    <glyph glyph-name="wgrave" unicode="&#x1e81;" horiz-adv-x="735" 
d="M368 377q-24 -81 -124 -360q-6 -19 -25 -19h-29q-19 0 -25 20l-138 447q-5 15 -5 20q0 15 18 15h40q9 0 13 -5t9 -20q77 -245 110 -369q35 115 118 347q10 28 28 28h26q14 0 24 -27q99 -268 125 -348q38 148 104 368q5 15 9.5 20.5t14.5 5.5h35q17 0 17 -15q0 -7 -6 -27
l-136 -441q-6 -19 -23 -19h-31q-17 0 -24 20q-102 283 -125 359zM352 592l-122 130q-8 10 -8 16q0 13 15 13h54q15 0 25 -13l106 -131q5 -6 5 -15q0 -12 -13 -12h-35q-16 0 -27 12z" />
    <glyph glyph-name="Wacute" unicode="&#x1e82;" horiz-adv-x="914" 
d="M459 564q-40 -141 -169 -546q-7 -20 -26 -20h-34q-18 0 -24 21l-171 646q-4 16 -4 27q0 16 18 16h39q18 0 24 -24q124 -481 144 -565q43 160 162 537q4 14 9.5 20t16.5 6h32q17 0 25 -25q140 -449 162 -538q29 126 144 562q6 27 25 27h34q18 0 18 -16q0 -10 -5 -30
l-176 -644q-5 -20 -24 -20h-34q-19 0 -25 21zM482 772q-12 -10 -30 -10h-38q-14 0 -14 12q0 9 10 17l134 107q14 13 31 13h58q15 0 15 -12t-11 -19z" />
    <glyph glyph-name="wacute" unicode="&#x1e83;" horiz-adv-x="735" 
d="M368 377q-24 -81 -124 -360q-6 -19 -25 -19h-29q-19 0 -25 20l-138 447q-5 15 -5 20q0 15 18 15h40q9 0 13 -5t9 -20q77 -245 110 -369q35 115 118 347q10 28 28 28h26q14 0 24 -27q99 -268 125 -348q38 148 104 368q5 15 9.5 20.5t14.5 5.5h35q17 0 17 -15q0 -7 -6 -27
l-136 -441q-6 -19 -23 -19h-31q-17 0 -24 20q-102 283 -125 359zM387 592q-11 -12 -26 -12h-36q-13 0 -13 13q0 7 6 15l105 130q10 13 25 13h54q14 0 14 -12q0 -9 -8 -17z" />
    <glyph glyph-name="Wdieresis" unicode="&#x1e84;" horiz-adv-x="914" 
d="M459 564q-40 -141 -169 -546q-7 -20 -26 -20h-34q-18 0 -24 21l-171 646q-4 16 -4 27q0 16 18 16h39q18 0 24 -24q124 -481 144 -565q43 160 162 537q4 14 9.5 20t16.5 6h32q17 0 25 -25q140 -449 162 -538q29 126 144 562q6 27 25 27h34q18 0 18 -16q0 -10 -5 -30
l-176 -644q-5 -20 -24 -20h-34q-19 0 -25 21zM408 821q0 -48 -47 -48q-45 0 -45 47q0 50 45 50q47 0 47 -49zM596 821q0 -48 -47 -48q-45 0 -45 47q0 50 45 50q47 0 47 -49z" />
    <glyph glyph-name="wdieresis" unicode="&#x1e85;" horiz-adv-x="735" 
d="M368 377q-24 -81 -124 -360q-6 -19 -25 -19h-29q-19 0 -25 20l-138 447q-5 15 -5 20q0 15 18 15h40q9 0 13 -5t9 -20q77 -245 110 -369q35 115 118 347q10 28 28 28h26q14 0 24 -27q99 -268 125 -348q38 148 104 368q5 15 9.5 20.5t14.5 5.5h35q17 0 17 -15q0 -7 -6 -27
l-136 -441q-6 -19 -23 -19h-31q-17 0 -24 20q-102 283 -125 359zM325 662q0 -48 -46 -48t-46 47q0 50 46 50t46 -49zM499 662q0 -48 -46 -48t-46 47q0 50 46 50t46 -49z" />
    <glyph glyph-name="Ygrave" unicode="&#x1ef2;" horiz-adv-x="566" 
d="M321 20q0 -22 -20 -22h-36q-19 0 -19 22v287l-224 355q-14 24 -14 31q0 6 4.5 11.5t11.5 5.5h42q17 0 29 -20l191 -310q41 72 188 306q15 24 32 24h37q16 0 16 -14q0 -11 -11 -28l-227 -359v-289zM279 772l-154 108q-11 7 -11 19t15 12h58q15 0 32 -14l133 -106
q10 -9 10 -17q0 -12 -14 -12h-38q-17 0 -31 10z" />
    <glyph glyph-name="ygrave" unicode="&#x1ef3;" horiz-adv-x="457" 
d="M190 12l-177 449q-6 15 -6 24q0 15 19 15h38q15 0 25 -25l141 -372q34 97 142 371q10 26 25 26h36q18 0 18 -15q0 -9 -6 -24l-210 -522q-18 -44 -32 -75q-25 -54 -54 -82q-37 -32 -97 -32q-39 0 -52 4q-18 5 -18 18q0 18 7 37q4 10 15 10q1 0 15 -1.5t29 -1.5q35 0 50 12
q18 13 44 68q5 11 33 80zM218 592l-122 130q-8 10 -8 16q0 13 15 13h54q15 0 25 -13l106 -131q5 -6 5 -15q0 -12 -13 -12h-35q-16 0 -27 12z" />
    <glyph glyph-name="endash" unicode="&#x2013;" horiz-adv-x="544" 
d="M491 232h-438q-18 0 -18 17v36q0 18 19 18h436q19 0 19 -18v-37q0 -16 -18 -16z" />
    <glyph glyph-name="emdash" unicode="&#x2014;" horiz-adv-x="838" 
d="M785 232h-732q-18 0 -18 17v36q0 18 19 18h730q18 0 18 -18v-37q0 -16 -17 -16z" />
    <glyph glyph-name="quoteleft" unicode="&#x2018;" horiz-adv-x="181" 
d="M53 490q-23 0 -23 21q0 59 23 122.5t61 102.5q10 12 22 12t27 -11q10 -7 10 -16q0 -11 -7 -18q-57 -65 -57 -184q0 -29 -25 -29h-31z" />
    <glyph glyph-name="quoteright" unicode="&#x2019;" horiz-adv-x="181" 
d="M131 748q22 0 22 -21q0 -59 -23.5 -122.5t-61.5 -102.5q-10 -12 -21 -12t-27 11q-10 7 -10 16q0 11 7 18q57 68 57 184q0 29 24 29h33z" />
    <glyph glyph-name="quotesinglbase" unicode="&#x201a;" horiz-adv-x="182" 
d="M131 89q22 0 22 -21q0 -59 -23.5 -123t-61.5 -102q-10 -12 -21 -12t-27 11q-10 8 -10 16q0 11 7 19q57 68 57 184q0 28 24 28h33z" />
    <glyph glyph-name="quotedblleft" unicode="&#x201c;" horiz-adv-x="337" 
d="M50 490q-23 0 -23 21q0 60 22.5 123t62.5 102q12 12 21 12q11 0 26 -11q11 -7 11 -16t-7 -18q-58 -67 -58 -184q0 -29 -24 -29h-31zM208 490q-22 0 -22 21q0 59 23 122.5t62 102.5q12 12 21 12q10 0 26 -11q11 -8 11 -16q0 -9 -7 -18q-58 -67 -58 -184q0 -29 -24 -29h-32
z" />
    <glyph glyph-name="quotedblright" unicode="&#x201d;" horiz-adv-x="337" 
d="M131 748q22 0 22 -21q0 -58 -23.5 -122t-61.5 -103q-10 -12 -21 -12t-27 11q-10 7 -10 16q0 11 7 18q57 68 57 184q0 29 24 29h33zM290 748q21 0 21 -21q0 -59 -23 -123.5t-61 -101.5q-12 -12 -22 -12t-26 11q-11 6 -11 16q0 9 7 18q58 67 58 184q0 29 24 29h33z" />
    <glyph glyph-name="quotedblbase" unicode="&#x201e;" horiz-adv-x="337" 
d="M131 89q22 0 22 -21q0 -58 -23 -120.5t-60 -102.5q-12 -14 -23 -14t-27 11q-10 8 -10 16q0 11 7 19q57 68 57 184q0 28 24 28h33zM290 89q21 0 21 -21q0 -58 -23 -122.5t-61 -102.5q-12 -12 -22 -12t-26 11q-11 8 -11 16q0 11 7 19q58 67 58 184q0 28 24 28h33z" />
    <glyph glyph-name="dagger" unicode="&#x2020;" horiz-adv-x="468" 
d="M268 -66q0 -20 -18 -20h-32q-19 0 -19 20v502h-148q-16 0 -16 15v37q0 16 16 16h148v192q0 20 20 20h32q17 0 17 -20v-192h148q17 0 17 -15v-38q0 -15 -16 -15h-149v-502z" />
    <glyph glyph-name="daggerdbl" unicode="&#x2021;" horiz-adv-x="468" 
d="M268 -66q0 -20 -18 -20h-32q-19 0 -19 20v197h-148q-16 0 -16 15v36q0 17 16 17h148v240h-148q-16 0 -16 15v37q0 17 16 17h148v188q0 20 20 20h32q17 0 17 -20v-188h148q17 0 17 -16v-38q0 -15 -16 -15h-149v-240h148q17 0 17 -16v-38q0 -14 -16 -14h-149v-197z" />
    <glyph glyph-name="bullet" unicode="&#x2022;" horiz-adv-x="343" 
d="M290 264q0 -124 -119 -124q-118 0 -118 123q0 125 118 125q58 0 88.5 -28.5t30.5 -95.5z" />
    <glyph glyph-name="ellipsis" unicode="&#x2026;" horiz-adv-x="928" 
d="M228 43q0 -55 -53 -55t-53 54q0 55 53 55q25 0 39 -11t14 -43zM517 43q0 -55 -53 -55q-54 0 -54 54q0 55 54 55q25 0 39 -11t14 -43zM807 43q0 -55 -54 -55q-53 0 -53 54q0 55 54 55q25 0 39 -11t14 -43z" />
    <glyph glyph-name="perthousand" unicode="&#x2030;" horiz-adv-x="1217" 
d="M347 474q0 -126 -35.5 -172t-122.5 -46q-83 0 -118.5 45t-35.5 169t40.5 169t119.5 45q58 0 88.5 -15.5t47 -61t16.5 -133.5zM288 473q0 97 -20.5 129t-74.5 32q-52 0 -75.5 -33.5t-23.5 -130.5q0 -100 22 -132.5t73 -32.5q37 0 57 11.5t31 48.5t11 108zM279 -15
q-10 -17 -22 -17h-16q-11 0 -11 11q0 7 6 19l333 691q11 22 24 22h16q13 0 13 -13q-1 -7 -10 -24zM813 210q0 -126 -36 -172t-122 -46q-83 0 -119 45t-36 169t41 169t120 45q57 0 88 -15.5t47.5 -61.5t16.5 -133zM752 209q0 97 -20 128.5t-73 31.5t-76 -33t-23 -130
q0 -98 22 -131t73 -33q37 0 56 11.5t30 48.5t11 107zM1182 210q0 -126 -35.5 -172t-122.5 -46q-83 0 -118.5 45t-35.5 169t40.5 169t119.5 45q58 0 88.5 -15.5t47 -61t16.5 -133.5zM1122 209q0 97 -20 128.5t-74 31.5q-52 0 -75 -33t-23 -130q0 -99 22 -131.5t72 -32.5
q55 0 76.5 32.5t21.5 134.5z" />
    <glyph glyph-name="guilsinglleft" unicode="&#x2039;" horiz-adv-x="291" 
d="M116 265l128 -164q10 -13 10 -23q0 -12 -13 -12h-38q-14 0 -32 21l-123 151q-13 15 -13 26q0 8 8 21l128 158q18 21 32 21h38q13 0 13 -11q0 -10 -11 -24z" />
    <glyph glyph-name="guilsinglright" unicode="&#x203a;" horiz-adv-x="291" 
d="M168 266l-128 164q-11 14 -11 22q0 12 14 12h38q15 0 32 -21l124 -151q13 -15 13 -25t-9 -22l-128 -157q-17 -22 -32 -22h-38q-14 0 -14 11q0 10 11 24z" />
    <glyph glyph-name="fraction" unicode="&#x2044;" horiz-adv-x="84" 
d="M-104 -15q-10 -17 -23 -17h-15q-11 0 -11 13q0 5 6 17l332 691q11 22 24 22h16q13 0 13 -13q-1 -7 -10 -24z" />
    <glyph glyph-name="zero.superior" unicode="&#x2070;" 
d="M346 630q0 -126 -35 -172t-122 -46q-83 0 -118 45t-35 169q0 65 11 108t33.5 65.5t49.5 31.5t65 9q58 0 88.5 -15.5t46.5 -61t16 -133.5zM289 629q0 97 -20.5 128t-75.5 31q-53 0 -76.5 -33t-23.5 -129q0 -99 22 -131t74 -32q56 0 78 31.5t22 134.5z" />
    <glyph glyph-name="four.superior" unicode="&#x2074;" 
d="M288 434q0 -15 -14 -15h-28q-14 0 -14 15v88h-189q-15 0 -15 13v23q0 12 6 21l146 238q8 15 21 15h29q12 0 12 -9q0 -6 -5 -15l-145 -233h140v92q0 15 14 15h29q13 0 13 -14v-93h53q15 0 15 -13v-27q0 -13 -15 -13h-53v-88z" />
    <glyph glyph-name="five.superior" unicode="&#x2075;" 
d="M112 670q34 10 76 10q74 0 105.5 -29t31.5 -101q0 -138 -163 -138q-65 0 -104 11q-15 5 -15 16q0 13 7 30q5 8 13 8q2 0 5.5 -1t8.5 -2t8 -2q37 -7 78 -7q55 0 78.5 20t23.5 63q0 47 -24 63.5t-73 16.5q-46 0 -78 -10q-10 -4 -18 -4q-14 0 -14 16q0 10 2 24l14 161
q2 17 15 17h202q13 0 13 -13v-27q0 -12 -14 -12h-168z" />
    <glyph glyph-name="six.superior" unicode="&#x2076;" 
d="M96 635q13 19 45.5 32.5t67.5 13.5q68 0 98.5 -31t30.5 -101q0 -138 -148 -138q-76 0 -113.5 44t-37.5 149q0 121 38 178.5t145 57.5q54 0 83 -9q9 -4 9 -13t-6 -31q-2 -7 -10 -7q-4 0 -19 3q-23 4 -54 4q-34 0 -56.5 -6.5t-35.5 -16.5t-21 -31.5t-11 -41.5t-5 -56z
M100 560q0 -98 90 -98q49 0 70.5 21t21.5 67q0 81 -83 81q-68 0 -90 -37q-9 -14 -9 -34z" />
    <glyph glyph-name="seven.superior" unicode="&#x2077;" 
d="M262 780q-42 -1 -216 -1q-15 0 -15 12v27q0 14 15 14h269q13 0 13 -12v-16q0 -17 -3 -24q-111 -231 -155 -345q-5 -16 -19 -16h-33q-14 0 -14 11q0 7 5 17q82 196 153 333z" />
    <glyph glyph-name="eight.superior" unicode="&#x2078;" 
d="M251 637q84 -13 84 -103q0 -62 -36 -92t-114 -30q-80 0 -115 28.5t-35 91.5q0 85 84 105q-70 18 -70 95q0 56 34 82t106 26t103.5 -25t31.5 -82q0 -77 -73 -96zM266 726q0 33 -17.5 48t-63.5 15t-63 -15.5t-17 -49.5q0 -64 80 -64q33 0 57 15t24 51zM276 536q0 73 -91 73
q-93 0 -93 -73q0 -43 24 -59t69 -16q91 0 91 75z" />
    <glyph glyph-name="nine.superior" unicode="&#x2079;" 
d="M275 620q-14 -21 -44.5 -34t-67.5 -13q-69 0 -98.5 30t-29.5 100q0 137 153 137q74 0 109 -43.5t35 -148.5q0 -122 -36.5 -179t-144.5 -57q-64 0 -88 10q-8 3 -8 12q0 10 6 30q2 9 12 9q2 0 22 -4q23 -4 56 -4q76 0 98 33.5t26 121.5zM272 692q0 46 -19 72t-70 26
q-92 0 -92 -88q0 -40 18.5 -59.5t62.5 -19.5q63 0 91 35q9 11 9 34z" />
    <glyph glyph-name="parenleft.superior" unicode="&#x207d;" horiz-adv-x="208" 
d="M93 610q0 -75 17 -128.5t35 -76t54 -56.5q4 -4 4 -9q0 -4 -5 -9q-7 -5 -11 -5q-7 0 -17 6q-131 77 -131 277q0 108 37.5 174.5t91.5 98.5q10 7 17 7t12 -5q6 -6 6 -11t-4 -8q-51 -40 -78.5 -98t-27.5 -157z" />
    <glyph glyph-name="parenright.superior" unicode="&#x207e;" horiz-adv-x="208" 
d="M116 603q0 75 -17.5 129.5t-36 78t-52.5 54.5q-4 3 -4 8q0 4 5 10q6 6 11 6q3 0 17 -7q131 -79 131 -278q0 -107 -38 -173.5t-92 -98.5q-12 -8 -17 -8q-6 0 -12 6t-6 11q0 4 5 8q51 40 78.5 98t27.5 156z" />
    <glyph glyph-name="n.superior" unicode="&#x207f;" horiz-adv-x="380" 
d="M117 277q0 -14 -13 -14h-32q-13 0 -13 14v279q0 15 15 15h28q12 0 13 -14l1 -11q29 29 111 29q74 0 90 -40q7 -18 7 -57v-201q0 -14 -14 -14h-32q-13 0 -13 14v183q0 29 -4 38q-7 22 -52 22q-50 0 -76 -12q-10 -7 -12 -9q-4 -6 -4 -16v-206z" />
    <glyph glyph-name="zero.inferior" unicode="&#x2080;" 
d="M346 84q0 -126 -35 -172t-122 -46q-83 0 -118 45t-35 169q0 65 11 108t33.5 65.5t49.5 31.5t65 9q58 0 88.5 -15.5t46.5 -61t16 -133.5zM289 83q0 97 -20.5 128t-75.5 31q-53 0 -76.5 -33t-23.5 -129q0 -99 22 -131t74 -32q56 0 78 31.5t22 134.5z" />
    <glyph glyph-name="one.inferior" unicode="&#x2081;" 
d="M174 223l-57 -25q-8 -4 -13 -4q-7 0 -10 8q-11 26 -11 31q0 6 9 10l83 38q12 5 21 5h23q14 0 14 -14v-384q0 -15 -14 -15h-31q-14 0 -14 15v335z" />
    <glyph glyph-name="two.inferior" unicode="&#x2082;" 
d="M316 -126h-268q-13 0 -13 12v24q0 11 7 17q131 94 179 144q43 43 43 93q0 38 -21 57t-72 19q-36 0 -72 -9q-23 -5 -25 -5q-8 0 -10 7q-7 21 -7 30q0 10 15 15q48 16 109 16q80 0 110.5 -33.5t30.5 -92.5q0 -69 -45 -114q-66 -66 -158 -127q38 1 197 1q14 0 14 -13v-28
q0 -13 -14 -13z" />
    <glyph glyph-name="three.inferior" unicode="&#x2083;" 
d="M223 92q90 -8 90 -101q0 -64 -36 -94.5t-120 -30.5q-62 0 -101 11q-16 5 -16 15t8 31q4 8 12 8q2 0 5 -1t8 -2t8 -2q37 -7 74 -7q61 0 80 18.5t19 52.5q0 38 -22.5 55t-80.5 17h-15q-13 0 -13 14v24q0 15 13 15h15q92 0 92 63q0 36 -18 49t-68 13q-40 0 -68 -8
q-15 -5 -23 -5t-10 7q-6 16 -6 29q0 11 16 16q47 15 103 15q80 0 106 -26t26 -87q0 -72 -78 -89z" />
    <glyph glyph-name="four.inferior" unicode="&#x2084;" 
d="M288 -112q0 -15 -14 -15h-28q-14 0 -14 15v88h-189q-15 0 -15 13v23q0 12 6 21l146 238q8 15 21 15h29q12 0 12 -9q0 -6 -5 -15l-145 -233h140v92q0 15 14 15h29q13 0 13 -14v-93h53q15 0 15 -13v-27q0 -13 -15 -13h-53v-88z" />
    <glyph glyph-name="five.inferior" unicode="&#x2085;" 
d="M112 124q34 10 76 10q74 0 105.5 -29t31.5 -101q0 -138 -163 -138q-65 0 -104 11q-15 5 -15 16q0 13 7 30q5 8 13 8q2 0 5.5 -1t8.5 -2t8 -2q37 -7 78 -7q55 0 78.5 20t23.5 63q0 47 -24 63.5t-73 16.5q-46 0 -78 -10q-10 -4 -18 -4q-14 0 -14 16q0 10 2 24l14 161
q2 17 15 17h202q13 0 13 -13v-27q0 -12 -14 -12h-168z" />
    <glyph glyph-name="six.inferior" unicode="&#x2086;" 
d="M96 89q13 19 45.5 32.5t67.5 13.5q68 0 98.5 -31t30.5 -101q0 -138 -148 -138q-76 0 -113.5 44t-37.5 149q0 121 38 178.5t145 57.5q54 0 83 -9q9 -4 9 -13t-6 -31q-2 -7 -10 -7q-4 0 -19 3q-23 4 -54 4q-34 0 -56.5 -6.5t-35.5 -16.5t-21 -31.5t-11 -41.5t-5 -56z
M100 14q0 -98 90 -98q49 0 70.5 21t21.5 67q0 81 -83 81q-68 0 -90 -37q-9 -14 -9 -34z" />
    <glyph glyph-name="seven.inferior" unicode="&#x2087;" 
d="M262 234q-42 -1 -216 -1q-15 0 -15 12v27q0 14 15 14h269q13 0 13 -12v-16q0 -17 -3 -24q-111 -231 -155 -345q-5 -16 -19 -16h-33q-14 0 -14 11q0 7 5 17q82 196 153 333z" />
    <glyph glyph-name="eight.inferior" unicode="&#x2088;" 
d="M251 91q84 -13 84 -103q0 -62 -36 -92t-114 -30q-80 0 -115 28.5t-35 91.5q0 85 84 105q-70 18 -70 95q0 56 34 82t106 26t103.5 -25t31.5 -82q0 -77 -73 -96zM266 180q0 33 -17.5 48t-63.5 15t-63 -15.5t-17 -49.5q0 -64 80 -64q33 0 57 15t24 51zM276 -10q0 73 -91 73
q-93 0 -93 -73q0 -43 24 -59t69 -16q91 0 91 75z" />
    <glyph glyph-name="nine.inferior" unicode="&#x2089;" 
d="M275 74q-14 -21 -44.5 -34t-67.5 -13q-69 0 -98.5 30t-29.5 100q0 137 153 137q74 0 109 -43.5t35 -148.5q0 -122 -36.5 -179t-144.5 -57q-64 0 -88 10q-8 3 -8 12q0 10 6 30q2 9 12 9q2 0 22 -4q23 -4 56 -4q76 0 98 33.5t26 121.5zM272 146q0 46 -19 72t-70 26
q-92 0 -92 -88q0 -40 18.5 -59.5t62.5 -19.5q63 0 91 35q9 11 9 34z" />
    <glyph glyph-name="parenleft.inferior" unicode="&#x208d;" horiz-adv-x="208" 
d="M93 64q0 -75 17 -128.5t35 -76t54 -56.5q4 -4 4 -9q0 -4 -5 -9q-7 -5 -11 -5q-7 0 -17 6q-131 77 -131 277q0 108 37.5 174.5t91.5 98.5q10 7 17 7t12 -5q6 -6 6 -11t-4 -8q-51 -40 -78.5 -98t-27.5 -157z" />
    <glyph glyph-name="parenright.inferior" unicode="&#x208e;" horiz-adv-x="208" 
d="M116 57q0 75 -17.5 129.5t-36 78t-52.5 54.5q-4 3 -4 8q0 4 5 10q6 6 11 6q3 0 17 -7q131 -79 131 -278q0 -107 -38 -173.5t-92 -98.5q-12 -8 -17 -8q-6 0 -12 6t-6 11q0 4 5 8q51 40 78.5 98t27.5 156z" />
    <glyph glyph-name="Euro" unicode="&#x20ac;" horiz-adv-x="618" 
d="M451 384h-224v-43v-43h224q18 0 18 -17v-12q0 -18 -18 -18h-222q8 -94 46.5 -144.5t131.5 -50.5q79 0 132 19q26 8 27 8q7 0 13 -13q9 -20 9 -32q0 -16 -20 -23q-72 -27 -167 -27q-114 0 -173.5 59t-71.5 204h-71q-18 0 -18 18v12q0 17 18 17h68v29q0 39 1 57h-69
q-18 0 -18 16v13q0 17 18 17h72q14 136 75.5 197t196.5 61q76 0 125 -12q19 -5 19 -20q0 -18 -8 -40q-3 -10 -13 -10q-5 0 -31 6q-37 7 -104 7q-97 0 -138 -48.5t-49 -140.5h221q18 0 18 -17v-13q0 -16 -18 -16z" />
    <glyph glyph-name="afii61289" unicode="&#x2113;" horiz-adv-x="445" 
d="M166 217q6 -164 119 -164q57 0 105 33q12 7 18 7q11 0 17 -11q12 -21 12 -30q0 -10 -10 -16q-64 -49 -153 -49q-70 0 -115 47t-56 137q-25 -18 -44 -29q-5 -5 -15 -5q-9 0 -21 18q-7 9 -7 18q0 11 11 17q40 26 66 45q-5 65 -5 127q0 142 20 205q21 63 59 92t100 29
q127 0 127 -137q0 -88 -66 -178q-27 -37 -60 -68t-102 -88zM158 287q87 76 124 127q48 65 48 134q0 42 -17.5 59t-51.5 17q-56 0 -81 -55q-25 -56 -25 -187q0 -32 3 -95z" />
    <glyph glyph-name="trademark" unicode="&#x2122;" horiz-adv-x="792" 
d="M202 378q0 -15 -13 -15h-25q-12 0 -12 15v282h-94q-14 0 -14 12v20q0 14 14 14h236q16 0 16 -13v-21q0 -12 -16 -12h-92v-282zM425 378q0 -15 -12 -15h-25q-12 0 -12 16v309q0 18 14 18h42q11 0 16 -10q83 -166 94 -192l89 190q5 12 17 12h40q16 0 16 -18v-309
q0 -16 -13 -16h-25q-11 0 -11 16q0 216 2 271q-8 -23 -96 -202q-5 -9 -13 -9h-14q-11 0 -15 10q-83 170 -96 201q2 -58 2 -272z" />
    <glyph glyph-name="Omega" unicode="&#x2126;" horiz-adv-x="727" 
d="M325 19q0 -19 -21 -19h-214q-19 0 -19 18v32q0 21 18 21h172q-97 38 -140.5 106.5t-43.5 191.5q0 161 70.5 240.5t222.5 79.5q151 0 214 -77t63 -237q0 -119 -41.5 -189.5t-137.5 -114.5h167q20 0 20 -21v-31q0 -11 -4 -15t-15 -4h-213q-22 0 -22 19v56q0 18 16 25
q76 34 114 95.5t38 172.5q0 135 -45.5 192.5t-156.5 57.5q-112 0 -161.5 -60t-49.5 -193q0 -105 37.5 -167.5t114.5 -97.5q17 -7 17 -25v-56z" />
    <glyph glyph-name="estimated" unicode="&#x212e;" horiz-adv-x="845" 
d="M803 336h-616q-6 0 -6 -4v-195q0 -10 10 -22q95 -106 233 -106q147 0 244 118h57q-54 -64 -133 -101.5t-169 -37.5q-158 0 -269.5 105t-111.5 253t111.5 252.5t269.5 104.5t269 -104.5t111 -252.5v-10zM665 362v195q0 13 -11 24q-98 101 -230 101q-135 0 -232 -105
q-11 -9 -11 -24v-191q0 -5 6 -5h472q6 0 6 5z" />
    <glyph glyph-name="onethird" unicode="&#x2153;" horiz-adv-x="847" 
d="M254 -15q-10 -17 -23 -17h-15q-11 0 -11 13q0 5 6 17l332 691q11 22 24 22h16q13 0 13 -13q-1 -7 -10 -24zM187 613l-57 -25q-8 -4 -13 -4q-7 0 -10 8q-11 26 -11 31q0 6 9 10l83 38q12 5 21 5h23q14 0 14 -14v-384q0 -15 -14 -15h-31q-14 0 -14 15v335zM680 218
q90 -8 90 -101q0 -64 -36 -94.5t-120 -30.5q-62 0 -101 11q-16 5 -16 15t8 31q4 8 12 8q2 0 5 -1t8 -2t8 -2q37 -7 74 -7q61 0 80 18.5t19 52.5q0 38 -22.5 55t-80.5 17h-15q-13 0 -13 14v24q0 15 13 15h15q92 0 92 63q0 36 -18 49t-68 13q-40 0 -68 -8q-15 -5 -23 -5t-10 7
q-6 16 -6 29q0 11 16 16q47 15 103 15q80 0 106 -26t26 -87q0 -72 -78 -89z" />
    <glyph glyph-name="twothirds" unicode="&#x2154;" horiz-adv-x="847" 
d="M303 -15q-10 -17 -23 -17h-15q-11 0 -11 13q0 5 6 17l332 691q11 22 24 22h16q13 0 13 -13q-1 -7 -10 -24zM334 264h-268q-13 0 -13 12v24q0 11 7 17q131 94 179 144q43 43 43 93q0 38 -21 57t-72 19q-36 0 -72 -9q-23 -5 -25 -5q-8 0 -10 7q-7 21 -7 30q0 10 15 15
q48 16 109 16q80 0 110.5 -33.5t30.5 -92.5q0 -69 -45 -114q-66 -66 -158 -127q38 1 197 1q14 0 14 -13v-28q0 -13 -14 -13zM716 218q90 -8 90 -101q0 -64 -36 -94.5t-120 -30.5q-62 0 -101 11q-16 5 -16 15t8 31q4 8 12 8q2 0 5 -1t8 -2t8 -2q37 -7 74 -7q61 0 80 18.5
t19 52.5q0 38 -22.5 55t-80.5 17h-15q-13 0 -13 14v24q0 15 13 15h15q92 0 92 63q0 36 -18 49t-68 13q-40 0 -68 -8q-15 -5 -23 -5t-10 7q-6 16 -6 29q0 11 16 16q47 15 103 15q80 0 106 -26t26 -87q0 -72 -78 -89z" />
    <glyph glyph-name="oneeighth" unicode="&#x215b;" horiz-adv-x="847" 
d="M235 -15q-10 -17 -23 -17h-15q-11 0 -11 13q0 5 6 17l332 691q11 22 24 22h16q13 0 13 -13q-1 -7 -10 -24zM167 613l-57 -25q-8 -4 -13 -4q-7 0 -10 8q-11 26 -11 31q0 6 9 10l83 38q12 5 21 5h23q14 0 14 -14v-384q0 -15 -14 -15h-31q-14 0 -14 15v335zM692 217
q84 -13 84 -103q0 -62 -36 -92t-114 -30q-80 0 -115 28.5t-35 91.5q0 85 84 105q-70 18 -70 95q0 56 34 82t106 26t103.5 -25t31.5 -82q0 -77 -73 -96zM707 306q0 33 -17.5 48t-63.5 15t-63 -15.5t-17 -49.5q0 -64 80 -64q33 0 57 15t24 51zM717 116q0 73 -91 73
q-93 0 -93 -73q0 -43 24 -59t69 -16q91 0 91 75z" />
    <glyph glyph-name="threeeighths" unicode="&#x215c;" horiz-adv-x="847" 
d="M267 -15q-10 -17 -23 -17h-15q-11 0 -11 13q0 5 6 17l332 691q11 22 24 22h16q13 0 13 -13q-1 -7 -10 -24zM231 482q90 -8 90 -101q0 -64 -36 -94.5t-120 -30.5q-62 0 -101 11q-16 5 -16 15t8 31q4 8 12 8q2 0 5 -1t8 -2t8 -2q37 -7 74 -7q61 0 80 18.5t19 52.5
q0 38 -22.5 55t-80.5 17h-15q-13 0 -13 14v24q0 15 13 15h15q92 0 92 63q0 36 -18 49t-68 13q-40 0 -68 -8q-15 -5 -23 -5t-10 7q-6 16 -6 29q0 11 16 16q47 15 103 15q80 0 106 -26t26 -87q0 -72 -78 -89zM709 217q84 -13 84 -103q0 -62 -36 -92t-114 -30q-80 0 -115 28.5
t-35 91.5q0 85 84 105q-70 18 -70 95q0 56 34 82t106 26t103.5 -25t31.5 -82q0 -77 -73 -96zM724 306q0 33 -17.5 48t-63.5 15t-63 -15.5t-17 -49.5q0 -64 80 -64q33 0 57 15t24 51zM734 116q0 73 -91 73q-93 0 -93 -73q0 -43 24 -59t69 -16q91 0 91 75z" />
    <glyph glyph-name="fiveeighths" unicode="&#x215d;" horiz-adv-x="847" 
d="M273 -15q-10 -17 -23 -17h-15q-11 0 -11 13q0 5 6 17l332 691q11 22 24 22h16q13 0 13 -13q-1 -7 -10 -24zM121 514q34 10 76 10q74 0 105.5 -29t31.5 -101q0 -138 -163 -138q-65 0 -104 11q-15 5 -15 16q0 13 7 30q5 8 13 8q2 0 5.5 -1t8.5 -2t8 -2q37 -7 78 -7
q55 0 78.5 20t23.5 63q0 47 -24 63.5t-73 16.5q-38 0 -78 -10q-1 0 -8 -2t-10 -2q-14 0 -14 16q0 10 2 24l14 161q2 17 15 17h202q13 0 13 -13v-27q0 -12 -14 -12h-168zM709 217q84 -13 84 -103q0 -62 -36 -92t-114 -30q-80 0 -115 28.5t-35 91.5q0 85 84 105q-70 18 -70 95
q0 56 34 82t106 26t103.5 -25t31.5 -82q0 -77 -73 -96zM724 306q0 33 -17.5 48t-63.5 15t-63 -15.5t-17 -49.5q0 -64 80 -64q33 0 57 15t24 51zM734 116q0 73 -91 73q-93 0 -93 -73q0 -43 24 -59t69 -16q91 0 91 75z" />
    <glyph glyph-name="seveneighths" unicode="&#x215e;" horiz-adv-x="847" 
d="M226 -15q-10 -17 -23 -17h-15q-11 0 -11 13q0 5 6 17l332 691q11 22 24 22h16q13 0 13 -13q-1 -7 -10 -24zM283 624q-42 -1 -216 -1q-15 0 -15 12v27q0 14 15 14h269q13 0 13 -12v-16q0 -17 -3 -24q-111 -231 -155 -345q-5 -16 -19 -16h-33q-14 0 -14 11q0 7 5 17
q82 196 153 333zM673 217q84 -13 84 -103q0 -62 -36 -92t-114 -30q-80 0 -115 28.5t-35 91.5q0 85 84 105q-70 18 -70 95q0 56 34 82t106 26t103.5 -25t31.5 -82q0 -77 -73 -96zM688 306q0 33 -17.5 48t-63.5 15t-63 -15.5t-17 -49.5q0 -64 80 -64q33 0 57 15t24 51z
M698 116q0 73 -91 73q-93 0 -93 -73q0 -43 24 -59t69 -16q91 0 91 75z" />
    <glyph glyph-name="arrowleft" unicode="&#x2190;" horiz-adv-x="768" 
d="M705 371q28 0 28 -22v-24q0 -24 -23 -24q-477 0 -563 2l250 -235q12 -10 12 -22q0 -10 -6 -15l-16 -19q-7 -9 -16 -10q-5 0 -16 9l-311 308q-7 6 -7 17q0 12 7 18l314 312q8 8 14 8q7 0 15 -8l16 -18q9 -7 9 -16t-8 -17l-257 -246q82 2 558 2z" />
    <glyph glyph-name="arrowup" unicode="&#x2191;" horiz-adv-x="768" 
d="M348 26q0 466 2 549q-45 -52 -249 -247q-7 -7 -15 -7q-9 0 -15 6l-15 17q-8 10 -8 16q0 8 8 16l313 311q8 8 17 8q11 0 17 -7l309 -309q8 -10 8 -16q0 -8 -8 -18l-16 -16q-7 -7 -14 -7q-11 0 -23 12q-168 165 -237 241q1 -85 1 -551q0 -24 -21 -24h-33q-21 0 -21 26z" />
    <glyph glyph-name="arrowright" unicode="&#x2192;" horiz-adv-x="768" 
d="M63 371q474 0 557 -2l-257 245q-7 6 -7 18q0 9 6 15l18 19q8 8 15 8q6 0 14 -8l314 -312q8 -7 8 -18q0 -10 -8 -17l-311 -308q-7 -7 -16 -7q-8 0 -16 8l-16 19q-6 4 -6 14q0 12 11 23l251 236q-86 -2 -563 -2q-22 0 -22 25v21q0 23 28 23z" />
    <glyph glyph-name="arrowdown" unicode="&#x2193;" horiz-adv-x="768" 
d="M348 646q0 29 21 29h33q21 0 21 -24q0 -467 -1 -552l238 242q10 12 22 12q8 0 13 -6l17 -17q8 -10 8 -17t-8 -17l-308 -309q-9 -9 -18 -9q-6 0 -17 9l-313 312q-8 8 -8 16q0 6 8 16l18 17q8 6 15 6t16 -7q152 -144 245 -247q-2 85 -2 546z" />
    <glyph glyph-name="uni2196" unicode="&#x2196;" horiz-adv-x="768" 
d="M651 126q9 -9 9 -17q0 -9 -13 -23q-20 -21 -28 -21q-7 0 -15 8l-395 392q6 -174 6 -342q0 -13 -7 -21q-4 -6 -16 -6h-25q-11 0 -17 6t-6 20v433q0 13 8 19q9 7 20 7h440q11 0 16 -5q6 -5 6 -18v-24q0 -12 -6 -18q-4 -5 -18 -5q-233 0 -358 5z" />
    <glyph glyph-name="uni2197" unicode="&#x2197;" horiz-adv-x="768" 
d="M170 77q-13 -11 -19 -11q-11 0 -21 10q-21 23 -21 32q0 12 7 18l404 391q-180 -6 -352 -6q-14 0 -21 6t-7 17v24q0 11 6 17t18 6h428q22 0 27 -8q5 -6 5 -22v-435q0 -14 -4 -18q-6 -6 -17 -6h-28q-10 0 -15 5q-6 4 -6 19q0 243 4 347z" />
    <glyph glyph-name="uni2198" unicode="&#x2198;" horiz-adv-x="768" 
d="M121 541q-12 11 -12 20q0 10 12 22q19 20 30 20q8 0 15 -7q321 -314 395 -393q0 6 -1.5 44.5t-2.5 116t-1 179.5q0 18 6 24t14 6h28q12 0 16 -7q5 -8 5 -18v-434q0 -13 -6 -19q-7 -7 -21 -7h-440q-11 0 -17 6q-5 5 -5 16v24q0 13 5 18q6 6 18 6q255 0 359 -4z" />
    <glyph glyph-name="uni2199" unicode="&#x2199;" horiz-adv-x="768" 
d="M599 594q12 10 19 10q9 0 21 -11q21 -20 21 -30q0 -11 -8 -19l-399 -387q145 5 349 5q14 0 21 -7t7 -16v-27q0 -11 -6 -17t-19 -6h-434q-12 0 -20 8q-7 7 -7 22v437q0 9 6 17q5 6 19 6h23q12 0 16 -6q6 -7 6 -20q0 -237 -4 -345q74 78 389 386z" />
    <glyph glyph-name="partialdiff" unicode="&#x2202;" horiz-adv-x="549" 
d="M412 383q-5 134 -35.5 189t-113.5 55q-69 0 -107 -14l-16 -4q-13 0 -18 14q-7 19 -7 27q0 12 15 18q49 20 145 20q122 0 165.5 -87t43.5 -308q0 -158 -53 -232t-170 -74q-198 0 -198 215q0 223 207 223q94 0 142 -42zM415 309q-41 57 -143 57q-71 0 -107.5 -36
t-36.5 -126q0 -86 36 -121t100 -35q57 0 89.5 22.5t48.5 82.5q13 47 13 156z" />
    <glyph glyph-name="Delta" unicode="&#x2206;" horiz-adv-x="656" 
d="M638 33q4 -8 4 -17q0 -16 -18 -16h-593q-19 0 -19 16q0 6 4 14l263 628q7 18 26 18h50q17 0 24 -18zM328 599q-22 -62 -217 -528h432q-198 478 -215 528z" />
    <glyph glyph-name="product" unicode="&#x220f;" horiz-adv-x="708" 
d="M182 -110q0 -23 -22 -23h-30q-22 0 -22 23v763q0 23 23 23h447q22 0 22 -24v-762q0 -23 -22 -23h-32q-21 0 -21 23v716h-343v-716z" />
    <glyph glyph-name="summation" unicode="&#x2211;" horiz-adv-x="593" 
d="M534 -131h-468q-25 0 -25 22v22q0 14 11 28l251 347l-234 322q-9 12 -9 25v20q0 21 24 21h430q23 0 23 -22v-28q0 -11 -5.5 -15t-19.5 -4h-354l216 -290q11 -14 11 -27q0 -11 -13 -30l-238 -321h401q23 0 23 -21v-29q0 -12 -5.5 -16t-18.5 -4z" />
    <glyph glyph-name="minus" unicode="&#x2212;" horiz-adv-x="701" 
d="M611 284q0 -19 -18 -19h-486q-17 0 -17 19v22q0 20 17 20h486q18 0 18 -20v-22z" />
    <glyph glyph-name="uni2215" unicode="&#x2215;" horiz-adv-x="84" 
d="M-104 -15q-10 -17 -23 -17h-15q-11 0 -11 13q0 5 6 17l332 691q11 22 24 22h16q13 0 13 -13q-1 -7 -10 -24z" />
    <glyph glyph-name="uni2219" unicode="&#x2219;" horiz-adv-x="214" 
d="M161 270q0 -55 -54 -55q-53 0 -53 54q0 55 53 55q54 0 54 -54z" />
    <glyph glyph-name="radical" unicode="&#x221a;" horiz-adv-x="638" 
d="M346 -163q-4 -18 -20 -18h-28q-15 0 -22 16l-134 268l-52 -24q-6 -3 -12 -3q-7 0 -13 11q-10 20 -10 26q0 10 12 15l91 44q6 3 14 3t13 -12l127 -255l234 771q4 18 21 18h24q17 0 17 -15q0 -3 -3 -12z" />
    <glyph glyph-name="infinity" unicode="&#x221e;" horiz-adv-x="730" 
d="M365 334q45 54 85.5 79t88.5 25q61 0 98 -40.5t37 -104.5q0 -67 -39 -109t-104 -42q-47 0 -82.5 23.5t-83.5 80.5q-49 -56 -86 -79.5t-85 -23.5q-62 0 -100.5 39t-38.5 104q0 68 40 110.5t104 42.5q46 0 82.5 -23.5t83.5 -81.5zM330 290q-42 52 -68 72.5t-64 20.5
t-63.5 -26t-25.5 -66q0 -41 24.5 -67t62.5 -26q37 0 68 23t66 69zM399 292q33 -38 48 -53.5t37.5 -28t47.5 -12.5q39 0 63 25t24 66t-23 66.5t-60 25.5q-66 0 -137 -89z" />
    <glyph glyph-name="integral" unicode="&#x222b;" horiz-adv-x="323" 
d="M144 -34q0 16 -3 88l-18 451q-2 48 -2 78q0 60 29.5 93t85.5 33q16 0 46 -5q15 -3 15 -17q0 -16 -3 -28q-3 -15 -17 -15q-1 0 -14.5 1.5t-25.5 1.5q-55 0 -55 -72q0 -26 2 -68l19 -455q3 -75 3 -90q0 -65 -29.5 -94t-90.5 -29q-18 0 -40 4q-15 3 -15 17q0 16 3 29
q3 16 18 16q1 0 13 -2t24 -2q27 0 41 13.5t14 51.5z" />
    <glyph glyph-name="approxequal" unicode="&#x2248;" horiz-adv-x="701" 
d="M141 147q-8 -10 -16 -10q-12 0 -23 11q-8 8 -8 16q0 12 5 17q39 48 72.5 67.5t72.5 19.5q41 0 120 -46q56 -34 96 -34q53 0 97 61q12 14 18 14q7 0 22 -12q10 -9 10 -17q0 -7 -7 -19q-33 -45 -64.5 -66.5t-76.5 -21.5q-50 0 -117 39q-69 40 -103 40q-49 0 -98 -59z
M141 350q-10 -12 -16 -12q-11 0 -23 12q-8 8 -8 17q0 11 5 16q38 48 72 67t73 19q42 0 120 -45q58 -34 96 -34q53 0 97 62q11 13 18 13q8 0 22 -11q10 -10 10 -17q0 -8 -7 -20q-33 -45 -64.5 -66.5t-76.5 -21.5q-48 0 -117 40q-70 39 -103 39q-27 0 -49 -13t-49 -45z" />
    <glyph glyph-name="notequal" unicode="&#x2260;" horiz-adv-x="701" 
d="M243 20q-6 -13 -20 -13h-14q-15 0 -15 10q0 9 2 13l70 136h-159q-17 0 -17 20v20q0 19 17 19h186l66 136h-252q-17 0 -17 19v21q0 19 17 19h280l68 134q7 15 21 15h15q15 0 15 -13q0 -5 -4 -13l-63 -123h154q18 0 18 -19v-21q0 -19 -18 -19h-182l-67 -136h249
q18 0 18 -19v-20q0 -20 -18 -20h-276z" />
    <glyph glyph-name="lessequal" unicode="&#x2264;" horiz-adv-x="701" 
d="M569 173q0 -18 -13 -18q-3 0 -9 2l-416 190q-14 6 -14 23v28q0 17 14 23l416 195l9 3q13 0 13 -18v-28q0 -18 -14 -22l-370 -165l370 -161q14 -6 14 -22v-30zM569 20q0 -20 -18 -20h-416q-18 0 -18 20v20q0 19 18 19h416q18 0 18 -19v-20z" />
    <glyph glyph-name="greaterequal" unicode="&#x2265;" horiz-adv-x="701" 
d="M584 371q0 -17 -15 -23l-411 -188q-10 -5 -14 -5q-12 0 -12 18v28q0 17 14 23l369 162l-369 164q-14 6 -14 22v29q0 18 12 18q3 0 9 -2l416 -194q15 -7 15 -23v-29zM584 20q0 -20 -18 -20h-417q-17 0 -17 20v20q0 19 17 19h417q18 0 18 -19v-20z" />
    <glyph glyph-name="lozenge" unicode="&#x25ca;" horiz-adv-x="708" 
d="M314 670q6 16 24 16h37q15 0 22 -15l151 -311q3 -6 3 -15q0 -7 -4 -19l-151 -312q-6 -14 -21 -14h-40q-14 0 -20 14l-157 314q-3 12 -3 16q0 1 3 16zM219 344l138 -278l132 279l-134 276z" />
    <glyph glyph-name="commaaccent" unicode="&#xf6c3;" horiz-adv-x="185" 
d="M132 -69q20 0 20 -22q0 -44 -15.5 -92t-47.5 -83q-10 -12 -21 -12q-12 0 -25 9q-10 6 -10 15q0 6 7 18q38 57 38 138q0 29 22 29h32z" />
    <glyph glyph-name="Dotlessi" horiz-adv-x="279" 
d="M177 19q0 -21 -20 -21h-36q-19 0 -19 21v668q0 21 20 21h37q18 0 18 -21v-668z" />
    <glyph glyph-name="Euro.denominator" horiz-adv-x="411" 
d="M303 231h-138v-23v-25h138q13 0 13 -11v-13q0 -10 -13 -10h-136q5 -51 28.5 -77t78.5 -26q44 0 82 10q16 4 19 4q6 0 10 -8q7 -19 7 -27q0 -10 -13 -15q-47 -17 -112 -17q-74 0 -113 35t-47 121h-46q-12 0 -12 10v13q0 11 12 11h44v17v31h-44q-12 0 -12 13v11q0 12 12 12
h47q9 80 49.5 116.5t127.5 36.5q49 0 84 -9q13 -3 13 -15q0 -10 -6 -30q-2 -7 -10 -7q-3 0 -6.5 0.5t-8 1.5t-7.5 1q-27 4 -64 4q-57 0 -82 -25t-31 -74h136q13 0 13 -12v-11q0 -13 -13 -13z" />
    <glyph glyph-name="Euro.inferior" horiz-adv-x="411" 
d="M303 105h-138v-23v-25h138q13 0 13 -11v-13q0 -10 -13 -10h-136q5 -51 28.5 -77t78.5 -26q44 0 82 10q16 4 19 4q6 0 10 -8q7 -19 7 -27q0 -10 -13 -15q-47 -17 -112 -17q-74 0 -113 35t-47 121h-46q-12 0 -12 10v13q0 11 12 11h44v17v31h-44q-12 0 -12 13v11q0 12 12 12
h47q9 80 49.5 116.5t127.5 36.5q49 0 84 -9q13 -3 13 -15q0 -10 -6 -30q-2 -7 -10 -7q-3 0 -6.5 0.5t-8 1.5t-7.5 1q-27 4 -64 4q-57 0 -82 -25t-31 -74h136q13 0 13 -12v-11q0 -13 -13 -13z" />
    <glyph glyph-name="Euro.numerator" horiz-adv-x="411" 
d="M303 495h-138v-23v-25h138q13 0 13 -11v-13q0 -10 -13 -10h-136q5 -51 28.5 -77t78.5 -26q44 0 82 10q11 4 19 4q6 0 10 -8q7 -19 7 -27q0 -10 -13 -15q-47 -17 -112 -17q-74 0 -113 35t-47 121h-46q-12 0 -12 10v13q0 11 12 11h44v17v31h-44q-12 0 -12 13v11q0 12 12 12
h47q9 80 49.5 116.5t127.5 36.5q49 0 84 -9q13 -3 13 -15q0 -16 -6 -30q-4 -7 -10 -7q-3 0 -6.5 0.5t-8 1.5t-7.5 1q-27 4 -64 4q-57 0 -82 -25t-31 -74h136q13 0 13 -12v-11q0 -13 -13 -13z" />
    <glyph glyph-name="Euro.oldstyle" horiz-adv-x="598" 
d="M451 341h-218v-39v-41h218q18 0 18 -16v-13q0 -17 -18 -17h-215q7 -78 41 -120t112 -42q69 0 120 17q18 6 24 6q7 0 12 -11q9 -23 9 -35t-17 -18q-68 -25 -152 -25q-103 0 -157 51.5t-66 176.5h-64q-18 0 -18 17v12q0 17 18 17h61v29q0 35 1 51h-62q-18 0 -18 17v12
q0 17 18 17h65q13 118 69.5 170.5t176.5 52.5q62 0 115 -11q17 -4 17 -20q0 -12 -7 -38q-3 -9 -13 -9q-3 0 -7.5 1t-11.5 2t-11 2q-44 7 -94 7q-81 0 -116.5 -40.5t-43.5 -116.5h214q18 0 18 -17v-12q0 -17 -18 -17z" />
    <glyph glyph-name="Euro.superior" horiz-adv-x="411" 
d="M303 651h-138v-23v-25h138q13 0 13 -11v-13q0 -10 -13 -10h-136q5 -51 28.5 -77t78.5 -26q44 0 82 10q16 4 19 4q6 0 10 -8q7 -19 7 -27q0 -10 -13 -15q-47 -17 -112 -17q-74 0 -113 35t-47 121h-46q-12 0 -12 10v13q0 11 12 11h44v17v31h-44q-12 0 -12 13v11q0 12 12 12
h47q9 80 49.5 116.5t127.5 36.5q49 0 84 -9q13 -3 13 -15q0 -10 -6 -30q-2 -7 -10 -7q-3 0 -6.5 0.5t-8 1.5t-7.5 1q-27 4 -64 4q-57 0 -82 -25t-31 -74h136q13 0 13 -12v-11q0 -13 -13 -13z" />
    <glyph glyph-name="Kgreenlandic" horiz-adv-x="693" 
d="M612 480q-22 0 -22 21q0 59 23 123.5t62 101.5q14 12 21 12t19 -7q11 -6 11 -16q0 -9 -7 -19q-24 -25 -41.5 -73.5t-17.5 -113.5q0 -29 -23 -29h-25zM177 19q0 -21 -20 -21h-36q-19 0 -19 21v668q0 21 20 21h37q18 0 18 -21v-285h58q31 0 44 17l197 273q12 16 28 16h38
q17 0 17 -13q0 -10 -10 -22l-223 -303l240 -332q12 -15 12 -25q0 -15 -19 -15h-41q-16 0 -27 16l-218 301q-11 17 -38 17h-58v-313z" />
    <glyph glyph-name="S_S" horiz-adv-x="1125" 
d="M347 375q91 -27 126.5 -65t35.5 -116q0 -100 -57 -153.5t-189 -53.5q-113 0 -195 34q-20 8 -20 21q0 12 9 37q5 16 22 16q8 0 27 -7q74 -30 159 -30q55 0 91 11.5t51 32.5t20 39.5t5 44.5q0 43 -25.5 71.5t-110.5 51.5l-95 26q-70 19 -106 66.5t-36 116.5q0 98 57 149.5
t184 51.5q90 0 164 -23q18 -6 18 -22q0 -10 -7 -34q-4 -14 -18 -14q-3 0 -26 5q-72 18 -137 18q-91 0 -124.5 -31.5t-33.5 -92.5q0 -47 24.5 -75t99.5 -50zM908 375q91 -27 126.5 -65t35.5 -116q0 -100 -57 -153.5t-189 -53.5q-113 0 -195 34q-20 8 -20 21q0 12 9 37
q5 16 22 16q8 0 27 -7q73 -30 159 -30q55 0 91 11.5t51 32.5t20 39.5t5 44.5q0 43 -25.5 71.5t-110.5 51.5l-95 26q-70 19 -106 66.5t-36 116.5q0 98 57 149.5t184 51.5q90 0 164 -23q18 -6 18 -22q0 -10 -7 -34q-4 -14 -18 -14q-4 0 -26 5q-72 18 -137 18
q-91 0 -124.5 -31.5t-33.5 -92.5q0 -47 24.5 -75t99.5 -50z" />
    <glyph glyph-name="a.sc" horiz-adv-x="478" 
d="M86 20q-9 -22 -23 -22h-38q-18 0 -18 13q0 7 6 23l184 468q7 17 22 17h40q15 0 22 -17l185 -470q6 -14 6 -20q0 -14 -17 -14h-38q-15 0 -24 22l-52 132h-204zM239 431q-17 -51 -81 -219h164q-63 161 -83 219z" />
    <glyph glyph-name="a.superior" horiz-adv-x="351" 
d="M238 288q-34 -30 -92 -30q-109 0 -109 97q0 51 39 73q31 19 97 19q39 0 63 -3v21q0 26 -5 36q-11 24 -63 24q-37 0 -70 -6q-4 0 -11.5 -2t-10.5 -2q-8 0 -10 9q-5 18 -5 26q0 11 11 14q39 13 105 13q72 0 97 -23q19 -18 19 -76v-199q0 -16 -15 -16h-23q-15 0 -16 11z
M236 402q-14 1 -55 1q-60 0 -74 -13q-15 -12 -15 -34q0 -26 15 -38.5t53 -12.5q40 0 62 13q7 3 10 10q4 6 4 20v54z" />
    <glyph glyph-name="aacute.sc" horiz-adv-x="478" 
d="M86 20q-9 -22 -23 -22h-38q-18 0 -18 13q0 7 6 23l184 468q7 17 22 17h40q15 0 22 -17l185 -470q6 -14 6 -20q0 -14 -17 -14h-38q-15 0 -24 22l-52 132h-204zM239 431q-17 -51 -81 -219h164q-63 161 -83 219zM231 608q-12 -12 -26 -12h-28q-15 0 -15 12q0 8 7 17l104 129
q11 14 25 14h47q15 0 15 -12q0 -8 -8 -18z" />
    <glyph glyph-name="abreve.sc" horiz-adv-x="478" 
d="M86 20q-9 -22 -23 -22h-38q-18 0 -18 13q0 7 6 23l184 468q7 17 22 17h40q15 0 22 -17l185 -470q6 -14 6 -20q0 -14 -17 -14h-38q-15 0 -24 22l-52 132h-204zM239 431q-17 -51 -81 -219h164q-63 161 -83 219zM367 733q14 0 14 -15q0 -17 -4 -36q-24 -100 -141 -100
q-63 0 -97.5 30t-40.5 78q-2 18 -2 27q0 16 16 16h25q15 0 17 -15q5 -39 22.5 -57t60.5 -18q46 0 64 18.5t23 56.5q1 15 17 15h26z" />
    <glyph glyph-name="acircumflex.sc" horiz-adv-x="478" 
d="M86 20q-9 -22 -23 -22h-38q-18 0 -18 13q0 7 6 23l184 468q7 17 22 17h40q15 0 22 -17l185 -470q6 -14 6 -20q0 -14 -17 -14h-38q-15 0 -24 22l-52 132h-204zM239 431q-17 -51 -81 -219h164q-63 161 -83 219zM137 583h-30q-14 0 -14 12q0 5 7 16l95 133q11 17 28 17h42
q13 0 24 -15l96 -134q7 -9 7 -17q0 -12 -15 -12h-30q-14 0 -25 13l-81 101l-78 -100q-12 -14 -26 -14z" />
    <glyph glyph-name="acute.cap" horiz-adv-x="197" 
d="M57 772q-12 -10 -30 -10h-38q-14 0 -14 12q0 9 10 17l134 107q14 13 31 13h58q15 0 15 -12t-11 -19z" />
    <glyph glyph-name="acute.sc" horiz-adv-x="197" 
d="M68 608q-12 -12 -26 -12h-28q-15 0 -15 12q0 8 7 17l104 129q11 14 25 14h47q15 0 15 -12q0 -8 -8 -18z" />
    <glyph glyph-name="adieresis.sc" horiz-adv-x="478" 
d="M86 20q-9 -22 -23 -22h-38q-18 0 -18 13q0 7 6 23l184 468q7 17 22 17h40q15 0 22 -17l185 -470q6 -14 6 -20q0 -14 -17 -14h-38q-15 0 -24 22l-52 132h-204zM239 431q-17 -51 -81 -219h164q-63 161 -83 219zM198 672q0 -48 -46 -48t-46 47q0 50 46 50t46 -49zM372 672
q0 -48 -46 -48t-46 47q0 50 46 50t46 -49z" />
    <glyph glyph-name="ae.sc" horiz-adv-x="766" 
d="M190 158l-100 -140q-14 -20 -27 -20h-45q-14 0 -14 12q0 9 9 21l325 470q11 16 32 16h321q19 0 19 -16v-33q0 -16 -19 -16h-230v-152h208q19 0 19 -16v-34q0 -15 -19 -15h-208v-170h242q20 0 20 -16v-34q0 -15 -20 -15h-298q-17 0 -17 17v141h-198zM226 222h162v236
q-41 -66 -162 -236z" />
    <glyph glyph-name="aeacute.sc" horiz-adv-x="766" 
d="M190 158l-100 -140q-14 -20 -27 -20h-45q-14 0 -14 12q0 9 9 21l325 470q11 16 32 16h321q19 0 19 -16v-33q0 -16 -19 -16h-230v-152h208q19 0 19 -16v-34q0 -15 -19 -15h-208v-170h242q20 0 20 -16v-34q0 -15 -20 -15h-298q-17 0 -17 17v141h-198zM226 222h162v236
q-41 -66 -162 -236zM524 608q-12 -12 -26 -12h-28q-15 0 -15 12q0 8 7 17l104 129q11 14 25 14h47q15 0 15 -12q0 -8 -8 -18z" />
    <glyph glyph-name="agrave.sc" horiz-adv-x="478" 
d="M86 20q-9 -22 -23 -22h-38q-18 0 -18 13q0 7 6 23l184 468q7 17 22 17h40q15 0 22 -17l185 -470q6 -14 6 -20q0 -14 -17 -14h-38q-15 0 -24 22l-52 132h-204zM239 431q-17 -51 -81 -219h164q-63 161 -83 219zM232 608l-121 130q-8 10 -8 18q0 12 15 12h47q14 0 25 -14
l106 -131q5 -6 5 -15q0 -12 -14 -12h-28q-15 0 -27 12z" />
    <glyph glyph-name="amacron.sc" horiz-adv-x="478" 
d="M86 20q-9 -22 -23 -22h-38q-18 0 -18 13q0 7 6 23l184 468q7 17 22 17h40q15 0 22 -17l185 -470q6 -14 6 -20q0 -14 -17 -14h-38q-15 0 -24 22l-52 132h-204zM239 431q-17 -51 -81 -219h164q-63 161 -83 219zM353 621h-231q-19 0 -19 16v33q0 18 19 18h230q19 0 19 -18
v-33q0 -16 -18 -16z" />
    <glyph glyph-name="ampersand.alt" horiz-adv-x="692" 
d="M536 71q-65 -84 -224 -84q-123 0 -185 52t-62 149q0 73 38.5 118.5t126.5 86.5q-84 88 -84 166q0 72 44.5 113t137.5 41q172 0 172 -137q0 -66 -41.5 -111t-121.5 -84l194 -200q25 53 26 174q0 21 20 21h34q18 0 18 -21q0 -154 -46 -227q18 -19 85 -84q19 -21 19 -30
q0 -16 -19 -16h-37q-20 0 -36 15q-11 9 -59 58zM430 571q0 79 -105 79q-106 0 -106 -89q0 -54 77 -135q69 33 101.5 65t32.5 80zM489 121l-219 224q-68 -32 -97.5 -65t-29.5 -88q0 -137 174 -137q127 0 172 66z" />
    <glyph glyph-name="ampersand.sc" horiz-adv-x="596" 
d="M474 210q15 -21 15 -58q0 -93 -56.5 -129t-158.5 -36q-108 0 -162 37t-54 118q0 60 28.5 91.5t83.5 43.5q-84 21 -84 113q0 71 43.5 105.5t140.5 34.5q62 0 104 -13q20 -5 20 -18q0 -14 -7 -37q-3 -10 -15 -10q-6 0 -26 5q-41 9 -76 9q-72 0 -95 -20t-23 -62
q0 -37 25.5 -59t74.5 -23q19 0 19 -14v-32q0 -15 -20 -15q-68 0 -93 -22t-25 -72q0 -54 35.5 -75t109.5 -21t110 20.5t36 80.5q0 29 -12 52q-21 -3 -84 -3q-20 0 -20 17v27q0 20 19 20q143 0 217 27q23 7 25 7q9 0 15 -12q9 -22 9 -34q0 -13 -18 -20q-37 -14 -101 -23z" />
    <glyph glyph-name="ampersand.scalt" horiz-adv-x="579" 
d="M446 48q-59 -61 -180 -61q-201 0 -201 152q0 55 27.5 89t101.5 63q-60 53 -60 120q0 57 33.5 88t113.5 31q74 0 104.5 -25t30.5 -79q0 -53 -30 -86t-93 -60q86 -86 151 -144q21 34 22 126q0 17 18 17h29q17 0 17 -17q0 -111 -40 -167l73 -62q16 -12 16 -22q0 -15 -16 -15
h-36q-20 0 -31 10q-13 9 -50 42zM352 424q0 51 -74 51q-46 0 -62 -16t-16 -44q0 -44 53 -99q55 24 77 47t22 61zM403 88q-87 76 -172 161q-54 -22 -75 -45t-21 -62q0 -95 136 -95q96 0 132 41z" />
    <glyph glyph-name="aogonek.sc" horiz-adv-x="478" 
d="M86 20q-9 -22 -23 -22h-38q-18 0 -18 13q0 7 6 23l184 468q7 17 22 17h40q15 0 22 -17l185 -470q6 -14 6 -20q0 -14 -17 -14h-8q-51 -34 -70.5 -58t-19.5 -61q0 -49 52 -49q11 0 27 2.5t19 2.5q9 0 13 -11q4 -13 4 -26q0 -11 -13 -15q-24 -8 -61 -8q-106 0 -106 96
q0 50 25 78.5t78 56.5h5q-4 4 -7 14l-52 132h-204zM239 431q-17 -51 -81 -219h164q-63 161 -83 219z" />
    <glyph glyph-name="aring.sc" horiz-adv-x="478" 
d="M86 20q-9 -22 -23 -22h-38q-18 0 -18 13q0 7 6 23l184 468q7 17 22 17h40q15 0 22 -17l185 -470q6 -14 6 -20q0 -14 -17 -14h-38q-15 0 -24 22l-52 132h-204zM239 431q-17 -51 -81 -219h164q-63 161 -83 219zM334 680q0 -45 -26.5 -69.5t-70.5 -24.5q-42 0 -67.5 24.5
t-25.5 69.5t26.5 71t69.5 26q44 0 69 -25.5t25 -71.5zM297 682q0 61 -59 61q-27 0 -43 -16t-16 -46q0 -29 16.5 -45.5t43.5 -16.5t42.5 16.5t15.5 46.5z" />
    <glyph glyph-name="aringacute.sc" horiz-adv-x="478" 
d="M86 20q-10 -22 -23 -22h-38q-18 0 -18 13q0 7 6 23l184 468q7 17 22 17h40q15 0 22 -17l185 -470q6 -14 6 -20q0 -14 -17 -14h-38q-17 0 -24 22l-52 132h-204zM239 431q-17 -51 -81 -219h164q-63 161 -83 219zM337 670q0 -45 -26.5 -69.5t-70.5 -24.5q-42 0 -67.5 24.5
t-25.5 69.5t26.5 71t69.5 26q44 0 69 -25.5t25 -71.5zM301 672q0 30 -16 46.5t-44 16.5q-27 0 -43.5 -16.5t-16.5 -47.5q0 -29 16.5 -46t44.5 -17q27 0 43 17t16 47zM250 812q-11 -12 -26 -12h-23q-13 0 -13 12q0 7 5 15l104 128q8 14 25 14h41q14 0 14 -12q0 -9 -8 -17z
" />
    <glyph glyph-name="atilde.sc" horiz-adv-x="478" 
d="M86 20q-9 -22 -23 -22h-38q-18 0 -18 13q0 7 6 23l184 468q7 17 22 17h40q15 0 22 -17l185 -470q6 -14 6 -20q0 -14 -17 -14h-38q-15 0 -24 22l-52 132h-204zM239 431q-17 -51 -81 -219h164q-63 161 -83 219zM115 608h-22q-15 0 -15 14q0 6 6 21q28 85 86 85q25 0 77 -29
q38 -21 60 -21q12 0 19.5 6.5t16.5 30.5q7 18 22 18h22q15 0 15 -13q0 -5 -6 -25q-26 -87 -85 -87q-32 0 -80 26q-45 24 -57 24q-13 0 -20.5 -6.5t-16.5 -27.5q-8 -16 -22 -16z" />
    <glyph glyph-name="b.sc" horiz-adv-x="514" 
d="M236 0h-126q-20 0 -20 19v480q0 18 18 18h129q40 0 80 -4q125 -10 125 -124q0 -94 -82 -118q100 -22 100 -120q0 -105 -81 -135q-42 -16 -143 -16zM162 62h80q68 0 94 9q50 20 50 84q0 55 -51 74q-21 9 -78 9h-95v-176zM162 299h94q55 0 71 7q42 20 42 72q0 35 -13.5 50
t-38.5 23q-17 5 -75 5h-80v-157z" />
    <glyph glyph-name="b.superior" horiz-adv-x="374" 
d="M111 279l-1 -9q0 -9 -16 -9h-21q-15 0 -15 17v428q0 14 14 14h32q13 0 13 -14v-155q33 24 104 24q58 0 87 -35t29 -116q0 -96 -35 -129.5t-114 -33.5q-57 0 -77 18zM117 324q20 -14 65 -14q59 0 77.5 22.5t18.5 86.5q0 58 -16 81t-62 23q-50 0 -72 -14q-8 -5 -10 -8
q-1 -3 -1 -14v-163z" />
    <glyph glyph-name="braceleft.cap" horiz-adv-x="313" 
d="M98 342q43 -11 65.5 -42.5t22.5 -100.5v-132q0 -58 16 -81q17 -25 86 -27q12 0 12 -16v-15q0 -15 -15 -15q-59 1 -91 10t-50 34q-23 32 -23 107v129q0 64 -20 91t-65 34q-14 3 -14 16v13q0 16 13 17q47 8 66.5 36.5t19.5 87.5v120q0 76 23 110q34 51 140 51q16 0 16 -18
v-10q0 -18 -15 -18q-69 -2 -86 -34q-13 -23 -13 -76v-125q0 -71 -21.5 -100.5t-66.5 -45.5z" />
    <glyph glyph-name="braceright.cap" horiz-adv-x="313" 
d="M212 340q-42 11 -64.5 42.5t-22.5 100.5v132q0 60 -16 81q-18 25 -86 27q-12 0 -12 16v15q0 15 15 15q59 -1 91 -10t50 -34q23 -32 23 -107v-129q0 -64 20 -90.5t65 -34.5q14 -2 14 -16v-13q0 -16 -13 -17q-47 -8 -66.5 -36.5t-19.5 -87.5v-120q0 -77 -24 -110
q-35 -51 -138 -51q-17 0 -17 18v10q0 18 15 18q69 2 87 34q12 21 12 76v125q0 70 21 100t66 46z" />
    <glyph glyph-name="bracketleft.cap" horiz-adv-x="283" 
d="M144 -39h104q13 0 13 -12v-17q0 -15 -13 -15h-153q-6 0 -10.5 5.5t-4.5 12.5v809q0 7 4.5 11.5t10.5 4.5h153q13 0 13 -12v-18q0 -13 -13 -13h-104v-756z" />
    <glyph glyph-name="bracketright.cap" horiz-adv-x="283" 
d="M138 716h-104q-13 0 -13 13v16q0 15 13 15h153q6 0 10.5 -5t4.5 -12v-809q0 -7 -4.5 -12t-10.5 -5h-153q-13 0 -13 13v18q0 13 13 13h104v755z" />
    <glyph glyph-name="breve.cap" horiz-adv-x="197" 
d="M235 905q16 0 16 -14q0 -18 -5 -37q-28 -95 -149 -95q-126 0 -147 100q-3 11 -3 30q0 16 17 16h26q16 0 18 -14q5 -35 24.5 -51.5t65.5 -16.5q49 0 68 16.5t25 51.5q1 14 17 14h27z" />
    <glyph glyph-name="breve.sc" horiz-adv-x="197" 
d="M229 733q14 0 14 -15q0 -17 -4 -36q-24 -100 -141 -100q-63 0 -97.5 30t-40.5 78q-2 18 -2 27q0 16 16 16h25q15 0 17 -15q5 -39 22.5 -57t60.5 -18q46 0 64 18.5t23 56.5q1 15 17 15h26z" />
    <glyph glyph-name="bullet.cap" horiz-adv-x="343" 
d="M290 314q0 -124 -119 -124q-118 0 -118 123q0 125 118 125q58 0 88.5 -28.5t30.5 -95.5z" />
    <glyph glyph-name="c.sc" horiz-adv-x="478" 
d="M129 262q0 -50 4.5 -82.5t19 -63.5t45.5 -46t79 -15q76 0 128 20q11 4 23 4q8 0 13 -11q7 -19 7 -34q0 -12 -16 -18q-67 -26 -163 -26q-108 0 -161 58.5t-53 202.5q0 147 52.5 212t184.5 65q74 0 127 -12q19 -4 19 -18q0 -18 -8 -40q-3 -9 -14 -9q-3 0 -7 1t-10 2t-10 2
q-46 8 -105 8q-50 0 -82 -14.5t-47.5 -44t-20.5 -61.5t-5 -80z" />
    <glyph glyph-name="cacute.sc" horiz-adv-x="478" 
d="M129 262q0 -50 4.5 -82.5t19 -63.5t45.5 -46t79 -15q76 0 128 20q11 4 23 4q8 0 13 -11q7 -19 7 -34q0 -12 -16 -18q-67 -26 -163 -26q-108 0 -161 58.5t-53 202.5q0 147 52.5 212t184.5 65q74 0 127 -12q19 -4 19 -18q0 -18 -8 -40q-3 -9 -14 -9q-3 0 -7 1t-10 2t-10 2
q-46 8 -105 8q-50 0 -82 -14.5t-47.5 -44t-20.5 -61.5t-5 -80zM287 608q-12 -12 -26 -12h-28q-15 0 -15 12q0 8 7 17l104 129q11 14 25 14h47q15 0 15 -12q0 -8 -8 -18z" />
    <glyph glyph-name="caron.alt" horiz-adv-x="188" 
d="M133 723q19 0 19 -21q0 -107 -62 -176q-9 -11 -21 -11q-13 0 -26 9q-10 7 -10 14t7 19q38 57 38 137q0 29 21 29h34z" />
    <glyph glyph-name="caron.cap" horiz-adv-x="197" 
d="M214 910h32q15 0 15 -13q0 -8 -7 -15l-106 -102q-17 -17 -31 -17h-39q-9 0 -30 18l-106 102q-6 5 -6 14q0 13 18 13h31q12 0 30 -13l85 -68l83 67q18 14 31 14z" />
    <glyph glyph-name="caron.sc" horiz-adv-x="197" 
d="M204 765h30q15 0 15 -12q0 -7 -8 -17l-95 -135q-11 -15 -27 -15h-42q-15 0 -25 15l-96 136q-6 10 -6 16q0 12 14 12h30q13 0 24 -12l83 -103l78 100q11 15 25 15z" />
    <glyph glyph-name="ccaron.sc" horiz-adv-x="478" 
d="M129 262q0 -50 4.5 -82.5t19 -63.5t45.5 -46t79 -15q76 0 128 20q11 4 23 4q8 0 13 -11q7 -19 7 -34q0 -12 -16 -18q-67 -26 -163 -26q-108 0 -161 58.5t-53 202.5q0 147 52.5 212t184.5 65q74 0 127 -12q19 -4 19 -18q0 -18 -8 -40q-3 -9 -14 -9q-3 0 -7 1t-10 2t-10 2
q-46 8 -105 8q-50 0 -82 -14.5t-47.5 -44t-20.5 -61.5t-5 -80zM374 765h30q15 0 15 -12q0 -7 -8 -17l-95 -135q-10 -15 -27 -15h-42q-15 0 -25 15l-96 136q-6 10 -6 16q0 12 14 12h30q14 0 24 -12l83 -103l78 100q11 15 25 15z" />
    <glyph glyph-name="ccedilla.sc" horiz-adv-x="478" 
d="M276 -61q57 -1 76 -23.5t19 -63.5q0 -91 -120 -91q-30 0 -50 5q-13 4 -13 16q0 9 4 23q4 13 17 13q1 0 15 -2q13 -3 31 -3q28 0 39 9t11 28q0 21 -10 30t-34 9q-3 0 -12.5 -0.5t-11.5 -0.5q-17 0 -17 17q0 11 3 29l10 58q-90 8 -134 67.5t-44 191.5q0 147 52.5 212
t184.5 65q74 0 127 -12q19 -4 19 -18q0 -18 -8 -40q-3 -9 -14 -9q-3 0 -7 1t-10 2t-10 2q-46 8 -105 8q-50 0 -82 -14.5t-47.5 -44t-20.5 -61.5t-5 -80q0 -50 4.5 -82.5t19 -63.5t45.5 -46t79 -15q76 0 128 20q11 4 23 4q8 0 13 -11q7 -19 7 -34q0 -12 -16 -18
q-65 -24 -148 -26z" />
    <glyph glyph-name="ccircumflex.sc" horiz-adv-x="478" 
d="M129 262q0 -50 4.5 -82.5t19 -63.5t45.5 -46t79 -15q76 0 128 20q11 4 23 4q8 0 13 -11q7 -19 7 -34q0 -12 -16 -18q-67 -26 -163 -26q-108 0 -161 58.5t-53 202.5q0 147 52.5 212t184.5 65q74 0 127 -12q19 -4 19 -18q0 -18 -8 -40q-3 -9 -14 -9q-3 0 -7 1t-10 2t-10 2
q-46 8 -105 8q-50 0 -82 -14.5t-47.5 -44t-20.5 -61.5t-5 -80zM173 583h-30q-14 0 -14 12q0 5 7 16l95 133q11 17 28 17h42q13 0 24 -15l96 -134q7 -9 7 -17q0 -12 -15 -12h-30q-14 0 -25 13l-81 101l-78 -100q-12 -14 -26 -14z" />
    <glyph glyph-name="cdotaccent.sc" horiz-adv-x="478" 
d="M129 262q0 -50 4.5 -82.5t19 -63.5t45.5 -46t79 -15q76 0 128 20q11 4 23 4q8 0 13 -11q7 -19 7 -34q0 -12 -16 -18q-67 -26 -163 -26q-108 0 -161 58.5t-53 202.5q0 147 52.5 212t184.5 65q74 0 127 -12q19 -4 19 -18q0 -18 -8 -40q-3 -9 -14 -9q-3 0 -7 1t-10 2t-10 2
q-46 8 -105 8q-50 0 -82 -14.5t-47.5 -44t-20.5 -61.5t-5 -80zM315 672q0 -48 -46 -48t-46 47q0 50 46 50t46 -49z" />
    <glyph glyph-name="cedilla.cap" horiz-adv-x="197" 
d="M95 -61q61 -1 81.5 -24.5t20.5 -65.5q0 -98 -130 -98q-26 0 -52 6q-15 3 -15 18q0 10 5 25q3 13 17 13q2 0 5 -0.5t7 -1.5t6 -1q22 -4 32 -4q30 0 42 9t12 29q0 21 -11 30t-37 9q-4 0 -13 -0.5t-11 -0.5q-19 0 -19 18q0 11 4 29l15 81h53z" />
    <glyph glyph-name="cedilla.sc" horiz-adv-x="197" 
d="M98 -61q57 -1 76 -23.5t19 -63.5q0 -91 -120 -91q-30 0 -50 5q-13 4 -13 16q0 9 4 23q4 13 17 13q1 0 15 -2q14 -3 31 -3q28 0 39 9t11 28q0 21 -10 30t-34 9q-3 0 -12.5 -0.5t-11.5 -0.5q-17 0 -17 17q0 11 3 29l14 76h51z" />
    <glyph glyph-name="cent.denominator" horiz-adv-x="324" 
d="M212 -45q0 -12 -12 -12h-10q-11 0 -11 12v43q-65 2 -95.5 36.5t-30.5 116.5q0 79 28.5 116t97.5 42v43q0 13 12 13h10q11 0 11 -13v-42q45 -2 67 -7q12 -3 12 -13t-5 -30q-3 -7 -10 -7q-3 0 -17 2q-18 3 -47 3v-209q35 2 55 10q9 3 14 3q7 0 10 -7q6 -12 6 -27
q0 -10 -11 -14q-29 -13 -74 -15v-44zM112 157q0 -51 13.5 -77.5t53.5 -30.5v207q-41 -5 -54 -28.5t-13 -70.5z" />
    <glyph glyph-name="cent.inferior" horiz-adv-x="324" 
d="M212 -171q0 -12 -12 -12h-10q-11 0 -11 12v43q-65 2 -95.5 36.5t-30.5 116.5q0 79 28.5 116t97.5 42v43q0 13 12 13h10q11 0 11 -13v-42q45 -2 67 -7q12 -3 12 -13t-5 -30q-3 -7 -10 -7q-3 0 -17 2q-18 3 -47 3v-209q31 1 55 10q9 3 14 3q7 0 10 -7q6 -12 6 -27
q0 -10 -11 -14q-33 -13 -74 -15v-44zM112 31q0 -51 13.5 -77.5t53.5 -29.5v206q-41 -5 -54 -28.5t-13 -70.5z" />
    <glyph glyph-name="cent.numerator" horiz-adv-x="324" 
d="M212 219q0 -12 -12 -12h-10q-11 0 -11 12v43q-65 2 -95.5 36.5t-30.5 116.5q0 79 28.5 116t97.5 42v43q0 13 12 13h10q11 0 11 -13v-42q45 -2 67 -7q12 -3 12 -13t-5 -30q-3 -7 -10 -7q-3 0 -17 2q-18 3 -47 3v-209q35 2 55 10q9 3 14 3q7 0 10 -7q6 -12 6 -27
q0 -10 -11 -14q-27 -12 -74 -16v-43zM112 421q0 -51 13.5 -77.5t53.5 -30.5v207q-41 -5 -54 -28.5t-13 -70.5z" />
    <glyph glyph-name="cent.oldstyle" horiz-adv-x="465" 
d="M302 -75q0 -19 -16 -19h-12q-17 0 -17 19v73q-89 3 -134 54t-45 170q0 112 41.5 166.5t137.5 62.5v73q0 19 18 19h12q15 0 15 -19v-71q58 -1 98 -11q17 -5 17 -17q0 -19 -6 -37q-3 -10 -12 -10q-11 0 -23 3q-36 6 -74 7v-328q33 2 83 16q20 5 21 5q8 0 12 -9q8 -21 8 -34
q0 -11 -15 -18q-40 -18 -109 -22v-73zM148 230q0 -77 23 -120t86 -49v324q-65 -8 -87 -46t-22 -109z" />
    <glyph glyph-name="cent.superior" horiz-adv-x="324" 
d="M212 375q0 -12 -12 -12h-10q-11 0 -11 12v43q-65 2 -95.5 36.5t-30.5 116.5q0 79 28.5 116t97.5 42v43q0 13 12 13h10q11 0 11 -13v-42q45 -2 67 -7q12 -3 12 -13t-5 -30q-3 -7 -10 -7q-3 0 -17 2q-18 3 -47 3v-209q35 2 55 10q9 3 14 3q7 0 10 -7q6 -12 6 -27
q0 -10 -11 -14q-27 -12 -74 -16v-43zM112 577q0 -51 13.5 -77.5t53.5 -30.5v207q-41 -5 -54 -28.5t-13 -70.5z" />
    <glyph glyph-name="circumflex.cap" horiz-adv-x="197" 
d="M-17 762h-32q-15 0 -15 13q0 8 7 15l106 102q17 17 31 17h39q11 0 28 -15l108 -105q6 -5 6 -14q0 -13 -18 -13h-31q-12 0 -30 13l-85 68l-83 -67q-18 -14 -31 -14z" />
    <glyph glyph-name="circumflex.sc" horiz-adv-x="197" 
d="M-6 583h-30q-14 0 -14 12q0 5 7 16l95 133q11 17 28 17h42q13 0 24 -15l96 -134q7 -9 7 -17q0 -12 -15 -12h-30q-14 0 -25 13l-81 101l-78 -100q-12 -14 -26 -14z" />
    <glyph glyph-name="comma.denominator" horiz-adv-x="152" 
d="M97 71q17 0 17 -15q0 -40 -16 -84.5t-42 -67.5q-10 -10 -17 -10q-9 0 -21 8q-8 5 -8 12q0 8 6 14q36 41 36 123q0 20 19 20h26z" />
    <glyph glyph-name="comma.inferior" horiz-adv-x="152" 
d="M97 -55q17 0 17 -15q0 -40 -16 -84.5t-42 -67.5q-10 -10 -17 -10q-9 0 -21 8q-8 5 -8 12q0 8 6 14q36 41 36 123q0 20 19 20h26z" />
    <glyph glyph-name="comma.numerator" horiz-adv-x="152" 
d="M97 335q17 0 17 -15q0 -40 -16 -84.5t-42 -67.5q-10 -10 -17 -10q-9 0 -21 8q-8 5 -8 12q0 8 6 14q36 41 36 123q0 20 19 20h26z" />
    <glyph glyph-name="comma.superior" horiz-adv-x="152" 
d="M97 491q17 0 17 -15q0 -40 -16 -84.5t-42 -67.5q-10 -10 -17 -10q-9 0 -21 8q-8 5 -8 12q0 8 6 14q36 41 36 123q0 20 19 20h26z" />
    <glyph glyph-name="commaaccent.sc" horiz-adv-x="185" 
d="M132 -69q20 0 20 -22q0 -44 -15.5 -92t-47.5 -83q-10 -12 -21 -12q-12 0 -25 9q-10 6 -10 15q0 6 7 18q38 57 38 138q0 29 22 29h32z" />
    <glyph glyph-name="d.sc" horiz-adv-x="571" 
d="M163 64h78q71 0 111 17q50 21 70 66.5t20 115.5q0 138 -84 174q-37 16 -118 16h-77v-389zM227 0h-120q-17 0 -17 18v482q0 17 16 17h128q94 0 143 -13q140 -38 140 -239q0 -97 -32 -158.5t-111 -88.5q-51 -18 -147 -18z" />
    <glyph glyph-name="d.superior" horiz-adv-x="375" 
d="M316 279q0 -16 -15 -16h-25q-14 0 -15 10l-2 13q-30 -29 -99 -29q-60 0 -91.5 36t-31.5 117q0 94 36.5 130t118.5 36q45 0 65 -8v138q0 14 15 14h31q13 0 13 -14v-427zM257 349v165q-17 11 -63 11q-57 0 -78 -24.5t-21 -86.5q0 -56 19 -81t64 -25q43 0 67 15q7 5 10 11
q2 4 2 15z" />
    <glyph glyph-name="dcaron.sc" horiz-adv-x="571" 
d="M163 64h78q71 0 111 17q50 21 70 66.5t20 115.5q0 138 -84 174q-37 16 -118 16h-77v-389zM227 0h-120q-17 0 -17 18v482q0 17 16 17h128q94 0 143 -13q140 -38 140 -239q0 -97 -32 -158.5t-111 -88.5q-51 -18 -147 -18zM365 765h30q15 0 15 -12q0 -7 -8 -17l-95 -135
q-11 -15 -27 -15h-42q-15 0 -25 15l-96 136q-6 10 -6 16q0 12 14 12h30q13 0 24 -12l83 -103l78 100q11 15 25 15z" />
    <glyph glyph-name="dcroat.sc" horiz-adv-x="571" 
d="M227 0h-120q-17 0 -17 18v227h-41q-18 0 -18 17v21q0 18 19 18h40v199q0 17 16 17h128q94 0 143 -13q140 -38 140 -239q0 -97 -32 -158.5t-111 -88.5q-51 -18 -147 -18zM163 64h78q71 0 111 17q50 21 70 66.5t20 115.5q0 138 -84 174q-37 16 -118 16h-77v-152h136
q19 0 19 -18v-23q0 -15 -18 -15h-137v-181z" />
    <glyph glyph-name="dieresis.cap" horiz-adv-x="197" 
d="M50 821q0 -48 -47 -48q-45 0 -45 47q0 50 45 50q47 0 47 -49zM238 821q0 -48 -47 -48q-45 0 -45 47q0 50 45 50q47 0 47 -49z" />
    <glyph glyph-name="dieresis.sc" horiz-adv-x="197" 
d="M57 672q0 -48 -46 -48t-46 47q0 50 46 50t46 -49zM231 672q0 -48 -46 -48t-46 47q0 50 46 50t46 -49z" />
    <glyph glyph-name="dollar.denominator" horiz-adv-x="365" 
d="M207 -45q0 -12 -12 -12h-11q-11 0 -11 12v41q-71 0 -117 19q-12 6 -12 14q0 10 7 26q4 12 14 12q6 0 18 -4q42 -16 90 -16v130l-32 9q-89 23 -89 110q0 105 121 115v41q0 13 12 13h10q12 0 12 -13v-40q61 -2 93 -12q11 -5 11 -15q0 -9 -5 -26q-3 -9 -12 -9q-7 0 -17 2
q-38 7 -70 9v-132l21 -5q55 -15 76.5 -38t21.5 -70q0 -109 -119 -118v-43zM110 300q0 -24 12 -37.5t51 -24.5v122q-37 -3 -50 -17.5t-13 -42.5zM268 110q0 23 -11.5 36t-49.5 23v-121q38 5 49.5 21t11.5 41z" />
    <glyph glyph-name="dollar.inferior" horiz-adv-x="365" 
d="M207 -171q0 -12 -12 -12h-11q-11 0 -11 12v41q-68 0 -117 19q-12 6 -12 14q0 10 7 26q4 12 14 12q6 0 18 -4q42 -15 90 -16v130l-32 9q-89 23 -89 110q0 105 121 115v41q0 13 12 13h10q12 0 12 -13v-40q61 -2 93 -12q11 -5 11 -15q0 -9 -5 -26q-3 -9 -12 -9q-7 0 -17 2
q-38 7 -70 9v-132l21 -5q55 -15 76.5 -38t21.5 -70q0 -107 -119 -118v-43zM110 174q0 -24 12 -37.5t51 -24.5v122q-37 -3 -50 -17.5t-13 -42.5zM268 -16q0 23 -11.5 36t-49.5 23v-120q38 5 49.5 21t11.5 40z" />
    <glyph glyph-name="dollar.numerator" horiz-adv-x="365" 
d="M207 219q0 -12 -12 -12h-11q-11 0 -11 12v41q-71 0 -117 19q-12 6 -12 14q0 10 7 26q4 12 14 12q6 0 18 -4q42 -16 90 -16v130l-32 9q-89 23 -89 110q0 105 121 115v41q0 13 12 13h10q12 0 12 -13v-40q61 -2 93 -12q11 -5 11 -15q0 -11 -5 -26q-3 -9 -12 -9q-7 0 -17 2
q-38 7 -70 9v-132l21 -5q55 -15 76.5 -38t21.5 -70q0 -108 -119 -119v-42zM110 564q0 -24 12 -37.5t51 -24.5v122q-37 -3 -50 -17.5t-13 -42.5zM268 374q0 23 -11.5 36t-49.5 23v-121q38 5 49.5 21t11.5 41z" />
    <glyph glyph-name="dollar.oldstyle" horiz-adv-x="508" 
d="M281 -77q0 -17 -15 -17h-13q-16 0 -16 17v71q-105 2 -165 28q-16 8 -16 21q0 4 8 33q6 13 18 13q4 0 22 -6q64 -25 133 -25v208l-49 14q-123 35 -123 154q0 74 41 115t131 48v72q0 18 17 18h13q14 0 14 -18v-71q80 -2 132 -18q15 -5 15 -18q0 -17 -7 -36q-3 -12 -15 -12
q-8 0 -22 4q-57 13 -103 15v-204l30 -9q77 -22 108.5 -56t31.5 -100q0 -154 -170 -168v-73zM136 440q0 -35 19 -57.5t82 -40.5v190q-60 -4 -80.5 -26.5t-20.5 -65.5zM381 160q0 33 -19 53.5t-81 39.5v-194q33 4 54.5 14t30.5 25.5t12 29t3 32.5z" />
    </font>
</defs>
</svg>
