<?xml version="1.0" standalone="no"?>
<!DOCTYPE svg PUBLIC "-//W3C//DTD SVG 1.1//EN" "http://www.w3.org/Graphics/SVG/1.1/DTD/svg11.dtd" >
<svg>
<metadata>
Created by FontForge 20090622 at Sun Feb 10 21:57:20 2019
 By deploy user
Copyright (c) 2014 by Dieter Hofrichter. All rights reserved.
</metadata>
<defs>
<font id="Orgon-ExtraLightIt" horiz-adv-x="379" >
  <font-face 
    font-family="Orgon-ExtraLightIt"
    font-weight="400"
    font-style="italic"
    font-stretch="normal"
    units-per-em="1000"
    panose-1="2 0 5 3 0 0 0 9 0 3"
    ascent="751"
    descent="-249"
    x-height="491"
    cap-height="709"
    bbox="-184 -267 1192 980"
    underline-thickness="50"
    underline-position="-50"
    slope="-12"
    unicode-range="U+0020-U+FB04"
  />
<missing-glyph horiz-adv-x="501" 
d="M0 0v707h501v-707h-501zM251 399l170 257h-341zM280 354l172 -257v514zM80 50h341l-170 258zM50 611v-514l171 257z" />
    <glyph glyph-name="f_f" unicode="ff" horiz-adv-x="595" 
d="M119 16q-3 -19 -21 -19h-22q-14 0 -14 14q0 6 3 18l88 410h-55q-14 0 -14 11t5 26q4 15 20 15h55l15 69q12 57 26.5 89t38.5 51q42 36 119 36q48 0 60 -6q9 -4 9 -13q0 -11 -6 -27q-5 -11 -16 -11q-1 0 -21 2.5t-35 2.5q-57 0 -82 -31q-24 -27 -38 -99l-13 -63h241l18 89
q22 103 66 140q43 36 118 36q43 0 61 -7q8 -3 8 -12q0 -11 -6 -27q-3 -11 -16 -11q-1 0 -21 2.5t-35 2.5q-56 0 -82 -31q-23 -27 -38 -99l-17 -83h97q14 0 14 -13q0 -8 -6 -27q-5 -12 -19 -12h-97l-91 -423q-3 -19 -20 -19h-22q-14 0 -14 14q0 7 2 15l88 413h-241z" />
    <glyph glyph-name="fi" unicode="fi" horiz-adv-x="541" 
d="M119 16q-3 -19 -21 -19h-22q-14 0 -14 14q0 7 3 19l88 409h-55q-14 0 -14 11t5 26q4 15 20 15h55l19 89q12 57 26.5 89t38.5 51q42 36 120 36q45 0 65 -6q8 -4 8 -13q0 -11 -6 -27q-3 -11 -15 -11q-2 0 -23.5 2.5t-36.5 2.5q-58 0 -84 -30q-24 -27 -38 -100l-17 -83h261
q18 0 18 -14q0 -8 -3 -20l-94 -438q-4 -22 -21 -22h-22q-14 0 -14 14q0 6 2 14l88 414h-227zM549 675q0 -29 -17 -45q-10 -10 -31 -10q-37 0 -37 31q0 28 16 44q12 12 33 12q36 0 36 -32z" />
    <glyph glyph-name="fl" unicode="fl" horiz-adv-x="542" 
d="M119 16q-3 -19 -21 -19h-22q-14 0 -14 14q0 1 3 19l88 409h-55q-14 0 -14 11t5 26q4 15 20 15h55l19 89q22 102 66 138q44 38 129 38q123 0 164 -12q12 -4 12 -15t-3 -24l-148 -687q-4 -21 -21 -21h-21q-15 0 -15 14q0 6 2 14l145 672q-48 7 -124 7q-65 0 -93 -33
q-24 -27 -38 -98l-17 -82h96q14 0 14 -13q0 -14 -4 -27q-5 -12 -20 -12h-98z" />
    <glyph glyph-name="f_f_i" unicode="ffi" horiz-adv-x="839" 
d="M119 16q-3 -19 -21 -19h-22q-14 0 -14 14q0 6 3 18l88 410h-55q-14 0 -14 11t5 26q4 15 20 15h55l15 69q12 57 26.5 89t38.5 51q42 36 119 36q48 0 60 -6q9 -4 9 -13q0 -11 -6 -27q-5 -11 -16 -11q-1 0 -21 2.5t-35 2.5q-57 0 -82 -31q-23 -26 -38 -101l-13 -61h241
l18 89q22 103 66 140q43 36 120 36q52 0 64 -6q8 -3 8 -13q0 -14 -5 -27q-5 -11 -16 -11q-2 0 -23.5 2.5t-36.5 2.5q-58 0 -84 -31q-22 -26 -38 -101l-17 -81h262q18 0 18 -14q0 -6 -3 -21l-94 -440q-3 -19 -21 -19h-22q-14 0 -14 14q0 6 2 14l88 414h-227l-91 -423
q-3 -19 -20 -19h-22q-14 0 -14 14q0 7 2 15l88 413h-241zM847 675q0 -28 -17 -45q-11 -10 -31 -10q-37 0 -37 31q0 29 15 44q13 12 33 12q37 0 37 -32z" />
    <glyph glyph-name="f_f_l" unicode="ffl" horiz-adv-x="840" 
d="M119 16q-5 -19 -21 -19h-22q-14 0 -14 14q0 4 3 16l88 412h-55q-14 0 -14 11t5 26q4 15 20 15h55l15 69q12 57 26.5 89t38.5 51q42 36 119 36q41 0 60 -6q9 -4 9 -13q0 -8 -7 -27q-3 -11 -15 -11q-2 0 -22 2.5t-35 2.5q-56 0 -81 -31q-23 -26 -39 -101l-12 -61h241l18 89
q22 102 66 138q44 38 128 38q118 0 166 -12q12 -2 12 -15q0 -6 -4 -24l-147 -689q-3 -19 -21 -19h-22q-14 0 -14 14q0 6 2 14l145 672q-48 7 -125 7q-65 0 -93 -33q-24 -27 -38 -99l-17 -81h97q14 0 14 -13q0 -10 -5 -27q-4 -12 -20 -12h-98l-90 -423q-3 -19 -20 -19h-22
q-14 0 -14 14q0 7 2 15l88 413h-241z" />
    <glyph glyph-name="T_h" unicode="Th" horiz-adv-x="1105" 
d="M269 18q-6 -21 -21 -21h-26q-15 0 -15 13q0 5 2 15l134 626h-206q-14 0 -14 11q0 4 6 29q3 15 20 15h579l6 26q3 16 20 16h21q16 0 16 -10l-3 -18l-56 -266q54 49 181 49q126 0 126 -83q0 -35 -10 -84l-69 -321q-4 -18 -21 -18h-22q-14 0 -14 14q0 5 2 13l66 311
q8 40 8 61q0 53 -87 53q-82 0 -144 -27q-16 -8 -21 -15q-7 -8 -10 -23l-78 -368q-3 -19 -22 -19h-21q-14 0 -14 14q0 6 2 14l132 626h-313z" />
    <glyph glyph-name="Tcaron_h" unicode="&#x164;h" horiz-adv-x="1105" 
d="M269 18q-6 -21 -21 -21h-26q-15 0 -15 13q0 5 2 15l134 626h-206q-14 0 -14 11q0 4 6 29q3 15 20 15h579l6 26q3 16 20 16h21q16 0 16 -10l-3 -18l-56 -266q54 49 181 49q126 0 126 -83q0 -35 -10 -84l-69 -321q-4 -18 -21 -18h-22q-14 0 -14 14q0 5 2 13l66 311
q8 40 8 61q0 53 -87 53q-82 0 -144 -27q-16 -8 -21 -15q-7 -8 -10 -23l-78 -368q-3 -19 -22 -19h-21q-14 0 -14 14q0 6 2 14l132 626h-313zM522 904h26q11 0 11 -10q0 -6 -9 -15l-123 -102q-19 -15 -31 -15h-24q-12 0 -23 13l-88 104q-5 7 -5 13q0 12 16 12h18q12 0 25 -12
l77 -72l102 72q17 12 28 12z" />
    <glyph glyph-name="f_b" unicode="fb" horiz-adv-x="852" 
d="M119 16q-3 -19 -21 -19h-22q-14 0 -14 14q0 2 3 17l88 411h-55q-14 0 -14 11t5 26q4 15 21 15h54l19 89q21 100 65 137q47 39 129 39q118 0 166 -12q11 -2 11 -16q0 -10 -3 -24l-52 -246q55 44 165 44q151 0 151 -148q0 -69 -22 -153t-62 -132q-35 -42 -84.5 -58
t-123.5 -16q-33 0 -71 8t-51 20l-5 -13q-5 -13 -20 -13h-17q-13 0 -13 13q0 10 3 17l144 670q-48 7 -124 7q-65 0 -93 -33q-24 -27 -38 -98l-17 -82h96q14 0 14 -13q0 -14 -4 -27q-5 -12 -20 -12h-98zM415 73q11 -10 45 -18t67 -8q113 0 161 56q32 37 50 108.5t18 129.5
q0 53 -28 80t-91 27q-77 0 -127 -28q-15 -8 -20 -17q-5 -10 -8 -24z" />
    <glyph glyph-name="f_f_b" unicode="ffb" horiz-adv-x="1149" 
d="M119 16q-3 -19 -21 -19h-22q-14 0 -14 14q0 3 3 15l87 413h-54q-14 0 -14 11t5 26q4 15 20 15h55l15 69q12 57 26.5 89t38.5 51q42 36 119 36q46 0 60 -6q9 -4 9 -13q0 -8 -7 -27q-3 -11 -15 -11q-2 0 -22 2.5t-35 2.5q-56 0 -81 -31q-24 -27 -38 -99l-13 -63h241l18 89
q22 102 66 138q44 38 128 38q119 0 167 -12q11 -2 11 -15q0 -6 -4 -24l-52 -247q57 44 165 44q152 0 152 -148q0 -69 -22 -153t-62 -132q-35 -42 -84.5 -58t-123.5 -16q-34 0 -72 8t-51 20l-5 -13q-4 -13 -19 -13h-17q-13 0 -13 13q0 7 2 17l145 670q-48 7 -125 7
q-65 0 -93 -33q-24 -27 -38 -99l-17 -81h97q14 0 14 -13q0 -10 -5 -27q-4 -12 -20 -12h-98l-90 -423q-3 -19 -20 -19h-22q-14 0 -14 14q0 7 2 15l88 413h-241zM713 73q11 -10 45 -18t66 -8q116 0 161 55q31 38 49.5 109.5t18.5 129.5q0 107 -119 107q-77 0 -127 -28
q-15 -8 -20 -17q-5 -10 -8 -24z" />
    <glyph glyph-name="f_f_h" unicode="ffh" horiz-adv-x="1163" 
d="M119 16q-3 -19 -21 -19h-22q-14 0 -14 14q0 3 3 15l88 413h-55q-14 0 -14 11t5 26q4 15 20 15h55l15 69q12 57 26.5 89t38.5 51q42 36 119 36q41 0 60 -6q9 -4 9 -13q0 -8 -7 -27q-3 -11 -15 -11q-2 0 -22 2.5t-35 2.5q-56 0 -81 -31q-23 -26 -39 -101l-12 -61h241l18 89
q22 102 66 138q44 38 126 38q127 0 169 -12q11 -4 11 -15q0 -6 -4 -24l-53 -251q54 49 181 49q126 0 126 -83q0 -31 -11 -84l-68 -321q-4 -18 -21 -18h-22q-14 0 -14 14q0 5 3 17l66 307q7 35 7 61q0 53 -87 53q-82 0 -144 -27q-16 -8 -21 -14q-7 -9 -11 -25l-78 -367
q-3 -19 -21 -19h-21q-15 0 -15 14q0 1 3 16l143 670q-48 7 -127 7q-62 0 -90 -33q-24 -27 -38 -99l-17 -81h97q14 0 14 -13q0 -10 -5 -27q-4 -12 -20 -12h-98l-90 -423q-3 -19 -20 -19h-22q-14 0 -14 14q0 7 2 15l88 413h-241z" />
    <glyph glyph-name="f_f_j" unicode="ffj" horiz-adv-x="848" 
d="M119 16q-3 -19 -21 -19h-22q-14 0 -14 14q0 4 3 16l87 412h-54q-14 0 -14 11t5 26q4 15 20 15h55l15 69q12 57 26.5 89t38.5 51q42 36 119 36q42 0 61 -6q8 -3 8 -13q0 -8 -7 -27q-3 -11 -15 -11q-2 0 -22 2.5t-35 2.5q-56 0 -81 -31q-23 -26 -39 -101l-12 -61h241l18 89
q22 103 66 140q43 36 118 36q40 0 61 -6q8 -3 8 -13q0 -11 -6 -27q-3 -11 -16 -11q-1 0 -21 2.5t-35 2.5q-56 0 -82 -31q-21 -24 -38 -100l-17 -82h275q14 0 14 -13q0 -6 -2 -14l-118 -551q-19 -92 -58 -124q-48 -39 -141 -39q-22 0 -22 15q0 9 5 27q3 12 24 12q64 0 93 21
q29 23 43 89l113 525h-238l-90 -423q-3 -19 -20 -19h-22q-15 0 -15 13q0 6 3 18l88 411h-241zM856 675q0 -28 -17 -45q-10 -10 -31 -10q-37 0 -37 31q0 28 16 44q12 12 33 12q36 0 36 -32z" />
    <glyph glyph-name="f_f_k" unicode="ffk" horiz-adv-x="1078" 
d="M119 16q-3 -19 -21 -19h-22q-14 0 -14 14q0 5 3 17l87 411h-54q-14 0 -14 11t5 26q4 15 20 15h55l15 69q12 57 26.5 89t38.5 51q42 36 119 36q41 0 60 -6q9 -2 9 -13q0 -8 -7 -27q-3 -11 -15 -11q-2 0 -22 2.5t-35 2.5q-56 0 -81 -31q-23 -26 -39 -101l-12 -61h241l18 89
q22 102 66 138q44 38 126 38q126 0 168 -12q12 -3 12 -15q0 -6 -4 -24l-86 -404h48q32 0 48 17l155 162q14 14 29 14h27q14 0 14 -12q0 -6 -15 -21l-180 -185l127 -243q7 -14 7 -22q0 -14 -19 -14h-22q-14 0 -23 18l-111 218q-9 17 -35 17h-60l-51 -234q-4 -19 -20 -19h-20
q-17 0 -17 13q0 1 3 16l143 671q-48 7 -127 7q-62 0 -90 -33q-24 -27 -38 -99l-17 -81h97q14 0 14 -13q0 -10 -5 -27q-4 -12 -20 -12h-98l-90 -423q-3 -19 -20 -19h-22q-14 0 -14 14q0 7 2 15l88 413h-241z" />
    <glyph glyph-name="f_h" unicode="fh" horiz-adv-x="866" 
d="M119 16q-3 -19 -21 -19h-22q-14 0 -14 14q0 9 3 15l87 413h-54q-14 0 -14 11t5 26q4 15 20 15h55l19 89q21 99 66 138q46 38 125 38q129 0 169 -12q11 -4 11 -15t-3 -24l-54 -251q54 49 181 49t127 -83q0 -31 -11 -84l-69 -321q-4 -18 -21 -18h-21q-15 0 -15 14q0 1 3 13
l66 311q7 35 7 61q0 53 -86 53q-83 0 -145 -27q-19 -12 -21 -14q-6 -7 -10 -25l-78 -367q-5 -19 -21 -19h-22q-14 0 -14 14q0 6 2 14l144 672q-48 7 -127 7q-62 0 -90 -33q-24 -29 -39 -99l-16 -81h96q14 0 14 -13q0 -12 -4 -27q-3 -12 -20 -12h-98z" />
    <glyph glyph-name="f_j" unicode="fj" horiz-adv-x="550" 
d="M119 16q-3 -19 -21 -19h-22q-14 0 -14 14q0 4 3 16l88 412h-55q-14 0 -14 11t5 26q4 15 20 15h55l19 89q12 57 26.5 89t38.5 51q42 36 119 36q42 0 60 -6q9 -3 9 -13q0 -11 -6 -27q-5 -11 -16 -11q-1 0 -21 2.5t-35 2.5q-57 0 -82 -31q-23 -26 -38 -101l-17 -81h274
q14 0 14 -13q0 -6 -2 -14l-117 -551q-19 -91 -59 -124q-48 -39 -141 -39q-21 0 -21 15q0 14 4 26q4 13 24 13q64 0 93 21q28 22 43 89l113 525h-237zM558 675q0 -29 -17 -45q-10 -10 -31 -10q-37 0 -37 31q0 28 16 44q12 12 33 12q36 0 36 -32z" />
    <glyph glyph-name="f_k" unicode="fk" horiz-adv-x="781" 
d="M119 16q-3 -19 -21 -19h-22q-14 0 -14 14q0 4 3 16l88 412h-55q-14 0 -14 11t5 26q4 15 20 15h55l19 89q21 99 66 138q46 38 125 38q127 0 169 -12q11 -4 11 -15t-3 -24l-87 -404h49q32 0 48 17l154 162q14 14 29 14h27q15 0 15 -12q0 -7 -15 -22l-180 -184q8 -14 45 -86
l82 -157q6 -12 6 -22q0 -14 -19 -14h-21q-14 0 -23 18l-111 218q-9 17 -35 17h-61l-50 -234q-4 -19 -21 -19h-20q-16 0 -16 13q0 6 2 16l144 671q-48 7 -127 7q-62 0 -90 -33q-23 -26 -39 -99l-16 -81h96q14 0 14 -13q0 -14 -4 -27q-5 -12 -20 -12h-98z" />
    <glyph glyph-name="uni0162_h" unicode="&#x162;h" horiz-adv-x="1105" 
d="M235 -66q87 -1 87 -74q0 -56 -33 -80.5t-98 -24.5q-32 0 -50 6q-10 3 -10 13q0 9 4 21q3 12 16 12q5 0 14 -3q20 -4 34 -4q33 0 49.5 11t16.5 41q0 38 -46 38q-4 0 -12 -0.5t-10 -0.5q-16 0 -16 17q0 4 8 28l22 66q-4 1 -4 10q0 5 2 15l134 626h-206q-14 0 -14 11
q0 4 6 29q3 15 20 15h579l6 26q3 16 20 16h21q16 0 16 -10l-3 -18l-56 -266q54 49 181 49q126 0 126 -83q0 -35 -10 -84l-69 -321q-4 -18 -21 -18h-22q-14 0 -14 14q0 5 2 13l66 311q8 40 8 61q0 53 -87 53q-82 0 -144 -27q-16 -8 -21 -15q-7 -8 -10 -23l-78 -368
q-3 -19 -22 -19h-21q-14 0 -14 14q0 6 2 14l132 626h-313l-134 -633q-6 -18 -14 -20z" />
    <glyph glyph-name="uni021A_h" unicode="&#x21a;h" horiz-adv-x="1105" 
d="M269 18q-6 -21 -21 -21h-26q-15 0 -15 13q0 5 2 15l134 626h-206q-14 0 -14 11q0 4 6 29q3 15 20 15h579l6 26q3 16 20 16h21q16 0 16 -10l-3 -18l-56 -266q54 49 181 49q126 0 126 -83q0 -35 -10 -84l-69 -321q-4 -18 -21 -18h-22q-14 0 -14 14q0 5 2 13l66 311
q8 40 8 61q0 53 -87 53q-82 0 -144 -27q-16 -8 -21 -15q-7 -8 -10 -23l-78 -368q-3 -19 -22 -19h-21q-14 0 -14 14q0 6 2 14l132 626h-313zM237 -71q17 0 17 -17q0 -14 -11 -47q-27 -78 -78 -122q-12 -10 -21 -10q-7 0 -19 8q-7 7 -7 13q0 8 10 16q51 54 62 134q4 25 23 25
h24z" />
    <glyph glyph-name=".notdef" horiz-adv-x="501" 
d="M0 0v707h501v-707h-501zM251 399l170 257h-341zM280 354l172 -257v514zM80 50h341l-170 258zM50 611v-514l171 257z" />
    <glyph glyph-name=".null" horiz-adv-x="0" 
 />
    <glyph glyph-name="nonmarkingreturn" horiz-adv-x="333" 
 />
    <glyph glyph-name="space" unicode=" " horiz-adv-x="224" 
 />
    <glyph glyph-name="exclam" unicode="!" horiz-adv-x="281" 
d="M192 229q-3 -19 -18 -19h-20q-15 0 -15 13q0 2 0.5 5t1.5 7t1 6l39 203l25 130l14 68q6 25 7.5 32.5t1.5 9.5q5 22 24 22h27q17 0 17 -17q0 -4 -105 -460zM174 48q0 -31 -19 -47q-11 -11 -31 -11q-39 0 -39 34q0 29 17 45q13 13 34 13q38 0 38 -34z" />
    <glyph glyph-name="quotedbl" unicode="&#x22;" horiz-adv-x="336" 
d="M328 479q-4 -16 -18 -16h-18q-12 0 -12 12l2 16l36 205q5 20 23 20h26q15 0 15 -13q0 -9 -3 -21zM178 479q-4 -16 -18 -16h-17q-13 0 -13 12l2 16l36 205q5 20 23 20h26q15 0 15 -13q0 -9 -3 -21z" />
    <glyph glyph-name="numbersign" unicode="#" horiz-adv-x="597" 
d="M214 223l-57 -221q-6 -18 -21 -18h-11q-14 0 -14 13q0 7 4 21l52 205h-90q-16 0 -16 13q0 4 2 26q3 17 20 17h98l33 128h-97q-16 0 -16 12q0 11 3 27q1 16 19 16h105l53 206q5 23 23 23h10q15 0 15 -12q0 -6 -4 -22l-50 -195h161l53 206q6 23 23 23h11q15 0 15 -14
q0 -2 -4 -20l-50 -195h91q16 0 16 -13q0 -11 -3 -28q-3 -14 -17 -14h-102l-33 -128h99q16 0 16 -13q0 -11 -3 -29q-3 -14 -17 -14h-109l-56 -221q-6 -18 -21 -18h-12q-14 0 -14 13q0 4 4 20l53 206h-162zM227 279h163l32 128h-161z" />
    <glyph glyph-name="dollar" unicode="$" horiz-adv-x="544" 
d="M243 -76q-4 -18 -19 -18h-13q-13 0 -13 12q0 3 2 13l13 63q-104 2 -164 34q-12 7 -12 17q0 7 8 25q8 14 19 14q5 0 21 -7q60 -29 140 -30l56 265l-50 21q-96 40 -96 142q0 96 59 145t164 55l15 69q4 18 18 18h14q13 0 13 -11q0 -4 -3 -16l-13 -59q69 -2 127 -19
q11 -4 11 -17t-8 -29q-3 -9 -17 -9q-3 0 -21 5q-55 14 -103 16l-57 -269l23 -10q125 -42 125 -138q0 -100 -58.5 -152.5t-165.5 -58.5zM195 482q0 -37 20 -60t73 -47l6 -3l53 251q-74 -3 -113 -34.5t-39 -106.5zM420 192q0 34 -19.5 56t-78.5 47l-53 -247q151 12 151 144z
" />
    <glyph glyph-name="percent" unicode="%" horiz-adv-x="842" 
d="M402 572q0 -54 -19.5 -135.5t-50.5 -124.5q-42 -57 -127 -57q-67 0 -99 26t-32 92q0 55 18 126.5t49 116.5q44 64 133 64q67 0 97.5 -22.5t30.5 -85.5zM350 563q0 40 -17 56.5t-66 16.5q-56 0 -86 -46q-24 -36 -39.5 -100.5t-15.5 -110.5q0 -44 18.5 -61.5t65.5 -17.5
q58 0 84 42q23 35 39.5 107.5t16.5 113.5zM246 -16q-12 -16 -25 -16h-15q-11 0 -11 10q0 7 10 20l449 691q14 22 28 22h16q11 0 11 -10q0 -8 -13 -27zM824 308q0 -55 -19 -136.5t-50 -123.5q-42 -57 -128 -57q-67 0 -99 26t-32 92q0 55 18 126.5t49 116.5q45 64 133 64
q68 0 98 -22.5t30 -85.5zM772 299q0 40 -16.5 56.5t-65.5 16.5q-56 0 -87 -46q-24 -36 -39.5 -100.5t-15.5 -110.5q0 -44 18.5 -61.5t65.5 -17.5q58 0 85 42q23 35 39 107.5t16 113.5z" />
    <glyph glyph-name="ampersand" unicode="&#x26;" horiz-adv-x="707" 
d="M574 287q5 -15 5 -40q0 -260 -290 -260q-107 0 -168.5 38.5t-61.5 118.5q0 107 58 172q43 47 120 63q-77 30 -77 120q0 54 23.5 103.5t69.5 76.5q54 34 162 34q67 0 113 -16q20 -7 20 -18q0 -10 -9 -32q-3 -8 -16 -8q-1 0 -31 7q-41 11 -84 11q-86 0 -126 -24
q-62 -39 -62 -130q0 -47 29.5 -77t84.5 -30q19 0 19 -12q0 -13 -3 -26q-4 -15 -24 -15q-120 0 -164 -57q-42 -52 -42 -128q0 -116 177 -116q106 0 165.5 45t59.5 159q0 9 -5 34q-18 -3 -65 -3q-33 0 -57 2q-15 2 -15 13q0 10 3 24q4 16 19 16q19 -1 59 -1q137 0 223 34
q23 10 30 10q8 0 14 -11q4 -16 4 -21q0 -8 -5 -12.5t-21 -10.5q-63 -22 -132 -33z" />
    <glyph glyph-name="quotesingle" unicode="'" horiz-adv-x="185" 
d="M178 479q-4 -16 -18 -16h-17q-13 0 -13 12l2 16l36 205q5 20 23 20h26q15 0 15 -13q0 -9 -3 -21z" />
    <glyph glyph-name="parenleft" unicode="(" horiz-adv-x="308" 
d="M388 714q-133 -77 -207.5 -225.5t-74.5 -337.5q0 -99 28.5 -162t74.5 -114q3 -5 3 -10q0 -7 -8 -13q-7 -6 -12 -6q-8 0 -20 8q-50 38 -87 113.5t-37 185.5q0 118 31 229t103 209.5t176 148.5q14 8 21 8t12 -8q6 -8 6 -14q0 -5 -9 -12z" />
    <glyph glyph-name="parenright" unicode=")" horiz-adv-x="307" 
d="M-51 -120q134 80 208 227t74 336q0 98 -28.5 161t-74.5 115q-3 4 -3 11q0 2 6 10t15 8q6 0 18 -8q49 -37 86.5 -112.5t37.5 -186.5q0 -87 -18 -172.5t-54 -165.5t-97 -145.5t-140 -103.5q-14 -8 -21 -8q-8 0 -13 8t-5 14q0 5 9 12z" />
    <glyph glyph-name="asterisk" unicode="*" horiz-adv-x="405" 
d="M263 474l-96 -95q-7 -7 -13 -7q-10 0 -23 15q-4 5 -4 12q0 8 6 14q37 37 104 91q-16 8 -58 27t-64 31q-11 5 -11 17q0 8 8 21q5 9 16 9q2 0 17 -5l111 -63q7 71 16 131q3 20 18 20q9 0 18 -3q14 -3 14 -15q0 -6 -2 -16q-5 -26 -14.5 -67.5t-12.5 -55.5q13 2 54.5 10
t61.5 11q18 2 24 2q12 0 13 -13q3 -15 3 -20q-1 -11 -16 -14q-47 -8 -137 -17q43 -71 68 -118q3 -8 3 -13q0 -7 -10 -14q-16 -8 -22 -8q-8 0 -13 10q-47 96 -59 123z" />
    <glyph glyph-name="plus" unicode="+" horiz-adv-x="701" 
d="M349 49q-3 -14 -17 -14h-18q-15 0 -15 14q0 2 2 12l46 208h-218q-14 0 -14 14q0 11 2 22q3 16 18 16h220l46 216q3 17 17 17h20q14 0 14 -14q0 -5 -2 -15l-44 -204h218q14 0 14 -14q0 -7 -3 -22q-2 -16 -18 -16h-221z" />
    <glyph glyph-name="comma" unicode="," horiz-adv-x="206" 
d="M94 92q18 0 18 -16q0 -4 -5 -27q-14 -53 -51 -108.5t-80 -88.5q-10 -9 -22 -9q-11 0 -17 8q-6 6 -6 14t11 17q84 68 102 183q3 27 24 27h26z" />
    <glyph glyph-name="hyphen" unicode="-" horiz-adv-x="326" 
d="M266 241h-193q-13 0 -13 11q0 6 5 27q4 15 20 15h190q15 0 15 -11q0 -2 -6 -30q-4 -12 -18 -12z" />
    <glyph glyph-name="period" unicode="." horiz-adv-x="207" 
d="M111 48q0 -30 -18 -47q-13 -11 -32 -11q-39 0 -39 34q0 29 17 45q13 13 34 13q38 0 38 -34z" />
    <glyph glyph-name="slash" unicode="/" horiz-adv-x="370" 
d="M26 -82q-8 -18 -24 -18h-17q-14 0 -14 11q0 6 7 20l418 797q11 23 25 23h19q13 0 13 -12q0 -3 -11 -27z" />
    <glyph glyph-name="zero" unicode="0" horiz-adv-x="553" 
d="M552 505q0 -88 -28.5 -220t-74.5 -203q-35 -52 -82 -74.5t-113 -22.5q-101 0 -149 42.5t-48 148.5q0 91 27 207.5t73 190.5q68 107 202 107q103 0 148 -37t45 -139zM490 495q0 70 -28.5 101t-110.5 31q-95 0 -146 -83q-38 -63 -62.5 -173t-24.5 -188t31 -110.5t111 -32.5
q49 0 83 16t60 58q38 60 62.5 182.5t24.5 198.5z" />
    <glyph glyph-name="one" unicode="1" horiz-adv-x="553" 
d="M341 608l-108 -45q-16 -6 -20 -6q-8 0 -11 8q-8 17 -8 25q0 10 15 17l142 61q18 8 30 8h13q16 0 16 -14l-3 -18l-134 -627q-4 -20 -21 -20h-22q-16 0 -16 13q0 9 3 21z" />
    <glyph glyph-name="two" unicode="2" horiz-adv-x="553" 
d="M431 0h-405q-15 0 -15 13q0 8 3 23q3 12 12 18l56 41l63 46l57 43l62 48l52 44l51 48q94 92 94 197q0 112 -134 112q-61 0 -119 -21q-30 -10 -34 -10q-8 0 -13 9q-6 13 -6 25t29 22q81 30 159 30q181 0 181 -155q0 -131 -107 -233q-142 -138 -312 -246q59 1 335 1
q17 0 17 -12q0 -9 -5 -29q-3 -14 -21 -14z" />
    <glyph glyph-name="three" unicode="3" horiz-adv-x="553" 
d="M357 355q52 -5 81 -37t29 -90q0 -109 -53 -169q-65 -72 -217 -72q-91 0 -143 21q-20 8 -20 19q0 15 11 31q5 8 15 8q2 0 31 -9q54 -15 114 -15q120 0 164 53q38 43 38 129q0 51 -36 77t-120 26h-21q-16 0 -16 13t3 25q4 16 23 16h21q93 0 142 42q43 36 43 118
q0 47 -30 69.5t-95 22.5q-68 0 -118 -19q-25 -10 -32 -10q-9 0 -13 10q-6 13 -6 25q0 11 28 22q71 27 154 27q95 0 134.5 -36t39.5 -104q0 -81 -36 -127t-115 -66z" />
    <glyph glyph-name="four" unicode="4" horiz-adv-x="553" 
d="M386 16q-5 -19 -20 -19h-24q-15 0 -15 13q0 4 2 14l35 160h-298q-18 0 -18 17q0 14 4 25q3 10 13 22l312 405q18 23 34 23h23q14 0 14 -12q0 -7 -13 -25l-310 -401h251l39 185q5 18 19 18h23q16 0 16 -12q0 -5 -2 -17l-38 -174h97q18 0 18 -12q0 -2 -5 -29
q-3 -13 -21 -13h-100z" />
    <glyph glyph-name="five" unicode="5" horiz-adv-x="553" 
d="M181 402q57 20 122 20q95 0 141.5 -35.5t46.5 -116.5q0 -135 -70.5 -209t-218.5 -74q-97 0 -154 21q-17 7 -17 18q0 13 10 31q5 10 16 10q3 0 7.5 -1.5t11.5 -4.5t12 -4q60 -15 124 -15q112 0 164 55t52 163q0 61 -35.5 84.5t-107.5 23.5q-57 0 -133 -21q-17 -5 -22 -5
q-15 0 -15 15q0 5 8 33l73 261q7 25 26 25h287q16 0 16 -11t-5 -30q-4 -13 -22 -13h-256z" />
    <glyph glyph-name="six" unicode="6" horiz-adv-x="553" 
d="M144 335q66 88 200 88q170 0 170 -153q0 -137 -69 -214q-60 -69 -191 -69q-186 0 -186 186q0 104 37 235.5t101 197.5q79 82 221 82q77 0 113 -13q8 -4 8 -13q0 -16 -8 -32q-4 -9 -12 -9l-24 4q-45 9 -81 9q-119 0 -178 -67q-33 -36 -55 -90.5t-46 -141.5zM124 176
q0 -60 28.5 -97t105.5 -37q105 0 149 57q47 59 47 157q0 50 -29.5 81.5t-94.5 31.5q-56 0 -106.5 -23.5t-78.5 -61.5q-9 -13 -14 -36q-7 -34 -7 -72z" />
    <glyph glyph-name="seven" unicode="7" horiz-adv-x="553" 
d="M480 623q-61 -1 -352 -1q-17 0 -17 12q0 8 4 27q4 15 21 15h400q18 0 18 -13q0 -11 -2 -19q-2 -13 -13 -29q-223 -356 -347 -594q-14 -24 -29 -24h-22q-18 0 -18 13q0 8 10 28q154 285 347 585z" />
    <glyph glyph-name="eight" unicode="8" horiz-adv-x="553" 
d="M402 352q51 -8 78 -42.5t27 -88.5q0 -119 -68.5 -176.5t-189.5 -57.5q-96 0 -147 41.5t-51 113.5q0 185 172 219q-40 12 -62 42.5t-22 70.5q0 107 62.5 160.5t176.5 53.5q174 0 174 -132q0 -164 -150 -204zM446 216q0 56 -38 83.5t-102 27.5q-195 0 -195 -172
q0 -60 40.5 -87t105.5 -27q90 0 139.5 43.5t49.5 131.5zM493 543q0 91 -127 91q-168 0 -168 -155q0 -50 33.5 -74.5t87.5 -24.5q78 0 126 43.5t48 119.5z" />
    <glyph glyph-name="nine" unicode="9" horiz-adv-x="553" 
d="M465 339q-62 -85 -197 -85q-87 0 -129.5 41t-42.5 113q0 133 68 210q64 70 191 70q186 0 186 -185q0 -107 -34 -238t-98 -197q-79 -82 -221 -82q-86 0 -120 14q-8 3 -8 12q0 14 8 32q4 10 12 10q4 0 13.5 -2.5t10.5 -2.5q40 -8 85 -8q123 0 180 66q57 64 96 232zM484 501
q0 61 -28 96.5t-105 35.5q-104 0 -148 -57q-48 -60 -48 -155q0 -51 30.5 -82t96.5 -31q58 0 106 22.5t74 60.5q10 14 15 36q7 31 7 74z" />
    <glyph glyph-name="colon" unicode=":" horiz-adv-x="226" 
d="M131 48q0 -30 -18 -47q-13 -11 -32 -11q-39 0 -39 34q0 29 17 45q13 13 34 13q38 0 38 -34zM219 458q0 -33 -18 -47q-13 -11 -32 -11q-39 0 -39 33q0 29 18 46q15 13 33 13q38 0 38 -34z" />
    <glyph glyph-name="semicolon" unicode=";" horiz-adv-x="226" 
d="M219 458q0 -33 -18 -47q-13 -11 -32 -11q-39 0 -39 33q0 29 18 46q15 13 33 13q38 0 38 -34zM114 92q18 0 18 -16q0 -4 -5 -27q-14 -55 -50.5 -109.5t-80.5 -86.5q-14 -10 -22 -10q-11 0 -17 8q-6 6 -6 14t11 17q32 26 61.5 72t40.5 111q5 27 24 27h26z" />
    <glyph glyph-name="less" unicode="&#x3c;" horiz-adv-x="701" 
d="M557 69q-3 -13 -12 -13q-3 0 -11 4l-374 199q-9 5 -9 16q0 9 4 29q3 14 14 20l463 205q4 3 12 3q10 0 10 -11q0 -8 -5 -32q-3 -13 -14 -18l-425 -183l341 -175q10 -5 10 -17q0 -9 -4 -27z" />
    <glyph glyph-name="equal" unicode="=" horiz-adv-x="701" 
d="M616 187q-2 -15 -17 -15h-489q-14 0 -14 13q0 7 3 23q2 14 17 14h489q14 0 14 -14q0 -4 -3 -21zM657 377q-1 -15 -17 -15h-489q-14 0 -14 15q0 8 4 21q1 15 17 15h488q15 0 15 -14q0 -7 -4 -22z" />
    <glyph glyph-name="greater" unicode="&#x3e;" horiz-adv-x="701" 
d="M199 519q3 14 11 14q7 0 11 -2l374 -200q10 -5 10 -16q0 -7 -4 -30q-3 -15 -14 -19l-462 -204q-10 -4 -13 -4q-10 0 -10 12q0 1 5 31q3 14 14 19l424 183l-340 174q-10 5 -10 17q0 11 4 25z" />
    <glyph glyph-name="question" unicode="?" horiz-adv-x="399" 
d="M180 210h-20q-12 0 -12 16t8 53q11 54 32 83t75 59q57 32 86 66.5t29 91.5q0 85 -101 85q-57 0 -116 -19q-9 -3 -15 -3q-9 0 -12 10q-4 18 -4 24q0 10 13 17q64 26 145 26q79 0 116 -36t37 -89q0 -70 -32 -115.5t-103 -88.5q-51 -30 -68 -49.5t-29 -59.5
q-4 -12 -7.5 -32.5t-4.5 -23.5q-3 -15 -17 -15zM193 48q0 -31 -19 -47q-11 -11 -31 -11q-39 0 -39 34q0 29 17 45q13 13 34 13q38 0 38 -34z" />
    <glyph glyph-name="at" unicode="@" horiz-adv-x="803" 
d="M495 109q-51 -54 -138 -54q-58 0 -88.5 30.5t-30.5 86.5q0 68 32.5 139.5t87.5 115.5q57 47 148 48q53 0 87 -20l2 5q6 12 19 12h10q12 0 12 -10q0 -5 -5 -22l-77 -272q-9 -34 -9 -40q0 -24 22 -24q21 0 46 14q60 37 93.5 112.5t33.5 158.5q0 221 -241 221
q-111 0 -199.5 -59t-135 -154.5t-46.5 -206.5q0 -129 71 -198t214 -69q51 0 93 5.5t64.5 11.5t60.5 19q24 8 27 8q8 0 13 -14q2 -10 2 -14q0 -8 -25 -18q-108 -42 -241 -42q-156 0 -240.5 78.5t-84.5 229.5q0 89 30 171.5t83.5 147.5t136.5 104t181 39q135 0 209 -64
t74 -190q0 -77 -28 -152.5t-84 -128.5t-126 -53q-27 0 -39.5 11t-13.5 37zM577 415q-28 17 -80 17q-69 -1 -112 -38q-43 -35 -69 -94.5t-26 -118.5q0 -81 85 -81q57 0 102 35q10 7 16 15q5 6 13 29z" />
    <glyph glyph-name="A" unicode="A" horiz-adv-x="575" 
d="M35 21q-14 -24 -29 -24h-26q-15 0 -15 14q0 7 12 26l376 654q11 18 25 18h22q18 0 21 -19l98 -653q3 -15 3 -23t-6.5 -12.5t-13.5 -4.5h-21q-10 0 -14 5t-6 20q-20 119 -33 211h-271zM374 624l-188 -336h235q-18 123 -31.5 224.5t-15.5 111.5z" />
    <glyph glyph-name="B" unicode="B" horiz-adv-x="609" 
d="M222 0h-146q-15 0 -15 14q0 4 3 13l140 659q4 20 21 20h127q62 0 102 -5q124 -15 124 -137q0 -166 -132 -194q93 -19 93 -128q0 -175 -131 -222q-56 -20 -186 -20zM129 55h107q113 0 152 16q88 35 88 163q0 68 -46 91q-30 15 -109 15h-131zM201 395h129q74 0 109 15
q78 34 78 144q0 68 -58 87q-28 10 -117 10h-86z" />
    <glyph glyph-name="C" unicode="C" horiz-adv-x="589" 
d="M139 218q0 -175 168 -175q104 0 173 22q24 8 29 8q8 0 13 -15q4 -11 4 -20q0 -13 -25 -22q-81 -29 -198 -29q-225 0 -225 223q0 103 32.5 225.5t92.5 191.5q42 48 101.5 70t148.5 22q76 0 145 -15q20 -4 20 -19q0 -12 -9 -30q-4 -9 -15 -9q-7 0 -33 6q-51 11 -137 11
q-109 0 -176 -72q-51 -56 -80 -167t-29 -206z" />
    <glyph glyph-name="D" unicode="D" horiz-adv-x="682" 
d="M129 56h101q130 0 188 25q64 26 107 94t58.5 141t15.5 150q0 121 -78 160q-47 24 -171 24h-94zM211 0h-133q-17 0 -17 12q0 6 3 17l140 658q4 19 20 19h135q112 0 177 -20q62 -19 94 -72.5t32 -133.5q0 -70 -11 -136t-36.5 -132t-74 -115.5t-115.5 -72.5
q-73 -24 -214 -24z" />
    <glyph glyph-name="E" unicode="E" horiz-adv-x="543" 
d="M441 0h-365q-15 0 -15 12q0 6 3 18l141 656q4 20 21 20h331q16 0 16 -11q0 -4 -5 -31q-3 -14 -22 -14h-290l-55 -254h270q17 0 17 -12q0 -9 -5 -29q-4 -15 -22 -15h-271l-61 -284h325q16 0 16 -12q0 -10 -6 -30q-4 -14 -23 -14z" />
    <glyph glyph-name="F" unicode="F" horiz-adv-x="505" 
d="M184 317l-63 -300q-4 -20 -21 -20h-25q-14 0 -14 13q0 6 2 16l142 660q4 20 20 20h333q15 0 15 -12q0 -10 -4 -30q-4 -14 -22 -14h-291l-61 -277h260q17 0 17 -12q0 -7 -5 -29q-4 -15 -22 -15h-261z" />
    <glyph glyph-name="G" unicode="G" horiz-adv-x="659" 
d="M567 61q-7 -25 -27 -34q-88 -40 -222 -40q-240 0 -240 222q0 106 33.5 228t94.5 192q80 90 253 90q77 0 151 -16q20 -5 20 -18q0 -12 -9 -32q-5 -9 -15 -9q-7 0 -33 6q-52 13 -142 13q-118 0 -181 -70q-51 -57 -81 -169t-30 -206q0 -79 43.5 -127t141.5 -48q111 0 187 31
l48 216h-169q-15 0 -15 11q0 1 4 29q3 15 21 15h204q19 0 19 -15q0 -2 -0.5 -5t-1.5 -7.5t-1 -7.5z" />
    <glyph glyph-name="H" unicode="H" horiz-adv-x="690" 
d="M121 16q-5 -19 -21 -19h-25q-14 0 -14 13q0 6 2 16l142 663q4 20 22 20h24q15 0 15 -12q0 -5 -3 -20l-62 -281h362l63 293q4 20 22 20h25q14 0 14 -12q0 -5 -3 -20l-142 -661q-3 -19 -20 -19h-25q-15 0 -15 13q0 6 2 16l67 314h-361z" />
    <glyph glyph-name="I" unicode="I" horiz-adv-x="268" 
d="M121 16q-5 -19 -21 -19h-25q-14 0 -14 13q0 6 2 16l142 663q4 20 22 20h24q15 0 15 -12q0 -5 -3 -20z" />
    <glyph glyph-name="J" unicode="J" horiz-adv-x="270" 
d="M134 63q-19 -90 -59 -126q-44 -40 -123 -40q-24 0 -38 3q-13 2 -13 14q0 10 5 27q3 12 18 12q1 0 15 -1t22 -1q43 0 70 21q27 20 43 95l133 622q4 20 22 20h24q15 0 15 -12q0 -4 -3 -19z" />
    <glyph glyph-name="K" unicode="K" horiz-adv-x="591" 
d="M121 16q-5 -19 -21 -19h-25q-15 0 -15 13q0 3 3 18l142 661q4 20 22 20h24q15 0 15 -12q0 -5 -3 -18l-62 -285h62q35 0 48 17l239 283q14 15 29 15h27q14 0 14 -11q0 -6 -13 -22l-97 -113l-72 -83l-46 -54l-35 -40l-24 -25q46 -77 170 -327q6 -14 6 -22q0 -15 -18 -15
h-23q-17 0 -24 16l-156 310q-9 17 -35 17h-63z" />
    <glyph glyph-name="L" unicode="L" horiz-adv-x="530" 
d="M442 0h-366q-15 0 -15 13q0 5 3 17l141 659q4 20 21 20h25q15 0 15 -12q0 -5 -3 -18l-134 -623h324q15 0 15 -12q0 -6 -5 -31q-4 -13 -21 -13z" />
    <glyph glyph-name="M" unicode="M" horiz-adv-x="802" 
d="M121 17q-4 -20 -22 -20h-23q-15 0 -15 14q0 6 3 18l140 655q5 22 22 22h48q15 0 19 -17q85 -313 115 -442l303 442q11 17 29 17h44q16 0 16 -17q0 -2 -0.5 -5.5t-1.5 -8.5t-1 -8l-139 -650q-5 -20 -21 -20h-23q-15 0 -15 13q0 5 2 13q112 522 132 608q-45 -73 -309 -451
q-10 -15 -25 -15h-12q-16 0 -20 19q-71 259 -117 450q-36 -181 -129 -617z" />
    <glyph glyph-name="N" unicode="N" horiz-adv-x="693" 
d="M120 16q-4 -19 -20 -19h-24q-15 0 -15 12q0 5 2 15l141 665q4 20 23 20h22q11 0 17 -11q208 -498 242 -591q24 129 123 583q5 19 22 19h23q14 0 14 -12q0 -6 -1 -11l-142 -669q-4 -20 -22 -20h-18q-16 0 -22 17q-215 521 -240 592q-14 -77 -125 -590z" />
    <glyph glyph-name="O" unicode="O" horiz-adv-x="683" 
d="M663 511q0 -103 -33 -235t-92 -202q-75 -87 -224 -87q-116 0 -177 46t-61 166q0 109 35.5 239t101.5 201q73 77 210 77q58 0 98.5 -8t74.5 -29.5t50.5 -63t16.5 -104.5zM601 503q0 92 -41.5 125t-142.5 33q-109 0 -164 -62q-53 -59 -83.5 -177t-30.5 -214
q0 -94 42.5 -129.5t141.5 -35.5q61 0 101 15.5t72 56.5q47 61 76 181.5t29 206.5z" />
    <glyph glyph-name="P" unicode="P" horiz-adv-x="610" 
d="M183 305l-62 -288q-5 -20 -21 -20h-25q-14 0 -14 13q0 6 2 16l141 660q3 20 23 20h143q114 0 167 -24q72 -35 72 -124q0 -92 -41.5 -155t-126.5 -85q-47 -13 -147 -13h-111zM193 359h116q95 0 139 18q49 19 73 64.5t24 104.5q0 64 -47 88q-33 16 -136 16h-106z" />
    <glyph glyph-name="Q" unicode="Q" horiz-adv-x="683" 
d="M647 511q0 -103 -33 -235t-92 -202q-18 -21 -36 -35l165 -108q9 -5 9 -13q0 -9 -17 -31q-7 -9 -13 -9q-5 0 -13 5l-184 123q-1 0 -3 2q-57 -21 -132 -21q-116 0 -177 46t-61 166q0 109 35.5 239t101.5 201q73 77 210 77q58 0 98.5 -8t74.5 -29.5t50.5 -63t16.5 -104.5z
M585 503q0 92 -41.5 125t-142.5 33q-109 0 -164 -62q-53 -59 -83.5 -177t-30.5 -214q0 -94 42.5 -129.5t141.5 -35.5q61 0 101 15.5t72 56.5q47 61 76 181.5t29 206.5z" />
    <glyph glyph-name="R" unicode="R" horiz-adv-x="607" 
d="M121 17q-3 -20 -21 -20h-24q-15 0 -15 14q0 9 2 15l141 660q3 20 22 20h140q111 0 156 -20q37 -16 56.5 -51.5t19.5 -77.5q0 -86 -41 -146.5t-126 -82.5q-13 -4 -24 -5l117 -289q5 -15 5 -21q0 -16 -19 -16h-22q-16 0 -24 21l-118 298q-18 -1 -58 -1h-104zM196 369h109
q89 0 135 17q95 37 95 157q0 69 -48 91q-32 16 -129 16h-102z" />
    <glyph glyph-name="S" unicode="S" horiz-adv-x="549" 
d="M368 363q133 -49 133 -164q0 -212 -262 -212q-108 0 -189 35q-16 7 -16 18q0 10 10 30q6 13 19 13q7 0 25 -8q67 -32 158 -32q92 0 141.5 31.5t49.5 112.5q0 38 -23.5 69.5t-93.5 60.5l-83 34q-113 47 -113 161q0 207 257 207q88 0 153 -22q15 -5 15 -17q0 -10 -8 -31
q-3 -10 -16 -10q-6 0 -24 4q-73 20 -135 20q-89 0 -134 -31.5t-45 -112.5q0 -42 24 -72.5t85 -54.5z" />
    <glyph glyph-name="T" unicode="T" horiz-adv-x="555" 
d="M269 18q-6 -21 -21 -21h-26q-15 0 -15 13q0 1 3 16l133 625h-206q-14 0 -14 11q0 4 6 29q3 15 20 15h471q15 0 15 -11q0 -5 -6 -30q-3 -14 -20 -14h-206z" />
    <glyph glyph-name="U" unicode="U" horiz-adv-x="681" 
d="M594 282q-14 -65 -20.5 -91.5t-18.5 -59.5t-28 -55q-34 -48 -89 -69t-141 -21q-206 0 -206 147q0 47 21 147l87 410q3 19 20 19h26q15 0 15 -12q0 -3 -3 -18l-90 -423q-13 -65 -13 -109q0 -104 153 -104q123 0 168 61q32 41 54 146l94 440q4 19 20 19h25q15 0 15 -12
q0 -5 -3 -17z" />
    <glyph glyph-name="V" unicode="V" horiz-adv-x="568" 
d="M246 -3h-23q-15 0 -18 19l-92 652q-2 14 -2 23q0 18 18 18h24q16 0 19 -22q62 -432 80 -600l336 596l8 14q3 4 8.5 8t12.5 4h27q15 0 15 -12q0 -10 -11 -29l-376 -652q-11 -19 -26 -19z" />
    <glyph glyph-name="W" unicode="W" horiz-adv-x="872" 
d="M603 -3h-22q-17 0 -19 19q-38 419 -46 572l-29 -62l-43 -83l-48 -93l-77 -146l-100 -188q-10 -19 -26 -19h-22q-18 0 -19 19l-33 651q0 18 1 23q0 19 20 19h22q16 0 18 -24q23 -477 26 -587q29 62 289 561q12 23 27 23h21q16 0 19 -23q46 -519 49 -561q55 126 276 585
q11 26 28 26h26q14 0 14 -13q0 -8 -11 -30l-315 -650q-9 -19 -26 -19z" />
    <glyph glyph-name="X" unicode="X" horiz-adv-x="621" 
d="M77 27q-12 -13 -17 -18t-11.5 -8.5t-13.5 -3.5h-27q-15 0 -15 14q0 4 2.5 8t5.5 7l8 9q5 7 8 10l293 327l-144 295q-10 18 -10 29q0 15 18 15h22q14 0 22 -17l139 -284l252 280q19 21 36 21h27q12 0 12 -11q0 -9 -15 -26l-279 -313l156 -318q12 -24 12 -31q0 -15 -18 -15
h-22q-10 0 -15.5 5.5t-13.5 21.5q-104 207 -147 299z" />
    <glyph glyph-name="Y" unicode="Y" horiz-adv-x="550" 
d="M260 17q-4 -20 -21 -20h-24q-15 0 -15 13q0 3 2 17l61 284l-146 352q-10 25 -10 30q0 16 19 16h23q16 0 23 -17q100 -244 129 -325q51 68 262 320q18 22 37 22h24q13 0 13 -12q0 -11 -14 -26l-300 -359z" />
    <glyph glyph-name="Z" unicode="Z" horiz-adv-x="581" 
d="M503 0h-491q-17 0 -17 14q0 4 3 18q3 13 13 23l524 595h-375q-16 0 -16 13q0 8 4 25q4 18 21 18h442q14 0 14 -11q0 -8 -3 -20q-3 -15 -13 -26l-522 -593h425q17 0 17 -13q0 -5 -5 -28q-4 -15 -21 -15z" />
    <glyph glyph-name="bracketleft" unicode="[" horiz-adv-x="275" 
d="M168 -140h-146q-10 0 -10 11q0 5 2 13l178 836q4 14 15 14h148q10 0 10 -9l-4 -20q-1 -10 -15 -10h-106l-168 -794h106q9 0 9 -9t-3 -21q-2 -11 -16 -11z" />
    <glyph glyph-name="backslash" unicode="\" horiz-adv-x="413" 
d="M366 -69q3 -12 3 -17q0 -14 -16 -14h-14q-16 0 -20 16l-211 796q-5 22 -5 25q0 14 17 14h15q13 0 19 -23z" />
    <glyph glyph-name="bracketright" unicode="]" horiz-adv-x="275" 
d="M143 734h146q9 0 9 -10q0 -6 -2 -14l-177 -836q-4 -14 -15 -14h-148q-10 0 -10 9q0 8 4 21q2 10 15 10h106l168 794h-106q-10 0 -10 9q0 12 3 21q2 10 17 10z" />
    <glyph glyph-name="asciicircum" unicode="^" horiz-adv-x="705" 
d="M589 312q3 -11 3 -17q0 -14 -15 -14h-23q-14 0 -17 15l-81 320l-227 -323q-9 -12 -19 -12h-27q-13 0 -13 12q0 6 4 11l252 358q9 13 23 13h30q16 0 20 -16z" />
    <glyph glyph-name="underscore" unicode="_" horiz-adv-x="493" 
d="M-27 -78h493v-55h-493v55z" />
    <glyph glyph-name="grave" unicode="`" horiz-adv-x="197" 
d="M128 591l-112 131q-7 9 -7 16q0 11 13 11h41q12 0 21 -12l99 -134q5 -8 5 -13q0 -10 -11 -10h-26q-13 0 -23 11z" />
    <glyph glyph-name="a" unicode="a" horiz-adv-x="570" 
d="M418 17q-2 -12 -6.5 -16t-13.5 -4h-21q-13 0 -13 13q0 8 3 29q-59 -51 -163 -51q-153 0 -153 151q0 78 29 168.5t83 136.5q67 58 185 58q74 0 115 -26q5 20 20 20h20q14 0 14 -12q0 -5 -2 -17zM383 114l66 310q-32 25 -110 25q-91 0 -140 -43q-42 -37 -65.5 -110.5
t-23.5 -144.5q0 -57 27 -84t88 -27q80 0 129 34q15 10 20 17q6 10 9 23z" />
    <glyph glyph-name="b" unicode="b" horiz-adv-x="555" 
d="M103 23l-5 -13q-5 -13 -20 -13h-16q-14 0 -14 13q0 2 3 17l150 703q3 18 20 18h21q15 0 15 -12q0 -5 -2 -15l-56 -263q57 44 165 44q152 0 152 -148q0 -69 -22 -153t-62 -132q-35 -42 -84 -58t-122 -16q-34 0 -72 8t-51 20zM118 73q11 -10 44.5 -18t66.5 -8q112 0 160 56
q31 37 49 108.5t18 129.5q0 107 -119 107q-76 0 -126 -28q-15 -8 -20 -17q-4 -5 -8 -24z" />
    <glyph glyph-name="c" unicode="c" horiz-adv-x="443" 
d="M110 155q0 -56 27.5 -85.5t92.5 -29.5q69 0 117 16q17 6 24 6q6 0 11 -8q5 -17 5 -24q0 -12 -19 -19q-67 -24 -147 -24q-83 0 -127 36.5t-44 120.5q0 72 24.5 160.5t72.5 138.5q64 67 186 67q55 0 101 -11q14 -4 14 -16q0 -15 -7 -29q-4 -9 -12 -9q-4 0 -24 4
q-31 7 -81 7q-89 0 -137 -48q-38 -38 -57.5 -115t-19.5 -138z" />
    <glyph glyph-name="d" unicode="d" horiz-adv-x="564" 
d="M418 17q-2 -12 -6.5 -16t-13.5 -4h-21q-13 0 -13 13q0 8 3 29q-59 -51 -163 -51q-153 0 -153 151q0 79 28.5 170.5t82.5 137.5q63 55 187 55q68 0 111 -18l54 246q4 18 21 18h21q15 0 15 -11q0 -2 -2 -14zM382 114l66 314q-32 21 -110 21q-91 0 -140 -43
q-42 -37 -65 -110t-23 -145q0 -57 27 -84t88 -27q82 0 129 34q12 9 19 18q6 8 9 22z" />
    <glyph glyph-name="e" unicode="e" horiz-adv-x="506" 
d="M115 231q-7 -39 -7 -67q0 -71 34 -97.5t110 -26.5q69 0 131 20q17 6 23 6t10 -8q6 -16 6 -24q0 -12 -19 -20q-66 -27 -167 -27q-100 0 -143 42t-43 129q0 68 25.5 154t75.5 135q59 58 173 58q156 0 156 -130q0 -49 -12 -109q-4 -23 -12 -29t-21 -6h-320zM123 280h290
q11 50 11 85q0 45 -23.5 67.5t-85.5 22.5q-77 0 -118 -34q-48 -39 -74 -141z" />
    <glyph glyph-name="f" unicode="f" horiz-adv-x="298" 
d="M209 439l-90 -423q-3 -19 -21 -19h-22q-14 0 -14 14q0 5 3 17l88 411h-55q-14 0 -14 11t5 26q4 15 21 15h54l19 89q12 57 26.5 89t38.5 51q42 36 119 36q39 0 60 -6q9 -3 9 -13q0 -8 -7 -27q-3 -11 -15 -11q-2 0 -22 2.5t-35 2.5q-56 0 -82 -31q-23 -28 -37 -98l-17 -84
h96q14 0 14 -13q0 -11 -5 -27q-4 -12 -20 -12h-97z" />
    <glyph glyph-name="g" unicode="g" horiz-adv-x="493" 
d="M77 16q-59 19 -59 82q0 81 87 118q-23 28 -23 78q0 132 93 185q48 26 126 26q48 0 84 -14h132q18 0 18 -14q0 -1 -3 -21q-1 -15 -22 -15h-72q20 -28 20 -67q0 -109 -61 -165q-52 -47 -154 -47q-48 0 -83 14q-17 7 -29 7q-13 0 -28 -11q-30 -20 -30 -59q0 -40 29 -47
q20 -7 149 -7q111 0 156 -24t45 -88q0 -110 -65.5 -152.5t-196.5 -42.5q-201 0 -201 129q0 51 21 83t67 52zM393 -69q0 36 -29 55t-103 20q-44 1 -90 1q-30 0 -45 -5q-80 -24 -80 -108q0 -90 151 -90q37 0 62 2t52.5 9t44 20t27 37.5t10.5 58.5zM403 368q0 48 -28 67t-85 19
q-59 0 -87 -15q-65 -35 -65 -139q0 -52 30 -70t83 -18q74 0 111 34q41 38 41 122z" />
    <glyph glyph-name="h" unicode="h" horiz-adv-x="572" 
d="M105 16q-3 -19 -21 -19h-21q-15 0 -15 14q0 2 3 14l149 705q3 18 21 18h21q16 0 16 -10q0 -1 -3 -19l-56 -265q54 49 181 49q126 0 126 -83q0 -31 -11 -84l-68 -321q-5 -18 -21 -18h-22q-14 0 -14 14q0 5 2 13l67 311q7 35 7 61q0 53 -86 53q-83 0 -145 -27
q-18 -11 -21 -15q-5 -6 -9 -24z" />
    <glyph glyph-name="i" unicode="i" horiz-adv-x="243" 
d="M84 -3h-21q-15 0 -15 14q0 2 3 14l96 451q4 18 21 18h21q15 0 15 -13q0 -2 -3 -17l-96 -448q-3 -19 -21 -19zM251 675q0 -29 -17 -45q-10 -10 -31 -10q-37 0 -37 31q0 28 16 44q14 12 33 12q36 0 36 -32z" />
    <glyph glyph-name="j" unicode="j" horiz-adv-x="243" 
d="M83 -87q-19 -92 -59 -124q-47 -39 -140 -39q-22 0 -22 15q0 12 5 27q4 12 23 12q67 0 94 21q28 20 43 89l120 562q4 18 21 18h21q15 0 15 -13q0 -6 -2 -14zM252 675q0 -28 -17 -45q-10 -10 -31 -10q-37 0 -37 31q0 28 16 44q12 12 33 12q36 0 36 -32z" />
    <glyph glyph-name="k" unicode="k" horiz-adv-x="482" 
d="M105 16q-4 -19 -20 -19h-20q-17 0 -17 13q0 1 3 16l148 694q3 19 21 19h20q16 0 16 -13q0 -6 -2 -16l-88 -409h48q32 0 48 17l153 162q14 14 29 14h29q14 0 14 -12q0 -6 -15 -21q-177 -183 -180 -185q8 -14 45 -87l82 -156q7 -14 7 -22q0 -14 -19 -14h-22q-14 0 -23 18
l-111 218q-9 17 -35 17h-61z" />
    <glyph glyph-name="l" unicode="l" horiz-adv-x="246" 
d="M105 16q-3 -19 -20 -19h-22q-15 0 -15 14q0 2 3 14l151 705q4 18 20 18h22q14 0 14 -13q0 -6 -2 -14z" />
    <glyph glyph-name="m" unicode="m" horiz-adv-x="871" 
d="M105 16q-3 -19 -21 -19h-21q-15 0 -15 14q0 2 3 14l97 455q3 17 21 17h19q15 0 15 -13q0 -12 -4 -30q54 49 174 49q104 0 120 -55q28 28 79 41.5t102 13.5q132 0 132 -80q0 -33 -10 -83l-69 -325q-5 -18 -21 -18h-22q-14 0 -14 13q0 7 2 15l66 310q8 37 8 60q0 54 -84 54
q-82 0 -138 -28q-15 -8 -21 -21q-3 -5 -13 -49l-73 -336q-4 -18 -21 -18h-21q-15 0 -15 14q0 5 2 13l67 311q9 42 9 62q0 52 -85 52q-76 0 -138 -27q-17 -8 -20 -13q-6 -7 -10 -25z" />
    <glyph glyph-name="n" unicode="n" horiz-adv-x="572" 
d="M105 16q-3 -19 -21 -19h-21q-15 0 -15 14q0 2 3 14l97 455q3 17 21 17h19q15 0 15 -13q0 -12 -4 -30q54 49 181 49q126 0 126 -83q0 -31 -11 -84l-68 -321q-5 -18 -21 -18h-22q-14 0 -14 14q0 5 2 13l67 311q7 35 7 61q0 53 -86 53q-83 0 -145 -27q-19 -12 -21 -14
q-5 -6 -9 -24z" />
    <glyph glyph-name="o" unicode="o" horiz-adv-x="545" 
d="M507 357q0 -59 -20.5 -148.5t-55.5 -141.5q-55 -80 -189 -80q-91 0 -141 34t-50 125q0 69 23 156.5t67 136.5q57 66 174 66q44 0 73.5 -4.5t59 -19t44.5 -45.5t15 -79zM449 346q0 64 -36.5 85.5t-105.5 21.5q-85 0 -126 -51q-33 -40 -52 -119t-19 -130q0 -64 34 -88.5
t105 -24.5q103 0 141 65q25 42 42 120t17 121z" />
    <glyph glyph-name="p" unicode="p" horiz-adv-x="555" 
d="M107 19l-53 -245q-3 -18 -21 -18h-21q-15 0 -15 13q0 5 3 17l148 694q4 17 22 17h17q16 0 16 -12q0 -7 -5 -31q57 48 166 48q152 0 152 -148q0 -68 -21.5 -149.5t-60.5 -130.5q-36 -44 -85 -61.5t-124 -17.5q-83 0 -118 24zM118 73q11 -10 45 -18t66 -8q114 0 161 57
q31 38 49 108t18 129q0 54 -28 80.5t-92 26.5q-74 0 -126 -28q-15 -8 -20 -17t-8 -23z" />
    <glyph glyph-name="q" unicode="q" horiz-adv-x="557" 
d="M366 38q-60 -50 -162 -50q-153 0 -153 152q0 78 28 167.5t81 136.5q64 58 187 58q80 0 115 -21l3 8q7 16 22 16h18q14 0 14 -11q0 -2 -2 -12l-151 -708q-3 -18 -21 -18h-21q-15 0 -15 13q0 5 2 15zM382 114l68 316q-26 19 -112 19q-92 0 -141 -44q-42 -37 -64.5 -109.5
t-22.5 -144.5q0 -56 27.5 -83.5t88.5 -27.5q79 0 129 35q7 5 17 17q7 9 10 22z" />
    <glyph glyph-name="r" unicode="r" horiz-adv-x="348" 
d="M105 15q-4 -18 -21 -18h-21q-15 0 -15 12q0 6 3 18l97 453q3 17 21 17h20q14 0 14 -12q0 -11 -4 -32q50 50 151 50q19 0 30 -2q9 -3 9 -14q0 -13 -6 -29q-5 -11 -17 -11q-1 0 -15 1t-24 1q-58 0 -110 -25q-15 -9 -21 -16q-7 -7 -11 -24z" />
    <glyph glyph-name="s" unicode="s" horiz-adv-x="420" 
d="M278 256q93 -36 93 -109q0 -70 -44 -114q-46 -46 -161 -46q-87 0 -141 28q-11 5 -11 14q0 11 9 31q4 10 18 10q6 0 16 -5q55 -25 117 -25q87 0 115 30q24 26 24 65q0 25 -16 42t-67 36l-65 24q-88 32 -88 107q0 79 54 122q47 37 150 37q66 0 112 -14q15 -4 15 -14
q0 -8 -7 -31q-3 -10 -13 -10q-3 0 -18 3q-59 15 -103 15q-72 0 -101 -23q-31 -25 -31 -74q0 -24 17 -42t62 -34z" />
    <glyph glyph-name="t" unicode="t" horiz-adv-x="295" 
d="M204 439l-67 -310q-7 -32 -7 -51q0 -39 51 -39q15 0 31 3.5t17 3.5q11 0 13 -8q3 -13 3 -24q-1 -12 -20 -18q-32 -9 -73 -9q-81 0 -81 77q0 23 8 63l68 312h-57q-14 0 -14 11q0 10 5 27q3 14 20 14h58q0 7 27 118q5 20 18 20h23q11 0 11 -12q0 -8 -2 -18l-23 -108h101
q16 0 16 -11q0 -4 -4 -26q-3 -15 -22 -15h-100z" />
    <glyph glyph-name="u" unicode="u" horiz-adv-x="571" 
d="M373 37q-55 -49 -174 -49q-56 0 -94.5 21t-38.5 72q0 26 11 81l68 314q4 18 21 18h21q15 0 15 -13q0 -2 -3 -14l-64 -305q-9 -39 -9 -60q0 -60 93 -60q82 0 138 28q14 6 21 14q5 9 9 25l79 367q3 18 21 18h22q14 0 14 -13q0 -6 -2 -14l-97 -454q-3 -17 -21 -17h-20
q-15 0 -15 13q0 5 5 28z" />
    <glyph glyph-name="v" unicode="v" horiz-adv-x="443" 
d="M186 -2h-20q-15 0 -18 17l-82 442q-2 12 -2 17q0 20 19 20h21q17 0 21 -25q56 -321 65 -386l233 386q16 25 28 25h26q16 0 16 -13q0 -6 -11 -24l-272 -442q-10 -17 -24 -17z" />
    <glyph glyph-name="w" unicode="w" horiz-adv-x="712" 
d="M397 390q-19 -37 -211 -374q-10 -19 -25 -19h-20q-18 0 -19 21l-45 442q-1 9 -1 16q0 18 19 18h23q8 0 12 -5t5 -19q30 -309 35 -384l204 363q14 25 30 25h17q15 0 18 -25q50 -322 55 -363q35 73 194 383q12 25 27 25h27q13 0 13 -11q0 -8 -12 -30l-229 -437
q-10 -19 -25 -19h-21q-16 0 -19 19q-41 279 -52 374z" />
    <glyph glyph-name="x" unicode="x" horiz-adv-x="489" 
d="M247 216l-183 -192q-22 -24 -39 -24h-26q-12 0 -12 13q0 5 17 24l213 222l-109 199q-7 12 -7 22q0 14 17 14h22q10 0 14.5 -4.5t11.5 -17.5q75 -137 95 -178q49 55 170 178q21 22 35 22h27q13 0 13 -11q0 -9 -16 -25l-199 -207l119 -215q7 -14 7 -22q0 -14 -17 -14h-21
q-16 0 -28 24q-81 146 -104 192z" />
    <glyph glyph-name="y" unicode="y" horiz-adv-x="444" 
d="M148 15l-82 444q-2 12 -2 15q0 20 19 20h22q17 0 20 -25q66 -381 67 -385l229 385q15 25 28 25h27q15 0 15 -11q0 -7 -11 -27l-290 -474q-77 -128 -109 -168q-51 -64 -136 -64q-29 0 -44 3t-15 15q0 18 7 30q6 9 16 9q2 0 16.5 -1.5t23.5 -1.5q54 0 89 43q22 27 97 148z
" />
    <glyph glyph-name="z" unicode="z" horiz-adv-x="457" 
d="M369 0h-363q-13 0 -13 11q0 7 3 18q4 11 15 22l123 132l161 174q73 79 75 82h-264q-14 0 -14 10q0 11 5 30q3 12 19 12h332q13 0 13 -11q0 -8 -2 -16q-2 -12 -16 -27l-113 -121l-163 -175q-75 -80 -83 -88h293q14 0 14 -12q0 -1 -5 -29q-3 -12 -17 -12z" />
    <glyph glyph-name="braceleft" unicode="{" horiz-adv-x="304" 
d="M111 298q29 -9 45 -27t16 -56q0 -22 -8 -60l-31 -151q-8 -35 -8 -55q0 -22 13 -35q17 -18 73 -20q11 0 11 -11t-3 -19q-4 -10 -17 -10q-75 0 -105 22q-29 22 -29 63q0 20 9 67l31 147q7 32 7 57q0 62 -63 72q-11 1 -11 11q0 7 2 16q3 13 15 14q49 8 74 34.5t37 84.5
l30 140q17 82 46 115q38 44 143 44q13 0 13 -12q0 -7 -3 -18q-3 -12 -15 -12q-72 0 -98 -33q-16 -23 -28 -78l-31 -144q-16 -71 -42 -99.5t-73 -46.5z" />
    <glyph glyph-name="bar" unicode="|" horiz-adv-x="214" 
d="M59 -130q-3 -19 -20 -19h-19q-13 0 -13 13q0 6 2 16l183 858q3 19 20 19h18q15 0 15 -11q0 -2 -3 -17z" />
    <glyph glyph-name="braceright" unicode="}" horiz-adv-x="325" 
d="M233 296q-30 9 -46 27.5t-16 56.5q0 22 8 59l31 152q8 42 8 54q0 21 -12 35q-17 18 -73 20q-11 0 -11 11t3 20q3 10 16 10q76 -2 105 -23q29 -19 29 -63q0 -28 -9 -67l-31 -147q-7 -32 -7 -57q0 -62 64 -72q11 -2 11 -10t-3 -16q-3 -14 -14 -15q-50 -8 -74.5 -34
t-37.5 -85l-30 -140q-17 -80 -45 -114q-39 -44 -144 -44q-13 0 -13 11q0 9 3 19q3 11 16 11q72 0 97 34q16 21 28 77l32 145q10 50 28.5 80t36.5 42t50 23z" />
    <glyph glyph-name="asciitilde" unicode="~" horiz-adv-x="701" 
d="M154 248q-7 -8 -15 -8t-18 9q-8 7 -8 16q0 8 5 13q42 48 76 67t72 19q41 0 118 -47q56 -35 97 -35q28 0 52.5 14.5t53.5 51.5q9 11 16 11q5 0 14 -6q15 -12 15 -20q0 -5 -5 -13q-66 -90 -147 -90q-50 0 -116 40q-68 41 -102 41q-51 0 -108 -63z" />
    <glyph glyph-name="exclamdown" unicode="&#xa1;" horiz-adv-x="281" 
d="M108 265q4 19 19 19h19q15 0 15 -13q0 -6 -2 -18q-85 -431 -88 -443q-5 -22 -23 -22h-27q-17 0 -17 17q0 4 104 460zM127 446q0 30 18 47q13 11 32 11q39 0 39 -33q0 -29 -17 -46q-15 -13 -34 -13q-38 0 -38 34z" />
    <glyph glyph-name="cent" unicode="&#xa2;" horiz-adv-x="484" 
d="M239 -76q-4 -18 -18 -18h-13q-14 0 -14 12q0 2 2 12l14 68q-146 8 -146 152q0 72 24.5 159t73.5 136q57 57 157 63l15 68q4 19 18 19h14q13 0 13 -11q0 -5 -3 -17l-13 -58q53 -2 82 -10q14 -5 14 -16q0 -9 -8 -30q-3 -8 -12 -8q-7 0 -25 4q-23 5 -62 6l-87 -406
q51 1 94 16q15 6 24 6q7 0 10 -8q6 -14 6 -23q0 -10 -20 -19q-55 -21 -125 -23zM125 160q0 -51 21.5 -79t74.5 -32l87 405q-69 -7 -106 -46t-57 -115t-20 -133z" />
    <glyph glyph-name="sterling" unicode="&#xa3;" horiz-adv-x="563" 
d="M489 0h-424q-15 0 -15 10q0 13 3 25q2 9 14 15q145 72 145 176q0 37 -4 62h-86q-15 0 -15 11q0 7 4 22q3 15 20 15h73q-6 56 -6 105q0 117 62.5 183t192.5 66q80 0 132 -17q11 -4 11 -17q0 -7 -9 -29q-4 -10 -14 -10q-2 0 -23 6q-46 14 -107 14q-183 -1 -183 -189
q0 -68 5 -112h209q16 0 16 -13q0 -11 -3 -22q-3 -13 -21 -13h-196q3 -23 3 -48q0 -62 -29 -105.5t-93 -79.5h347q18 0 18 -13q0 -8 -5 -28q-3 -14 -22 -14z" />
    <glyph glyph-name="currency" unicode="&#xa4;" horiz-adv-x="540" 
d="M494 125q-4 -6 -12 -6q-4 0 -12 6l-53 51q-51 -39 -119 -39t-120 39l-48 -51q-9 -7 -14 -7q-8 0 -13 6l-8 9q-7 9 -7 13t7 13l52 53q-40 53 -40 120q0 65 40 118l-52 53q-7 9 -7 12q0 7 8 14l8 8q6 7 11 7q7 0 13 -7l51 -52q51 41 119 41q71 0 118 -40l52 51q7 7 13 7
t12 -7l8 -8q7 -6 7 -13t-7 -12l-52 -53q40 -48 40 -119t-40 -119l54 -54q6 -5 6 -12q0 -9 -7 -14zM442 332q0 64 -41 105t-103 41q-61 0 -102.5 -41.5t-41.5 -103.5q0 -65 41.5 -106.5t102.5 -41.5q62 0 103 41.5t41 105.5z" />
    <glyph glyph-name="yen" unicode="&#xa5;" horiz-adv-x="577" 
d="M491 344h-127l-40 -47l-9 -43h158q15 0 15 -11q0 -5 -2 -14q-3 -16 -22 -16h-158l-41 -195q-3 -21 -22 -21h-23q-14 0 -14 14q0 9 3 19l38 183h-148q-15 0 -15 10q0 2 3 17q3 14 21 14h148l9 42l-20 48h-121q-15 0 -15 10q0 2 3 17q4 14 21 14h95l-104 247q-8 22 -8 28
q0 16 17 16h23q15 0 22 -17q96 -224 125 -309q48 61 253 305q18 21 34 21h27q13 0 13 -11q0 -8 -16 -26l-216 -254h100q15 0 15 -11q0 -4 -3 -18q-2 -12 -19 -12z" />
    <glyph glyph-name="brokenbar" unicode="&#xa6;" horiz-adv-x="214" 
d="M178 430q-3 -19 -21 -19h-18q-13 0 -13 13q0 6 2 16l56 259q3 19 20 19h18q15 0 15 -11q0 -3 -3 -18zM86 1q-3 -19 -21 -19h-18q-13 0 -13 13q0 6 2 16l56 259q4 19 20 19h18q15 0 15 -12q0 -2 -3 -17z" />
    <glyph glyph-name="section" unicode="&#xa7;" horiz-adv-x="483" 
d="M334 110q40 -35 40 -96q0 -32 -9.5 -60.5t-31 -56t-64 -43.5t-101.5 -16q-94 0 -147 31q-18 11 -18 20q0 13 12 31q5 9 15 9q5 0 17 -6q53 -31 132 -31q66 0 100 30.5t34 86.5q0 32 -23 55t-88 61l-35 20q-99 55 -99 136q0 73 41.5 108t96.5 41q-18 12 -29 37t-11 50
q0 18 3 37.5t15 45.5t31 45.5t55.5 34t84.5 14.5q72 0 117 -21q17 -8 17 -20q0 -9 -9 -27q-5 -10 -15 -10q-3 0 -19 7q-43 17 -103 17q-63 0 -90.5 -31.5t-27.5 -79.5q0 -60 84 -106l30 -17q66 -38 92 -70t26 -73q0 -123 -123 -153zM396 245q0 31 -12.5 51t-46.5 42
q-41 27 -79 47q-14 7 -26 7q-16 0 -31 -4q-76 -20 -76 -96q0 -26 12.5 -46t46.5 -42q47 -30 96 -54q8 -4 18 -4q15 0 30 6q68 26 68 93z" />
    <glyph glyph-name="dieresis" unicode="&#xa8;" horiz-adv-x="197" 
d="M51 675q0 -29 -16 -44q-12 -10 -30 -10q-35 0 -35 30q0 31 14 43q12 11 32 11q35 0 35 -30zM225 675q0 -31 -15 -44q-11 -10 -30 -10q-36 0 -36 30q0 29 15 43q13 11 32 11q34 0 34 -30z" />
    <glyph glyph-name="copyright" unicode="&#xa9;" horiz-adv-x="830" 
d="M796 345q0 -155 -98 -257t-257 -102t-257 102t-98 257t98 257.5t256 102.5q163 0 259.5 -101.5t96.5 -258.5zM759 345q0 142 -87.5 234t-231.5 92q-143 0 -229.5 -92.5t-86.5 -233.5q0 -140 86.5 -232.5t230.5 -92.5t231 92t87 233zM298 288q0 -53 28 -86t87 -33
q61 0 99 14q14 5 22 5q7 0 10 -11q4 -12 4 -20q0 -10 -17 -16q-56 -21 -125 -21q-74 0 -119.5 43t-45.5 122q0 52 17.5 112t54.5 103q60 69 180 69q53 0 86 -9q13 -4 13 -15t-6 -27q-3 -7 -12 -7q-6 0 -20 3q-27 6 -72 6q-84 0 -125 -49q-59 -69 -59 -183z" />
    <glyph glyph-name="ordfeminine" unicode="&#xaa;" horiz-adv-x="372" 
d="M311 278q-1 -9 -4 -12t-10 -3h-23q-10 0 -10 9q0 1 1 7.5t1 8.5q-36 -31 -100 -31q-97 0 -97 93q0 47 19 103t54 84q38 33 114 33q47 0 71 -16q3 14 14 14h21q11 0 11 -10q0 -5 -2 -13zM277 342l38 172q-17 12 -61 12q-56 0 -82 -22q-23 -21 -36.5 -61.5t-13.5 -80.5
q0 -32 15 -47t49 -15q32 0 72 19q10 5 13 10q4 4 6 13z" />
    <glyph glyph-name="guillemotleft" unicode="&#xab;" horiz-adv-x="465" 
d="M115 265l93 -169q6 -11 6 -19q0 -11 -14 -11h-23q-7 0 -11.5 3t-6.5 6l-8 12l-92 159q-7 12 -7 21q0 13 11 22l162 153q24 22 36 22h27q11 0 11 -11q0 -7 -16 -23zM298 265l93 -169q6 -11 6 -19q0 -11 -14 -11h-23q-7 0 -11.5 3t-6.5 6l-8 12l-92 159q-7 12 -7 21
q0 13 11 22l162 153q24 22 36 22h27q11 0 11 -11q0 -7 -16 -23z" />
    <glyph glyph-name="logicalnot" unicode="&#xac;" horiz-adv-x="701" 
d="M581 49q-2 -14 -17 -14h-19q-14 0 -14 14q0 5 1 9l46 211h-453q-14 0 -14 14q0 10 3 22q3 16 17 16h489q14 0 14 -14q0 -5 -2 -15z" />
    <glyph glyph-name="uni00AD" unicode="&#xad;" horiz-adv-x="326" 
d="M266 241h-193q-13 0 -13 11q0 6 5 27q4 15 20 15h190q15 0 15 -11q0 -2 -6 -30q-4 -12 -18 -12z" />
    <glyph glyph-name="registered" unicode="&#xae;" horiz-adv-x="830" 
d="M796 345q0 -155 -98 -257t-257 -102t-257 102t-98 257t98 257.5t256 102.5q163 0 259.5 -101.5t96.5 -258.5zM759 345q0 142 -87.5 234t-231.5 92q-143 0 -229.5 -92.5t-86.5 -233.5q0 -140 86.5 -232.5t230.5 -92.5t231 92t87 233zM320 145q-3 -15 -17 -15h-21
q-13 0 -13 12q0 5 2 15l83 394q4 21 25 21h87q75 0 107 -16q47 -22 47 -88q0 -109 -109 -143l64 -166q4 -12 4 -17q0 -12 -15 -12h-25q-12 0 -18 16l-62 171h-43h-59zM367 362h63q55 0 78 10q60 20 60 86q0 47 -31 60q-22 8 -76 8h-60z" />
    <glyph glyph-name="macron" unicode="&#xaf;" horiz-adv-x="197" 
d="M208 615h-229q-13 0 -13 12q0 14 5 28q4 15 19 15h226q15 0 15 -11q0 -14 -5 -31q-4 -13 -18 -13z" />
    <glyph glyph-name="degree" unicode="&#xb0;" horiz-adv-x="336" 
d="M386 589q0 -69 -39.5 -110.5t-108.5 -41.5q-58 0 -93 33t-35 93q0 68 41 108.5t109 40.5q59 0 92.5 -32t33.5 -91zM341 585q0 43 -22.5 65.5t-62.5 22.5q-45 0 -72 -28t-27 -83q0 -41 23 -63.5t63 -22.5q44 0 71 28t27 81z" />
    <glyph glyph-name="plusminus" unicode="&#xb1;" horiz-adv-x="701" 
d="M366 141q-4 -16 -17 -16h-19q-14 0 -14 14q0 4 2 14l44 202h-217q-15 0 -15 14q0 2 4 22q3 15 17 15h220l46 211q3 15 16 15h19q15 0 15 -14q0 -4 -2 -14l-43 -198h217q15 0 15 -14q0 -1 -1 -3l-1 -5q0 -3 -0.5 -7t-1.5 -7q-3 -15 -17 -15h-221zM573 0h-490q-14 0 -14 14
q0 2 0.5 5.5t1.5 8.5t1 8q3 15 17 15h491q14 0 14 -14q0 -3 -4 -23q-3 -14 -17 -14z" />
    <glyph glyph-name="twosuperior" unicode="&#xb2;" 
d="M364 420h-267q-12 0 -12 9q0 8 4 21q2 7 11 14q143 95 209 153q61 54 61 114q0 31 -18.5 47.5t-64.5 16.5q-35 0 -73 -10q-20 -6 -24 -6q-8 0 -9 7q-4 13 -4 21q0 9 19 16q57 17 106 17q120 0 120 -97q0 -81 -69 -143q-83 -74 -187 -136q38 1 206 1q11 0 11 -9
q0 -7 -5 -26q-3 -10 -14 -10z" />
    <glyph glyph-name="threesuperior" unicode="&#xb3;" 
d="M316 637q70 -8 70 -78q0 -69 -37 -105q-42 -42 -142 -42q-58 0 -94 12q-13 4 -13 14q0 7 8 25q4 7 12 7l20 -5q36 -9 73 -9q74 0 100 29q23 26 23 72q0 28 -22 42t-73 14h-14q-11 0 -11 9q0 14 2 23q4 13 17 13h15q58 0 85 22q25 19 25 65q0 50 -76 50q-38 0 -73 -10
q-3 -1 -8.5 -2t-8.5 -2t-5 -1q-7 0 -9 7q-4 12 -4 21q0 11 18 16q50 16 103 16q63 0 88.5 -22t25.5 -64q0 -50 -22.5 -78t-72.5 -39z" />
    <glyph glyph-name="acute" unicode="&#xb4;" horiz-adv-x="197" 
d="M55 591q-11 -11 -24 -11h-25q-12 0 -12 11q0 6 6 12l124 134q10 12 23 12h45q12 0 12 -10q0 -5 -9 -16z" />
    <glyph glyph-name="mu" unicode="&#xb5;" horiz-adv-x="537" 
d="M99 22l-43 -208q-4 -18 -21 -18h-23q-15 0 -15 11q0 7 3 17l139 652q4 18 20 18h22q14 0 14 -11q0 -8 -2 -16l-65 -305q-10 -48 -10 -67q0 -52 96 -52q86 0 149 27q16 8 21 14q7 7 11 24l78 368q4 18 21 18h22q14 0 14 -12q0 -2 -2 -12l-97 -455q-3 -18 -20 -18h-20
q-16 0 -16 13q0 7 5 27q-55 -46 -179 -46q-80 0 -102 31z" />
    <glyph glyph-name="paragraph" unicode="&#xb6;" horiz-adv-x="557" 
d="M236 -110q-4 -18 -19 -18h-12q-14 0 -14 11q0 3 2 13l73 345q-93 0 -137 45.5t-44 119.5q0 176 123 253q75 47 198 47h132q20 0 20 -16q0 -9 -3 -21l-165 -779q-4 -18 -19 -18h-13q-13 0 -13 11q0 5 2 13l163 766h-110z" />
    <glyph glyph-name="periodcentered" unicode="&#xb7;" horiz-adv-x="207" 
d="M154 281q0 -33 -18 -48q-13 -11 -32 -11q-39 0 -39 34q0 29 18 46q12 12 33 12q38 0 38 -33z" />
    <glyph glyph-name="cedilla" unicode="&#xb8;" horiz-adv-x="197" 
d="M106 -63q84 -1 84 -72q0 -55 -31.5 -78t-94.5 -23q-36 0 -49 6q-9 3 -9 12q0 10 4 20q3 11 15 11q3 0 13 -2q20 -4 34 -4q32 0 47.5 10.5t15.5 39.5q0 37 -44 37q-3 0 -11.5 -0.5t-9.5 -0.5q-16 0 -16 16q0 8 7 27l26 74h42z" />
    <glyph glyph-name="onesuperior" unicode="&#xb9;" 
d="M296 779l-67 -26q-7 -3 -13 -3q-5 0 -7 5q-7 16 -7 23t10 12l92 37q12 5 20 5h18q11 0 11 -9q0 -6 -2 -14l-86 -377q-3 -13 -16 -13h-19q-14 0 -14 9q0 3 2 13z" />
    <glyph glyph-name="ordmasculine" unicode="&#xba;" horiz-adv-x="358" 
d="M365 481q0 -38 -13 -92t-37 -86q-36 -47 -122 -47q-58 0 -91 21t-33 78q0 42 15 94.5t43 82.5q39 42 112 42q60 0 93 -18.5t33 -74.5zM314 471q0 35 -20 46t-60 11q-49 0 -72 -29q-19 -22 -30.5 -66t-11.5 -72q0 -35 19.5 -47.5t59.5 -12.5q57 0 80 35q14 23 24.5 67
t10.5 68z" />
    <glyph glyph-name="guillemotright" unicode="&#xbb;" horiz-adv-x="465" 
d="M371 264l-93 169q-6 11 -6 20q0 11 14 11h24q6 0 11 -3t6.5 -6t7.5 -12l93 -159q6 -10 6 -21q0 -10 -11 -23l-162 -153q-23 -21 -35 -21h-27q-12 0 -12 11q0 5 16 23zM188 264l-93 169q-6 11 -6 20q0 11 14 11h24q6 0 11 -3t6.5 -6t7.5 -12l93 -159q6 -10 6 -21
q0 -10 -11 -23l-162 -153q-23 -21 -35 -21h-27q-12 0 -12 11q0 5 16 23z" />
    <glyph glyph-name="onequarter" unicode="&#xbc;" horiz-adv-x="842" 
d="M220 -16q-12 -16 -25 -16h-15q-10 0 -10 10q0 6 9 20l450 691q12 22 28 22h15q12 0 12 -10q0 -7 -14 -27zM267 623l-67 -26q-8 -3 -13 -3t-7 5q-7 16 -7 23t10 12l92 37q12 5 20 5h18q11 0 11 -9q0 -6 -2 -14l-86 -377q-3 -13 -16 -13h-19q-14 0 -14 9q0 3 2 13zM658 11
q-3 -12 -15 -12h-23q-10 0 -10 9q0 3 2 11l20 87h-189q-13 0 -13 11q0 13 3 23q1 7 11 17l200 241q12 14 24 14h24q9 0 9 -7t-9 -17l-198 -237h147l24 100q4 13 15 13h21q12 0 12 -8q0 -7 -3 -19l-21 -86h59q13 0 13 -8q0 -6 -6 -27q-3 -10 -15 -10h-60z" />
    <glyph glyph-name="onehalf" unicode="&#xbd;" horiz-adv-x="842" 
d="M206 -16q-12 -16 -25 -16h-15q-10 0 -10 10q0 6 9 20l450 691q12 22 28 22h15q12 0 12 -10q0 -7 -14 -27zM257 623l-67 -26q-8 -3 -13 -3t-7 5q-7 16 -7 23t10 12l92 37q12 5 20 5h18q11 0 11 -9q0 -6 -2 -14l-86 -377q-3 -13 -16 -13h-19q-14 0 -14 9q0 3 2 13zM712 0
h-267q-12 0 -12 9q0 8 4 21q2 7 11 14q143 95 209 153q61 54 61 114q0 31 -18.5 47.5t-64.5 16.5q-35 0 -73 -10q-20 -6 -24 -6q-8 0 -9 7q-4 13 -4 21q0 9 19 16q57 17 106 17q120 0 120 -97q0 -81 -69 -143q-83 -74 -187 -136q38 1 206 1q11 0 11 -9q0 -7 -5 -26
q-3 -10 -14 -10z" />
    <glyph glyph-name="threequarters" unicode="&#xbe;" horiz-adv-x="842" 
d="M272 -16q-12 -16 -25 -16h-15q-10 0 -10 10q0 6 9 20l450 691q12 22 28 22h15q12 0 12 -10q0 -7 -14 -27zM314 481q70 -8 70 -78q0 -69 -37 -105q-42 -42 -142 -42q-62 0 -94 12q-13 5 -13 14q0 7 8 25q4 7 12 7l20 -5q36 -9 73 -9q74 0 100 29q23 26 23 72q0 28 -22 42
t-73 14h-14q-11 0 -11 9q0 14 2 23q4 13 17 13h15q58 0 85 22q25 19 25 65q0 50 -76 50q-41 0 -73 -10q-15 -5 -22 -5t-9 7q-4 18 -4 21q0 11 19 16q50 16 102 16q63 0 88.5 -22t25.5 -64q0 -50 -22.5 -78t-72.5 -39zM703 11q-3 -12 -15 -12h-23q-10 0 -10 9q0 3 2 11l20 87
h-189q-13 0 -13 11q0 13 3 23q1 7 11 17l200 241q12 14 24 14h24q9 0 9 -7t-9 -17l-198 -237h147l24 100q4 13 15 13h21q12 0 12 -8q0 -7 -3 -19l-21 -86h59q13 0 13 -8q0 -6 -6 -27q-2 -10 -15 -10h-60z" />
    <glyph glyph-name="questiondown" unicode="&#xbf;" horiz-adv-x="399" 
d="M230 282h19q13 0 13 -15q0 -11 -8 -54q-10 -53 -32 -82t-76 -59q-56 -32 -85 -67t-29 -91q0 -85 100 -85q60 0 116 18q1 0 4 1.5t6 2t5 0.5q9 0 12 -10q5 -22 5 -24q0 -11 -13 -17q-65 -27 -145 -27t-117 36t-37 89q0 70 32.5 116.5t103.5 88.5q52 31 69.5 50t26.5 59
q2 7 6 26t7 30q3 14 17 14zM217 444q0 33 18 48q13 11 32 11q38 0 38 -34q0 -29 -17 -46q-14 -12 -34 -12q-37 0 -37 33z" />
    <glyph glyph-name="Agrave" unicode="&#xc0;" horiz-adv-x="575" 
d="M35 21q-14 -24 -29 -24h-26q-15 0 -15 14q0 7 12 26l376 654q11 18 25 18h22q18 0 21 -19l98 -653q3 -15 3 -23t-6.5 -12.5t-13.5 -4.5h-21q-10 0 -14 5t-6 20q-20 119 -33 211h-271zM374 624l-188 -336h235q-18 123 -31.5 224.5t-15.5 111.5zM401 772l-138 109
q-11 9 -11 18q0 11 14 11h43q16 0 28 -12l122 -109q9 -7 9 -16q0 -11 -13 -11h-26q-14 0 -28 10z" />
    <glyph glyph-name="Aacute" unicode="&#xc1;" horiz-adv-x="575" 
d="M35 21q-14 -24 -29 -24h-26q-15 0 -15 14q0 7 12 26l376 654q11 18 25 18h22q18 0 21 -19l98 -653q3 -15 3 -23t-6.5 -12.5t-13.5 -4.5h-21q-10 0 -14 5t-6 20q-20 119 -33 211h-271zM374 624l-188 -336h235q-18 123 -31.5 224.5t-15.5 111.5zM380 763q-14 -10 -29 -10
h-29q-12 0 -12 11q0 8 9 16l151 110q14 11 27 11h48q14 0 14 -11q0 -9 -11 -18z" />
    <glyph glyph-name="Acircumflex" unicode="&#xc2;" horiz-adv-x="575" 
d="M35 21q-14 -24 -29 -24h-26q-15 0 -15 14q0 7 12 26l376 654q11 18 25 18h22q18 0 21 -19l98 -653q3 -15 3 -23t-6.5 -12.5t-13.5 -4.5h-21q-10 0 -14 5t-6 20q-20 119 -33 211h-271zM374 624l-188 -336h235q-18 123 -31.5 224.5t-15.5 111.5zM277 762h-26q-11 0 -11 11
q0 7 9 15l123 102q18 14 31 14h23q14 0 24 -12l88 -104q5 -7 5 -13q0 -13 -16 -13h-18q-10 0 -25 13l-77 72l-102 -72q-19 -13 -28 -13z" />
    <glyph glyph-name="Atilde" unicode="&#xc3;" horiz-adv-x="575" 
d="M35 21q-14 -24 -29 -24h-26q-15 0 -15 14q0 7 12 26l376 654q11 18 25 18h22q18 0 21 -19l98 -653q3 -15 3 -23t-6.5 -12.5t-13.5 -4.5h-21q-10 0 -14 5t-6 20q-20 119 -33 211h-271zM374 624l-188 -336h235q-18 123 -31.5 224.5t-15.5 111.5zM264 777h-16q-13 0 -13 10
t8 23q21 39 42 57t51 18q20 0 71 -29q40 -24 60 -24q14 0 24 8t24 33q10 17 21 17h17q14 0 14 -10q0 -8 -6 -22q-38 -82 -94 -82q-28 0 -76 27q-44 25 -60 25q-25 0 -45 -38q-6 -13 -22 -13z" />
    <glyph glyph-name="Adieresis" unicode="&#xc4;" horiz-adv-x="575" 
d="M35 21q-14 -24 -29 -24h-26q-15 0 -15 14q0 7 12 26l376 654q11 18 25 18h22q18 0 21 -19l98 -653q3 -15 3 -23t-6.5 -12.5t-13.5 -4.5h-21q-10 0 -14 5t-6 20q-20 119 -33 211h-271zM374 624l-188 -336h235q-18 123 -31.5 224.5t-15.5 111.5zM351 830q0 -29 -16 -44
q-12 -10 -30 -10q-35 0 -35 31q0 29 14 42q12 11 32 11q35 0 35 -30zM535 830q0 -29 -16 -44q-12 -10 -30 -10q-35 0 -35 31q0 28 15 42q11 11 32 11q34 0 34 -30z" />
    <glyph glyph-name="Aring" unicode="&#xc5;" horiz-adv-x="575" 
d="M35 21q-14 -24 -29 -24h-26q-15 0 -15 14q0 7 12 26l376 654q11 18 25 18h22q18 0 21 -19l98 -653q3 -15 3 -23t-6.5 -12.5t-13.5 -4.5h-21q-10 0 -14 5t-6 20q-20 119 -33 211h-271zM374 624l-188 -336h235q-18 123 -31.5 224.5t-15.5 111.5zM492 836q0 -46 -26.5 -73
t-72.5 -27q-38 0 -60 21.5t-22 60.5q0 44 27.5 71t71.5 27q38 0 60 -21t22 -59zM458 835q0 50 -52 50q-26 0 -44 -17t-18 -47q0 -55 53 -55q27 0 44 17.5t17 51.5z" />
    <glyph glyph-name="AE" unicode="&#xc6;" horiz-adv-x="947" 
d="M254 241l-190 -222q-19 -22 -34 -22h-30q-14 0 -14 13q0 7 17 26l565 652q15 18 39 18h355q15 0 15 -12q0 -10 -4 -30q-4 -14 -23 -14h-289l-55 -254h270q17 0 17 -12q0 -4 -5 -29q-4 -15 -22 -15h-271l-61 -284h324q17 0 17 -12q0 -6 -6 -30q-4 -14 -23 -14h-365
q-15 0 -15 13q0 2 2 14l46 214h-260zM299 297h227l75 350q-85 -105 -302 -350z" />
    <glyph glyph-name="Ccedilla" unicode="&#xc7;" horiz-adv-x="589" 
d="M296 -66q87 -1 87 -74q0 -56 -33 -80.5t-98 -24.5q-32 0 -50 6q-10 3 -10 13q0 9 4 21q3 12 16 12q5 0 14 -3q20 -4 34 -4q33 0 49.5 11t16.5 41q0 38 -46 38q-4 0 -12 -0.5t-10 -0.5q-16 0 -16 17q0 4 8 28l18 55q-190 16 -190 221q0 103 32.5 225.5t92.5 191.5
q42 48 101.5 70t148.5 22q76 0 145 -15q20 -4 20 -19q0 -12 -9 -30q-4 -9 -15 -9q-7 0 -33 6q-51 11 -137 11q-109 0 -176 -72q-51 -56 -80 -167t-29 -206q0 -175 168 -175q104 0 173 22q24 8 29 8q8 0 13 -15q4 -11 4 -20q0 -13 -25 -22q-76 -27 -189 -29z" />
    <glyph glyph-name="Egrave" unicode="&#xc8;" horiz-adv-x="543" 
d="M441 0h-365q-15 0 -15 12q0 6 3 18l141 656q4 20 21 20h331q16 0 16 -11q0 -4 -5 -31q-3 -14 -22 -14h-290l-55 -254h270q17 0 17 -12q0 -9 -5 -29q-4 -15 -22 -15h-271l-61 -284h325q16 0 16 -12q0 -10 -6 -30q-4 -14 -23 -14zM385 772l-138 109q-11 9 -11 18
q0 11 14 11h43q16 0 28 -12l122 -109q9 -7 9 -16q0 -11 -13 -11h-26q-14 0 -28 10z" />
    <glyph glyph-name="Eacute" unicode="&#xc9;" horiz-adv-x="543" 
d="M436 0h-365q-15 0 -15 12q0 6 3 18l141 656q4 20 21 20h331q16 0 16 -11q0 -4 -5 -31q-3 -14 -22 -14h-290l-55 -254h270q17 0 17 -12q0 -9 -5 -29q-4 -15 -22 -15h-271l-61 -284h325q16 0 16 -12q0 -10 -6 -30q-4 -14 -23 -14zM388 763q-14 -10 -29 -10h-29
q-12 0 -12 11q0 8 9 16l151 110q14 11 27 11h48q14 0 14 -11q0 -9 -11 -18z" />
    <glyph glyph-name="Ecircumflex" unicode="&#xca;" horiz-adv-x="543" 
d="M441 0h-365q-15 0 -15 12q0 6 3 18l141 656q4 20 21 20h331q16 0 16 -11q0 -4 -5 -31q-3 -14 -22 -14h-290l-55 -254h270q17 0 17 -12q0 -9 -5 -29q-4 -15 -22 -15h-271l-61 -284h325q16 0 16 -12q0 -10 -6 -30q-4 -14 -23 -14zM286 762h-26q-11 0 -11 11q0 7 9 15
l123 102q17 14 31 14h23q14 0 24 -12l88 -104q5 -7 5 -13q0 -13 -16 -13h-18q-10 0 -25 13l-77 72l-102 -72q-19 -13 -28 -13z" />
    <glyph glyph-name="Edieresis" unicode="&#xcb;" horiz-adv-x="543" 
d="M441 0h-365q-15 0 -15 12q0 6 3 18l141 656q4 20 21 20h331q16 0 16 -11q0 -4 -5 -31q-3 -14 -22 -14h-290l-55 -254h270q17 0 17 -12q0 -9 -5 -29q-4 -15 -22 -15h-271l-61 -284h325q16 0 16 -12q0 -10 -6 -30q-4 -14 -23 -14zM354 830q0 -29 -16 -44q-12 -10 -30 -10
q-35 0 -35 31q0 29 14 42q12 11 32 11q35 0 35 -30zM538 830q0 -29 -16 -44q-12 -10 -30 -10q-35 0 -35 31q0 28 15 42q11 11 32 11q34 0 34 -30z" />
    <glyph glyph-name="Igrave" unicode="&#xcc;" horiz-adv-x="268" 
d="M121 16q-5 -19 -21 -19h-25q-14 0 -14 13q0 6 2 16l142 663q4 20 22 20h24q15 0 15 -12q0 -5 -3 -20zM251 772l-138 109q-11 9 -11 18q0 11 14 11h43q16 0 28 -12l122 -109q9 -7 9 -16q0 -11 -13 -11h-26q-14 0 -28 10z" />
    <glyph glyph-name="Iacute" unicode="&#xcd;" horiz-adv-x="268" 
d="M121 16q-5 -19 -21 -19h-25q-14 0 -14 13q0 6 2 16l142 663q4 20 22 20h24q15 0 15 -12q0 -5 -3 -20zM222 772q-14 -10 -29 -10h-29q-12 0 -12 11q0 9 9 16l151 110q14 11 27 11h48q14 0 14 -11q0 -9 -11 -18z" />
    <glyph glyph-name="Icircumflex" unicode="&#xce;" horiz-adv-x="268" 
d="M121 16q-5 -19 -21 -19h-25q-14 0 -14 13q0 6 2 16l142 663q4 20 22 20h24q15 0 15 -12q0 -5 -3 -20zM131 762h-26q-11 0 -11 11q0 7 9 15l123 102q17 14 31 14h23q14 0 24 -12l88 -104q5 -7 5 -13q0 -13 -16 -13h-18q-10 0 -25 13l-77 72l-102 -72q-19 -13 -28 -13z" />
    <glyph glyph-name="Idieresis" unicode="&#xcf;" horiz-adv-x="268" 
d="M121 16q-5 -19 -21 -19h-25q-14 0 -14 13q0 6 2 16l142 663q4 20 22 20h24q15 0 15 -12q0 -5 -3 -20zM200 830q0 -29 -16 -44q-12 -10 -30 -10q-35 0 -35 31q0 29 14 42q12 11 32 11q35 0 35 -30zM384 830q0 -29 -16 -44q-12 -10 -30 -10q-35 0 -35 31q0 28 15 42
q11 11 32 11q34 0 34 -30z" />
    <glyph glyph-name="Eth" unicode="&#xd0;" horiz-adv-x="682" 
d="M211 0h-133q-17 0 -17 12q0 6 3 17l66 313h-69q-14 0 -14 12q0 3 5 25q4 15 19 15h70l63 293q4 19 20 19h135q112 0 177 -20q62 -19 94 -72.5t32 -133.5q0 -70 -11 -136t-36.5 -132t-74 -115.5t-115.5 -72.5q-73 -24 -214 -24zM129 56h101q130 0 188 25q64 26 107 94
t58.5 141t15.5 150q0 121 -78 160q-47 24 -171 24h-94l-55 -256h186q15 0 15 -12q0 -9 -6 -27q-4 -13 -20 -13h-186z" />
    <glyph glyph-name="Ntilde" unicode="&#xd1;" horiz-adv-x="693" 
d="M120 16q-4 -19 -20 -19h-24q-15 0 -15 12q0 5 2 15l141 665q4 20 23 20h22q11 0 17 -11q208 -498 242 -591q24 129 123 583q5 19 22 19h23q14 0 14 -12q0 -6 -1 -11l-142 -669q-4 -20 -22 -20h-18q-16 0 -22 17q-215 521 -240 592q-14 -77 -125 -590zM334 777h-16
q-13 0 -13 10t8 23q21 39 42 57t51 18q20 0 71 -29q40 -24 60 -24q14 0 24 8t24 33q10 17 21 17h17q14 0 14 -10q0 -8 -6 -22q-38 -82 -94 -82q-28 0 -76 27q-44 25 -60 25q-25 0 -45 -38q-6 -13 -22 -13z" />
    <glyph glyph-name="Ograve" unicode="&#xd2;" horiz-adv-x="683" 
d="M663 511q0 -103 -33 -235t-92 -202q-75 -87 -224 -87q-116 0 -177 46t-61 166q0 109 35.5 239t101.5 201q73 77 210 77q58 0 98.5 -8t74.5 -29.5t50.5 -63t16.5 -104.5zM601 503q0 92 -41.5 125t-142.5 33q-109 0 -164 -62q-53 -59 -83.5 -177t-30.5 -214
q0 -94 42.5 -129.5t141.5 -35.5q61 0 101 15.5t72 56.5q47 61 76 181.5t29 206.5zM449 772l-138 109q-11 9 -11 18q0 11 14 11h43q16 0 28 -12l122 -109q9 -7 9 -16q0 -11 -13 -11h-26q-14 0 -28 10z" />
    <glyph glyph-name="Oacute" unicode="&#xd3;" horiz-adv-x="683" 
d="M663 511q0 -103 -33 -235t-92 -202q-75 -87 -224 -87q-116 0 -177 46t-61 166q0 109 35.5 239t101.5 201q73 77 210 77q58 0 98.5 -8t74.5 -29.5t50.5 -63t16.5 -104.5zM601 503q0 92 -41.5 125t-142.5 33q-109 0 -164 -62q-53 -59 -83.5 -177t-30.5 -214
q0 -94 42.5 -129.5t141.5 -35.5q61 0 101 15.5t72 56.5q47 61 76 181.5t29 206.5zM456 772q-14 -10 -29 -10h-29q-12 0 -12 11q0 9 9 16l151 110q14 11 27 11h48q14 0 14 -11q0 -9 -11 -18z" />
    <glyph glyph-name="Ocircumflex" unicode="&#xd4;" horiz-adv-x="683" 
d="M663 511q0 -103 -33 -235t-92 -202q-75 -87 -224 -87q-116 0 -177 46t-61 166q0 109 35.5 239t101.5 201q73 77 210 77q58 0 98.5 -8t74.5 -29.5t50.5 -63t16.5 -104.5zM601 503q0 92 -41.5 125t-142.5 33q-109 0 -164 -62q-53 -59 -83.5 -177t-30.5 -214
q0 -94 42.5 -129.5t141.5 -35.5q61 0 101 15.5t72 56.5q47 61 76 181.5t29 206.5zM337 762h-26q-11 0 -11 11q0 7 9 15l123 102q18 14 31 14h23q14 0 24 -12l88 -104q5 -7 5 -13q0 -13 -16 -13h-18q-10 0 -25 13l-77 72l-102 -72q-19 -13 -28 -13z" />
    <glyph glyph-name="Otilde" unicode="&#xd5;" horiz-adv-x="683" 
d="M663 511q0 -103 -33 -235t-92 -202q-75 -87 -224 -87q-116 0 -177 46t-61 166q0 109 35.5 239t101.5 201q73 77 210 77q58 0 98.5 -8t74.5 -29.5t50.5 -63t16.5 -104.5zM601 503q0 92 -41.5 125t-142.5 33q-109 0 -164 -62q-53 -59 -83.5 -177t-30.5 -214
q0 -94 42.5 -129.5t141.5 -35.5q61 0 101 15.5t72 56.5q47 61 76 181.5t29 206.5zM337 777h-16q-13 0 -13 10t8 23q21 39 42 57t51 18q20 0 71 -29q40 -24 60 -24q14 0 24 8t24 33q10 17 21 17h17q14 0 14 -10q0 -8 -6 -22q-38 -82 -94 -82q-28 0 -76 27q-44 25 -60 25
q-25 0 -45 -38q-6 -13 -22 -13z" />
    <glyph glyph-name="Odieresis" unicode="&#xd6;" horiz-adv-x="683" 
d="M658 511q0 -103 -33 -235t-92 -202q-75 -87 -224 -87q-116 0 -177 46t-61 166q0 109 35.5 239t101.5 201q73 77 210 77q58 0 98.5 -8t74.5 -29.5t50.5 -63t16.5 -104.5zM596 503q0 92 -41.5 125t-142.5 33q-109 0 -164 -62q-53 -59 -83.5 -177t-30.5 -214
q0 -94 42.5 -129.5t141.5 -35.5q61 0 101 15.5t72 56.5q47 61 76 181.5t29 206.5zM409 830q0 -29 -16 -44q-12 -10 -30 -10q-35 0 -35 31q0 29 14 42q12 11 32 11q35 0 35 -30zM593 830q0 -29 -16 -44q-12 -10 -30 -10q-35 0 -35 31q0 28 15 42q11 11 32 11q34 0 34 -30z
" />
    <glyph glyph-name="multiply" unicode="&#xd7;" horiz-adv-x="701" 
d="M567 134q5 -4 5 -12q0 -6 -6 -12l-15 -15q-6 -5 -13 -5q-6 0 -11 5l-149 162l-180 -164q-7 -5 -11 -5q-7 0 -11 6l-12 14q-5 5 -5 11q0 5 8 13l179 165l-150 164q-5 5 -5 11t8 14l14 12q5 5 12 5q6 0 11 -5l149 -164l184 165q7 5 10 5q7 0 12 -6l11 -14q5 -8 5 -10
q0 -7 -6 -13l-186 -165z" />
    <glyph glyph-name="Oslash" unicode="&#xd8;" horiz-adv-x="683" 
d="M69 -17q-7 -8 -13 -8q-7 0 -20 13q-6 5 -6 11t6 12l52 61q-28 48 -28 127q0 109 35.5 239t101.5 201q72 76 210 76q133 0 186 -48l41 48q8 10 15 10q6 0 11 -5q14 -11 14 -18q-1 -7 -5 -12l-48 -57q26 -44 26 -122q0 -103 -33 -235t-92 -202q-75 -87 -224 -87
q-127 0 -183 51zM585 503q0 43 -10 76l-419 -493q40 -45 151 -45q60 0 100.5 16t72.5 56q47 62 76 183t29 207zM123 206q0 -45 11 -80l418 493q-38 42 -151 42q-110 0 -164 -61q-53 -60 -83.5 -178.5t-30.5 -215.5z" />
    <glyph glyph-name="Ugrave" unicode="&#xd9;" horiz-adv-x="681" 
d="M594 282q-14 -65 -20.5 -91.5t-18.5 -59.5t-28 -55q-34 -48 -89 -69t-141 -21q-206 0 -206 147q0 47 21 147l87 410q3 19 20 19h26q15 0 15 -12q0 -3 -3 -18l-90 -423q-13 -65 -13 -109q0 -104 153 -104q123 0 168 61q32 41 54 146l94 440q4 19 20 19h25q15 0 15 -12
q0 -5 -3 -17zM439 772l-138 109q-11 9 -11 18q0 11 14 11h43q16 0 28 -12l122 -109q9 -7 9 -16q0 -11 -13 -11h-26q-14 0 -28 10z" />
    <glyph glyph-name="Uacute" unicode="&#xda;" horiz-adv-x="681" 
d="M594 282q-14 -65 -20.5 -91.5t-18.5 -59.5t-28 -55q-34 -48 -89 -69t-141 -21q-206 0 -206 147q0 47 21 147l87 410q3 19 20 19h26q15 0 15 -12q0 -3 -3 -18l-90 -423q-13 -65 -13 -109q0 -104 153 -104q123 0 168 61q32 41 54 146l94 440q4 19 20 19h25q15 0 15 -12
q0 -5 -3 -17zM450 772q-14 -10 -29 -10h-29q-12 0 -12 11q0 9 9 16l151 110q14 11 27 11h48q14 0 14 -11q0 -9 -11 -18z" />
    <glyph glyph-name="Ucircumflex" unicode="&#xdb;" horiz-adv-x="681" 
d="M594 282q-14 -65 -20.5 -91.5t-18.5 -59.5t-28 -55q-34 -48 -89 -69t-141 -21q-206 0 -206 147q0 47 21 147l87 410q3 19 20 19h26q15 0 15 -12q0 -3 -3 -18l-90 -423q-13 -65 -13 -109q0 -104 153 -104q123 0 168 61q32 41 54 146l94 440q4 19 20 19h25q15 0 15 -12
q0 -5 -3 -17zM333 762h-26q-11 0 -11 11q0 7 9 15l123 102q18 14 31 14h23q14 0 24 -12l88 -104q5 -7 5 -13q0 -13 -16 -13h-18q-10 0 -25 13l-77 72l-102 -72q-19 -13 -28 -13z" />
    <glyph glyph-name="Udieresis" unicode="&#xdc;" horiz-adv-x="681" 
d="M594 282q-14 -65 -20.5 -91.5t-18.5 -59.5t-28 -55q-34 -48 -89 -69t-141 -21q-206 0 -206 147q0 47 21 147l87 410q3 19 20 19h26q15 0 15 -12q0 -3 -3 -18l-90 -423q-13 -65 -13 -109q0 -104 153 -104q123 0 168 61q32 41 54 146l94 440q4 19 20 19h25q15 0 15 -12
q0 -5 -3 -17zM412 830q0 -29 -16 -44q-12 -10 -30 -10q-35 0 -35 31q0 29 14 42q12 11 32 11q35 0 35 -30zM596 830q0 -29 -16 -44q-12 -10 -30 -10q-35 0 -35 31q0 28 15 42q11 11 32 11q34 0 34 -30z" />
    <glyph glyph-name="Yacute" unicode="&#xdd;" horiz-adv-x="550" 
d="M260 17q-4 -20 -21 -20h-24q-15 0 -15 13q0 3 2 17l61 284l-146 352q-10 25 -10 30q0 16 19 16h23q16 0 23 -17q100 -244 129 -325q51 68 262 320q18 22 37 22h24q13 0 13 -12q0 -11 -14 -26l-300 -359zM377 772q-14 -10 -29 -10h-29q-12 0 -12 11q0 9 9 16l151 110
q14 11 27 11h48q14 0 14 -11q0 -9 -11 -18z" />
    <glyph glyph-name="Thorn" unicode="&#xde;" horiz-adv-x="610" 
d="M151 154l-30 -138q-5 -19 -21 -19h-25q-14 0 -14 13q0 6 2 16l142 663q4 20 22 20h24q15 0 15 -12q0 -5 -3 -20l-27 -120h102q111 0 166 -25q72 -35 72 -124q0 -197 -167 -241q-54 -13 -147 -13h-111zM161 208h116q95 0 139 18q49 19 73 65t24 104q0 65 -48 90
q-32 16 -135 16h-106z" />
    <glyph glyph-name="germandbls" unicode="&#xdf;" horiz-adv-x="529" 
d="M87 -3h-24q-15 0 -15 13q0 4 2 14l101 471q24 114 47 150q28 44 69 61.5t103 17.5q151 0 151 -134q0 -78 -36.5 -133t-109.5 -68q57 -7 85 -40t28 -85q0 -131 -51 -199q-54 -74 -174 -74q-51 0 -82 9q-11 3 -11 14q0 12 8 28q5 10 15 10q1 0 19 -3q23 -6 60 -6
q48 0 75.5 12.5t46.5 42.5q37 60 37 157q0 51 -31.5 77t-118.5 26h-17q-13 0 -13 8q0 12 5 29q4 14 20 14h16q71 0 114 35q57 46 57 140q0 89 -102 89q-78 0 -112 -49q-20 -30 -40 -124l-103 -482q-4 -21 -19 -21z" />
    <glyph glyph-name="agrave" unicode="&#xe0;" horiz-adv-x="570" 
d="M418 17q-2 -12 -6.5 -16t-13.5 -4h-21q-13 0 -13 13q0 8 3 29q-59 -51 -163 -51q-153 0 -153 151q0 78 29 168.5t83 136.5q67 58 185 58q74 0 115 -26q5 20 20 20h20q14 0 14 -12q0 -5 -2 -17zM383 114l66 310q-32 25 -110 25q-91 0 -140 -43q-42 -37 -65.5 -110.5
t-23.5 -144.5q0 -57 27 -84t88 -27q80 0 129 34q15 10 20 17q6 10 9 23zM343 591l-112 131q-7 9 -7 16q0 11 13 11h41q12 0 21 -12l99 -134q5 -8 5 -13q0 -10 -11 -10h-26q-13 0 -23 11z" />
    <glyph glyph-name="aacute" unicode="&#xe1;" horiz-adv-x="570" 
d="M418 17q-2 -12 -6.5 -16t-13.5 -4h-21q-13 0 -13 13q0 8 3 29q-59 -51 -163 -51q-153 0 -153 151q0 78 29 168.5t83 136.5q67 58 185 58q74 0 115 -26q5 20 20 20h20q14 0 14 -12q0 -5 -2 -17zM383 114l66 310q-32 25 -110 25q-91 0 -140 -43q-42 -37 -65.5 -110.5
t-23.5 -144.5q0 -57 27 -84t88 -27q80 0 129 34q15 10 20 17q6 10 9 23zM359 591q-11 -11 -24 -11h-25q-12 0 -12 11q0 6 6 12l124 134q10 12 23 12h45q12 0 12 -10q0 -5 -9 -16z" />
    <glyph glyph-name="acircumflex" unicode="&#xe2;" horiz-adv-x="570" 
d="M418 17q-2 -12 -6.5 -16t-13.5 -4h-21q-13 0 -13 13q0 8 3 29q-59 -51 -163 -51q-153 0 -153 151q0 78 29 168.5t83 136.5q67 58 185 58q74 0 115 -26q5 20 20 20h20q14 0 14 -12q0 -5 -2 -17zM383 114l66 310q-32 25 -110 25q-91 0 -140 -43q-42 -37 -65.5 -110.5
t-23.5 -144.5q0 -57 27 -84t88 -27q80 0 129 34q15 10 20 17q6 10 9 23zM264 571h-24q-11 0 -11 11q0 7 8 15l124 138q12 14 28 14h26q14 0 19 -12l70 -142q3 -9 3 -13q0 -11 -14 -11h-18q-13 0 -21 13l-61 109l-105 -108q-14 -14 -24 -14z" />
    <glyph glyph-name="atilde" unicode="&#xe3;" horiz-adv-x="570" 
d="M418 17q-2 -12 -6.5 -16t-13.5 -4h-21q-13 0 -13 13q0 8 3 29q-59 -51 -163 -51q-153 0 -153 151q0 78 29 168.5t83 136.5q67 58 185 58q74 0 115 -26q5 20 20 20h20q14 0 14 -12q0 -5 -2 -17zM383 114l66 310q-32 25 -110 25q-91 0 -140 -43q-42 -37 -65.5 -110.5
t-23.5 -144.5q0 -57 27 -84t88 -27q80 0 129 34q15 10 20 17q6 10 9 23zM231 604h-16q-13 0 -13 11q0 5 7 23q21 39 41.5 57t49.5 18q18 0 68 -30q38 -23 57 -23q13 0 23 7.5t23 32.5q8 18 20 18h17q14 0 14 -10q0 -8 -6 -22q-38 -83 -91 -83q-29 0 -73 27q-43 25 -57 25
q-25 0 -43 -37q-6 -14 -21 -14z" />
    <glyph glyph-name="adieresis" unicode="&#xe4;" horiz-adv-x="570" 
d="M418 17q-2 -12 -6.5 -16t-13.5 -4h-21q-13 0 -13 13q0 8 3 29q-59 -51 -163 -51q-153 0 -153 151q0 78 29 168.5t83 136.5q67 58 185 58q74 0 115 -26q5 20 20 20h20q14 0 14 -12q0 -5 -2 -17zM383 114l66 310q-32 25 -110 25q-91 0 -140 -43q-42 -37 -65.5 -110.5
t-23.5 -144.5q0 -57 27 -84t88 -27q80 0 129 34q15 10 20 17q6 10 9 23zM331 675q0 -29 -16 -44q-12 -10 -30 -10q-35 0 -35 30q0 31 14 43q12 11 32 11q35 0 35 -30zM505 675q0 -31 -15 -44q-11 -10 -30 -10q-36 0 -36 30q0 29 15 43q13 11 32 11q34 0 34 -30z" />
    <glyph glyph-name="aring" unicode="&#xe5;" horiz-adv-x="570" 
d="M418 17q-2 -12 -6.5 -16t-13.5 -4h-21q-13 0 -13 13q0 8 3 29q-59 -51 -163 -51q-153 0 -153 151q0 78 29 168.5t83 136.5q67 58 185 58q74 0 115 -26q5 20 20 20h20q14 0 14 -12q0 -5 -2 -17zM383 114l66 310q-32 25 -110 25q-91 0 -140 -43q-42 -37 -65.5 -110.5
t-23.5 -144.5q0 -57 27 -84t88 -27q80 0 129 34q15 10 20 17q6 10 9 23zM468 682q0 -48 -28 -76.5t-76 -28.5q-40 0 -62.5 23t-22.5 63q0 46 28.5 74.5t74.5 28.5q40 0 63 -22t23 -62zM432 681q0 54 -54 54q-28 0 -47 -18.5t-19 -50.5q0 -28 15 -43t41 -15q29 0 46.5 18
t17.5 55z" />
    <glyph glyph-name="ae" unicode="&#xe6;" horiz-adv-x="846" 
d="M413 63q-40 -35 -86 -55t-121 -20q-155 0 -155 153q0 78 29 168.5t83 136.5q64 56 184 56q64 0 108 -22l3 9q5 16 19 16h15q12 0 12 -11q0 -4 -4 -24l-8 -38q20 33 67 53t101 20q160 0 160 -130q0 -49 -12 -109q-4 -23 -12 -29t-21 -6h-318q-7 -39 -7 -67
q0 -71 34.5 -97.5t111.5 -26.5q70 0 127 20q15 6 23 6q6 0 10 -8q6 -16 6 -24q0 -12 -19 -19q-69 -28 -162 -28q-136 0 -168 76zM398 111q-2 19 -2 59q0 43 27 163l21 94q-30 22 -105 22q-91 0 -140 -43q-42 -37 -65.5 -109.5t-23.5 -144.5q0 -57 27 -84.5t88 -27.5
q107 0 173 71zM465 280h288q11 49 11 87q0 45 -23.5 67.5t-85.5 22.5q-76 0 -120 -33q-49 -37 -70 -144z" />
    <glyph glyph-name="ccedilla" unicode="&#xe7;" horiz-adv-x="443" 
d="M214 -63q84 -1 84 -72q0 -55 -31.5 -78t-94.5 -23q-36 0 -49 6q-9 3 -9 12q0 10 4 20q3 11 15 11q3 0 13 -2q20 -4 34 -4q32 0 47.5 10.5t15.5 39.5q0 37 -44 37q-3 0 -11.5 -0.5t-9.5 -0.5q-16 0 -16 16q0 8 7 27l18 53q-137 13 -137 155q0 72 24.5 160.5t72.5 138.5
q64 67 186 67q55 0 101 -11q14 -4 14 -16q0 -15 -7 -29q-4 -9 -12 -9q-4 0 -24 4q-31 7 -81 7q-89 0 -137 -48q-38 -38 -57.5 -115t-19.5 -138q0 -56 27.5 -85.5t92.5 -29.5q69 0 117 16q17 6 24 6q6 0 11 -8q5 -17 5 -24q0 -12 -19 -19q-62 -22 -138 -24z" />
    <glyph glyph-name="egrave" unicode="&#xe8;" horiz-adv-x="506" 
d="M115 231q-7 -39 -7 -67q0 -71 34 -97.5t110 -26.5q69 0 131 20q17 6 23 6t10 -8q6 -16 6 -24q0 -12 -19 -20q-66 -27 -167 -27q-100 0 -143 42t-43 129q0 68 25.5 154t75.5 135q59 58 173 58q156 0 156 -130q0 -49 -12 -109q-4 -23 -12 -29t-21 -6h-320zM123 280h290
q11 50 11 85q0 45 -23.5 67.5t-85.5 22.5q-77 0 -118 -34q-48 -39 -74 -141zM305 591l-112 131q-7 9 -7 16q0 11 13 11h41q12 0 21 -12l99 -134q5 -8 5 -13q0 -10 -11 -10h-26q-13 0 -23 11z" />
    <glyph glyph-name="eacute" unicode="&#xe9;" horiz-adv-x="506" 
d="M115 231q-7 -39 -7 -67q0 -71 34 -97.5t110 -26.5q69 0 131 20q17 6 23 6t10 -8q6 -16 6 -24q0 -12 -19 -20q-66 -27 -167 -27q-100 0 -143 42t-43 129q0 68 25.5 154t75.5 135q59 58 173 58q156 0 156 -130q0 -49 -12 -109q-4 -23 -12 -29t-21 -6h-320zM123 280h290
q11 50 11 85q0 45 -23.5 67.5t-85.5 22.5q-77 0 -118 -34q-48 -39 -74 -141zM327 591q-11 -11 -24 -11h-25q-12 0 -12 11q0 6 6 12l124 134q10 12 23 12h45q12 0 12 -10q0 -5 -9 -16z" />
    <glyph glyph-name="ecircumflex" unicode="&#xea;" horiz-adv-x="506" 
d="M115 231q-7 -39 -7 -67q0 -71 34 -97.5t110 -26.5q69 0 131 20q17 6 23 6t10 -8q6 -16 6 -24q0 -12 -19 -20q-66 -27 -167 -27q-100 0 -143 42t-43 129q0 68 25.5 154t75.5 135q59 58 173 58q156 0 156 -130q0 -49 -12 -109q-4 -23 -12 -29t-21 -6h-320zM123 280h290
q11 50 11 85q0 45 -23.5 67.5t-85.5 22.5q-77 0 -118 -34q-48 -39 -74 -141zM232 571h-24q-11 0 -11 11q0 7 8 15l124 138q12 14 28 14h26q14 0 19 -12l70 -142q3 -9 3 -13q0 -11 -14 -11h-18q-13 0 -21 13l-61 109l-105 -108q-14 -14 -24 -14z" />
    <glyph glyph-name="edieresis" unicode="&#xeb;" horiz-adv-x="506" 
d="M115 231q-7 -39 -7 -67q0 -71 34 -97.5t110 -26.5q69 0 131 20q17 6 23 6t10 -8q6 -16 6 -24q0 -12 -19 -20q-66 -27 -167 -27q-100 0 -143 42t-43 129q0 68 25.5 154t75.5 135q59 58 173 58q156 0 156 -130q0 -49 -12 -109q-4 -23 -12 -29t-21 -6h-320zM123 280h290
q11 50 11 85q0 45 -23.5 67.5t-85.5 22.5q-77 0 -118 -34q-48 -39 -74 -141zM302 675q0 -29 -16 -44q-12 -10 -30 -10q-35 0 -35 30q0 31 14 43q12 11 32 11q35 0 35 -30zM476 675q0 -31 -15 -44q-11 -10 -30 -10q-36 0 -36 30q0 29 15 43q13 11 32 11q34 0 34 -30z" />
    <glyph glyph-name="igrave" unicode="&#xec;" horiz-adv-x="243" 
d="M174 591l-112 131q-7 9 -7 16q0 11 13 11h41q12 0 21 -12l99 -134q5 -8 5 -13q0 -10 -11 -10h-26q-13 0 -23 11zM105 16q-3 -19 -21 -19h-21q-15 0 -15 14q0 2 3 14l96 451q4 18 21 18h22q14 0 14 -13q0 -5 -3 -17z" />
    <glyph glyph-name="iacute" unicode="&#xed;" horiz-adv-x="243" 
d="M189 591q-11 -11 -24 -11h-25q-12 0 -12 11q0 6 6 12l124 134q10 12 23 12h45q12 0 12 -10q0 -5 -9 -16zM105 16q-3 -19 -21 -19h-21q-15 0 -15 14q0 2 3 14l96 451q4 18 21 18h22q14 0 14 -13q0 -5 -3 -17z" />
    <glyph glyph-name="icircumflex" unicode="&#xee;" horiz-adv-x="243" 
d="M105 16q-3 -19 -21 -19h-21q-15 0 -15 14q0 2 3 14l96 451q4 18 21 18h22q14 0 14 -13q0 -5 -3 -17zM83 571h-24q-11 0 -11 11q0 7 8 15l124 138q12 14 28 14h26q14 0 19 -12l70 -142q3 -9 3 -13q0 -11 -14 -11h-18q-13 0 -21 13l-61 109l-105 -108q-14 -14 -24 -14z" />
    <glyph glyph-name="idieresis" unicode="&#xef;" horiz-adv-x="243" 
d="M154 675q0 -29 -16 -44q-12 -10 -30 -10q-35 0 -35 30q0 31 14 43q12 11 32 11q35 0 35 -30zM328 675q0 -31 -15 -44q-11 -10 -30 -10q-36 0 -36 30q0 29 15 43q13 11 32 11q34 0 34 -30zM105 16q-3 -19 -21 -19h-21q-15 0 -15 14q0 2 3 14l96 451q4 18 21 18h22
q14 0 14 -13q0 -5 -3 -17z" />
    <glyph glyph-name="eth" unicode="&#xf0;" horiz-adv-x="549" 
d="M543 701l-79 -47q51 -70 51 -196q0 -104 -20 -213.5t-64 -177.5q-52 -80 -189 -80q-91 0 -141 34t-50 125q0 69 23 155t66 136q58 66 174 66q118 0 147 -53q-2 118 -46 174l-95 -57q-14 -7 -17 -7q-7 0 -13 10q-9 16 -9 19q0 7 11 14l89 53q-51 36 -141 43q-13 1 -13 13
q0 9 4 25q3 10 16 10q20 0 31 -1q99 -10 156 -59l82 49q12 6 16 6q6 0 10 -6q11 -17 11 -22q0 -7 -10 -13zM448 346q0 63 -36 84.5t-105 21.5q-86 0 -127 -51q-33 -39 -51.5 -119t-18.5 -131q0 -64 34 -87.5t105 -23.5q103 0 141 65q25 42 41.5 120t16.5 121z" />
    <glyph glyph-name="ntilde" unicode="&#xf1;" horiz-adv-x="572" 
d="M105 16q-3 -19 -21 -19h-21q-15 0 -15 14q0 2 3 14l97 455q3 17 21 17h19q15 0 15 -13q0 -12 -4 -30q54 49 181 49q126 0 126 -83q0 -31 -11 -84l-68 -321q-5 -18 -21 -18h-22q-14 0 -14 14q0 5 2 13l67 311q7 35 7 61q0 53 -86 53q-83 0 -145 -27q-19 -12 -21 -14
q-5 -6 -9 -24zM225 604h-16q-13 0 -13 11q0 5 7 23q21 39 41.5 57t49.5 18q18 0 68 -30q38 -23 57 -23q13 0 23 7.5t23 32.5q8 18 20 18h17q14 0 14 -10q0 -8 -6 -22q-38 -83 -91 -83q-29 0 -73 27q-43 25 -57 25q-25 0 -43 -37q-6 -14 -21 -14z" />
    <glyph glyph-name="ograve" unicode="&#xf2;" horiz-adv-x="545" 
d="M507 357q0 -59 -20.5 -148.5t-55.5 -141.5q-55 -80 -189 -80q-91 0 -141 34t-50 125q0 69 23 156.5t67 136.5q57 66 174 66q44 0 73.5 -4.5t59 -19t44.5 -45.5t15 -79zM449 346q0 64 -36.5 85.5t-105.5 21.5q-85 0 -126 -51q-33 -40 -52 -119t-19 -130q0 -64 34 -88.5
t105 -24.5q103 0 141 65q25 42 42 120t17 121zM334 591l-112 131q-7 9 -7 16q0 11 13 11h41q12 0 21 -12l99 -134q5 -8 5 -13q0 -10 -11 -10h-26q-13 0 -23 11z" />
    <glyph glyph-name="oacute" unicode="&#xf3;" horiz-adv-x="545" 
d="M507 357q0 -59 -20.5 -148.5t-55.5 -141.5q-55 -80 -189 -80q-91 0 -141 34t-50 125q0 69 23 156.5t67 136.5q57 66 174 66q44 0 73.5 -4.5t59 -19t44.5 -45.5t15 -79zM449 346q0 64 -36.5 85.5t-105.5 21.5q-85 0 -126 -51q-33 -40 -52 -119t-19 -130q0 -64 34 -88.5
t105 -24.5q103 0 141 65q25 42 42 120t17 121zM340 591q-11 -11 -24 -11h-25q-12 0 -12 11q0 6 6 12l124 134q11 12 23 12h45q12 0 12 -10q0 -5 -9 -16z" />
    <glyph glyph-name="ocircumflex" unicode="&#xf4;" horiz-adv-x="545" 
d="M507 357q0 -59 -20.5 -148.5t-55.5 -141.5q-55 -80 -189 -80q-91 0 -141 34t-50 125q0 69 23 156.5t67 136.5q57 66 174 66q44 0 73.5 -4.5t59 -19t44.5 -45.5t15 -79zM449 346q0 64 -36.5 85.5t-105.5 21.5q-85 0 -126 -51q-33 -40 -52 -119t-19 -130q0 -64 34 -88.5
t105 -24.5q103 0 141 65q25 42 42 120t17 121zM246 571h-24q-11 0 -11 11q0 7 8 15l124 138q12 14 28 14h26q14 0 19 -12l70 -142q3 -9 3 -13q0 -11 -14 -11h-18q-13 0 -21 13l-61 109l-105 -108q-14 -14 -24 -14z" />
    <glyph glyph-name="otilde" unicode="&#xf5;" horiz-adv-x="545" 
d="M507 357q0 -59 -20.5 -148.5t-55.5 -141.5q-55 -80 -189 -80q-91 0 -141 34t-50 125q0 69 23 156.5t67 136.5q57 66 174 66q44 0 73.5 -4.5t59 -19t44.5 -45.5t15 -79zM449 346q0 64 -36.5 85.5t-105.5 21.5q-85 0 -126 -51q-33 -40 -52 -119t-19 -130q0 -64 34 -88.5
t105 -24.5q103 0 141 65q25 42 42 120t17 121zM231 604h-16q-13 0 -13 11q0 5 7 23q21 39 41.5 57t49.5 18q18 0 68 -30q38 -23 57 -23q13 0 23 7.5t23 32.5q8 18 20 18h17q14 0 14 -10q0 -8 -6 -22q-38 -83 -91 -83q-29 0 -73 27q-43 25 -57 25q-25 0 -43 -37
q-6 -14 -21 -14z" />
    <glyph glyph-name="odieresis" unicode="&#xf6;" horiz-adv-x="545" 
d="M507 357q0 -59 -20.5 -148.5t-55.5 -141.5q-55 -80 -189 -80q-91 0 -141 34t-50 125q0 69 23 156.5t67 136.5q57 66 174 66q44 0 73.5 -4.5t59 -19t44.5 -45.5t15 -79zM449 346q0 64 -36.5 85.5t-105.5 21.5q-85 0 -126 -51q-33 -40 -52 -119t-19 -130q0 -64 34 -88.5
t105 -24.5q103 0 141 65q25 42 42 120t17 121zM317 675q0 -29 -16 -44q-12 -10 -30 -10q-35 0 -35 30q0 31 14 43q12 11 32 11q35 0 35 -30zM491 675q0 -31 -15 -44q-11 -10 -30 -10q-36 0 -36 30q0 29 15 43q13 11 32 11q34 0 34 -30z" />
    <glyph glyph-name="divide" unicode="&#xf7;" horiz-adv-x="701" 
d="M445 464q0 -21 -11.5 -36t-32.5 -15q-31 0 -31 33q0 23 11.5 36.5t30.5 13.5q14 0 23.5 -8t9.5 -24zM616 270h-488q-14 0 -14 14q0 6 3 22q3 15 17 15h489q14 0 14 -14q0 -11 -3 -23q-3 -14 -18 -14zM374 141q0 -21 -11.5 -36t-32.5 -15q-13 0 -22.5 8t-9.5 24
q0 24 12 36.5t31 12.5q33 0 33 -30z" />
    <glyph glyph-name="oslash" unicode="&#xf8;" horiz-adv-x="545" 
d="M53 -24q-7 -7 -13 -7q-5 0 -17 11q-7 6 -7 12q0 3 7 12l37 43q-26 35 -26 99q0 69 23.5 156.5t66.5 136.5q58 66 175 66q92 0 134 -24l35 40q6 7 12 7t12 -5q11 -9 11 -16q0 -5 -5 -12l-35 -40q28 -34 28 -98q0 -59 -20.5 -148.5t-55.5 -141.5q-55 -80 -189 -80
q-92 0 -137 31zM433 348q0 33 -12 57l-294 -343q32 -24 105 -24q104 0 142 65q25 42 42 122t17 123zM93 150q0 -32 9 -55l292 340q-33 20 -103 20q-85 0 -127 -50q-33 -40 -52 -122t-19 -133z" />
    <glyph glyph-name="ugrave" unicode="&#xf9;" horiz-adv-x="571" 
d="M373 37q-55 -49 -174 -49q-56 0 -94.5 21t-38.5 72q0 26 11 81l68 314q4 18 21 18h21q15 0 15 -13q0 -2 -3 -14l-64 -305q-9 -39 -9 -60q0 -60 93 -60q82 0 138 28q14 6 21 14q5 9 9 25l79 367q3 18 21 18h22q14 0 14 -13q0 -6 -2 -14l-97 -454q-3 -17 -21 -17h-20
q-15 0 -15 13q0 5 5 28zM333 593l-112 131q-7 9 -7 16q0 11 13 11h41q12 0 21 -12l99 -134q5 -8 5 -13q0 -10 -11 -10h-26q-13 0 -23 11z" />
    <glyph glyph-name="uacute" unicode="&#xfa;" horiz-adv-x="571" 
d="M373 37q-55 -49 -174 -49q-56 0 -94.5 21t-38.5 72q0 26 11 81l68 314q4 18 21 18h21q15 0 15 -13q0 -2 -3 -14l-64 -305q-9 -39 -9 -60q0 -60 93 -60q82 0 138 28q14 6 21 14q5 9 9 25l79 367q3 18 21 18h22q14 0 14 -13q0 -6 -2 -14l-97 -454q-3 -17 -21 -17h-20
q-15 0 -15 13q0 5 5 28zM348 591q-11 -11 -24 -11h-25q-12 0 -12 11q0 6 6 12l124 134q11 12 23 12h45q12 0 12 -10q0 -5 -9 -16z" />
    <glyph glyph-name="ucircumflex" unicode="&#xfb;" horiz-adv-x="571" 
d="M373 37q-55 -49 -174 -49q-56 0 -94.5 21t-38.5 72q0 26 11 81l68 314q4 18 21 18h21q15 0 15 -13q0 -2 -3 -14l-64 -305q-9 -39 -9 -60q0 -60 93 -60q82 0 138 28q14 6 21 14q5 9 9 25l79 367q3 18 21 18h22q14 0 14 -13q0 -6 -2 -14l-97 -454q-3 -17 -21 -17h-20
q-15 0 -15 13q0 5 5 28zM244 571h-24q-11 0 -11 11q0 7 8 15l124 138q12 14 28 14h26q14 0 19 -12l70 -142q3 -9 3 -13q0 -11 -14 -11h-18q-13 0 -21 13l-61 109l-105 -108q-14 -14 -24 -14z" />
    <glyph glyph-name="udieresis" unicode="&#xfc;" horiz-adv-x="571" 
d="M373 37q-55 -49 -174 -49q-56 0 -94.5 21t-38.5 72q0 26 11 81l68 314q4 18 21 18h21q15 0 15 -13q0 -2 -3 -14l-64 -305q-9 -39 -9 -60q0 -60 93 -60q82 0 138 28q14 6 21 14q5 9 9 25l79 367q3 18 21 18h22q14 0 14 -13q0 -6 -2 -14l-97 -454q-3 -17 -21 -17h-20
q-15 0 -15 13q0 5 5 28zM314 675q0 -29 -16 -44q-12 -10 -30 -10q-35 0 -35 30q0 31 14 43q12 11 32 11q35 0 35 -30zM488 675q0 -31 -15 -44q-11 -10 -30 -10q-36 0 -36 30q0 29 15 43q13 11 32 11q34 0 34 -30z" />
    <glyph glyph-name="yacute" unicode="&#xfd;" horiz-adv-x="444" 
d="M148 15l-82 444q-2 12 -2 15q0 20 19 20h22q17 0 20 -25q66 -381 67 -385l229 385q15 25 28 25h27q15 0 15 -11q0 -7 -11 -27l-290 -474q-77 -128 -109 -168q-51 -64 -136 -64q-29 0 -44 3t-15 15q0 18 7 30q6 9 16 9q2 0 16.5 -1.5t23.5 -1.5q54 0 89 43q22 27 97 148z
M296 591q-11 -11 -24 -11h-25q-12 0 -12 11q0 6 6 12l124 134q11 12 23 12h45q12 0 12 -10q0 -5 -9 -16z" />
    <glyph glyph-name="thorn" unicode="&#xfe;" horiz-adv-x="555" 
d="M107 19l-53 -244q-3 -19 -21 -19h-21q-15 0 -15 14q0 1 0.5 3.5t1.5 5.5t1 5l201 946q3 18 22 18h19q16 0 16 -14q0 -6 -2 -16l-57 -263q56 47 165 47q152 0 152 -148q0 -68 -21.5 -149.5t-60.5 -130.5q-36 -44 -85 -61.5t-124 -17.5q-83 0 -118 24zM118 73
q11 -10 45 -18t66 -8q114 0 160 57q31 38 49 108t18 129q0 54 -28 80.5t-91 26.5q-74 0 -126 -28q-15 -8 -20 -17t-8 -23z" />
    <glyph glyph-name="ydieresis" unicode="&#xff;" horiz-adv-x="444" 
d="M148 15l-82 444q-2 12 -2 15q0 20 19 20h22q17 0 20 -25q66 -381 67 -385l229 385q15 25 28 25h27q15 0 15 -11q0 -7 -11 -27l-290 -474q-77 -128 -109 -168q-51 -64 -136 -64q-29 0 -44 3t-15 15q0 18 7 30q6 9 16 9q2 0 16.5 -1.5t23.5 -1.5q54 0 89 43q22 27 97 148z
M251 675q0 -29 -16 -44q-12 -10 -30 -10q-35 0 -35 30q0 31 14 43q12 11 32 11q35 0 35 -30zM425 675q0 -31 -15 -44q-11 -10 -30 -10q-36 0 -36 30q0 29 15 43q13 11 32 11q34 0 34 -30z" />
    <glyph glyph-name="Amacron" unicode="&#x100;" horiz-adv-x="575" 
d="M35 21q-14 -24 -29 -24h-26q-15 0 -15 14q0 7 12 26l376 654q11 18 25 18h22q18 0 21 -19l98 -653q3 -15 3 -23t-6.5 -12.5t-13.5 -4.5h-21q-10 0 -14 5t-6 20q-20 119 -33 211h-271zM374 624l-188 -336h235q-18 123 -31.5 224.5t-15.5 111.5zM519 798h-247q-13 0 -13 11
q0 13 5 28q4 15 19 15h245q15 0 15 -12q0 -11 -6 -29q-4 -13 -18 -13z" />
    <glyph glyph-name="amacron" unicode="&#x101;" horiz-adv-x="570" 
d="M418 17q-2 -12 -6.5 -16t-13.5 -4h-21q-13 0 -13 13q0 8 3 29q-59 -51 -163 -51q-153 0 -153 151q0 78 29 168.5t83 136.5q67 58 185 58q74 0 115 -26q5 20 20 20h20q14 0 14 -12q0 -5 -2 -17zM383 114l66 310q-32 25 -110 25q-91 0 -140 -43q-42 -37 -65.5 -110.5
t-23.5 -144.5q0 -57 27 -84t88 -27q80 0 129 34q15 10 20 17q6 10 9 23zM465 615h-229q-13 0 -13 12q0 14 5 28q4 15 19 15h226q15 0 15 -11q0 -14 -5 -31q-4 -13 -18 -13z" />
    <glyph glyph-name="Abreve" unicode="&#x102;" horiz-adv-x="575" 
d="M35 21q-14 -24 -29 -24h-26q-15 0 -15 14q0 7 12 26l376 654q11 18 25 18h22q18 0 21 -19l98 -653q3 -15 3 -23t-6.5 -12.5t-13.5 -4.5h-21q-10 0 -14 5t-6 20q-20 119 -33 211h-271zM374 624l-188 -336h235q-18 123 -31.5 224.5t-15.5 111.5zM535 902q12 0 12 -12
q0 -10 -8 -34q-34 -94 -149 -94q-128 0 -128 103q0 15 3 25q3 12 15 12h18q12 0 13 -12v-15q0 -62 80 -62q49 0 74 18.5t35 56.5q5 14 17 14h18z" />
    <glyph glyph-name="abreve" unicode="&#x103;" horiz-adv-x="570" 
d="M418 17q-2 -12 -6.5 -16t-13.5 -4h-21q-13 0 -13 13q0 8 3 29q-59 -51 -163 -51q-153 0 -153 151q0 78 29 168.5t83 136.5q67 58 185 58q74 0 115 -26q5 20 20 20h20q14 0 14 -12q0 -5 -2 -17zM383 114l66 310q-32 25 -110 25q-91 0 -140 -43q-42 -37 -65.5 -110.5
t-23.5 -144.5q0 -57 27 -84t88 -27q80 0 129 34q15 10 20 17q6 10 9 23zM498 718q10 0 10 -12q0 -16 -8 -37q-38 -97 -144 -97q-60 0 -89.5 27.5t-29.5 72.5q0 22 3 34t16 12h13q12 0 12 -11v-21q2 -32 20 -47t59 -15q46 0 69 21t35 62q3 11 15 11h19z" />
    <glyph glyph-name="Aogonek" unicode="&#x104;" horiz-adv-x="575" 
d="M35 21q-14 -24 -29 -24h-26q-15 0 -15 14q0 7 12 26l376 654q11 18 25 18h22q18 0 21 -19l98 -653q3 -15 3 -23t-6.5 -12.5t-13.5 -4.5q-102 -65 -102 -134q0 -47 52 -47q12 0 28 2.5t18 2.5q9 0 12 -10t3 -21q-1 -11 -13 -14q-24 -8 -64 -8q-95 0 -95 84q0 50 31 85.5
t88 68.5h5q-2 5 -4 16q-20 119 -33 211h-271zM374 624l-188 -336h235q-18 123 -31.5 224.5t-15.5 111.5z" />
    <glyph glyph-name="aogonek" unicode="&#x105;" horiz-adv-x="570" 
d="M419 6q-1 -1 -3.5 -2t-3.5 -2q-3 -2 -7 -4q-100 -63 -100 -128q0 -44 51 -44q12 0 27 2.5t17 2.5q9 0 12 -10q3 -13 3 -20q-1 -10 -12 -13q-24 -8 -63 -8q-91 0 -91 80q0 47 30 81t85 65v4q0 8 3 29q-59 -51 -163 -51q-153 0 -153 151q0 78 29 168.5t83 136.5
q67 58 185 58q74 0 115 -26q5 20 20 20h20q14 0 14 -12q0 -5 -2 -17l-97 -450l-3 -11h4zM383 114l66 310q-32 25 -110 25q-91 0 -140 -43q-42 -37 -65.5 -110.5t-23.5 -144.5q0 -57 27 -84t88 -27q80 0 129 34q15 10 20 17q6 10 9 23z" />
    <glyph glyph-name="Cacute" unicode="&#x106;" horiz-adv-x="589" 
d="M139 218q0 -175 168 -175q104 0 173 22q24 8 29 8q8 0 13 -15q4 -11 4 -20q0 -13 -25 -22q-81 -29 -198 -29q-225 0 -225 223q0 103 32.5 225.5t92.5 191.5q42 48 101.5 70t148.5 22q76 0 145 -15q20 -4 20 -19q0 -12 -9 -30q-4 -9 -15 -9q-7 0 -33 6q-51 11 -137 11
q-109 0 -176 -72q-51 -56 -80 -167t-29 -206zM351 772q-14 -10 -29 -10h-29q-12 0 -12 11q0 9 9 16l151 110q14 11 27 11h48q14 0 14 -11q0 -9 -11 -18z" />
    <glyph glyph-name="cacute" unicode="&#x107;" horiz-adv-x="443" 
d="M110 155q0 -56 27.5 -85.5t92.5 -29.5q69 0 117 16q17 6 24 6q6 0 11 -8q5 -17 5 -24q0 -12 -19 -19q-67 -24 -147 -24q-83 0 -127 36.5t-44 120.5q0 72 24.5 160.5t72.5 138.5q64 67 186 67q55 0 101 -11q14 -4 14 -16q0 -15 -7 -29q-4 -9 -12 -9q-4 0 -24 4
q-31 7 -81 7q-89 0 -137 -48q-38 -38 -57.5 -115t-19.5 -138zM321 591q-11 -11 -24 -11h-25q-12 0 -12 11q0 6 6 12l124 134q10 12 23 12h45q12 0 12 -10q0 -5 -9 -16z" />
    <glyph glyph-name="Ccircumflex" unicode="&#x108;" horiz-adv-x="589" 
d="M139 218q0 -175 168 -175q104 0 173 22q24 8 29 8q8 0 13 -15q4 -11 4 -20q0 -13 -25 -22q-81 -29 -198 -29q-225 0 -225 223q0 103 32.5 225.5t92.5 191.5q42 48 101.5 70t148.5 22q76 0 145 -15q20 -4 20 -19q0 -12 -9 -30q-4 -9 -15 -9q-7 0 -33 6q-51 11 -137 11
q-109 0 -176 -72q-51 -56 -80 -167t-29 -206zM328 762h-26q-11 0 -11 11q0 7 9 15l123 102q18 14 31 14h23q14 0 24 -12l88 -104q5 -7 5 -13q0 -13 -16 -13h-18q-10 0 -25 13l-77 72l-102 -72q-19 -13 -28 -13z" />
    <glyph glyph-name="ccircumflex" unicode="&#x109;" horiz-adv-x="443" 
d="M110 155q0 -56 27.5 -85.5t92.5 -29.5q69 0 117 16q17 6 24 6q6 0 11 -8q5 -17 5 -24q0 -12 -19 -19q-67 -24 -147 -24q-83 0 -127 36.5t-44 120.5q0 72 24.5 160.5t72.5 138.5q64 67 186 67q55 0 101 -11q14 -4 14 -16q0 -15 -7 -29q-4 -9 -12 -9q-4 0 -24 4
q-31 7 -81 7q-89 0 -137 -48q-38 -38 -57.5 -115t-19.5 -138zM222 571h-24q-11 0 -11 11q0 7 8 15l124 138q12 14 28 14h26q14 0 19 -12l70 -142q3 -9 3 -13q0 -11 -14 -11h-18q-13 0 -21 13l-61 109l-105 -108q-14 -14 -24 -14z" />
    <glyph glyph-name="Cdotaccent" unicode="&#x10a;" horiz-adv-x="589" 
d="M139 218q0 -175 168 -175q104 0 173 22q24 8 29 8q8 0 13 -15q4 -11 4 -20q0 -13 -25 -22q-81 -29 -198 -29q-225 0 -225 223q0 103 32.5 225.5t92.5 191.5q42 48 101.5 70t148.5 22q76 0 145 -15q20 -4 20 -19q0 -12 -9 -30q-4 -9 -15 -9q-7 0 -33 6q-51 11 -137 11
q-109 0 -176 -72q-51 -56 -80 -167t-29 -206zM492 830q0 -29 -16 -44q-12 -10 -30 -10q-35 0 -35 31q0 28 15 42q11 11 32 11q34 0 34 -30z" />
    <glyph glyph-name="cdotaccent" unicode="&#x10b;" horiz-adv-x="443" 
d="M110 155q0 -56 27.5 -85.5t92.5 -29.5q69 0 117 16q17 6 24 6q6 0 11 -8q5 -17 5 -24q0 -12 -19 -19q-67 -24 -147 -24q-83 0 -127 36.5t-44 120.5q0 72 24.5 160.5t72.5 138.5q64 67 186 67q55 0 101 -11q14 -4 14 -16q0 -15 -7 -29q-4 -9 -12 -9q-4 0 -24 4
q-31 7 -81 7q-89 0 -137 -48q-38 -38 -57.5 -115t-19.5 -138zM380 675q0 -29 -16 -44q-12 -10 -30 -10q-35 0 -35 30q0 28 15 43q13 11 32 11q34 0 34 -30z" />
    <glyph glyph-name="Ccaron" unicode="&#x10c;" horiz-adv-x="589" 
d="M139 218q0 -175 168 -175q104 0 173 22q24 8 29 8q8 0 13 -15q4 -11 4 -20q0 -13 -25 -22q-81 -29 -198 -29q-225 0 -225 223q0 103 32.5 225.5t92.5 191.5q42 48 101.5 70t148.5 22q76 0 145 -15q20 -4 20 -19q0 -12 -9 -30q-4 -9 -15 -9q-7 0 -33 6q-51 11 -137 11
q-109 0 -176 -72q-51 -56 -80 -167t-29 -206zM571 904h26q11 0 11 -10q0 -6 -9 -15l-123 -102q-19 -15 -31 -15h-24q-12 0 -23 13l-88 104q-5 7 -5 13q0 12 16 12h18q11 0 25 -12l77 -72l102 72q17 12 28 12z" />
    <glyph glyph-name="ccaron" unicode="&#x10d;" horiz-adv-x="443" 
d="M110 155q0 -56 27.5 -85.5t92.5 -29.5q69 0 117 16q17 6 24 6q6 0 11 -8q5 -17 5 -24q0 -12 -19 -19q-67 -24 -147 -24q-83 0 -127 36.5t-44 120.5q0 72 24.5 160.5t72.5 138.5q64 67 186 67q55 0 101 -11q14 -4 14 -16q0 -15 -7 -29q-4 -9 -12 -9q-4 0 -24 4
q-31 7 -81 7q-89 0 -137 -48q-38 -38 -57.5 -115t-19.5 -138zM454 749h24q11 0 11 -10q0 -6 -8 -16l-124 -137q-13 -15 -28 -15h-26q-13 0 -19 13l-70 141q-3 12 -3 14q0 10 14 10h18q13 0 21 -12l61 -109l105 107q14 14 24 14z" />
    <glyph glyph-name="Dcaron" unicode="&#x10e;" horiz-adv-x="682" 
d="M129 56h101q130 0 188 25q64 26 107 94t58.5 141t15.5 150q0 121 -78 160q-47 24 -171 24h-94zM211 0h-133q-17 0 -17 12q0 6 3 17l140 658q4 19 20 19h135q112 0 177 -20q62 -19 94 -72.5t32 -133.5q0 -70 -11 -136t-36.5 -132t-74 -115.5t-115.5 -72.5
q-73 -24 -214 -24zM546 904h26q11 0 11 -10q0 -6 -9 -15l-123 -102q-19 -15 -31 -15h-24q-12 0 -23 13l-88 104q-5 7 -5 13q0 12 16 12h18q12 0 25 -12l77 -72l102 72q17 12 28 12z" />
    <glyph glyph-name="dcaron" unicode="&#x10f;" horiz-adv-x="564" 
d="M418 17q-2 -12 -6.5 -16t-13.5 -4h-21q-13 0 -13 13q0 8 3 29q-59 -51 -163 -51q-153 0 -153 151q0 79 28.5 170.5t82.5 137.5q63 55 187 55q68 0 111 -18l54 246q4 18 21 18h21q15 0 15 -11q0 -2 -2 -14zM382 114l66 314q-32 21 -110 21q-91 0 -140 -43
q-42 -37 -65 -110t-23 -145q0 -57 27 -84t88 -27q82 0 129 34q12 9 19 18q6 8 9 22zM715 748q17 0 17 -18q0 -14 -11 -47q-28 -79 -78 -121q-11 -11 -21 -11q-7 0 -19 8q-7 7 -7 13q0 7 10 17q51 54 62 134q4 25 23 25h24z" />
    <glyph glyph-name="Dcroat" unicode="&#x110;" horiz-adv-x="682" 
d="M211 0h-133q-17 0 -17 12q0 6 3 17l66 313h-69q-14 0 -14 12q0 3 5 25q4 15 19 15h70l63 293q4 19 20 19h135q112 0 177 -20q62 -19 94 -72.5t32 -133.5q0 -70 -11 -136t-36.5 -132t-74 -115.5t-115.5 -72.5q-73 -24 -214 -24zM129 56h101q130 0 188 25q64 26 107 94
t58.5 141t15.5 150q0 121 -78 160q-47 24 -171 24h-94l-55 -256h186q15 0 15 -12q0 -9 -6 -27q-4 -13 -20 -13h-186z" />
    <glyph glyph-name="dcroat" unicode="&#x111;" horiz-adv-x="564" 
d="M418 17q-2 -12 -6.5 -16t-13.5 -4h-21q-13 0 -13 13q0 8 3 29q-59 -51 -163 -51q-153 0 -153 151q0 79 28.5 170.5t82.5 137.5q63 55 187 55q68 0 111 -18l23 106h-122q-13 0 -13 11q0 9 3 21q3 14 19 14h123l21 94q4 18 21 18h21q15 0 15 -11q0 -2 -2 -14l-19 -87h50
q14 0 14 -12q0 -4 -4 -22q-2 -12 -20 -12h-50zM382 114l66 314q-32 21 -110 21q-91 0 -140 -43q-42 -37 -65 -110t-23 -145q0 -57 27 -84t88 -27q82 0 129 34q12 9 19 18q6 8 9 22z" />
    <glyph glyph-name="Emacron" unicode="&#x112;" horiz-adv-x="543" 
d="M441 0h-365q-15 0 -15 12q0 6 3 18l141 656q4 20 21 20h331q16 0 16 -11q0 -4 -5 -31q-3 -14 -22 -14h-290l-55 -254h270q17 0 17 -12q0 -9 -5 -29q-4 -15 -22 -15h-271l-61 -284h325q16 0 16 -12q0 -10 -6 -30q-4 -14 -23 -14zM522 798h-247q-13 0 -13 11q0 13 5 28
t19 15h245q15 0 15 -12q0 -11 -6 -29q-4 -13 -18 -13z" />
    <glyph glyph-name="emacron" unicode="&#x113;" horiz-adv-x="506" 
d="M115 231q-7 -39 -7 -67q0 -71 34 -97.5t110 -26.5q69 0 131 20q17 6 23 6t10 -8q6 -16 6 -24q0 -12 -19 -20q-66 -27 -167 -27q-100 0 -143 42t-43 129q0 68 25.5 154t75.5 135q59 58 173 58q156 0 156 -130q0 -49 -12 -109q-4 -23 -12 -29t-21 -6h-320zM123 280h290
q11 50 11 85q0 45 -23.5 67.5t-85.5 22.5q-77 0 -118 -34q-48 -39 -74 -141zM452 615h-229q-13 0 -13 12q0 14 5 28q4 15 19 15h226q15 0 15 -11q0 -14 -5 -31q-4 -13 -18 -13z" />
    <glyph glyph-name="Ebreve" unicode="&#x114;" horiz-adv-x="543" 
d="M441 0h-365q-15 0 -15 12q0 6 3 18l141 656q4 20 21 20h331q16 0 16 -11q0 -4 -5 -31q-3 -14 -22 -14h-290l-55 -254h270q17 0 17 -12q0 -9 -5 -29q-4 -15 -22 -15h-271l-61 -284h325q16 0 16 -12q0 -10 -6 -30q-4 -14 -23 -14zM535 902q12 0 12 -12q0 -10 -8 -34
q-34 -94 -149 -94q-128 0 -128 103q0 15 3 25q3 12 15 12h18q12 0 13 -12v-15q0 -62 80 -62q49 0 74 18.5t35 56.5q5 14 17 14h18z" />
    <glyph glyph-name="ebreve" unicode="&#x115;" horiz-adv-x="506" 
d="M115 231q-7 -39 -7 -67q0 -71 34 -97.5t110 -26.5q69 0 131 20q17 6 23 6t10 -8q6 -16 6 -24q0 -12 -19 -20q-66 -27 -167 -27q-100 0 -143 42t-43 129q0 68 25.5 154t75.5 135q59 58 173 58q156 0 156 -130q0 -49 -12 -109q-4 -23 -12 -29t-21 -6h-320zM123 280h290
q11 50 11 85q0 45 -23.5 67.5t-85.5 22.5q-77 0 -118 -34q-48 -39 -74 -141zM466 718q10 0 10 -12q0 -16 -8 -37q-38 -97 -144 -97q-60 0 -89.5 27.5t-29.5 72.5q0 22 3 34t16 12h13q12 0 12 -11v-21q2 -32 20 -47t59 -15q46 0 69 21t35 62q3 11 15 11h19z" />
    <glyph glyph-name="Edotaccent" unicode="&#x116;" horiz-adv-x="543" 
d="M441 0h-365q-15 0 -15 12q0 6 3 18l141 656q4 20 21 20h331q16 0 16 -11q0 -4 -5 -31q-3 -14 -22 -14h-290l-55 -254h270q17 0 17 -12q0 -9 -5 -29q-4 -15 -22 -15h-271l-61 -284h325q16 0 16 -12q0 -10 -6 -30q-4 -14 -23 -14zM439 830q0 -29 -16 -44q-12 -10 -30 -10
q-35 0 -35 31q0 28 15 42q11 11 32 11q34 0 34 -30z" />
    <glyph glyph-name="edotaccent" unicode="&#x117;" horiz-adv-x="506" 
d="M115 231q-7 -39 -7 -67q0 -71 34 -97.5t110 -26.5q69 0 131 20q17 6 23 6t10 -8q6 -16 6 -24q0 -12 -19 -20q-66 -27 -167 -27q-100 0 -143 42t-43 129q0 68 25.5 154t75.5 135q59 58 173 58q156 0 156 -130q0 -49 -12 -109q-4 -23 -12 -29t-21 -6h-320zM123 280h290
q11 50 11 85q0 45 -23.5 67.5t-85.5 22.5q-77 0 -118 -34q-48 -39 -74 -141zM372 675q0 -29 -16 -44q-12 -10 -30 -10q-35 0 -35 30q0 28 15 43q13 11 32 11q34 0 34 -30z" />
    <glyph glyph-name="Eogonek" unicode="&#x118;" horiz-adv-x="543" 
d="M441 0h-14q-107 -68 -107 -137q0 -47 52 -47q12 0 28 2.5t18 2.5q9 0 12 -10t3 -21q-1 -11 -13 -14q-24 -8 -64 -8q-95 0 -95 84q0 83 108 148h-293q-15 0 -15 12q0 6 3 18l141 656q4 20 21 20h331q16 0 16 -11q0 -4 -5 -31q-3 -14 -22 -14h-290l-55 -254h270
q17 0 17 -12q0 -9 -5 -29q-4 -15 -22 -15h-271l-61 -284h325q16 0 16 -12q0 -10 -6 -30q-4 -14 -23 -14z" />
    <glyph glyph-name="eogonek" unicode="&#x119;" horiz-adv-x="506" 
d="M115 231q-7 -39 -7 -67q0 -71 34 -97.5t110 -26.5q69 0 131 20q17 6 23 6t10 -8q6 -16 6 -24q0 -12 -19 -20q-30 -13 -61 -17q-98 -63 -98 -127q0 -44 51 -44q12 0 27 2.5t17 2.5q9 0 12 -10q3 -13 3 -20q-1 -10 -12 -13q-24 -8 -63 -8q-91 0 -91 80q0 72 85 128
q-7 0 -19 -0.5t-18 -0.5q-100 0 -143 42t-43 129q0 68 25.5 154t75.5 135q59 58 173 58q156 0 156 -130q0 -49 -12 -109q-4 -23 -12 -29t-21 -6h-320zM123 280h290q11 50 11 85q0 45 -23.5 67.5t-85.5 22.5q-77 0 -118 -34q-48 -39 -74 -141z" />
    <glyph glyph-name="Ecaron" unicode="&#x11a;" horiz-adv-x="543" 
d="M441 0h-365q-15 0 -15 12q0 6 3 18l141 656q4 20 21 20h331q16 0 16 -11q0 -4 -5 -31q-3 -14 -22 -14h-290l-55 -254h270q17 0 17 -12q0 -9 -5 -29q-4 -15 -22 -15h-271l-61 -284h325q16 0 16 -12q0 -10 -6 -30q-4 -14 -23 -14zM527 904h26q11 0 11 -10q0 -6 -9 -15
l-123 -102q-19 -15 -31 -15h-24q-12 0 -23 13l-88 104q-5 7 -5 13q0 12 16 12h18q12 0 25 -12l77 -72l102 72q17 12 28 12z" />
    <glyph glyph-name="ecaron" unicode="&#x11b;" horiz-adv-x="506" 
d="M115 231q-7 -39 -7 -67q0 -71 34 -97.5t110 -26.5q69 0 131 20q17 6 23 6t10 -8q6 -16 6 -24q0 -12 -19 -20q-66 -27 -167 -27q-100 0 -143 42t-43 129q0 68 25.5 154t75.5 135q59 58 173 58q156 0 156 -130q0 -49 -12 -109q-4 -23 -12 -29t-21 -6h-320zM123 280h290
q11 50 11 85q0 45 -23.5 67.5t-85.5 22.5q-77 0 -118 -34q-48 -39 -74 -141zM462 749h24q11 0 11 -10q0 -6 -8 -16l-124 -137q-13 -15 -28 -15h-26q-13 0 -19 13l-70 141q-3 12 -3 14q0 10 14 10h18q13 0 21 -12l61 -109l105 107q14 14 24 14z" />
    <glyph glyph-name="Gcircumflex" unicode="&#x11c;" horiz-adv-x="659" 
d="M567 61q-7 -25 -27 -34q-88 -40 -222 -40q-240 0 -240 222q0 106 33.5 228t94.5 192q80 90 253 90q77 0 151 -16q20 -5 20 -18q0 -12 -9 -32q-5 -9 -15 -9q-7 0 -33 6q-52 13 -142 13q-118 0 -181 -70q-51 -57 -81 -169t-30 -206q0 -79 43.5 -127t141.5 -48q111 0 187 31
l48 216h-169q-15 0 -15 11q0 1 4 29q3 15 21 15h204q19 0 19 -15q0 -2 -0.5 -5t-1.5 -7.5t-1 -7.5zM349 762h-26q-11 0 -11 11q0 7 9 15l123 102q18 14 31 14h23q14 0 24 -12l88 -104q5 -7 5 -13q0 -13 -16 -13h-18q-10 0 -25 13l-77 72l-102 -72q-19 -13 -28 -13z" />
    <glyph glyph-name="gcircumflex" unicode="&#x11d;" horiz-adv-x="493" 
d="M77 16q-59 19 -59 82q0 81 87 118q-23 28 -23 78q0 132 93 185q48 26 126 26q48 0 84 -14h132q18 0 18 -14q0 -1 -3 -21q-1 -15 -22 -15h-72q20 -28 20 -67q0 -109 -61 -165q-52 -47 -154 -47q-48 0 -83 14q-17 7 -29 7q-13 0 -28 -11q-30 -20 -30 -59q0 -40 29 -47
q20 -7 149 -7q111 0 156 -24t45 -88q0 -110 -65.5 -152.5t-196.5 -42.5q-201 0 -201 129q0 51 21 83t67 52zM393 -69q0 36 -29 55t-103 20q-44 1 -90 1q-30 0 -45 -5q-80 -24 -80 -108q0 -90 151 -90q37 0 62 2t52.5 9t44 20t27 37.5t10.5 58.5zM403 368q0 48 -28 67t-85 19
q-59 0 -87 -15q-65 -35 -65 -139q0 -52 30 -70t83 -18q74 0 111 34q41 38 41 122zM207 571h-24q-11 0 -11 11q0 7 8 15l124 138q12 14 28 14h26q14 0 19 -12l70 -142q3 -9 3 -13q0 -11 -14 -11h-18q-13 0 -21 13l-61 109l-105 -108q-14 -14 -24 -14z" />
    <glyph glyph-name="Gbreve" unicode="&#x11e;" horiz-adv-x="659" 
d="M567 61q-7 -25 -27 -34q-88 -40 -222 -40q-240 0 -240 222q0 106 33.5 228t94.5 192q80 90 253 90q77 0 151 -16q20 -5 20 -18q0 -12 -9 -32q-5 -9 -15 -9q-7 0 -33 6q-52 13 -142 13q-118 0 -181 -70q-51 -57 -81 -169t-30 -206q0 -79 43.5 -127t141.5 -48q111 0 187 31
l48 216h-169q-15 0 -15 11q0 1 4 29q3 15 21 15h204q19 0 19 -15q0 -2 -0.5 -5t-1.5 -7.5t-1 -7.5zM596 902q12 0 12 -12q0 -10 -8 -34q-34 -94 -149 -94q-128 0 -128 103q0 15 3 25q3 12 15 12h18q11 0 13 -12v-15q0 -62 80 -62q49 0 74 18.5t35 56.5q5 14 17 14h18z" />
    <glyph glyph-name="gbreve" unicode="&#x11f;" horiz-adv-x="493" 
d="M77 16q-59 19 -59 82q0 81 87 118q-23 28 -23 78q0 132 93 185q48 26 126 26q48 0 84 -14h132q18 0 18 -14q0 -1 -3 -21q-1 -15 -22 -15h-72q20 -28 20 -67q0 -109 -61 -165q-52 -47 -154 -47q-48 0 -83 14q-17 7 -29 7q-13 0 -28 -11q-30 -20 -30 -59q0 -40 29 -47
q20 -7 149 -7q111 0 156 -24t45 -88q0 -110 -65.5 -152.5t-196.5 -42.5q-201 0 -201 129q0 51 21 83t67 52zM393 -69q0 36 -29 55t-103 20q-44 1 -90 1q-30 0 -45 -5q-80 -24 -80 -108q0 -90 151 -90q37 0 62 2t52.5 9t44 20t27 37.5t10.5 58.5zM403 368q0 48 -28 67t-85 19
q-59 0 -87 -15q-65 -35 -65 -139q0 -52 30 -70t83 -18q74 0 111 34q41 38 41 122zM444 718q10 0 10 -12q0 -16 -8 -37q-38 -97 -144 -97q-60 0 -89.5 27.5t-29.5 72.5q0 22 3 34t16 12h13q12 0 12 -11v-21q2 -32 20 -47t59 -15q46 0 69 21t35 62q3 11 15 11h19z" />
    <glyph glyph-name="Gdotaccent" unicode="&#x120;" horiz-adv-x="659" 
d="M567 61q-7 -25 -27 -34q-88 -40 -222 -40q-240 0 -240 222q0 106 33.5 228t94.5 192q80 90 253 90q77 0 151 -16q20 -5 20 -18q0 -12 -9 -32q-5 -9 -15 -9q-7 0 -33 6q-52 13 -142 13q-118 0 -181 -70q-51 -57 -81 -169t-30 -206q0 -79 43.5 -127t141.5 -48q111 0 187 31
l48 216h-169q-15 0 -15 11q0 1 4 29q3 15 21 15h204q19 0 19 -15q0 -2 -0.5 -5t-1.5 -7.5t-1 -7.5zM498 830q0 -29 -16 -44q-12 -10 -30 -10q-35 0 -35 31q0 28 15 42q11 11 32 11q34 0 34 -30z" />
    <glyph glyph-name="gdotaccent" unicode="&#x121;" horiz-adv-x="493" 
d="M77 16q-59 19 -59 82q0 81 87 118q-23 28 -23 78q0 132 93 185q48 26 126 26q48 0 84 -14h132q18 0 18 -14q0 -1 -3 -21q-1 -15 -22 -15h-72q20 -28 20 -67q0 -109 -61 -165q-52 -47 -154 -47q-48 0 -83 14q-17 7 -29 7q-13 0 -28 -11q-30 -20 -30 -59q0 -40 29 -47
q20 -7 149 -7q111 0 156 -24t45 -88q0 -110 -65.5 -152.5t-196.5 -42.5q-201 0 -201 129q0 51 21 83t67 52zM393 -69q0 36 -29 55t-103 20q-44 1 -90 1q-30 0 -45 -5q-80 -24 -80 -108q0 -90 151 -90q37 0 62 2t52.5 9t44 20t27 37.5t10.5 58.5zM403 368q0 48 -28 67t-85 19
q-59 0 -87 -15q-65 -35 -65 -139q0 -52 30 -70t83 -18q74 0 111 34q41 38 41 122zM342 675q0 -29 -16 -44q-12 -10 -30 -10q-35 0 -35 30q0 28 15 43q13 11 32 11q34 0 34 -30z" />
    <glyph glyph-name="Gcommaaccent" unicode="&#x122;" horiz-adv-x="659" 
d="M567 61q-7 -25 -27 -34q-88 -40 -222 -40q-240 0 -240 222q0 106 33.5 228t94.5 192q80 90 253 90q77 0 151 -16q20 -5 20 -18q0 -12 -9 -32q-5 -9 -15 -9q-7 0 -33 6q-52 13 -142 13q-118 0 -181 -70q-51 -57 -81 -169t-30 -206q0 -79 43.5 -127t141.5 -48q111 0 187 31
l48 216h-169q-15 0 -15 11q0 1 4 29q3 15 21 15h204q19 0 19 -15q0 -2 -0.5 -5t-1.5 -7.5t-1 -7.5zM340 -71q17 0 17 -17q0 -14 -11 -47q-27 -78 -78 -122q-12 -10 -21 -10q-7 0 -19 8q-7 7 -7 13q0 8 10 16q51 54 62 134q4 25 23 25h24z" />
    <glyph glyph-name="gcommaaccent" unicode="&#x123;" horiz-adv-x="493" 
d="M77 16q-59 19 -59 82q0 83 87 120q-23 28 -23 78q0 132 95 186q46 26 126 26q51 0 84 -13h133q17 0 17 -15q0 -9 -2 -21q-3 -15 -23 -15h-72q20 -28 20 -66q0 -109 -62 -167q-52 -47 -155 -47q-48 0 -83 14q-19 8 -29 8q-11 0 -27 -12q-31 -19 -31 -61q0 -40 29 -47
q20 -7 149 -7q111 0 156 -24.5t45 -88.5q0 -110 -65.5 -152t-196.5 -42q-201 0 -201 129q0 51 21 83t67 52zM393 -69q0 36 -29 55t-103 20q-44 1 -90 1q-30 0 -45 -5q-80 -24 -80 -107q0 -92 151 -92q37 0 62 2t52.5 9.5t44 20.5t27 37.5t10.5 58.5zM405 372q0 48 -28 67
t-85 19q-60 0 -87 -16q-67 -36 -67 -140q0 -52 30 -70t83 -18q74 0 111 34q43 40 43 124zM305 579h-23q-16 0 -16 17q0 16 11 49q26 75 79 119q13 9 19 9q5 0 17 -7q8 -8 8 -14t-10 -16q-51 -53 -62 -132q-3 -25 -23 -25z" />
    <glyph glyph-name="Hcircumflex" unicode="&#x124;" horiz-adv-x="690" 
d="M121 16q-5 -19 -21 -19h-25q-14 0 -14 13q0 6 2 16l142 663q4 20 22 20h24q15 0 15 -12q0 -5 -3 -20l-62 -281h362l63 293q4 20 22 20h25q14 0 14 -12q0 -5 -3 -20l-142 -661q-3 -19 -20 -19h-25q-15 0 -15 13q0 6 2 16l67 314h-361zM341 762h-26q-11 0 -11 11q0 7 9 15
l123 102q17 14 31 14h23q14 0 24 -12l88 -104q5 -7 5 -13q0 -13 -16 -13h-18q-10 0 -25 13l-77 72l-102 -72q-19 -13 -28 -13z" />
    <glyph glyph-name="hcircumflex" unicode="&#x125;" horiz-adv-x="572" 
d="M105 16q-3 -19 -21 -19h-21q-15 0 -15 14q0 2 3 14l149 705q3 18 21 18h21q16 0 16 -10q0 -1 -3 -19l-56 -265q54 49 181 49q126 0 126 -83q0 -31 -11 -84l-68 -321q-5 -18 -21 -18h-22q-14 0 -14 14q0 5 2 13l67 311q7 35 7 61q0 53 -86 53q-83 0 -145 -27
q-18 -11 -21 -15q-5 -6 -9 -24zM174 773h-26q-11 0 -11 11q0 8 9 15l123 102q18 14 31 14h23q14 0 24 -12l88 -104q5 -7 5 -13q0 -13 -16 -13h-18q-10 0 -25 13l-77 72l-102 -72q-19 -13 -28 -13z" />
    <glyph glyph-name="Hbar" unicode="&#x126;" horiz-adv-x="690" 
d="M121 16q-5 -19 -21 -19h-25q-14 0 -14 13q0 6 2 16l100 466h-65q-13 0 -13 12q0 9 4 25q4 15 19 15h66l31 145q4 20 22 20h24q15 0 15 -12q0 -5 -3 -20l-30 -133h361l32 145q4 20 22 20h25q14 0 14 -12q0 -5 -3 -20l-29 -133h59q14 0 14 -11q0 -8 -5 -28q-5 -13 -21 -13
h-58l-102 -476q-3 -19 -20 -19h-25q-15 0 -15 13q0 6 2 16l67 314h-361zM201 396h362l20 96h-361z" />
    <glyph glyph-name="hbar" unicode="&#x127;" horiz-adv-x="572" 
d="M105 16q-3 -19 -21 -19h-21q-15 0 -15 14q0 2 3 14l119 565h-58q-13 0 -13 11q0 9 3 21q4 14 19 14h59l20 94q3 18 21 18h21q16 0 16 -10q0 -1 -3 -19l-18 -83h114q14 0 14 -12q0 -4 -4 -22q-2 -12 -20 -12h-114l-28 -136q54 49 181 49q126 0 126 -83q0 -31 -11 -84
l-68 -321q-5 -18 -21 -18h-22q-14 0 -14 14q0 5 2 13l67 311q7 35 7 61q0 53 -86 53q-83 0 -145 -27q-18 -11 -21 -15q-5 -6 -9 -24z" />
    <glyph glyph-name="Itilde" unicode="&#x128;" horiz-adv-x="268" 
d="M121 16q-5 -19 -21 -19h-25q-14 0 -14 13q0 6 2 16l142 663q4 20 22 20h24q15 0 15 -12q0 -5 -3 -20zM120 777h-16q-13 0 -13 10t8 23q21 39 42 57t51 18q20 0 71 -29q40 -24 60 -24q14 0 24 8t24 33q10 17 21 17h17q14 0 14 -10q0 -8 -6 -22q-38 -82 -94 -82
q-28 0 -76 27q-44 25 -60 25q-25 0 -45 -38q-6 -13 -22 -13z" />
    <glyph glyph-name="itilde" unicode="&#x129;" horiz-adv-x="243" 
d="M76 604h-16q-13 0 -13 11q0 5 7 23q21 39 41.5 57t49.5 18q18 0 68 -30q38 -23 57 -23q13 0 23 7.5t23 32.5q8 18 20 18h17q14 0 14 -10q0 -8 -6 -22q-38 -83 -91 -83q-29 0 -73 27q-43 25 -57 25q-24 0 -43 -37q-6 -14 -21 -14zM105 16q-3 -19 -21 -19h-21q-15 0 -15 14
q0 2 3 14l96 451q4 18 21 18h22q14 0 14 -13q0 -5 -3 -17z" />
    <glyph glyph-name="Imacron" unicode="&#x12a;" horiz-adv-x="268" 
d="M121 16q-5 -19 -21 -19h-25q-14 0 -14 13q0 6 2 16l142 663q4 20 22 20h24q15 0 15 -12q0 -5 -3 -20zM369 798h-247q-13 0 -13 11q0 13 5 28q4 15 19 15h245q15 0 15 -12q0 -11 -6 -29q-4 -13 -18 -13z" />
    <glyph glyph-name="imacron" unicode="&#x12b;" horiz-adv-x="243" 
d="M306 615h-229q-13 0 -13 12q0 14 5 28q4 15 19 15h226q15 0 15 -11q0 -14 -5 -31q-4 -13 -18 -13zM105 16q-3 -19 -21 -19h-21q-15 0 -15 14q0 2 3 14l96 451q4 18 21 18h22q14 0 14 -13q0 -5 -3 -17z" />
    <glyph glyph-name="Ibreve" unicode="&#x12c;" horiz-adv-x="268" 
d="M121 16q-5 -19 -21 -19h-25q-14 0 -14 13q0 6 2 16l142 663q4 20 22 20h24q15 0 15 -12q0 -5 -3 -20zM392 902q12 0 12 -12q0 -10 -8 -34q-34 -94 -149 -94q-128 0 -128 103q0 15 3 25q3 12 15 12h18q11 0 13 -12v-15q0 -62 80 -62q49 0 74 18.5t35 56.5q5 14 17 14h18z
" />
    <glyph glyph-name="ibreve" unicode="&#x12d;" horiz-adv-x="243" 
d="M105 16q-3 -19 -21 -19h-21q-15 0 -15 14q0 2 3 14l96 451q4 18 21 18h22q14 0 14 -13q0 -5 -3 -17zM332 718q10 0 10 -12q0 -16 -8 -37q-38 -97 -144 -97q-60 0 -89.5 27.5t-29.5 72.5q0 22 3 34t16 12h13q12 0 12 -11v-21q2 -32 20 -47t59 -15q46 0 69 21t35 62
q3 11 15 11h19z" />
    <glyph glyph-name="Iogonek" unicode="&#x12e;" horiz-adv-x="268" 
d="M125 6q-117 -73 -117 -143q0 -47 52 -47q12 0 28 2.5t18 2.5q9 0 12 -10t3 -21q-1 -11 -13 -14q-24 -8 -64 -8q-95 0 -95 84t113 151q-1 2 -1 7q0 6 2 16l142 663q4 20 22 20h24q15 0 15 -12q0 -5 -3 -20l-142 -661q-2 -6 -4 -10h8z" />
    <glyph glyph-name="iogonek" unicode="&#x12f;" horiz-adv-x="243" 
d="M109 6q-114 -69 -114 -136q0 -44 51 -44q12 0 27 2.5t17 2.5q9 0 12 -10q3 -14 3 -20q-1 -10 -12 -13q-24 -8 -63 -8q-91 0 -91 80q0 46 29 79.5t81 63.5q-1 2 -1 8q0 2 3 14l96 451q4 18 21 18h21q15 0 15 -13q0 -2 -3 -17l-96 -448l-3 -10h7zM251 675q0 -29 -17 -45
q-10 -10 -31 -10q-37 0 -37 31q0 28 16 44q14 12 33 12q36 0 36 -32z" />
    <glyph glyph-name="Idotaccent" unicode="&#x130;" horiz-adv-x="268" 
d="M121 16q-5 -19 -21 -19h-25q-14 0 -14 13q0 6 2 16l142 663q4 20 22 20h24q15 0 15 -12q0 -5 -3 -20zM300 830q0 -29 -16 -44q-12 -10 -30 -10q-35 0 -35 31q0 28 15 42q11 11 32 11q34 0 34 -30z" />
    <glyph glyph-name="dotlessi" unicode="&#x131;" horiz-adv-x="243" 
d="M105 16q-3 -19 -21 -19h-21q-15 0 -15 14q0 2 3 14l96 451q4 18 21 18h22q14 0 14 -13q0 -5 -3 -17z" />
    <glyph glyph-name="IJ" unicode="&#x132;" horiz-adv-x="573" 
d="M121 16q-5 -19 -21 -19h-25q-14 0 -14 13q0 6 2 16l142 663q4 20 22 20h24q15 0 15 -12q0 -5 -3 -20zM405 63q-19 -90 -59 -126q-44 -40 -123 -40q-24 0 -38 3q-13 2 -13 14q0 10 5 27q3 12 18 12q1 0 15 -1t22 -1q43 0 70 21q27 20 43 95l133 622q4 20 22 20h24
q15 0 15 -12q0 -4 -3 -19z" />
    <glyph glyph-name="ij" unicode="&#x133;" horiz-adv-x="494" 
d="M84 -3h-21q-15 0 -15 14q0 2 3 14l96 451q4 18 21 18h21q15 0 15 -13q0 -2 -3 -17l-96 -448q-3 -19 -21 -19zM251 675q0 -29 -17 -45q-10 -10 -31 -10q-37 0 -37 31q0 28 16 44q14 12 33 12q36 0 36 -32zM327 -87q-19 -92 -59 -124q-47 -39 -140 -39q-22 0 -22 15
q0 12 5 27q4 12 23 12q67 0 94 21q28 20 43 89l120 562q4 18 21 18h21q15 0 15 -13q0 -6 -2 -14zM496 675q0 -28 -17 -45q-10 -10 -31 -10q-37 0 -37 31q0 28 16 44q12 12 33 12q36 0 36 -32z" />
    <glyph glyph-name="Jcircumflex" unicode="&#x134;" horiz-adv-x="270" 
d="M134 63q-19 -90 -59 -126q-44 -40 -123 -40q-24 0 -38 3q-13 2 -13 14q0 10 5 27q3 12 18 12q1 0 15 -1t22 -1q43 0 70 21q27 20 43 95l133 622q4 20 22 20h24q15 0 15 -12q0 -4 -3 -19zM125 762h-26q-11 0 -11 11q0 7 9 15l123 102q18 14 31 14h23q14 0 24 -12l88 -104
q5 -7 5 -13q0 -13 -16 -13h-18q-10 0 -25 13l-77 72l-102 -72q-19 -13 -28 -13z" />
    <glyph glyph-name="jcircumflex" unicode="&#x135;" horiz-adv-x="243" 
d="M83 -87q-19 -92 -59 -124q-47 -39 -140 -39q-22 0 -22 15q0 7 4 25q5 12 24 12q65 0 93 22q30 23 44 88l120 564q4 18 21 18h21q15 0 15 -13q0 -6 -2 -14zM82 571h-24q-11 0 -11 11q0 7 8 15l124 138q12 14 28 14h26q14 0 19 -12l70 -142q3 -9 3 -13q0 -11 -14 -11h-18
q-13 0 -21 13l-61 109l-105 -108q-14 -14 -24 -14z" />
    <glyph glyph-name="Kcommaaccent" unicode="&#x136;" horiz-adv-x="591" 
d="M121 16q-5 -19 -21 -19h-25q-15 0 -15 13q0 3 3 18l142 661q4 20 22 20h24q15 0 15 -12q0 -5 -3 -18l-62 -285h62q35 0 48 17l239 283q14 15 29 15h27q14 0 14 -11q0 -6 -13 -22l-97 -113l-72 -83l-46 -54l-35 -40l-24 -25q46 -77 170 -327q6 -14 6 -22q0 -15 -18 -15
h-23q-17 0 -24 16l-156 310q-9 17 -35 17h-63zM276 -71q17 0 17 -17q0 -14 -11 -47q-27 -78 -78 -122q-12 -10 -21 -10q-7 0 -19 8q-7 7 -7 13q0 8 10 16q51 54 62 134q4 25 23 25h24z" />
    <glyph glyph-name="kcommaaccent" unicode="&#x137;" horiz-adv-x="482" 
d="M105 16q-4 -19 -20 -19h-20q-17 0 -17 13q0 1 3 16l148 694q3 19 21 19h20q16 0 16 -13q0 -6 -2 -16l-88 -409h48q32 0 48 17l153 162q14 14 29 14h29q14 0 14 -12q0 -6 -15 -21q-177 -183 -180 -185q8 -14 45 -87l82 -156q7 -14 7 -22q0 -14 -19 -14h-22q-14 0 -23 18
l-111 218q-9 17 -35 17h-61zM234 -71q17 0 17 -17q0 -14 -11 -47q-27 -78 -78 -122q-12 -10 -21 -10q-7 0 -19 8q-7 7 -7 13q0 8 10 16q51 54 62 134q4 25 23 25h24z" />
    <glyph glyph-name="kgreenlandic" unicode="&#x138;" horiz-adv-x="482" 
d="M105 16q-4 -19 -20 -19h-20q-17 0 -17 13q0 1 3 16l96 449q4 19 21 19h20q16 0 16 -13q0 -8 -2 -16l-38 -174h47q33 0 48 16l159 173q14 14 28 14h27q14 0 14 -12q0 -6 -15 -21q-167 -180 -180 -193l127 -235q7 -14 7 -22q0 -14 -19 -14h-22q-14 0 -23 18l-113 209
q-8 17 -35 17h-60z" />
    <glyph glyph-name="Lacute" unicode="&#x139;" horiz-adv-x="530" 
d="M442 0h-366q-15 0 -15 13q0 5 3 17l141 659q4 20 21 20h25q15 0 15 -12q0 -5 -3 -18l-134 -623h324q15 0 15 -12q0 -6 -5 -31q-4 -13 -21 -13zM256 772q-14 -10 -29 -10h-29q-12 0 -12 11q0 9 9 16l151 110q14 11 27 11h48q14 0 14 -11q0 -9 -11 -18z" />
    <glyph glyph-name="lacute" unicode="&#x13a;" horiz-adv-x="246" 
d="M105 16q-3 -19 -20 -19h-22q-15 0 -15 14q0 2 3 14l151 705q4 18 20 18h22q14 0 14 -13q0 -6 -2 -14zM236 792q-14 -10 -29 -10h-29q-12 0 -12 11q0 9 9 16l151 110q14 11 27 11h48q14 0 14 -11q0 -9 -11 -18z" />
    <glyph glyph-name="Lcommaaccent" unicode="&#x13b;" horiz-adv-x="530" 
d="M442 0h-366q-15 0 -15 13q0 5 3 17l141 659q4 20 21 20h25q15 0 15 -12q0 -5 -3 -18l-134 -623h324q15 0 15 -12q0 -6 -5 -31q-4 -13 -21 -13zM278 -71q17 0 17 -17q0 -14 -11 -47q-27 -78 -78 -122q-12 -10 -21 -10q-7 0 -19 8q-7 7 -7 13q0 8 10 16q51 54 62 134
q4 25 23 25h24z" />
    <glyph glyph-name="lcommaaccent" unicode="&#x13c;" horiz-adv-x="246" 
d="M105 16q-3 -19 -20 -19h-22q-15 0 -15 14q0 2 3 14l151 705q4 18 20 18h22q14 0 14 -13q0 -6 -2 -14zM76 -71q17 0 17 -17q0 -14 -11 -47q-27 -78 -78 -122q-12 -10 -21 -10q-7 0 -19 8q-7 7 -7 13q0 8 10 16q51 54 62 134q4 25 23 25h24z" />
    <glyph glyph-name="Lcaron" unicode="&#x13d;" horiz-adv-x="530" 
d="M442 0h-366q-15 0 -15 13q0 5 3 17l141 659q4 20 21 20h25q15 0 15 -12q0 -5 -3 -18l-134 -623h324q15 0 15 -12q0 -6 -5 -31q-4 -13 -21 -13zM418 720q17 0 17 -18q0 -14 -11 -47q-28 -79 -78 -121q-11 -11 -21 -11q-7 0 -19 8q-7 7 -7 13q0 7 10 17q51 54 62 134
q4 25 23 25h24z" />
    <glyph glyph-name="lcaron" unicode="&#x13e;" horiz-adv-x="246" 
d="M105 16q-3 -19 -20 -19h-22q-15 0 -15 14q0 2 3 14l151 705q4 18 20 18h22q14 0 14 -13q0 -6 -2 -14zM396 747q17 0 17 -18q0 -14 -11 -47q-28 -79 -78 -121q-11 -11 -21 -11q-7 0 -19 8q-7 7 -7 13q0 7 10 17q51 54 62 134q4 25 23 25h24z" />
    <glyph glyph-name="Ldot" unicode="&#x13f;" horiz-adv-x="530" 
d="M458 0h-366q-15 0 -15 13q0 4 3 16l141 660q4 20 21 20h26q14 0 14 -12q0 -5 -3 -18l-134 -625h324q16 0 16 -11q0 -2 -1 -5.5t-2.5 -11t-2.5 -13.5q-3 -13 -21 -13zM471 355q0 -30 -18 -47q-13 -11 -32 -11q-39 0 -39 34q0 29 17 46q13 12 34 12q38 0 38 -34z" />
    <glyph glyph-name="ldot" unicode="&#x140;" horiz-adv-x="340" 
d="M121 16q-3 -19 -20 -19h-22q-14 0 -14 14q0 6 2 14l151 705q4 18 21 18h21q14 0 14 -13q0 -6 -2 -14zM367 355q0 -31 -18 -46q-13 -11 -31 -11q-38 0 -38 33q0 29 16 45q15 13 34 13q37 0 37 -34z" />
    <glyph glyph-name="Lslash" unicode="&#x141;" horiz-adv-x="530" 
d="M442 0h-366q-15 0 -15 13q0 5 3 17l51 240l-73 -41q-4 -3 -11 -3q-6 0 -14 15t-8 20q0 9 9 13l111 62l76 353q4 20 21 20h25q15 0 15 -12q0 -5 -3 -18l-66 -305l148 83q6 4 13 4q6 0 13 -12q9 -15 9 -21q0 -8 -9 -13l-188 -106l-54 -253h324q15 0 15 -12q0 -6 -5 -31
q-4 -13 -21 -13z" />
    <glyph glyph-name="lslash" unicode="&#x142;" horiz-adv-x="246" 
d="M105 16q-3 -19 -20 -19h-22q-15 0 -15 14q0 2 3 14l59 278l-54 -29q-7 -4 -13 -4q-7 0 -13 13q-8 16 -8 19q1 7 11 13l90 48l79 367q4 18 20 18h22q14 0 14 -13q0 -6 -2 -14l-70 -325l60 32q5 3 12 3q8 0 14 -13q7 -14 7 -19q0 -7 -10 -12l-96 -51z" />
    <glyph glyph-name="Nacute" unicode="&#x143;" horiz-adv-x="693" 
d="M120 16q-4 -19 -20 -19h-24q-15 0 -15 12q0 5 2 15l141 665q4 20 23 20h22q11 0 17 -11q208 -498 242 -591q24 129 123 583q5 19 22 19h23q14 0 14 -12q0 -6 -1 -11l-142 -669q-4 -20 -22 -20h-18q-16 0 -22 17q-215 521 -240 592q-14 -77 -125 -590zM455 772
q-14 -10 -29 -10h-29q-12 0 -12 11q0 9 9 16l151 110q14 11 27 11h48q14 0 14 -11q0 -9 -11 -18z" />
    <glyph glyph-name="nacute" unicode="&#x144;" horiz-adv-x="572" 
d="M105 16q-3 -19 -21 -19h-21q-15 0 -15 14q0 2 3 14l97 455q3 17 21 17h19q15 0 15 -13q0 -12 -4 -30q54 49 181 49q126 0 126 -83q0 -31 -11 -84l-68 -321q-5 -18 -21 -18h-22q-14 0 -14 14q0 5 2 13l67 311q7 35 7 61q0 53 -86 53q-83 0 -145 -27q-19 -12 -21 -14
q-5 -6 -9 -24zM337 591q-11 -11 -24 -11h-25q-12 0 -12 11q0 6 6 12l124 134q10 12 23 12h45q12 0 12 -10q0 -5 -9 -16z" />
    <glyph glyph-name="Ncommaaccent" unicode="&#x145;" horiz-adv-x="693" 
d="M120 16q-4 -19 -20 -19h-24q-15 0 -15 12q0 5 2 15l141 665q4 20 23 20h22q11 0 17 -11q208 -498 242 -591q24 129 123 583q5 19 22 19h23q14 0 14 -12q0 -6 -1 -11l-142 -669q-4 -20 -22 -20h-18q-16 0 -22 17q-215 521 -240 592q-14 -77 -125 -590zM311 -71
q17 0 17 -17q0 -14 -11 -47q-27 -78 -78 -122q-12 -10 -21 -10q-7 0 -19 8q-7 7 -7 13q0 8 10 16q51 54 62 134q4 25 23 25h24z" />
    <glyph glyph-name="ncommaaccent" unicode="&#x146;" horiz-adv-x="572" 
d="M105 16q-3 -19 -21 -19h-21q-15 0 -15 14q0 2 3 14l97 455q3 17 21 17h19q15 0 15 -13q0 -12 -4 -30q54 49 181 49q126 0 126 -83q0 -31 -11 -84l-68 -321q-5 -18 -21 -18h-22q-14 0 -14 14q0 5 2 13l67 311q7 35 7 61q0 53 -86 53q-83 0 -145 -27q-19 -12 -21 -14
q-5 -6 -9 -24zM244 -71q17 0 17 -17q0 -14 -11 -47q-27 -78 -78 -122q-12 -10 -21 -10q-7 0 -19 8q-7 7 -7 13q0 8 10 16q51 54 62 134q4 25 23 25h24z" />
    <glyph glyph-name="Ncaron" unicode="&#x147;" horiz-adv-x="693" 
d="M120 16q-4 -19 -20 -19h-24q-15 0 -15 12q0 5 2 15l141 665q4 20 23 20h22q11 0 17 -11q208 -498 242 -591q24 129 123 583q5 19 22 19h23q14 0 14 -12q0 -6 -1 -11l-142 -669q-4 -20 -22 -20h-18q-16 0 -22 17q-215 521 -240 592q-14 -77 -125 -590zM589 904h26
q11 0 11 -10q0 -6 -9 -15l-123 -102q-19 -15 -31 -15h-24q-12 0 -23 13l-88 104q-5 7 -5 13q0 12 16 12h18q11 0 25 -12l77 -72l102 72q17 12 28 12z" />
    <glyph glyph-name="ncaron" unicode="&#x148;" horiz-adv-x="572" 
d="M105 16q-3 -19 -21 -19h-21q-15 0 -15 14q0 2 3 14l97 455q3 17 21 17h19q15 0 15 -13q0 -12 -4 -30q54 49 181 49q126 0 126 -83q0 -31 -11 -84l-68 -321q-5 -18 -21 -18h-22q-14 0 -14 14q0 5 2 13l67 311q7 35 7 61q0 53 -86 53q-83 0 -145 -27q-19 -12 -21 -14
q-5 -6 -9 -24zM470 749h24q11 0 11 -10q0 -6 -8 -16l-124 -137q-13 -15 -28 -15h-26q-13 0 -19 13l-70 141q-3 12 -3 14q0 10 14 10h18q13 0 21 -12l61 -109l105 107q14 14 24 14z" />
    <glyph glyph-name="napostrophe" unicode="&#x149;" horiz-adv-x="572" 
d="M105 16q-3 -19 -21 -19h-21q-15 0 -15 14q0 2 3 14l97 455q3 17 21 17h19q15 0 15 -13q0 -12 -4 -30q54 49 181 49q126 0 126 -83q0 -31 -11 -84l-68 -321q-5 -18 -21 -18h-22q-14 0 -14 14q0 5 2 13l67 311q7 35 7 61q0 53 -86 53q-83 0 -145 -27q-19 -12 -21 -14
q-5 -6 -9 -24zM249 773q17 0 17 -17q0 -14 -11 -47q-27 -78 -78 -122q-12 -10 -21 -10q-7 0 -19 8q-7 7 -7 13q0 8 10 16q51 54 62 134q4 25 23 25h24z" />
    <glyph glyph-name="Eng" unicode="&#x14a;" horiz-adv-x="693" 
d="M120 16q-4 -19 -20 -19h-24q-15 0 -15 12q0 5 2 15l141 665q4 20 23 20h22q11 0 17 -11q202 -482 242 -591q24 129 123 583q5 19 22 19h23q14 0 14 -12q0 -6 -1 -11l-157 -740q-12 -56 -22.5 -83.5t-32.5 -46.5q-42 -36 -128 -36q-27 0 -40 3q-11 2 -11 13q0 7 4 27
q4 14 19 14q1 0 6.5 -0.5t14.5 -1t20 -0.5q50 0 73 19q14 11 22 32t18 65l13 56q-223 542 -243 599q-14 -77 -125 -590z" />
    <glyph glyph-name="eng" unicode="&#x14b;" horiz-adv-x="572" 
d="M105 16q-3 -19 -21 -19h-21q-15 0 -15 14q0 2 3 14l97 455q3 17 21 17h19q15 0 15 -13q0 -12 -4 -30q54 49 181 49q126 0 126 -83q0 -31 -11 -84l-81 -382q-11 -52 -24 -79.5t-35 -44.5q-34 -29 -106 -31q-30 0 -45 3q-12 2 -12 13q0 13 6 26q4 11 17 11q1 0 15.5 -1
t29.5 -1q36 0 56 15q26 21 42 93l81 377q7 35 7 61q0 53 -86 53q-83 0 -145 -27q-18 -11 -21 -15q-5 -6 -9 -23z" />
    <glyph glyph-name="Omacron" unicode="&#x14c;" horiz-adv-x="683" 
d="M663 511q0 -103 -33 -235t-92 -202q-75 -87 -224 -87q-116 0 -177 46t-61 166q0 109 35.5 239t101.5 201q73 77 210 77q58 0 98.5 -8t74.5 -29.5t50.5 -63t16.5 -104.5zM601 503q0 92 -41.5 125t-142.5 33q-109 0 -164 -62q-53 -59 -83.5 -177t-30.5 -214
q0 -94 42.5 -129.5t141.5 -35.5q61 0 101 15.5t72 56.5q47 61 76 181.5t29 206.5zM580 798h-247q-13 0 -13 11q0 13 5 28t19 15h245q15 0 15 -12q0 -11 -6 -29q-4 -13 -18 -13z" />
    <glyph glyph-name="omacron" unicode="&#x14d;" horiz-adv-x="545" 
d="M507 357q0 -59 -20.5 -148.5t-55.5 -141.5q-55 -80 -189 -80q-91 0 -141 34t-50 125q0 69 23 156.5t67 136.5q57 66 174 66q44 0 73.5 -4.5t59 -19t44.5 -45.5t15 -79zM449 346q0 64 -36.5 85.5t-105.5 21.5q-85 0 -126 -51q-33 -40 -52 -119t-19 -130q0 -64 34 -88.5
t105 -24.5q103 0 141 65q25 42 42 120t17 121zM455 615h-229q-13 0 -13 12q0 14 5 28q4 15 19 15h226q15 0 15 -11q0 -14 -5 -31q-4 -13 -18 -13z" />
    <glyph glyph-name="Obreve" unicode="&#x14e;" horiz-adv-x="683" 
d="M663 511q0 -103 -33 -235t-92 -202q-75 -87 -224 -87q-116 0 -177 46t-61 166q0 109 35.5 239t101.5 201q73 77 210 77q58 0 98.5 -8t74.5 -29.5t50.5 -63t16.5 -104.5zM601 503q0 92 -41.5 125t-142.5 33q-109 0 -164 -62q-53 -59 -83.5 -177t-30.5 -214
q0 -94 42.5 -129.5t141.5 -35.5q61 0 101 15.5t72 56.5q47 61 76 181.5t29 206.5zM591 902q12 0 12 -12q0 -10 -8 -34q-34 -94 -149 -94q-128 0 -128 103q0 15 3 25q3 12 15 12h18q12 0 13 -12v-15q0 -62 80 -62q49 0 74 18.5t35 56.5q5 14 17 14h18z" />
    <glyph glyph-name="obreve" unicode="&#x14f;" horiz-adv-x="545" 
d="M507 357q0 -59 -20.5 -148.5t-55.5 -141.5q-55 -80 -189 -80q-91 0 -141 34t-50 125q0 69 23 156.5t67 136.5q57 66 174 66q44 0 73.5 -4.5t59 -19t44.5 -45.5t15 -79zM449 346q0 64 -36.5 85.5t-105.5 21.5q-85 0 -126 -51q-33 -40 -52 -119t-19 -130q0 -64 34 -88.5
t105 -24.5q103 0 141 65q25 42 42 120t17 121zM477 718q10 0 10 -12q0 -16 -8 -37q-38 -97 -144 -97q-60 0 -89.5 27.5t-29.5 72.5q0 22 3 34t16 12h13q12 0 12 -11v-21q2 -32 20 -47t59 -15q46 0 69 21t35 62q3 11 15 11h19z" />
    <glyph glyph-name="Ohungarumlaut" unicode="&#x150;" horiz-adv-x="683" 
d="M663 511q0 -103 -33 -235t-92 -202q-75 -87 -224 -87q-116 0 -177 46t-61 166q0 109 35.5 239t101.5 201q73 77 210 77q58 0 98.5 -8t74.5 -29.5t50.5 -63t16.5 -104.5zM601 503q0 92 -41.5 125t-142.5 33q-109 0 -164 -62q-53 -59 -83.5 -177t-30.5 -214
q0 -94 42.5 -129.5t141.5 -35.5q61 0 101 15.5t72 56.5q47 61 76 181.5t29 206.5zM369 772q-14 -10 -28 -10h-25q-12 0 -12 11q0 9 8 16l139 109q15 12 28 12h39q13 0 13 -11q0 -8 -10 -18zM548 772q-12 -10 -28 -10h-25q-12 0 -12 11q0 8 8 16l139 109q15 12 28 12h39
q14 0 14 -11q0 -9 -11 -18z" />
    <glyph glyph-name="ohungarumlaut" unicode="&#x151;" horiz-adv-x="545" 
d="M507 357q0 -59 -20.5 -148.5t-55.5 -141.5q-55 -80 -189 -80q-91 0 -141 34t-50 125q0 69 23 156.5t67 136.5q57 66 174 66q44 0 73.5 -4.5t59 -19t44.5 -45.5t15 -79zM449 346q0 64 -36.5 85.5t-105.5 21.5q-85 0 -126 -51q-33 -40 -52 -119t-19 -130q0 -64 34 -88.5
t105 -24.5q103 0 141 65q25 42 42 120t17 121zM282 591q-10 -11 -22 -11h-24q-11 0 -11 11q0 6 6 12l113 134q9 12 23 12h37q12 0 12 -10q0 -7 -9 -16zM429 591q-11 -11 -22 -11h-24q-11 0 -11 11q0 4 6 12l113 134q8 12 23 12h37q12 0 12 -10q0 -7 -9 -16z" />
    <glyph glyph-name="OE" unicode="&#x152;" horiz-adv-x="950" 
d="M848 0h-373q-90 -11 -156 -11q-125 0 -183.5 55t-58.5 166q0 108 37.5 226.5t106.5 188.5q89 90 257 90q88 0 143 -9h343q16 0 16 -11q0 -3 -5 -31q-4 -14 -22 -14h-290l-55 -254h270q16 0 16 -12q0 -10 -4 -29q-4 -15 -22 -15h-271l-61 -284h324q17 0 17 -12
q0 -8 -6 -30q-4 -14 -23 -14zM476 55l127 596q-37 8 -145 8q-130 0 -200 -78q-55 -60 -86.5 -163.5t-31.5 -196.5t45.5 -135t138.5 -42q86 0 152 11z" />
    <glyph glyph-name="oe" unicode="&#x153;" horiz-adv-x="875" 
d="M484 231q-6 -42 -6 -67q0 -71 33.5 -98t110.5 -27q73 0 131 20q15 6 23 6q7 0 10 -8q5 -12 5 -23q0 -12 -18 -19q-69 -28 -166 -28q-146 0 -172 104q-49 -104 -195 -104q-90 0 -139.5 33.5t-49.5 125.5q0 69 23 156.5t67 136.5q57 66 174 66q37 0 62.5 -3t50.5 -13
t40 -30.5t21 -53.5q59 100 204 100q157 0 157 -130q0 -50 -12 -109q-5 -22 -12 -29q-6 -6 -22 -6h-320zM444 346q0 64 -34.5 85.5t-102.5 21.5q-85 0 -127 -52q-33 -39 -51.5 -118.5t-18.5 -130.5q0 -64 33 -88t103 -24q102 0 140 65q25 42 41.5 120t16.5 121zM493 280h289
q12 46 12 85q0 45 -23.5 67.5t-85.5 22.5q-78 0 -119 -34q-51 -41 -73 -141z" />
    <glyph glyph-name="Racute" unicode="&#x154;" horiz-adv-x="607" 
d="M121 17q-3 -20 -21 -20h-24q-15 0 -15 14q0 9 2 15l141 660q3 20 22 20h140q111 0 156 -20q37 -16 56.5 -51.5t19.5 -77.5q0 -86 -41 -146.5t-126 -82.5q-13 -4 -24 -5l117 -289q5 -15 5 -21q0 -16 -19 -16h-22q-16 0 -24 21l-118 298q-18 -1 -58 -1h-104zM196 369h109
q89 0 135 17q95 37 95 157q0 69 -48 91q-32 16 -129 16h-102zM409 772q-14 -10 -29 -10h-29q-12 0 -12 11q0 9 9 16l151 110q14 11 27 11h48q14 0 14 -11q0 -9 -11 -18z" />
    <glyph glyph-name="racute" unicode="&#x155;" horiz-adv-x="348" 
d="M105 15q-4 -18 -21 -18h-21q-15 0 -15 12q0 6 3 18l97 453q3 17 21 17h20q14 0 14 -12q0 -11 -4 -32q50 50 151 50q19 0 30 -2q9 -3 9 -14q0 -13 -6 -29q-5 -11 -17 -11q-1 0 -15 1t-24 1q-58 0 -110 -25q-15 -9 -21 -16q-7 -7 -11 -24zM287 591q-11 -11 -24 -11h-25
q-12 0 -12 11q0 6 6 12l124 134q10 12 23 12h45q12 0 12 -10q0 -5 -9 -16z" />
    <glyph glyph-name="Rcommaaccent" unicode="&#x156;" horiz-adv-x="607" 
d="M121 17q-3 -20 -21 -20h-24q-15 0 -15 14q0 9 2 15l141 660q3 20 22 20h140q111 0 156 -20q37 -16 56.5 -51.5t19.5 -77.5q0 -86 -41 -146.5t-126 -82.5q-13 -4 -24 -5l117 -289q5 -15 5 -21q0 -16 -19 -16h-22q-16 0 -24 21l-118 298q-18 -1 -58 -1h-104zM196 369h109
q89 0 135 17q95 37 95 157q0 69 -48 91q-32 16 -129 16h-102zM299 -71q17 0 17 -17q0 -14 -11 -47q-27 -78 -78 -122q-12 -10 -21 -10q-7 0 -19 8q-7 7 -7 13q0 8 10 16q51 54 62 134q4 25 23 25h24z" />
    <glyph glyph-name="rcommaaccent" unicode="&#x157;" horiz-adv-x="348" 
d="M105 15q-4 -18 -21 -18h-21q-15 0 -15 12q0 6 3 18l97 453q3 17 21 17h20q14 0 14 -12q0 -11 -4 -32q50 50 151 50q19 0 30 -2q9 -3 9 -14q0 -13 -6 -29q-5 -11 -17 -11q-1 0 -15 1t-24 1q-58 0 -110 -25q-15 -9 -21 -16q-7 -7 -11 -24zM86 -71q17 0 17 -17
q0 -14 -11 -47q-27 -78 -78 -122q-12 -10 -21 -10q-7 0 -19 8q-7 7 -7 13q0 8 10 16q51 54 62 134q4 25 23 25h24z" />
    <glyph glyph-name="Rcaron" unicode="&#x158;" horiz-adv-x="607" 
d="M121 17q-3 -20 -21 -20h-24q-15 0 -15 14q0 9 2 15l141 660q3 20 22 20h140q111 0 156 -20q37 -16 56.5 -51.5t19.5 -77.5q0 -86 -41 -146.5t-126 -82.5q-13 -4 -24 -5l117 -289q5 -15 5 -21q0 -16 -19 -16h-22q-16 0 -24 21l-118 298q-18 -1 -58 -1h-104zM196 369h109
q89 0 135 17q95 37 95 157q0 69 -48 91q-32 16 -129 16h-102zM518 904h26q11 0 11 -10q0 -6 -9 -15l-123 -102q-19 -15 -31 -15h-24q-12 0 -23 13l-88 104q-5 7 -5 13q0 12 16 12h18q12 0 25 -12l77 -72l102 72q17 12 28 12z" />
    <glyph glyph-name="rcaron" unicode="&#x159;" horiz-adv-x="348" 
d="M105 15q-4 -18 -21 -18h-21q-15 0 -15 12q0 6 3 18l97 453q3 17 21 17h20q14 0 14 -12q0 -11 -4 -32q50 50 151 50q19 0 30 -2q9 -3 9 -14q0 -13 -6 -29q-5 -11 -17 -11q-1 0 -15 1t-24 1q-58 0 -110 -25q-15 -9 -21 -16q-7 -7 -11 -24zM404 749h24q11 0 11 -10
q0 -6 -8 -16l-124 -137q-13 -15 -28 -15h-26q-13 0 -19 13l-70 141q-3 12 -3 14q0 10 14 10h18q13 0 21 -12l61 -109l105 107q14 14 24 14z" />
    <glyph glyph-name="Sacute" unicode="&#x15a;" horiz-adv-x="549" 
d="M368 363q133 -49 133 -164q0 -212 -262 -212q-108 0 -189 35q-16 7 -16 18q0 10 10 30q6 13 19 13q7 0 25 -8q67 -32 158 -32q92 0 141.5 31.5t49.5 112.5q0 38 -23.5 69.5t-93.5 60.5l-83 34q-113 47 -113 161q0 207 257 207q88 0 153 -22q15 -5 15 -17q0 -10 -8 -31
q-3 -10 -16 -10q-6 0 -24 4q-73 20 -135 20q-89 0 -134 -31.5t-45 -112.5q0 -42 24 -72.5t85 -54.5zM373 772q-14 -10 -29 -10h-29q-12 0 -12 11q0 9 9 16l151 110q14 11 27 11h48q14 0 14 -11q0 -9 -11 -18z" />
    <glyph glyph-name="sacute" unicode="&#x15b;" horiz-adv-x="420" 
d="M275 256q93 -36 93 -109q0 -70 -44 -114q-46 -46 -161 -46q-87 0 -141 28q-11 5 -11 14q0 11 9 31q4 10 18 10q6 0 16 -5q55 -25 117 -25q87 0 115 30q24 26 24 65q0 25 -16 42t-67 36l-65 24q-88 32 -88 107q0 79 54 122q47 37 150 37q66 0 112 -14q15 -4 15 -14
q0 -8 -7 -31q-3 -10 -13 -10q-3 0 -18 3q-59 15 -103 15q-72 0 -101 -23q-31 -25 -31 -74q0 -24 17 -42t62 -34zM265 591q-11 -11 -24 -11h-25q-12 0 -12 11q0 6 6 12l124 134q10 12 23 12h45q12 0 12 -10q0 -5 -9 -16z" />
    <glyph glyph-name="Scircumflex" unicode="&#x15c;" horiz-adv-x="549" 
d="M368 363q133 -49 133 -164q0 -212 -262 -212q-108 0 -189 35q-16 7 -16 18q0 10 10 30q6 13 19 13q7 0 25 -8q67 -32 158 -32q92 0 141.5 31.5t49.5 112.5q0 38 -23.5 69.5t-93.5 60.5l-83 34q-113 47 -113 161q0 207 257 207q88 0 153 -22q15 -5 15 -17q0 -10 -8 -31
q-3 -10 -16 -10q-6 0 -24 4q-73 20 -135 20q-89 0 -134 -31.5t-45 -112.5q0 -42 24 -72.5t85 -54.5zM264 762h-26q-11 0 -11 11q0 7 9 15l123 102q18 14 31 14h23q14 0 24 -12l88 -104q5 -7 5 -13q0 -13 -16 -13h-18q-10 0 -25 13l-77 72l-102 -72q-19 -13 -28 -13z" />
    <glyph glyph-name="scircumflex" unicode="&#x15d;" horiz-adv-x="420" 
d="M275 256q93 -36 93 -109q0 -70 -44 -114q-46 -46 -161 -46q-87 0 -141 28q-11 5 -11 14q0 11 9 31q4 10 18 10q6 0 16 -5q55 -25 117 -25q87 0 115 30q24 26 24 65q0 25 -16 42t-67 36l-65 24q-88 32 -88 107q0 79 54 122q47 37 150 37q66 0 112 -14q15 -4 15 -14
q0 -8 -7 -31q-3 -10 -13 -10q-3 0 -18 3q-59 15 -103 15q-72 0 -101 -23q-31 -25 -31 -74q0 -24 17 -42t62 -34zM182 571h-24q-11 0 -11 11q0 7 8 15l124 138q12 14 28 14h26q14 0 19 -12l70 -142q3 -9 3 -13q0 -11 -14 -11h-18q-13 0 -21 13l-61 109l-105 -108
q-14 -14 -24 -14z" />
    <glyph glyph-name="Scedilla" unicode="&#x15e;" horiz-adv-x="549" 
d="M233 -66q87 -1 87 -74q0 -56 -33 -80.5t-98 -24.5q-32 0 -50 6q-10 3 -10 13q0 9 4 21q3 12 16 12q5 0 14 -3q20 -4 34 -4q33 0 49.5 11t16.5 41q0 38 -46 38q-4 0 -12 -0.5t-10 -0.5q-16 0 -16 17q0 4 8 28l18 54q-90 5 -155 34q-16 7 -16 18q0 10 10 30q6 13 19 13
q7 0 25 -8q67 -32 158 -32q92 0 141.5 31.5t49.5 112.5q0 38 -23.5 69.5t-93.5 60.5l-83 34q-113 47 -113 161q0 207 257 207q88 0 153 -22q15 -5 15 -17q0 -10 -8 -31q-3 -10 -16 -10q-6 0 -24 4q-73 20 -135 20q-89 0 -134 -31.5t-45 -112.5q0 -42 24 -72.5t85 -54.5
l72 -29q133 -49 133 -164q0 -207 -252 -212z" />
    <glyph glyph-name="scedilla" unicode="&#x15f;" horiz-adv-x="420" 
d="M180 -63q84 -1 84 -72q0 -55 -31.5 -78t-94.5 -23q-36 0 -49 6q-9 3 -9 12q0 10 4 20q3 11 15 11q3 0 13 -2q20 -4 34 -4q32 0 47.5 10.5t15.5 39.5q0 37 -44 37q-3 0 -11.5 -0.5t-9.5 -0.5q-16 0 -16 16q0 8 7 27l18 51q-80 2 -131 28q-11 5 -11 14q0 11 9 31
q4 10 18 10q6 0 16 -5q55 -25 117 -25q87 0 115 30q24 26 24 65q0 25 -16 42t-67 36l-65 24q-88 32 -88 107q0 79 54 122q47 37 150 37q66 0 112 -14q15 -4 15 -14q0 -8 -7 -31q-3 -10 -13 -10q-3 0 -18 3q-59 15 -103 15q-72 0 -101 -23q-31 -25 -31 -74q0 -24 17 -42
t62 -34l64 -23q93 -36 93 -109q0 -70 -44 -114q-39 -39 -128 -45z" />
    <glyph glyph-name="Scaron" unicode="&#x160;" horiz-adv-x="549" 
d="M368 363q133 -49 133 -164q0 -212 -262 -212q-108 0 -189 35q-16 7 -16 18q0 10 10 30q6 13 19 13q7 0 25 -8q67 -32 158 -32q92 0 141.5 31.5t49.5 112.5q0 38 -23.5 69.5t-93.5 60.5l-83 34q-113 47 -113 161q0 207 257 207q88 0 153 -22q15 -5 15 -17q0 -10 -8 -31
q-3 -10 -16 -10q-6 0 -24 4q-73 20 -135 20q-89 0 -134 -31.5t-45 -112.5q0 -42 24 -72.5t85 -54.5zM497 904h26q11 0 11 -10q0 -6 -9 -15l-123 -102q-19 -15 -31 -15h-24q-12 0 -23 13l-88 104q-5 7 -5 13q0 12 16 12h18q11 0 25 -12l77 -72l102 72q17 12 28 12z" />
    <glyph glyph-name="scaron" unicode="&#x161;" horiz-adv-x="420" 
d="M275 256q93 -36 93 -109q0 -70 -44 -114q-46 -46 -161 -46q-87 0 -141 28q-11 5 -11 14q0 11 9 31q4 10 18 10q6 0 16 -5q55 -25 117 -25q87 0 115 30q24 26 24 65q0 25 -16 42t-67 36l-65 24q-88 32 -88 107q0 79 54 122q47 37 150 37q66 0 112 -14q15 -4 15 -14
q0 -8 -7 -31q-3 -10 -13 -10q-3 0 -18 3q-59 15 -103 15q-72 0 -101 -23q-31 -25 -31 -74q0 -24 17 -42t62 -34zM405 749h24q11 0 11 -10q0 -6 -8 -16l-124 -137q-13 -15 -28 -15h-26q-13 0 -19 13l-70 141q-3 12 -3 14q0 10 14 10h18q14 0 21 -12l61 -109l105 107
q14 14 24 14z" />
    <glyph glyph-name="uni0162" unicode="&#x162;" horiz-adv-x="555" 
d="M228 -66q87 -1 87 -74q0 -56 -33 -80.5t-98 -24.5q-32 0 -50 6q-10 3 -10 13q0 9 4 21q3 12 16 12q5 0 14 -3q20 -4 34 -4q33 0 49.5 11t16.5 41q0 38 -46 38q-4 0 -12 -0.5t-10 -0.5q-16 0 -16 17q0 4 8 28l22 66q-3 3 -3 10q0 1 3 16l133 625h-206q-14 0 -14 11
q0 4 6 29q3 15 20 15h471q15 0 15 -11q0 -5 -6 -30q-3 -14 -20 -14h-206l-134 -633q-5 -18 -15 -20z" />
    <glyph glyph-name="uni0163" unicode="&#x163;" horiz-adv-x="295" 
d="M134 -63q84 -1 84 -72q0 -55 -31.5 -78t-94.5 -23q-36 0 -49 6q-9 3 -9 12q0 10 4 20q3 11 15 11q3 0 13 -2q20 -4 34 -4q32 0 47.5 10.5t15.5 39.5q0 37 -44 37q-3 0 -11.5 -0.5t-9.5 -0.5q-16 0 -16 16q0 8 7 27l20 59q-38 17 -38 69q0 23 8 63l68 312h-57
q-14 0 -14 11q0 10 5 27q3 14 20 14h58q0 7 27 118q5 20 18 20h23q11 0 11 -12q0 -8 -2 -18l-23 -108h101q16 0 16 -11q0 -4 -4 -26q-3 -15 -22 -15h-100l-67 -310q-7 -32 -7 -51q0 -39 51 -39q15 0 31 3.5t17 3.5q11 0 13 -8q3 -13 3 -24q-1 -12 -20 -18q-32 -9 -73 -9h-2z
" />
    <glyph glyph-name="Tcaron" unicode="&#x164;" horiz-adv-x="555" 
d="M263 18q-6 -21 -21 -21h-26q-15 0 -15 13q0 1 3 16l133 625h-206q-14 0 -14 11q0 4 6 29q3 15 20 15h471q15 0 15 -11q0 -5 -6 -30q-3 -14 -20 -14h-206zM520 904h26q11 0 11 -10q0 -6 -9 -15l-123 -102q-19 -15 -31 -15h-24q-12 0 -23 13l-88 104q-5 7 -5 13q0 12 16 12
h18q12 0 25 -12l77 -72l102 72q17 12 28 12z" />
    <glyph glyph-name="tcaron" unicode="&#x165;" horiz-adv-x="295" 
d="M204 439l-67 -310q-7 -32 -7 -51q0 -39 51 -39q15 0 31 3.5t17 3.5q11 0 13 -8q3 -13 3 -24q-1 -12 -20 -18q-32 -9 -73 -9q-81 0 -81 77q0 23 8 63l68 312h-57q-14 0 -14 11q0 10 5 27q3 14 20 14h58q0 7 27 118q5 20 18 20h23q11 0 11 -12q0 -8 -2 -18l-23 -108h101
q16 0 16 -11q0 -4 -4 -26q-3 -15 -22 -15h-100zM397 749q17 0 17 -18q0 -14 -11 -47q-28 -79 -78 -121q-11 -11 -21 -11q-7 0 -19 8q-7 7 -7 13q0 7 10 17q51 54 62 134q4 25 23 25h24z" />
    <glyph glyph-name="Tbar" unicode="&#x166;" horiz-adv-x="555" 
d="M269 18q-6 -21 -21 -21h-26q-15 0 -15 13q0 1 3 16l74 347h-133q-13 0 -13 12q0 9 4 25q4 15 19 15h134l48 226h-206q-14 0 -14 11q0 4 6 29q3 15 20 15h471q15 0 15 -11q0 -5 -6 -30q-3 -14 -20 -14h-206l-48 -226h142q14 0 14 -11q0 -8 -5 -28q-4 -13 -20 -13h-142z
" />
    <glyph glyph-name="tbar" unicode="&#x167;" horiz-adv-x="295" 
d="M204 439l-22 -102h100q15 0 15 -12q0 -5 -4 -21q-4 -13 -20 -13h-101l-35 -162q-7 -32 -7 -51q0 -39 51 -39q15 0 31 3.5t17 3.5q11 0 13 -8q3 -13 3 -24q-1 -12 -20 -18q-32 -9 -73 -9q-81 0 -81 77q0 23 8 63l35 164h-47q-13 0 -13 11q0 9 3 21q3 14 19 14h48l23 102
h-57q-14 0 -14 11q0 10 5 27q3 14 20 14h58q0 7 27 118q5 20 18 20h23q11 0 11 -12q0 -8 -2 -18l-23 -108h101q16 0 16 -11q0 -4 -4 -26q-3 -15 -22 -15h-100z" />
    <glyph glyph-name="Utilde" unicode="&#x168;" horiz-adv-x="681" 
d="M594 282q-14 -65 -20.5 -91.5t-18.5 -59.5t-28 -55q-34 -48 -89 -69t-141 -21q-206 0 -206 147q0 47 21 147l87 410q3 19 20 19h26q15 0 15 -12q0 -3 -3 -18l-90 -423q-13 -65 -13 -109q0 -104 153 -104q123 0 168 61q32 41 54 146l94 440q4 19 20 19h25q15 0 15 -12
q0 -5 -3 -17zM331 777h-16q-13 0 -13 10t8 23q21 39 42 57t51 18q20 0 71 -29q40 -24 60 -24q14 0 24 8t24 33q10 17 21 17h17q14 0 14 -10q0 -8 -6 -22q-38 -82 -94 -82q-28 0 -76 27q-44 25 -60 25q-25 0 -45 -38q-6 -13 -22 -13z" />
    <glyph glyph-name="utilde" unicode="&#x169;" horiz-adv-x="571" 
d="M373 37q-55 -49 -174 -49q-56 0 -94.5 21t-38.5 72q0 26 11 81l68 314q4 18 21 18h21q15 0 15 -13q0 -2 -3 -14l-64 -305q-9 -39 -9 -60q0 -60 93 -60q82 0 138 28q14 6 21 14q5 9 9 25l79 367q3 18 21 18h22q14 0 14 -13q0 -6 -2 -14l-97 -454q-3 -17 -21 -17h-20
q-15 0 -15 13q0 5 5 28zM237 604h-16q-13 0 -13 11q0 5 7 23q21 39 41.5 57t49.5 18q18 0 68 -30q38 -23 57 -23q13 0 23 7.5t23 32.5q8 18 20 18h17q14 0 14 -10q0 -8 -6 -22q-38 -83 -91 -83q-29 0 -73 27q-42 25 -57 25q-25 0 -43 -37q-6 -14 -21 -14z" />
    <glyph glyph-name="Umacron" unicode="&#x16a;" horiz-adv-x="681" 
d="M594 282q-14 -65 -20.5 -91.5t-18.5 -59.5t-28 -55q-34 -48 -89 -69t-141 -21q-206 0 -206 147q0 47 21 147l87 410q3 19 20 19h26q15 0 15 -12q0 -3 -3 -18l-90 -423q-13 -65 -13 -109q0 -104 153 -104q123 0 168 61q32 41 54 146l94 440q4 19 20 19h25q15 0 15 -12
q0 -5 -3 -17zM573 798h-247q-13 0 -13 11q0 13 5 28q4 15 19 15h245q15 0 15 -12q0 -11 -6 -29q-4 -13 -18 -13z" />
    <glyph glyph-name="umacron" unicode="&#x16b;" horiz-adv-x="571" 
d="M373 37q-55 -49 -174 -49q-56 0 -94.5 21t-38.5 72q0 26 11 81l68 314q4 18 21 18h21q15 0 15 -13q0 -2 -3 -14l-64 -305q-9 -39 -9 -60q0 -60 93 -60q82 0 138 28q14 6 21 14q5 9 9 25l79 367q3 18 21 18h22q14 0 14 -13q0 -6 -2 -14l-97 -454q-3 -17 -21 -17h-20
q-15 0 -15 13q0 5 5 28zM464 615h-229q-13 0 -13 12q0 14 5 28q4 15 19 15h226q15 0 15 -11q0 -14 -5 -31q-4 -13 -18 -13z" />
    <glyph glyph-name="Ubreve" unicode="&#x16c;" horiz-adv-x="681" 
d="M594 282q-14 -65 -20.5 -91.5t-18.5 -59.5t-28 -55q-34 -48 -89 -69t-141 -21q-206 0 -206 147q0 47 21 147l87 410q3 19 20 19h26q15 0 15 -12q0 -3 -3 -18l-90 -423q-13 -65 -13 -109q0 -104 153 -104q123 0 168 61q32 41 54 146l94 440q4 19 20 19h25q15 0 15 -12
q0 -5 -3 -17zM593 902q12 0 12 -12q0 -10 -8 -34q-34 -94 -149 -94q-128 0 -128 103q0 15 3 25q3 12 15 12h18q12 0 13 -12v-15q0 -62 80 -62q49 0 74 18.5t35 56.5q5 14 17 14h18z" />
    <glyph glyph-name="ubreve" unicode="&#x16d;" horiz-adv-x="571" 
d="M373 37q-55 -49 -174 -49q-56 0 -94.5 21t-38.5 72q0 26 11 81l68 314q4 18 21 18h21q15 0 15 -13q0 -2 -3 -14l-64 -305q-9 -39 -9 -60q0 -60 93 -60q82 0 138 28q14 6 21 14q5 9 9 25l79 367q3 18 21 18h22q14 0 14 -13q0 -6 -2 -14l-97 -454q-3 -17 -21 -17h-20
q-15 0 -15 13q0 5 5 28zM484 718q10 0 10 -12q0 -16 -8 -37q-38 -97 -144 -97q-60 0 -89.5 27.5t-29.5 72.5q0 22 3 34t16 12h13q12 0 12 -11v-21q2 -32 20 -47t59 -15q46 0 69 21t35 62q3 11 15 11h19z" />
    <glyph glyph-name="Uring" unicode="&#x16e;" horiz-adv-x="681" 
d="M594 282q-14 -65 -20.5 -91.5t-18.5 -59.5t-28 -55q-34 -48 -89 -69t-141 -21q-206 0 -206 147q0 47 21 147l87 410q3 19 20 19h26q15 0 15 -12q0 -3 -3 -18l-90 -423q-13 -65 -13 -109q0 -104 153 -104q123 0 168 61q32 41 54 146l94 440q4 19 20 19h25q15 0 15 -12
q0 -5 -3 -17zM545 836q0 -46 -26.5 -73t-72.5 -27q-38 0 -60 21.5t-22 60.5q0 44 27.5 71t71.5 27q38 0 60 -21t22 -59zM511 835q0 50 -52 50q-26 0 -44 -17t-18 -47q0 -55 53 -55q27 0 44 17.5t17 51.5z" />
    <glyph glyph-name="uring" unicode="&#x16f;" horiz-adv-x="571" 
d="M373 37q-55 -49 -174 -49q-56 0 -94.5 21t-38.5 72q0 26 11 81l68 314q4 18 21 18h21q15 0 15 -13q0 -2 -3 -14l-64 -305q-9 -39 -9 -60q0 -60 93 -60q82 0 138 28q14 6 21 14q5 9 9 25l79 367q3 18 21 18h22q14 0 14 -13q0 -6 -2 -14l-97 -454q-3 -17 -21 -17h-20
q-15 0 -15 13q0 5 5 28zM450 682q0 -48 -28 -76.5t-76 -28.5q-40 0 -62.5 23t-22.5 63q0 46 28.5 74.5t74.5 28.5q40 0 63 -22t23 -62zM414 681q0 54 -54 54q-28 0 -47 -18.5t-19 -50.5q0 -28 15 -43t41 -15q29 0 46.5 18t17.5 55z" />
    <glyph glyph-name="Uhungarumlaut" unicode="&#x170;" horiz-adv-x="681" 
d="M594 282q-14 -65 -20.5 -91.5t-18.5 -59.5t-28 -55q-34 -48 -89 -69t-141 -21q-206 0 -206 147q0 47 21 147l87 410q3 19 20 19h26q15 0 15 -12q0 -3 -3 -18l-90 -423q-13 -65 -13 -109q0 -104 153 -104q123 0 168 61q32 41 54 146l94 440q4 19 20 19h25q15 0 15 -12
q0 -5 -3 -17zM370 772q-14 -10 -28 -10h-25q-12 0 -12 11q0 9 8 16l139 109q15 12 28 12h39q13 0 13 -11q0 -8 -10 -18zM549 772q-13 -10 -28 -10h-25q-12 0 -12 11q0 8 8 16l139 109q15 12 28 12h39q14 0 14 -11q0 -9 -11 -18z" />
    <glyph glyph-name="uhungarumlaut" unicode="&#x171;" horiz-adv-x="571" 
d="M373 37q-55 -49 -174 -49q-56 0 -94.5 21t-38.5 72q0 26 11 81l68 314q4 18 21 18h21q15 0 15 -13q0 -2 -3 -14l-64 -305q-9 -39 -9 -60q0 -60 93 -60q82 0 138 28q14 6 21 14q5 9 9 25l79 367q3 18 21 18h22q14 0 14 -13q0 -6 -2 -14l-97 -454q-3 -17 -21 -17h-20
q-15 0 -15 13q0 5 5 28zM294 591q-10 -11 -22 -11h-24q-11 0 -11 11q0 6 6 12l113 134q9 12 23 12h37q12 0 12 -10q0 -7 -9 -16zM441 591q-11 -11 -22 -11h-24q-11 0 -11 11q0 4 6 12l113 134q8 12 23 12h37q12 0 12 -10q0 -7 -9 -16z" />
    <glyph glyph-name="Uogonek" unicode="&#x172;" horiz-adv-x="681" 
d="M594 282q-14 -65 -20.5 -91.5t-18.5 -59.5t-28 -55q-32 -46 -83 -67t-129 -23q-87 -61 -87 -123q0 -47 52 -47q12 0 28 2.5t18 2.5q9 0 12 -10t3 -21q-1 -11 -13 -14q-24 -8 -64 -8q-95 0 -95 84q0 77 89 136q-167 13 -167 145q0 47 21 147l87 410q3 19 20 19h26
q15 0 15 -12q0 -3 -3 -18l-90 -423q-13 -65 -13 -109q0 -104 153 -104q123 0 168 61q32 41 54 146l94 440q4 19 20 19h25q15 0 15 -12q0 -5 -3 -17z" />
    <glyph glyph-name="uogonek" unicode="&#x173;" horiz-adv-x="571" 
d="M373 37q-55 -49 -174 -49q-56 0 -94.5 21t-38.5 72q0 26 11 81l68 314q4 18 21 18h21q15 0 15 -13q0 -2 -3 -14l-64 -305q-9 -39 -9 -60q0 -60 93 -60q82 0 138 28q14 6 21 14q5 9 9 25l79 367q3 18 21 18h22q14 0 14 -13q0 -6 -2 -14l-97 -454q-3 -16 -18 -17
q-98 -61 -98 -126q0 -44 51 -44q12 0 27 2.5t17 2.5q9 0 12 -10q3 -13 3 -20q-1 -10 -12 -13q-24 -8 -63 -8q-91 0 -91 80q0 47 30 81t85 65h1v3q0 5 5 28z" />
    <glyph glyph-name="Wcircumflex" unicode="&#x174;" horiz-adv-x="872" 
d="M603 -3h-22q-17 0 -19 19q-38 419 -46 572l-29 -62l-43 -83l-48 -93l-77 -146l-100 -188q-10 -19 -26 -19h-22q-18 0 -19 19l-33 651q0 18 1 23q0 19 20 19h22q16 0 18 -24q23 -477 26 -587q29 62 289 561q12 23 27 23h21q16 0 19 -23q46 -519 49 -561q55 126 276 585
q11 26 28 26h26q14 0 14 -13q0 -8 -11 -30l-315 -650q-9 -19 -26 -19zM428 762h-26q-11 0 -11 11q0 7 9 15l123 102q17 14 31 14h23q14 0 24 -12l88 -104q5 -7 5 -13q0 -13 -16 -13h-18q-10 0 -25 13l-77 72l-102 -72q-19 -13 -28 -13z" />
    <glyph glyph-name="wcircumflex" unicode="&#x175;" horiz-adv-x="712" 
d="M397 390q-19 -37 -211 -374q-10 -19 -25 -19h-20q-18 0 -19 21l-45 442q-1 9 -1 16q0 18 19 18h23q8 0 12 -5t5 -19q30 -309 35 -384l204 363q14 25 30 25h17q15 0 18 -25q50 -322 55 -363q35 73 194 383q12 25 27 25h27q13 0 13 -11q0 -8 -12 -30l-229 -437
q-10 -19 -25 -19h-21q-16 0 -19 19q-41 279 -52 374zM328 571h-24q-11 0 -11 11q0 7 8 15l124 138q12 14 28 14h26q14 0 19 -12l70 -142q3 -9 3 -13q0 -11 -14 -11h-18q-13 0 -21 13l-61 109l-105 -108q-14 -14 -24 -14z" />
    <glyph glyph-name="Ycircumflex" unicode="&#x176;" horiz-adv-x="550" 
d="M260 17q-4 -20 -21 -20h-24q-15 0 -15 13q0 3 2 17l61 284l-146 352q-10 25 -10 30q0 16 19 16h23q16 0 23 -17q100 -244 129 -325q51 68 262 320q18 22 37 22h24q13 0 13 -12q0 -11 -14 -26l-300 -359zM269 762h-26q-11 0 -11 11q0 7 9 15l123 102q18 14 31 14h23
q14 0 24 -12l88 -104q5 -7 5 -13q0 -13 -16 -13h-18q-10 0 -25 13l-77 72l-102 -72q-19 -13 -28 -13z" />
    <glyph glyph-name="ycircumflex" unicode="&#x177;" horiz-adv-x="444" 
d="M148 15l-82 444q-2 12 -2 15q0 20 19 20h22q17 0 20 -25q66 -381 67 -385l229 385q15 25 28 25h27q15 0 15 -11q0 -7 -11 -27l-290 -474q-77 -128 -109 -168q-51 -64 -136 -64q-29 0 -44 3t-15 15q0 18 7 30q6 9 16 9q2 0 16.5 -1.5t23.5 -1.5q54 0 89 43q22 27 97 148z
M184 571h-24q-11 0 -11 11q0 7 8 15l124 138q12 14 28 14h26q14 0 19 -12l70 -142q3 -9 3 -13q0 -11 -14 -11h-18q-13 0 -21 13l-61 109l-105 -108q-14 -14 -24 -14z" />
    <glyph glyph-name="Ydieresis" unicode="&#x178;" horiz-adv-x="550" 
d="M260 17q-4 -20 -21 -20h-24q-15 0 -15 13q0 3 2 17l61 284l-146 352q-10 25 -10 30q0 16 19 16h23q16 0 23 -17q100 -244 129 -325q51 68 262 320q18 22 37 22h24q13 0 13 -12q0 -11 -14 -26l-300 -359zM336 830q0 -29 -16 -44q-12 -10 -30 -10q-35 0 -35 31q0 29 14 42
q12 11 32 11q35 0 35 -30zM520 830q0 -29 -16 -44q-12 -10 -30 -10q-35 0 -35 31q0 28 15 42q11 11 32 11q34 0 34 -30z" />
    <glyph glyph-name="Zacute" unicode="&#x179;" horiz-adv-x="581" 
d="M503 0h-491q-17 0 -17 14q0 4 3 18q3 13 13 23l524 595h-375q-16 0 -16 13q0 8 4 25q4 18 21 18h442q14 0 14 -11q0 -8 -3 -20q-3 -15 -13 -26l-522 -593h425q17 0 17 -13q0 -5 -5 -28q-4 -15 -21 -15zM393 772q-14 -10 -29 -10h-29q-12 0 -12 11q0 9 9 16l151 110
q14 11 27 11h48q14 0 14 -11q0 -9 -11 -18z" />
    <glyph glyph-name="zacute" unicode="&#x17a;" horiz-adv-x="457" 
d="M369 0h-363q-13 0 -13 11q0 7 3 18q4 11 15 22l123 132l161 174q73 79 75 82h-264q-14 0 -14 10q0 11 5 30q3 12 19 12h332q13 0 13 -11q0 -8 -2 -16q-2 -12 -16 -27l-113 -121l-163 -175q-75 -80 -83 -88h293q14 0 14 -12q0 -1 -5 -29q-3 -12 -17 -12zM305 591
q-11 -11 -24 -11h-25q-12 0 -12 11q0 6 6 12l124 134q10 12 23 12h45q12 0 12 -10q0 -5 -9 -16z" />
    <glyph glyph-name="Zdotaccent" unicode="&#x17b;" horiz-adv-x="581" 
d="M503 0h-491q-17 0 -17 14q0 4 3 18q3 13 13 23l524 595h-375q-16 0 -16 13q0 8 4 25q4 18 21 18h442q14 0 14 -11q0 -8 -3 -20q-3 -15 -13 -26l-522 -593h425q17 0 17 -13q0 -5 -5 -28q-4 -15 -21 -15zM442 830q0 -29 -16 -44q-12 -10 -30 -10q-35 0 -35 31q0 28 15 42
q11 11 32 11q34 0 34 -30z" />
    <glyph glyph-name="zdotaccent" unicode="&#x17c;" horiz-adv-x="457" 
d="M369 0h-363q-13 0 -13 11q0 7 3 18q4 11 15 22l123 132l161 174q73 79 75 82h-264q-14 0 -14 10q0 11 5 30q3 12 19 12h332q13 0 13 -11q0 -8 -2 -16q-2 -12 -16 -27l-113 -121l-163 -175q-75 -80 -83 -88h293q14 0 14 -12q0 -1 -5 -29q-3 -12 -17 -12zM345 675
q0 -29 -16 -44q-12 -10 -30 -10q-35 0 -35 30q0 28 15 43q13 11 32 11q34 0 34 -30z" />
    <glyph glyph-name="Zcaron" unicode="&#x17d;" horiz-adv-x="581" 
d="M503 0h-491q-17 0 -17 14q0 4 3 18q3 13 13 23l524 595h-375q-16 0 -16 13q0 8 4 25q4 18 21 18h442q14 0 14 -11q0 -8 -3 -20q-3 -15 -13 -26l-522 -593h425q17 0 17 -13q0 -5 -5 -28q-4 -15 -21 -15zM515 904h26q11 0 11 -10q0 -6 -9 -15l-123 -102q-19 -15 -31 -15
h-24q-12 0 -23 13l-88 104q-5 7 -5 13q0 12 16 12h18q11 0 25 -12l77 -72l102 72q17 12 28 12z" />
    <glyph glyph-name="zcaron" unicode="&#x17e;" horiz-adv-x="457" 
d="M369 0h-363q-13 0 -13 11q0 7 3 18q4 11 15 22l123 132l161 174q73 79 75 82h-264q-14 0 -14 10q0 11 5 30q3 12 19 12h332q13 0 13 -11q0 -8 -2 -16q-2 -12 -16 -27l-113 -121l-163 -175q-75 -80 -83 -88h293q14 0 14 -12q0 -1 -5 -29q-3 -12 -17 -12zM411 749h24
q11 0 11 -10q0 -6 -8 -16l-124 -137q-13 -15 -28 -15h-26q-13 0 -19 13l-70 141q-3 12 -3 14q0 10 14 10h18q14 0 21 -12l61 -109l105 107q14 14 24 14z" />
    <glyph glyph-name="longs" unicode="&#x17f;" horiz-adv-x="257" 
d="M105 16q-3 -19 -21 -19h-21q-15 0 -15 14q0 3 3 15l117 552q22 104 67 143q42 35 115 35q39 0 57 -6q9 -4 9 -13q0 -11 -6 -27q-5 -11 -16 -11q-2 0 -20 2.5t-33 2.5q-53 0 -79 -30q-21 -24 -38 -102z" />
    <glyph glyph-name="florin" unicode="&#x192;" horiz-adv-x="456" 
d="M406 392h-116l-68 -331q-14 -64 -27 -95t-37 -51q-41 -36 -120 -36q-34 0 -53 6q-9 3 -9 13q0 1 6 28q3 12 16 12q1 0 17.5 -2t30.5 -2q58 0 77 29q27 37 40 101l68 328h-87q-15 0 -15 12q0 2 3 20q4 15 23 15h85l16 74q20 96 65 139q40 36 119 36q43 0 62 -6q9 -3 9 -14
q0 -12 -5 -29q-4 -10 -16 -10q-2 0 -21.5 2.5t-34.5 2.5q-59 0 -83 -32q-26 -35 -37 -98l-14 -65h116q15 0 15 -13l-3 -21q-4 -13 -22 -13z" />
    <glyph glyph-name="Aringacute" unicode="&#x1fa;" horiz-adv-x="575" 
d="M475 765q0 -62 -53 -81l97 -647q3 -15 3 -23t-6.5 -12.5t-13.5 -4.5h-21q-10 0 -14 5t-6 20q-20 119 -33 211h-271l-122 -212q-14 -24 -29 -24h-26q-15 0 -15 14q0 7 12 26l373 649q-35 18 -35 64q0 38 24 61.5t63 23.5q33 0 53 -18.5t20 -51.5zM186 288h235l-32 228
q-14 103 -15 108zM417 867q-13 -10 -23 -10h-16q-11 0 -11 10q0 7 6 12l108 90q15 11 25 11h32q12 0 12 -13q0 -8 -8 -14zM441 765q0 19 -11.5 29.5t-31.5 10.5q-21 0 -36 -13.5t-15 -37.5q0 -43 40 -45h4q22 0 36 14t14 42z" />
    <glyph glyph-name="aringacute" unicode="&#x1fb;" horiz-adv-x="570" 
d="M418 17q-2 -12 -6.5 -16t-13.5 -4h-21q-13 0 -13 13q0 8 3 29q-59 -51 -163 -51q-153 0 -153 151q0 78 29 169.5t83 137.5q64 56 185 56q72 0 115 -24q6 20 21 20h19q14 0 14 -12q0 -5 -2 -17zM383 114l66 312q-30 23 -110 23q-91 0 -140 -43q-42 -37 -65.5 -110.5
t-23.5 -144.5q0 -57 27 -84t88 -27q80 0 129 34q15 10 20 17q6 10 9 23zM452 682q0 -48 -28 -76.5t-76 -28.5q-39 0 -61.5 23t-22.5 63q0 46 28 74.5t74 28.5q40 0 63 -22t23 -62zM418 681q0 54 -56 54q-28 0 -47 -18.5t-19 -50.5q0 -28 15 -43.5t41 -15.5q30 0 48 18.5
t18 55.5zM378 810q-9 -10 -25 -10h-17q-11 0 -11 11q0 8 5 13l127 132q12 12 24 12h34q12 0 12 -10q0 -8 -8 -16z" />
    <glyph glyph-name="AEacute" unicode="&#x1fc;" horiz-adv-x="947" 
d="M254 241l-190 -222q-19 -22 -34 -22h-30q-14 0 -14 13q0 7 17 26l565 652q15 18 39 18h355q15 0 15 -12q0 -10 -4 -30q-4 -14 -23 -14h-289l-55 -254h270q17 0 17 -12q0 -4 -5 -29q-4 -15 -22 -15h-271l-61 -284h324q17 0 17 -12q0 -6 -6 -30q-4 -14 -23 -14h-365
q-15 0 -15 13q0 2 2 14l46 214h-260zM299 297h227l75 350q-85 -105 -302 -350zM759 772q-14 -10 -29 -10h-29q-12 0 -12 11q0 9 9 16l151 110q14 11 27 11h48q14 0 14 -11q0 -9 -11 -18z" />
    <glyph glyph-name="aeacute" unicode="&#x1fd;" horiz-adv-x="846" 
d="M413 63q-40 -35 -86 -55t-121 -20q-155 0 -155 153q0 78 29 168.5t83 136.5q64 56 184 56q64 0 108 -22l3 9q5 16 19 16h15q12 0 12 -11q0 -4 -4 -24l-8 -38q20 33 67 53t101 20q160 0 160 -130q0 -49 -12 -109q-4 -23 -12 -29t-21 -6h-318q-7 -39 -7 -67
q0 -71 34.5 -97.5t111.5 -26.5q70 0 127 20q15 6 23 6q6 0 10 -8q6 -16 6 -24q0 -12 -19 -19q-69 -28 -162 -28q-136 0 -168 76zM398 111q-2 19 -2 59q0 43 27 163l21 94q-30 22 -105 22q-91 0 -140 -43q-42 -37 -65.5 -109.5t-23.5 -144.5q0 -57 27 -84.5t88 -27.5
q107 0 173 71zM465 280h288q11 49 11 87q0 45 -23.5 67.5t-85.5 22.5q-76 0 -120 -33q-49 -37 -70 -144zM509 591q-11 -11 -24 -11h-25q-12 0 -12 11q0 6 6 12l124 134q10 12 23 12h45q12 0 12 -10q0 -5 -9 -16z" />
    <glyph glyph-name="Oslashacute" unicode="&#x1fe;" horiz-adv-x="683" 
d="M69 -17q-7 -8 -13 -8q-7 0 -20 13q-6 5 -6 11t6 12l52 61q-28 48 -28 127q0 109 35.5 239t101.5 201q72 76 210 76q133 0 186 -48l41 48q8 10 15 10q6 0 11 -5q14 -11 14 -18q-1 -7 -5 -12l-48 -57q26 -44 26 -122q0 -103 -33 -235t-92 -202q-75 -87 -224 -87
q-127 0 -183 51zM585 503q0 43 -10 76l-419 -493q40 -45 151 -45q60 0 100.5 16t72.5 56q47 62 76 183t29 207zM123 206q0 -45 11 -80l418 493q-38 42 -151 42q-110 0 -164 -61q-53 -60 -83.5 -178.5t-30.5 -215.5zM453 772q-14 -10 -29 -10h-29q-12 0 -12 11q0 9 9 16
l151 110q14 11 27 11h48q14 0 14 -11q0 -9 -11 -18z" />
    <glyph glyph-name="oslashacute" unicode="&#x1ff;" horiz-adv-x="545" 
d="M53 -24q-7 -7 -13 -7q-5 0 -17 11q-7 6 -7 12q0 3 7 12l37 43q-26 35 -26 99q0 69 23.5 156.5t66.5 136.5q58 66 175 66q92 0 134 -24l35 40q6 7 12 7t12 -5q11 -9 11 -16q0 -5 -5 -12l-35 -40q28 -34 28 -98q0 -59 -20.5 -148.5t-55.5 -141.5q-55 -80 -189 -80
q-92 0 -137 31zM433 348q0 33 -12 57l-294 -343q32 -24 105 -24q104 0 142 65q25 42 42 122t17 123zM93 150q0 -32 9 -55l292 340q-33 20 -103 20q-85 0 -127 -50q-33 -40 -52 -122t-19 -133zM323 591q-11 -11 -24 -11h-25q-12 0 -12 11q0 6 6 12l124 134q10 12 23 12h45
q12 0 12 -10q0 -5 -9 -16z" />
    <glyph glyph-name="uni0218" unicode="&#x218;" horiz-adv-x="549" 
d="M368 363q133 -49 133 -164q0 -212 -262 -212q-108 0 -189 35q-16 7 -16 18q0 10 10 30q6 13 19 13q7 0 25 -8q67 -32 158 -32q92 0 141.5 31.5t49.5 112.5q0 38 -23.5 69.5t-93.5 60.5l-83 34q-113 47 -113 161q0 207 257 207q88 0 153 -22q15 -5 15 -17q0 -10 -8 -31
q-3 -10 -16 -10q-6 0 -24 4q-73 20 -135 20q-89 0 -134 -31.5t-45 -112.5q0 -42 24 -72.5t85 -54.5zM273 -71q17 0 17 -17q0 -14 -11 -47q-27 -78 -78 -122q-12 -10 -21 -10q-7 0 -19 8q-7 7 -7 13q0 8 10 16q51 54 62 134q4 25 23 25h24z" />
    <glyph glyph-name="uni0219" unicode="&#x219;" horiz-adv-x="420" 
d="M275 256q93 -36 93 -109q0 -70 -44 -114q-46 -46 -161 -46q-87 0 -141 28q-11 5 -11 14q0 11 9 31q4 10 18 10q6 0 16 -5q55 -25 117 -25q87 0 115 30q24 26 24 65q0 25 -16 42t-67 36l-65 24q-88 32 -88 107q0 79 54 122q47 37 150 37q66 0 112 -14q15 -4 15 -14
q0 -8 -7 -31q-3 -10 -13 -10q-3 0 -18 3q-59 15 -103 15q-72 0 -101 -23q-31 -25 -31 -74q0 -24 17 -42t62 -34zM195 -71q17 0 17 -17q0 -14 -11 -47q-27 -78 -78 -122q-12 -10 -21 -10q-7 0 -19 8q-7 7 -7 13q0 8 10 16q51 54 62 134q4 25 23 25h24z" />
    <glyph glyph-name="uni021A" unicode="&#x21a;" horiz-adv-x="555" 
d="M263 18q-6 -21 -21 -21h-26q-15 0 -15 13q0 1 3 16l133 625h-206q-14 0 -14 11q0 4 6 29q3 15 20 15h471q15 0 15 -11q0 -5 -6 -30q-3 -14 -20 -14h-206zM232 -71q17 0 17 -17q0 -14 -11 -47q-27 -78 -78 -122q-12 -10 -21 -10q-7 0 -19 8q-7 7 -7 13q0 8 10 16
q51 54 62 134q4 25 23 25h24z" />
    <glyph glyph-name="uni021B" unicode="&#x21b;" horiz-adv-x="295" 
d="M204 439l-67 -310q-7 -32 -7 -51q0 -39 51 -39q15 0 31 3.5t17 3.5q11 0 13 -8q3 -13 3 -24q-1 -12 -20 -18q-32 -9 -73 -9q-81 0 -81 77q0 23 8 63l68 312h-57q-14 0 -14 11q0 10 5 27q3 14 20 14h58q0 7 27 118q5 20 18 20h23q11 0 11 -12q0 -8 -2 -18l-23 -108h101
q16 0 16 -11q0 -4 -4 -26q-3 -15 -22 -15h-100zM148 -71q17 0 17 -17q0 -14 -11 -47q-27 -78 -78 -122q-12 -10 -21 -10q-7 0 -19 8q-7 7 -7 13q0 8 10 16q51 54 62 134q4 25 23 25h24z" />
    <glyph glyph-name="circumflex" unicode="&#x2c6;" horiz-adv-x="197" 
d="M-5 571h-24q-11 0 -11 11q0 7 8 15l124 138q12 14 28 14h26q14 0 19 -12l70 -142q3 -9 3 -13q0 -11 -14 -11h-18q-13 0 -21 13l-61 109l-105 -108q-14 -14 -24 -14z" />
    <glyph glyph-name="caron" unicode="&#x2c7;" horiz-adv-x="197" 
d="M203 749h24q11 0 11 -10q0 -6 -8 -16l-124 -137q-13 -15 -28 -15h-26q-13 0 -19 13l-70 141q-3 12 -3 14q0 10 14 10h18q14 0 21 -12l61 -109l105 107q14 14 24 14z" />
    <glyph glyph-name="breve" unicode="&#x2d8;" horiz-adv-x="197" 
d="M226 718q10 0 10 -12q0 -16 -8 -37q-38 -97 -144 -97q-60 0 -89.5 27.5t-29.5 72.5q0 22 3 34t16 12h13q12 0 12 -11v-21q2 -32 20 -47t59 -15q46 0 69 21t35 62q3 11 15 11h19z" />
    <glyph glyph-name="dotaccent" unicode="&#x2d9;" horiz-adv-x="197" 
d="M139 675q0 -29 -16 -44q-12 -10 -30 -10q-35 0 -35 30q0 28 15 43q13 11 32 11q34 0 34 -30z" />
    <glyph glyph-name="ring" unicode="&#x2da;" horiz-adv-x="197" 
d="M193 682q0 -48 -28 -76.5t-76 -28.5q-40 0 -62.5 23t-22.5 63q0 46 28.5 74.5t74.5 28.5q40 0 63 -22t23 -62zM157 681q0 54 -54 54q-28 0 -47 -18.5t-19 -50.5q0 -28 15 -43t41 -15q29 0 46.5 18t17.5 55z" />
    <glyph glyph-name="ogonek" unicode="&#x2db;" horiz-adv-x="197" 
d="M183 6q-114 -69 -114 -136q0 -44 51 -44q12 0 27 2.5t17 2.5q9 0 12 -10q3 -13 3 -20q-1 -10 -12 -13q-24 -8 -63 -8q-91 0 -91 80q0 47 30 81t85 65h55z" />
    <glyph glyph-name="tilde" unicode="&#x2dc;" horiz-adv-x="197" 
d="M-33 604h-16q-13 0 -13 11q0 5 7 23q21 39 41.5 57t49.5 18q18 0 68 -30q38 -23 57 -23q13 0 23 7.5t23 32.5q8 18 20 18h17q14 0 14 -10q0 -8 -6 -22q-38 -83 -91 -83q-29 0 -73 27q-43 25 -57 25q-25 0 -43 -37q-6 -14 -21 -14z" />
    <glyph glyph-name="hungarumlaut" unicode="&#x2dd;" horiz-adv-x="197" 
d="M-14 591q-10 -11 -22 -11h-24q-11 0 -11 11q0 6 6 12l113 134q9 12 23 12h37q12 0 12 -10q0 -7 -9 -16zM133 591q-11 -11 -22 -11h-24q-11 0 -11 11q0 4 6 12l113 134q8 12 23 12h37q12 0 12 -10q0 -7 -9 -16z" />
    <glyph glyph-name="uni0394" unicode="&#x394;" horiz-adv-x="641" 
d="M600 36q3 -14 3 -20q0 -16 -20 -16h-584q-14 0 -14 12q0 6 8 20l399 629q11 16 26 16h36q15 0 18 -16zM424 615q-48 -83 -350 -559h460q-100 498 -110 559z" />
    <glyph glyph-name="uni03A9" unicode="&#x3a9;" horiz-adv-x="722" 
d="M292 18q-3 -18 -20 -18h-208q-15 0 -15 11q0 14 4 29q4 16 20 16h169q-140 61 -140 225q0 77 23.5 162t73.5 144q85 102 253 102q228 0 228 -216q0 -176 -77 -288q-55 -81 -163 -129h175q15 0 15 -13q0 -7 -4 -27q-3 -16 -19 -16h-220q-16 0 -16 14q0 12 7 45q4 18 18 23
q108 46 157 127q63 107 63 249q0 87 -42 131t-134 44q-130 0 -195 -84q-38 -50 -59 -126t-21 -139q0 -70 28 -119t95 -83q11 -6 11 -17q0 -13 -7 -47z" />
    <glyph glyph-name="uni03BC" unicode="&#x3bc;" horiz-adv-x="537" 
d="M99 22l-43 -208q-4 -18 -21 -18h-23q-15 0 -15 11q0 7 3 17l139 652q4 18 20 18h22q14 0 14 -11q0 -8 -2 -16l-65 -306q-10 -48 -10 -66q0 -52 96 -52q94 0 150 28q16 8 20 13q7 7 11 24l78 368q4 18 21 18h22q14 0 14 -12q0 -2 -2 -12l-97 -455q-3 -18 -20 -18h-20
q-16 0 -16 13q0 7 5 27q-55 -46 -179 -46q-80 0 -102 31z" />
    <glyph glyph-name="pi" unicode="&#x3c0;" horiz-adv-x="588" 
d="M139 17q-3 -17 -18 -17h-28q-14 0 -14 12q0 5 2 13l89 417h-51q-13 0 -13 12q0 8 5 26q4 16 20 16h461q14 0 14 -11q0 -5 -6 -28q-4 -15 -18 -15h-53l-55 -258q-18 -78 -19 -130q0 -6 0.5 -18.5t0.5 -19.5q0 -16 -17 -16h-27q-18 0 -18 30q0 60 20 152l56 260h-241z" />
    <glyph glyph-name="afii10032" unicode="&#x41e;" horiz-adv-x="683" 
d="M663 511q0 -103 -33 -235t-92 -202q-75 -87 -224 -87q-116 0 -177 46t-61 166q0 109 35.5 239t101.5 201q73 77 210 77q58 0 98.5 -8t74.5 -29.5t50.5 -63t16.5 -104.5zM601 503q0 92 -41.5 125t-142.5 33q-109 0 -164 -62q-53 -59 -83.5 -177t-30.5 -214
q0 -94 42.5 -129.5t141.5 -35.5q61 0 101 15.5t72 56.5q47 61 76 181.5t29 206.5z" />
    <glyph glyph-name="Wgrave" unicode="&#x1e80;" horiz-adv-x="872" 
d="M603 -3h-22q-17 0 -19 19q-38 419 -46 572l-29 -62l-43 -83l-48 -93l-77 -146l-100 -188q-10 -19 -26 -19h-22q-18 0 -19 19l-33 651q0 18 1 23q0 19 20 19h22q16 0 18 -24q23 -477 26 -587q29 62 289 561q12 23 27 23h21q16 0 19 -23q46 -519 49 -561q55 126 276 585
q11 26 28 26h26q14 0 14 -13q0 -8 -11 -30l-315 -650q-9 -19 -26 -19zM527 772l-138 109q-11 9 -11 18q0 11 14 11h43q16 0 28 -12l122 -109q9 -7 9 -16q0 -11 -13 -11h-26q-14 0 -28 10z" />
    <glyph glyph-name="wgrave" unicode="&#x1e81;" horiz-adv-x="712" 
d="M397 390q-19 -37 -211 -374q-10 -19 -25 -19h-20q-18 0 -19 21l-45 442q-1 9 -1 16q0 18 19 18h23q8 0 12 -5t5 -19q30 -309 35 -384l204 363q14 25 30 25h17q15 0 18 -25q50 -322 55 -363q35 73 194 383q12 25 27 25h27q13 0 13 -11q0 -8 -12 -30l-229 -437
q-10 -19 -25 -19h-21q-16 0 -19 19q-41 279 -52 374zM412 591l-112 131q-7 9 -7 16q0 11 13 11h41q12 0 21 -12l99 -134q5 -8 5 -13q0 -10 -11 -10h-26q-13 0 -23 11z" />
    <glyph glyph-name="Wacute" unicode="&#x1e82;" horiz-adv-x="872" 
d="M603 -3h-22q-17 0 -19 19q-38 419 -46 572l-29 -62l-43 -83l-48 -93l-77 -146l-100 -188q-10 -19 -26 -19h-22q-18 0 -19 19l-33 651q0 18 1 23q0 19 20 19h22q16 0 18 -24q23 -477 26 -587q29 62 289 561q12 23 27 23h21q16 0 19 -23q46 -519 49 -561q55 126 276 585
q11 26 28 26h26q14 0 14 -13q0 -8 -11 -30l-315 -650q-9 -19 -26 -19zM541 772q-14 -10 -29 -10h-29q-12 0 -12 11q0 9 9 16l151 110q14 11 27 11h48q14 0 14 -11q0 -9 -11 -18z" />
    <glyph glyph-name="wacute" unicode="&#x1e83;" horiz-adv-x="712" 
d="M397 390q-19 -37 -211 -374q-10 -19 -25 -19h-20q-18 0 -19 21l-45 442q-1 9 -1 16q0 18 19 18h23q8 0 12 -5t5 -19q30 -309 35 -384l204 363q14 25 30 25h17q15 0 18 -25q50 -322 55 -363q35 73 194 383q12 25 27 25h27q13 0 13 -11q0 -8 -12 -30l-229 -437
q-10 -19 -25 -19h-21q-16 0 -19 19q-41 279 -52 374zM435 591q-11 -11 -24 -11h-25q-12 0 -12 11q0 6 6 12l124 134q10 12 23 12h45q12 0 12 -10q0 -5 -9 -16z" />
    <glyph glyph-name="Wdieresis" unicode="&#x1e84;" horiz-adv-x="872" 
d="M603 -3h-22q-17 0 -19 19q-38 419 -46 572l-29 -62l-43 -83l-48 -93l-77 -146l-100 -188q-10 -19 -26 -19h-22q-18 0 -19 19l-33 651q0 18 1 23q0 19 20 19h22q16 0 18 -24q23 -477 26 -587q29 62 289 561q12 23 27 23h21q16 0 19 -23q46 -519 49 -561q55 126 276 585
q11 26 28 26h26q14 0 14 -13q0 -8 -11 -30l-315 -650q-9 -19 -26 -19zM490 830q0 -29 -16 -44q-12 -10 -30 -10q-35 0 -35 31q0 29 14 42q12 11 32 11q35 0 35 -30zM674 830q0 -29 -16 -44q-12 -10 -30 -10q-35 0 -35 31q0 28 15 42q11 11 32 11q34 0 34 -30z" />
    <glyph glyph-name="wdieresis" unicode="&#x1e85;" horiz-adv-x="712" 
d="M397 390q-19 -37 -211 -374q-10 -19 -25 -19h-20q-18 0 -19 21l-45 442q-1 9 -1 16q0 18 19 18h23q8 0 12 -5t5 -19q30 -309 35 -384l204 363q14 25 30 25h17q15 0 18 -25q50 -322 55 -363q35 73 194 383q12 25 27 25h27q13 0 13 -11q0 -8 -12 -30l-229 -437
q-10 -19 -25 -19h-21q-16 0 -19 19q-41 279 -52 374zM385 675q0 -29 -16 -44q-12 -10 -30 -10q-35 0 -35 30q0 31 14 43q12 11 32 11q35 0 35 -30zM559 675q0 -31 -15 -44q-11 -10 -30 -10q-36 0 -36 30q0 29 15 43q13 11 32 11q34 0 34 -30z" />
    <glyph glyph-name="Ygrave" unicode="&#x1ef2;" horiz-adv-x="550" 
d="M260 17q-4 -20 -21 -20h-24q-15 0 -15 13q0 3 2 17l61 284l-146 352q-10 25 -10 30q0 16 19 16h23q16 0 23 -17q100 -244 129 -325q51 68 262 320q18 22 37 22h24q13 0 13 -12q0 -11 -14 -26l-300 -359zM362 772l-138 109q-11 9 -11 18q0 11 14 11h43q16 0 28 -12
l122 -109q9 -7 9 -16q0 -11 -13 -11h-26q-14 0 -28 10z" />
    <glyph glyph-name="ygrave" unicode="&#x1ef3;" horiz-adv-x="444" 
d="M148 15l-82 444q-2 12 -2 15q0 20 19 20h22q17 0 20 -25q66 -381 67 -385l229 385q15 25 28 25h27q15 0 15 -11q0 -7 -11 -27l-290 -474q-77 -128 -109 -168q-51 -64 -136 -64q-29 0 -44 3t-15 15q0 18 7 30q6 9 16 9q2 0 16.5 -1.5t23.5 -1.5q54 0 89 43q22 27 97 148z
M266 591l-112 131q-7 9 -7 16q0 11 13 11h41q12 0 21 -12l99 -134q5 -8 5 -13q0 -10 -11 -10h-26q-13 0 -23 11z" />
    <glyph glyph-name="endash" unicode="&#x2013;" horiz-adv-x="566" 
d="M506 241h-433q-13 0 -13 11q0 6 5 27q4 15 20 15h430q15 0 15 -12q0 -7 -6 -28q-4 -13 -18 -13z" />
    <glyph glyph-name="emdash" unicode="&#x2014;" horiz-adv-x="833" 
d="M773 241h-700q-13 0 -13 11q0 6 5 27q4 15 20 15h697q15 0 15 -12q0 -7 -6 -28q-4 -13 -18 -13z" />
    <glyph glyph-name="quoteleft" unicode="&#x2018;" horiz-adv-x="174" 
d="M154 512h-26q-18 0 -18 16q0 7 4 25q11 50 44 103.5t73 81.5q15 10 21 10q9 0 19 -10q6 -6 6 -13t-10 -15q-78 -72 -90 -173q-3 -25 -23 -25z" />
    <glyph glyph-name="quoteright" unicode="&#x2019;" horiz-adv-x="174" 
d="M232 748q17 0 17 -16q0 -12 -3 -25q-11 -52 -44 -105t-74 -81q-11 -9 -20 -9t-19 10q-6 6 -6 13t9 15q77 66 91 173q4 25 23 25h26z" />
    <glyph glyph-name="quotesinglbase" unicode="&#x201a;" horiz-adv-x="174" 
d="M86 84q17 0 17 -16q0 -11 -4 -29q-13 -52 -45 -103t-72 -79q-11 -9 -20 -9q-8 0 -19 9q-7 7 -7 14t10 15q76 65 91 173q4 25 23 25h26z" />
    <glyph glyph-name="quotedblleft" unicode="&#x201c;" horiz-adv-x="322" 
d="M305 512h-26q-17 0 -17 16q0 9 4 27q13 52 45 104t72 80q11 9 20 9t19 -10q7 -6 7 -13t-10 -15q-81 -72 -91 -174q-3 -24 -23 -24zM154 512h-26q-18 0 -18 16q0 7 4 25q11 51 43.5 103.5t74.5 82.5q11 9 20 9t19 -10q6 -6 6 -13t-10 -15q-78 -72 -90 -173q-3 -25 -23 -25
z" />
    <glyph glyph-name="quotedblright" unicode="&#x201d;" horiz-adv-x="322" 
d="M232 748q17 0 17 -16q0 -12 -3 -25q-11 -52 -44 -105t-74 -81q-11 -9 -20 -9t-19 10q-6 6 -6 13t9 15q77 66 91 173q4 25 23 25h26zM383 748q18 0 18 -16q0 -7 -4 -25q-11 -52 -43.5 -105t-73.5 -81q-11 -9 -20 -9q-10 0 -20 10q-6 6 -6 13t10 15q77 69 91 173
q4 25 23 25h25z" />
    <glyph glyph-name="quotedblbase" unicode="&#x201e;" horiz-adv-x="323" 
d="M86 84q17 0 17 -16q0 -7 -4 -25q-9 -51 -42.5 -104.5t-74.5 -81.5q-11 -9 -20 -9q-8 0 -19 9q-7 7 -7 14t10 15q78 68 91 173q4 25 23 25h26zM237 84q18 0 18 -16q0 -7 -4 -25q-11 -52 -44 -105t-74 -81q-11 -9 -20 -9t-19 10q-6 6 -6 13t10 15q78 69 90 173q4 25 23 25
h26z" />
    <glyph glyph-name="dagger" unicode="&#x2020;" horiz-adv-x="465" 
d="M205 -68q-5 -18 -20 -18h-23q-15 0 -15 10q0 6 3 18l107 505h-153q-12 0 -12 10q0 5 4 28q4 14 20 14h152l43 199q4 18 21 18h22q14 0 14 -11q0 -5 -3 -17l-40 -189h152q14 0 14 -9q0 -7 -5 -31q-2 -12 -19 -12h-153z" />
    <glyph glyph-name="daggerdbl" unicode="&#x2021;" horiz-adv-x="465" 
d="M206 -68q-4 -18 -19 -18h-23q-15 0 -15 10q0 6 3 18l41 196h-150q-12 0 -12 10q0 5 4 28q4 14 19 14h150l55 257h-153q-12 0 -12 10q0 5 4 28q4 14 19 14h153l42 199q5 18 22 18h22q14 0 14 -11q0 -5 -3 -17l-41 -189h153q14 0 14 -9q0 -8 -5 -31q-2 -12 -19 -12h-154
l-54 -257h155q14 0 14 -10q0 -6 -5 -30q-2 -12 -19 -12h-156z" />
    <glyph glyph-name="bullet" unicode="&#x2022;" horiz-adv-x="335" 
d="M291 302q0 -89 -45 -127q-33 -27 -87 -27q-44 0 -72.5 22t-28.5 68q0 77 44 118q31 30 88 30q101 0 101 -84z" />
    <glyph glyph-name="ellipsis" unicode="&#x2026;" horiz-adv-x="855" 
d="M154 48q0 -30 -18 -47q-13 -11 -32 -11q-39 0 -39 34q0 29 17 45q13 13 34 13q38 0 38 -34zM430 48q0 -30 -18 -47q-13 -11 -32 -11q-39 0 -39 34q0 29 17 45q13 13 34 13q38 0 38 -34zM706 48q0 -31 -19 -47q-11 -11 -31 -11q-39 0 -39 34q0 29 17 45q13 13 34 13
q38 0 38 -34z" />
    <glyph glyph-name="perthousand" unicode="&#x2030;" horiz-adv-x="1209" 
d="M402 572q0 -54 -19.5 -135.5t-50.5 -124.5q-42 -57 -127 -57q-67 0 -99 26t-32 92q0 55 18 126.5t49 116.5q44 64 133 64q67 0 97.5 -22.5t30.5 -85.5zM350 563q0 40 -17 56.5t-66 16.5q-56 0 -86 -46q-24 -36 -39.5 -100.5t-15.5 -110.5q0 -44 18.5 -61.5t65.5 -17.5
q58 0 84 42q23 35 39.5 107.5t16.5 113.5zM246 -16q-12 -16 -25 -16h-15q-11 0 -11 10q0 7 10 20l449 691q14 22 28 22h16q11 0 11 -10q0 -8 -13 -27zM824 308q0 -55 -19 -136.5t-50 -123.5q-42 -57 -128 -57q-67 0 -99 26t-32 92q0 55 18 126.5t49 116.5q45 64 133 64
q68 0 98 -22.5t30 -85.5zM772 299q0 40 -16.5 56.5t-65.5 16.5q-56 0 -87 -46q-24 -36 -39.5 -100.5t-15.5 -110.5q0 -44 18.5 -61.5t65.5 -17.5q58 0 85 42q23 35 39 107.5t16 113.5zM1192 308q0 -55 -19 -136.5t-50 -123.5q-41 -57 -128 -57q-67 0 -99 26t-32 92
q0 55 18 126.5t49 116.5q45 64 133 64q68 0 98 -22.5t30 -85.5zM1140 299q0 40 -16.5 56.5t-65.5 16.5q-56 0 -87 -46q-24 -36 -39.5 -100.5t-15.5 -110.5q0 -44 18.5 -61.5t66.5 -17.5q58 0 84 42q23 35 39 107.5t16 113.5z" />
    <glyph glyph-name="guilsinglleft" unicode="&#x2039;" horiz-adv-x="285" 
d="M115 265l93 -169q6 -11 6 -19q0 -11 -14 -11h-23q-7 0 -11.5 3t-6.5 6l-8 12l-92 159q-7 12 -7 21t11 22l162 153q24 22 36 22h27q11 0 11 -11q0 -7 -16 -23z" />
    <glyph glyph-name="guilsinglright" unicode="&#x203a;" horiz-adv-x="284" 
d="M188 264l-93 169q-6 11 -6 20q0 11 14 11h24q6 0 11 -3t6.5 -6t7.5 -12l93 -159q6 -10 6 -21q0 -10 -11 -23l-162 -153q-23 -21 -35 -21h-27q-12 0 -12 11q0 5 16 23z" />
    <glyph glyph-name="fraction" unicode="&#x2044;" horiz-adv-x="84" 
d="M-134 -16q-12 -16 -25 -16h-15q-10 0 -10 10q0 6 9 20l450 691q12 22 28 22h15q12 0 12 -10q0 -7 -14 -27z" />
    <glyph glyph-name="zero.superior" unicode="&#x2070;" 
d="M440 728q0 -55 -19 -136.5t-50 -123.5q-41 -57 -126 -57q-67 0 -98.5 26t-31.5 92q0 55 18 126.5t49 116.5q44 64 132 64q67 0 96.5 -22.5t29.5 -85.5zM390 719q0 40 -17 56.5t-66 16.5q-56 0 -86 -46q-24 -36 -39.5 -100.5t-15.5 -110.5q0 -44 18.5 -61.5t65.5 -17.5
q58 0 84 42q23 35 39.5 107.5t16.5 113.5z" />
    <glyph glyph-name="four.superior" unicode="&#x2074;" 
d="M336 431q-3 -12 -15 -12h-23q-10 0 -10 9q0 3 2 11l20 87h-189q-13 0 -13 11q0 13 3 23q1 7 11 17l200 241q12 14 24 14h24q9 0 9 -7t-9 -17l-198 -237h147l24 100q4 13 15 13h21q12 0 12 -8q0 -7 -3 -19l-21 -86h59q13 0 13 -8q0 -6 -6 -27q-3 -10 -15 -10h-60z" />
    <glyph glyph-name="five.superior" unicode="&#x2075;" 
d="M206 668q34 11 76 11q61 0 90 -21t29 -70q0 -176 -189 -176q-65 0 -102 13q-13 5 -13 12q0 8 9 26q4 8 13 8q3 0 10.5 -2.5t11.5 -3.5q36 -8 78 -8q68 0 99 29t31 89q0 34 -22 47t-65 13q-50 0 -84 -11q-7 -3 -15 -3q-12 0 -12 11q0 4 6 24l48 159q5 17 18 17h192
q11 0 11 -9q0 -7 -4 -26q-1 -10 -16 -10h-165z" />
    <glyph glyph-name="six.superior" unicode="&#x2076;" 
d="M183 632q43 48 122 48q110 0 110 -94q0 -86 -45 -132q-41 -42 -126 -42q-122 0 -122 115q0 62 24 140.5t66 120.5q54 52 145 52q51 0 73 -9q8 -3 8 -10q0 -12 -6 -27q-4 -6 -10 -6q-3 0 -18 3q-27 5 -51 5q-72 0 -110 -38q-35 -36 -60 -126zM169 529q0 -33 17 -53t63 -20
q64 0 90 32q27 34 27 87q0 62 -74 62q-71 0 -105 -42q-7 -7 -12 -22q-6 -23 -6 -44z" />
    <glyph glyph-name="seven.superior" unicode="&#x2077;" 
d="M380 788q-40 -1 -219 -1q-14 0 -14 10q0 6 4 25q3 10 15 10h265q11 0 11 -9t-1 -17q-1 -10 -10 -23q-157 -238 -219 -349q-8 -15 -20 -15h-24q-12 0 -12 9q0 6 6 18q82 140 218 342z" />
    <glyph glyph-name="eight.superior" unicode="&#x2078;" 
d="M345 635q66 -11 66 -79q0 -144 -170 -144q-65 0 -98 25.5t-33 70.5q0 112 109 132q-26 6 -39.5 25.5t-13.5 44.5q0 130 157 130q117 0 117 -82q0 -101 -95 -123zM360 552q0 61 -83 61q-117 0 -117 -95q0 -63 88 -63q112 0 112 97zM391 746q0 50 -75 50q-101 0 -101 -85
q0 -27 20 -41t52 -14q47 0 75.5 24t28.5 66z" />
    <glyph glyph-name="nine.superior" unicode="&#x2079;" 
d="M372 620q-40 -47 -122 -47q-56 0 -83 25t-27 69q0 83 46 130q42 43 125 43q122 0 122 -115q0 -65 -22 -143.5t-62 -118.5q-55 -52 -146 -52q-54 0 -79 9q-7 4 -7 11t7 26q4 7 10 7q7 0 19 -3q27 -5 51 -5q74 0 111 37q32 35 57 127zM386 725q0 71 -80 71q-63 0 -89 -33
q-28 -33 -28 -85q0 -62 76 -62q66 0 104 43q8 8 11 22q6 19 6 44z" />
    <glyph glyph-name="parenleft.superior" unicode="&#x207d;" horiz-adv-x="205" 
d="M339 854q-84 -47 -131.5 -138t-47.5 -204q0 -95 64 -165q3 -3 3 -8q0 -3 -6 -9q-5 -5 -10 -5t-15 6q-32 23 -57 70.5t-25 115.5q0 112 51.5 212t151.5 145q10 5 17 5q5 0 9 -6q3 -4 3 -10q0 -5 -7 -9z" />
    <glyph glyph-name="parenright.superior" unicode="&#x207e;" horiz-adv-x="205" 
d="M27 350q84 48 131.5 138.5t47.5 204.5q0 95 -64 165q-3 3 -3 7t5 9t11 5q7 0 15 -6q32 -23 57 -70t25 -115q0 -112 -51 -211.5t-151 -145.5q-12 -5 -17 -5t-9 5t-4 10t7 9z" />
    <glyph glyph-name="n.superior" unicode="&#x207f;" horiz-adv-x="373" 
d="M116 275q-2 -12 -15 -12h-25q-10 0 -10 9q0 4 2 12l60 270q3 14 15 14h23q11 0 11 -10l-1 -2q0 -2 -0.5 -6t-0.5 -7q35 29 110 29q82 0 82 -52q0 -14 -7 -51l-43 -194q-3 -12 -15 -12h-25q-10 0 -10 9q0 5 2 13l39 177q5 23 5 34q0 30 -49 30q-44 0 -80 -14
q-10 -5 -14 -9q-4 -3 -7 -15z" />
    <glyph glyph-name="zero.inferior" unicode="&#x2080;" 
d="M327 182q0 -55 -19 -136.5t-50 -123.5q-41 -57 -126 -57q-67 0 -98.5 26t-31.5 92q0 55 18 126.5t49 116.5q44 64 132 64q67 0 96.5 -22.5t29.5 -85.5zM277 173q0 40 -17 56.5t-66 16.5q-56 0 -86 -46q-24 -36 -39.5 -100.5t-15.5 -110.5q0 -44 18.5 -61.5t65.5 -17.5
q58 0 84 42q23 35 39.5 107.5t16.5 113.5z" />
    <glyph glyph-name="one.inferior" unicode="&#x2081;" 
d="M183 233l-67 -26q-7 -3 -13 -3q-5 0 -7 5q-7 16 -7 23t10 12l92 37q12 5 20 5h18q11 0 11 -9q0 -6 -2 -14l-86 -377q-3 -13 -16 -13h-19q-14 0 -14 9q0 3 2 13z" />
    <glyph glyph-name="two.inferior" unicode="&#x2082;" 
d="M251 -126h-267q-12 0 -12 9q0 8 4 21q2 7 11 14q143 95 209 153q61 54 61 114q0 31 -18.5 47.5t-64.5 16.5q-35 0 -73 -10q-20 -6 -24 -6q-8 0 -9 7q-4 13 -4 21q0 9 19 16q57 17 106 17q120 0 120 -97q0 -81 -69 -143q-83 -74 -187 -136q38 1 206 1q11 0 11 -9
q0 -7 -5 -26q-3 -10 -14 -10z" />
    <glyph glyph-name="three.inferior" unicode="&#x2083;" 
d="M203 91q70 -8 70 -78q0 -69 -37 -105q-42 -42 -142 -42q-58 0 -94 12q-13 4 -13 14q0 7 8 25q3 7 12 7l20 -5q36 -9 73 -9q74 0 100 29q23 26 23 72q0 28 -22 42t-73 14h-14q-11 0 -11 9q0 14 2 23q4 13 17 13h15q58 0 85 22q25 19 25 65q0 50 -76 50q-38 0 -73 -10
q-3 -1 -8.5 -2t-8.5 -2t-5 -1q-7 0 -9 7q-4 12 -4 21q0 11 18 16q50 16 103 16q63 0 88.5 -22t25.5 -64q0 -50 -22.5 -78t-72.5 -39z" />
    <glyph glyph-name="four.inferior" unicode="&#x2084;" 
d="M223 -115q-3 -12 -15 -12h-23q-10 0 -10 9q0 3 2 11l20 87h-189q-13 0 -13 11q0 13 3 23q1 7 11 17l200 241q12 14 24 14h24q9 0 9 -7t-9 -17l-198 -237h147l24 100q4 13 15 13h21q12 0 12 -8q0 -7 -3 -19l-21 -86h59q13 0 13 -8q0 -6 -6 -27q-2 -10 -15 -10h-60z" />
    <glyph glyph-name="five.inferior" unicode="&#x2085;" 
d="M93 122q34 11 76 11q61 0 90 -21t29 -70q0 -176 -189 -176q-65 0 -102 13q-13 5 -13 12q0 8 9 26q4 8 13 8q3 0 10.5 -2.5t11.5 -3.5q36 -8 78 -8q68 0 99 29t31 89q0 34 -22 47t-65 13q-50 0 -84 -11q-7 -3 -15 -3q-12 0 -12 11q0 4 6 24l48 159q5 17 18 17h192
q11 0 11 -9q0 -7 -4 -26q-1 -10 -16 -10h-165z" />
    <glyph glyph-name="six.inferior" unicode="&#x2086;" 
d="M70 86q43 48 122 48q110 0 110 -94q0 -86 -45 -132q-41 -42 -126 -42q-122 0 -122 115q0 62 24 140.5t66 120.5q54 52 145 52q50 0 73 -9q8 -3 8 -10q0 -12 -6 -27q-4 -6 -10 -6q-3 0 -18 3q-27 5 -51 5q-72 0 -110 -38q-35 -36 -60 -126zM56 -17q0 -33 17 -53t63 -20
q64 0 90 32q27 34 27 87q0 62 -74 62q-71 0 -105 -42q-7 -7 -12 -22q-6 -22 -6 -44z" />
    <glyph glyph-name="seven.inferior" unicode="&#x2087;" 
d="M267 242q-40 -1 -219 -1q-14 0 -14 10q0 6 4 25q2 10 15 10h265q11 0 11 -9t-1 -17q-1 -10 -10 -23q-157 -238 -219 -349q-8 -15 -20 -15h-24q-12 0 -12 9q0 6 6 18q82 140 218 342z" />
    <glyph glyph-name="eight.inferior" unicode="&#x2088;" 
d="M232 89q66 -11 66 -79q0 -144 -170 -144q-65 0 -98 25.5t-33 70.5q0 112 109 132q-26 6 -39.5 25.5t-13.5 44.5q0 130 157 130q117 0 117 -82q0 -101 -95 -123zM247 6q0 61 -83 61q-117 0 -117 -95q0 -63 88 -63q112 0 112 97zM278 200q0 50 -75 50q-101 0 -101 -85
q0 -27 20 -41t52 -14q47 0 75.5 24t28.5 66z" />
    <glyph glyph-name="nine.inferior" unicode="&#x2089;" 
d="M259 74q-40 -47 -122 -47q-56 0 -83 25t-27 69q0 83 46 130q42 43 125 43q122 0 122 -115q0 -65 -22 -143.5t-62 -118.5q-55 -52 -146 -52q-54 0 -79 9q-7 4 -7 11t7 26q4 7 10 7q7 0 19 -3q27 -5 51 -5q74 0 111 37q32 35 57 127zM273 179q0 71 -80 71q-63 0 -89 -33
q-28 -33 -28 -85q0 -62 76 -62q66 0 104 43q8 8 11 22q6 20 6 44z" />
    <glyph glyph-name="parenleft.inferior" unicode="&#x208d;" horiz-adv-x="205" 
d="M226 308q-84 -47 -131.5 -138t-47.5 -204q0 -95 64 -165q3 -3 3 -8q0 -3 -6 -9q-5 -5 -10 -5t-15 6q-32 23 -57 70.5t-25 115.5q0 112 51.5 212t151.5 145q10 5 17 5q5 0 9 -6q3 -4 3 -10q0 -5 -7 -9z" />
    <glyph glyph-name="parenright.inferior" unicode="&#x208e;" horiz-adv-x="205" 
d="M-86 -196q84 48 131.5 138.5t47.5 204.5q0 95 -64 165q-3 3 -3 7t5 9t11 5q8 0 15 -6q32 -23 57 -70t25 -115q0 -112 -51 -211.5t-151 -145.5q-12 -5 -17 -5t-9 5t-4 10t7 9z" />
    <glyph glyph-name="Euro" unicode="&#x20ac;" horiz-adv-x="611" 
d="M226 254q-3 -24 -3 -47q0 -165 150 -165q81 0 138 19q22 8 28 8q7 0 12 -13t5 -21q-1 -13 -24 -21q-74 -26 -166 -26q-200 0 -204 207q0 29 3 59h-70q-15 0 -15 11q0 2 3 17q3 14 21 14h65q8 54 17 90h-67q-14 0 -14 10q0 3 3 18q4 13 20 13h69q37 117 91 175
q77 86 229 86q64 0 112 -12q16 -4 16 -17q0 -12 -8 -31q-5 -9 -14 -9q-5 0 -16 2.5t-15 3.5q-41 8 -102 8q-100 0 -159 -64q-43 -44 -72 -142h229q14 0 14 -11q0 -6 -2 -16q-2 -14 -21 -14h-232q-10 -38 -17 -90h234q14 0 14 -11q0 -7 -2 -17q-2 -14 -21 -14h-229z" />
    <glyph glyph-name="afii61289" unicode="&#x2113;" horiz-adv-x="435" 
d="M161 217q-7 -35 -7 -69q0 -109 92 -109q59 0 117 37q10 7 18 7t13 -9q9 -14 9 -21q0 -9 -10 -16q-73 -50 -166 -50q-59 0 -93 37.5t-36 105.5q0 30 3 48q-30 -19 -54 -31q-1 0 -3.5 -1.5t-5.5 -2.5t-6 -1q-9 0 -15 14q0 1 -2 6t-2 8q0 8 12 15q32 16 79 47q16 110 20 130
q30 140 66 209q35 64 75 90.5t98 26.5q49 0 76 -28t27 -74q0 -61 -27 -110t-80 -105q-24 -26 -56.5 -52.5t-56.5 -43.5zM167 276q105 74 158 128q87 93 87 173q0 30 -16.5 46t-44.5 16q-59 0 -97 -58q-40 -59 -71 -204q-8 -44 -16 -101z" />
    <glyph glyph-name="trademark" unicode="&#x2122;" horiz-adv-x="788" 
d="M227 376q-1 -13 -12 -13h-22q-9 0 -9 9q0 5 2 13l61 283h-99q-10 0 -10 9q0 1 0.5 3t1 6.5t0.5 8.5q4 11 17 11h237q12 0 12 -7q0 -9 -4 -21q-2 -10 -17 -10h-95zM448 376q-4 -13 -13 -13h-20q-9 0 -9 8q0 4 2 12l64 306q5 17 17 17h35q10 0 12 -10q42 -150 55 -203
l139 201q8 12 20 12h31q13 0 13 -13q0 -3 -3 -18l-64 -298q-3 -14 -13 -14h-19q-11 0 -11 9q0 5 3 17q50 229 60 270q-13 -21 -146 -212q-6 -8 -15 -8h-11q-9 0 -12 10q-49 177 -56 212q-7 -40 -59 -285z" />
    <glyph glyph-name="Omega" unicode="&#x2126;" horiz-adv-x="722" 
d="M292 18q-3 -18 -20 -18h-208q-15 0 -15 11q0 13 4 29t20 16h169q-140 61 -140 225q0 77 23.5 162t73.5 144q85 102 253 102q228 0 228 -216q0 -176 -77 -288q-55 -81 -163 -129h175q15 0 15 -13q0 -7 -4 -27q-3 -16 -19 -16h-220q-16 0 -16 14t7 45q4 18 18 23
q108 46 157 127q63 107 63 249q0 87 -42 131t-134 44q-130 0 -195 -84q-38 -50 -59 -126t-21 -139q0 -71 28.5 -119.5t95.5 -82.5q10 -6 10 -17q0 -13 -7 -47z" />
    <glyph glyph-name="estimated" unicode="&#x212e;" horiz-adv-x="845" 
d="M831 336h-616q-6 0 -6 -4v-195q0 -10 10 -22q95 -106 233 -106q147 0 244 118h57q-54 -64 -133 -101.5t-169 -37.5q-158 0 -269.5 105t-111.5 253t111.5 252.5t269.5 104.5t269 -104.5t111 -252.5v-10zM693 362v195q0 13 -11 24q-98 101 -230 101q-135 0 -232 -105
q-11 -9 -11 -24v-191q0 -5 6 -5h472q6 0 6 5z" />
    <glyph glyph-name="onethird" unicode="&#x2153;" horiz-adv-x="842" 
d="M223 -16q-12 -16 -25 -16h-15q-10 0 -10 10q0 6 9 20l450 691q12 22 28 22h15q12 0 12 -10q0 -7 -14 -27zM272 623l-67 -26q-7 -3 -13 -3q-5 0 -7 5q-7 16 -7 23t10 12l92 37q12 5 20 5h18q11 0 11 -9q0 -6 -2 -14l-86 -377q-3 -13 -16 -13h-19q-14 0 -14 9q0 3 2 13z
M693 217q70 -8 70 -78q0 -69 -37 -105q-42 -42 -142 -42q-58 0 -94 12q-13 4 -13 14q0 7 8 25q3 7 12 7l20 -5q36 -9 73 -9q74 0 100 29q23 26 23 72q0 28 -22 42t-73 14h-14q-11 0 -11 9q0 14 2 23q4 13 17 13h15q58 0 85 22q25 19 25 65q0 50 -76 50q-38 0 -73 -10
q-3 -1 -8.5 -2t-8.5 -2t-5 -1q-7 0 -9 7q-4 12 -4 21q0 11 18 16q50 16 103 16q63 0 88.5 -22t25.5 -64q0 -50 -22.5 -78t-72.5 -39z" />
    <glyph glyph-name="twothirds" unicode="&#x2154;" horiz-adv-x="842" 
d="M271 -16q-12 -16 -25 -16h-15q-10 0 -10 10q0 6 9 20l450 691q12 22 28 22h15q12 0 12 -10q0 -7 -14 -27zM345 264h-267q-12 0 -12 9q0 8 4 21q2 7 11 14q143 95 209 153q61 54 61 114q0 31 -18.5 47.5t-64.5 16.5q-32 0 -74 -11q-4 -1 -9 -2t-8.5 -2t-5.5 -1q-6 0 -9 7
q-5 14 -5 21q0 9 19 16q57 17 107 17q120 0 120 -97q0 -81 -69 -143q-83 -74 -187 -136q38 1 206 1q11 0 11 -9q0 -7 -5 -26q-3 -10 -14 -10zM728 217q70 -8 70 -78q0 -69 -37 -105q-42 -42 -142 -42q-58 0 -94 12q-13 4 -13 14q0 7 8 25q4 7 12 7l20 -5q36 -9 73 -9
q74 0 100 29q23 26 23 72q0 28 -22 42t-73 14h-14q-11 0 -11 9q0 14 2 23q4 13 17 13h15q58 0 85 22q25 19 25 65q0 50 -76 50q-38 0 -73 -10q-3 -1 -8.5 -2t-8.5 -2t-5 -1q-7 0 -9 7q-4 12 -4 21q0 11 18 16q50 16 103 16q63 0 88.5 -22t25.5 -64q0 -50 -22.5 -78
t-72.5 -39z" />
    <glyph glyph-name="oneeighth" unicode="&#x215b;" horiz-adv-x="842" 
d="M202 -16q-12 -16 -25 -16h-15q-10 0 -10 10q0 6 9 20l450 691q12 22 28 22h15q12 0 12 -10q0 -7 -14 -27zM250 623l-67 -26q-7 -3 -13 -3q-5 0 -7 5q-7 16 -7 23t10 12l92 37q12 5 20 5h18q11 0 11 -9q0 -6 -2 -14l-86 -377q-3 -13 -16 -13h-19q-14 0 -14 9q0 3 2 13z
M692 215q66 -11 66 -79q0 -144 -170 -144q-65 0 -98 25.5t-33 70.5q0 112 109 132q-26 6 -39.5 25.5t-13.5 44.5q0 130 157 130q117 0 117 -82q0 -101 -95 -123zM707 132q0 61 -83 61q-117 0 -117 -95q0 -63 88 -63q112 0 112 97zM738 326q0 50 -75 50q-101 0 -101 -85
q0 -27 20 -41t52 -14q47 0 75.5 24t28.5 66z" />
    <glyph glyph-name="threeeighths" unicode="&#x215c;" horiz-adv-x="842" 
d="M240 -16q-12 -16 -25 -16h-15q-10 0 -10 10q0 6 9 20l450 691q12 22 28 22h15q12 0 12 -10q0 -7 -14 -27zM284 481q70 -8 70 -78q0 -69 -37 -105q-42 -42 -142 -42q-62 0 -94 12q-13 5 -13 14q0 7 8 25q4 7 12 7l20 -5q36 -9 73 -9q74 0 100 29q23 26 23 72q0 28 -22 42
t-73 14h-14q-11 0 -11 9q0 14 2 23q4 13 17 13h15q58 0 85 22q25 19 25 65q0 50 -76 50q-41 0 -73 -10q-15 -5 -22 -5t-9 7q-4 18 -4 21q0 11 19 16q50 16 102 16q63 0 88.5 -22t25.5 -64q0 -50 -22.5 -78t-72.5 -39zM722 215q66 -10 66 -79q0 -144 -170 -144
q-65 0 -98 25.5t-33 70.5q0 112 109 132q-26 6 -39.5 25.5t-13.5 44.5q0 130 157 130q117 0 117 -82q0 -101 -95 -123zM737 132q0 61 -83 61q-117 0 -117 -95q0 -63 88 -63q112 0 112 97zM768 326q0 50 -75 50q-101 0 -101 -85q0 -27 20 -41t52 -14q47 0 75.5 24t28.5 66z
" />
    <glyph glyph-name="fiveeighths" unicode="&#x215d;" horiz-adv-x="842" 
d="M247 -16q-12 -16 -25 -16h-15q-10 0 -10 10q0 6 9 20l450 691q12 22 28 22h15q12 0 12 -10q0 -7 -14 -27zM174 512q34 11 76 11q61 0 90 -21t29 -70q0 -176 -189 -176q-65 0 -102 13q-13 5 -13 12q0 8 9 26q4 8 13 8q3 0 10.5 -2.5t11.5 -3.5q36 -8 78 -8q68 0 99 29
t31 89q0 34 -22 47t-65 13q-40 0 -84 -11q-2 0 -5 -1t-5.5 -1.5t-4.5 -0.5q-12 0 -12 11q0 4 6 24l48 159q5 17 18 17h192q11 0 11 -9q0 -7 -4 -26q-1 -10 -16 -10h-165zM727 215q66 -10 66 -79q0 -144 -170 -144q-65 0 -98 25.5t-33 70.5q0 112 109 132q-26 6 -39.5 25.5
t-13.5 44.5q0 130 157 130q117 0 117 -82q0 -101 -95 -123zM742 132q0 61 -83 61q-117 0 -117 -95q0 -63 88 -63q112 0 112 97zM773 326q0 50 -75 50q-101 0 -101 -85q0 -27 20 -41t52 -14q47 0 75.5 24t28.5 66z" />
    <glyph glyph-name="seveneighths" unicode="&#x215e;" horiz-adv-x="842" 
d="M196 -16q-12 -16 -25 -16h-15q-10 0 -10 10q0 6 9 20l450 691q12 22 28 22h15q12 0 12 -10q0 -7 -14 -27zM362 632q-40 -1 -219 -1q-14 0 -14 10q0 6 4 25q3 10 15 10h265q11 0 11 -9t-1 -17q-1 -10 -10 -23q-157 -238 -219 -349q-8 -15 -20 -15h-24q-12 0 -12 9
q0 6 6 18q82 140 218 342zM685 215q66 -11 66 -79q0 -144 -170 -144q-65 0 -98 25.5t-33 70.5q0 112 109 132q-26 6 -39.5 25.5t-13.5 44.5q0 130 157 130q117 0 117 -82q0 -101 -95 -123zM700 132q0 61 -83 61q-117 0 -117 -95q0 -63 88 -63q112 0 112 97zM731 326
q0 50 -75 50q-101 0 -101 -85q0 -27 20 -41t52 -14q47 0 75.5 24t28.5 66z" />
    <glyph glyph-name="arrowleft" unicode="&#x2190;" horiz-adv-x="768" 
d="M738 365q24 0 24 -19v-18q0 -19 -19 -19q-500 0 -588 1l269 -252q10 -8 10 -18q0 -6 -5 -13l-14 -17q-7 -7 -14 -7q-6 0 -13 7l-316 312q-6 6 -6 14q0 9 6 15l318 317q6 6 12 6t12 -6l13 -15q8 -8 8 -14q0 -7 -7 -14l-273 -262q85 2 583 2z" />
    <glyph glyph-name="arrowup" unicode="&#x2191;" horiz-adv-x="768" 
d="M389 22q0 490 2 574q-35 -39 -266 -261q-6 -6 -12 -6q-8 0 -13 5l-11 12q-7 9 -7 14q0 6 7 13l316 314q8 8 15 8t13 -6l313 -314q7 -7 7 -13q0 -8 -7 -15l-12 -13q-6 -6 -13 -6t-19 10l-254 258q1 -88 1 -577q0 -19 -18 -19h-24q-18 0 -18 22z" />
    <glyph glyph-name="arrowright" unicode="&#x2192;" horiz-adv-x="768" 
d="M86 365q498 0 583 -2l-273 262q-5 6 -5 14q0 6 5 13l14 16q6 6 13 6q6 0 12 -6l317 -317q7 -6 7 -15q0 -8 -7 -14l-315 -312q-6 -5 -14 -5q-7 0 -12 6l-15 16q-4 6 -4 12q0 10 9 19l268 252q-89 -1 -588 -1q-18 0 -18 19v19q0 18 23 18z" />
    <glyph glyph-name="arrowdown" unicode="&#x2193;" horiz-adv-x="768" 
d="M377 651q0 24 17 24h25q18 0 18 -19q0 -491 -1 -579q34 38 255 260q10 10 18 10t12 -4l13 -15q7 -7 7 -14t-7 -14l-312 -314q-7 -7 -15 -7q-7 0 -14 7l-317 316q-7 6 -7 13q0 6 9 15l13 12q5 5 12 5t12 -5q201 -195 264 -265q-2 88 -2 574z" />
    <glyph glyph-name="uni2196" unicode="&#x2196;" horiz-adv-x="768" 
d="M676 121q10 -10 10 -17q0 -11 -12 -23q-16 -15 -22 -15t-13 7l-411 409q6 -186 6 -362q0 -14 -5 -19t-13 -5h-22q-11 0 -14 5q-5 5 -5 17v439q0 8 6 16q5 5 17 5h446q9 0 13 -4q5 -5 5 -14v-20q0 -12 -5 -16q-3 -4 -15 -4q-274 0 -378 4z" />
    <glyph glyph-name="uni2197" unicode="&#x2197;" horiz-adv-x="768" 
d="M186 76q-9 -9 -16 -9q-10 0 -19 9q-17 21 -17 27q0 8 7 15l415 403q-155 -5 -369 -5q-11 0 -17 5q-6 4 -6 14v24q0 9 5 14q4 5 15 5h442q7 0 15 -5q5 -4 5 -18v-443q0 -11 -4 -16q-7 -5 -14 -5h-20q-6 0 -12 4t-6 17q0 259 4 367q-51 -54 -408 -403z" />
    <glyph glyph-name="uni2198" unicode="&#x2198;" horiz-adv-x="768" 
d="M151 549q-10 10 -10 19q0 7 11 18q16 17 24 17q6 0 13 -7q334 -327 411 -409q0 6 -1 45.5t-2.5 122t-1.5 194.5q0 14 5 19q6 6 13 6h22q6 0 13 -5q5 -7 5 -17v-439q0 -10 -6 -16q-5 -6 -17 -6h-446q-9 0 -14 4q-4 5 -4 15v19q0 12 4 16t15 4q271 0 379 -4z" />
    <glyph glyph-name="uni2199" unicode="&#x2199;" horiz-adv-x="768" 
d="M635 594q11 9 16 9q9 0 20 -11q16 -17 16 -25q0 -10 -6 -16l-416 -404q120 4 370 4q12 0 17 -5q6 -6 6 -14v-22q0 -9 -5 -14q-4 -5 -16 -5h-441q-9 0 -15 6q-6 8 -6 17v445q0 8 5 15q7 5 17 5h18q9 0 14 -5q5 -12 5 -17q-1 -258 -5 -366q47 50 406 403z" />
    <glyph glyph-name="partialdiff" unicode="&#x2202;" horiz-adv-x="545" 
d="M457 376q14 102 14 131q0 66 -28 97.5t-91 31.5q-70 0 -111 -13q-12 -4 -15 -4q-10 0 -14 11q-4 12 -4 23q0 12 13 16q56 19 136 19q172 0 172 -172q0 -102 -31.5 -243t-85.5 -207q-64 -79 -184 -79q-77 0 -121.5 38t-44.5 114q0 68 24 131.5t73 103.5q59 51 158 51
q95 0 140 -49zM447 314q-31 60 -139 60q-74 0 -118 -37q-36 -31 -54.5 -82.5t-18.5 -105.5q0 -58 33 -84.5t87 -26.5q57 0 94.5 24t66.5 86t49 166z" />
    <glyph glyph-name="Delta" unicode="&#x2206;" horiz-adv-x="641" 
d="M600 36q3 -14 3 -20q0 -16 -20 -16h-584q-14 0 -14 12q0 6 8 20l399 629q11 16 26 16h36q15 0 18 -16zM424 615q-48 -83 -350 -559h460q-100 498 -110 559z" />
    <glyph glyph-name="product" unicode="&#x220f;" horiz-adv-x="705" 
d="M104 -113q-3 -20 -22 -20h-22q-16 0 -16 14q0 2 3 17l161 757q5 21 22 21h443q17 0 17 -13q0 -8 -2 -16l-163 -760q-2 -12 -6 -16t-13 -4h-26q-16 0 -16 13q0 5 2 13l155 727h-361z" />
    <glyph glyph-name="summation" unicode="&#x2211;" horiz-adv-x="589" 
d="M505 -130h-480q-20 0 -20 14q0 12 3 21q4 15 13 24l328 361l-177 329q-5 8 -5 18q0 7 4 22q5 17 22 17h415q18 0 18 -12q0 -10 -4 -29q-3 -15 -24 -15h-362l172 -312q6 -10 6 -22q0 -10 -16 -28l-306 -332h423q17 0 17 -14q0 -11 -4 -28q-4 -14 -23 -14z" />
    <glyph glyph-name="minus" unicode="&#x2212;" horiz-adv-x="701" 
d="M617 269h-488q-14 0 -14 14q0 2 0.5 5t1 8t0.5 10q5 15 18 15h489q14 0 14 -14q0 -7 -3 -23q-2 -15 -18 -15z" />
    <glyph glyph-name="uni2215" unicode="&#x2215;" horiz-adv-x="84" 
d="M-134 -16q-12 -16 -25 -16h-15q-10 0 -10 10q0 6 9 20l450 691q12 22 28 22h15q12 0 12 -10q0 -7 -14 -27z" />
    <glyph glyph-name="uni2219" unicode="&#x2219;" horiz-adv-x="207" 
d="M154 281q0 -33 -18 -48q-13 -11 -32 -11q-39 0 -39 34q0 29 18 46q12 12 33 12q38 0 38 -33z" />
    <glyph glyph-name="radical" unicode="&#x221a;" horiz-adv-x="639" 
d="M295 -168q-5 -13 -19 -13h-22q-13 0 -17 13l-99 277l-55 -21q-4 -2 -10 -2q-9 0 -14 15q-4 12 -4 15q0 10 12 15l86 33q9 3 15 3q9 0 14 -14l90 -255l345 784q7 13 19 13h22q15 0 15 -11q0 -5 -4 -14z" />
    <glyph glyph-name="infinity" unicode="&#x221e;" horiz-adv-x="730" 
d="M392 328q52 55 95.5 80.5t92.5 25.5q56 0 88 -34.5t32 -90.5q0 -72 -42.5 -118.5t-110.5 -46.5q-48 0 -81 23.5t-76 83.5q-56 -58 -97 -82t-88 -24q-56 0 -90 34t-34 91q0 70 43 117.5t110 47.5q47 0 81.5 -24t76.5 -83zM361 290q-36 51 -65 73.5t-67 22.5
q-44 0 -72.5 -30.5t-28.5 -75.5q0 -39 22.5 -62.5t59.5 -23.5q39 0 74 24t77 72zM420 289q40 -54 67.5 -75t66.5 -21q43 0 70 31.5t27 77.5q0 37 -21 59t-58 22q-68 0 -152 -94z" />
    <glyph glyph-name="integral" unicode="&#x222b;" horiz-adv-x="320" 
d="M94 -42q5 21 17 90l89 463q15 72 16 76q27 122 136 122q25 0 43 -5q11 -3 11 -13q0 -13 -7 -27q-5 -12 -17 -12q-1 0 -15 2.5t-26 2.5q-55 0 -74 -77q-6 -24 -14 -70l-89 -462q-1 -7 -7 -40.5t-10 -50.5q-14 -63 -47 -90.5t-92 -27.5q-21 0 -38 5q-10 2 -10 12q0 15 7 27
q6 14 18 14q1 0 13 -3t24 -3q28 0 45.5 14t26.5 53z" />
    <glyph glyph-name="approxequal" unicode="&#x2248;" horiz-adv-x="705" 
d="M141 153q-9 -9 -14 -9q-10 0 -21 11q-7 7 -7 14t5 14q41 47 76 66t73 19q42 0 118 -46q58 -35 97 -35q55 0 106 66q8 10 15 10t14 -5q15 -11 15 -20q0 -5 -5 -12q-35 -48 -68 -69.5t-78 -21.5q-52 0 -116 40q-68 41 -102 41q-51 0 -108 -63zM189 340q-8 -8 -14 -8
q-8 0 -20 11q-8 8 -8 15q0 2 5 12q75 86 149 86q39 0 118 -47q61 -36 97 -36q28 0 52.5 15t54.5 52q8 10 15 10q6 0 13 -6q15 -9 15 -18q0 -8 -5 -14q-35 -46 -68.5 -68t-77.5 -22q-50 0 -116 40q-71 42 -102 42q-50 0 -108 -64z" />
    <glyph glyph-name="notequal" unicode="&#x2260;" horiz-adv-x="701" 
d="M203 17q-7 -12 -19 -12h-14q-12 0 -12 10q0 8 4 13l106 144h-163q-14 0 -14 13q0 7 4 23q3 14 17 14h189l101 140h-255q-14 0 -14 15q0 8 5 21q3 15 16 15h281l107 145q8 11 20 11h14q14 0 14 -10q0 -4 -4 -10l-102 -136h159q15 0 15 -14q0 -7 -5 -22q-1 -15 -17 -15
h-184l-101 -140h250q14 0 14 -14q0 -6 -4 -21q-5 -15 -17 -15h-278z" />
    <glyph glyph-name="lessequal" unicode="&#x2264;" horiz-adv-x="701" 
d="M569 165q-3 -12 -12 -12q-5 0 -15 5l-368 189q-11 6 -11 19q0 12 4 29q3 14 13 19l464 196l12 4q10 0 10 -11t-5 -32q-3 -13 -14 -18l-426 -174l340 -169q13 -6 13 -17q0 -10 -5 -28zM524 0h-425q-15 0 -15 14l4 22q2 15 17 15h426q14 0 14 -14q0 -5 -3 -22
q-3 -15 -18 -15z" />
    <glyph glyph-name="greaterequal" unicode="&#x2265;" horiz-adv-x="701" 
d="M220 602q3 13 13 13q3 0 11 -4l374 -192q10 -4 10 -16q0 -10 -5 -30q-3 -15 -14 -18l-463 -198q-9 -3 -12 -3q-10 0 -10 10q0 13 5 32q3 14 14 19l426 174l-342 169q-11 6 -11 17q0 8 4 27zM537 0h-425q-15 0 -15 14l4 22q1 15 17 15h426q14 0 14 -14q0 -12 -3 -22
q-5 -15 -18 -15z" />
    <glyph glyph-name="lozenge" unicode="&#x25ca;" horiz-adv-x="705" 
d="M429 673q8 10 21 10h31q16 0 20 -17l76 -303q3 -15 3 -16q0 -7 -7 -17l-227 -319q-7 -11 -18 -11h-35q-13 0 -18 15l-81 310q0 2 -1 5t-1.5 5.5t-0.5 3.5q0 7 5 14zM247 338l72 -280l206 293l-67 277z" />
    <glyph glyph-name="commaaccent" unicode="&#xf6c3;" horiz-adv-x="185" 
d="M143 -71q17 0 17 -17q0 -14 -11 -47q-27 -78 -78 -122q-12 -10 -21 -10q-7 0 -19 8q-7 7 -7 13q0 8 10 16q51 54 62 134q4 25 23 25h24z" />
    <glyph glyph-name="Dotlessi" horiz-adv-x="268" 
d="M121 16q-5 -19 -21 -19h-25q-14 0 -14 13q0 6 2 16l142 663q4 20 22 20h24q15 0 15 -12q0 -5 -3 -20z" />
    <glyph glyph-name="Euro.denominator" horiz-adv-x="406" 
d="M157 149q-1 -11 -1 -30q4 -82 91 -82q47 0 83 10q20 4 21 4q8 0 11 -8q3 -12 3 -21q0 -10 -16 -15q-45 -15 -114 -15q-127 0 -130 124q0 11 2 33h-45q-10 0 -10 7t2 15q2 10 15 10h41q4 26 10 51h-43q-9 0 -9 7q0 6 2 14q3 12 14 12h44q21 62 58 100q52 54 149 54
q35 0 75 -8q12 -3 12 -12t-8 -27q-3 -6 -10 -6q-3 0 -10 1.5t-10 1.5q-27 4 -63 4q-64 0 -99 -35q-27 -27 -43 -73h141q11 0 11 -8q0 -1 -0.5 -3t-1 -5t-0.5 -6q-2 -11 -14 -11h-145q-7 -29 -10 -51h145q10 0 10 -7q0 -6 -2 -14q-2 -11 -14 -11h-142z" />
    <glyph glyph-name="Euro.inferior" horiz-adv-x="406" 
d="M124 23q-1 -11 -1 -30q4 -82 91 -82q47 0 83 10q20 4 21 4q8 0 11 -8q3 -12 3 -21q0 -10 -16 -15q-45 -15 -114 -15q-127 0 -130 124q0 11 2 33h-45q-10 0 -10 7t2 15q2 10 15 10h41q4 26 10 51h-43q-9 0 -9 7q0 6 2 14q3 12 14 12h44q21 62 58 100q53 54 149 54
q35 0 75 -8q12 -3 12 -12t-8 -27q-3 -6 -10 -6q-3 0 -10 1.5t-10 1.5q-27 4 -63 4q-64 0 -99 -35q-27 -27 -43 -73h141q11 0 11 -8q0 -1 -0.5 -3t-1 -5t-0.5 -6q-2 -11 -14 -11h-145q-7 -29 -10 -51h145q10 0 10 -7q0 -6 -2 -14q-2 -11 -14 -11h-142z" />
    <glyph glyph-name="Euro.numerator" horiz-adv-x="406" 
d="M197 414q-1 -11 -1 -30q4 -82 91 -82q47 0 83 10q20 4 21 4q8 0 11 -8q3 -12 3 -21q0 -10 -16 -15q-45 -15 -114 -15q-127 0 -130 124q0 11 2 33h-45q-10 0 -10 7t2 15q2 10 15 10h41q4 26 10 51h-43q-9 0 -9 7q0 6 2 14q3 12 14 12h44q21 62 58 100q52 54 149 54
q35 0 75 -8q12 -3 12 -12t-8 -27q-3 -6 -10 -6q-3 0 -10 1.5t-10 1.5q-27 4 -63 4q-64 0 -99 -35q-27 -27 -43 -73h141q11 0 11 -8l-2 -14q-2 -11 -14 -11h-145q-7 -29 -10 -51h145q10 0 10 -7q0 -6 -2 -14q-2 -11 -14 -11h-142z" />
    <glyph glyph-name="Euro.oldstyle" horiz-adv-x="589" 
d="M224 218q-1 -16 -1 -44q0 -135 132 -135q65 0 116 15q5 1 11 4l11 4q4 1 7 1q8 0 12 -11q4 -10 4 -21q0 -13 -20 -20q-66 -24 -152 -24q-181 0 -181 188q0 28 1 43h-62q-16 0 -16 11q0 7 3 16q4 14 20 14h60q8 55 16 84h-58q-15 0 -15 11q0 4 2 16q4 14 21 14h61
q27 86 73 142q70 83 213 83q50 0 98 -12q14 -3 14 -15q0 -10 -9 -30q-3 -8 -12 -8q-7 0 -31 6q-33 7 -83 7q-93 0 -147 -62q-32 -38 -55 -111h222q16 0 16 -11q0 -7 -3 -16q-3 -14 -19 -14h-229q-11 -50 -16 -84h226q15 0 15 -11q0 -4 -2 -16q-3 -14 -20 -14h-223z" />
    <glyph glyph-name="Euro.superior" horiz-adv-x="406" 
d="M237 569q-1 -11 -1 -30q4 -82 91 -82q47 0 83 10q20 4 21 4q8 0 11 -8q3 -12 3 -21q0 -10 -16 -15q-45 -15 -114 -15q-127 0 -130 124q0 11 2 33h-45q-10 0 -10 7t2 15q2 10 15 10h41q4 26 10 51h-43q-9 0 -9 7q0 6 2 14q3 12 14 12h44q21 62 58 100q52 54 149 54
q35 0 75 -8q12 -3 12 -12t-8 -27q-3 -6 -10 -6q-3 0 -10 1.5t-10 1.5q-27 4 -63 4q-64 0 -99 -35q-27 -27 -43 -73h141q11 0 11 -8q0 -1 -0.5 -3t-1 -5t-0.5 -6q-2 -11 -14 -11h-145q-7 -29 -10 -51h145q10 0 10 -7q0 -6 -2 -14q-2 -11 -14 -11h-142z" />
    <glyph glyph-name="Kgreenlandic" horiz-adv-x="706" 
d="M656 483h-22q-17 0 -17 16q0 15 4 28q11 51 44 103t73 79q11 9 19 9q9 0 15 -7q6 -6 6 -13q0 -8 -9 -15q-79 -71 -90 -175q-4 -25 -23 -25zM121 16q-5 -19 -21 -19h-25q-15 0 -15 13q0 3 3 18l142 661q4 20 22 20h24q15 0 15 -12q0 -5 -3 -18l-62 -285h62q35 0 48 17
l239 283q14 15 29 15h27q14 0 14 -11q0 -6 -13 -22l-97 -113l-71 -83l-46 -54l-36 -40l-24 -25q46 -77 170 -327q6 -14 6 -22q0 -15 -18 -15h-23q-17 0 -24 16l-156 310q-9 17 -35 17h-63z" />
    <glyph glyph-name="S_S" horiz-adv-x="1116" 
d="M368 363q133 -49 133 -164q0 -212 -262 -212q-108 0 -189 35q-16 7 -16 18q0 10 10 30q6 13 19 13q7 0 25 -8q67 -32 158 -32q92 0 141.5 31.5t49.5 112.5q0 38 -23.5 69.5t-93.5 60.5l-83 34q-113 47 -113 161q0 207 257 207q88 0 153 -22q15 -5 15 -17q0 -10 -8 -31
q-3 -10 -16 -10q-6 0 -24 4q-73 20 -135 20q-89 0 -134 -31.5t-45 -112.5q0 -42 24 -72.5t85 -54.5zM924 363q133 -49 133 -164q0 -212 -262 -212q-108 0 -189 35q-16 7 -16 18q0 10 10 30q6 13 19 13q7 0 25 -8q67 -32 158 -32q92 0 141.5 31.5t49.5 112.5q0 38 -23.5 69.5
t-93.5 60.5l-83 34q-113 47 -113 161q0 207 257 207q88 0 153 -22q15 -5 15 -17q0 -10 -8 -31q-3 -10 -16 -10q-6 0 -24 4q-73 20 -135 20q-89 0 -134 -31.5t-45 -112.5q0 -42 24 -72.5t85 -54.5z" />
    <glyph glyph-name="a.sc" horiz-adv-x="462" 
d="M128 163l-86 -145q-12 -21 -23 -21h-29q-13 0 -13 12q0 4 8 20l283 474q8 15 21 15h26q16 0 19 -16l83 -473q2 -14 2 -18q0 -14 -17 -14h-23q-14 0 -18 21l-27 145h-206zM157 214h171q-13 74 -38 231z" />
    <glyph glyph-name="a.superior" horiz-adv-x="372" 
d="M311 278q-1 -9 -4 -12t-10 -3h-23q-10 0 -10 9q0 1 1 7.5t1 8.5q-36 -31 -100 -31q-97 0 -97 93q0 47 19 103t54 84q38 33 114 33q47 0 71 -16q3 14 14 14h21q11 0 11 -10q0 -5 -2 -13zM277 342l38 172q-17 12 -61 12q-55 0 -82 -23q-23 -21 -36.5 -61t-13.5 -80
q0 -32 15 -47t49 -15q36 0 73 19q8 4 12 10q4 4 6 13z" />
    <glyph glyph-name="aacute.sc" horiz-adv-x="462" 
d="M128 163l-86 -145q-12 -21 -23 -21h-29q-13 0 -13 12q0 4 8 20l283 474q8 15 21 15h26q16 0 19 -16l83 -473q2 -14 2 -18q0 -14 -17 -14h-23q-14 0 -18 21l-27 145h-206zM157 214h171q-13 74 -38 231zM308 601q-11 -11 -24 -11h-25q-12 0 -12 11q0 6 6 12l124 134
q11 12 23 12h45q12 0 12 -10q0 -9 -9 -16z" />
    <glyph glyph-name="abreve.sc" horiz-adv-x="462" 
d="M128 163l-86 -145q-12 -21 -23 -21h-29q-13 0 -13 12q0 4 8 20l283 474q8 15 21 15h26q16 0 19 -16l83 -473q2 -14 2 -18q0 -14 -17 -14h-23q-14 0 -18 21l-27 145h-206zM157 214h171q-13 74 -38 231zM447 728q10 0 10 -12q0 -16 -8 -37q-38 -97 -144 -97
q-60 0 -89.5 27.5t-29.5 72.5q0 22 3 34t16 12h13q12 0 12 -11v-21q2 -32 20 -47t59 -15q47 0 70 21t34 62q3 11 15 11h19z" />
    <glyph glyph-name="acircumflex.sc" horiz-adv-x="462" 
d="M128 163l-86 -145q-12 -21 -23 -21h-29q-13 0 -13 12q0 4 8 20l283 474q8 15 21 15h26q16 0 19 -16l83 -473q2 -14 2 -18q0 -14 -17 -14h-23q-14 0 -18 21l-27 145h-206zM157 214h171q-13 74 -38 231zM209 581h-24q-11 0 -11 11q0 7 8 15l124 138q12 14 28 14h26
q14 0 19 -12l70 -142q3 -9 3 -13q0 -11 -14 -11h-18q-13 0 -21 13l-61 109l-105 -108q-14 -14 -24 -14z" />
    <glyph glyph-name="acute.cap" horiz-adv-x="197" 
d="M44 772q-14 -10 -29 -10h-29q-12 0 -12 11q0 9 9 16l151 110q14 11 27 11h48q14 0 14 -11q0 -9 -11 -18z" />
    <glyph glyph-name="acute.sc" horiz-adv-x="197" 
d="M55 601q-11 -11 -24 -11h-25q-12 0 -12 11q0 6 6 12l124 134q10 12 23 12h45q12 0 12 -10q0 -9 -9 -16z" />
    <glyph glyph-name="adieresis.sc" horiz-adv-x="462" 
d="M128 163l-86 -145q-12 -21 -23 -21h-29q-13 0 -13 12q0 4 8 20l283 474q8 15 21 15h26q16 0 19 -16l83 -473q2 -14 2 -18q0 -14 -17 -14h-23q-14 0 -18 21l-27 145h-206zM157 214h171q-13 74 -38 231zM274 685q0 -29 -16 -44q-12 -10 -30 -10q-35 0 -35 30t14 43
q14 11 32 11q35 0 35 -30zM448 685q0 -31 -15 -44q-11 -10 -30 -10q-36 0 -36 30q0 29 15 43q13 11 32 11q34 0 34 -30z" />
    <glyph glyph-name="ae.sc" horiz-adv-x="728" 
d="M185 168l-137 -152q-18 -19 -29 -19h-33q-11 0 -11 12q0 6 12 20l426 473q11 14 33 14h285q15 0 15 -12q0 -10 -5 -29q-3 -11 -18 -11h-221l-37 -170h205q16 0 16 -10q0 -5 -6 -29q-3 -13 -18 -13h-206l-41 -190h247q14 0 14 -10q0 -12 -6 -31q-4 -11 -18 -11h-289
q-13 0 -13 10q0 2 2 12l30 146h-197zM226 218h167l52 247q-50 -61 -219 -247z" />
    <glyph glyph-name="aeacute.sc" horiz-adv-x="728" 
d="M185 168l-137 -152q-18 -19 -29 -19h-33q-11 0 -11 12q0 6 12 20l426 473q11 14 33 14h285q15 0 15 -12q0 -10 -5 -29q-3 -11 -18 -11h-221l-37 -170h205q16 0 16 -10q0 -5 -6 -29q-3 -13 -18 -13h-206l-41 -190h247q14 0 14 -10q0 -12 -6 -31q-4 -11 -18 -11h-289
q-13 0 -13 10q0 2 2 12l30 146h-197zM226 218h167l52 247q-50 -61 -219 -247zM584 601q-11 -11 -24 -11h-25q-12 0 -12 11q0 6 6 12l124 134q11 12 23 12h45q12 0 12 -10q0 -9 -9 -16z" />
    <glyph glyph-name="agrave.sc" horiz-adv-x="462" 
d="M128 163l-86 -145q-12 -21 -23 -21h-29q-13 0 -13 12q0 4 8 20l283 474q8 15 21 15h26q16 0 19 -16l83 -473q2 -14 2 -18q0 -14 -17 -14h-23q-14 0 -18 21l-27 145h-206zM157 214h171q-13 74 -38 231zM306 601l-112 131q-7 9 -7 16q0 11 13 11h41q12 0 21 -12l99 -134
q5 -8 5 -13q0 -10 -11 -10h-26q-13 0 -23 11z" />
    <glyph glyph-name="amacron.sc" horiz-adv-x="462" 
d="M128 163l-86 -145q-12 -21 -23 -21h-29q-13 0 -13 12q0 4 8 20l283 474q8 15 21 15h26q16 0 19 -16l83 -473q2 -14 2 -18q0 -14 -17 -14h-23q-14 0 -18 21l-27 145h-206zM157 214h171q-13 74 -38 231zM417 625h-229q-13 0 -13 12q0 14 5 28q4 15 19 15h226q15 0 15 -11
q0 -14 -5 -31q-4 -13 -18 -13z" />
    <glyph glyph-name="ampersand.alt" horiz-adv-x="665" 
d="M506 72q-41 -43 -95 -64t-145 -21q-106 0 -160 49.5t-54 130.5q0 91 49.5 139.5t148.5 87.5q-54 79 -54 156q0 75 53 119t139 44q73 0 111.5 -32t38.5 -90q0 -74 -56 -124t-147 -87q95 -130 177 -220q45 67 63 194q2 20 20 20h22q15 0 15 -17q0 -15 -4 -32
q-21 -130 -82 -208q50 -54 69 -73q17 -19 17 -27t-6.5 -12.5t-13.5 -4.5h-21q-18 0 -33 15q-32 31 -52 57zM307 419q38 17 58.5 27.5t52 32t47 48t15.5 57.5q0 35 -25.5 56t-74.5 21q-54 0 -90 -27t-36 -80q0 -38 12.5 -66.5t40.5 -68.5zM472 114q-107 120 -192 239
q-38 -17 -57.5 -26.5t-44 -26t-36 -32.5t-20 -40.5t-8.5 -55.5q0 -59 40.5 -94.5t123.5 -35.5q137 0 194 72z" />
    <glyph glyph-name="ampersand.sc" horiz-adv-x="596" 
d="M179 278q-65 17 -65 86q0 65 36 107q48 58 174 58q61 0 97 -12q16 -5 16 -17q0 -15 -10 -29q-5 -9 -14 -9q-3 0 -26 7q-40 8 -75 8q-91 0 -119 -35q-24 -29 -24 -72q0 -33 22.5 -53.5t67.5 -21.5q15 0 15 -11q0 -6 -3 -23q-3 -13 -21 -13q-72 0 -111.5 -25t-39.5 -91
q0 -94 137 -94q83 0 130.5 29t47.5 104q0 25 -5 37q-24 -3 -91 -3q-17 0 -17 11q0 12 4 27q3 14 20 14q144 0 228 28q17 6 26 6q8 0 12 -11q4 -10 4 -22q0 -11 -22 -19q-45 -16 -110 -25q6 -15 6 -42q0 -95 -66 -140t-171 -45q-93 0 -143.5 35.5t-50.5 99.5q0 137 141 156z
" />
    <glyph glyph-name="ampersand.scalt" horiz-adv-x="571" 
d="M414 50q-68 -63 -189 -63q-89 0 -133.5 37.5t-44.5 98.5q0 66 34 102t115 67q-43 53 -43 113q0 61 39.5 92.5t113.5 31.5q61 0 91 -25.5t30 -67.5q0 -60 -39 -96t-112 -61q102 -118 139 -156q31 41 47 139q2 15 17 15h21q13 0 13 -14q0 -15 -3 -27q-21 -97 -61 -147
q33 -33 62 -58q12 -11 12 -21q0 -14 -15 -14h-22q-17 0 -27 9l-15 15l-17 16q-7 7 -13 14zM246 311q72 29 99.5 54t27.5 64q0 24 -18.5 39t-55.5 15q-91 0 -91 -74q0 -49 38 -98zM380 84q-94 98 -155 171q-33 -13 -50.5 -21.5t-36.5 -23t-27 -33.5t-8 -46q0 -41 33 -68
t101 -27q98 0 143 48z" />
    <glyph glyph-name="aogonek.sc" horiz-adv-x="462" 
d="M422 6l-6 -4q-2 -2 -8 -4q-100 -63 -100 -128q0 -44 51 -44q12 0 27 2.5t17 2.5q9 0 12 -10q3 -13 3 -20q-1 -10 -12 -13q-24 -8 -63 -8q-91 0 -91 80q0 81 112 144l-3 14l-27 145h-206l-86 -145q-12 -21 -23 -21h-29q-13 0 -13 12q0 4 8 20l283 474q8 15 21 15h26
q16 0 19 -16l83 -473q2 -14 2 -18q0 -1 -1 -3v-2h4zM157 214h171q-13 74 -38 231z" />
    <glyph glyph-name="aring.sc" horiz-adv-x="462" 
d="M128 163l-86 -145q-12 -21 -23 -21h-29q-13 0 -13 12q0 4 8 20l283 474q8 15 21 15h26q16 0 19 -16l83 -473q2 -14 2 -18q0 -14 -17 -14h-23q-14 0 -18 21l-27 145h-206zM157 214h171q-13 74 -38 231zM416 692q0 -48 -28 -76.5t-76 -28.5q-40 0 -62.5 23t-22.5 63
q0 46 28.5 74.5t74.5 28.5q40 0 63 -22t23 -62zM380 691q0 54 -54 54q-28 0 -47 -18.5t-19 -50.5q0 -28 15 -43t41 -15q29 0 46.5 18t17.5 55z" />
    <glyph glyph-name="aringacute.sc" horiz-adv-x="462" 
d="M128 163l-87 -146q-12 -20 -22 -20h-29q-13 0 -13 12q0 4 8 20l283 474q9 15 21 15h26q16 0 19 -16l83 -473q2 -14 2 -18q0 -14 -17 -14h-23q-14 0 -18 21l-27 145h-206zM157 214h171q-13 74 -38 231zM418 682q0 -48 -28 -76.5t-76 -28.5q-40 0 -62.5 23t-22.5 63
q0 46 28.5 74.5t74.5 28.5q40 0 63 -22t23 -62zM383 681q0 54 -55 54q-28 0 -47 -18.5t-19 -50.5q0 -28 15 -43.5t41 -15.5q29 0 47 18.5t18 55.5zM344 810q-10 -10 -25 -10h-17q-12 0 -12 11q0 5 6 13l127 132q12 12 24 12h33q12 0 12 -10q0 -11 -7 -16z" />
    <glyph glyph-name="atilde.sc" horiz-adv-x="462" 
d="M128 163l-86 -145q-12 -21 -23 -21h-29q-13 0 -13 12q0 4 8 20l283 474q8 15 21 15h26q16 0 19 -16l83 -473q2 -14 2 -18q0 -14 -17 -14h-23q-14 0 -18 21l-27 145h-206zM157 214h171q-13 74 -38 231zM190 614h-16q-13 0 -13 11q0 5 7 23q21 39 41.5 57t49.5 18
q18 0 68 -30q38 -23 57 -23q13 0 23 7.5t23 32.5q8 18 20 18h17q14 0 14 -10q0 -8 -6 -22q-38 -83 -91 -83q-29 0 -73 27q-42 25 -57 25q-24 0 -43 -37q-6 -14 -21 -14z" />
    <glyph glyph-name="b.sc" horiz-adv-x="489" 
d="M187 0h-116q-14 0 -14 11q0 3 3 18l100 469q2 18 18 18h105q51 0 80 -3q99 -13 99 -101q0 -120 -100 -141q74 -15 74 -95q0 -127 -100 -161q-45 -15 -149 -15zM121 50h79q76 0 113 13q62 24 62 109q0 47 -34 62q-22 10 -82 10h-96zM174 293h93q59 0 81 9q56 21 56 100
q0 45 -44 58q-24 7 -86 7h-63z" />
    <glyph glyph-name="b.superior" horiz-adv-x="364" 
d="M112 279l-2 -8q-2 -8 -16 -8h-18q-10 0 -10 9q0 1 3 13l93 422q3 13 14 13h24q11 0 11 -9q0 -7 -2 -15l-34 -151q37 27 101 27q94 0 94 -90q0 -42 -14 -93.5t-39 -81.5q-39 -46 -130 -46q-57 0 -75 18zM126 318q18 -14 63 -14q68 0 93 32q18 21 28 61t10 71q0 58 -69 58
q-40 0 -71 -16q-9 -5 -12 -10q-3 -3 -5 -13z" />
    <glyph glyph-name="braceleft.cap" horiz-adv-x="304" 
d="M117 333q29 -9 45 -27t16 -56q0 -22 -8 -60l-26 -126q-8 -35 -8 -55q0 -22 13 -35q17 -18 73 -20q11 0 11 -11t-3 -19q-4 -10 -17 -10q-75 0 -105 22q-29 22 -29 63q0 28 9 67l26 122q7 32 7 57q0 60 -63 72q-11 1 -11 11q0 7 2 16q3 13 15 14q49 8 74 34.5t37 84.5
l24 115q17 82 46 115q38 44 143 44q13 0 13 -12q0 -7 -3 -18q-3 -12 -15 -12q-72 0 -98 -33q-16 -23 -28 -78l-25 -119q-15 -71 -41.5 -99.5t-73.5 -46.5z" />
    <glyph glyph-name="braceright.cap" horiz-adv-x="325" 
d="M247 331q-30 9 -46 27.5t-16 56.5q0 22 8 59l27 127q7 29 7 54q0 23 -12 35q-17 18 -73 20q-11 0 -11 11t3 20q3 10 16 10q76 -2 105 -23q29 -19 29 -63q0 -28 -9 -67l-26 -122q-7 -32 -7 -57q0 -32 15.5 -49t48.5 -23q11 -2 11 -10t-3 -16q-3 -14 -14 -15
q-49 -8 -73.5 -34.5t-37.5 -85.5l-25 -114q-18 -84 -45 -114q-39 -44 -144 -44q-13 0 -13 11q0 9 3 19q3 11 16 11q74 2 97 34q16 21 28 77l26 120q16 72 42 100t73 45z" />
    <glyph glyph-name="bracketleft.cap" horiz-adv-x="275" 
d="M179 -80h-146q-10 0 -10 11q0 5 2 13l167 786q4 14 15 14h148q10 0 10 -9l-4 -20q-1 -10 -15 -10h-106l-157 -744h106q9 0 9 -9t-3 -21q-2 -11 -16 -11z" />
    <glyph glyph-name="bracketright.cap" horiz-adv-x="275" 
d="M143 744h146q9 0 9 -10q0 -6 -2 -14l-167 -786q-4 -14 -15 -14h-148q-10 0 -10 9q0 8 4 21q2 10 15 10h106l158 744h-106q-10 0 -10 9t4 21q3 10 16 10z" />
    <glyph glyph-name="breve.cap" horiz-adv-x="197" 
d="M229 902q12 0 12 -12q0 -10 -8 -34q-34 -94 -149 -94q-128 0 -128 103q0 15 3 25q3 12 15 12h18q12 0 13 -12v-15q0 -62 80 -62q49 0 74 18.5t35 56.5q5 14 17 14h18z" />
    <glyph glyph-name="breve.sc" horiz-adv-x="197" 
d="M226 728q10 0 10 -12q0 -16 -8 -37q-38 -97 -144 -97q-60 0 -89.5 27.5t-29.5 72.5q0 22 3 34t16 12h13q12 0 12 -11v-21q2 -32 20 -47t59 -15q47 0 70 21t34 62q3 11 15 11h19z" />
    <glyph glyph-name="bullet.cap" horiz-adv-x="335" 
d="M309 352q0 -88 -46 -127q-33 -27 -87 -27q-44 0 -72.5 22t-28.5 68q0 77 44 118q33 30 88 30q102 0 102 -84z" />
    <glyph glyph-name="c.sc" horiz-adv-x="464" 
d="M113 166q0 -126 128 -126q75 0 131 15l22 6q6 0 11 -12t5 -25q0 -11 -20 -18q-57 -19 -157 -19q-85 0 -132 43t-47 129q0 75 23.5 161.5t68.5 136.5q61 69 195 69q69 0 115 -11q16 -4 16 -15q0 -16 -7 -32q-3 -7 -13 -7q-2 0 -30 5q-46 8 -101 8q-86 0 -130 -49
q-38 -40 -58 -115.5t-20 -143.5z" />
    <glyph glyph-name="cacute.sc" horiz-adv-x="464" 
d="M113 166q0 -126 128 -126q75 0 131 15l22 6q6 0 11 -12t5 -25q0 -11 -20 -18q-57 -19 -157 -19q-85 0 -132 43t-47 129q0 75 23.5 161.5t68.5 136.5q61 69 195 69q69 0 115 -11q16 -4 16 -15q0 -16 -7 -32q-3 -7 -13 -7q-2 0 -30 5q-46 8 -101 8q-86 0 -130 -49
q-38 -40 -58 -115.5t-20 -143.5zM345 601q-11 -11 -24 -11h-25q-12 0 -12 11q0 6 6 12l124 134q10 12 23 12h45q12 0 12 -10q0 -9 -9 -16z" />
    <glyph glyph-name="caron.alt" horiz-adv-x="188" 
d="M143 721q17 0 17 -18q0 -14 -11 -47q-28 -79 -78 -121q-11 -11 -21 -11q-7 0 -19 8q-7 7 -7 13q0 7 10 17q51 54 62 134q4 25 23 25h24z" />
    <glyph glyph-name="caron.cap" horiz-adv-x="197" 
d="M213 904h26q11 0 11 -10q0 -6 -9 -15l-123 -102q-19 -15 -31 -15h-24q-12 0 -23 13l-88 104q-5 7 -5 13q0 12 16 12h18q11 0 25 -12l77 -72l102 72q17 12 28 12z" />
    <glyph glyph-name="caron.sc" horiz-adv-x="197" 
d="M203 759h24q11 0 11 -10q0 -6 -8 -16l-124 -137q-13 -15 -28 -15h-26q-13 0 -19 13l-70 141q-3 6 -3 14q0 10 14 10h18q14 0 21 -12l61 -109l105 107q14 14 24 14z" />
    </font>
</defs>
</svg>
