<?xml version="1.0" standalone="no"?>
<!DOCTYPE svg PUBLIC "-//W3C//DTD SVG 1.1//EN" "http://www.w3.org/Graphics/SVG/1.1/DTD/svg11.dtd" >
<svg>
<metadata>
Created by FontForge 20090622 at Sun Feb 10 22:06:32 2019
 By deploy user
Copyright (c) 2014 by Dieter Hofrichter. All rights reserved.
</metadata>
<defs>
<font id="Orgon-Thin" horiz-adv-x="376" >
  <font-face 
    font-family="Orgon-Thin"
    font-weight="400"
    font-stretch="normal"
    units-per-em="1000"
    panose-1="2 0 5 3 3 0 0 2 0 4"
    ascent="751"
    descent="-249"
    x-height="495"
    cap-height="709"
    bbox="-151 -266 1163 977"
    underline-thickness="50"
    underline-position="-50"
    unicode-range="U+0020-U+FB04"
  />
<missing-glyph horiz-adv-x="501" 
d="M0 0v707h501v-707h-501zM251 399l170 257h-341zM280 354l172 -257v514zM80 50h341l-170 258zM50 611v-514l171 257z" />
    <glyph glyph-name="f_f" unicode="ff" horiz-adv-x="612" 
d="M161 14q0 -17 -15 -17h-11q-16 0 -16 18v441h-60q-14 0 -14 12v13q0 14 15 14h59v65q0 102 37 140q34 36 112 36q43 0 64 -6q9 -3 9 -11q0 -7 -3 -18q-3 -9 -13 -9q-1 0 -21.5 2.5t-36.5 2.5q-69 0 -89 -33q-17 -27 -17 -107v-62h264v85q0 102 37 140q34 36 112 36
q43 0 64 -6q9 -3 9 -11q0 -7 -3 -18q-3 -9 -13 -9q-1 0 -21.5 2.5t-36.5 2.5q-69 0 -89 -33q-17 -27 -17 -107v-82h115q14 0 14 -12v-15q0 -12 -14 -12h-115v-442q0 -17 -15 -17h-11q-16 0 -16 18v441h-264v-442z" />
    <glyph glyph-name="fi" unicode="fi" horiz-adv-x="545" 
d="M161 17q0 -17 -15 -17h-11q-16 0 -16 18v438h-60q-14 0 -14 12v13q0 14 15 14h59v85q0 102 37 140q34 36 114 36q44 0 69 -7q9 -3 9 -11t-3 -18q-3 -9 -13 -9q-1 0 -24 3t-39 3q-71 0 -91 -33q-17 -27 -17 -107v-82h267q19 0 19 -19v-459q0 -17 -16 -17h-10q-16 0 -16 17
v439h-244v-439zM460 665q0 -37 -34 -37q-35 0 -35 36q0 37 35 37q34 0 34 -36z" />
    <glyph glyph-name="fl" unicode="fl" horiz-adv-x="546" 
d="M161 14q0 -17 -15 -17h-11q-16 0 -16 18v441h-60q-14 0 -14 12v13q0 14 15 14h59v85q0 98 37 136q37 40 137 40q108 0 142 -12q12 -4 12 -19v-711q0 -17 -16 -17h-10q-16 0 -16 17v695q-48 8 -116 8q-88 0 -111 -37q-17 -27 -17 -103v-82h115q14 0 14 -12v-15
q0 -12 -14 -12h-115v-442z" />
    <glyph glyph-name="f_f_i" unicode="ffi" horiz-adv-x="851" 
d="M161 14q0 -17 -15 -17h-11q-16 0 -16 18v441h-60q-14 0 -14 12v13q0 14 15 14h59v65q0 102 37 140q34 36 112 36q43 0 64 -6q9 -3 9 -11q0 -7 -3 -18q-3 -9 -13 -9q-1 0 -21.5 2.5t-36.5 2.5q-69 0 -89 -33q-17 -27 -17 -107v-62h264v85q0 102 37 140q34 36 114 36
q44 0 69 -7q9 -3 9 -11t-3 -18q-3 -9 -13 -9q-1 0 -24 3t-39 3q-71 0 -91 -33q-17 -27 -17 -107v-82h267q19 0 19 -19v-459q0 -17 -16 -17h-10q-16 0 -16 17v439h-244v-442q0 -17 -15 -17h-11q-16 0 -16 18v441h-264v-442zM766 665q0 -37 -34 -37q-35 0 -35 36q0 37 35 37
q34 0 34 -36z" />
    <glyph glyph-name="f_f_l" unicode="ffl" horiz-adv-x="852" 
d="M161 14q0 -17 -15 -17h-11q-16 0 -16 18v441h-60q-14 0 -14 12v13q0 14 15 14h59v65q0 102 37 140q34 36 112 36q43 0 64 -6q9 -3 9 -11q0 -7 -3 -18q-3 -9 -13 -9q-1 0 -21.5 2.5t-36.5 2.5q-69 0 -89 -33q-17 -27 -17 -107v-62h264v85q0 98 37 136q37 40 137 40
q108 0 142 -12q12 -4 12 -19v-711q0 -17 -16 -17h-10q-16 0 -16 17v695q-48 8 -116 8q-88 0 -111 -37q-17 -27 -17 -103v-82h115q14 0 14 -12v-15q0 -12 -14 -12h-115v-442q0 -17 -15 -17h-11q-16 0 -16 18v441h-264v-442z" />
    <glyph glyph-name="T_h" unicode="Th" horiz-adv-x="1102" 
d="M301 14q0 -17 -16 -17h-13q-16 0 -16 17v651h-216q-17 0 -17 15v11q0 15 17 15h587v30q0 16 13 16h16q13 0 13 -15v-273q23 23 81 33t113 10q64 0 93.5 -14.5t41.5 -45.5q9 -24 9 -98v-336q0 -16 -16 -16h-10q-16 0 -16 16v333q0 57 -8 78q-8 23 -29.5 33t-72.5 10
q-110 0 -164 -25q-14 -5 -17 -11q-5 -7 -5 -23v-395q0 -16 -16 -16h-10q-16 0 -16 16v652h-326v-651z" />
    <glyph glyph-name="Tcaron_h" unicode="&#x164;h" horiz-adv-x="1102" 
d="M301 14q0 -17 -16 -17h-13q-16 0 -16 17v651h-216q-17 0 -17 15v11q0 15 17 15h587v30q0 16 13 16h16q13 0 13 -15v-273q23 23 81 33t113 10q64 0 93.5 -14.5t41.5 -45.5q9 -24 9 -98v-336q0 -16 -16 -16h-10q-16 0 -16 16v333q0 57 -8 78q-8 23 -29.5 33t-72.5 10
q-110 0 -164 -25q-14 -5 -17 -11q-5 -7 -5 -23v-395q0 -16 -16 -16h-10q-16 0 -16 16v652h-326v-651zM397 904h13q10 0 10 -10q0 -6 -6 -13l-108 -102q-12 -12 -24 -12h-12q-10 0 -22 10l-111 106q-4 4 -4 11q0 10 13 10h11q10 0 24 -11l97 -77l94 76q15 12 25 12z" />
    <glyph glyph-name="f_b" unicode="fb" horiz-adv-x="872" 
d="M161 14q0 -17 -15 -17h-11q-16 0 -16 18v441h-60q-14 0 -14 12v13q0 14 15 14h59v85q0 98 37 136q37 40 137 40q108 0 142 -12q12 -4 12 -19v-264q51 45 179 45q93 0 139.5 -57t46.5 -188q0 -80 -14.5 -132.5t-45.5 -81.5t-72 -40t-103 -11q-33 0 -75 8t-58 20l-1 -20
q-1 -11 -15 -11h-9q-14 0 -14 21v695q-48 8 -116 8q-88 0 -111 -37q-17 -27 -17 -103v-82h115q14 0 14 -12v-15q0 -12 -14 -12h-115v-442zM447 64q14 -11 54.5 -20t75.5 -9q113 0 152.5 48.5t39.5 170.5q0 113 -33 162.5t-124 49.5q-99 0 -145 -31q-13 -9 -17 -16
q-3 -6 -3 -22v-333z" />
    <glyph glyph-name="f_f_b" unicode="ffb" horiz-adv-x="1178" 
d="M161 14q0 -17 -15 -17h-11q-16 0 -16 18v441h-60q-14 0 -14 12v13q0 14 15 14h59v65q0 102 37 140q34 36 112 36q43 0 64 -6q9 -3 9 -11q0 -7 -3 -18q-3 -9 -13 -9q-1 0 -21.5 2.5t-36.5 2.5q-69 0 -89 -33q-17 -27 -17 -107v-62h264v85q0 98 37 136q37 40 137 40
q108 0 142 -12q12 -4 12 -19v-264q51 45 179 45q93 0 139.5 -57t46.5 -188q0 -80 -14.5 -132.5t-45.5 -81.5t-72 -40t-103 -11q-33 0 -75 8t-58 20l-1 -20q-1 -11 -15 -11h-9q-14 0 -14 21v695q-48 8 -116 8q-88 0 -111 -37q-17 -27 -17 -103v-82h115q14 0 14 -12v-15
q0 -12 -14 -12h-115v-442q0 -17 -15 -17h-11q-16 0 -16 18v441h-264v-442zM753 64q14 -11 54.5 -20t75.5 -9q113 0 152.5 48.5t39.5 170.5q0 113 -33 162.5t-124 49.5q-99 0 -145 -31q-13 -9 -17 -16q-3 -6 -3 -22v-333z" />
    <glyph glyph-name="f_f_h" unicode="ffh" horiz-adv-x="1186" 
d="M161 14q0 -17 -15 -17h-11q-16 0 -16 18v441h-60q-14 0 -14 12v13q0 14 15 14h59v65q0 102 37 140q34 36 112 36q43 0 64 -6q9 -3 9 -11q0 -7 -3 -18q-3 -9 -13 -9q-1 0 -21.5 2.5t-36.5 2.5q-69 0 -89 -33q-17 -27 -17 -107v-62h264v85q0 98 37 136q37 40 137 40
q108 0 142 -12q12 -4 12 -19v-261q23 23 81 33t113 10q64 0 93.5 -14.5t41.5 -45.5q9 -24 9 -98v-336q0 -16 -16 -16h-10q-16 0 -16 16v333q0 57 -8 78q-8 23 -29.5 33t-72.5 10q-110 0 -164 -25q-14 -5 -17 -11q-5 -7 -5 -23v-395q0 -16 -16 -16h-10q-16 0 -16 16v696
q-48 8 -116 8q-88 0 -111 -37q-17 -27 -17 -103v-82h115q14 0 14 -12v-15q0 -12 -14 -12h-115v-442q0 -17 -15 -17h-11q-16 0 -16 18v441h-264v-442z" />
    <glyph glyph-name="f_f_j" unicode="ffj" horiz-adv-x="864" 
d="M161 14q0 -17 -15 -17h-11q-16 0 -16 18v441h-60q-14 0 -14 12v13q0 14 15 14h59v65q0 102 37 140q34 36 112 36q43 0 64 -6q9 -3 9 -11q0 -7 -3 -18q-3 -9 -13 -9q-1 0 -21.5 2.5t-36.5 2.5q-69 0 -89 -33q-17 -27 -17 -107v-62h264v85q0 102 37 140q34 36 112 36
q43 0 64 -6q9 -3 9 -11q0 -7 -3 -18q-3 -9 -13 -9q-1 0 -21.5 2.5t-36.5 2.5q-69 0 -89 -33q-17 -27 -17 -107v-82h279q16 0 16 -15v-575q0 -86 -33 -118q-38 -37 -125 -37q-22 0 -22 13q0 9 1 15q1 11 18 11q67 0 93 23q26 25 26 92v552h-253v-442q0 -17 -15 -17h-11
q-16 0 -16 18v441h-264v-442zM775 665q0 -37 -34 -37q-35 0 -35 36q0 37 35 37q34 0 34 -36z" />
    <glyph glyph-name="f_f_k" unicode="ffk" horiz-adv-x="1088" 
d="M161 14q0 -17 -15 -17h-11q-16 0 -16 18v441h-60q-14 0 -14 12v13q0 14 15 14h59v65q0 102 37 140q34 36 112 36q43 0 64 -6q9 -3 9 -11q0 -7 -3 -18q-3 -9 -13 -9q-1 0 -21.5 2.5t-36.5 2.5q-69 0 -89 -33q-17 -27 -17 -107v-62h264v85q0 98 37 136q37 40 137 40
q108 0 142 -12q12 -4 12 -19v-431h65q32 0 44 16l139 175q10 13 25 13h11q14 0 14 -10q0 -8 -10 -20l-158 -190q16 -19 71 -94l117 -154q12 -14 12 -21q0 -12 -16 -12h-11q-14 0 -24 14l-172 229q-12 17 -38 17h-69v-243q0 -17 -16 -17h-10q-16 0 -16 17v695q-48 8 -116 8
q-88 0 -111 -37q-17 -27 -17 -103v-82h115q14 0 14 -12v-15q0 -12 -14 -12h-115v-442q0 -17 -15 -17h-11q-16 0 -16 18v441h-264v-442z" />
    <glyph glyph-name="f_h" unicode="fh" horiz-adv-x="880" 
d="M161 14q0 -17 -15 -17h-11q-16 0 -16 18v441h-60q-14 0 -14 12v13q0 14 15 14h59v85q0 98 37 136q37 40 137 40q108 0 142 -12q12 -4 12 -19v-261q23 23 81 33t113 10q64 0 93.5 -14.5t41.5 -45.5q9 -24 9 -98v-336q0 -16 -16 -16h-10q-16 0 -16 16v333q0 57 -8 78
q-8 23 -29.5 33t-72.5 10q-110 0 -164 -25q-14 -5 -17 -11q-5 -7 -5 -23v-395q0 -16 -16 -16h-10q-16 0 -16 16v696q-48 8 -116 8q-88 0 -111 -37q-17 -27 -17 -103v-82h115q14 0 14 -12v-15q0 -12 -14 -12h-115v-442z" />
    <glyph glyph-name="f_j" unicode="fj" horiz-adv-x="558" 
d="M161 14q0 -17 -15 -17h-11q-16 0 -16 18v441h-60q-14 0 -14 12v13q0 14 15 14h59v85q0 102 37 140q34 36 112 36q43 0 64 -6q9 -3 9 -11q0 -7 -3 -18q-3 -9 -13 -9q-1 0 -21.5 2.5t-36.5 2.5q-69 0 -89 -33q-17 -27 -17 -107v-82h279q16 0 16 -15v-575q0 -86 -33 -118
q-38 -37 -125 -37q-22 0 -22 13q0 9 1 15q1 11 18 11q67 0 93 23q26 25 26 92v552h-253v-442zM469 665q0 -37 -34 -37q-35 0 -35 36q0 37 35 37q34 0 34 -36z" />
    <glyph glyph-name="f_k" unicode="fk" horiz-adv-x="782" 
d="M161 14q0 -17 -15 -17h-11q-16 0 -16 18v441h-60q-14 0 -14 12v13q0 14 15 14h59v85q0 98 37 136q37 40 137 40q108 0 142 -12q12 -4 12 -19v-431h65q32 0 44 16l139 175q10 13 25 13h11q14 0 14 -10q0 -8 -10 -20l-158 -190q16 -19 71 -94l117 -154q12 -14 12 -21
q0 -12 -16 -12h-11q-14 0 -24 14l-172 229q-12 17 -38 17h-69v-243q0 -17 -16 -17h-10q-16 0 -16 17v695q-48 8 -116 8q-88 0 -111 -37q-17 -27 -17 -103v-82h115q14 0 14 -12v-15q0 -12 -14 -12h-115v-442z" />
    <glyph glyph-name="uni0162_h" unicode="&#x162;h" horiz-adv-x="1102" 
d="M283 -68q62 0 83 -22t21 -62q0 -89 -115 -89q-25 0 -51 6q-11 3 -11 13q0 8 2 14q4 10 13 10q4 0 13 -3q22 -4 36 -4q69 0 69 50q0 26 -14.5 38t-47.5 12q-4 0 -13 -0.5t-10 -0.5q-16 0 -16 17q0 9 4 27l12 64q-2 3 -2 12v651h-216q-17 0 -17 15v11q0 15 17 15h587v30
q0 16 13 16h16q13 0 13 -15v-273q23 23 81 33t113 10q64 0 93.5 -14.5t41.5 -45.5q9 -24 9 -98v-336q0 -16 -16 -16h-10q-16 0 -16 16v333q0 57 -8 78q-8 23 -29.5 33t-72.5 10q-110 0 -164 -25q-14 -5 -17 -11q-5 -7 -5 -23v-395q0 -16 -16 -16h-10q-16 0 -16 16v652h-326
v-651q0 -12 -7 -15z" />
    <glyph glyph-name="uni021A_h" unicode="&#x21a;h" horiz-adv-x="1102" 
d="M301 14q0 -17 -16 -17h-13q-16 0 -16 17v651h-216q-17 0 -17 15v11q0 15 17 15h587v30q0 16 13 16h16q13 0 13 -15v-273q23 23 81 33t113 10q64 0 93.5 -14.5t41.5 -45.5q9 -24 9 -98v-336q0 -16 -16 -16h-10q-16 0 -16 16v333q0 57 -8 78q-8 23 -29.5 33t-72.5 10
q-110 0 -164 -25q-14 -5 -17 -11q-5 -7 -5 -23v-395q0 -16 -16 -16h-10q-16 0 -16 16v652h-326v-651zM290 -72q15 0 15 -15q0 -105 -63 -171q-8 -8 -15 -8q-4 0 -12 6q-7 5 -7 11t6 14q44 57 44 140q0 23 16 23h16z" />
    <glyph glyph-name=".notdef" horiz-adv-x="501" 
d="M0 0v707h501v-707h-501zM251 399l170 257h-341zM280 354l172 -257v514zM80 50h341l-170 258zM50 611v-514l171 257z" />
    <glyph glyph-name=".null" horiz-adv-x="0" 
 />
    <glyph glyph-name="nonmarkingreturn" horiz-adv-x="333" 
 />
    <glyph glyph-name="space" unicode=" " horiz-adv-x="226" 
 />
    <glyph glyph-name="exclam" unicode="!" horiz-adv-x="278" 
d="M181 219q0 -15 -13 -15h-13q-14 0 -14 16q-5 437 -5 469q0 17 17 17h18q15 0 15 -17q0 -32 -5 -470zM193 29q0 -37 -37 -37t-37 37t37 37t37 -37z" />
    <glyph glyph-name="quotedbl" unicode="&#x22;" horiz-adv-x="327" 
d="M109 485q0 -15 -12 -15h-11q-13 0 -13 16q-7 192 -7 213q0 17 17 17h18q15 0 15 -17q0 -21 -7 -214zM254 485q0 -15 -12 -15h-11q-13 0 -13 16q-7 192 -7 213q0 17 17 17h18q15 0 15 -17q0 -21 -7 -214z" />
    <glyph glyph-name="numbersign" unicode="#" horiz-adv-x="597" 
d="M162 0q-3 -16 -18 -16h-7q-15 0 -15 12q0 6 2 18l32 217h-97q-14 0 -14 12v18q0 14 15 14h102l20 136h-103q-14 0 -14 12v18q0 14 15 14h109l31 214q3 22 20 22h7q15 0 15 -14q0 -6 -2 -18l-31 -204h169l31 214q3 22 20 22h7q15 0 15 -14q0 -6 -2 -18l-31 -204h98
q15 0 15 -14v-18q0 -12 -14 -12h-105l-20 -136h104q15 0 15 -14v-18q0 -12 -14 -12h-112l-34 -231q-3 -16 -18 -16h-7q-15 0 -15 12q0 6 2 18l32 217h-169zM223 411l-20 -136h168l20 136h-168z" />
    <glyph glyph-name="dollar" unicode="$" horiz-adv-x="540" 
d="M297 -77q0 -17 -15 -17h-11q-15 0 -15 17v71q-102 0 -174 34q-14 7 -14 14q0 9 5 19q5 11 15 11q6 0 20 -6q67 -32 148 -32v285l-56 17q-59 18 -91.5 61t-32.5 98q0 166 180 179v71q0 17 16 17h11q14 0 14 -17v-69q79 -2 138 -20q14 -6 14 -15q0 -4 -5 -19q-2 -8 -13 -8
q-8 0 -19 4q-64 17 -115 19v-288l30 -9q81 -26 114.5 -59.5t33.5 -100.5q0 -169 -178 -184v-73zM121 499q0 -52 24.5 -81t103.5 -54l7 -2v274q-78 -6 -106.5 -41t-28.5 -96zM430 177q0 46 -24.5 75t-108.5 55v-271q44 5 72.5 19.5t40.5 37t16 41t4 43.5z" />
    <glyph glyph-name="percent" unicode="%" horiz-adv-x="836" 
d="M340 474q0 -127 -34.5 -172.5t-118.5 -45.5q-80 0 -115 45t-35 168q0 125 39.5 170t116.5 45q56 0 85.5 -15.5t45.5 -61.5t16 -133zM297 474q0 103 -23.5 137.5t-82.5 34.5q-58 0 -84.5 -36.5t-26.5 -139.5q0 -106 25 -141.5t82 -35.5q61 0 85.5 35t24.5 146zM270 -16
q-9 -16 -21 -16h-12q-10 0 -10 12q2 8 6 17l333 692q11 22 23 22h11q13 0 13 -12q-1 -8 -10 -25zM799 210q0 -127 -34.5 -172.5t-118.5 -45.5q-80 0 -115 45t-35 168q0 125 39.5 170t116.5 45q56 0 85.5 -15.5t45.5 -61.5t16 -133zM756 210q0 103 -23.5 137.5t-82.5 34.5
q-58 0 -84.5 -36.5t-26.5 -139.5q0 -106 25 -141.5t82 -35.5q61 0 85.5 35t24.5 146z" />
    <glyph glyph-name="ampersand" unicode="&#x26;" horiz-adv-x="713" 
d="M554 294q20 -34 20 -83q0 -69 -18.5 -115t-55 -69t-78 -31.5t-99.5 -8.5q-121 0 -186 45t-65 159q0 83 35.5 125t102.5 61q-103 29 -103 149q0 97 50.5 141t166.5 45q62 0 113 -14q25 -7 25 -17q0 -9 -6 -22q-4 -7 -13 -7q-6 0 -32 7q-44 11 -88 11q-103 0 -137 -34.5
t-34 -109.5q0 -60 38.5 -98t105.5 -38q11 0 15.5 -2.5t4.5 -11.5v-10q0 -14 -21 -14q-98 0 -137 -40t-39 -118q0 -95 52.5 -130t155.5 -35q50 0 82.5 6.5t61.5 24.5t43 54.5t14 92.5q0 45 -17 80q-30 -4 -124 -4q-23 0 -23 15v9q0 16 19 16q189 0 281 37q23 10 28 10
q7 0 12 -10q4 -8 4 -14q0 -9 -20 -17q-63 -25 -134 -35z" />
    <glyph glyph-name="quotesingle" unicode="'" horiz-adv-x="182" 
d="M109 485q0 -15 -12 -15h-11q-13 0 -13 16q-7 192 -7 213q0 17 17 17h18q15 0 15 -17q0 -21 -7 -214z" />
    <glyph glyph-name="parenleft" unicode="(" horiz-adv-x="303" 
d="M110 314q0 -80 12 -147t27.5 -108.5t44 -82t46 -58.5t49.5 -47q5 -5 5 -10t-5 -10q-6 -5 -11 -5t-17 7q-198 130 -198 459q0 172 55 281t141 165q12 7 16 7q6 0 14 -7q5 -5 5 -10q0 -4 -5 -9q-179 -132 -179 -425z" />
    <glyph glyph-name="parenright" unicode=")" horiz-adv-x="303" 
d="M193 287q0 58 -6.5 109t-14.5 86t-26 71t-28 54t-35 45.5t-34 35.5l-35 32q-5 5 -5 10t5 10q6 5 11 5t17 -7q37 -24 66.5 -53.5t62 -81t51 -132t18.5 -182.5q0 -307 -196 -436q-12 -7 -16 -7q-6 0 -14 7q-5 5 -5 10q0 4 5 9q39 29 69 62.5t56 82.5t40 117t14 153z" />
    <glyph glyph-name="asterisk" unicode="*" horiz-adv-x="403" 
d="M199 480l-82 -117q-4 -6 -10 -6t-19 10q-7 6 -7 11q0 6 5 11l88 112l-135 39q-12 4 -12 12t6 20q5 10 12 10q2 0 14 -3q114 -41 126 -45q-5 113 -5 139q0 10 4 14.5t18 4.5q11 0 15 -4.5t4 -14.5q0 -69 -3 -140q72 28 127 46q9 3 16 3t10 -8q4 -11 4 -19q0 -10 -11 -13
q-87 -27 -139 -41q11 -15 26 -33l34 -42l30 -38q4 -6 4 -11q0 -6 -7 -11q-14 -9 -19 -9q-7 0 -11 6z" />
    <glyph glyph-name="plus" unicode="+" horiz-adv-x="701" 
d="M371 48q0 -13 -13 -13h-17q-12 0 -12 13v225h-226q-13 0 -13 14v16q0 14 13 14h225v223q0 14 13 14h17q13 0 13 -14v-223h226q14 0 14 -14v-16q0 -14 -14 -14h-226v-225z" />
    <glyph glyph-name="comma" unicode="," horiz-adv-x="199" 
d="M118 80q17 0 17 -14q0 -58 -23 -121t-60 -95q-10 -8 -16 -8t-13 7t-7 12q0 6 6 12q24 22 43.5 70.5t19.5 114.5q0 22 17 22h16z" />
    <glyph glyph-name="hyphen" unicode="-" horiz-adv-x="289" 
d="M239 245h-189q-14 0 -14 12v18q0 14 15 14h187q15 0 15 -14v-18q0 -12 -14 -12z" />
    <glyph glyph-name="period" unicode="." horiz-adv-x="200" 
d="M137 29q0 -37 -37 -37t-37 37t37 37t37 -37z" />
    <glyph glyph-name="slash" unicode="/" horiz-adv-x="368" 
d="M58 -84q-7 -16 -21 -16h-9q-14 0 -14 12q0 6 4 17l288 800q8 22 22 22h8q17 0 17 -12q0 -7 -7 -25z" />
    <glyph glyph-name="zero" unicode="0" horiz-adv-x="548" 
d="M501 345q0 -142 -25 -220.5t-73 -108t-132 -29.5q-80 0 -126.5 28t-72 105t-25.5 215q0 87 11.5 150.5t31.5 102t51 61.5t63.5 31t76.5 8q62 0 100 -13t67 -50t41 -104.5t12 -175.5zM456 345q0 123 -19 188.5t-55.5 89.5t-103.5 24q-64 0 -102.5 -24t-61 -93.5
t-22.5 -192.5q0 -77 7.5 -132t21.5 -89.5t37 -54t49.5 -26.5t64.5 -7q51 0 83 11.5t56 45.5t34.5 97t10.5 163z" />
    <glyph glyph-name="one" unicode="1" horiz-adv-x="548" 
d="M273 624l-104 -48q-14 -6 -19 -6q-6 0 -10 7q-6 12 -6 17q0 9 11 14l125 60q16 8 28 8h4q15 0 15 -15v-647q0 -17 -16 -17h-12q-16 0 -16 17v610z" />
    <glyph glyph-name="two" unicode="2" horiz-adv-x="548" 
d="M465 0h-396q-16 0 -16 14v9q0 11 7 18l77 65l90 76q29 25 72 67t70 76q61 76 61 171q0 71 -36 111t-129 40q-65 0 -124 -23q-31 -11 -32 -11q-9 0 -13 9q-4 8 -4 15t4.5 11.5t18.5 9.5q76 30 153 30q114 0 160.5 -49t46.5 -138q0 -115 -68 -197q-106 -127 -293 -264
q59 1 351 1q17 0 17 -15v-11q0 -15 -17 -15z" />
    <glyph glyph-name="three" unicode="3" horiz-adv-x="548" 
d="M323 358q61 -6 99 -49.5t38 -119.5q0 -107 -57.5 -154.5t-171.5 -47.5q-92 0 -146 20q-15 6 -19.5 9.5t-4.5 10.5q0 10 6 20q5 7 13 7q4 0 8 -2l11 -4q7 -2 12 -3q55 -17 121 -17q48 0 83 10t53.5 24.5t29.5 37t13.5 41t2.5 43.5q0 75 -42 113t-146 38h-20q-17 0 -17 15
v10q0 15 17 15h21q171 0 171 134q0 76 -33.5 107t-120.5 31q-66 0 -118 -21q-26 -11 -32 -11q-9 0 -13 9q-4 8 -4 15t4.5 11.5t18.5 9.5q71 28 148 28q114 0 155.5 -42t41.5 -136q0 -120 -122 -152z" />
    <glyph glyph-name="four" unicode="4" horiz-adv-x="548" 
d="M414 14q0 -17 -16 -17h-12q-16 0 -16 17v177h-306q-17 0 -17 15v7q0 12 6 24l229 417q12 22 24 22h10q15 0 15 -11q0 -9 -8 -25l-227 -409h274v197q0 18 16 18h12q16 0 16 -17v-198h106q17 0 17 -15v-10q0 -15 -17 -15h-106v-177z" />
    <glyph glyph-name="five" unicode="5" horiz-adv-x="548" 
d="M140 399q69 21 131 21q114 0 163.5 -50t49.5 -161q0 -113 -64.5 -167.5t-176.5 -54.5q-92 0 -149 20q-14 5 -18 9t-4 11t6 19q3 8 13 8q4 0 7.5 -1.5t10 -3.5t11.5 -4q55 -17 129 -17q95 0 142.5 47.5t47.5 132.5q0 96 -44.5 134t-132.5 38q-68 0 -133 -23q-21 -6 -22 -6
q-12 0 -12 12q0 11 1 18l23 272q1 23 20 23h293q17 0 17 -15v-10q0 -15 -17 -15h-273z" />
    <glyph glyph-name="six" unicode="6" horiz-adv-x="548" 
d="M106 320q20 44 74.5 72t120.5 28q101 0 149 -50.5t48 -160.5q0 -104 -54.5 -163.5t-164.5 -59.5q-217 0 -217 300q0 55 2 96.5t9 85.5t19.5 75t33 60t49 46.5t69.5 28t93 10.5q77 0 116 -14q8 -3 8 -12q0 -5 -5 -20q-3 -8 -9 -8q-3 0 -11.5 2t-9.5 2q-45 9 -85 9
q-141 0 -189 -79q-32 -53 -42 -190zM108 246q0 -21 4 -53q22 -165 172 -165q169 0 169 185q0 166 -153 166q-61 0 -111.5 -26t-73.5 -68q-7 -12 -7 -39z" />
    <glyph glyph-name="seven" unicode="7" horiz-adv-x="548" 
d="M434 637q-59 -1 -364 -1q-17 0 -17 15v10q0 15 17 15h396q16 0 16 -14v-9q0 -11 -5 -24l-41 -91l-44 -100l-40 -92l-44 -107l-39 -102l-42 -118q-8 -22 -22 -22h-12q-17 0 -17 13q0 5 7 24l53 136l54 139l44 105q29 72 52 122z" />
    <glyph glyph-name="eight" unicode="8" horiz-adv-x="548" 
d="M357 356q63 -11 99 -54t36 -119q0 -196 -217 -196q-112 0 -165.5 46.5t-53.5 147.5q0 139 133 174q-110 31 -110 162q0 171 200 171q102 0 147.5 -39.5t45.5 -130.5q0 -128 -115 -162zM447 182q0 152 -173 152q-77 0 -125 -35t-48 -115q0 -90 46 -123t127 -33
q82 0 127.5 34.5t45.5 119.5zM428 515q0 66 -34 99t-119 33q-86 0 -118.5 -34t-32.5 -102q0 -72 43.5 -104.5t107.5 -32.5q58 0 105.5 33t47.5 108z" />
    <glyph glyph-name="nine" unicode="9" horiz-adv-x="548" 
d="M442 356q-19 -43 -73.5 -70t-121.5 -27q-101 0 -148 49t-47 159q0 104 56.5 162.5t167.5 58.5q100 0 155 -66.5t55 -230.5q0 -80 -4.5 -133.5t-20 -109t-44 -88t-79.5 -53t-123 -20.5q-79 0 -123 16q-7 2 -7 13q0 5 5 20q3 8 9 8q3 0 11.5 -2t9.5 -2q52 -12 96 -12
q138 0 184 85q30 54 39 193q1 13 2 39q1 7 1 11zM440 430q0 23 -4 55q-10 73 -46 117t-119 44q-174 0 -174 -183q0 -78 34 -120.5t117 -42.5q62 0 112 25t73 66q7 12 7 39z" />
    <glyph glyph-name="colon" unicode=":" horiz-adv-x="219" 
d="M157 29q0 -37 -37 -37t-37 37t37 37t37 -37zM157 457q0 -37 -37 -37t-37 37t37 37t37 -37z" />
    <glyph glyph-name="semicolon" unicode=";" horiz-adv-x="219" 
d="M157 457q0 -37 -37 -37t-37 37t37 37t37 -37zM138 80q17 0 17 -14q0 -58 -23 -121t-60 -95q-10 -8 -16 -8t-13 7t-7 12q0 6 6 12q24 22 43.5 70.5t19.5 114.5q0 22 17 22h16z" />
    <glyph glyph-name="less" unicode="&#x3c;" horiz-adv-x="701" 
d="M567 73q0 -12 -9 -12q-6 0 -11 3l-421 202q-11 6 -11 17v18q0 11 11 17l421 207q9 3 11 3q9 0 9 -11v-22q0 -11 -11 -16l-390 -185l390 -182q11 -5 11 -17v-22z" />
    <glyph glyph-name="equal" unicode="=" horiz-adv-x="701" 
d="M611 192q0 -14 -14 -14h-494q-13 0 -13 14v14q0 14 13 14h494q14 0 14 -14v-14zM611 377q0 -13 -14 -13h-494q-13 0 -13 13v16q0 13 13 13h494q14 0 14 -13v-16z" />
    <glyph glyph-name="greater" unicode="&#x3e;" horiz-adv-x="701" 
d="M134 517q0 11 9 11q3 0 9 -2l420 -201q12 -6 12 -19v-17q0 -14 -11 -19l-421 -206q-6 -4 -9 -4q-9 0 -9 12v22q0 12 10 16l390 187l-390 181q-10 4 -10 15v24z" />
    <glyph glyph-name="question" unicode="?" horiz-adv-x="389" 
d="M166 204h-11q-14 0 -14 14q-1 26 -1 55q0 55 17 84.5t67 61.5q50 31 68.5 64.5t18.5 84.5q0 109 -123 109q-69 0 -120 -16q-9 -3 -14 -3q-6 0 -10 7q-4 10 -4 19q0 8 8 11q54 24 142 24q166 0 166 -148q0 -64 -20 -99t-78 -77q-47 -34 -60.5 -54.5t-15.5 -64.5
q-1 -24 -1 -58q0 -14 -15 -14zM193 29q0 -37 -37 -37t-37 37t37 37t37 -37z" />
    <glyph glyph-name="at" unicode="@" horiz-adv-x="803" 
d="M490 110q-49 -53 -135 -53q-129 0 -129 124q0 70 27.5 138.5t74.5 109.5q53 46 145 46q53 0 90 -20l2 5q5 12 17 12h7q11 0 11 -11q0 -7 -3 -20l-58 -277q-5 -21 -5 -39q0 -25 24 -25q22 0 47 15q50 32 79.5 101.5t29.5 144.5q0 253 -262 253q-156 0 -253.5 -111
t-97.5 -278q0 -146 77 -226.5t232 -80.5q118 0 217 36q22 8 26 8q7 0 12 -12q3 -8 3 -12q0 -9 -23 -18q-104 -41 -238 -41q-166 0 -257 88.5t-91 257.5q0 185 108.5 304.5t286.5 119.5q146 0 223.5 -70.5t77.5 -214.5q0 -122 -61 -212.5t-150 -90.5q-28 0 -40.5 11t-13.5 38
zM550 419q-28 17 -84 17q-71 0 -113 -36q-36 -31 -59 -91.5t-23 -117.5q0 -49 22.5 -72t74.5 -23q58 0 103 36q8 6 15 15q7 8 11 27z" />
    <glyph glyph-name="A" unicode="A" horiz-adv-x="573" 
d="M142 243l-83 -224q-8 -22 -22 -22h-11q-17 0 -17 13q0 5 7 24l245 659q7 16 19 16h11q15 0 21 -16l245 -659q7 -17 7 -24q0 -13 -16 -13h-11q-9 0 -13 5t-10 19l-83 222h-289zM157 284h259l-130 354q-28 -82 -129 -354z" />
    <glyph glyph-name="B" unicode="B" horiz-adv-x="616" 
d="M278 0h-152q-16 0 -16 17v672q0 17 14 17h153q46 0 98 -6q148 -15 148 -169q0 -67 -25 -105.5t-80 -55.5q128 -30 128 -165q0 -143 -103 -184q-53 -21 -165 -21zM155 40h125q104 0 145 18q75 35 75 148q0 90 -76 126q-34 16 -117 16h-152v-308zM155 389h152q81 0 107 13
q29 15 46.5 48t17.5 77q0 59 -21 85.5t-58 41.5q-31 12 -116 12h-128v-277z" />
    <glyph glyph-name="C" unicode="C" horiz-adv-x="603" 
d="M117 357q0 -39 1 -66.5t5.5 -64.5t13 -62.5t24.5 -53t38 -44t55.5 -27t75.5 -10.5q105 0 186 31q21 9 28 9q8 0 14 -15q3 -7 3 -11q0 -10 -21 -19q-86 -37 -204 -37q-137 0 -201.5 79.5t-64.5 275.5q0 202 63.5 289.5t232.5 87.5q91 0 158 -15q23 -5 23 -19q0 -8 -4 -19
q-3 -8 -14 -8q-4 0 -32 6q-54 13 -155 13q-61 0 -104 -19.5t-66 -48t-36 -75t-16 -84.5t-3 -93z" />
    <glyph glyph-name="D" unicode="D" horiz-adv-x="703" 
d="M155 41h122q110 0 168 26q141 63 141 295q0 217 -129 277q-55 26 -181 26h-121v-624zM270 0h-144q-16 0 -16 17v672q0 17 14 17h152q113 0 177 -19q180 -52 180 -326q0 -268 -185 -337q-64 -24 -178 -24z" />
    <glyph glyph-name="E" unicode="E" horiz-adv-x="553" 
d="M495 0h-369q-16 0 -16 17v672q0 16 14 17h357q17 0 17 -15v-11q0 -15 -17 -15h-326v-276h294q17 0 17 -15v-11q0 -15 -17 -15h-294v-307h340q17 0 17 -15v-11q0 -15 -17 -15z" />
    <glyph glyph-name="F" unicode="F" horiz-adv-x="526" 
d="M155 15q0 -18 -16 -18h-14q-15 0 -15 17v675q0 16 14 17h357q17 0 17 -15v-11q0 -15 -17 -15h-326v-299h294q17 0 17 -15v-11q0 -15 -17 -15h-294v-310z" />
    <glyph glyph-name="G" unicode="G" horiz-adv-x="670" 
d="M592 57q0 -15 -4 -21.5t-16 -11.5q-96 -37 -228 -37q-140 0 -207 79.5t-67 275.5q0 201 66 289t237 88q95 0 162 -15q23 -5 23 -19q0 -8 -4 -19q-4 -9 -13 -9q-11 0 -32 6q-51 14 -160 14q-61 0 -105 -19.5t-68 -48t-38 -74.5t-17.5 -85t-3.5 -93q0 -46 2 -77.5t8.5 -74
t21 -70.5t38 -54t62 -39t89.5 -13q115 0 206 29v240h-178q-17 0 -17 15v10q0 15 17 15h206q20 0 20 -23v-258z" />
    <glyph glyph-name="H" unicode="H" horiz-adv-x="702" 
d="M155 14q0 -17 -16 -17h-13q-16 0 -16 17v678q0 17 17 17h13q15 0 15 -17v-303h392v303q0 17 17 17h13q15 0 15 -17v-678q0 -17 -16 -17h-13q-16 0 -16 17v334h-392v-334z" />
    <glyph glyph-name="I" unicode="I" horiz-adv-x="265" 
d="M155 14q0 -17 -16 -17h-13q-16 0 -16 17v678q0 17 17 17h13q15 0 15 -17v-678z" />
    <glyph glyph-name="J" unicode="J" horiz-adv-x="295" 
d="M185 692v-636q0 -53 -4.5 -78.5t-22.5 -44.5q-33 -36 -111 -36q-26 0 -40 2t-14 12q0 8 1 16q2 12 16 12q1 0 16.5 -1t23.5 -1q52 0 71 19q12 12 15.5 33.5t3.5 66.5v636q0 17 17 17h13q15 0 15 -17z" />
    <glyph glyph-name="K" unicode="K" horiz-adv-x="568" 
d="M155 14q0 -17 -16 -17h-13q-16 0 -16 17v678q0 17 17 17h13q15 0 15 -17v-304h65q32 0 44 16l219 292q10 13 25 13h16q14 0 14 -10q0 -8 -10 -20q-194 -252 -242 -310l258 -339q12 -16 12 -21q0 -12 -16 -12h-15q-14 0 -24 14l-242 320q-12 17 -38 17h-66v-334z" />
    <glyph glyph-name="L" unicode="L" horiz-adv-x="536" 
d="M495 0h-369q-16 0 -16 17v675q0 17 17 17h13q15 0 15 -17v-651h340q17 0 17 -15v-11q0 -15 -17 -15z" />
    <glyph glyph-name="M" unicode="M" horiz-adv-x="814" 
d="M154 14q0 -17 -16 -17h-12q-16 0 -16 17v672q0 8 4.5 14t10.5 6h33q13 0 19 -15q220 -440 231 -464q30 65 228 464q6 15 23 15h26q19 0 19 -23v-669q0 -17 -16 -17h-11q-16 0 -16 17q0 505 3 637l-235 -471q-7 -13 -19 -13h-6q-13 0 -22 18l-231 466q3 -139 3 -637z" />
    <glyph glyph-name="N" unicode="N" horiz-adv-x="705" 
d="M154 14q0 -17 -16 -17h-12q-16 0 -16 17v678q0 17 17 17h13q11 0 16 -9q306 -469 396 -617q-1 71 -1 609q0 17 17 17h12q15 0 15 -17v-678q0 -17 -17 -17h-9q-13 0 -23 15q-341 527 -393 615q1 -102 1 -613z" />
    <glyph glyph-name="O" unicode="O" horiz-adv-x="695" 
d="M625 358q0 -145 -31.5 -227t-90.5 -113t-159 -31q-97 0 -154.5 30.5t-88.5 112.5t-31 227q0 109 20.5 182.5t60.5 111.5t87.5 53t113.5 15q59 0 99 -8t75.5 -30.5t55.5 -62.5t31.5 -104t11.5 -156zM578 357q0 83 -8.5 139t-24 92t-45 55.5t-64 26.5t-87.5 7
q-60 0 -100 -13t-71.5 -47t-46 -97.5t-14.5 -161.5q0 -104 14 -170t45 -100.5t69.5 -46.5t99.5 -12q60 0 99 11.5t71.5 45t47.5 100t15 171.5z" />
    <glyph glyph-name="P" unicode="P" horiz-adv-x="613" 
d="M155 14q0 -17 -17 -17h-12q-16 0 -16 17v675q0 17 16 17h152q113 0 166 -21q102 -41 102 -176q0 -149 -132 -185q-46 -13 -131 -13h-128v-297zM155 352h133q94 0 138 19q73 32 73 136q0 61 -19 92.5t-54 47.5q-41 18 -146 18h-125v-313z" />
    <glyph glyph-name="Q" unicode="Q" horiz-adv-x="695" 
d="M625 358q0 -138 -27.5 -217.5t-84.5 -116.5l154 -101q9 -5 9 -13q0 -5 -11 -21q-5 -8 -12 -8q-6 0 -11 4l-178 117q-53 -15 -120 -15q-97 0 -154.5 30.5t-88.5 112.5t-31 227q0 109 20.5 182.5t60.5 111.5t87.5 53t113.5 15q59 0 99 -8t75.5 -30.5t55.5 -62.5t31.5 -104
t11.5 -156zM578 357q0 83 -8.5 139t-24 92t-45 55.5t-64 26.5t-87.5 7q-60 0 -100 -13t-71.5 -47t-46 -97.5t-14.5 -161.5q0 -104 14 -170t45 -100.5t69.5 -46.5t99.5 -12q60 0 99 11.5t71.5 45t47.5 100t15 171.5z" />
    <glyph glyph-name="R" unicode="R" horiz-adv-x="614" 
d="M155 14q0 -17 -17 -17h-12q-16 0 -16 17v675q0 17 16 17h144q119 0 167 -19q55 -22 78 -62.5t23 -106.5q0 -147 -132 -183q-13 -4 -25 -5l179 -300q8 -14 8 -20q0 -13 -15 -13h-12q-14 0 -27 22l-183 305q-17 -2 -56 -2h-120v-308zM155 363h125q94 0 138 19q73 32 73 134
q0 61 -18 88.5t-54 43.5q-39 17 -147 17h-117v-302z" />
    <glyph glyph-name="S" unicode="S" horiz-adv-x="554" 
d="M338 357q88 -27 123.5 -62.5t35.5 -107.5q0 -96 -55.5 -148t-180.5 -52q-105 0 -189 36q-17 7 -17 16q0 7 5 20q5 12 16 12q4 0 23 -7q76 -34 162 -34q51 0 88 10.5t56 25.5t30 37.5t13.5 39.5t2.5 40q0 21 -4.5 37t-19 36t-47.5 37.5t-84 32.5l-99 29q-64 19 -98.5 64.5
t-34.5 105.5q0 96 56 145t178 49q85 0 154 -22q16 -5 16 -16q0 -5 -5 -20q-3 -9 -15 -9q-9 0 -21 4q-79 21 -134 21q-106 0 -144.5 -38t-38.5 -110q0 -50 28.5 -85.5t112.5 -60.5z" />
    <glyph glyph-name="T" unicode="T" horiz-adv-x="557" 
d="M301 14q0 -17 -16 -17h-13q-16 0 -16 17v651h-216q-17 0 -17 15v11q0 15 17 15h477q17 0 17 -15v-11q0 -15 -17 -15h-216v-651z" />
    <glyph glyph-name="U" unicode="U" horiz-adv-x="688" 
d="M585 689v-407q0 -85 -5 -126.5t-22 -73.5q-52 -96 -216 -96q-83 0 -136.5 23.5t-80.5 81.5q-22 46 -22 189v409q0 17 17 17h13q15 0 15 -17v-434q0 -114 23 -154q42 -72 173 -72q136 0 172 68q24 45 24 153v439q0 17 17 17h13q15 0 15 -17z" />
    <glyph glyph-name="V" unicode="V" horiz-adv-x="566" 
d="M285 -3h-11q-12 0 -19 16l-239 659q-7 19 -7 24q0 13 17 13h11q14 0 22 -22q200 -554 222 -621l227 619q9 24 22 24h12q15 0 15 -13q0 -8 -6 -24l-246 -659q-6 -16 -20 -16z" />
    <glyph glyph-name="W" unicode="W" horiz-adv-x="910" 
d="M455 609q-40 -138 -190 -596q-6 -16 -20 -16h-11q-15 0 -19 16l-176 659q-4 15 -4 24q0 13 16 13h12q14 0 20 -22l161 -611l186 582q4 12 8.5 16.5t12.5 4.5h10q13 0 20 -21q152 -467 184 -582q29 118 162 609q6 24 22 24h11q15 0 15 -13q0 -6 -5 -26l-182 -657
q-5 -16 -20 -16h-11q-15 0 -19 16z" />
    <glyph glyph-name="X" unicode="X" horiz-adv-x="624" 
d="M81 15q-9 -12 -13.5 -15t-14.5 -3h-10q-15 0 -15 10t13 27l238 331l-217 302q-15 21 -15 29q0 13 14 13h12q15 0 25 -15l213 -301l211 296q15 20 31 20h7q13 0 13 -11q0 -9 -10 -23l-222 -311l234 -327q15 -20 15 -28q0 -12 -15 -12h-11q-14 0 -31 23q-183 254 -225 317z
" />
    <glyph glyph-name="Y" unicode="Y" horiz-adv-x="541" 
d="M293 15q0 -18 -16 -18h-13q-16 0 -16 18v300l-226 352q-14 22 -14 30q0 5 4 9.5t10 4.5h13q12 0 23 -17q174 -274 214 -341q33 57 210 336q14 22 28 22h10q14 0 14 -10q0 -12 -10 -26l-231 -360v-300z" />
    <glyph glyph-name="Z" unicode="Z" horiz-adv-x="587" 
d="M538 0h-497q-17 0 -17 14v8q0 9 8 19l450 624h-403q-19 0 -19 15v10q0 16 19 16h445q16 0 16 -14v-6q0 -10 -4 -17l-452 -628h454q19 0 19 -15v-11q0 -15 -19 -15z" />
    <glyph glyph-name="bracketleft" unicode="[" horiz-adv-x="267" 
d="M124 -103h109q11 0 11 -10v-13q0 -13 -11 -13h-141q-11 0 -11 12v867q0 11 11 11h141q11 0 11 -10v-15q0 -10 -11 -10h-109v-819z" />
    <glyph glyph-name="backslash" unicode="\" horiz-adv-x="368" 
d="M349 -71q4 -11 4 -17q0 -12 -14 -12h-9q-14 0 -21 16l-288 798q-7 18 -7 25q0 12 17 12h8q14 0 22 -22z" />
    <glyph glyph-name="bracketright" unicode="]" horiz-adv-x="267" 
d="M143 715h-109q-11 0 -11 10v13q0 13 11 13h141q11 0 11 -12v-867q0 -11 -11 -11h-141q-11 0 -11 10v15q0 10 11 10h109v819z" />
    <glyph glyph-name="asciicircum" unicode="^" horiz-adv-x="703" 
d="M556 300q3 -4 3 -9q0 -10 -12 -10h-22q-9 0 -14 11l-160 334l-157 -334q-6 -11 -15 -11h-23q-11 0 -11 10q0 4 3 10l173 365q5 9 14 9h33q10 0 14 -9z" />
    <glyph glyph-name="underscore" unicode="_" horiz-adv-x="493" 
d="M0 -78h493v-55h-493v55z" />
    <glyph glyph-name="grave" unicode="`" horiz-adv-x="197" 
d="M141 589l-123 135q-7 7 -7 14q0 9 10 9h29q12 0 19 -10l112 -138q4 -4 4 -10q0 -9 -9 -9h-16q-11 0 -19 9z" />
    <glyph glyph-name="a" unicode="a" horiz-adv-x="525" 
d="M388 39q-56 -52 -157 -52q-172 0 -172 159q0 77 66 112q51 27 149 27q75 0 114 -6v63q0 56 -8 78q-19 50 -120 50q-72 0 -119 -12q-5 -1 -12 -3l-12 -3q-5 -2 -8 -2q-8 0 -10 8q-4 12 -4 17q0 9 13 13q71 21 161 21q96 0 132 -36q18 -18 23.5 -46t5.5 -79v-334
q0 -11 -3.5 -14t-11.5 -3h-9q-14 0 -15 11zM388 243q-40 5 -111 5q-103 0 -143 -31q-32 -25 -32 -72q0 -57 29.5 -88t106.5 -31q78 0 124 31q16 11 20 17q6 7 6 22v147z" />
    <glyph glyph-name="b" unicode="b" horiz-adv-x="566" 
d="M138 24l-1 -20q-1 -11 -15 -11h-9q-14 0 -14 21v719q0 15 16 15h11q15 0 15 -15v-272q51 45 179 45q93 0 139.5 -57t46.5 -188q0 -80 -14.5 -132.5t-45.5 -81.5t-72 -40t-103 -11q-33 0 -75 8t-58 20zM141 64q14 -11 54.5 -20t75.5 -9q113 0 152.5 48.5t39.5 170.5
q0 113 -33 162.5t-124 49.5q-99 0 -145 -31q-13 -9 -17 -16q-3 -6 -3 -22v-333z" />
    <glyph glyph-name="c" unicode="c" horiz-adv-x="457" 
d="M104 251q0 -39 2 -67t11 -60t24.5 -51.5t44 -33t68.5 -13.5q80 0 132 20q15 6 21 6t10 -8q4 -6 4 -14q0 -11 -15 -17q-60 -26 -148 -26q-99 0 -148 57t-49 196q0 140 51.5 204.5t170.5 64.5q64 0 111 -10q17 -4 17 -16q0 -9 -4 -17q-4 -9 -12 -9q-2 0 -22 4q-43 9 -96 9
q-56 0 -92.5 -17.5t-53 -52t-22 -68t-5.5 -81.5z" />
    <glyph glyph-name="d" unicode="d" horiz-adv-x="566" 
d="M467 14q0 -11 -3.5 -14t-11.5 -3h-9q-14 0 -15 11l-3 29q-52 -49 -165 -49q-200 0 -200 249q0 151 57 211t182 60q87 0 126 -19v244q0 15 16 15h11q15 0 15 -15v-719zM425 99v347q-32 23 -129 23q-110 0 -151.5 -52.5t-41.5 -172.5q0 -111 37 -164.5t125 -53.5
q94 0 139 32q14 10 18 18q3 6 3 23z" />
    <glyph glyph-name="e" unicode="e" horiz-adv-x="523" 
d="M103 239q1 -124 44 -168.5t137 -44.5q72 0 138 24q15 6 21 6q7 0 10 -7q5 -7 5 -16q0 -10 -15 -16q-69 -30 -163 -30q-120 0 -170 61t-50 199q0 262 223 262q58 0 96 -16.5t57.5 -50t26.5 -73t7 -96.5q0 -23 -6 -29q-5 -5 -19 -5h-342zM103 276h322q1 9 1 29
q0 80 -31.5 122.5t-116.5 42.5q-94 0 -133.5 -50.5t-41.5 -143.5z" />
    <glyph glyph-name="f" unicode="f" horiz-adv-x="306" 
d="M161 14q0 -17 -15 -17h-11q-16 0 -16 18v441h-60q-14 0 -14 12v13q0 14 15 14h59v85q0 102 37 140q34 36 112 36q43 0 64 -6q9 -3 9 -11q0 -7 -3 -18q-3 -9 -13 -9q-1 0 -21.5 2.5t-36.5 2.5q-69 0 -89 -33q-17 -27 -17 -107v-82h115q14 0 14 -12v-15q0 -12 -14 -12h-115
v-442z" />
    <glyph glyph-name="g" unicode="g" horiz-adv-x="504" 
d="M116 20q-67 16 -67 96q0 74 67 101q-18 23 -26.5 47.5t-8.5 72.5q0 92 52 132t134 40q50 0 89 -14h132q18 0 18 -16v-9q0 -14 -18 -14h-77q34 -42 34 -115q0 -91 -50.5 -133t-137.5 -42q-50 0 -87 13q-26 10 -33 10q-12 0 -26 -12q-21 -18 -21 -56q0 -52 32 -63
q23 -8 160 -8q53 0 84 -2.5t59.5 -10t42 -22.5t21 -39.5t7.5 -62.5q0 -84 -51.5 -122.5t-186.5 -38.5q-66 0 -110 12t-64 35t-27.5 46.5t-7.5 56.5q0 81 67 118zM453 -89q0 59 -27.5 79t-124.5 22q-45 1 -95 1q-30 0 -47 -5q-69 -21 -69 -106q0 -57 37.5 -84t135.5 -27
q112 0 151 28.5t39 91.5zM404 339q0 75 -35 103t-106 28q-67 0 -103.5 -28.5t-36.5 -101.5q0 -82 34.5 -109t103.5 -27q68 0 105.5 29.5t37.5 105.5z" />
    <glyph glyph-name="h" unicode="h" horiz-adv-x="574" 
d="M141 13q0 -16 -16 -16h-10q-16 0 -16 16v723q0 16 13 16h16q13 0 13 -15v-273q23 23 81 33t113 10q64 0 93.5 -14.5t41.5 -45.5q9 -24 9 -98v-336q0 -16 -16 -16h-10q-16 0 -16 16v333q0 57 -8 78q-8 23 -29.5 33t-72.5 10q-110 0 -164 -25q-14 -5 -17 -11q-5 -7 -5 -23
v-395z" />
    <glyph glyph-name="i" unicode="i" horiz-adv-x="239" 
d="M141 14q0 -17 -16 -17h-10q-16 0 -16 17v467q0 17 16 17h10q16 0 16 -17v-467zM154 665q0 -37 -34 -37q-35 0 -35 36q0 37 35 37q34 0 34 -36z" />
    <glyph glyph-name="j" unicode="j" horiz-adv-x="243" 
d="M141 481v-576q0 -86 -33 -118q-38 -37 -125 -37q-22 0 -22 13q0 9 1 15q1 11 18 11q67 0 93 23q26 25 26 92v577q0 17 16 17h10q16 0 16 -17zM154 665q0 -37 -34 -37q-35 0 -35 36q0 37 35 37q34 0 34 -36z" />
    <glyph glyph-name="k" unicode="k" horiz-adv-x="476" 
d="M141 14q0 -17 -16 -17h-10q-16 0 -16 17v707q0 17 16 17h10q16 0 16 -17v-427h65q32 0 44 16l139 175q10 13 25 13h11q14 0 14 -10q0 -8 -10 -20l-158 -190q16 -19 71 -94l117 -154q12 -14 12 -21q0 -12 -16 -12h-11q-14 0 -24 14l-172 229q-12 17 -38 17h-69v-243z" />
    <glyph glyph-name="l" unicode="l" horiz-adv-x="240" 
d="M141 14q0 -17 -16 -17h-10q-16 0 -16 17v717q0 17 17 17h10q15 0 15 -17v-717z" />
    <glyph glyph-name="m" unicode="m" horiz-adv-x="882" 
d="M141 12q0 -15 -16 -15h-10q-16 0 -16 15v475q0 14 17 14h9q8 0 11 -4t4 -15l1 -24q24 26 77.5 37.5t106.5 11.5q104 0 126 -56q49 56 194 56q61 0 90.5 -14.5t42.5 -45.5q9 -22 9 -98v-337q0 -15 -16 -15h-10q-16 0 -16 15v334q0 57 -8 78q-8 23 -28 33t-70 10
q-87 0 -154 -31q-11 -4 -16 -13q-5 -7 -5 -22v-23q1 -23 1 -39v-327q0 -15 -16 -15h-10q-16 0 -16 15v334q0 57 -8 78q-8 23 -28 33t-70 10q-95 0 -153 -30q-11 -4 -18 -13q-5 -7 -5 -23v-389z" />
    <glyph glyph-name="n" unicode="n" horiz-adv-x="574" 
d="M141 13q0 -16 -16 -16h-10q-16 0 -16 16v474q0 14 17 14h9q8 0 11 -4t4 -15l1 -24q23 26 81 37.5t113 11.5q64 0 93.5 -14.5t41.5 -45.5q9 -24 9 -98v-336q0 -16 -16 -16h-10q-16 0 -16 16v333q0 57 -8 78q-8 23 -29.5 33t-72.5 10q-109 0 -164 -30q-13 -8 -17 -14
q-5 -7 -5 -23v-387z" />
    <glyph glyph-name="o" unicode="o" horiz-adv-x="552" 
d="M492 252q0 -153 -51 -209t-167 -56q-56 0 -93.5 11t-66 40t-41.5 80.5t-13 130.5t16 132t48 80t68.5 37.5t87.5 10.5q57 0 93 -9t65 -35.5t41.5 -78t12.5 -134.5zM449 248q0 95 -17 143t-51.5 63.5t-102.5 15.5q-45 0 -75 -8.5t-54 -31.5t-35 -66.5t-11 -111.5
q0 -72 10 -117.5t33.5 -69t52.5 -31.5t76 -8q37 0 61 4t47.5 17t36.5 36.5t21 64.5t8 100z" />
    <glyph glyph-name="p" unicode="p" horiz-adv-x="566" 
d="M141 -229q0 -15 -15 -15h-12q-15 0 -15 15v709q0 18 15 18h9q14 0 15 -11l3 -27q50 45 170 45q97 0 146 -57t49 -188q0 -152 -57 -213t-182 -61q-81 0 -126 15v-230zM141 43q38 -18 129 -18q110 0 151.5 54t41.5 174q0 111 -34.5 161.5t-122.5 50.5q-93 0 -145 -26
q-13 -6 -17 -14q-3 -6 -3 -23v-359z" />
    <glyph glyph-name="q" unicode="q" horiz-adv-x="562" 
d="M417 33q-50 -39 -179 -39q-93 0 -139.5 57t-46.5 188q0 80 14.5 132.5t46.5 81.5t74 40.5t104 11.5q85 0 129 -27l1 9q1 11 15 11h9q14 0 14 -17v-710q0 -15 -16 -15h-11q-15 0 -15 15v262zM417 437q-17 11 -55 20t-73 9q-114 0 -154 -49t-40 -171q0 -113 33 -162.5
t124 -49.5q95 0 145 21q13 6 17 14q3 6 3 23v345z" />
    <glyph glyph-name="r" unicode="r" horiz-adv-x="344" 
d="M141 13q0 -16 -16 -16h-10q-16 0 -16 16v474q0 14 17 14h9q8 0 11 -4t4 -15l1 -24q42 49 154 49q17 0 28 -2q10 -2 10 -10q0 -11 -2 -20q-2 -10 -12 -10q-1 0 -14 1t-18 1q-67 0 -121 -27q-16 -8 -20 -15q-5 -7 -5 -23v-389z" />
    <glyph glyph-name="s" unicode="s" horiz-adv-x="430" 
d="M270 255q59 -13 89 -42t30 -84q0 -142 -184 -142q-89 0 -149 25q-12 5 -12 14q0 8 5 18t14 10q1 0 16 -5q54 -23 126 -23q85 0 113 28t28 73q0 36 -20 57t-89 39l-82 21q-105 26 -105 122q0 142 181 142q68 0 120 -14q17 -4 17 -16q0 -5 -4 -17q-3 -9 -11 -9q-6 0 -15 3
q-59 15 -111 15q-79 0 -106.5 -25.5t-27.5 -74.5q0 -37 20.5 -58.5t83.5 -37.5z" />
    <glyph glyph-name="t" unicode="t" horiz-adv-x="296" 
d="M151 456v-340q0 -48 12 -68q12 -22 55 -22q17 0 37 3.5t21 3.5q8 0 11 -7q3 -9 3 -15q0 -10 -14 -15q-27 -9 -75 -9q-50 0 -72 30q-20 28 -20 98v341h-60q-14 0 -14 14v11q0 14 15 14h60q0 32 2 120q0 18 13 18h12q13 0 13 -17v-121h108q16 0 16 -13v-11q0 -15 -17 -15
h-106z" />
    <glyph glyph-name="u" unicode="u" horiz-adv-x="574" 
d="M433 33q-24 -23 -78.5 -33.5t-107.5 -10.5q-65 0 -97.5 15.5t-44.5 47.5q-10 26 -10 100v330q0 16 16 16h10q16 0 16 -16v-327q0 -57 9 -80q8 -23 32 -34.5t77 -11.5q102 0 156 27q14 5 17 11q5 7 5 23v392q0 16 16 16h10q16 0 16 -16v-471q0 -14 -17 -14h-9
q-14 0 -15 19z" />
    <glyph glyph-name="v" unicode="v" horiz-adv-x="441" 
d="M223 -3h-9q-14 0 -19 15l-176 451q-6 15 -6 23q0 12 16 12h12q13 0 22 -24l157 -412l159 412q10 24 22 24h11q16 0 16 -12q0 -8 -6 -23l-180 -451q-6 -15 -19 -15z" />
    <glyph glyph-name="w" unicode="w" horiz-adv-x="712" 
d="M356 415q-23 -77 -138 -401q-6 -17 -20 -17h-9q-15 0 -20 17l-143 454q-4 12 -4 18q0 12 16 12h13q8 0 11.5 -4.5t7.5 -18.5q89 -283 126 -412q37 116 135 391q3 9 5 13t6.5 7.5t11.5 3.5h9q11 0 20 -24q105 -284 140 -391l121 411q4 14 8 19t13 5h11q14 0 14 -12
q0 -7 -6 -27l-138 -445q-5 -17 -19 -17h-11q-12 0 -19 17q-112 311 -141 401z" />
    <glyph glyph-name="x" unicode="x" horiz-adv-x="481" 
d="M239 226l-155 -206q-1 -2 -3.5 -5t-3.5 -4.5t-4 -4.5l-3 -3q-1 -1 -3 -2.5t-4 -2.5h-4q-2 -1 -5 -1h-10q-13 0 -13 11q0 8 11 22l169 224l-158 211q-12 15 -12 22q0 11 14 11h13q14 0 29 -21l144 -195l145 195q15 21 29 21h11q13 0 13 -10q0 -8 -12 -23l-158 -210
l170 -225q11 -14 11 -22q0 -11 -13 -11h-11q-14 0 -32 23z" />
    <glyph glyph-name="y" unicode="y" horiz-adv-x="432" 
d="M191 15l-177 448q-6 15 -6 23q0 12 16 12h12q13 0 22 -24l158 -409l160 409q9 24 22 24h11q16 0 16 -12q0 -8 -6 -23l-214 -524q-22 -54 -32 -76q-25 -56 -54 -83q-33 -30 -84 -30q-26 0 -36 2q-18 4 -18 14q0 6 3 15q4 9 13 9l11 -1q12 -1 28 -1q33 0 50 13q19 14 50 81
l37 88z" />
    <glyph glyph-name="z" unicode="z" horiz-adv-x="467" 
d="M416 0h-365q-13 0 -13 11v8q0 9 9 20l313 417h-296q-14 0 -14 12v13q0 14 15 14h343q13 0 13 -11v-8q0 -9 -8 -20l-316 -417h319q14 0 14 -12v-15q0 -12 -14 -12z" />
    <glyph glyph-name="braceleft" unicode="{" horiz-adv-x="294" 
d="M86 307q39 -12 60.5 -41.5t21.5 -100.5v-165q0 -60 15 -82q20 -28 93 -28q8 0 8 -11v-15q0 -10 -11 -10q-58 1 -87 9.5t-45 34.5q-20 30 -20 107v159q0 64 -21 90.5t-68 34.5q-9 1 -9 11v11q0 10 9 12q49 8 69 36.5t20 87.5v155q0 73 21 105q33 51 131 51q11 0 11 -13
v-10q0 -13 -11 -13q-75 -2 -93 -35q-12 -23 -12 -78v-157q0 -72 -19.5 -99.5t-62.5 -45.5z" />
    <glyph glyph-name="bar" unicode="|" horiz-adv-x="204" 
d="M123 -133q0 -17 -16 -17h-10q-16 0 -16 17v873q0 17 17 17h10q15 0 15 -17v-873z" />
    <glyph glyph-name="braceright" unicode="}" horiz-adv-x="294" 
d="M208 305q-39 12 -60.5 41.5t-21.5 100.5v165q0 60 -15 82q-20 28 -93 28q-8 0 -8 11v15q0 10 11 10q58 -1 87 -9.5t45 -34.5q20 -30 20 -107v-159q0 -64 21 -90.5t68 -34.5q9 -1 9 -11v-11q0 -10 -9 -12q-49 -8 -69 -36.5t-20 -87.5v-155q0 -73 -21 -105
q-33 -51 -131 -51q-11 0 -11 13v10q0 13 11 13q75 2 93 35q12 23 12 78v157q0 72 19.5 99.5t62.5 45.5z" />
    <glyph glyph-name="asciitilde" unicode="~" horiz-adv-x="701" 
d="M130 250q-6 -8 -11 -8q-8 0 -17 9q-6 4 -6 12q0 7 4 11q39 49 71.5 68t71.5 19q41 0 122 -49q60 -36 99 -36q30 0 53.5 16.5t50.5 55.5q6 8 13 8q6 0 16 -8q7 -5 7 -11q0 -8 -6 -16q-32 -46 -62 -67t-73 -21q-49 0 -119 41q-72 43 -107 43q-30 0 -53.5 -15t-53.5 -52z
" />
    <glyph glyph-name="exclamdown" unicode="&#xa1;" horiz-adv-x="278" 
d="M97 279q0 15 13 15h13q14 0 14 -16q5 -437 5 -469q0 -17 -17 -17h-18q-15 0 -15 17q0 32 5 470zM85 469q0 37 37 37t37 -37t-37 -37t-37 37z" />
    <glyph glyph-name="cent" unicode="&#xa2;" horiz-adv-x="480" 
d="M301 -77q0 -17 -15 -17h-11q-15 0 -15 17v75q-91 4 -136 61.5t-45 190.5q0 125 42 185.5t139 70.5v70q0 17 16 17h11q14 0 14 -17v-67h2q64 0 111 -10q17 -4 17 -16q0 -9 -4 -17q-3 -8 -11 -8q-7 0 -22 3q-38 8 -93 9v-434q59 3 105 20q15 6 21 6t10 -8q4 -6 4 -14
q0 -11 -15 -17q-53 -23 -125 -25v-75zM124 261q0 -47 4.5 -81t17.5 -68t42 -53.5t72 -22.5v432q-44 -5 -72.5 -23.5t-41.5 -49.5t-17.5 -60.5t-4.5 -73.5z" />
    <glyph glyph-name="sterling" unicode="&#xa3;" horiz-adv-x="556" 
d="M528 15q0 -15 -17 -15h-422q-16 0 -16 13v9q0 10 9 15q67 38 92 74t25 76q0 37 -22 103h-87q-17 0 -17 15v10q0 15 17 15h75q-32 102 -32 171q0 187 207 187q82 0 143 -20q14 -6 14 -15q0 -5 -5 -20q-3 -9 -10 -9q-8 0 -21 5q-56 18 -126 18q-85 -1 -121 -37.5
t-36 -103.5q0 -64 35 -176h219q17 0 17 -15v-10q0 -15 -17 -15h-207q17 -68 17 -103q0 -91 -91 -146h360q17 0 17 -15v-11z" />
    <glyph glyph-name="currency" unicode="&#xa4;" horiz-adv-x="538" 
d="M462 127q-5 -5 -10 -5t-11 6l-54 51q-52 -40 -119 -40q-69 0 -121 40l-49 -51q-7 -7 -12 -7q-6 0 -12 6l-8 8q-6 6 -6 11q0 6 6 12l53 53q-41 52 -41 121q0 65 41 119l-53 53q-6 6 -6 11t7 12l8 8q6 6 10 6q7 0 11 -6l52 -53q52 42 120 42q71 0 118 -41l53 52q6 6 11 6
t11 -6l8 -8q6 -6 6 -11t-6 -11l-53 -53q41 -49 41 -120t-41 -120l55 -54q5 -5 5 -11t-6 -12zM415 332q0 65 -42 107.5t-105 42.5q-62 0 -105 -43t-43 -106q0 -66 42.5 -109t105.5 -43t105 42.5t42 108.5z" />
    <glyph glyph-name="yen" unicode="&#xa5;" horiz-adv-x="563" 
d="M462 348h-129l-30 -48v-46h159q17 0 17 -15v-6q0 -15 -17 -15h-159v-204q0 -17 -16 -17h-12q-16 0 -16 17v204h-154q-17 0 -17 15v6q0 15 17 15h154v46l-31 48h-123q-17 0 -17 15v6q0 15 17 15h100l-160 250q-14 22 -14 29q0 13 14 13h12q13 0 23 -15q169 -266 202 -323
q38 65 197 318q6 9 10.5 13.5t8 5.5t9.5 1h11q14 0 14 -10t-10 -24l-166 -258h106q17 0 17 -15v-6q0 -15 -17 -15z" />
    <glyph glyph-name="brokenbar" unicode="&#xa6;" horiz-adv-x="221" 
d="M123 428q0 -17 -16 -17h-10q-16 0 -16 17v273q0 17 17 17h10q15 0 15 -17v-273zM123 -1q0 -17 -16 -17h-10q-16 0 -16 17v273q0 17 17 17h10q15 0 15 -17v-273z" />
    <glyph glyph-name="section" unicode="&#xa7;" horiz-adv-x="479" 
d="M340 100q32 -24 46.5 -47t14.5 -68q0 -60 -37.5 -103.5t-132.5 -43.5q-104 0 -169 34q-6 3 -6 9q0 9 10 26q2 4 9 4q3 0 15 -6q61 -26 143 -26q123 0 123 104q0 45 -25 69.5t-108 65.5l-51 25q-77 38 -101 70t-24 82q0 108 109 137q-55 40 -55 116q0 22 6 43.5t21 46.5
t49 40.5t83 15.5q80 0 127 -19q6 -2 6 -10q0 -15 -10 -28q-3 -3 -7 -3q-5 0 -20 5q-42 14 -104 14q-56 0 -81.5 -28.5t-25.5 -73.5q0 -44 22.5 -69t90.5 -59l60 -30q72 -36 96 -68.5t24 -89.5q0 -53 -28 -87.5t-70 -47.5zM393 236q0 42 -20 67t-71 50q-65 33 -90 44
q-16 7 -25 7q-11 0 -21 -3q-74 -19 -74 -106q0 -35 17.5 -57t61.5 -45q57 -30 120 -58q10 -4 19 -4t20 4q27 11 45 38t18 63z" />
    <glyph glyph-name="dieresis" unicode="&#xa8;" horiz-adv-x="197" 
d="M45 665q0 -36 -33 -36t-33 35q0 36 33 36t33 -35zM217 665q0 -36 -33 -36t-33 35q0 36 33 36t33 -35z" />
    <glyph glyph-name="copyright" unicode="&#xa9;" horiz-adv-x="830" 
d="M769 345q0 -155 -98 -257t-257 -102t-257 102t-98 257t98 257.5t256 102.5q163 0 259.5 -101.5t96.5 -258.5zM733 345q0 142 -87.5 234.5t-232.5 92.5q-143 0 -230 -93t-87 -234t87 -233.5t231 -92.5t231.5 92t87.5 234zM271 347q0 -41 5 -70.5t18.5 -58t42.5 -43.5
t72 -15q65 0 107 16q15 6 20 6q6 0 12 -14q3 -8 3 -12q0 -9 -13 -14q-52 -23 -129 -23q-90 0 -137.5 49.5t-47.5 168.5t49.5 175.5t156.5 56.5q60 0 97 -9q15 -2 15 -14q0 -5 -4 -21q-4 -7 -10 -7t-20 3q-33 7 -83 7t-82.5 -14.5t-47 -43t-19.5 -56t-5 -67.5z" />
    <glyph glyph-name="ordfeminine" unicode="&#xaa;" horiz-adv-x="345" 
d="M244 288q-35 -31 -96 -31q-108 0 -108 97q0 48 40 70q32 18 95 18q36 0 68 -4v33q0 31 -5 41q-11 27 -70 27q-42 0 -73 -7q-4 0 -11 -2t-10 -2q-6 0 -8 7q-3 7 -3 18q0 7 9 10q44 13 103 13q65 0 90 -23q18 -18 18 -76v-201q0 -8 -2.5 -10.5t-9.5 -2.5h-13q-12 0 -13 8z
M243 408q-14 2 -63 2q-60 0 -82 -16q-18 -14 -18 -40q0 -30 16.5 -46.5t60.5 -16.5q45 0 71 16q7 5 11 11q4 5 4 14v76z" />
    <glyph glyph-name="guillemotleft" unicode="&#xab;" horiz-adv-x="452" 
d="M90 264l131 -166q11 -14 11 -22q0 -10 -12 -10h-11q-3 0 -5 0.5t-4.5 1.5t-4 2t-4 3.5t-3 3.5t-4 5t-4.5 5l-125 153q-13 15 -13 23t8 19l130 160q1 1 4.5 5t4 5t3 3.5t4 3.5t4 2t4.5 1.5t5 0.5h11q12 0 12 -10q0 -8 -11 -22zM267 264l131 -166q11 -14 11 -22
q0 -10 -12 -10h-11q-3 0 -5 0.5t-4.5 1.5t-4 2t-4 3.5t-3 3.5t-4 5t-4.5 5l-125 153q-13 15 -13 23t8 19l130 160q1 1 4.5 5t4 5t3 3.5t4 3.5t4 2t4.5 1.5t5 0.5h11q12 0 12 -10q0 -8 -11 -22z" />
    <glyph glyph-name="logicalnot" unicode="&#xac;" horiz-adv-x="701" 
d="M601 48q0 -13 -12 -13h-16q-13 0 -13 13v225h-465q-14 0 -14 14v16q0 14 14 14h494q12 0 12 -14v-255z" />
    <glyph glyph-name="uni00AD" unicode="&#xad;" horiz-adv-x="289" 
d="M239 245h-189q-14 0 -14 12v18q0 14 15 14h187q15 0 15 -14v-18q0 -12 -14 -12z" />
    <glyph glyph-name="registered" unicode="&#xae;" horiz-adv-x="830" 
d="M769 345q0 -155 -98 -257t-257 -102t-257 102t-98 257t98 257.5t256 102.5q163 0 259.5 -101.5t96.5 -258.5zM733 345q0 142 -87.5 234.5t-232.5 92.5q-143 0 -230 -93t-87 -234t87 -233.5t231 -92.5t231.5 92t87.5 234zM328 142q0 -13 -14 -13h-16q-14 0 -14 13v410
q0 20 19 20h85q81 0 115 -14q60 -25 60 -111q0 -91 -82 -117q-1 -1 -3 -1l104 -173q6 -15 6 -16q0 -11 -12 -11h-20q-12 0 -20 15l-103 177q-12 -1 -41 -1h-64v-178zM328 358h68q59 0 80 10q20 8 32.5 29.5t12.5 48.5q0 62 -43 78q-22 9 -86 9h-64v-175z" />
    <glyph glyph-name="macron" unicode="&#xaf;" horiz-adv-x="197" 
d="M212 619h-228q-14 0 -14 12v18q0 14 15 14h226q15 0 15 -14v-18q0 -12 -14 -12z" />
    <glyph glyph-name="degree" unicode="&#xb0;" horiz-adv-x="336" 
d="M306 575q0 -65 -38 -101.5t-101 -36.5q-61 0 -98.5 36t-37.5 101t38.5 101.5t102.5 36.5q63 0 98.5 -35.5t35.5 -101.5zM263 574q0 50 -24.5 75.5t-68.5 25.5t-69 -26.5t-25 -76.5q0 -47 25.5 -72.5t69.5 -25.5q43 0 67.5 26t24.5 74z" />
    <glyph glyph-name="plusminus" unicode="&#xb1;" horiz-adv-x="701" 
d="M371 134q0 -13 -13 -13h-17q-12 0 -12 13v220h-226q-13 0 -13 13v16q0 13 13 13h225v217q0 14 13 14h17q13 0 13 -14v-217h226q14 0 14 -13v-16q0 -13 -14 -13h-226v-220zM611 14q0 -14 -14 -14h-494q-13 0 -13 14v15q0 14 13 14h494q14 0 14 -14v-15z" />
    <glyph glyph-name="twosuperior" unicode="&#xb2;" 
d="M309 420h-263q-12 0 -12 10v13q0 9 6 14l27 21l31 23l27 21q19 15 30 25l27 22q15 13 27 25t22 23q42 45 42 101q0 84 -103 84q-42 0 -78 -12q-18 -6 -21 -6q-7 0 -9 6q-4 14 -4 19q0 9 15 14q42 17 104 17q77 0 107 -30.5t30 -86.5q0 -73 -42 -119q-65 -70 -179 -147
q38 1 216 1q12 0 12 -11v-16q0 -11 -12 -11z" />
    <glyph glyph-name="threesuperior" unicode="&#xb3;" 
d="M216 638q88 -8 88 -102q0 -64 -36.5 -94t-114.5 -30q-61 0 -98 12q-16 5 -16 13q0 1 5 21q3 5 10 5q2 0 5 -1t8 -2t8 -2q34 -9 77 -9q68 0 89.5 23t21.5 62q0 42 -25.5 62.5t-88.5 20.5h-14q-12 0 -12 12v13q0 12 12 12h14q103 0 103 73q0 42 -20.5 58.5t-74.5 16.5
q-44 0 -73 -11q-18 -6 -22 -6q-6 0 -9 7q-3 9 -3 18t15 14q50 16 99 16q77 0 103.5 -26t26.5 -85q0 -73 -78 -91z" />
    <glyph glyph-name="acute" unicode="&#xb4;" horiz-adv-x="197" 
d="M55 589q-8 -9 -19 -9h-16q-9 0 -9 9q0 6 4 10l112 138q7 10 19 10h29q10 0 10 -9q0 -7 -7 -14z" />
    <glyph glyph-name="mu" unicode="&#xb5;" horiz-adv-x="595" 
d="M151 18v-206q0 -16 -16 -16h-11q-16 0 -16 16v670q0 16 16 16h10q16 0 16 -16v-327q0 -57 9 -80q8 -23 32 -34.5t77 -11.5q100 0 156 28q14 5 17 11q5 7 5 23v391q0 16 16 16h10q16 0 16 -16v-471q0 -14 -17 -14h-9q-14 0 -15 19l-1 18q-24 -23 -79 -34t-107 -11
q-79 0 -109 29z" />
    <glyph glyph-name="paragraph" unicode="&#xb6;" horiz-adv-x="553" 
d="M309 -111q0 -17 -16 -17h-10q-16 0 -16 17v354q-113 0 -167 60.5t-54 161.5q0 118 57.5 179.5t207.5 61.5h127q23 0 23 -21v-796q0 -17 -16 -17h-10q-16 0 -16 17v776h-110v-776z" />
    <glyph glyph-name="periodcentered" unicode="&#xb7;" horiz-adv-x="200" 
d="M137 269q0 -37 -37 -37t-37 37t37 37t37 -37z" />
    <glyph glyph-name="cedilla" unicode="&#xb8;" horiz-adv-x="197" 
d="M86 -66q57 0 76.5 -21t19.5 -60q0 -86 -106 -86q-26 0 -48 6q-9 4 -9 12t2 14q4 9 12 9l12 -2q20 -4 33 -4q63 0 63 48q0 26 -13.5 37.5t-43.5 11.5q-3 0 -11 -0.5t-9 -0.5q-15 0 -15 16q0 3 1.5 12t1.5 12l13 72h33z" />
    <glyph glyph-name="onesuperior" unicode="&#xb9;" 
d="M176 787l-63 -27q-8 -4 -13 -4t-8 6q-7 17 -7 19q0 6 8 9l82 37q12 5 19 5h11q12 0 12 -11v-390q0 -12 -12 -12h-17q-12 0 -12 12v356z" />
    <glyph glyph-name="ordmasculine" unicode="&#xba;" horiz-adv-x="360" 
d="M320 418q0 -93 -33.5 -127.5t-108.5 -34.5q-72 0 -105 34t-33 126t36.5 126t105.5 34q75 0 106.5 -30.5t31.5 -127.5zM278 416q0 76 -20 99.5t-77 23.5q-52 0 -76 -24.5t-24 -96.5q0 -77 22.5 -101.5t76.5 -24.5q53 0 75.5 23.5t22.5 100.5z" />
    <glyph glyph-name="guillemotright" unicode="&#xbb;" horiz-adv-x="452" 
d="M362 265l-131 166q-11 14 -11 22q0 10 12 10h11q3 0 5 -0.5t4.5 -1.5t4 -2t4 -3.5t3 -3.5t4 -5t4.5 -5l125 -153q13 -15 13 -23t-8 -19l-130 -160q-1 -1 -4.5 -5t-4 -5t-3 -3.5t-4 -3.5t-4 -2t-4.5 -1.5t-5 -0.5h-11q-12 0 -12 10q0 8 11 22zM185 265l-131 166
q-11 14 -11 22q0 10 12 10h11q3 0 5 -0.5t4.5 -1.5t4 -2t4 -3.5t3 -3.5t4 -5t4.5 -5l125 -153q13 -15 13 -23t-8 -19l-130 -160q-1 -1 -4.5 -5t-4 -5t-3 -3.5t-4 -3.5t-4 -2t-4.5 -1.5t-5 -0.5h-11q-12 0 -12 10q0 8 11 22z" />
    <glyph glyph-name="onequarter" unicode="&#xbc;" horiz-adv-x="836" 
d="M244 -16q-9 -16 -21 -16h-12q-10 0 -10 12q2 8 6 17l333 692q11 22 23 22h11q13 0 13 -12q-1 -8 -10 -25zM189 631l-63 -27q-8 -4 -13 -4t-8 6q-7 17 -7 19q0 6 8 9l82 37q12 5 19 5h11q12 0 12 -11v-390q0 -12 -12 -12h-17q-12 0 -12 12v356zM677 11q0 -12 -13 -12h-15
q-12 0 -12 12v99h-194q-13 0 -13 11v12q0 9 5 17l148 248q9 14 18 14h15q11 0 11 -8q0 -6 -5 -15l-146 -242h161v107q0 13 12 13h16q12 0 12 -12v-108h61q13 0 13 -11v-15q0 -11 -13 -11h-61v-99z" />
    <glyph glyph-name="onehalf" unicode="&#xbd;" horiz-adv-x="836" 
d="M231 -16q-9 -16 -21 -16h-12q-10 0 -10 12q2 8 6 17l333 692q11 22 23 22h11q13 0 13 -12q-1 -8 -10 -25zM178 631l-63 -27q-8 -4 -13 -4t-8 6q-7 17 -7 19q0 6 8 9l82 37q12 5 19 5h11q12 0 12 -11v-390q0 -12 -12 -12h-17q-12 0 -12 12v356zM735 0h-263q-12 0 -12 10
v13q0 9 6 14l27 21l30 23l28 21q19 15 30 25l26 22q16 13 28 25t22 23q42 45 42 101q0 84 -103 84q-42 0 -78 -12q-18 -6 -21 -6q-7 0 -9 6q-4 14 -4 19q0 9 15 14q42 17 104 17q77 0 107 -30.5t30 -86.5q0 -73 -42 -119q-65 -70 -179 -147q38 1 216 1q12 0 12 -11v-16
q0 -11 -12 -11z" />
    <glyph glyph-name="threequarters" unicode="&#xbe;" horiz-adv-x="836" 
d="M295 -16q-9 -16 -21 -16h-12q-10 0 -10 12q2 8 6 17l333 692q11 22 23 22h11q13 0 13 -12q-1 -8 -10 -25zM255 482q88 -8 88 -102q0 -64 -36.5 -94t-114.5 -30q-60 0 -98 12q-16 5 -16 13q0 1 5 21q3 5 10 5q2 0 5 -1t8 -2t8 -2q34 -9 77 -9q68 0 89.5 23t21.5 62
q0 42 -25.5 62.5t-88.5 20.5h-14q-12 0 -12 12v13q0 12 12 12h14q103 0 103 73q0 42 -20.5 58.5t-74.5 16.5q-44 0 -73 -11q-18 -6 -22 -6q-5 0 -9 7q-3 9 -3 18t15 14q50 16 99 16q77 0 103.5 -26t26.5 -85q0 -73 -78 -91zM722 11q0 -12 -13 -12h-15q-12 0 -12 12v99h-194
q-13 0 -13 11v12q0 9 5 17l148 248q9 14 18 14h15q11 0 11 -8q0 -6 -5 -15l-146 -242h161v107q0 13 12 13h16q12 0 12 -12v-108h61q13 0 13 -11v-15q0 -11 -13 -11h-61v-99z" />
    <glyph glyph-name="questiondown" unicode="&#xbf;" horiz-adv-x="389" 
d="M223 294h11q14 0 14 -14q1 -26 1 -55q0 -55 -17 -84.5t-67 -61.5q-50 -31 -68.5 -64.5t-18.5 -84.5q0 -109 123 -109q69 0 120 16q9 3 14 3q7 0 10 -7q4 -10 4 -19q0 -8 -8 -11q-54 -24 -142 -24q-166 0 -166 148q0 64 20 99t78 77q47 34 60.5 54.5t15.5 64.5q1 24 1 58
q0 14 15 14zM196 469q0 37 37 37t37 -37t-37 -37t-37 37z" />
    <glyph glyph-name="Agrave" unicode="&#xc0;" horiz-adv-x="573" 
d="M142 243l-83 -224q-8 -22 -22 -22h-11q-17 0 -17 13q0 5 7 24l245 659q7 16 19 16h11q15 0 21 -16l245 -659q7 -17 7 -24q0 -13 -16 -13h-11q-9 0 -13 5t-10 19l-83 222h-289zM157 284h259l-130 354q-28 -82 -129 -354zM296 772l-156 111q-10 7 -10 16q0 10 12 10h32
q13 0 24 -10l142 -112q8 -6 8 -14q0 -10 -11 -10h-16q-13 0 -25 9z" />
    <glyph glyph-name="Aacute" unicode="&#xc1;" horiz-adv-x="573" 
d="M142 243l-83 -224q-8 -22 -22 -22h-11q-17 0 -17 13q0 5 7 24l245 659q7 16 19 16h11q15 0 21 -16l245 -659q7 -17 7 -24q0 -13 -16 -13h-11q-9 0 -13 5t-10 19l-83 222h-289zM157 284h259l-130 354q-28 -82 -129 -354zM262 763q-12 -9 -25 -9h-16q-11 0 -11 10q0 8 8 14
l142 112q11 10 24 10h32q12 0 12 -10q0 -8 -10 -16z" />
    <glyph glyph-name="Acircumflex" unicode="&#xc2;" horiz-adv-x="573" 
d="M142 243l-83 -224q-8 -22 -22 -22h-11q-17 0 -17 13q0 5 7 24l245 659q7 16 19 16h11q15 0 21 -16l245 -659q7 -17 7 -24q0 -13 -16 -13h-11q-9 0 -13 5t-10 19l-83 222h-289zM157 284h259l-130 354q-28 -82 -129 -354zM170 763h-13q-10 0 -10 10q0 5 6 13l108 102
q12 12 24 12h12q10 0 22 -10l111 -106q4 -4 4 -11q0 -10 -13 -10h-11q-10 0 -24 11l-97 77l-94 -76q-15 -12 -25 -12z" />
    <glyph glyph-name="Atilde" unicode="&#xc3;" horiz-adv-x="573" 
d="M142 243l-83 -224q-8 -22 -22 -22h-11q-17 0 -17 13q0 5 7 24l245 659q7 16 19 16h11q15 0 21 -16l245 -659q7 -17 7 -24q0 -13 -16 -13h-11q-9 0 -13 5t-10 19l-83 222h-289zM157 284h259l-130 354q-28 -82 -129 -354zM179 780h-9q-12 0 -12 11q0 9 5 19q29 69 80 69
q23 0 81 -31q44 -24 66 -24q14 0 24 8t20 35q6 17 18 17h11q12 0 12 -10q0 -8 -4 -19q-15 -43 -34 -60t-48 -17q-28 0 -80 27q-53 28 -71 28q-14 0 -22 -8t-18 -32q-5 -13 -19 -13z" />
    <glyph glyph-name="Adieresis" unicode="&#xc4;" horiz-adv-x="573" 
d="M142 243l-83 -224q-8 -22 -22 -22h-11q-17 0 -17 13q0 5 7 24l245 659q7 16 19 16h11q15 0 21 -16l245 -659q7 -17 7 -24q0 -13 -16 -13h-11q-9 0 -13 5t-10 19l-83 222h-289zM157 284h259l-130 354q-28 -82 -129 -354zM230 815q0 -36 -33 -36t-33 35q0 36 33 36t33 -35z
M412 815q0 -36 -33 -36t-33 35q0 36 33 36t33 -35z" />
    <glyph glyph-name="Aring" unicode="&#xc5;" horiz-adv-x="573" 
d="M142 243l-83 -224q-8 -22 -22 -22h-11q-17 0 -17 13q0 5 7 24l245 659q7 16 19 16h11q15 0 21 -16l245 -659q7 -17 7 -24q0 -13 -16 -13h-11q-9 0 -13 5t-10 19l-83 222h-289zM157 284h259l-130 354q-28 -82 -129 -354zM374 824q0 -42 -24.5 -65t-65.5 -23
q-39 0 -62.5 23t-23.5 65t24.5 66t64.5 24q41 0 64 -23.5t23 -66.5zM343 825q0 60 -58 60q-26 0 -41.5 -15.5t-15.5 -44.5t15.5 -45t42.5 -16t42 16t15 45z" />
    <glyph glyph-name="AE" unicode="&#xc6;" horiz-adv-x="934" 
d="M216 253l-157 -237q-12 -19 -27 -19h-15q-13 0 -13 12q0 5 12 24l444 657q10 16 32 16h370q17 0 17 -15v-11q0 -15 -17 -15h-326v-276h294q17 0 17 -15v-11q0 -15 -17 -15h-294v-307h340q17 0 17 -15v-11q0 -15 -17 -15h-369q-16 0 -16 17v236h-275zM243 294h248v374z
" />
    <glyph glyph-name="Ccedilla" unicode="&#xc7;" horiz-adv-x="603" 
d="M342 -68q62 0 83 -22t21 -62q0 -89 -115 -89q-25 0 -51 6q-11 3 -11 13q0 8 2 14q4 10 13 10q4 0 13 -3q22 -4 36 -4q69 0 69 50q0 26 -14.5 38t-47.5 12q-4 0 -13 -0.5t-10 -0.5q-16 0 -16 17q0 9 4 27l9 50q-126 5 -185 85t-59 269q0 202 63.5 289.5t232.5 87.5
q91 0 158 -15q23 -5 23 -19q0 -8 -4 -19q-3 -8 -14 -8q-4 0 -32 6q-54 13 -155 13q-61 0 -104 -19.5t-66 -48t-36 -75t-16 -84.5t-3 -93q0 -39 1 -66.5t5.5 -64.5t13 -62.5t24.5 -53t38 -44t55.5 -27t75.5 -10.5q105 0 186 31q21 9 28 9q8 0 14 -15q3 -7 3 -11
q0 -10 -21 -19q-79 -34 -189 -37z" />
    <glyph glyph-name="Egrave" unicode="&#xc8;" horiz-adv-x="553" 
d="M495 0h-369q-16 0 -16 17v672q0 16 14 17h357q17 0 17 -15v-11q0 -15 -17 -15h-326v-276h294q17 0 17 -15v-11q0 -15 -17 -15h-294v-307h340q17 0 17 -15v-11q0 -15 -17 -15zM317 772l-156 111q-10 7 -10 16q0 10 12 10h32q13 0 24 -10l142 -112q8 -6 8 -14
q0 -10 -11 -10h-16q-13 0 -25 9z" />
    <glyph glyph-name="Eacute" unicode="&#xc9;" horiz-adv-x="553" 
d="M495 0h-369q-16 0 -16 17v672q0 16 14 17h357q17 0 17 -15v-11q0 -15 -17 -15h-326v-276h294q17 0 17 -15v-11q0 -15 -17 -15h-294v-307h340q17 0 17 -15v-11q0 -15 -17 -15zM262 763q-12 -9 -25 -9h-16q-11 0 -11 10q0 8 8 14l142 112q11 10 24 10h32q12 0 12 -10
q0 -8 -10 -16z" />
    <glyph glyph-name="Ecircumflex" unicode="&#xca;" horiz-adv-x="553" 
d="M495 0h-369q-16 0 -16 17v672q0 16 14 17h357q17 0 17 -15v-11q0 -15 -17 -15h-326v-276h294q17 0 17 -15v-11q0 -15 -17 -15h-294v-307h340q17 0 17 -15v-11q0 -15 -17 -15zM187 763h-13q-10 0 -10 10q0 5 6 13l108 102q12 12 24 12h12q10 0 22 -10l111 -106q4 -4 4 -11
q0 -10 -13 -10h-11q-10 0 -24 11l-97 77l-94 -76q-15 -12 -25 -12z" />
    <glyph glyph-name="Edieresis" unicode="&#xcb;" horiz-adv-x="553" 
d="M495 0h-369q-16 0 -16 17v672q0 16 14 17h357q17 0 17 -15v-11q0 -15 -17 -15h-326v-276h294q17 0 17 -15v-11q0 -15 -17 -15h-294v-307h340q17 0 17 -15v-11q0 -15 -17 -15zM251 815q0 -36 -33 -36t-33 35q0 36 33 36t33 -35zM433 815q0 -36 -33 -36t-33 35q0 36 33 36
t33 -35z" />
    <glyph glyph-name="Igrave" unicode="&#xcc;" horiz-adv-x="265" 
d="M155 14q0 -17 -16 -17h-13q-16 0 -16 17v678q0 17 17 17h13q15 0 15 -17v-678zM149 772l-156 111q-10 7 -10 16q0 10 12 10h32q13 0 24 -10l142 -112q8 -6 8 -14q0 -10 -11 -10h-16q-13 0 -25 9z" />
    <glyph glyph-name="Iacute" unicode="&#xcd;" horiz-adv-x="265" 
d="M155 14q0 -17 -16 -17h-13q-16 0 -16 17v678q0 17 17 17h13q15 0 15 -17v-678zM111 772q-12 -9 -25 -9h-16q-11 0 -11 10q0 8 8 14l142 112q11 10 24 10h32q12 0 12 -10q0 -9 -10 -16z" />
    <glyph glyph-name="Icircumflex" unicode="&#xce;" horiz-adv-x="265" 
d="M155 14q0 -17 -16 -17h-13q-16 0 -16 17v678q0 17 17 17h13q15 0 15 -17v-678zM12 763h-13q-10 0 -10 10q0 5 6 13l108 102q12 12 24 12h12q10 0 22 -10l111 -106q4 -4 4 -11q0 -10 -13 -10h-11q-10 0 -24 11l-97 77l-94 -76q-15 -12 -25 -12z" />
    <glyph glyph-name="Idieresis" unicode="&#xcf;" horiz-adv-x="265" 
d="M155 14q0 -17 -16 -17h-13q-16 0 -16 17v678q0 17 17 17h13q15 0 15 -17v-678zM75 815q0 -36 -33 -36t-33 35q0 36 33 36t33 -35zM257 815q0 -36 -33 -36t-33 35q0 36 33 36t33 -35z" />
    <glyph glyph-name="Eth" unicode="&#xd0;" horiz-adv-x="703" 
d="M270 0h-144q-16 0 -16 17v331h-69q-14 0 -14 12v15q0 14 15 14h68v300q0 17 14 17h152q113 0 177 -19q180 -52 180 -326q0 -268 -185 -337q-64 -24 -178 -24zM155 41h122q110 0 168 26q141 63 141 295q0 217 -129 277q-55 26 -181 26h-121v-276h211q15 0 15 -14v-15
q0 -12 -14 -12h-212v-307z" />
    <glyph glyph-name="Ntilde" unicode="&#xd1;" horiz-adv-x="705" 
d="M154 14q0 -17 -16 -17h-12q-16 0 -16 17v678q0 17 17 17h13q11 0 16 -9q306 -469 396 -617q-1 71 -1 609q0 17 17 17h12q15 0 15 -17v-678q0 -17 -17 -17h-9q-13 0 -23 15q-341 527 -393 615q1 -102 1 -613zM215 780h-9q-12 0 -12 11q0 9 5 19q29 69 80 69q23 0 81 -31
q44 -24 66 -24q14 0 24 8t20 35q6 17 18 17h11q12 0 12 -10q0 -8 -4 -19q-15 -43 -34 -60t-48 -17q-28 0 -80 27q-53 28 -71 28q-14 0 -22 -8t-18 -32q-5 -13 -19 -13z" />
    <glyph glyph-name="Ograve" unicode="&#xd2;" horiz-adv-x="695" 
d="M625 358q0 -145 -31.5 -227t-90.5 -113t-159 -31q-97 0 -154.5 30.5t-88.5 112.5t-31 227q0 109 20.5 182.5t60.5 111.5t87.5 53t113.5 15q59 0 99 -8t75.5 -30.5t55.5 -62.5t31.5 -104t11.5 -156zM578 357q0 83 -8.5 139t-24 92t-45 55.5t-64 26.5t-87.5 7
q-60 0 -100 -13t-71.5 -47t-46 -97.5t-14.5 -161.5q0 -104 14 -170t45 -100.5t69.5 -46.5t99.5 -12q60 0 99 11.5t71.5 45t47.5 100t15 171.5zM378 772l-156 111q-10 7 -10 16q0 10 12 10h32q13 0 24 -10l142 -112q8 -6 8 -14q0 -10 -11 -10h-16q-13 0 -25 9z" />
    <glyph glyph-name="Oacute" unicode="&#xd3;" horiz-adv-x="695" 
d="M625 358q0 -145 -31.5 -227t-90.5 -113t-159 -31q-97 0 -154.5 30.5t-88.5 112.5t-31 227q0 109 20.5 182.5t60.5 111.5t87.5 53t113.5 15q59 0 99 -8t75.5 -30.5t55.5 -62.5t31.5 -104t11.5 -156zM578 357q0 83 -8.5 139t-24 92t-45 55.5t-64 26.5t-87.5 7
q-60 0 -100 -13t-71.5 -47t-46 -97.5t-14.5 -161.5q0 -104 14 -170t45 -100.5t69.5 -46.5t99.5 -12q60 0 99 11.5t71.5 45t47.5 100t15 171.5zM325 772q-12 -9 -25 -9h-16q-11 0 -11 10q0 8 8 14l142 112q11 10 24 10h32q12 0 12 -10q0 -9 -10 -16z" />
    <glyph glyph-name="Ocircumflex" unicode="&#xd4;" horiz-adv-x="695" 
d="M625 358q0 -145 -31.5 -227t-90.5 -113t-159 -31q-97 0 -154.5 30.5t-88.5 112.5t-31 227q0 109 20.5 182.5t60.5 111.5t87.5 53t113.5 15q59 0 99 -8t75.5 -30.5t55.5 -62.5t31.5 -104t11.5 -156zM578 357q0 83 -8.5 139t-24 92t-45 55.5t-64 26.5t-87.5 7
q-60 0 -100 -13t-71.5 -47t-46 -97.5t-14.5 -161.5q0 -104 14 -170t45 -100.5t69.5 -46.5t99.5 -12q60 0 99 11.5t71.5 45t47.5 100t15 171.5zM228 763h-13q-10 0 -10 10q0 5 6 13l108 102q12 12 24 12h12q10 0 22 -10l111 -106q4 -4 4 -11q0 -10 -13 -10h-11q-10 0 -24 11
l-97 77l-94 -76q-15 -12 -25 -12z" />
    <glyph glyph-name="Otilde" unicode="&#xd5;" horiz-adv-x="695" 
d="M625 358q0 -145 -31.5 -227t-90.5 -113t-159 -31q-97 0 -154.5 30.5t-88.5 112.5t-31 227q0 109 20.5 182.5t60.5 111.5t87.5 53t113.5 15q59 0 99 -8t75.5 -30.5t55.5 -62.5t31.5 -104t11.5 -156zM578 357q0 83 -8.5 139t-24 92t-45 55.5t-64 26.5t-87.5 7
q-60 0 -100 -13t-71.5 -47t-46 -97.5t-14.5 -161.5q0 -104 14 -170t45 -100.5t69.5 -46.5t99.5 -12q60 0 99 11.5t71.5 45t47.5 100t15 171.5zM211 780h-9q-12 0 -12 11q0 9 5 19q29 69 80 69q23 0 81 -31q44 -24 66 -24q14 0 24 8t20 35q6 17 18 17h11q12 0 12 -10
q0 -8 -4 -19q-15 -43 -34 -60t-48 -17q-28 0 -80 27q-53 28 -71 28q-14 0 -22 -8t-18 -32q-5 -13 -19 -13z" />
    <glyph glyph-name="Odieresis" unicode="&#xd6;" horiz-adv-x="695" 
d="M625 358q0 -145 -31.5 -227t-90.5 -113t-159 -31q-97 0 -154.5 30.5t-88.5 112.5t-31 227q0 109 20.5 182.5t60.5 111.5t87.5 53t113.5 15q59 0 99 -8t75.5 -30.5t55.5 -62.5t31.5 -104t11.5 -156zM578 357q0 83 -8.5 139t-24 92t-45 55.5t-64 26.5t-87.5 7
q-60 0 -100 -13t-71.5 -47t-46 -97.5t-14.5 -161.5q0 -104 14 -170t45 -100.5t69.5 -46.5t99.5 -12q60 0 99 11.5t71.5 45t47.5 100t15 171.5zM287 815q0 -36 -33 -36t-33 35q0 36 33 36t33 -35zM469 815q0 -36 -33 -36t-33 35q0 36 33 36t33 -35z" />
    <glyph glyph-name="multiply" unicode="&#xd7;" horiz-adv-x="701" 
d="M549 128q5 -5 5 -9t-5 -9l-12 -13q-6 -6 -9 -6q-4 0 -9 5l-170 167l-169 -169q-6 -4 -9 -4q-5 0 -9 4l-12 13q-4 6 -4 9q0 6 4 10l170 170l-171 170q-5 5 -5 10q0 4 5 9l12 13q4 4 9 4t9 -4l171 -171l172 171q4 4 9 4q4 0 8 -4l13 -13q4 -6 4 -9q0 -4 -4 -10l-173 -170z
" />
    <glyph glyph-name="Oslash" unicode="&#xd8;" horiz-adv-x="695" 
d="M99 -13q-6 -8 -13 -8t-18 9q-7 6 -7 11t5 12l55 75q-51 85 -51 271q0 109 20.5 182.5t60.5 111.5t87.5 53t113.5 15q135 0 192 -52l44 60q6 9 13 9q6 0 11 -4q14 -9 14 -15q0 -5 -4 -12l-51 -70q54 -81 54 -277q0 -145 -31.5 -227t-90.5 -113t-159 -31q-138 0 -198 65z
M579 357q0 167 -37 238l-369 -506q49 -60 172 -60q60 0 99 11.5t72 45t48 100t15 171.5zM116 358q0 -159 34 -231l367 502q-47 48 -168 48q-60 0 -100 -13t-71.5 -47t-46.5 -97.5t-15 -161.5z" />
    <glyph glyph-name="Ugrave" unicode="&#xd9;" horiz-adv-x="688" 
d="M585 689v-407q0 -85 -5 -126.5t-22 -73.5q-52 -96 -216 -96q-83 0 -136.5 23.5t-80.5 81.5q-22 46 -22 189v409q0 17 17 17h13q15 0 15 -17v-434q0 -114 23 -154q42 -72 173 -72q136 0 172 68q24 45 24 153v439q0 17 17 17h13q15 0 15 -17zM366 772l-156 111
q-10 7 -10 16q0 10 12 10h32q13 0 24 -10l142 -112q8 -6 8 -14q0 -10 -11 -10h-16q-13 0 -25 9z" />
    <glyph glyph-name="Uacute" unicode="&#xda;" horiz-adv-x="688" 
d="M585 689v-407q0 -85 -5 -126.5t-22 -73.5q-52 -96 -216 -96q-83 0 -136.5 23.5t-80.5 81.5q-22 46 -22 189v409q0 17 17 17h13q15 0 15 -17v-434q0 -114 23 -154q42 -72 173 -72q136 0 172 68q24 45 24 153v439q0 17 17 17h13q15 0 15 -17zM321 772q-12 -9 -25 -9h-16
q-11 0 -11 10q0 8 8 14l142 112q11 10 24 10h32q12 0 12 -10q0 -9 -10 -16z" />
    <glyph glyph-name="Ucircumflex" unicode="&#xdb;" horiz-adv-x="688" 
d="M585 689v-407q0 -85 -5 -126.5t-22 -73.5q-52 -96 -216 -96q-83 0 -136.5 23.5t-80.5 81.5q-22 46 -22 189v409q0 17 17 17h13q15 0 15 -17v-434q0 -114 23 -154q42 -72 173 -72q136 0 172 68q24 45 24 153v439q0 17 17 17h13q15 0 15 -17zM225 763h-13q-10 0 -10 10
q0 5 6 13l108 102q12 12 24 12h12q10 0 22 -10l111 -106q4 -4 4 -11q0 -10 -13 -10h-11q-10 0 -24 11l-97 77l-94 -76q-15 -12 -25 -12z" />
    <glyph glyph-name="Udieresis" unicode="&#xdc;" horiz-adv-x="688" 
d="M585 689v-407q0 -85 -5 -126.5t-22 -73.5q-52 -96 -216 -96q-83 0 -136.5 23.5t-80.5 81.5q-22 46 -22 189v409q0 17 17 17h13q15 0 15 -17v-434q0 -114 23 -154q42 -72 173 -72q136 0 172 68q24 45 24 153v439q0 17 17 17h13q15 0 15 -17zM282 815q0 -36 -33 -36t-33 35
q0 36 33 36t33 -35zM464 815q0 -36 -33 -36t-33 35q0 36 33 36t33 -35z" />
    <glyph glyph-name="Yacute" unicode="&#xdd;" horiz-adv-x="541" 
d="M293 15q0 -18 -16 -18h-13q-16 0 -16 18v300l-226 352q-14 22 -14 30q0 5 4 9.5t10 4.5h13q12 0 23 -17q174 -274 214 -341q33 57 210 336q14 22 28 22h10q14 0 14 -10q0 -12 -10 -26l-231 -360v-300zM252 772q-12 -9 -25 -9h-16q-11 0 -11 10q0 8 8 14l142 112
q11 10 24 10h32q12 0 12 -10q0 -9 -10 -16z" />
    <glyph glyph-name="Thorn" unicode="&#xde;" horiz-adv-x="613" 
d="M155 165v-151q0 -17 -16 -17h-13q-16 0 -16 17v678q0 17 17 17h13q15 0 15 -17v-132h123q113 0 166 -21q102 -41 102 -176q0 -149 -132 -185q-46 -13 -131 -13h-128zM155 206h133q94 0 138 19q74 32 74 136q0 106 -74 140q-41 18 -146 18h-125v-313z" />
    <glyph glyph-name="germandbls" unicode="&#xdf;" horiz-adv-x="526" 
d="M141 14q0 -17 -16 -17h-10q-16 0 -16 17v487q0 102 18 138q43 85 167 85q91 0 130.5 -40t39.5 -123q0 -76 -26.5 -114t-83.5 -56q83 -9 114.5 -57.5t31.5 -142.5q0 -106 -46 -153t-136 -47q-50 0 -87 9q-11 2 -11 13q0 5 4 17q3 10 12 10q2 0 8 -2t9 -2q28 -6 65 -6
q77 0 108 37t31 121q0 45 -6 73t-25 54.5t-59 38.5t-102 12h-15q-14 0 -14 12v11q0 14 15 14h15q154 0 154 161q0 121 -129 121q-42 0 -76 -15.5t-48 -43.5q-16 -33 -16 -124v-488z" />
    <glyph glyph-name="agrave" unicode="&#xe0;" horiz-adv-x="525" 
d="M388 39q-56 -52 -157 -52q-172 0 -172 159q0 77 66 112q51 27 149 27q75 0 114 -6v63q0 56 -8 78q-19 50 -120 50q-72 0 -119 -12q-5 -1 -12 -3l-12 -3q-5 -2 -8 -2q-8 0 -10 8q-4 12 -4 17q0 9 13 13q71 21 161 21q96 0 132 -36q18 -18 23.5 -46t5.5 -79v-334
q0 -11 -3.5 -14t-11.5 -3h-9q-14 0 -15 11zM388 243q-40 5 -111 5q-103 0 -143 -31q-32 -25 -32 -72q0 -57 29.5 -88t106.5 -31q78 0 124 31q16 11 20 17q6 7 6 22v147zM272 589l-123 135q-7 7 -7 14q0 9 10 9h29q12 0 19 -10l112 -138q4 -4 4 -10q0 -9 -9 -9h-16
q-11 0 -19 9z" />
    <glyph glyph-name="aacute" unicode="&#xe1;" horiz-adv-x="525" 
d="M388 39q-56 -52 -157 -52q-172 0 -172 159q0 77 66 112q51 27 149 27q75 0 114 -6v63q0 56 -8 78q-19 50 -120 50q-72 0 -119 -12q-5 -1 -12 -3l-12 -3q-5 -2 -8 -2q-8 0 -10 8q-4 12 -4 17q0 9 13 13q71 21 161 21q96 0 132 -36q18 -18 23.5 -46t5.5 -79v-334
q0 -11 -3.5 -14t-11.5 -3h-9q-14 0 -15 11zM388 243q-40 5 -111 5q-103 0 -143 -31q-32 -25 -32 -72q0 -57 29.5 -88t106.5 -31q78 0 124 31q16 11 20 17q6 7 6 22v147zM252 589q-8 -9 -19 -9h-16q-9 0 -9 9q0 6 4 10l112 138q7 10 19 10h29q10 0 10 -9q0 -7 -7 -14z" />
    <glyph glyph-name="acircumflex" unicode="&#xe2;" horiz-adv-x="525" 
d="M388 39q-56 -52 -157 -52q-172 0 -172 159q0 77 66 112q51 27 149 27q75 0 114 -6v63q0 56 -8 78q-19 50 -120 50q-72 0 -119 -12q-5 -1 -12 -3l-12 -3q-5 -2 -8 -2q-8 0 -10 8q-4 12 -4 17q0 9 13 13q71 21 161 21q96 0 132 -36q18 -18 23.5 -46t5.5 -79v-334
q0 -11 -3.5 -14t-11.5 -3h-9q-14 0 -15 11zM388 243q-40 5 -111 5q-103 0 -143 -31q-32 -25 -32 -72q0 -57 29.5 -88t106.5 -31q78 0 124 31q16 11 20 17q6 7 6 22v147zM145 570h-12q-10 0 -10 9q0 7 6 14l100 142q7 12 22 12h13q12 0 19 -10l101 -146q5 -7 5 -12
q0 -9 -10 -9h-11q-12 0 -20 11l-93 119l-90 -117q-9 -13 -20 -13z" />
    <glyph glyph-name="atilde" unicode="&#xe3;" horiz-adv-x="525" 
d="M388 39q-56 -52 -157 -52q-172 0 -172 159q0 77 66 112q51 27 149 27q75 0 114 -6v63q0 56 -8 78q-19 50 -120 50q-72 0 -119 -12q-5 -1 -12 -3l-12 -3q-5 -2 -8 -2q-8 0 -10 8q-4 12 -4 17q0 9 13 13q71 21 161 21q96 0 132 -36q18 -18 23.5 -46t5.5 -79v-334
q0 -11 -3.5 -14t-11.5 -3h-9q-14 0 -15 11zM388 243q-40 5 -111 5q-103 0 -143 -31q-32 -25 -32 -72q0 -57 29.5 -88t106.5 -31q78 0 124 31q16 11 20 17q6 7 6 22v147zM103 609h-9q-11 0 -11 11q0 8 5 18q27 69 76 69q22 0 77 -31q43 -24 64 -24q14 0 23 8t19 35
q6 17 17 17h11q11 0 11 -10q0 -7 -4 -18q-14 -43 -32 -60t-46 -17q-24 0 -77 27q-53 28 -67 28q-13 0 -21.5 -8t-17.5 -32q-5 -13 -18 -13z" />
    <glyph glyph-name="adieresis" unicode="&#xe4;" horiz-adv-x="525" 
d="M388 39q-56 -52 -157 -52q-172 0 -172 159q0 77 66 112q51 27 149 27q75 0 114 -6v63q0 56 -8 78q-19 50 -120 50q-72 0 -119 -12q-5 -1 -12 -3l-12 -3q-5 -2 -8 -2q-8 0 -10 8q-4 12 -4 17q0 9 13 13q71 21 161 21q96 0 132 -36q18 -18 23.5 -46t5.5 -79v-334
q0 -11 -3.5 -14t-11.5 -3h-9q-14 0 -15 11zM388 243q-40 5 -111 5q-103 0 -143 -31q-32 -25 -32 -72q0 -57 29.5 -88t106.5 -31q78 0 124 31q16 11 20 17q6 7 6 22v147zM212 665q0 -36 -33 -36t-33 35q0 36 33 36t33 -35zM384 665q0 -36 -33 -36t-33 35q0 36 33 36t33 -35z
" />
    <glyph glyph-name="aring" unicode="&#xe5;" horiz-adv-x="525" 
d="M388 39q-56 -52 -157 -52q-172 0 -172 159q0 77 66 112q51 27 149 27q75 0 114 -6v63q0 56 -8 78q-19 50 -120 50q-72 0 -119 -12q-5 -1 -12 -3l-12 -3q-5 -2 -8 -2q-8 0 -10 8q-4 12 -4 17q0 9 13 13q71 21 161 21q96 0 132 -36q18 -18 23.5 -46t5.5 -79v-334
q0 -11 -3.5 -14t-11.5 -3h-9q-14 0 -15 11zM388 243q-40 5 -111 5q-103 0 -143 -31q-32 -25 -32 -72q0 -57 29.5 -88t106.5 -31q78 0 124 31q16 11 20 17q6 7 6 22v147zM350 670q0 -44 -26 -68t-69 -24q-41 0 -66 24t-25 68t25.5 69.5t68.5 25.5t67.5 -25t24.5 -70zM318 672
q0 31 -16.5 47.5t-45.5 16.5q-28 0 -44.5 -17t-16.5 -48q0 -30 17 -47.5t45 -17.5t44.5 17.5t16.5 48.5z" />
    <glyph glyph-name="ae" unicode="&#xe6;" horiz-adv-x="850" 
d="M431 245q1 -125 44.5 -172t136.5 -47q72 0 138 24q15 6 21 6q7 0 10 -7q5 -8 5 -16q0 -10 -15 -16q-69 -30 -163 -30q-129 0 -177 71q-73 -71 -200 -71q-172 0 -172 159q0 80 63 112q49 25 154 25q86 0 112 -3v61q0 55 -9 79q-19 50 -119 50q-73 0 -120 -12q-5 -1 -12 -3
l-12 -3q-5 -2 -8 -2q-8 0 -10 8q-3 12 -3 17q0 9 13 13q73 21 161 21q69 0 108.5 -21t46.5 -77q22 48 72 73t115 25q112 0 149.5 -57.5t37.5 -180.5q0 -15 -6 -21q-5 -5 -19 -5h-342zM388 245q-50 4 -109 4q-116 0 -148 -29q-29 -27 -29 -75q0 -57 29 -88t107 -31
q52 0 100 15.5t73 45.5q-23 57 -23 158zM431 282h322q1 9 1 23q0 80 -31.5 122.5t-116.5 42.5q-95 0 -134 -48t-41 -140z" />
    <glyph glyph-name="ccedilla" unicode="&#xe7;" horiz-adv-x="457" 
d="M257 -66q57 0 76.5 -21t19.5 -60q0 -86 -106 -86q-26 0 -48 6q-9 4 -9 12t2 14q4 9 12 9l12 -2q20 -4 33 -4q63 0 63 48q0 26 -13.5 37.5t-43.5 11.5q-3 0 -11 -0.5t-9 -0.5q-15 0 -15 16q0 3 1.5 12t1.5 12l9 50q-86 6 -128.5 64t-42.5 188q0 140 51.5 204.5t170.5 64.5
q64 0 111 -10q17 -4 17 -16q0 -9 -4 -17q-4 -9 -12 -9q-2 0 -22 4q-43 9 -96 9q-56 0 -92.5 -17.5t-53 -52t-22 -68t-5.5 -81.5q0 -39 2 -67t11 -60t24.5 -51.5t44 -33t68.5 -13.5q80 0 132 20q15 6 21 6t10 -8q4 -6 4 -14q0 -11 -15 -17q-56 -24 -141 -26z" />
    <glyph glyph-name="egrave" unicode="&#xe8;" horiz-adv-x="523" 
d="M103 239q1 -124 44 -168.5t137 -44.5q72 0 138 24q15 6 21 6q7 0 10 -7q5 -7 5 -16q0 -10 -15 -16q-69 -30 -163 -30q-120 0 -170 61t-50 199q0 262 223 262q58 0 96 -16.5t57.5 -50t26.5 -73t7 -96.5q0 -23 -6 -29q-5 -5 -19 -5h-342zM103 276h322q1 9 1 29
q0 80 -31.5 122.5t-116.5 42.5q-94 0 -133.5 -50.5t-41.5 -143.5zM280 589l-123 135q-7 7 -7 14q0 9 10 9h29q12 0 19 -10l112 -138q4 -4 4 -10q0 -9 -9 -9h-16q-11 0 -19 9z" />
    <glyph glyph-name="eacute" unicode="&#xe9;" horiz-adv-x="523" 
d="M103 239q1 -124 44 -168.5t137 -44.5q72 0 138 24q15 6 21 6q7 0 10 -7q5 -7 5 -16q0 -10 -15 -16q-69 -30 -163 -30q-120 0 -170 61t-50 199q0 262 223 262q58 0 96 -16.5t57.5 -50t26.5 -73t7 -96.5q0 -23 -6 -29q-5 -5 -19 -5h-342zM103 276h322q1 9 1 29
q0 80 -31.5 122.5t-116.5 42.5q-94 0 -133.5 -50.5t-41.5 -143.5zM250 589q-8 -9 -19 -9h-16q-9 0 -9 9q0 6 4 10l112 138q7 10 19 10h29q10 0 10 -9q0 -7 -7 -14z" />
    <glyph glyph-name="ecircumflex" unicode="&#xea;" horiz-adv-x="523" 
d="M103 239q1 -124 44 -168.5t137 -44.5q72 0 138 24q15 6 21 6q7 0 10 -7q5 -7 5 -16q0 -10 -15 -16q-69 -30 -163 -30q-120 0 -170 61t-50 199q0 262 223 262q58 0 96 -16.5t57.5 -50t26.5 -73t7 -96.5q0 -23 -6 -29q-5 -5 -19 -5h-342zM103 276h322q1 9 1 29
q0 80 -31.5 122.5t-116.5 42.5q-94 0 -133.5 -50.5t-41.5 -143.5zM166 570h-12q-10 0 -10 9q0 7 6 14l100 142q8 12 22 12h13q12 0 19 -10l101 -146q5 -7 5 -12q0 -9 -10 -9h-11q-12 0 -20 11l-93 119l-90 -117q-9 -13 -20 -13z" />
    <glyph glyph-name="edieresis" unicode="&#xeb;" horiz-adv-x="523" 
d="M103 239q1 -124 44 -168.5t137 -44.5q72 0 138 24q15 6 21 6q7 0 10 -7q5 -7 5 -16q0 -10 -15 -16q-69 -30 -163 -30q-120 0 -170 61t-50 199q0 262 223 262q58 0 96 -16.5t57.5 -50t26.5 -73t7 -96.5q0 -23 -6 -29q-5 -5 -19 -5h-342zM103 276h322q1 9 1 29
q0 80 -31.5 122.5t-116.5 42.5q-94 0 -133.5 -50.5t-41.5 -143.5zM207 665q0 -36 -33 -36t-33 35q0 36 33 36t33 -35zM379 665q0 -36 -33 -36t-33 35q0 36 33 36t33 -35z" />
    <glyph glyph-name="igrave" unicode="&#xec;" horiz-adv-x="239" 
d="M120 589l-123 135q-7 7 -7 14q0 9 10 9h29q12 0 19 -10l112 -138q4 -4 4 -10q0 -9 -9 -9h-16q-11 0 -19 9zM141 14q0 -17 -16 -17h-10q-16 0 -16 17v467q0 17 16 17h10q16 0 16 -17v-467z" />
    <glyph glyph-name="iacute" unicode="&#xed;" horiz-adv-x="239" 
d="M141 14q0 -17 -16 -17h-10q-16 0 -16 17v467q0 17 16 17h10q16 0 16 -17v-467zM98 589q-8 -9 -19 -9h-16q-9 0 -9 9q0 6 4 10l112 138q7 10 19 10h29q10 0 10 -9q0 -7 -7 -14z" />
    <glyph glyph-name="icircumflex" unicode="&#xee;" horiz-adv-x="239" 
d="M141 14q0 -17 -16 -17h-10q-16 0 -16 17v467q0 17 16 17h10q16 0 16 -17v-467zM9 570h-12q-10 0 -10 9q0 7 6 14l100 142q7 12 22 12h13q12 0 19 -10l101 -146q5 -7 5 -12q0 -9 -10 -9h-11q-12 0 -20 11l-93 119l-90 -117q-9 -13 -20 -13z" />
    <glyph glyph-name="idieresis" unicode="&#xef;" horiz-adv-x="239" 
d="M66 665q0 -36 -33 -36t-33 35q0 36 33 36t33 -35zM238 665q0 -36 -33 -36t-33 35q0 36 33 36t33 -35zM141 14q0 -17 -16 -17h-10q-16 0 -16 17v467q0 17 16 17h10q16 0 16 -17v-467z" />
    <glyph glyph-name="eth" unicode="&#xf0;" horiz-adv-x="552" 
d="M474 709l-75 -50q58 -64 75.5 -163t17.5 -244q0 -153 -51 -209t-167 -56q-56 0 -93.5 11t-66 40t-41.5 80.5t-13 130.5t16.5 132.5t48.5 81t68.5 38t87.5 10.5q46 0 94.5 -14t66.5 -49q-18 127 -78 188l-98 -64q-11 -7 -15 -7q-5 0 -16 16q-3 4 -3 8q0 6 7 11l95 62
q-59 42 -158 49q-14 2 -14 10q0 6 2 18q2 8 13 8q17 0 28 -1q103 -10 165 -60l80 52q7 5 12 5q4 0 9 -6q10 -12 10 -18q0 -4 -7 -10zM449 248q0 95 -18 143.5t-52.5 64.5t-99.5 16q-92 0 -134 -45t-42 -175q0 -72 10 -117.5t33.5 -69t52.5 -31.5t76 -8q37 0 61 4t47.5 17
t36.5 36.5t21 64.5t8 100z" />
    <glyph glyph-name="ntilde" unicode="&#xf1;" horiz-adv-x="574" 
d="M141 13q0 -16 -16 -16h-10q-16 0 -16 16v474q0 14 17 14h9q8 0 11 -4t4 -15l1 -24q23 26 81 37.5t113 11.5q64 0 93.5 -14.5t41.5 -45.5q9 -24 9 -98v-336q0 -16 -16 -16h-10q-16 0 -16 16v333q0 57 -8 78q-8 23 -29.5 33t-72.5 10q-109 0 -164 -30q-13 -8 -17 -14
q-5 -7 -5 -23v-387zM157 609h-9q-11 0 -11 11q0 8 5 18q27 69 76 69q22 0 77 -31q43 -24 64 -24q14 0 23 8t19 35q6 17 17 17h11q11 0 11 -10q0 -7 -4 -18q-14 -43 -32 -60t-46 -17q-24 0 -77 27q-53 28 -67 28q-13 0 -21.5 -8t-17.5 -32q-5 -13 -18 -13z" />
    <glyph glyph-name="ograve" unicode="&#xf2;" horiz-adv-x="552" 
d="M492 252q0 -153 -51 -209t-167 -56q-56 0 -93.5 11t-66 40t-41.5 80.5t-13 130.5t16 132t48 80t68.5 37.5t87.5 10.5q57 0 93 -9t65 -35.5t41.5 -78t12.5 -134.5zM449 248q0 95 -17 143t-51.5 63.5t-102.5 15.5q-45 0 -75 -8.5t-54 -31.5t-35 -66.5t-11 -111.5
q0 -72 10 -117.5t33.5 -69t52.5 -31.5t76 -8q37 0 61 4t47.5 17t36.5 36.5t21 64.5t8 100zM272 589l-123 135q-7 7 -7 14q0 9 10 9h29q12 0 19 -10l112 -138q4 -4 4 -10q0 -9 -9 -9h-16q-11 0 -19 9z" />
    <glyph glyph-name="oacute" unicode="&#xf3;" horiz-adv-x="552" 
d="M492 252q0 -153 -51 -209t-167 -56q-56 0 -93.5 11t-66 40t-41.5 80.5t-13 130.5t16 132t48 80t68.5 37.5t87.5 10.5q57 0 93 -9t65 -35.5t41.5 -78t12.5 -134.5zM449 248q0 95 -17 143t-51.5 63.5t-102.5 15.5q-45 0 -75 -8.5t-54 -31.5t-35 -66.5t-11 -111.5
q0 -72 10 -117.5t33.5 -69t52.5 -31.5t76 -8q37 0 61 4t47.5 17t36.5 36.5t21 64.5t8 100zM255 589q-8 -9 -19 -9h-16q-9 0 -9 9q0 6 4 10l112 138q7 10 19 10h29q10 0 10 -9q0 -7 -7 -14z" />
    <glyph glyph-name="ocircumflex" unicode="&#xf4;" horiz-adv-x="552" 
d="M492 252q0 -153 -51 -209t-167 -56q-56 0 -93.5 11t-66 40t-41.5 80.5t-13 130.5t16 132t48 80t68.5 37.5t87.5 10.5q57 0 93 -9t65 -35.5t41.5 -78t12.5 -134.5zM449 248q0 95 -17 143t-51.5 63.5t-102.5 15.5q-45 0 -75 -8.5t-54 -31.5t-35 -66.5t-11 -111.5
q0 -72 10 -117.5t33.5 -69t52.5 -31.5t76 -8q37 0 61 4t47.5 17t36.5 36.5t21 64.5t8 100zM165 570h-12q-10 0 -10 9q0 7 6 14l100 142q7 12 22 12h13q12 0 19 -10l101 -146q5 -7 5 -12q0 -9 -10 -9h-11q-12 0 -20 11l-93 119l-90 -117q-9 -13 -20 -13z" />
    <glyph glyph-name="otilde" unicode="&#xf5;" horiz-adv-x="552" 
d="M492 252q0 -153 -51 -209t-167 -56q-56 0 -93.5 11t-66 40t-41.5 80.5t-13 130.5t16 132t48 80t68.5 37.5t87.5 10.5q57 0 93 -9t65 -35.5t41.5 -78t12.5 -134.5zM449 248q0 95 -17 143t-51.5 63.5t-102.5 15.5q-45 0 -75 -8.5t-54 -31.5t-35 -66.5t-11 -111.5
q0 -72 10 -117.5t33.5 -69t52.5 -31.5t76 -8q37 0 61 4t47.5 17t36.5 36.5t21 64.5t8 100zM145 609h-9q-11 0 -11 11q0 8 5 18q27 69 76 69q22 0 77 -31q43 -24 64 -24q14 0 23 8t19 35q6 17 17 17h11q11 0 11 -10q0 -7 -4 -18q-14 -43 -32 -60t-46 -17q-24 0 -77 27
q-53 28 -67 28q-13 0 -21.5 -8t-17.5 -32q-5 -13 -18 -13z" />
    <glyph glyph-name="odieresis" unicode="&#xf6;" horiz-adv-x="552" 
d="M492 252q0 -153 -51 -209t-167 -56q-56 0 -93.5 11t-66 40t-41.5 80.5t-13 130.5t16 132t48 80t68.5 37.5t87.5 10.5q57 0 93 -9t65 -35.5t41.5 -78t12.5 -134.5zM449 248q0 95 -17 143t-51.5 63.5t-102.5 15.5q-45 0 -75 -8.5t-54 -31.5t-35 -66.5t-11 -111.5
q0 -72 10 -117.5t33.5 -69t52.5 -31.5t76 -8q37 0 61 4t47.5 17t36.5 36.5t21 64.5t8 100zM225 665q0 -36 -33 -36t-33 35q0 36 33 36t33 -35zM397 665q0 -36 -33 -36t-33 35q0 36 33 36t33 -35z" />
    <glyph glyph-name="divide" unicode="&#xf7;" horiz-adv-x="701" 
d="M382 450q0 -17 -9 -26.5t-23 -9.5q-13 0 -22.5 9t-9.5 27q0 37 33 37q31 0 31 -37zM610 287q0 -14 -12 -14h-495q-13 0 -13 14v16q0 14 13 14h495q12 0 12 -14v-16zM382 134q0 -18 -9 -27.5t-23 -9.5q-32 0 -32 37q0 36 33 36q31 0 31 -36z" />
    <glyph glyph-name="oslash" unicode="&#xf8;" horiz-adv-x="552" 
d="M95 -25q-6 -8 -12 -8q-7 0 -17 9q-7 6 -7 11t5 12l39 53q-43 59 -43 197q0 79 16 132t48 80t68.5 37.5t87.5 10.5q92 0 136 -27l38 52q5 8 14 8q6 0 11 -4q11 -7 11 -14q0 -5 -4 -12l-41 -56q47 -56 47 -204q0 -153 -51 -209t-167 -56q-96 0 -144 36zM449 248
q0 125 -30 172l-265 -363q36 -31 121 -31q37 0 61 4t47.5 17t36.5 36.5t21 64.5t8 100zM103 252q0 -112 27 -163l261 359q-34 22 -113 22q-45 0 -75 -8.5t-54 -31.5t-35 -66.5t-11 -111.5z" />
    <glyph glyph-name="ugrave" unicode="&#xf9;" horiz-adv-x="574" 
d="M433 33q-24 -23 -78.5 -33.5t-107.5 -10.5q-65 0 -97.5 15.5t-44.5 47.5q-10 26 -10 100v330q0 16 16 16h10q16 0 16 -16v-327q0 -57 9 -80q8 -23 32 -34.5t77 -11.5q102 0 156 27q14 5 17 11q5 7 5 23v392q0 16 16 16h10q16 0 16 -16v-471q0 -14 -17 -14h-9
q-14 0 -15 19zM280 591l-123 135q-7 7 -7 14q0 9 10 9h29q12 0 19 -10l112 -138q4 -4 4 -10q0 -9 -9 -9h-16q-11 0 -19 9z" />
    <glyph glyph-name="uacute" unicode="&#xfa;" horiz-adv-x="574" 
d="M433 33q-24 -23 -78.5 -33.5t-107.5 -10.5q-65 0 -97.5 15.5t-44.5 47.5q-10 26 -10 100v330q0 16 16 16h10q16 0 16 -16v-327q0 -57 9 -80q8 -23 32 -34.5t77 -11.5q102 0 156 27q14 5 17 11q5 7 5 23v392q0 16 16 16h10q16 0 16 -16v-471q0 -14 -17 -14h-9
q-14 0 -15 19zM271 589q-8 -9 -19 -9h-16q-9 0 -9 9q0 6 4 10l112 138q7 10 19 10h29q10 0 10 -9q0 -7 -7 -14z" />
    <glyph glyph-name="ucircumflex" unicode="&#xfb;" horiz-adv-x="574" 
d="M433 33q-24 -23 -78.5 -33.5t-107.5 -10.5q-65 0 -97.5 15.5t-44.5 47.5q-10 26 -10 100v330q0 16 16 16h10q16 0 16 -16v-327q0 -57 9 -80q8 -23 32 -34.5t77 -11.5q102 0 156 27q14 5 17 11q5 7 5 23v392q0 16 16 16h10q16 0 16 -16v-471q0 -14 -17 -14h-9
q-14 0 -15 19zM185 570h-12q-10 0 -10 9q0 7 6 14l100 142q7 12 22 12h13q12 0 19 -10l101 -146q5 -7 5 -12q0 -9 -10 -9h-11q-12 0 -20 11l-93 119l-90 -117q-9 -13 -20 -13z" />
    <glyph glyph-name="udieresis" unicode="&#xfc;" horiz-adv-x="574" 
d="M433 33q-24 -23 -78.5 -33.5t-107.5 -10.5q-65 0 -97.5 15.5t-44.5 47.5q-10 26 -10 100v330q0 16 16 16h10q16 0 16 -16v-327q0 -57 9 -80q8 -23 32 -34.5t77 -11.5q102 0 156 27q14 5 17 11q5 7 5 23v392q0 16 16 16h10q16 0 16 -16v-471q0 -14 -17 -14h-9
q-14 0 -15 19zM239 665q0 -36 -33 -36t-33 35q0 36 33 36t33 -35zM411 665q0 -36 -33 -36t-33 35q0 36 33 36t33 -35z" />
    <glyph glyph-name="yacute" unicode="&#xfd;" horiz-adv-x="432" 
d="M191 15l-177 448q-6 15 -6 23q0 12 16 12h12q13 0 22 -24l158 -409l160 409q9 24 22 24h11q16 0 16 -12q0 -8 -6 -23l-214 -524q-22 -54 -32 -76q-25 -56 -54 -83q-33 -30 -84 -30q-26 0 -36 2q-18 4 -18 14q0 6 3 15q4 9 13 9l11 -1q12 -1 28 -1q33 0 50 13q19 14 50 81
l37 88zM207 589q-8 -9 -19 -9h-16q-9 0 -9 9q0 6 4 10l112 138q7 10 19 10h29q10 0 10 -9q0 -7 -7 -14z" />
    <glyph glyph-name="thorn" unicode="&#xfe;" horiz-adv-x="566" 
d="M141 -229q0 -15 -15 -15h-12q-15 0 -15 15v962q0 15 14 15h14q14 0 14 -15v-273q50 45 170 45q97 0 146 -57t49 -188q0 -152 -57 -213t-182 -61q-81 0 -126 15v-230zM141 43q38 -18 129 -18q110 0 151.5 54t41.5 174q0 111 -34.5 161.5t-122.5 50.5q-93 0 -145 -26
q-13 -6 -17 -14q-3 -6 -3 -23v-359z" />
    <glyph glyph-name="ydieresis" unicode="&#xff;" horiz-adv-x="432" 
d="M191 15l-177 448q-6 15 -6 23q0 12 16 12h12q13 0 22 -24l158 -409l160 409q9 24 22 24h11q16 0 16 -12q0 -8 -6 -23l-214 -524q-22 -54 -32 -76q-25 -56 -54 -83q-33 -30 -84 -30q-26 0 -36 2q-18 4 -18 14q0 6 3 15q4 9 13 9l11 -1q12 -1 28 -1q33 0 50 13q19 14 50 81
l37 88zM166 665q0 -36 -33 -36t-33 35q0 36 33 36t33 -35zM338 665q0 -36 -33 -36t-33 35q0 36 33 36t33 -35z" />
    <glyph glyph-name="Amacron" unicode="&#x100;" horiz-adv-x="573" 
d="M142 243l-83 -224q-8 -22 -22 -22h-11q-17 0 -17 13q0 5 7 24l245 659q7 16 19 16h11q15 0 21 -16l245 -659q7 -17 7 -24q0 -13 -16 -13h-11q-9 0 -13 5t-10 19l-83 222h-289zM157 284h259l-130 354q-28 -82 -129 -354zM410 802h-248q-14 0 -14 12v18q0 14 15 14h246
q15 0 15 -14v-18q0 -12 -14 -12z" />
    <glyph glyph-name="amacron" unicode="&#x101;" horiz-adv-x="525" 
d="M388 39q-56 -52 -157 -52q-172 0 -172 159q0 77 66 112q51 27 149 27q75 0 114 -6v63q0 56 -8 78q-19 50 -120 50q-72 0 -119 -12q-5 -1 -12 -3l-12 -3q-5 -2 -8 -2q-8 0 -10 8q-4 12 -4 17q0 9 13 13q71 21 161 21q96 0 132 -36q18 -18 23.5 -46t5.5 -79v-334
q0 -11 -3.5 -14t-11.5 -3h-9q-14 0 -15 11zM388 243q-40 5 -111 5q-103 0 -143 -31q-32 -25 -32 -72q0 -57 29.5 -88t106.5 -31q78 0 124 31q16 11 20 17q6 7 6 22v147zM376 619h-228q-14 0 -14 12v18q0 14 15 14h226q15 0 15 -14v-18q0 -12 -14 -12z" />
    <glyph glyph-name="Abreve" unicode="&#x102;" horiz-adv-x="573" 
d="M142 243l-83 -224q-8 -22 -22 -22h-11q-17 0 -17 13q0 5 7 24l245 659q7 16 19 16h11q15 0 21 -16l245 -659q7 -17 7 -24q0 -13 -16 -13h-11q-9 0 -13 5t-10 19l-83 222h-289zM157 284h259l-130 354q-28 -82 -129 -354zM416 899q11 0 11 -10q0 -12 -4 -32
q-23 -94 -138 -94q-120 0 -136 101q-2 14 -2 25q0 10 13 10h12q11 0 13 -10q5 -41 28 -62.5t72 -21.5q97 0 106 85q0 9 11 9h14z" />
    <glyph glyph-name="abreve" unicode="&#x103;" horiz-adv-x="525" 
d="M388 39q-56 -52 -157 -52q-172 0 -172 159q0 77 66 112q51 27 149 27q75 0 114 -6v63q0 56 -8 78q-19 50 -120 50q-72 0 -119 -12q-5 -1 -12 -3l-12 -3q-5 -2 -8 -2q-8 0 -10 8q-4 12 -4 17q0 9 13 13q71 21 161 21q96 0 132 -36q18 -18 23.5 -46t5.5 -79v-334
q0 -11 -3.5 -14t-11.5 -3h-9q-14 0 -15 11zM388 243q-40 5 -111 5q-103 0 -143 -31q-32 -25 -32 -72q0 -57 29.5 -88t106.5 -31q78 0 124 31q16 11 20 17q6 7 6 22v147zM378 714q10 0 10 -10q0 -13 -4 -33q-21 -98 -129 -98q-113 0 -127 105q-2 14 -2 26q0 10 12 10h11
q10 0 12 -10q5 -44 26.5 -66.5t67.5 -22.5q92 0 99 90q0 9 11 9h13z" />
    <glyph glyph-name="Aogonek" unicode="&#x104;" horiz-adv-x="573" 
d="M567 5q-62 -41 -84 -67t-22 -67q0 -60 65 -60q13 0 30 3t20 3q7 0 8 -7q5 -11 5 -16q0 -9 -9 -13q-24 -8 -61 -8q-49 0 -75.5 24.5t-26.5 71.5q0 49 24 76.5t77 59.5h3q-4 6 -7 16l-83 222h-289l-83 -224q-8 -22 -22 -22h-11q-17 0 -17 13q0 5 7 24l245 659q7 16 19 16
h11q15 0 21 -16l245 -659q7 -17 7 -24v-3l-1 -2h4zM157 284h259l-130 354q-28 -82 -129 -354z" />
    <glyph glyph-name="aogonek" unicode="&#x105;" horiz-adv-x="525" 
d="M437 5q-59 -38 -79.5 -63t-20.5 -64q0 -57 61 -57q12 0 28.5 2.5t18.5 2.5q7 0 8 -6q4 -12 4 -16q0 -9 -8 -12q-23 -8 -58 -8q-45 0 -70.5 23.5t-25.5 68.5q0 46 22.5 72.5t72.5 56.5h1v3l-3 31q-56 -52 -157 -52q-172 0 -172 159q0 77 66 112q51 27 149 27q75 0 114 -6
v63q0 56 -8 78q-19 50 -120 50q-72 0 -119 -12q-5 -1 -12 -3l-12 -3q-5 -2 -8 -2q-8 0 -10 8q-4 12 -4 17q0 9 13 13q71 21 161 21q96 0 132 -36q18 -18 23.5 -46t5.5 -79v-334q0 -2 -0.5 -5t-0.5 -4h8zM388 243q-40 5 -111 5q-103 0 -143 -31q-32 -25 -32 -72
q0 -57 29.5 -88t106.5 -31q78 0 124 31q16 11 20 17q6 7 6 22v147z" />
    <glyph glyph-name="Cacute" unicode="&#x106;" horiz-adv-x="603" 
d="M117 357q0 -39 1 -66.5t5.5 -64.5t13 -62.5t24.5 -53t38 -44t55.5 -27t75.5 -10.5q105 0 186 31q21 9 28 9q8 0 14 -15q3 -7 3 -11q0 -10 -21 -19q-86 -37 -204 -37q-137 0 -201.5 79.5t-64.5 275.5q0 202 63.5 289.5t232.5 87.5q91 0 158 -15q23 -5 23 -19q0 -8 -4 -19
q-3 -8 -14 -8q-4 0 -32 6q-54 13 -155 13q-61 0 -104 -19.5t-66 -48t-36 -75t-16 -84.5t-3 -93zM339 772q-12 -9 -25 -9h-16q-11 0 -11 10q0 8 8 14l142 112q11 10 24 10h32q12 0 12 -10q0 -9 -10 -16z" />
    <glyph glyph-name="cacute" unicode="&#x107;" horiz-adv-x="457" 
d="M104 251q0 -39 2 -67t11 -60t24.5 -51.5t44 -33t68.5 -13.5q80 0 132 20q15 6 21 6t10 -8q4 -6 4 -14q0 -11 -15 -17q-60 -26 -148 -26q-99 0 -148 57t-49 196q0 140 51.5 204.5t170.5 64.5q64 0 111 -10q17 -4 17 -16q0 -9 -4 -17q-4 -9 -12 -9q-2 0 -22 4q-43 9 -96 9
q-56 0 -92.5 -17.5t-53 -52t-22 -68t-5.5 -81.5zM272 589q-8 -9 -19 -9h-16q-9 0 -9 9q0 6 4 10l112 138q7 10 19 10h29q10 0 10 -9q0 -7 -7 -14z" />
    <glyph glyph-name="Ccircumflex" unicode="&#x108;" horiz-adv-x="603" 
d="M117 357q0 -39 1 -66.5t5.5 -64.5t13 -62.5t24.5 -53t38 -44t55.5 -27t75.5 -10.5q105 0 186 31q21 9 28 9q8 0 14 -15q3 -7 3 -11q0 -10 -21 -19q-86 -37 -204 -37q-137 0 -201.5 79.5t-64.5 275.5q0 202 63.5 289.5t232.5 87.5q91 0 158 -15q23 -5 23 -19q0 -8 -4 -19
q-3 -8 -14 -8q-4 0 -32 6q-54 13 -155 13q-61 0 -104 -19.5t-66 -48t-36 -75t-16 -84.5t-3 -93zM232 763h-13q-10 0 -10 10q0 5 6 13l108 102q12 12 24 12h12q10 0 22 -10l111 -106q4 -4 4 -11q0 -10 -13 -10h-11q-10 0 -24 11l-97 77l-94 -76q-15 -12 -25 -12z" />
    <glyph glyph-name="ccircumflex" unicode="&#x109;" horiz-adv-x="457" 
d="M104 251q0 -39 2 -67t11 -60t24.5 -51.5t44 -33t68.5 -13.5q80 0 132 20q15 6 21 6t10 -8q4 -6 4 -14q0 -11 -15 -17q-60 -26 -148 -26q-99 0 -148 57t-49 196q0 140 51.5 204.5t170.5 64.5q64 0 111 -10q17 -4 17 -16q0 -9 -4 -17q-4 -9 -12 -9q-2 0 -22 4q-43 9 -96 9
q-56 0 -92.5 -17.5t-53 -52t-22 -68t-5.5 -81.5zM166 570h-12q-10 0 -10 9q0 7 6 14l100 142q8 12 22 12h13q12 0 19 -10l101 -146q5 -7 5 -12q0 -9 -10 -9h-11q-12 0 -20 11l-93 119l-90 -117q-9 -13 -20 -13z" />
    <glyph glyph-name="Cdotaccent" unicode="&#x10a;" horiz-adv-x="603" 
d="M117 357q0 -39 1 -66.5t5.5 -64.5t13 -62.5t24.5 -53t38 -44t55.5 -27t75.5 -10.5q105 0 186 31q21 9 28 9q8 0 14 -15q3 -7 3 -11q0 -10 -21 -19q-86 -37 -204 -37q-137 0 -201.5 79.5t-64.5 275.5q0 202 63.5 289.5t232.5 87.5q91 0 158 -15q23 -5 23 -19q0 -8 -4 -19
q-3 -8 -14 -8q-4 0 -32 6q-54 13 -155 13q-61 0 -104 -19.5t-66 -48t-36 -75t-16 -84.5t-3 -93zM389 815q0 -36 -33 -36t-33 35q0 36 33 36t33 -35z" />
    <glyph glyph-name="cdotaccent" unicode="&#x10b;" horiz-adv-x="457" 
d="M104 251q0 -39 2 -67t11 -60t24.5 -51.5t44 -33t68.5 -13.5q80 0 132 20q15 6 21 6t10 -8q4 -6 4 -14q0 -11 -15 -17q-60 -26 -148 -26q-99 0 -148 57t-49 196q0 140 51.5 204.5t170.5 64.5q64 0 111 -10q17 -4 17 -16q0 -9 -4 -17q-4 -9 -12 -9q-2 0 -22 4q-43 9 -96 9
q-56 0 -92.5 -17.5t-53 -52t-22 -68t-5.5 -81.5zM305 665q0 -36 -33 -36t-33 35q0 36 33 36t33 -35z" />
    <glyph glyph-name="Ccaron" unicode="&#x10c;" horiz-adv-x="603" 
d="M117 357q0 -39 1 -66.5t5.5 -64.5t13 -62.5t24.5 -53t38 -44t55.5 -27t75.5 -10.5q105 0 186 31q21 9 28 9q8 0 14 -15q3 -7 3 -11q0 -10 -21 -19q-86 -37 -204 -37q-137 0 -201.5 79.5t-64.5 275.5q0 202 63.5 289.5t232.5 87.5q91 0 158 -15q23 -5 23 -19q0 -8 -4 -19
q-3 -8 -14 -8q-4 0 -32 6q-54 13 -155 13q-61 0 -104 -19.5t-66 -48t-36 -75t-16 -84.5t-3 -93zM472 904h13q10 0 10 -10q0 -6 -6 -13l-108 -102q-12 -12 -24 -12h-12q-10 0 -22 10l-111 106q-4 4 -4 11q0 10 13 10h11q10 0 24 -11l97 -77l94 76q15 12 25 12z" />
    <glyph glyph-name="ccaron" unicode="&#x10d;" horiz-adv-x="457" 
d="M104 251q0 -39 2 -67t11 -60t24.5 -51.5t44 -33t68.5 -13.5q80 0 132 20q15 6 21 6t10 -8q4 -6 4 -14q0 -11 -15 -17q-60 -26 -148 -26q-99 0 -148 57t-49 196q0 140 51.5 204.5t170.5 64.5q64 0 111 -10q17 -4 17 -16q0 -9 -4 -17q-4 -9 -12 -9q-2 0 -22 4q-43 9 -96 9
q-56 0 -92.5 -17.5t-53 -52t-22 -68t-5.5 -81.5zM382 751h12q10 0 10 -9q0 -7 -6 -14l-100 -142q-8 -12 -22 -12h-13q-12 0 -19 10l-101 146q-5 8 -5 12q0 9 10 9h11q12 0 20 -11l93 -119l90 117q9 13 20 13z" />
    <glyph glyph-name="Dcaron" unicode="&#x10e;" horiz-adv-x="703" 
d="M155 41h122q110 0 168 26q141 63 141 295q0 217 -129 277q-55 26 -181 26h-121v-624zM270 0h-144q-16 0 -16 17v672q0 17 14 17h152q113 0 177 -19q180 -52 180 -326q0 -268 -185 -337q-64 -24 -178 -24zM441 904h13q10 0 10 -10q0 -6 -6 -13l-108 -102q-12 -12 -24 -12
h-12q-10 0 -22 10l-111 106q-4 4 -4 11q0 10 13 10h11q10 0 24 -11l97 -77l94 76q15 12 25 12z" />
    <glyph glyph-name="dcaron" unicode="&#x10f;" horiz-adv-x="566" 
d="M467 14q0 -11 -3.5 -14t-11.5 -3h-9q-14 0 -15 11l-3 29q-52 -49 -165 -49q-200 0 -200 249q0 151 57 211t182 60q87 0 126 -19v244q0 15 16 15h11q15 0 15 -15v-719zM425 99v347q-32 23 -129 23q-110 0 -151.5 -52.5t-41.5 -172.5q0 -111 37 -164.5t125 -53.5
q94 0 139 32q14 10 18 18q3 6 3 23zM590 742q15 0 15 -15q0 -105 -63 -171q-8 -8 -15 -8q-5 0 -13 6q-7 5 -7 11t6 14q43 56 43 140q0 23 16 23h18z" />
    <glyph glyph-name="Dcroat" unicode="&#x110;" horiz-adv-x="703" 
d="M270 0h-144q-16 0 -16 17v331h-69q-14 0 -14 12v15q0 14 15 14h68v300q0 17 14 17h152q113 0 177 -19q180 -52 180 -326q0 -268 -185 -337q-64 -24 -178 -24zM155 41h122q110 0 168 26q141 63 141 295q0 217 -129 277q-55 26 -181 26h-121v-276h211q15 0 15 -14v-15
q0 -12 -14 -12h-212v-307z" />
    <glyph glyph-name="dcroat" unicode="&#x111;" horiz-adv-x="566" 
d="M467 14q0 -11 -3.5 -14t-11.5 -3h-9q-14 0 -15 11l-3 29q-52 -49 -165 -49q-200 0 -200 249q0 151 57 211t182 60q87 0 126 -19v103h-125q-14 0 -14 12v11q0 14 15 14h124v104q0 15 16 15h11q15 0 15 -15v-104h65q15 0 15 -14v-11q0 -12 -14 -12h-66v-578zM425 99v347
q-32 23 -129 23q-110 0 -151.5 -52.5t-41.5 -172.5q0 -111 37 -164.5t125 -53.5q94 0 139 32q14 10 18 18q3 6 3 23z" />
    <glyph glyph-name="Emacron" unicode="&#x112;" horiz-adv-x="553" 
d="M495 0h-369q-16 0 -16 17v672q0 16 14 17h357q17 0 17 -15v-11q0 -15 -17 -15h-326v-276h294q17 0 17 -15v-11q0 -15 -17 -15h-294v-307h340q17 0 17 -15v-11q0 -15 -17 -15zM440 802h-248q-14 0 -14 12v18q0 14 15 14h246q15 0 15 -14v-18q0 -12 -14 -12z" />
    <glyph glyph-name="emacron" unicode="&#x113;" horiz-adv-x="523" 
d="M103 239q1 -124 44 -168.5t137 -44.5q72 0 138 24q15 6 21 6q7 0 10 -7q5 -7 5 -16q0 -10 -15 -16q-69 -30 -163 -30q-120 0 -170 61t-50 199q0 262 223 262q58 0 96 -16.5t57.5 -50t26.5 -73t7 -96.5q0 -23 -6 -29q-5 -5 -19 -5h-342zM103 276h322q1 9 1 29
q0 80 -31.5 122.5t-116.5 42.5q-94 0 -133.5 -50.5t-41.5 -143.5zM388 619h-228q-14 0 -14 12v18q0 14 15 14h226q15 0 15 -14v-18q0 -12 -14 -12z" />
    <glyph glyph-name="Ebreve" unicode="&#x114;" horiz-adv-x="553" 
d="M495 0h-369q-16 0 -16 17v672q0 16 14 17h357q17 0 17 -15v-11q0 -15 -17 -15h-326v-276h294q17 0 17 -15v-11q0 -15 -17 -15h-294v-307h340q17 0 17 -15v-11q0 -15 -17 -15zM435 899q11 0 11 -10q0 -12 -4 -32q-23 -94 -138 -94q-120 0 -136 101q-2 14 -2 25q0 10 13 10
h12q11 0 13 -10q5 -41 28 -62.5t72 -21.5q98 0 106 85q0 9 11 9h14z" />
    <glyph glyph-name="ebreve" unicode="&#x115;" horiz-adv-x="523" 
d="M103 239q1 -124 44 -168.5t137 -44.5q72 0 138 24q15 6 21 6q7 0 10 -7q5 -7 5 -16q0 -10 -15 -16q-69 -30 -163 -30q-120 0 -170 61t-50 199q0 262 223 262q58 0 96 -16.5t57.5 -50t26.5 -73t7 -96.5q0 -23 -6 -29q-5 -5 -19 -5h-342zM103 276h322q1 9 1 29
q0 80 -31.5 122.5t-116.5 42.5q-94 0 -133.5 -50.5t-41.5 -143.5zM390 714q10 0 10 -10q0 -13 -4 -33q-21 -98 -129 -98q-113 0 -127 105q-2 14 -2 26q0 10 12 10h11q10 0 12 -10q5 -44 26.5 -66.5t67.5 -22.5q92 0 99 90q0 9 11 9h13z" />
    <glyph glyph-name="Edotaccent" unicode="&#x116;" horiz-adv-x="553" 
d="M495 0h-369q-16 0 -16 17v672q0 16 14 17h357q17 0 17 -15v-11q0 -15 -17 -15h-326v-276h294q17 0 17 -15v-11q0 -15 -17 -15h-294v-307h340q17 0 17 -15v-11q0 -15 -17 -15zM338 815q0 -36 -33 -36t-33 35q0 36 33 36t33 -35z" />
    <glyph glyph-name="edotaccent" unicode="&#x117;" horiz-adv-x="523" 
d="M103 239q1 -124 44 -168.5t137 -44.5q72 0 138 24q15 6 21 6q7 0 10 -7q5 -7 5 -16q0 -10 -15 -16q-69 -30 -163 -30q-120 0 -170 61t-50 199q0 262 223 262q58 0 96 -16.5t57.5 -50t26.5 -73t7 -96.5q0 -23 -6 -29q-5 -5 -19 -5h-342zM103 276h322q1 9 1 29
q0 80 -31.5 122.5t-116.5 42.5q-94 0 -133.5 -50.5t-41.5 -143.5zM307 665q0 -36 -33 -36t-33 35q0 36 33 36t33 -35z" />
    <glyph glyph-name="Eogonek" unicode="&#x118;" horiz-adv-x="553" 
d="M495 0h-22q-57 -37 -77.5 -63t-20.5 -66q0 -60 65 -60q13 0 30 3t20 3q7 0 8 -7q5 -11 5 -16q0 -9 -9 -13q-24 -8 -61 -8q-49 0 -75.5 24.5t-26.5 71.5t22 74.5t70 56.5h-297q-16 0 -16 17v672q0 16 14 17h357q17 0 17 -15v-11q0 -15 -17 -15h-326v-276h294q17 0 17 -15
v-11q0 -15 -17 -15h-294v-307h340q17 0 17 -15v-11q0 -15 -17 -15z" />
    <glyph glyph-name="eogonek" unicode="&#x119;" horiz-adv-x="523" 
d="M103 239q1 -124 44 -168.5t137 -44.5q72 0 138 24q15 6 21 6q7 0 10 -7q5 -7 5 -16q0 -10 -15 -16q-29 -13 -76 -22q-49 -32 -66.5 -56.5t-17.5 -60.5q0 -57 61 -57q12 0 28.5 2.5t18.5 2.5q7 0 8 -6q4 -12 4 -16q0 -9 -8 -12q-23 -8 -58 -8q-45 0 -70.5 23.5t-25.5 68.5
q0 39 16.5 64t50.5 48q-10 -1 -28 -1q-120 0 -170 61t-50 199q0 262 223 262q58 0 96 -16.5t57.5 -50t26.5 -73t7 -96.5q0 -23 -6 -29q-5 -5 -19 -5h-342zM103 276h322q1 9 1 29q0 80 -31.5 122.5t-116.5 42.5q-94 0 -133.5 -50.5t-41.5 -143.5z" />
    <glyph glyph-name="Ecaron" unicode="&#x11a;" horiz-adv-x="553" 
d="M495 0h-369q-16 0 -16 17v672q0 16 14 17h357q17 0 17 -15v-11q0 -15 -17 -15h-326v-276h294q17 0 17 -15v-11q0 -15 -17 -15h-294v-307h340q17 0 17 -15v-11q0 -15 -17 -15zM427 904h13q10 0 10 -10q0 -6 -6 -13l-108 -102q-12 -12 -24 -12h-12q-10 0 -22 10l-111 106
q-4 4 -4 11q0 10 13 10h11q10 0 24 -11l97 -77l94 76q15 12 25 12z" />
    <glyph glyph-name="ecaron" unicode="&#x11b;" horiz-adv-x="523" 
d="M103 239q1 -124 44 -168.5t137 -44.5q72 0 138 24q15 6 21 6q7 0 10 -7q5 -7 5 -16q0 -10 -15 -16q-69 -30 -163 -30q-120 0 -170 61t-50 199q0 262 223 262q58 0 96 -16.5t57.5 -50t26.5 -73t7 -96.5q0 -23 -6 -29q-5 -5 -19 -5h-342zM103 276h322q1 9 1 29
q0 80 -31.5 122.5t-116.5 42.5q-94 0 -133.5 -50.5t-41.5 -143.5zM384 751h12q10 0 10 -9q0 -7 -6 -14l-100 -142q-8 -12 -22 -12h-13q-12 0 -19 10l-101 146q-5 8 -5 12q0 9 10 9h11q12 0 20 -11l93 -119l90 117q9 13 20 13z" />
    <glyph glyph-name="Gcircumflex" unicode="&#x11c;" horiz-adv-x="670" 
d="M592 57q0 -15 -4 -21.5t-16 -11.5q-96 -37 -228 -37q-140 0 -207 79.5t-67 275.5q0 201 66 289t237 88q95 0 162 -15q23 -5 23 -19q0 -8 -4 -19q-4 -9 -13 -9q-11 0 -32 6q-51 14 -160 14q-61 0 -105 -19.5t-68 -48t-38 -74.5t-17.5 -85t-3.5 -93q0 -46 2 -77.5t8.5 -74
t21 -70.5t38 -54t62 -39t89.5 -13q115 0 206 29v240h-178q-17 0 -17 15v10q0 15 17 15h206q20 0 20 -23v-258zM240 763h-13q-10 0 -10 10q0 5 6 13l108 102q12 12 24 12h12q10 0 22 -10l111 -106q4 -4 4 -11q0 -10 -13 -10h-11q-10 0 -24 11l-97 77l-94 -76q-15 -12 -25 -12
z" />
    <glyph glyph-name="gcircumflex" unicode="&#x11d;" horiz-adv-x="504" 
d="M116 20q-67 16 -67 96q0 74 67 101q-18 23 -26.5 47.5t-8.5 72.5q0 92 52 132t134 40q50 0 89 -14h132q18 0 18 -16v-9q0 -14 -18 -14h-77q34 -42 34 -115q0 -91 -50.5 -133t-137.5 -42q-50 0 -87 13q-26 10 -33 10q-12 0 -26 -12q-21 -18 -21 -56q0 -52 32 -63
q23 -8 160 -8q53 0 84 -2.5t59.5 -10t42 -22.5t21 -39.5t7.5 -62.5q0 -84 -51.5 -122.5t-186.5 -38.5q-66 0 -110 12t-64 35t-27.5 46.5t-7.5 56.5q0 81 67 118zM453 -89q0 59 -27.5 79t-124.5 22q-45 1 -95 1q-30 0 -47 -5q-69 -21 -69 -106q0 -57 37.5 -84t135.5 -27
q112 0 151 28.5t39 91.5zM404 339q0 75 -35 103t-106 28q-67 0 -103.5 -28.5t-36.5 -101.5q0 -82 34.5 -109t103.5 -27q68 0 105.5 29.5t37.5 105.5zM157 570h-12q-10 0 -10 9q0 7 6 14l100 142q7 12 22 12h13q12 0 19 -10l101 -146q5 -7 5 -12q0 -9 -10 -9h-11
q-12 0 -20 11l-93 119l-90 -117q-9 -13 -20 -13z" />
    <glyph glyph-name="Gbreve" unicode="&#x11e;" horiz-adv-x="670" 
d="M592 57q0 -15 -4 -21.5t-16 -11.5q-96 -37 -228 -37q-140 0 -207 79.5t-67 275.5q0 201 66 289t237 88q95 0 162 -15q23 -5 23 -19q0 -8 -4 -19q-4 -9 -13 -9q-11 0 -32 6q-51 14 -160 14q-61 0 -105 -19.5t-68 -48t-38 -74.5t-17.5 -85t-3.5 -93q0 -46 2 -77.5t8.5 -74
t21 -70.5t38 -54t62 -39t89.5 -13q115 0 206 29v240h-178q-17 0 -17 15v10q0 15 17 15h206q20 0 20 -23v-258zM483 899q11 0 11 -10q0 -12 -4 -32q-23 -94 -138 -94q-120 0 -136 101q-2 14 -2 25q0 10 13 10h12q11 0 13 -10q5 -41 28 -62.5t72 -21.5q98 0 106 85q0 9 11 9
h14z" />
    <glyph glyph-name="gbreve" unicode="&#x11f;" horiz-adv-x="504" 
d="M116 20q-67 16 -67 96q0 74 67 101q-18 23 -26.5 47.5t-8.5 72.5q0 92 52 132t134 40q50 0 89 -14h132q18 0 18 -16v-9q0 -14 -18 -14h-77q34 -42 34 -115q0 -91 -50.5 -133t-137.5 -42q-50 0 -87 13q-26 10 -33 10q-12 0 -26 -12q-21 -18 -21 -56q0 -52 32 -63
q23 -8 160 -8q53 0 84 -2.5t59.5 -10t42 -22.5t21 -39.5t7.5 -62.5q0 -84 -51.5 -122.5t-186.5 -38.5q-66 0 -110 12t-64 35t-27.5 46.5t-7.5 56.5q0 81 67 118zM453 -89q0 59 -27.5 79t-124.5 22q-45 1 -95 1q-30 0 -47 -5q-69 -21 -69 -106q0 -57 37.5 -84t135.5 -27
q112 0 151 28.5t39 91.5zM404 339q0 75 -35 103t-106 28q-67 0 -103.5 -28.5t-36.5 -101.5q0 -82 34.5 -109t103.5 -27q68 0 105.5 29.5t37.5 105.5zM382 714q10 0 10 -10q0 -13 -4 -33q-21 -98 -129 -98q-113 0 -127 105q-2 14 -2 26q0 10 12 10h11q10 0 12 -10
q5 -44 26.5 -66.5t67.5 -22.5q92 0 99 90q0 9 11 9h13z" />
    <glyph glyph-name="Gdotaccent" unicode="&#x120;" horiz-adv-x="670" 
d="M592 57q0 -15 -4 -21.5t-16 -11.5q-96 -37 -228 -37q-140 0 -207 79.5t-67 275.5q0 201 66 289t237 88q95 0 162 -15q23 -5 23 -19q0 -8 -4 -19q-4 -9 -13 -9q-11 0 -32 6q-51 14 -160 14q-61 0 -105 -19.5t-68 -48t-38 -74.5t-17.5 -85t-3.5 -93q0 -46 2 -77.5t8.5 -74
t21 -70.5t38 -54t62 -39t89.5 -13q115 0 206 29v240h-178q-17 0 -17 15v10q0 15 17 15h206q20 0 20 -23v-258zM402 815q0 -36 -33 -36t-33 35q0 36 33 36t33 -35z" />
    <glyph glyph-name="gdotaccent" unicode="&#x121;" horiz-adv-x="504" 
d="M116 20q-67 16 -67 96q0 74 67 101q-18 23 -26.5 47.5t-8.5 72.5q0 92 52 132t134 40q50 0 89 -14h132q18 0 18 -16v-9q0 -14 -18 -14h-77q34 -42 34 -115q0 -91 -50.5 -133t-137.5 -42q-50 0 -87 13q-26 10 -33 10q-12 0 -26 -12q-21 -18 -21 -56q0 -52 32 -63
q23 -8 160 -8q53 0 84 -2.5t59.5 -10t42 -22.5t21 -39.5t7.5 -62.5q0 -84 -51.5 -122.5t-186.5 -38.5q-66 0 -110 12t-64 35t-27.5 46.5t-7.5 56.5q0 81 67 118zM453 -89q0 59 -27.5 79t-124.5 22q-45 1 -95 1q-30 0 -47 -5q-69 -21 -69 -106q0 -57 37.5 -84t135.5 -27
q112 0 151 28.5t39 91.5zM404 339q0 75 -35 103t-106 28q-67 0 -103.5 -28.5t-36.5 -101.5q0 -82 34.5 -109t103.5 -27q68 0 105.5 29.5t37.5 105.5zM297 665q0 -36 -33 -36t-33 35q0 36 33 36t33 -35z" />
    <glyph glyph-name="Gcommaaccent" unicode="&#x122;" horiz-adv-x="670" 
d="M592 57q0 -15 -4 -21.5t-16 -11.5q-96 -37 -228 -37q-140 0 -207 79.5t-67 275.5q0 201 66 289t237 88q95 0 162 -15q23 -5 23 -19q0 -8 -4 -19q-4 -9 -13 -9q-11 0 -32 6q-51 14 -160 14q-61 0 -105 -19.5t-68 -48t-38 -74.5t-17.5 -85t-3.5 -93q0 -46 2 -77.5t8.5 -74
t21 -70.5t38 -54t62 -39t89.5 -13q115 0 206 29v240h-178q-17 0 -17 15v10q0 15 17 15h206q20 0 20 -23v-258zM375 -72q15 0 15 -15q0 -105 -63 -171q-8 -8 -15 -8q-4 0 -12 6q-7 5 -7 11t6 14q44 57 44 140q0 23 16 23h16z" />
    <glyph glyph-name="gcommaaccent" unicode="&#x123;" horiz-adv-x="504" 
d="M116 20q-67 16 -67 96q0 74 67 101q-18 23 -26.5 47.5t-8.5 72.5q0 92 52 132t134 40q50 0 89 -14h132q18 0 18 -16v-9q0 -14 -18 -14h-77q34 -42 34 -115q0 -91 -50.5 -133t-137.5 -42q-50 0 -87 13q-26 10 -33 10q-12 0 -26 -12q-21 -18 -21 -56q0 -52 32 -63
q23 -8 160 -8q53 0 84 -2.5t59.5 -10t42 -22.5t21 -39.5t7.5 -62.5q0 -84 -51.5 -122.5t-186.5 -38.5q-66 0 -110 12t-64 35t-27.5 46.5t-7.5 56.5q0 81 67 118zM453 -89q0 59 -27.5 79t-124.5 22q-45 1 -95 1q-30 0 -47 -5q-69 -21 -69 -106q0 -57 37.5 -84t135.5 -27
q112 0 151 28.5t39 91.5zM404 339q0 75 -35 103t-106 28q-67 0 -103.5 -28.5t-36.5 -101.5q0 -82 34.5 -109t103.5 -27q68 0 105.5 29.5t37.5 105.5zM274 579h-18q-15 0 -15 15q0 105 63 171q8 8 15 8q5 0 13 -6q7 -5 7 -11t-6 -14q-43 -56 -43 -140q0 -23 -16 -23z" />
    <glyph glyph-name="Hcircumflex" unicode="&#x124;" horiz-adv-x="702" 
d="M155 14q0 -17 -16 -17h-13q-16 0 -16 17v678q0 17 17 17h13q15 0 15 -17v-303h392v303q0 17 17 17h13q15 0 15 -17v-678q0 -17 -16 -17h-13q-16 0 -16 17v334h-392v-334zM231 763h-13q-10 0 -10 10q0 5 6 13l108 102q12 12 24 12h12q10 0 22 -10l111 -106q4 -4 4 -11
q0 -10 -13 -10h-11q-10 0 -24 11l-97 77l-94 -76q-15 -12 -25 -12z" />
    <glyph glyph-name="hcircumflex" unicode="&#x125;" horiz-adv-x="574" 
d="M141 13q0 -16 -16 -16h-10q-16 0 -16 16v723q0 16 13 16h16q13 0 13 -15v-273q23 23 81 33t113 10q64 0 93.5 -14.5t41.5 -45.5q9 -24 9 -98v-336q0 -16 -16 -16h-10q-16 0 -16 16v333q0 57 -8 78q-8 23 -29.5 33t-72.5 10q-110 0 -164 -25q-14 -5 -17 -11q-5 -7 -5 -23
v-395zM47 774h-13q-10 0 -10 10q0 6 6 13l108 102q12 12 24 12h12q10 0 22 -10l111 -106q4 -4 4 -11q0 -10 -13 -10h-11q-10 0 -24 11l-97 77l-94 -76q-15 -12 -25 -12z" />
    <glyph glyph-name="Hbar" unicode="&#x126;" horiz-adv-x="702" 
d="M155 14q0 -17 -16 -17h-13q-16 0 -16 17v479h-69q-14 0 -14 12v15q0 14 15 14h68v158q0 17 17 17h13q15 0 15 -17v-158h392v158q0 17 17 17h13q15 0 15 -17v-158h68q15 0 15 -14v-15q0 -12 -14 -12h-69v-479q0 -17 -16 -17h-13q-16 0 -16 17v334h-392v-334zM155 389h392
v104h-392v-104z" />
    <glyph glyph-name="hbar" unicode="&#x127;" horiz-adv-x="574" 
d="M141 13q0 -16 -16 -16h-10q-16 0 -16 16v579h-66q-14 0 -14 12v11q0 14 15 14h65v107q0 16 13 16h16q13 0 13 -15v-108h124q15 0 15 -14v-11q0 -12 -14 -12h-125v-128q23 23 81 33t113 10q64 0 93.5 -14.5t41.5 -45.5q9 -24 9 -98v-336q0 -16 -16 -16h-10q-16 0 -16 16
v333q0 57 -8 78q-8 23 -29.5 33t-72.5 10q-110 0 -164 -25q-14 -5 -17 -11q-5 -7 -5 -23v-395z" />
    <glyph glyph-name="Itilde" unicode="&#x128;" horiz-adv-x="265" 
d="M155 14q0 -17 -16 -17h-13q-16 0 -16 17v678q0 17 17 17h13q15 0 15 -17v-678zM-3 780h-9q-12 0 -12 11q0 9 5 19q29 69 80 69q23 0 81 -31q44 -24 66 -24q14 0 24 8t20 35q6 17 18 17h11q12 0 12 -10q0 -8 -4 -19q-15 -43 -34 -60t-48 -17q-28 0 -80 27q-53 28 -71 28
q-14 0 -22 -8t-18 -32q-5 -13 -19 -13z" />
    <glyph glyph-name="itilde" unicode="&#x129;" horiz-adv-x="239" 
d="M-9 609h-9q-11 0 -11 11q0 8 5 18q27 69 76 69q22 0 77 -31q43 -24 64 -24q14 0 23 8t19 35q6 17 17 17h11q11 0 11 -10q0 -7 -4 -18q-14 -43 -32 -60t-46 -17q-24 0 -77 27q-53 28 -67 28q-13 0 -21.5 -8t-17.5 -32q-5 -13 -18 -13zM141 14q0 -17 -16 -17h-10
q-16 0 -16 17v467q0 17 16 17h10q16 0 16 -17v-467z" />
    <glyph glyph-name="Imacron" unicode="&#x12a;" horiz-adv-x="265" 
d="M155 14q0 -17 -16 -17h-13q-16 0 -16 17v678q0 17 17 17h13q15 0 15 -17v-678zM256 802h-248q-14 0 -14 12v18q0 14 15 14h246q15 0 15 -14v-18q0 -12 -14 -12z" />
    <glyph glyph-name="imacron" unicode="&#x12b;" horiz-adv-x="239" 
d="M141 14q0 -17 -16 -17h-10q-16 0 -16 17v467q0 17 16 17h10q16 0 16 -17v-467zM234 619h-228q-14 0 -14 12v18q0 14 15 14h226q15 0 15 -14v-18q0 -12 -14 -12z" />
    <glyph glyph-name="Ibreve" unicode="&#x12c;" horiz-adv-x="265" 
d="M155 14q0 -17 -16 -17h-13q-16 0 -16 17v678q0 17 17 17h13q15 0 15 -17v-678zM262 899q11 0 11 -10q0 -12 -4 -32q-23 -94 -138 -94q-120 0 -136 101q-2 14 -2 25q0 10 13 10h12q11 0 13 -10q5 -41 28 -62.5t72 -21.5q97 0 106 85q0 9 11 9h14z" />
    <glyph glyph-name="ibreve" unicode="&#x12d;" horiz-adv-x="239" 
d="M141 14q0 -17 -16 -17h-10q-16 0 -16 17v467q0 17 16 17h10q16 0 16 -17v-467zM242 714q10 0 10 -10q0 -13 -4 -33q-21 -98 -129 -98q-113 0 -127 105q-2 14 -2 26q0 10 12 10h11q10 0 12 -10q5 -44 26.5 -66.5t67.5 -22.5q92 0 99 90q0 9 11 9h13z" />
    <glyph glyph-name="Iogonek" unicode="&#x12e;" horiz-adv-x="265" 
d="M155 14q0 -17 -16 -17h-1q-55 -36 -74.5 -61.5t-19.5 -64.5q0 -60 65 -60q13 0 30 3t20 3q7 0 8 -7q5 -11 5 -16q0 -9 -9 -13q-24 -8 -61 -8q-49 0 -75.5 24.5t-26.5 71.5q0 49 24 76.5t77 59.5h10q-1 2 -1 9v678q0 17 17 17h13q15 0 15 -17v-678z" />
    <glyph glyph-name="iogonek" unicode="&#x12f;" horiz-adv-x="239" 
d="M167 5q-59 -38 -79.5 -63t-20.5 -64q0 -57 61 -57q12 0 28.5 2.5t18.5 2.5q7 0 8 -6q4 -12 4 -16q0 -9 -8 -12q-23 -8 -58 -8q-45 0 -70.5 23.5t-25.5 68.5q0 43 20 69.5t63 52.5q-9 3 -9 16v467q0 17 16 17h10q16 0 16 -17v-467q0 -7 -1 -9h27zM154 665q0 -37 -34 -37
q-35 0 -35 36q0 37 35 37q34 0 34 -36z" />
    <glyph glyph-name="Idotaccent" unicode="&#x130;" horiz-adv-x="265" 
d="M155 14q0 -17 -16 -17h-13q-16 0 -16 17v678q0 17 17 17h13q15 0 15 -17v-678zM167 815q0 -36 -33 -36t-33 35q0 36 33 36t33 -35z" />
    <glyph glyph-name="dotlessi" unicode="&#x131;" horiz-adv-x="239" 
d="M141 14q0 -17 -16 -17h-10q-16 0 -16 17v467q0 17 16 17h10q16 0 16 -17v-467z" />
    <glyph glyph-name="IJ" unicode="&#x132;" horiz-adv-x="560" 
d="M155 14q0 -17 -16 -17h-13q-16 0 -16 17v678q0 17 17 17h13q15 0 15 -17v-678zM450 692v-636q0 -53 -4.5 -78.5t-22.5 -44.5q-33 -36 -111 -36q-26 0 -40 2t-14 12q0 8 1 16q1 12 16 12q1 0 16.5 -1t23.5 -1q52 0 71 19q12 12 15.5 33.5t3.5 66.5v636q0 17 17 17h13
q15 0 15 -17z" />
    <glyph glyph-name="ij" unicode="&#x133;" horiz-adv-x="482" 
d="M141 14q0 -17 -16 -17h-10q-16 0 -16 17v467q0 17 16 17h10q16 0 16 -17v-467zM154 665q0 -37 -34 -37q-35 0 -35 36q0 37 35 37q34 0 34 -36zM380 481v-576q0 -86 -33 -118q-38 -37 -125 -37q-22 0 -22 13q0 9 1 15q1 11 18 11q67 0 93 23q26 25 26 92v577q0 17 16 17
h10q16 0 16 -17zM393 665q0 -37 -34 -37q-35 0 -35 36q0 37 35 37q34 0 34 -36z" />
    <glyph glyph-name="Jcircumflex" unicode="&#x134;" horiz-adv-x="295" 
d="M185 692v-636q0 -53 -4.5 -78.5t-22.5 -44.5q-33 -36 -111 -36q-26 0 -40 2t-14 12q0 8 1 16q2 12 16 12q1 0 16.5 -1t23.5 -1q52 0 71 19q12 12 15.5 33.5t3.5 66.5v636q0 17 17 17h13q15 0 15 -17zM44 763h-13q-10 0 -10 10q0 5 6 13l108 102q12 12 24 12h12
q10 0 22 -10l111 -106q4 -4 4 -11q0 -10 -13 -10h-11q-10 0 -24 11l-97 77l-94 -76q-15 -12 -25 -12z" />
    <glyph glyph-name="jcircumflex" unicode="&#x135;" horiz-adv-x="243" 
d="M141 488v-583q0 -86 -33 -118q-38 -37 -125 -37q-22 0 -22 13q0 9 1 15q1 11 18 11q67 0 93 23q26 25 26 92v584q0 17 16 17h10q16 0 16 -17zM10 570h-12q-10 0 -10 9q0 7 6 14l100 142q7 12 22 12h13q12 0 19 -10l101 -146q5 -7 5 -12q0 -9 -10 -9h-11q-12 0 -20 11
l-93 119l-90 -117q-9 -13 -20 -13z" />
    <glyph glyph-name="Kcommaaccent" unicode="&#x136;" horiz-adv-x="568" 
d="M155 14q0 -17 -16 -17h-13q-16 0 -16 17v678q0 17 17 17h13q15 0 15 -17v-304h65q32 0 44 16l219 292q10 13 25 13h16q14 0 14 -10q0 -8 -10 -20q-194 -252 -242 -310l258 -339q12 -16 12 -21q0 -12 -16 -12h-15q-14 0 -24 14l-242 320q-12 17 -38 17h-66v-334zM324 -72
q15 0 15 -15q0 -105 -63 -171q-8 -8 -15 -8q-4 0 -12 6q-7 5 -7 11t6 14q44 57 44 140q0 23 16 23h16z" />
    <glyph glyph-name="kcommaaccent" unicode="&#x137;" horiz-adv-x="476" 
d="M141 14q0 -17 -16 -17h-10q-16 0 -16 17v707q0 17 16 17h10q16 0 16 -17v-427h65q32 0 44 16l139 175q10 13 25 13h11q14 0 14 -10q0 -8 -10 -20l-158 -190q16 -19 71 -94l117 -154q12 -14 12 -21q0 -12 -16 -12h-11q-14 0 -24 14l-172 229q-12 17 -38 17h-69v-243z
M279 -72q15 0 15 -15q0 -105 -63 -171q-8 -8 -15 -8q-4 0 -12 6q-7 5 -7 11t6 14q44 57 44 140q0 23 16 23h16z" />
    <glyph glyph-name="kgreenlandic" unicode="&#x138;" horiz-adv-x="476" 
d="M141 14q0 -17 -16 -17h-10q-16 0 -16 17v467q0 17 16 17h10q16 0 16 -17v-199h65q32 0 44 16l141 187q10 13 24 13h11q14 0 14 -10q0 -8 -10 -20q-124 -161 -160 -201l191 -237q12 -14 12 -21q0 -12 -16 -12h-11q-14 0 -24 14l-174 217q-14 17 -38 17h-69v-231z" />
    <glyph glyph-name="Lacute" unicode="&#x139;" horiz-adv-x="536" 
d="M495 0h-369q-16 0 -16 17v675q0 17 17 17h13q15 0 15 -17v-651h340q17 0 17 -15v-11q0 -15 -17 -15zM131 772q-12 -9 -25 -9h-16q-11 0 -11 10q0 8 8 14l142 112q11 10 24 10h32q12 0 12 -10q0 -9 -10 -16z" />
    <glyph glyph-name="lacute" unicode="&#x13a;" horiz-adv-x="240" 
d="M141 14q0 -17 -16 -17h-10q-16 0 -16 17v717q0 17 17 17h10q15 0 15 -17v-717zM110 792q-12 -9 -25 -9h-16q-11 0 -11 10q0 8 8 14l142 112q11 10 24 10h32q12 0 12 -10q0 -9 -10 -16z" />
    <glyph glyph-name="Lcommaaccent" unicode="&#x13b;" horiz-adv-x="536" 
d="M495 0h-369q-16 0 -16 17v675q0 17 17 17h13q15 0 15 -17v-651h340q17 0 17 -15v-11q0 -15 -17 -15zM311 -72q15 0 15 -15q0 -105 -63 -171q-8 -8 -15 -8q-4 0 -12 6q-7 5 -7 11t6 14q44 57 44 140q0 23 16 23h16z" />
    <glyph glyph-name="lcommaaccent" unicode="&#x13c;" horiz-adv-x="240" 
d="M141 14q0 -17 -16 -17h-10q-16 0 -16 17v717q0 17 17 17h10q15 0 15 -17v-717zM130 -72q15 0 15 -15q0 -105 -63 -171q-8 -8 -15 -8q-4 0 -12 6q-7 5 -7 11t6 14q44 57 44 140q0 23 16 23h16z" />
    <glyph glyph-name="Lcaron" unicode="&#x13d;" horiz-adv-x="536" 
d="M495 0h-369q-16 0 -16 17v675q0 17 17 17h13q15 0 15 -17v-651h340q17 0 17 -15v-11q0 -15 -17 -15zM339 718q15 0 15 -15q0 -105 -63 -171q-8 -8 -15 -8q-5 0 -13 6q-7 5 -7 11t6 14q43 56 43 140q0 23 16 23h18z" />
    <glyph glyph-name="lcaron" unicode="&#x13e;" horiz-adv-x="240" 
d="M141 14q0 -17 -16 -17h-10q-16 0 -16 17v717q0 17 17 17h10q15 0 15 -17v-717zM279 751q15 0 15 -15q0 -105 -63 -171q-8 -8 -15 -8q-5 0 -13 6q-7 5 -7 11t6 14q43 56 43 140q0 23 16 23h18z" />
    <glyph glyph-name="Ldot" unicode="&#x13f;" horiz-adv-x="536" 
d="M495 0h-369q-16 0 -16 17v672q0 17 17 17h13q15 0 15 -17v-648h340q17 0 17 -15v-11q0 -15 -17 -15zM425 340q0 -37 -37 -37t-37 37t37 37t37 -37z" />
    <glyph glyph-name="ldot" unicode="&#x140;" horiz-adv-x="326" 
d="M141 14q0 -17 -16 -17h-10q-16 0 -16 17v717q0 17 17 17h10q15 0 15 -17v-717zM318 340q0 -36 -36 -36t-36 36t36 36t36 -36z" />
    <glyph glyph-name="Lslash" unicode="&#x141;" horiz-adv-x="536" 
d="M495 0h-369q-16 0 -16 17v250l-72 -50q-5 -4 -10 -4q-6 0 -13 12q-7 10 -7 14q0 6 7 11l95 67v375q0 17 17 17h13q15 0 15 -17v-344l165 117q5 4 10 4q6 0 15 -12q7 -9 7 -14t-7 -11l-190 -133v-258h340q17 0 17 -15v-11q0 -15 -17 -15z" />
    <glyph glyph-name="lslash" unicode="&#x142;" horiz-adv-x="240" 
d="M141 14q0 -17 -16 -17h-10q-16 0 -16 17v296l-64 -43q-5 -4 -10 -4q-7 1 -14 12q-6 9 -6 13q0 6 7 11l87 60v372q0 17 17 17h10q15 0 15 -17v-343l63 43q5 4 10 4t15 -13q6 -8 6 -13q0 -6 -8 -11l-86 -59v-325z" />
    <glyph glyph-name="Nacute" unicode="&#x143;" horiz-adv-x="705" 
d="M154 14q0 -17 -16 -17h-12q-16 0 -16 17v678q0 17 17 17h13q11 0 16 -9q306 -469 396 -617q-1 71 -1 609q0 17 17 17h12q15 0 15 -17v-678q0 -17 -17 -17h-9q-13 0 -23 15q-341 527 -393 615q1 -102 1 -613zM343 772q-12 -9 -25 -9h-16q-11 0 -11 10q0 8 8 14l142 112
q11 10 24 10h32q12 0 12 -10q0 -9 -10 -16z" />
    <glyph glyph-name="nacute" unicode="&#x144;" horiz-adv-x="574" 
d="M141 13q0 -16 -16 -16h-10q-16 0 -16 16v474q0 14 17 14h9q8 0 11 -4t4 -15l1 -24q23 26 81 37.5t113 11.5q64 0 93.5 -14.5t41.5 -45.5q9 -24 9 -98v-336q0 -16 -16 -16h-10q-16 0 -16 16v333q0 57 -8 78q-8 23 -29.5 33t-72.5 10q-109 0 -164 -30q-13 -8 -17 -14
q-5 -7 -5 -23v-387zM294 589q-8 -9 -19 -9h-16q-9 0 -9 9q0 6 4 10l112 138q7 10 19 10h29q10 0 10 -9q0 -7 -7 -14z" />
    <glyph glyph-name="Ncommaaccent" unicode="&#x145;" horiz-adv-x="705" 
d="M154 14q0 -17 -16 -17h-12q-16 0 -16 17v678q0 17 17 17h13q11 0 16 -9q306 -469 396 -617q-1 71 -1 609q0 17 17 17h12q15 0 15 -17v-678q0 -17 -17 -17h-9q-13 0 -23 15q-341 527 -393 615q1 -102 1 -613zM362 -72q15 0 15 -15q0 -105 -63 -171q-8 -8 -15 -8
q-4 0 -12 6q-7 5 -7 11t6 14q44 57 44 140q0 23 16 23h16z" />
    <glyph glyph-name="ncommaaccent" unicode="&#x146;" horiz-adv-x="574" 
d="M141 13q0 -16 -16 -16h-10q-16 0 -16 16v474q0 14 17 14h9q8 0 11 -4t4 -15l1 -24q23 26 81 37.5t113 11.5q64 0 93.5 -14.5t41.5 -45.5q9 -24 9 -98v-336q0 -16 -16 -16h-10q-16 0 -16 16v333q0 57 -8 78q-8 23 -29.5 33t-72.5 10q-109 0 -164 -30q-13 -8 -17 -14
q-5 -7 -5 -23v-387zM305 -72q15 0 15 -15q0 -105 -63 -171q-8 -8 -15 -8q-4 0 -12 6q-7 5 -7 11t6 14q44 57 44 140q0 23 16 23h16z" />
    <glyph glyph-name="Ncaron" unicode="&#x147;" horiz-adv-x="705" 
d="M154 14q0 -17 -16 -17h-12q-16 0 -16 17v678q0 17 17 17h13q11 0 16 -9q306 -469 396 -617q-1 71 -1 609q0 17 17 17h12q15 0 15 -17v-678q0 -17 -17 -17h-9q-13 0 -23 15q-341 527 -393 615q1 -102 1 -613zM476 904h13q10 0 10 -10q0 -6 -6 -13l-108 -102
q-12 -12 -24 -12h-12q-10 0 -22 10l-111 106q-4 4 -4 11q0 10 13 10h11q10 0 24 -11l97 -77l94 76q15 12 25 12z" />
    <glyph glyph-name="ncaron" unicode="&#x148;" horiz-adv-x="574" 
d="M141 13q0 -16 -16 -16h-10q-16 0 -16 16v474q0 14 17 14h9q8 0 11 -4t4 -15l1 -24q23 26 81 37.5t113 11.5q64 0 93.5 -14.5t41.5 -45.5q9 -24 9 -98v-336q0 -16 -16 -16h-10q-16 0 -16 16v333q0 57 -8 78q-8 23 -29.5 33t-72.5 10q-109 0 -164 -30q-13 -8 -17 -14
q-5 -7 -5 -23v-387zM399 751h12q10 0 10 -9q0 -7 -6 -14l-100 -142q-7 -12 -22 -12h-13q-12 0 -19 10l-101 146q-5 8 -5 12q0 9 10 9h11q12 0 20 -11l93 -119l90 117q9 13 20 13z" />
    <glyph glyph-name="napostrophe" unicode="&#x149;" horiz-adv-x="574" 
d="M141 13q0 -16 -16 -16h-10q-16 0 -16 16v474q0 14 17 14h9q8 0 11 -4t4 -15l1 -24q23 26 81 37.5t113 11.5q64 0 93.5 -14.5t41.5 -45.5q9 -24 9 -98v-336q0 -16 -16 -16h-10q-16 0 -16 16v333q0 57 -8 78q-8 23 -29.5 33t-72.5 10q-109 0 -164 -30q-13 -8 -17 -14
q-5 -7 -5 -23v-387zM141 772q15 0 15 -15q0 -105 -63 -171q-8 -8 -15 -8q-4 0 -12 6q-7 5 -7 11t6 14q44 57 44 140q0 23 16 23h16z" />
    <glyph glyph-name="Eng" unicode="&#x14a;" horiz-adv-x="705" 
d="M154 17q0 -17 -16 -17h-12q-16 0 -16 17v672q0 17 17 17h13q11 0 16 -9q365 -560 396 -611q-1 71 -1 603q0 17 17 17h12q15 0 15 -17v-750q0 -54 -4.5 -80.5t-22.5 -45.5q-32 -33 -111 -33q-26 0 -40 2t-14 12q0 8 1 16q2 12 16 12q1 0 16.5 -1t23.5 -1q53 0 72 19
q12 12 15 32.5t3 67.5v73l-160 248l-110 168l-64 97l-40 63l-23 36q1 -102 1 -607z" />
    <glyph glyph-name="eng" unicode="&#x14b;" horiz-adv-x="574" 
d="M141 13q0 -16 -16 -16h-10q-16 0 -16 16v471q0 14 17 14h9q8 0 11 -4t4 -15l1 -21q23 26 81 37.5t113 11.5q64 0 93.5 -14.5t41.5 -45.5q9 -24 9 -98v-403q0 -50 -7.5 -75.5t-25.5 -43.5q-26 -26 -89 -28q-28 0 -43 2t-15 12q0 9 1 15q1 11 16 11q4 0 20 -1t24 -1
q37 0 53 15q24 21 24 93v401q0 57 -8 78q-8 23 -29.5 33t-72.5 10q-109 0 -164 -30q-13 -8 -17 -14q-5 -7 -5 -23v-387z" />
    <glyph glyph-name="Omacron" unicode="&#x14c;" horiz-adv-x="695" 
d="M625 358q0 -145 -31.5 -227t-90.5 -113t-159 -31q-97 0 -154.5 30.5t-88.5 112.5t-31 227q0 109 20.5 182.5t60.5 111.5t87.5 53t113.5 15q59 0 99 -8t75.5 -30.5t55.5 -62.5t31.5 -104t11.5 -156zM578 357q0 83 -8.5 139t-24 92t-45 55.5t-64 26.5t-87.5 7
q-60 0 -100 -13t-71.5 -47t-46 -97.5t-14.5 -161.5q0 -104 14 -170t45 -100.5t69.5 -46.5t99.5 -12q60 0 99 11.5t71.5 45t47.5 100t15 171.5zM476 802h-248q-14 0 -14 12v18q0 14 15 14h246q15 0 15 -14v-18q0 -12 -14 -12z" />
    <glyph glyph-name="omacron" unicode="&#x14d;" horiz-adv-x="552" 
d="M492 252q0 -153 -51 -209t-167 -56q-56 0 -93.5 11t-66 40t-41.5 80.5t-13 130.5t16 132t48 80t68.5 37.5t87.5 10.5q57 0 93 -9t65 -35.5t41.5 -78t12.5 -134.5zM449 248q0 95 -17 143t-51.5 63.5t-102.5 15.5q-45 0 -75 -8.5t-54 -31.5t-35 -66.5t-11 -111.5
q0 -72 10 -117.5t33.5 -69t52.5 -31.5t76 -8q37 0 61 4t47.5 17t36.5 36.5t21 64.5t8 100zM398 619h-228q-14 0 -14 12v18q0 14 15 14h226q15 0 15 -14v-18q0 -12 -14 -12z" />
    <glyph glyph-name="Obreve" unicode="&#x14e;" horiz-adv-x="695" 
d="M625 358q0 -145 -31.5 -227t-90.5 -113t-159 -31q-97 0 -154.5 30.5t-88.5 112.5t-31 227q0 109 20.5 182.5t60.5 111.5t87.5 53t113.5 15q59 0 99 -8t75.5 -30.5t55.5 -62.5t31.5 -104t11.5 -156zM578 357q0 83 -8.5 139t-24 92t-45 55.5t-64 26.5t-87.5 7
q-60 0 -100 -13t-71.5 -47t-46 -97.5t-14.5 -161.5q0 -104 14 -170t45 -100.5t69.5 -46.5t99.5 -12q60 0 99 11.5t71.5 45t47.5 100t15 171.5zM481 899q11 0 11 -10q0 -12 -4 -32q-23 -94 -138 -94q-120 0 -136 101q-2 14 -2 25q0 10 13 10h12q11 0 13 -10q5 -41 28 -62.5
t72 -21.5q98 0 106 85q0 9 11 9h14z" />
    <glyph glyph-name="obreve" unicode="&#x14f;" horiz-adv-x="552" 
d="M492 252q0 -153 -51 -209t-167 -56q-56 0 -93.5 11t-66 40t-41.5 80.5t-13 130.5t16 132t48 80t68.5 37.5t87.5 10.5q57 0 93 -9t65 -35.5t41.5 -78t12.5 -134.5zM449 248q0 95 -17 143t-51.5 63.5t-102.5 15.5q-45 0 -75 -8.5t-54 -31.5t-35 -66.5t-11 -111.5
q0 -72 10 -117.5t33.5 -69t52.5 -31.5t76 -8q37 0 61 4t47.5 17t36.5 36.5t21 64.5t8 100zM400 714q10 0 10 -10q0 -13 -4 -33q-21 -98 -129 -98q-113 0 -127 105q-2 14 -2 26q0 10 12 10h11q10 0 12 -10q5 -44 26.5 -66.5t67.5 -22.5q92 0 99 90q0 9 11 9h13z" />
    <glyph glyph-name="Ohungarumlaut" unicode="&#x150;" horiz-adv-x="695" 
d="M625 358q0 -145 -31.5 -227t-90.5 -113t-159 -31q-97 0 -154.5 30.5t-88.5 112.5t-31 227q0 109 20.5 182.5t60.5 111.5t87.5 53t113.5 15q59 0 99 -8t75.5 -30.5t55.5 -62.5t31.5 -104t11.5 -156zM578 357q0 83 -8.5 139t-24 92t-45 55.5t-64 26.5t-87.5 7
q-60 0 -100 -13t-71.5 -47t-46 -97.5t-14.5 -161.5q0 -104 14 -170t45 -100.5t69.5 -46.5t99.5 -12q60 0 99 11.5t71.5 45t47.5 100t15 171.5zM274 772q-12 -9 -25 -9h-16q-11 0 -11 10q0 8 8 14l136 112q11 10 24 10h29q12 0 12 -10q0 -9 -10 -16zM447 772q-12 -9 -25 -9
h-16q-11 0 -11 10q0 8 8 14l136 112q11 10 24 10h29q12 0 12 -10q0 -9 -10 -16z" />
    <glyph glyph-name="ohungarumlaut" unicode="&#x151;" horiz-adv-x="552" 
d="M492 252q0 -153 -51 -209t-167 -56q-56 0 -93.5 11t-66 40t-41.5 80.5t-13 130.5t16 132t48 80t68.5 37.5t87.5 10.5q57 0 93 -9t65 -35.5t41.5 -78t12.5 -134.5zM449 248q0 95 -17 143t-51.5 63.5t-102.5 15.5q-45 0 -75 -8.5t-54 -31.5t-35 -66.5t-11 -111.5
q0 -72 10 -117.5t33.5 -69t52.5 -31.5t76 -8q37 0 61 4t47.5 17t36.5 36.5t21 64.5t8 100zM218 589q-8 -9 -19 -9h-16q-9 0 -9 9q0 6 4 10l106 138q7 10 19 10h26q10 0 10 -9q0 -7 -7 -14zM358 589q-8 -9 -19 -9h-16q-9 0 -9 9q0 6 4 10l106 138q7 10 19 10h26q10 0 10 -9
q0 -7 -7 -14z" />
    <glyph glyph-name="OE" unicode="&#x152;" horiz-adv-x="967" 
d="M909 0h-375q-101 -12 -166 -12q-166 0 -232 80.5t-66 280.5q0 199 74 282.5t229 83.5q97 0 156 -9h366q17 0 17 -15v-11q0 -15 -17 -15h-326v-276h294q17 0 17 -15v-11q0 -15 -17 -15h-294v-307h340q17 0 17 -15v-11q0 -15 -17 -15zM524 41v624q-42 8 -163 8
q-61 0 -103.5 -14t-76 -48.5t-49.5 -99t-16 -160.5q0 -182 56.5 -251.5t186.5 -69.5q96 0 165 11z" />
    <glyph glyph-name="oe" unicode="&#x153;" horiz-adv-x="912" 
d="M492 239q1 -124 44 -168.5t137 -44.5q72 0 138 24q15 6 21 6t10 -7q5 -8 5 -16q0 -10 -15 -16q-69 -30 -163 -30q-81 0 -129.5 27.5t-69.5 87.5q-20 -62 -67.5 -88.5t-128.5 -26.5q-56 0 -93.5 11t-66 40t-41.5 80.5t-13 130.5t16 132t48 80t68.5 37.5t87.5 10.5
q83 0 129.5 -23.5t64.5 -91.5q46 115 198 115q58 0 96 -16.5t57.5 -50t26.5 -73t7 -96.5q0 -23 -6 -29q-5 -5 -19 -5h-342zM449 247q0 96 -17 144t-51.5 63.5t-102.5 15.5q-45 0 -75 -8.5t-54 -31.5t-35 -66.5t-11 -111.5q0 -72 10 -117.5t33.5 -69t52.5 -31.5t76 -8
q35 0 58 3.5t47 16t38 36t22.5 65t8.5 100.5zM492 276h322q1 9 1 29q0 80 -31.5 122.5t-116.5 42.5q-94 0 -133.5 -50.5t-41.5 -143.5z" />
    <glyph glyph-name="Racute" unicode="&#x154;" horiz-adv-x="614" 
d="M155 14q0 -17 -17 -17h-12q-16 0 -16 17v675q0 17 16 17h144q119 0 167 -19q55 -22 78 -62.5t23 -106.5q0 -147 -132 -183q-13 -4 -25 -5l179 -300q8 -14 8 -20q0 -13 -15 -13h-12q-14 0 -27 22l-183 305q-17 -2 -56 -2h-120v-308zM155 363h125q94 0 138 19q73 32 73 134
q0 61 -18 88.5t-54 43.5q-39 17 -147 17h-117v-302zM277 772q-12 -9 -25 -9h-16q-11 0 -11 10q0 8 8 14l142 112q11 10 24 10h32q12 0 12 -10q0 -9 -10 -16z" />
    <glyph glyph-name="racute" unicode="&#x155;" horiz-adv-x="344" 
d="M141 13q0 -16 -16 -16h-10q-16 0 -16 16v474q0 14 17 14h9q8 0 11 -4t4 -15l1 -24q42 49 154 49q17 0 28 -2q10 -2 10 -10q0 -11 -2 -20q-2 -10 -12 -10q-1 0 -14 1t-18 1q-67 0 -121 -27q-16 -8 -20 -15q-5 -7 -5 -23v-389zM207 589q-8 -9 -19 -9h-16q-9 0 -9 9
q0 6 4 10l112 138q7 10 19 10h29q10 0 10 -9q0 -7 -7 -14z" />
    <glyph glyph-name="Rcommaaccent" unicode="&#x156;" horiz-adv-x="614" 
d="M155 14q0 -17 -17 -17h-12q-16 0 -16 17v675q0 17 16 17h144q119 0 167 -19q55 -22 78 -62.5t23 -106.5q0 -147 -132 -183q-13 -4 -25 -5l179 -300q8 -14 8 -20q0 -13 -15 -13h-12q-14 0 -27 22l-183 305q-17 -2 -56 -2h-120v-308zM155 363h125q94 0 138 19q73 32 73 134
q0 61 -18 88.5t-54 43.5q-39 17 -147 17h-117v-302zM325 -72q15 0 15 -15q0 -105 -63 -171q-8 -8 -15 -8q-4 0 -12 6q-7 5 -7 11t6 14q44 57 44 140q0 23 16 23h16z" />
    <glyph glyph-name="rcommaaccent" unicode="&#x157;" horiz-adv-x="344" 
d="M141 13q0 -16 -16 -16h-10q-16 0 -16 16v474q0 14 17 14h9q8 0 11 -4t4 -15l1 -24q42 49 154 49q17 0 28 -2q10 -2 10 -10q0 -11 -2 -20q-2 -10 -12 -10q-1 0 -14 1t-18 1q-67 0 -121 -27q-16 -8 -20 -15q-5 -7 -5 -23v-389zM133 -72q15 0 15 -15q0 -105 -63 -171
q-8 -8 -15 -8q-4 0 -12 6q-7 5 -7 11t6 14q44 57 44 140q0 23 16 23h16z" />
    <glyph glyph-name="Rcaron" unicode="&#x158;" horiz-adv-x="614" 
d="M155 14q0 -17 -17 -17h-12q-16 0 -16 17v675q0 17 16 17h144q119 0 167 -19q55 -22 78 -62.5t23 -106.5q0 -147 -132 -183q-13 -4 -25 -5l179 -300q8 -14 8 -20q0 -13 -15 -13h-12q-14 0 -27 22l-183 305q-17 -2 -56 -2h-120v-308zM155 363h125q94 0 138 19q73 32 73 134
q0 61 -18 88.5t-54 43.5q-39 17 -147 17h-117v-302zM415 904h13q10 0 10 -10q0 -6 -6 -13l-108 -102q-12 -12 -24 -12h-12q-10 0 -22 10l-111 106q-4 4 -4 11q0 10 13 10h11q10 0 24 -11l97 -77l94 76q15 12 25 12z" />
    <glyph glyph-name="rcaron" unicode="&#x159;" horiz-adv-x="344" 
d="M141 13q0 -16 -16 -16h-10q-16 0 -16 16v474q0 14 17 14h9q8 0 11 -4t4 -15l1 -24q42 49 154 49q17 0 28 -2q10 -2 10 -10q0 -11 -2 -20q-2 -10 -12 -10q-1 0 -14 1t-18 1q-67 0 -121 -27q-16 -8 -20 -15q-5 -7 -5 -23v-389zM321 751h12q10 0 10 -9q0 -7 -6 -14
l-100 -142q-7 -12 -22 -12h-13q-12 0 -19 10l-101 146q-5 8 -5 12q0 9 10 9h11q12 0 20 -11l93 -119l90 117q9 13 20 13z" />
    <glyph glyph-name="Sacute" unicode="&#x15a;" horiz-adv-x="554" 
d="M338 357q88 -27 123.5 -62.5t35.5 -107.5q0 -96 -55.5 -148t-180.5 -52q-105 0 -189 36q-17 7 -17 16q0 7 5 20q5 12 16 12q4 0 23 -7q76 -34 162 -34q51 0 88 10.5t56 25.5t30 37.5t13.5 39.5t2.5 40q0 21 -4.5 37t-19 36t-47.5 37.5t-84 32.5l-99 29q-64 19 -98.5 64.5
t-34.5 105.5q0 96 56 145t178 49q85 0 154 -22q16 -5 16 -16q0 -5 -5 -20q-3 -9 -15 -9q-9 0 -21 4q-79 21 -134 21q-106 0 -144.5 -38t-38.5 -110q0 -50 28.5 -85.5t112.5 -60.5zM260 772q-12 -9 -25 -9h-16q-11 0 -11 10q0 8 8 14l142 112q11 10 24 10h32q12 0 12 -10
q0 -9 -10 -16z" />
    <glyph glyph-name="sacute" unicode="&#x15b;" horiz-adv-x="430" 
d="M270 255q59 -13 89 -42t30 -84q0 -142 -184 -142q-89 0 -149 25q-12 5 -12 14q0 8 5 18t14 10q1 0 16 -5q54 -23 126 -23q85 0 113 28t28 73q0 36 -20 57t-89 39l-82 21q-105 26 -105 122q0 142 181 142q68 0 120 -14q17 -4 17 -16q0 -5 -4 -17q-3 -9 -11 -9q-6 0 -15 3
q-59 15 -111 15q-79 0 -106.5 -25.5t-27.5 -74.5q0 -37 20.5 -58.5t83.5 -37.5zM212 589q-8 -9 -19 -9h-16q-9 0 -9 9q0 6 4 10l112 138q7 10 19 10h29q10 0 10 -9q0 -7 -7 -14z" />
    <glyph glyph-name="Scircumflex" unicode="&#x15c;" horiz-adv-x="554" 
d="M338 357q88 -27 123.5 -62.5t35.5 -107.5q0 -96 -55.5 -148t-180.5 -52q-105 0 -189 36q-17 7 -17 16q0 7 5 20q5 12 16 12q4 0 23 -7q76 -34 162 -34q51 0 88 10.5t56 25.5t30 37.5t13.5 39.5t2.5 40q0 21 -4.5 37t-19 36t-47.5 37.5t-84 32.5l-99 29q-64 19 -98.5 64.5
t-34.5 105.5q0 96 56 145t178 49q85 0 154 -22q16 -5 16 -16q0 -5 -5 -20q-3 -9 -15 -9q-9 0 -21 4q-79 21 -134 21q-106 0 -144.5 -38t-38.5 -110q0 -50 28.5 -85.5t112.5 -60.5zM162 763h-13q-10 0 -10 10q0 5 6 13l108 102q12 12 24 12h12q10 0 22 -10l111 -106
q4 -4 4 -11q0 -10 -13 -10h-11q-10 0 -24 11l-97 77l-94 -76q-15 -12 -25 -12z" />
    <glyph glyph-name="scircumflex" unicode="&#x15d;" horiz-adv-x="430" 
d="M270 255q59 -13 89 -42t30 -84q0 -142 -184 -142q-89 0 -149 25q-12 5 -12 14q0 8 5 18t14 10q1 0 16 -5q54 -23 126 -23q85 0 113 28t28 73q0 36 -20 57t-89 39l-82 21q-105 26 -105 122q0 142 181 142q68 0 120 -14q17 -4 17 -16q0 -5 -4 -17q-3 -9 -11 -9q-6 0 -15 3
q-59 15 -111 15q-79 0 -106.5 -25.5t-27.5 -74.5q0 -37 20.5 -58.5t83.5 -37.5zM110 570h-12q-10 0 -10 9q0 7 6 14l100 142q8 12 22 12h13q12 0 19 -10l101 -146q5 -7 5 -12q0 -9 -10 -9h-11q-12 0 -20 11l-93 119l-90 -117q-9 -13 -20 -13z" />
    <glyph glyph-name="Scedilla" unicode="&#x15e;" horiz-adv-x="554" 
d="M251 -68q62 0 83 -22t21 -62q0 -89 -115 -89q-25 0 -51 6q-11 3 -11 13q0 8 2 14q4 10 13 10q4 0 13 -3q22 -4 36 -4q69 0 69 50q0 26 -14.5 38t-47.5 12q-4 0 -13 -0.5t-10 -0.5q-16 0 -16 17q0 9 4 27l9 50q-84 6 -151 35q-17 7 -17 16q0 7 5 20q5 12 16 12q4 0 23 -7
q76 -34 162 -34q51 0 88 10.5t56 25.5t30 37.5t13.5 39.5t2.5 40q0 21 -4.5 37t-19 36t-47.5 37.5t-84 32.5l-99 29q-64 19 -98.5 64.5t-34.5 105.5q0 96 56 145t178 49q85 0 154 -22q16 -5 16 -16q0 -5 -5 -20q-3 -9 -15 -9q-9 0 -21 4q-79 21 -134 21q-106 0 -144.5 -38
t-38.5 -110q0 -50 28.5 -85.5t112.5 -60.5l87 -26q88 -27 123.5 -62.5t35.5 -107.5q0 -96 -55.5 -148t-180.5 -52h-1z" />
    <glyph glyph-name="scedilla" unicode="&#x15f;" horiz-adv-x="430" 
d="M202 -66q57 0 76.5 -21t19.5 -60q0 -86 -106 -86q-26 0 -48 6q-9 4 -9 12t2 14q4 9 12 9l12 -2q20 -4 33 -4q63 0 63 48q0 26 -13.5 37.5t-43.5 11.5q-3 0 -11 -0.5t-9 -0.5q-15 0 -15 16q0 3 1.5 12t1.5 12l9 50q-70 3 -121 24q-12 5 -12 14q0 8 5 18t14 10q1 0 16 -5
q54 -23 126 -23q85 0 113 28t28 73q0 36 -20 57t-89 39l-82 21q-105 26 -105 122q0 142 181 142q68 0 120 -14q17 -4 17 -16q0 -5 -4 -17q-3 -9 -11 -9q-6 0 -15 3q-59 15 -111 15q-79 0 -106.5 -25.5t-27.5 -74.5q0 -37 20.5 -58.5t83.5 -37.5l73 -19q59 -13 89 -42t30 -84
q0 -139 -179 -142z" />
    <glyph glyph-name="Scaron" unicode="&#x160;" horiz-adv-x="554" 
d="M338 357q88 -27 123.5 -62.5t35.5 -107.5q0 -96 -55.5 -148t-180.5 -52q-105 0 -189 36q-17 7 -17 16q0 7 5 20q5 12 16 12q4 0 23 -7q76 -34 162 -34q51 0 88 10.5t56 25.5t30 37.5t13.5 39.5t2.5 40q0 21 -4.5 37t-19 36t-47.5 37.5t-84 32.5l-99 29q-64 19 -98.5 64.5
t-34.5 105.5q0 96 56 145t178 49q85 0 154 -22q16 -5 16 -16q0 -5 -5 -20q-3 -9 -15 -9q-9 0 -21 4q-79 21 -134 21q-106 0 -144.5 -38t-38.5 -110q0 -50 28.5 -85.5t112.5 -60.5zM398 904h13q10 0 10 -10q0 -6 -6 -13l-108 -102q-12 -12 -24 -12h-12q-10 0 -22 10l-111 106
q-4 4 -4 11q0 10 13 10h11q10 0 24 -11l97 -77l94 76q15 12 25 12z" />
    <glyph glyph-name="scaron" unicode="&#x161;" horiz-adv-x="430" 
d="M270 255q59 -13 89 -42t30 -84q0 -142 -184 -142q-89 0 -149 25q-12 5 -12 14q0 8 5 18t14 10q1 0 16 -5q54 -23 126 -23q85 0 113 28t28 73q0 36 -20 57t-89 39l-82 21q-105 26 -105 122q0 142 181 142q68 0 120 -14q17 -4 17 -16q0 -5 -4 -17q-3 -9 -11 -9q-6 0 -15 3
q-59 15 -111 15q-79 0 -106.5 -25.5t-27.5 -74.5q0 -37 20.5 -58.5t83.5 -37.5zM333 751h12q10 0 10 -9q0 -7 -6 -14l-100 -142q-7 -12 -22 -12h-13q-12 0 -19 10l-101 146q-5 8 -5 12q0 9 10 9h11q12 0 20 -11l93 -119l90 117q9 13 20 13z" />
    <glyph glyph-name="uni0162" unicode="&#x162;" horiz-adv-x="557" 
d="M278 -68q62 0 83 -22t21 -62q0 -89 -115 -89q-25 0 -51 6q-11 3 -11 13q0 8 2 14q4 10 13 10q4 0 13 -3q22 -4 36 -4q69 0 69 50q0 26 -14.5 38t-47.5 12q-4 0 -13 -0.5t-10 -0.5q-16 0 -16 17q0 9 4 27l12 63q-3 4 -3 13v651h-216q-17 0 -17 15v11q0 15 17 15h477
q17 0 17 -15v-11q0 -15 -17 -15h-216v-651q0 -11 -6 -14z" />
    <glyph glyph-name="uni0163" unicode="&#x163;" horiz-adv-x="296" 
d="M181 -66q57 0 76.5 -21t19.5 -60q0 -86 -106 -86q-26 0 -48 6q-9 4 -9 12t2 14q4 9 12 9l12 -2q20 -4 33 -4q63 0 63 48q0 26 -13.5 37.5t-43.5 11.5q-3 0 -11 -0.5t-9 -0.5q-15 0 -15 16q0 3 1.5 12t1.5 12l10 58q-19 8 -28 21q-20 28 -20 98v341h-60q-14 0 -14 14v11
q0 14 15 14h60q0 32 2 120q0 18 13 18h12q13 0 13 -17v-121h108q16 0 16 -13v-11q0 -15 -17 -15h-106v-340q0 -48 12 -68q12 -22 55 -22q17 0 37 3.5t21 3.5q8 0 11 -7q3 -9 3 -15q0 -10 -14 -15q-27 -9 -75 -9q-8 0 -12 1z" />
    <glyph glyph-name="Tcaron" unicode="&#x164;" horiz-adv-x="557" 
d="M295 14q0 -17 -16 -17h-13q-16 0 -16 17v651h-216q-17 0 -17 15v11q0 15 17 15h477q17 0 17 -15v-11q0 -15 -17 -15h-216v-651zM392 904h13q10 0 10 -10q0 -6 -6 -13l-108 -102q-12 -12 -24 -12h-12q-10 0 -22 10l-111 106q-4 4 -4 11q0 10 13 10h11q10 0 24 -11l97 -77
l94 76q15 12 25 12z" />
    <glyph glyph-name="tcaron" unicode="&#x165;" horiz-adv-x="296" 
d="M151 456v-340q0 -48 12 -68q12 -22 55 -22q17 0 37 3.5t21 3.5q8 0 11 -7q3 -9 3 -15q0 -10 -14 -15q-27 -9 -75 -9q-50 0 -72 30q-20 28 -20 98v341h-60q-14 0 -14 14v11q0 14 15 14h60q0 32 2 120q0 18 13 18h12q13 0 13 -17v-121h108q16 0 16 -13v-11q0 -15 -17 -15
h-106zM296 746q15 0 15 -15q0 -105 -63 -171q-8 -8 -15 -8q-5 0 -13 6q-7 5 -7 11t6 14q43 56 43 140q0 23 16 23h18z" />
    <glyph glyph-name="Tbar" unicode="&#x166;" horiz-adv-x="557" 
d="M301 14q0 -17 -16 -17h-13q-16 0 -16 17v369h-138q-14 0 -14 12v15q0 14 15 14h137v241h-216q-17 0 -17 15v11q0 15 17 15h477q17 0 17 -15v-11q0 -15 -17 -15h-216v-241h141q15 0 15 -14v-15q0 -12 -14 -12h-142v-369z" />
    <glyph glyph-name="tbar" unicode="&#x167;" horiz-adv-x="296" 
d="M151 456v-117h104q15 0 15 -14v-11q0 -12 -14 -12h-105v-186q0 -48 12 -68q12 -22 55 -22q17 0 37 3.5t21 3.5q8 0 11 -7q3 -9 3 -15q0 -10 -14 -15q-27 -9 -75 -9q-50 0 -72 30q-20 28 -20 98v187h-58q-14 0 -14 12v11q0 14 15 14h57v117h-60q-14 0 -14 14v11
q0 14 15 14h60q0 32 2 120q0 18 13 18h12q13 0 13 -17v-121h108q16 0 16 -13v-11q0 -15 -17 -15h-106z" />
    <glyph glyph-name="Utilde" unicode="&#x168;" horiz-adv-x="688" 
d="M585 689v-407q0 -85 -5 -126.5t-22 -73.5q-52 -96 -216 -96q-83 0 -136.5 23.5t-80.5 81.5q-22 46 -22 189v409q0 17 17 17h13q15 0 15 -17v-434q0 -114 23 -154q42 -72 173 -72q136 0 172 68q24 45 24 153v439q0 17 17 17h13q15 0 15 -17zM209 780h-9q-12 0 -12 11
q0 9 5 19q29 69 80 69q23 0 81 -31q44 -24 66 -24q14 0 24 8t20 35q6 17 18 17h11q12 0 12 -10q0 -8 -4 -19q-15 -43 -34 -60t-48 -17q-28 0 -80 27q-53 28 -71 28q-14 0 -22 -8t-18 -32q-5 -13 -19 -13z" />
    <glyph glyph-name="utilde" unicode="&#x169;" horiz-adv-x="574" 
d="M433 33q-24 -23 -78.5 -33.5t-107.5 -10.5q-65 0 -97.5 15.5t-44.5 47.5q-10 26 -10 100v330q0 16 16 16h10q16 0 16 -16v-327q0 -57 9 -80q8 -23 32 -34.5t77 -11.5q102 0 156 27q14 5 17 11q5 7 5 23v392q0 16 16 16h10q16 0 16 -16v-471q0 -14 -17 -14h-9
q-14 0 -15 19zM163 609h-9q-11 0 -11 11q0 8 5 18q27 69 76 69q22 0 77 -31q43 -24 64 -24q14 0 23 8t19 35q6 17 17 17h11q11 0 11 -10q0 -7 -4 -18q-14 -43 -32 -60t-46 -17q-24 0 -77 27q-53 28 -67 28q-13 0 -21.5 -8t-17.5 -32q-5 -13 -18 -13z" />
    <glyph glyph-name="Umacron" unicode="&#x16a;" horiz-adv-x="688" 
d="M585 689v-407q0 -85 -5 -126.5t-22 -73.5q-52 -96 -216 -96q-83 0 -136.5 23.5t-80.5 81.5q-22 46 -22 189v409q0 17 17 17h13q15 0 15 -17v-434q0 -114 23 -154q42 -72 173 -72q136 0 172 68q24 45 24 153v439q0 17 17 17h13q15 0 15 -17zM472 802h-248q-14 0 -14 12v18
q0 14 15 14h246q15 0 15 -14v-18q0 -12 -14 -12z" />
    <glyph glyph-name="umacron" unicode="&#x16b;" horiz-adv-x="574" 
d="M433 33q-24 -23 -78.5 -33.5t-107.5 -10.5q-65 0 -97.5 15.5t-44.5 47.5q-10 26 -10 100v330q0 16 16 16h10q16 0 16 -16v-327q0 -57 9 -80q8 -23 32 -34.5t77 -11.5q102 0 156 27q14 5 17 11q5 7 5 23v392q0 16 16 16h10q16 0 16 -16v-471q0 -14 -17 -14h-9
q-14 0 -15 19zM404 619h-228q-14 0 -14 12v18q0 14 15 14h226q15 0 15 -14v-18q0 -12 -14 -12z" />
    <glyph glyph-name="Ubreve" unicode="&#x16c;" horiz-adv-x="688" 
d="M585 689v-407q0 -85 -5 -126.5t-22 -73.5q-52 -96 -216 -96q-83 0 -136.5 23.5t-80.5 81.5q-22 46 -22 189v409q0 17 17 17h13q15 0 15 -17v-434q0 -114 23 -154q42 -72 173 -72q136 0 172 68q24 45 24 153v439q0 17 17 17h13q15 0 15 -17zM476 899q11 0 11 -10
q0 -12 -4 -32q-23 -94 -138 -94q-120 0 -136 101q-2 14 -2 25q0 10 13 10h12q11 0 13 -10q5 -41 28 -62.5t72 -21.5q97 0 106 85q0 9 11 9h14z" />
    <glyph glyph-name="ubreve" unicode="&#x16d;" horiz-adv-x="574" 
d="M433 33q-24 -23 -78.5 -33.5t-107.5 -10.5q-65 0 -97.5 15.5t-44.5 47.5q-10 26 -10 100v330q0 16 16 16h10q16 0 16 -16v-327q0 -57 9 -80q8 -23 32 -34.5t77 -11.5q102 0 156 27q14 5 17 11q5 7 5 23v392q0 16 16 16h10q16 0 16 -16v-471q0 -14 -17 -14h-9
q-14 0 -15 19zM409 714q10 0 10 -10q0 -13 -4 -33q-21 -98 -129 -98q-113 0 -127 105q-2 14 -2 26q0 10 12 10h11q10 0 12 -10q5 -44 26.5 -66.5t67.5 -22.5q92 0 99 90q0 9 11 9h13z" />
    <glyph glyph-name="Uring" unicode="&#x16e;" horiz-adv-x="688" 
d="M585 689v-407q0 -85 -5 -126.5t-22 -73.5q-52 -96 -216 -96q-83 0 -136.5 23.5t-80.5 81.5q-22 46 -22 189v409q0 17 17 17h13q15 0 15 -17v-434q0 -114 23 -154q42 -72 173 -72q136 0 172 68q24 45 24 153v439q0 17 17 17h13q15 0 15 -17zM438 824q0 -42 -24.5 -65
t-65.5 -23q-39 0 -62.5 23t-23.5 65t24.5 66t64.5 24q41 0 64 -23.5t23 -66.5zM407 825q0 60 -58 60q-26 0 -41.5 -15.5t-15.5 -44.5t15.5 -45t42.5 -16t42 16t15 45z" />
    <glyph glyph-name="uring" unicode="&#x16f;" horiz-adv-x="574" 
d="M433 33q-24 -23 -78.5 -33.5t-107.5 -10.5q-65 0 -97.5 15.5t-44.5 47.5q-10 26 -10 100v330q0 16 16 16h10q16 0 16 -16v-327q0 -57 9 -80q8 -23 32 -34.5t77 -11.5q102 0 156 27q14 5 17 11q5 7 5 23v392q0 16 16 16h10q16 0 16 -16v-471q0 -14 -17 -14h-9
q-14 0 -15 19zM379 670q0 -44 -26 -68t-69 -24q-41 0 -66 24t-25 68t25.5 69.5t68.5 25.5t67.5 -25t24.5 -70zM347 672q0 31 -16.5 47.5t-45.5 16.5q-28 0 -44.5 -17t-16.5 -48q0 -30 17 -47.5t45 -17.5t44.5 17.5t16.5 48.5z" />
    <glyph glyph-name="Uhungarumlaut" unicode="&#x170;" horiz-adv-x="688" 
d="M585 689v-407q0 -85 -5 -126.5t-22 -73.5q-52 -96 -216 -96q-83 0 -136.5 23.5t-80.5 81.5q-22 46 -22 189v409q0 17 17 17h13q15 0 15 -17v-434q0 -114 23 -154q42 -72 173 -72q136 0 172 68q24 45 24 153v439q0 17 17 17h13q15 0 15 -17zM256 772q-12 -9 -25 -9h-16
q-11 0 -11 10q0 8 8 14l136 112q11 10 24 10h29q12 0 12 -10q0 -9 -10 -16zM429 772q-12 -9 -25 -9h-16q-11 0 -11 10q0 8 8 14l136 112q11 10 24 10h29q12 0 12 -10q0 -9 -10 -16z" />
    <glyph glyph-name="uhungarumlaut" unicode="&#x171;" horiz-adv-x="574" 
d="M433 33q-24 -23 -78.5 -33.5t-107.5 -10.5q-65 0 -97.5 15.5t-44.5 47.5q-10 26 -10 100v330q0 16 16 16h10q16 0 16 -16v-327q0 -57 9 -80q8 -23 32 -34.5t77 -11.5q102 0 156 27q14 5 17 11q5 7 5 23v392q0 16 16 16h10q16 0 16 -16v-471q0 -14 -17 -14h-9
q-14 0 -15 19zM218 589q-8 -9 -19 -9h-16q-9 0 -9 9q0 6 4 10l106 138q7 10 19 10h26q10 0 10 -9q0 -7 -7 -14zM358 589q-8 -9 -19 -9h-16q-9 0 -9 9q0 6 4 10l106 138q7 10 19 10h26q10 0 10 -9q0 -7 -7 -14z" />
    <glyph glyph-name="Uogonek" unicode="&#x172;" horiz-adv-x="688" 
d="M585 689v-407q0 -85 -5 -126.5t-22 -73.5q-49 -89 -195 -95q-45 -31 -61.5 -55.5t-16.5 -60.5q0 -60 65 -60q13 0 30 3t20 3q7 0 8 -7q5 -11 5 -16q0 -9 -9 -13q-24 -8 -61 -8q-49 0 -75.5 24.5t-26.5 71.5q0 42 17.5 68t53.5 50q-142 6 -187 104q-22 46 -22 189v409
q0 17 17 17h13q15 0 15 -17v-434q0 -114 23 -154q42 -72 173 -72q136 0 172 68q24 45 24 153v439q0 17 17 17h13q15 0 15 -17z" />
    <glyph glyph-name="uogonek" unicode="&#x173;" horiz-adv-x="574" 
d="M480 5q-59 -38 -79.5 -63t-20.5 -64q0 -57 61 -57q12 0 28.5 2.5t18.5 2.5q6 0 8 -6q4 -12 4 -16q0 -9 -8 -12q-23 -8 -58 -8q-45 0 -70.5 23.5t-25.5 68.5q0 46 22.5 72.5t72.5 56.5h3q-2 6 -2 11l-1 17q-24 -23 -78.5 -33.5t-107.5 -10.5q-65 0 -97.5 15.5t-44.5 47.5
q-10 26 -10 100v330q0 16 16 16h10q16 0 16 -16v-327q0 -57 9 -80q8 -23 32 -34.5t77 -11.5q102 0 156 27q14 5 17 11q5 7 5 23v392q0 16 16 16h10q16 0 16 -16v-471q0 -2 -1 -4v-2h6z" />
    <glyph glyph-name="Wcircumflex" unicode="&#x174;" horiz-adv-x="910" 
d="M455 609q-40 -138 -190 -596q-6 -16 -20 -16h-11q-15 0 -19 16l-176 659q-4 15 -4 24q0 13 16 13h12q14 0 20 -22l161 -611l186 582q4 12 8.5 16.5t12.5 4.5h10q13 0 20 -21q152 -467 184 -582q29 118 162 609q6 24 22 24h11q15 0 15 -13q0 -6 -5 -26l-182 -657
q-5 -16 -20 -16h-11q-15 0 -19 16zM335 763h-13q-10 0 -10 10q0 5 6 13l108 102q12 12 24 12h12q10 0 22 -10l111 -106q4 -4 4 -11q0 -10 -13 -10h-11q-10 0 -24 11l-97 77l-94 -76q-15 -12 -25 -12z" />
    <glyph glyph-name="wcircumflex" unicode="&#x175;" horiz-adv-x="712" 
d="M356 415q-23 -77 -138 -401q-6 -17 -20 -17h-9q-15 0 -20 17l-143 454q-4 12 -4 18q0 12 16 12h13q8 0 11.5 -4.5t7.5 -18.5q89 -283 126 -412q37 116 135 391q3 9 5 13t6.5 7.5t11.5 3.5h9q11 0 20 -24q105 -284 140 -391l121 411q4 14 8 19t13 5h11q14 0 14 -12
q0 -7 -6 -27l-138 -445q-5 -17 -19 -17h-11q-12 0 -19 17q-112 311 -141 401zM246 570h-12q-10 0 -10 9q0 7 6 14l100 142q8 12 22 12h13q12 0 19 -10l101 -146q5 -7 5 -12q0 -9 -10 -9h-11q-12 0 -20 11l-93 119l-90 -117q-9 -13 -20 -13z" />
    <glyph glyph-name="Ycircumflex" unicode="&#x176;" horiz-adv-x="541" 
d="M293 15q0 -18 -16 -18h-13q-16 0 -16 18v300l-226 352q-14 22 -14 30q0 5 4 9.5t10 4.5h13q12 0 23 -17q174 -274 214 -341q33 57 210 336q14 22 28 22h10q14 0 14 -10q0 -12 -10 -26l-231 -360v-300zM152 763h-13q-10 0 -10 10q0 5 6 13l108 102q12 12 24 12h12
q10 0 22 -10l111 -106q4 -4 4 -11q0 -10 -13 -10h-11q-10 0 -24 11l-97 77l-94 -76q-15 -12 -25 -12z" />
    <glyph glyph-name="ycircumflex" unicode="&#x177;" horiz-adv-x="432" 
d="M191 15l-177 448q-6 15 -6 23q0 12 16 12h12q13 0 22 -24l158 -409l160 409q9 24 22 24h11q16 0 16 -12q0 -8 -6 -23l-214 -524q-22 -54 -32 -76q-25 -56 -54 -83q-33 -30 -84 -30q-26 0 -36 2q-18 4 -18 14q0 6 3 15q4 9 13 9l11 -1q12 -1 28 -1q33 0 50 13q19 14 50 81
l37 88zM105 570h-12q-10 0 -10 9q0 7 6 14l100 142q7 12 22 12h13q12 0 19 -10l101 -146q5 -7 5 -12q0 -9 -10 -9h-11q-12 0 -20 11l-93 119l-90 -117q-9 -13 -20 -13z" />
    <glyph glyph-name="Ydieresis" unicode="&#x178;" horiz-adv-x="541" 
d="M293 15q0 -18 -16 -18h-13q-16 0 -16 18v300l-226 352q-14 22 -14 30q0 5 4 9.5t10 4.5h13q12 0 23 -17q174 -274 214 -341q33 57 210 336q14 22 28 22h10q14 0 14 -10q0 -12 -10 -26l-231 -360v-300zM214 815q0 -36 -33 -36t-33 35q0 36 33 36t33 -35zM396 815
q0 -36 -33 -36t-33 35q0 36 33 36t33 -35z" />
    <glyph glyph-name="Zacute" unicode="&#x179;" horiz-adv-x="587" 
d="M538 0h-497q-17 0 -17 14v8q0 9 8 19l450 624h-403q-19 0 -19 15v10q0 16 19 16h445q16 0 16 -14v-6q0 -10 -4 -17l-452 -628h454q19 0 19 -15v-11q0 -15 -19 -15zM302 772q-12 -9 -25 -9h-16q-11 0 -11 10q0 8 8 14l142 112q11 10 24 10h32q12 0 12 -10q0 -9 -10 -16z
" />
    <glyph glyph-name="zacute" unicode="&#x17a;" horiz-adv-x="467" 
d="M416 0h-365q-13 0 -13 11v8q0 9 9 20l313 417h-296q-14 0 -14 12v13q0 14 15 14h343q13 0 13 -11v-8q0 -9 -8 -20l-316 -417h319q14 0 14 -12v-15q0 -12 -14 -12zM244 589q-8 -9 -19 -9h-16q-9 0 -9 9q0 6 4 10l112 138q7 10 19 10h29q10 0 10 -9q0 -7 -7 -14z" />
    <glyph glyph-name="Zdotaccent" unicode="&#x17b;" horiz-adv-x="587" 
d="M538 0h-497q-17 0 -17 14v8q0 9 8 19l450 624h-403q-19 0 -19 15v10q0 16 19 16h445q16 0 16 -14v-6q0 -10 -4 -17l-452 -628h454q19 0 19 -15v-11q0 -15 -19 -15zM350 815q0 -36 -33 -36t-33 35q0 36 33 36t33 -35z" />
    <glyph glyph-name="zdotaccent" unicode="&#x17c;" horiz-adv-x="467" 
d="M416 0h-365q-13 0 -13 11v8q0 9 9 20l313 417h-296q-14 0 -14 12v13q0 14 15 14h343q13 0 13 -11v-8q0 -9 -8 -20l-316 -417h319q14 0 14 -12v-15q0 -12 -14 -12zM286 665q0 -36 -33 -36t-33 35q0 36 33 36t33 -35z" />
    <glyph glyph-name="Zcaron" unicode="&#x17d;" horiz-adv-x="587" 
d="M538 0h-497q-17 0 -17 14v8q0 9 8 19l450 624h-403q-19 0 -19 15v10q0 16 19 16h445q16 0 16 -14v-6q0 -10 -4 -17l-452 -628h454q19 0 19 -15v-11q0 -15 -19 -15zM419 904h13q10 0 10 -10q0 -6 -6 -13l-108 -102q-12 -12 -24 -12h-12q-10 0 -22 10l-111 106q-4 4 -4 11
q0 10 13 10h11q10 0 24 -11l97 -77l94 76q15 12 25 12z" />
    <glyph glyph-name="zcaron" unicode="&#x17e;" horiz-adv-x="467" 
d="M416 0h-365q-13 0 -13 11v8q0 9 9 20l313 417h-296q-14 0 -14 12v13q0 14 15 14h343q13 0 13 -11v-8q0 -9 -8 -20l-316 -417h319q14 0 14 -12v-15q0 -12 -14 -12zM344 751h12q10 0 10 -9q0 -7 -6 -14l-100 -142q-8 -12 -22 -12h-13q-12 0 -19 10l-101 146q-5 8 -5 12
q0 9 10 9h11q12 0 20 -11l93 -119l90 117q9 13 20 13z" />
    <glyph glyph-name="longs" unicode="&#x17f;" horiz-adv-x="241" 
d="M141 14q0 -17 -15 -17h-11q-16 0 -16 18v565q0 102 37 140q34 36 106 36q38 0 59 -6q9 -3 9 -11q0 -7 -3 -18q-3 -9 -13 -9q-1 0 -19 2.5t-34 2.5q-63 0 -83 -33q-17 -27 -17 -107v-563z" />
    <glyph glyph-name="florin" unicode="&#x192;" horiz-adv-x="445" 
d="M369 400h-119l-29 -340q-5 -62 -15 -92t-32 -52q-37 -37 -107 -37q-33 0 -53 4q-9 1 -9 11t3 21q3 9 13 9q1 0 17.5 -2t31.5 -2q61 0 77 31q23 44 28 107l29 342h-87q-17 0 -17 15v10q0 15 17 15h90l7 74q8 95 49 138q34 36 106 36q43 0 64 -6q9 -3 9 -11q0 -9 -3 -20
q-3 -9 -13 -9q-1 0 -21.5 2.5t-36.5 2.5q-62 0 -83 -34t-26 -104l-6 -69h116q17 0 17 -15v-10q0 -15 -17 -15z" />
    <glyph glyph-name="Aringacute" unicode="&#x1fa;" horiz-adv-x="573" 
d="M363 757q0 -56 -48 -73l242 -650q7 -17 7 -24q0 -13 -16 -13h-11q-9 0 -13 5t-10 19l-83 222h-289l-83 -224q-8 -22 -22 -22h-11q-17 0 -17 13q0 5 7 24l241 650q-47 15 -47 73q0 38 21 59t56 21q36 0 56 -21t20 -59zM157 284h259l-130 354q-28 -82 -129 -354zM333 759
q0 49 -47 49q-46 0 -46 -50q0 -42 34 -50q2 1 6 1h11q6 0 8 -1q34 8 34 51zM286 865q-9 -9 -19 -9h-11q-10 0 -10 8q0 4 5 11l100 92q7 10 22 10h26q10 0 10 -9q0 -7 -7 -14z" />
    <glyph glyph-name="aringacute" unicode="&#x1fb;" horiz-adv-x="525" 
d="M388 39q-56 -52 -157 -52q-172 0 -172 159q0 81 66 116q51 27 149 27q75 0 114 -6v59q0 56 -8 78q-19 50 -120 50q-73 0 -120 -12q-5 -1 -12 -3l-12 -3q-5 -2 -8 -2q-8 0 -10 8q-3 12 -3 17q0 9 13 13q71 21 161 21q96 0 132 -36q18 -18 23.5 -46t5.5 -79v-334
q0 -11 -3.5 -14t-11.5 -3h-9q-14 0 -15 11zM388 248q-56 7 -111 7q-106 0 -143 -31q-32 -27 -32 -79q0 -57 29 -88t107 -31t124 31q16 11 20 17q6 7 6 22v152zM363 670q0 -44 -26 -68t-69 -24q-41 0 -66 24t-25 68t25.5 69.5t68.5 25.5t67.5 -25t24.5 -70zM331 672
q0 31 -16.5 47.5t-45.5 16.5q-28 0 -44.5 -17t-16.5 -48q0 -30 17 -47.5t45 -17.5t44.5 17.5t16.5 48.5zM265 809q-8 -9 -19 -9h-16q-9 0 -9 9q0 6 4 10l112 138q7 10 19 10h29q10 0 10 -9q0 -7 -7 -14z" />
    <glyph glyph-name="AEacute" unicode="&#x1fc;" horiz-adv-x="934" 
d="M216 253l-157 -237q-12 -19 -27 -19h-15q-13 0 -13 12q0 5 12 24l444 657q10 16 32 16h370q17 0 17 -15v-11q0 -15 -17 -15h-326v-276h294q17 0 17 -15v-11q0 -15 -17 -15h-294v-307h340q17 0 17 -15v-11q0 -15 -17 -15h-369q-16 0 -16 17v236h-275zM243 294h248v374z
M627 772q-12 -9 -25 -9h-16q-11 0 -11 10q0 8 8 14l142 112q11 10 24 10h32q12 0 12 -10q0 -9 -10 -16z" />
    <glyph glyph-name="aeacute" unicode="&#x1fd;" horiz-adv-x="850" 
d="M431 245q1 -125 44.5 -172t136.5 -47q72 0 138 24q15 6 21 6q7 0 10 -7q5 -8 5 -16q0 -10 -15 -16q-69 -30 -163 -30q-129 0 -177 71q-73 -71 -200 -71q-172 0 -172 159q0 80 63 112q49 25 154 25q86 0 112 -3v61q0 55 -9 79q-19 50 -119 50q-73 0 -120 -12q-5 -1 -12 -3
l-12 -3q-5 -2 -8 -2q-8 0 -10 8q-3 12 -3 17q0 9 13 13q73 21 161 21q69 0 108.5 -21t46.5 -77q22 48 72 73t115 25q112 0 149.5 -57.5t37.5 -180.5q0 -15 -6 -21q-5 -5 -19 -5h-342zM388 245q-50 4 -109 4q-116 0 -148 -29q-29 -27 -29 -75q0 -57 29 -88t107 -31
q52 0 100 15.5t73 45.5q-23 57 -23 158zM431 282h322q1 9 1 23q0 80 -31.5 122.5t-116.5 42.5q-95 0 -134 -48t-41 -140zM440 589q-8 -9 -19 -9h-16q-9 0 -9 9q0 6 4 10l112 138q7 10 19 10h29q10 0 10 -9q0 -7 -7 -14z" />
    <glyph glyph-name="Oslashacute" unicode="&#x1fe;" horiz-adv-x="695" 
d="M99 -13q-6 -8 -13 -8t-18 9q-7 6 -7 11t5 12l55 75q-51 85 -51 271q0 109 20.5 182.5t60.5 111.5t87.5 53t113.5 15q135 0 192 -52l44 60q6 9 13 9q6 0 11 -4q14 -9 14 -15q0 -5 -4 -12l-51 -70q54 -81 54 -277q0 -145 -31.5 -227t-90.5 -113t-159 -31q-138 0 -198 65z
M579 357q0 167 -37 238l-369 -506q49 -60 172 -60q60 0 99 11.5t72 45t48 100t15 171.5zM116 358q0 -159 34 -231l367 502q-47 48 -168 48q-60 0 -100 -13t-71.5 -47t-46.5 -97.5t-15 -161.5zM354 772q-12 -9 -25 -9h-16q-11 0 -11 10q0 8 8 14l142 112q11 10 24 10h32
q12 0 12 -10q0 -9 -10 -16z" />
    <glyph glyph-name="oslashacute" unicode="&#x1ff;" horiz-adv-x="552" 
d="M95 -25q-6 -8 -12 -8q-7 0 -17 9q-7 6 -7 11t5 12l39 53q-43 59 -43 197q0 79 16 132t48 80t68.5 37.5t87.5 10.5q92 0 136 -27l38 52q5 8 14 8q6 0 11 -4q11 -7 11 -14q0 -5 -4 -12l-41 -56q47 -56 47 -204q0 -153 -51 -209t-167 -56q-96 0 -144 36zM449 248
q0 125 -30 172l-265 -363q36 -31 121 -31q37 0 61 4t47.5 17t36.5 36.5t21 64.5t8 100zM103 252q0 -112 27 -163l261 359q-34 22 -113 22q-45 0 -75 -8.5t-54 -31.5t-35 -66.5t-11 -111.5zM276 589q-8 -9 -19 -9h-16q-9 0 -9 9q0 6 4 10l112 138q7 10 19 10h29q10 0 10 -9
q0 -7 -7 -14z" />
    <glyph glyph-name="uni0218" unicode="&#x218;" horiz-adv-x="554" 
d="M338 357q88 -27 123.5 -62.5t35.5 -107.5q0 -96 -55.5 -148t-180.5 -52q-105 0 -189 36q-17 7 -17 16q0 7 5 20q5 12 16 12q4 0 23 -7q76 -34 162 -34q51 0 88 10.5t56 25.5t30 37.5t13.5 39.5t2.5 40q0 21 -4.5 37t-19 36t-47.5 37.5t-84 32.5l-99 29q-64 19 -98.5 64.5
t-34.5 105.5q0 96 56 145t178 49q85 0 154 -22q16 -5 16 -16q0 -5 -5 -20q-3 -9 -15 -9q-9 0 -21 4q-79 21 -134 21q-106 0 -144.5 -38t-38.5 -110q0 -50 28.5 -85.5t112.5 -60.5zM278 -72q15 0 15 -15q0 -105 -63 -171q-8 -8 -15 -8q-4 0 -12 6q-7 5 -7 11t6 14
q44 57 44 140q0 23 16 23h16z" />
    <glyph glyph-name="uni0219" unicode="&#x219;" horiz-adv-x="430" 
d="M270 255q59 -13 89 -42t30 -84q0 -142 -184 -142q-89 0 -149 25q-12 5 -12 14q0 8 5 18t14 10q1 0 16 -5q54 -23 126 -23q85 0 113 28t28 73q0 36 -20 57t-89 39l-82 21q-105 26 -105 122q0 142 181 142q68 0 120 -14q17 -4 17 -16q0 -5 -4 -17q-3 -9 -11 -9q-6 0 -15 3
q-59 15 -111 15q-79 0 -106.5 -25.5t-27.5 -74.5q0 -37 20.5 -58.5t83.5 -37.5zM224 -72q15 0 15 -15q0 -105 -63 -171q-8 -8 -15 -8q-4 0 -12 6q-7 5 -7 11t6 14q44 57 44 140q0 23 16 23h16z" />
    <glyph glyph-name="uni021A" unicode="&#x21a;" horiz-adv-x="557" 
d="M295 14q0 -17 -16 -17h-13q-16 0 -16 17v651h-216q-17 0 -17 15v11q0 15 17 15h477q17 0 17 -15v-11q0 -15 -17 -15h-216v-651zM284 -72q15 0 15 -15q0 -105 -63 -171q-8 -8 -15 -8q-4 0 -12 6q-7 5 -7 11t6 14q44 57 44 140q0 23 16 23h16z" />
    <glyph glyph-name="uni021B" unicode="&#x21b;" horiz-adv-x="296" 
d="M151 456v-340q0 -48 12 -68q12 -22 55 -22q17 0 37 3.5t21 3.5q8 0 11 -7q3 -9 3 -15q0 -10 -14 -15q-27 -9 -75 -9q-50 0 -72 30q-20 28 -20 98v341h-60q-14 0 -14 14v11q0 14 15 14h60q0 32 2 120q0 18 13 18h12q13 0 13 -17v-121h108q16 0 16 -13v-11q0 -15 -17 -15
h-106zM194 -72q15 0 15 -15q0 -105 -63 -171q-8 -8 -15 -8q-4 0 -12 6q-7 5 -7 11t6 14q44 57 44 140q0 23 16 23h16z" />
    <glyph glyph-name="circumflex" unicode="&#x2c6;" horiz-adv-x="197" 
d="M-12 570h-12q-10 0 -10 9q0 7 6 14l100 142q8 12 22 12h13q12 0 19 -10l101 -146q5 -7 5 -12q0 -9 -10 -9h-11q-12 0 -20 11l-93 119l-90 -117q-9 -13 -20 -13z" />
    <glyph glyph-name="caron" unicode="&#x2c7;" horiz-adv-x="197" 
d="M210 751h12q10 0 10 -9q0 -7 -6 -14l-100 -142q-7 -12 -22 -12h-13q-12 0 -19 10l-101 146q-5 8 -5 12q0 9 10 9h11q12 0 20 -11l93 -119l90 117q9 13 20 13z" />
    <glyph glyph-name="breve" unicode="&#x2d8;" horiz-adv-x="197" 
d="M222 714q10 0 10 -10q0 -13 -4 -33q-21 -98 -129 -98q-113 0 -127 105q-2 14 -2 26q0 10 12 10h11q10 0 12 -10q5 -44 26.5 -66.5t67.5 -22.5q92 0 99 90q0 9 11 9h13z" />
    <glyph glyph-name="dotaccent" unicode="&#x2d9;" horiz-adv-x="197" 
d="M132 665q0 -36 -33 -36t-33 35q0 36 33 36t33 -35z" />
    <glyph glyph-name="ring" unicode="&#x2da;" horiz-adv-x="197" 
d="M191 670q0 -44 -26 -68t-69 -24q-41 0 -66 24t-25 68t25.5 69.5t68.5 25.5t67.5 -25t24.5 -70zM159 672q0 31 -16.5 47.5t-45.5 16.5q-28 0 -44.5 -17t-16.5 -48q0 -30 17 -47.5t45 -17.5t44.5 17.5t16.5 48.5z" />
    <glyph glyph-name="ogonek" unicode="&#x2db;" horiz-adv-x="197" 
d="M168 5q-59 -38 -79.5 -63t-20.5 -64q0 -57 61 -57q12 0 28.5 2.5t18.5 2.5q6 0 8 -6q4 -12 4 -16q0 -9 -8 -12q-23 -8 -58 -8q-45 0 -70.5 23.5t-25.5 68.5q0 46 22.5 72.5t72.5 56.5h47z" />
    <glyph glyph-name="tilde" unicode="&#x2dc;" horiz-adv-x="197" 
d="M-33 609h-9q-11 0 -11 11q0 8 5 18q27 69 76 69q22 0 77 -31q43 -24 64 -24q14 0 23 8t19 35q6 17 17 17h11q11 0 11 -10q0 -7 -4 -18q-14 -43 -32 -60t-46 -17q-24 0 -77 27q-53 28 -67 28q-13 0 -21.5 -8t-17.5 -32q-5 -13 -18 -13z" />
    <glyph glyph-name="hungarumlaut" unicode="&#x2dd;" horiz-adv-x="197" 
d="M-10 589q-8 -9 -19 -9h-16q-9 0 -9 9q0 6 4 10l106 138q7 10 19 10h26q10 0 10 -9q0 -7 -7 -14zM130 589q-8 -9 -19 -9h-16q-9 0 -9 9q0 6 4 10l106 138q7 10 19 10h26q10 0 10 -9q0 -7 -7 -14z" />
    <glyph glyph-name="uni0394" unicode="&#x394;" horiz-adv-x="627" 
d="M613 27q4 -8 4 -16q0 -11 -13 -11h-582q-12 0 -12 11q0 3 3 12l271 641q5 13 20 13h23q13 0 18 -13zM313 632q-32 -87 -244 -591h488q-213 509 -244 591z" />
    <glyph glyph-name="uni03A9" unicode="&#x3a9;" horiz-adv-x="717" 
d="M317 13q0 -13 -14 -13h-216q-14 0 -14 13v13q0 15 14 15h182q-101 41 -144.5 116.5t-43.5 203.5q0 165 68.5 246.5t216.5 81.5q145 0 206 -79t61 -242q0 -126 -41 -202t-141 -125h178q14 0 14 -15v-13q0 -13 -14 -13h-216q-14 0 -14 13v29q0 13 11 18q88 39 132 109.5
t44 196.5q0 146 -50 213.5t-173 67.5q-124 0 -179.5 -69t-55.5 -214q0 -121 44 -194.5t134 -109.5q11 -6 11 -18v-29z" />
    <glyph glyph-name="uni03BC" unicode="&#x3bc;" horiz-adv-x="595" 
d="M151 18v-206q0 -16 -16 -16h-11q-16 0 -16 16v670q0 16 16 16h10q16 0 16 -16v-327q0 -57 9 -80q8 -23 32 -34.5t77 -11.5q100 0 156 28q14 5 17 11q5 7 5 23v391q0 16 16 16h10q16 0 16 -16v-471q0 -14 -17 -14h-9q-14 0 -15 19l-1 18q-24 -23 -79 -34t-107 -11
q-79 0 -109 29z" />
    <glyph glyph-name="pi" unicode="&#x3c0;" horiz-adv-x="580" 
d="M177 15q0 -15 -13 -15h-18q-14 0 -14 15v441h-55q-14 0 -14 14v11q0 14 14 14h458q13 0 13 -14v-11q0 -14 -13 -14h-56v-273q0 -95 15 -150q0 -2 2 -9.5t2 -10.5q0 -13 -12 -13h-17q-16 0 -19 13q-17 65 -17 168v275h-256v-441z" />
    <glyph glyph-name="Wgrave" unicode="&#x1e80;" horiz-adv-x="910" 
d="M455 609q-40 -138 -190 -596q-6 -16 -20 -16h-11q-15 0 -19 16l-176 659q-4 15 -4 24q0 13 16 13h12q14 0 20 -22l161 -611l186 582q4 12 8.5 16.5t12.5 4.5h10q13 0 20 -21q152 -467 184 -582q29 118 162 609q6 24 22 24h11q15 0 15 -13q0 -6 -5 -26l-182 -657
q-5 -16 -20 -16h-11q-15 0 -19 16zM474 772l-156 111q-10 7 -10 16q0 10 12 10h32q13 0 24 -10l142 -112q8 -6 8 -14q0 -10 -11 -10h-16q-13 0 -25 9z" />
    <glyph glyph-name="wgrave" unicode="&#x1e81;" horiz-adv-x="712" 
d="M356 415q-23 -77 -138 -401q-6 -17 -20 -17h-9q-15 0 -20 17l-143 454q-4 12 -4 18q0 12 16 12h13q8 0 11.5 -4.5t7.5 -18.5q89 -283 126 -412q37 116 135 391q3 9 5 13t6.5 7.5t11.5 3.5h9q11 0 20 -24q105 -284 140 -391l121 411q4 14 8 19t13 5h11q14 0 14 -12
q0 -7 -6 -27l-138 -445q-5 -17 -19 -17h-11q-12 0 -19 17q-112 311 -141 401zM360 589l-123 135q-7 7 -7 14q0 9 10 9h29q12 0 19 -10l112 -138q4 -4 4 -10q0 -9 -9 -9h-16q-11 0 -19 9z" />
    <glyph glyph-name="Wacute" unicode="&#x1e82;" horiz-adv-x="910" 
d="M455 609q-40 -138 -190 -596q-6 -16 -20 -16h-11q-15 0 -19 16l-176 659q-4 15 -4 24q0 13 16 13h12q14 0 20 -22l161 -611l186 582q4 12 8.5 16.5t12.5 4.5h10q13 0 20 -21q152 -467 184 -582q29 118 162 609q6 24 22 24h11q15 0 15 -13q0 -6 -5 -26l-182 -657
q-5 -16 -20 -16h-11q-15 0 -19 16zM467 772q-12 -9 -25 -9h-16q-11 0 -11 10q0 8 8 14l142 112q11 10 24 10h32q12 0 12 -10q0 -9 -10 -16z" />
    <glyph glyph-name="wacute" unicode="&#x1e83;" horiz-adv-x="712" 
d="M356 415q-23 -77 -138 -401q-6 -17 -20 -17h-9q-15 0 -20 17l-143 454q-4 12 -4 18q0 12 16 12h13q8 0 11.5 -4.5t7.5 -18.5q89 -283 126 -412q37 116 135 391q3 9 5 13t6.5 7.5t11.5 3.5h9q11 0 20 -24q105 -284 140 -391l121 411q4 14 8 19t13 5h11q14 0 14 -12
q0 -7 -6 -27l-138 -445q-5 -17 -19 -17h-11q-12 0 -19 17q-112 311 -141 401zM360 589q-8 -9 -19 -9h-16q-9 0 -9 9q0 6 4 10l112 138q7 10 19 10h29q10 0 10 -9q0 -7 -7 -14z" />
    <glyph glyph-name="Wdieresis" unicode="&#x1e84;" horiz-adv-x="910" 
d="M455 609q-40 -138 -190 -596q-6 -16 -20 -16h-11q-15 0 -19 16l-176 659q-4 15 -4 24q0 13 16 13h12q14 0 20 -22l161 -611l186 582q4 12 8.5 16.5t12.5 4.5h10q13 0 20 -21q152 -467 184 -582q29 118 162 609q6 24 22 24h11q15 0 15 -13q0 -6 -5 -26l-182 -657
q-5 -16 -20 -16h-11q-15 0 -19 16zM396 815q0 -36 -33 -36t-33 35q0 36 33 36t33 -35zM578 815q0 -36 -33 -36t-33 35q0 36 33 36t33 -35z" />
    <glyph glyph-name="wdieresis" unicode="&#x1e85;" horiz-adv-x="712" 
d="M356 415q-23 -77 -138 -401q-6 -17 -20 -17h-9q-15 0 -20 17l-143 454q-4 12 -4 18q0 12 16 12h13q8 0 11.5 -4.5t7.5 -18.5q89 -283 126 -412q37 116 135 391q3 9 5 13t6.5 7.5t11.5 3.5h9q11 0 20 -24q105 -284 140 -391l121 411q4 14 8 19t13 5h11q14 0 14 -12
q0 -7 -6 -27l-138 -445q-5 -17 -19 -17h-11q-12 0 -19 17q-112 311 -141 401zM301 665q0 -36 -33 -36t-33 35q0 36 33 36t33 -35zM473 665q0 -36 -33 -36t-33 35q0 36 33 36t33 -35z" />
    <glyph glyph-name="Ygrave" unicode="&#x1ef2;" horiz-adv-x="541" 
d="M293 15q0 -18 -16 -18h-13q-16 0 -16 18v300l-226 352q-14 22 -14 30q0 5 4 9.5t10 4.5h13q12 0 23 -17q174 -274 214 -341q33 57 210 336q14 22 28 22h10q14 0 14 -10q0 -12 -10 -26l-231 -360v-300zM285 772l-156 111q-10 7 -10 16q0 10 12 10h32q13 0 24 -10l142 -112
q8 -6 8 -14q0 -10 -11 -10h-16q-13 0 -25 9z" />
    <glyph glyph-name="ygrave" unicode="&#x1ef3;" horiz-adv-x="432" 
d="M191 15l-177 448q-6 15 -6 23q0 12 16 12h12q13 0 22 -24l158 -409l160 409q9 24 22 24h11q16 0 16 -12q0 -8 -6 -23l-214 -524q-22 -54 -32 -76q-25 -56 -54 -83q-33 -30 -84 -30q-26 0 -36 2q-18 4 -18 14q0 6 3 15q4 9 13 9l11 -1q12 -1 28 -1q33 0 50 13q19 14 50 81
l37 88zM225 589l-123 135q-7 7 -7 14q0 9 10 9h29q12 0 19 -10l112 -138q4 -4 4 -10q0 -9 -9 -9h-16q-11 0 -19 9z" />
    <glyph glyph-name="endash" unicode="&#x2013;" horiz-adv-x="539" 
d="M489 246h-439q-14 0 -14 12v16q0 14 15 14h437q15 0 15 -14v-16q0 -12 -14 -12z" />
    <glyph glyph-name="emdash" unicode="&#x2014;" horiz-adv-x="829" 
d="M779 246h-729q-14 0 -14 12v16q0 14 15 14h727q15 0 15 -14v-16q0 -12 -14 -12z" />
    <glyph glyph-name="quoteleft" unicode="&#x2018;" horiz-adv-x="166" 
d="M52 510q-17 0 -17 15q0 58 22 119.5t61 95.5q8 8 15 8q5 0 13 -5q8 -6 8 -12q0 -8 -6 -14q-24 -22 -43.5 -70t-19.5 -114q0 -23 -17 -23h-16z" />
    <glyph glyph-name="quoteright" unicode="&#x2019;" horiz-adv-x="166" 
d="M116 748q15 0 15 -15q0 -58 -22 -119.5t-61 -95.5q-8 -8 -15 -8q-5 0 -13 5q-8 6 -8 12q0 8 6 14q24 22 43.5 70t19.5 114q0 23 16 23h19z" />
    <glyph glyph-name="quotesinglbase" unicode="&#x201a;" horiz-adv-x="167" 
d="M116 78q15 0 15 -15q0 -58 -22 -119.5t-61 -95.5q-8 -8 -15 -8q-5 0 -13 5q-8 6 -8 12q0 8 6 14q24 22 43.5 70t19.5 114q0 23 16 23h19z" />
    <glyph glyph-name="quotedblleft" unicode="&#x201c;" horiz-adv-x="308" 
d="M194 510q-17 0 -17 15q0 58 22 119.5t61 95.5q8 8 15 8q5 0 13 -5q8 -6 8 -12q0 -8 -6 -14q-24 -22 -43.5 -70t-19.5 -114q0 -23 -17 -23h-16zM52 510q-17 0 -17 15q0 58 22 119.5t61 95.5q8 8 15 8q5 0 13 -5q8 -6 8 -12q0 -8 -6 -14q-24 -22 -43.5 -70t-19.5 -114
q0 -23 -17 -23h-16z" />
    <glyph glyph-name="quotedblright" unicode="&#x201d;" horiz-adv-x="308" 
d="M116 748q15 0 15 -15q0 -58 -22 -119.5t-61 -95.5q-8 -8 -15 -8q-5 0 -13 5q-8 6 -8 12q0 8 6 14q24 22 43.5 70t19.5 114q0 23 16 23h19zM258 748q15 0 15 -15q0 -58 -22 -119.5t-61 -95.5q-8 -8 -15 -8q-5 0 -13 5q-8 6 -8 12q0 8 6 14q24 22 43.5 70t19.5 114
q0 23 16 23h19z" />
    <glyph glyph-name="quotedblbase" unicode="&#x201e;" horiz-adv-x="308" 
d="M116 78q15 0 15 -15q0 -58 -22 -119.5t-61 -95.5q-8 -8 -15 -8q-5 0 -13 5q-8 6 -8 12q0 8 6 14q24 22 43.5 70t19.5 114q0 23 16 23h19zM258 78q15 0 15 -15q0 -58 -22 -119.5t-61 -95.5q-8 -8 -15 -8q-5 0 -13 5q-8 6 -8 12q0 8 6 14q24 22 43.5 70t19.5 114
q0 23 16 23h19z" />
    <glyph glyph-name="dagger" unicode="&#x2020;" horiz-adv-x="462" 
d="M253 -69q0 -17 -16 -17h-12q-16 0 -16 17v524h-159q-14 0 -14 12v14q0 14 15 14h158v204q0 17 17 17h12q15 0 15 -17v-204h158q15 0 15 -14v-14q0 -12 -14 -12h-159v-524z" />
    <glyph glyph-name="daggerdbl" unicode="&#x2021;" horiz-adv-x="462" 
d="M253 -69q0 -17 -16 -17h-12q-16 0 -16 17v214h-159q-14 0 -14 12v14q0 14 15 14h158v270h-159q-14 0 -14 12v14q0 14 15 14h158v204q0 17 17 17h12q15 0 15 -17v-204h158q15 0 15 -14v-14q0 -12 -14 -12h-159v-270h158q15 0 15 -14v-14q0 -12 -14 -12h-159v-214z" />
    <glyph glyph-name="bullet" unicode="&#x2022;" horiz-adv-x="328" 
d="M274 267q0 -115 -110 -115t-110 114t110 114q53 0 81.5 -26t28.5 -87z" />
    <glyph glyph-name="ellipsis" unicode="&#x2026;" horiz-adv-x="889" 
d="M203 29q0 -37 -37 -37t-37 37t37 37t37 -37zM482 29q0 -37 -37 -37t-37 37t37 37t37 -37zM761 29q0 -37 -37 -37t-37 37t37 37t37 -37z" />
    <glyph glyph-name="perthousand" unicode="&#x2030;" horiz-adv-x="1200" 
d="M340 474q0 -127 -34.5 -172.5t-118.5 -45.5q-80 0 -115 45t-35 168q0 125 39.5 170t116.5 45q56 0 85.5 -15.5t45.5 -61.5t16 -133zM297 474q0 103 -23.5 137.5t-82.5 34.5q-58 0 -84.5 -36.5t-26.5 -139.5q0 -106 25 -141.5t82 -35.5q61 0 85.5 35t24.5 146zM270 -16
q-9 -16 -21 -16h-12q-10 0 -10 12q2 8 6 17l333 692q11 22 23 22h11q13 0 13 -12q-1 -8 -10 -25zM799 210q0 -127 -34.5 -172.5t-118.5 -45.5q-80 0 -115 45t-35 168q0 125 39.5 170t116.5 45q56 0 85.5 -15.5t45.5 -61.5t16 -133zM756 210q0 103 -23.5 137.5t-82.5 34.5
q-58 0 -84.5 -36.5t-26.5 -139.5q0 -106 25 -141.5t82 -35.5q61 0 85.5 35t24.5 146zM1163 210q0 -127 -34.5 -172.5t-118.5 -45.5q-80 0 -115 45t-35 168q0 125 39.5 170t116.5 45q56 0 85.5 -15.5t45.5 -61.5t16 -133zM1120 210q0 103 -23.5 137.5t-82.5 34.5
q-58 0 -84.5 -36.5t-26.5 -139.5q0 -106 25 -141.5t82 -35.5q61 0 85.5 35t24.5 146z" />
    <glyph glyph-name="guilsinglleft" unicode="&#x2039;" horiz-adv-x="276" 
d="M90 264l131 -166q11 -14 11 -22q0 -10 -12 -10h-11q-3 0 -5 0.5t-4.5 1.5t-4 2t-4 3.5t-3 3.5t-4 5t-4.5 5l-125 153q-13 15 -13 23t8 19l130 160q1 1 4.5 5t4 5t3 3.5t4 3.5t4 2t4.5 1.5t5 0.5h11q12 0 12 -10q0 -8 -11 -22z" />
    <glyph glyph-name="guilsinglright" unicode="&#x203a;" horiz-adv-x="276" 
d="M185 265l-131 166q-11 14 -11 22q0 10 12 10h11q3 0 5 -0.5t4.5 -1.5t4 -2t4 -3.5t3 -3.5t4 -5t4.5 -5l125 -153q13 -15 13 -23t-8 -19l-130 -160q-1 -1 -4.5 -5t-4 -5t-3 -3.5t-4 -3.5t-4 -2t-4.5 -1.5t-5 -0.5h-11q-12 0 -12 10q0 8 11 22z" />
    <glyph glyph-name="fraction" unicode="&#x2044;" horiz-adv-x="84" 
d="M-108 -16q-9 -16 -21 -16h-12q-10 0 -10 12q2 8 6 17l333 692q11 22 23 22h11q13 0 13 -12q-1 -8 -10 -25z" />
    <glyph glyph-name="zero.superior" unicode="&#x2070;" 
d="M339 630q0 -127 -34 -172.5t-118 -45.5q-80 0 -114.5 45t-34.5 168q0 65 11 108.5t33 66.5t48 31.5t63 8.5q56 0 85.5 -15.5t45 -61t15.5 -133.5zM298 630q0 103 -23.5 137.5t-83.5 34.5q-58 0 -85 -36.5t-27 -139.5q0 -106 25.5 -141.5t82.5 -35.5q41 0 63.5 12.5
t35 52.5t12.5 116z" />
    <glyph glyph-name="four.superior" unicode="&#x2074;" 
d="M276 431q0 -12 -13 -12h-15q-12 0 -12 12v99h-194q-13 0 -13 11v12q0 9 5 17l148 248q9 14 18 14h15q11 0 11 -8q0 -6 -5 -15l-146 -242h161v107q0 13 12 13h16q12 0 12 -12v-108h61q13 0 13 -11v-15q0 -11 -13 -11h-61v-99z" />
    <glyph glyph-name="five.superior" unicode="&#x2075;" 
d="M100 666q38 11 81 11q74 0 105.5 -29.5t31.5 -98.5q0 -137 -159 -137q-63 0 -100 12q-14 5 -14 13q0 6 4 20q4 6 10 6q2 0 5 -1t7 -2l8 -2q36 -9 82 -9q115 0 115 98q0 54 -27 74t-80 20q-40 0 -83 -12q-10 -4 -16 -4q-10 0 -10 12q0 1 0.5 10t0.5 12l14 157q1 16 14 16
h196q12 0 12 -11v-14q0 -11 -13 -11h-173z" />
    <glyph glyph-name="six.superior" unicode="&#x2076;" 
d="M81 624q13 23 46.5 38.5t73.5 15.5q67 0 97.5 -30.5t30.5 -99.5q0 -137 -145 -137q-70 0 -107 42.5t-37 145.5q0 61 6.5 100.5t24.5 74t55 50.5t94 16q51 0 78 -9q7 -2 7 -10q0 -11 -3 -20q-4 -6 -8 -6t-16 3q-28 5 -55 5q-38 0 -63.5 -8.5t-40 -21t-22.5 -39
t-10.5 -47.5t-5.5 -63zM83 572q0 -18 1 -32q12 -92 103 -92q101 0 101 102q0 92 -92 92q-36 0 -65 -13.5t-43 -35.5q-5 -7 -5 -21z" />
    <glyph glyph-name="seven.superior" unicode="&#x2077;" 
d="M272 796q-40 -1 -227 -1q-13 0 -13 11v15q0 11 13 11h263q11 0 11 -10v-10q0 -13 -3 -20q-118 -248 -160 -359q-5 -14 -16 -14h-18q-12 0 -12 9q0 4 4 16q101 245 158 352z" />
    <glyph glyph-name="eight.superior" unicode="&#x2078;" 
d="M240 637q85 -12 85 -104q0 -121 -144 -121q-76 0 -110.5 28.5t-34.5 90.5q0 85 84 106q-69 18 -69 97q0 106 133 106q69 0 99 -24.5t30 -80.5q0 -78 -73 -98zM272 730q0 37 -20 55t-71 18t-70.5 -19t-19.5 -56q0 -39 25.5 -57t64.5 -18q36 0 63.5 18t27.5 59zM283 533
q0 84 -102 84q-104 0 -104 -83q0 -49 27.5 -67.5t76.5 -18.5q102 0 102 85z" />
    <glyph glyph-name="nine.superior" unicode="&#x2079;" 
d="M281 629q-13 -24 -46.5 -38.5t-73.5 -14.5q-68 0 -97.5 29.5t-29.5 98.5q0 65 37 100.5t111 35.5q69 0 104 -42t35 -144q0 -49 -3.5 -82t-14 -65.5t-29.5 -52t-51.5 -31t-78.5 -11.5q-57 0 -84 10q-6 2 -6 10q0 1 1 5t2 8.5t1 6.5q2 6 8 6q4 0 16 -3q34 -6 62 -6
q36 0 61 9t39 21t21.5 39t10 48t5.5 63zM279 681q0 4 -2 32q-9 90 -99 90q-103 0 -103 -101q0 -44 20.5 -67t69.5 -23q36 0 65 13t43 34q4 4 6 22z" />
    <glyph glyph-name="parenleft.superior" unicode="&#x207d;" horiz-adv-x="201" 
d="M81 611q0 -59 9 -103t28 -75.5t33.5 -47.5t40.5 -40q4 -4 4 -8q0 -3 -4 -7q-5 -4 -9 -4t-14 5q-129 80 -129 279q0 196 127 272q10 6 14 6t11 -5q4 -4 4 -8t-4 -7q-53 -40 -82 -99t-29 -158z" />
    <glyph glyph-name="parenright.superior" unicode="&#x207e;" horiz-adv-x="201" 
d="M120 603q0 59 -9 103t-28 75.5t-33.5 47.5t-40.5 40q-4 4 -4 8q0 3 4 7q5 4 9 4t14 -5q129 -80 129 -279q0 -196 -127 -272q-10 -6 -14 -6t-11 5q-4 4 -4 8t4 7q53 40 82 99t29 158z" />
    <glyph glyph-name="n.superior" unicode="&#x207f;" horiz-adv-x="374" 
d="M104 274q0 -11 -11 -11h-18q-12 0 -12 11v285q0 11 13 11h16q11 0 11 -13l1 -12q29 29 117 29q72 0 87 -40q6 -16 6 -57v-203q0 -11 -12 -11h-18q-11 0 -11 11v194q0 30 -5 43q-8 24 -58 24q-58 0 -91 -15q-9 -6 -11 -9q-4 -6 -4 -15v-222z" />
    <glyph glyph-name="zero.inferior" unicode="&#x2080;" 
d="M339 84q0 -127 -34 -172.5t-118 -45.5q-80 0 -114.5 45t-34.5 168q0 65 11 108.5t33 66.5t48 31.5t63 8.5q56 0 85.5 -15.5t45 -61t15.5 -133.5zM298 84q0 103 -23.5 137.5t-83.5 34.5q-58 0 -85 -36.5t-27 -139.5q0 -106 25.5 -141.5t82.5 -35.5q41 0 63.5 12.5t35 52.5
t12.5 116z" />
    <glyph glyph-name="one.inferior" unicode="&#x2081;" 
d="M176 241l-63 -27q-8 -4 -13 -4t-8 6q-7 17 -7 19q0 6 8 9l82 37q12 5 19 5h11q12 0 12 -11v-390q0 -12 -12 -12h-17q-12 0 -12 12v356z" />
    <glyph glyph-name="two.inferior" unicode="&#x2082;" 
d="M309 -126h-263q-12 0 -12 10v13q0 9 6 14l27 21l31 23l27 21q19 15 30 25l27 22q15 13 27 25t22 23q42 45 42 101q0 84 -103 84q-42 0 -78 -12q-18 -6 -21 -6q-7 0 -9 6q-4 14 -4 19q0 9 15 14q42 17 104 17q77 0 107 -30.5t30 -86.5q0 -73 -42 -119q-65 -70 -179 -147
q38 1 216 1q12 0 12 -11v-16q0 -11 -12 -11z" />
    <glyph glyph-name="three.inferior" unicode="&#x2083;" 
d="M216 92q88 -8 88 -102q0 -64 -36.5 -94t-114.5 -30q-61 0 -98 12q-16 5 -16 13q0 1 5 21q3 5 10 5q2 0 5 -1t8 -2t8 -2q34 -9 77 -9q68 0 89.5 23t21.5 62q0 42 -25.5 62.5t-88.5 20.5h-14q-12 0 -12 12v13q0 12 12 12h14q103 0 103 73q0 42 -20.5 58.5t-74.5 16.5
q-44 0 -73 -11q-18 -6 -22 -6q-6 0 -9 7q-3 9 -3 18t15 14q50 16 99 16q77 0 103.5 -26t26.5 -85q0 -73 -78 -91z" />
    <glyph glyph-name="four.inferior" unicode="&#x2084;" 
d="M276 -115q0 -12 -13 -12h-15q-12 0 -12 12v99h-194q-13 0 -13 11v12q0 9 5 17l148 248q9 14 18 14h15q11 0 11 -8q0 -6 -5 -15l-146 -242h161v107q0 13 12 13h16q12 0 12 -12v-108h61q13 0 13 -11v-15q0 -11 -13 -11h-61v-99z" />
    <glyph glyph-name="five.inferior" unicode="&#x2085;" 
d="M100 120q38 11 81 11q74 0 105.5 -29.5t31.5 -98.5q0 -137 -159 -137q-63 0 -100 12q-14 5 -14 13q0 6 4 20q4 6 10 6q2 0 5 -1t7.5 -2t7.5 -2q36 -9 82 -9q115 0 115 98q0 54 -27 74t-80 20q-40 0 -83 -12q-10 -4 -16 -4q-10 0 -10 12q0 1 0.5 10t0.5 12l14 157
q1 16 14 16h196q12 0 12 -11v-14q0 -11 -13 -11h-173z" />
    <glyph glyph-name="six.inferior" unicode="&#x2086;" 
d="M81 78q13 23 46.5 38.5t73.5 15.5q67 0 97.5 -30.5t30.5 -99.5q0 -137 -145 -137q-70 0 -107 42.5t-37 145.5q0 61 6.5 100.5t24.5 74t55 50.5t94 16q51 0 78 -9q7 -2 7 -10q0 -11 -3 -20q-4 -6 -8 -6t-16 3q-28 5 -55 5q-38 0 -63.5 -8.5t-40 -21t-22.5 -39t-10.5 -47.5
t-5.5 -63zM83 26q0 -18 1 -32q12 -92 103 -92q101 0 101 102q0 92 -92 92q-36 0 -65 -13.5t-43 -35.5q-5 -8 -5 -21z" />
    <glyph glyph-name="seven.inferior" unicode="&#x2087;" 
d="M272 250q-40 -1 -227 -1q-13 0 -13 11v15q0 11 13 11h263q11 0 11 -10v-10q0 -13 -3 -20q-118 -248 -160 -359q-5 -14 -16 -14h-18q-12 0 -12 9q0 4 4 16q101 245 158 352z" />
    <glyph glyph-name="eight.inferior" unicode="&#x2088;" 
d="M240 91q85 -12 85 -104q0 -121 -144 -121q-76 0 -110.5 28.5t-34.5 90.5q0 85 84 106q-69 18 -69 97q0 106 133 106q69 0 99 -24.5t30 -80.5q0 -78 -73 -98zM272 184q0 37 -20 55t-71 18t-70.5 -19t-19.5 -56q0 -39 25.5 -57t64.5 -18q36 0 63.5 18t27.5 59zM283 -13
q0 84 -102 84q-104 0 -104 -83q0 -49 27.5 -67.5t76.5 -18.5q102 0 102 85z" />
    <glyph glyph-name="nine.inferior" unicode="&#x2089;" 
d="M281 83q-13 -24 -46.5 -38.5t-73.5 -14.5q-68 0 -97.5 29.5t-29.5 98.5q0 65 37 100.5t111 35.5q69 0 104 -42t35 -144q0 -49 -3.5 -82t-14 -65.5t-29.5 -52t-51.5 -31t-78.5 -11.5q-57 0 -84 10q-6 2 -6 10q0 1 1 5t2 8.5t1 6.5q2 6 8 6q4 0 16 -3q34 -6 62 -6
q36 0 61 9t39 21t21.5 39t10 48t5.5 63zM279 135q0 4 -2 32q-9 90 -99 90q-103 0 -103 -101q0 -44 20.5 -67t69.5 -23q36 0 65 13t43 34q4 4 6 22z" />
    <glyph glyph-name="parenleft.inferior" unicode="&#x208d;" horiz-adv-x="201" 
d="M81 65q0 -59 9 -103t28 -75.5t33.5 -47.5t40.5 -40q4 -4 4 -8q0 -3 -4 -7q-5 -4 -9 -4t-14 5q-129 80 -129 279q0 196 127 272q10 6 14 6t11 -5q4 -4 4 -8t-4 -7q-53 -40 -82 -99t-29 -158z" />
    <glyph glyph-name="parenright.inferior" unicode="&#x208e;" horiz-adv-x="201" 
d="M120 57q0 59 -9 103t-28 75.5t-33.5 47.5t-40.5 40q-4 4 -4 8q0 3 4 7q5 4 9 4t14 -5q129 -80 129 -279q0 -196 -127 -272q-10 -6 -14 -6t-11 5q-4 4 -4 8t4 7q53 40 82 99t29 158z" />
    <glyph glyph-name="Euro" unicode="&#x20ac;" horiz-adv-x="604" 
d="M437 388h-239v-46v-48h239q17 0 17 -15v-6q0 -15 -17 -15h-237q2 -39 8 -70t19 -62.5t33.5 -51.5t54.5 -33t78 -13q87 0 140 20q21 8 26 8q8 0 13 -12q3 -8 3 -12q0 -11 -19 -18q-69 -26 -157 -26q-115 0 -174 60.5t-70 209.5h-72q-17 0 -17 15v6q0 15 17 15h70v34
q0 41 1 60h-71q-17 0 -17 15v6q0 15 17 15h73q12 140 72.5 202t196.5 62q66 0 118 -11q18 -4 18 -17q0 -10 -3 -19q-3 -8 -12 -8q-5 0 -31 6q-38 8 -112 8q-57 0 -97 -17.5t-61.5 -50.5t-31.5 -69.5t-13 -85.5h237q17 0 17 -15v-6q0 -15 -17 -15z" />
    <glyph glyph-name="afii61289" unicode="&#x2113;" horiz-adv-x="425" 
d="M141 217q2 -91 34 -140t90 -49q65 0 117 40q10 7 15 7q7 0 12 -6q9 -12 9 -16q0 -6 -5 -11q-63 -55 -156 -55q-67 0 -109 52.5t-49 144.5q-29 -22 -49 -34q-8 -4 -13 -4q-6 0 -14 11q-5 7 -5 12q0 8 7 12q45 30 69 48q-5 74 -5 133q0 145 20 209q20 63 55.5 90t90.5 27
q114 0 114 -129q0 -87 -63 -177q-19 -27 -44.5 -54t-47.5 -47zM136 265q97 85 136 141q52 73 52 151q0 49 -19 69.5t-55 20.5q-62 0 -90 -62q-27 -61 -27 -214q0 -35 3 -106z" />
    <glyph glyph-name="trademark" unicode="&#x2122;" horiz-adv-x="783" 
d="M195 375q0 -12 -10 -12h-17q-9 0 -9 12v300h-102q-12 0 -12 10v10q0 11 12 11h238q14 0 14 -10v-11q0 -10 -14 -10h-100v-300zM413 375q0 -12 -9 -12h-17q-9 0 -9 14v313q0 16 11 16h29q9 0 13 -9q83 -161 106 -211l101 209q6 11 16 11h25q14 0 14 -16v-314
q0 -13 -10 -13h-16q-9 0 -9 13q0 230 1 290q-11 -28 -108 -219q-5 -7 -11 -7h-8q-8 0 -13 9q-83 162 -108 217q2 -63 2 -291z" />
    <glyph glyph-name="Omega" unicode="&#x2126;" horiz-adv-x="717" 
d="M317 13q0 -13 -14 -13h-216q-14 0 -14 13v13q0 15 14 15h182q-101 41 -144.5 116.5t-43.5 203.5q0 165 68.5 246.5t216.5 81.5q145 0 206 -79t61 -242q0 -126 -41 -202t-141 -125h178q14 0 14 -15v-13q0 -13 -14 -13h-216q-14 0 -14 13v29q0 13 11 18q88 39 132 109.5
t44 196.5q0 146 -50 213.5t-173 67.5q-124 0 -179.5 -69t-55.5 -214q0 -121 44 -194.5t134 -109.5q11 -6 11 -18v-29z" />
    <glyph glyph-name="estimated" unicode="&#x212e;" horiz-adv-x="845" 
d="M803 336h-616q-6 0 -6 -4v-195q0 -10 10 -22q95 -106 233 -106q147 0 244 118h57q-54 -64 -133 -101.5t-169 -37.5q-158 0 -269.5 105t-111.5 253t111.5 252.5t269.5 104.5t269 -104.5t111 -252.5v-10zM665 362v195q0 13 -11 24q-98 101 -230 101q-135 0 -232 -105
q-11 -9 -11 -24v-191q0 -5 6 -5h472q6 0 6 5z" />
    <glyph glyph-name="onethird" unicode="&#x2153;" horiz-adv-x="836" 
d="M249 -16q-9 -16 -21 -16h-12q-10 0 -10 12q2 8 6 17l333 692q11 22 23 22h11q13 0 13 -12q-1 -8 -10 -25zM194 631l-63 -27q-8 -4 -13 -4t-8 6q-7 17 -7 19q0 6 8 9l82 37q12 5 19 5h11q12 0 12 -11v-390q0 -12 -12 -12h-17q-12 0 -12 12v356zM673 218q88 -8 88 -102
q0 -64 -36.5 -94t-114.5 -30q-60 0 -98 12q-16 5 -16 13q0 1 5 21q3 5 10 5q2 0 5 -1t8 -2t8 -2q34 -9 77 -9q68 0 89.5 23t21.5 62q0 42 -25.5 62.5t-88.5 20.5h-14q-12 0 -12 12v13q0 12 12 12h14q103 0 103 73q0 42 -20.5 58.5t-74.5 16.5q-44 0 -73 -11q-18 -6 -22 -6
q-5 0 -9 7q-3 9 -3 18t15 14q50 16 99 16q77 0 103.5 -26t26.5 -85q0 -73 -78 -91z" />
    <glyph glyph-name="twothirds" unicode="&#x2154;" horiz-adv-x="836" 
d="M295 -16q-9 -16 -21 -16h-12q-10 0 -10 12q2 8 6 17l333 692q11 22 23 22h11q13 0 13 -12q-1 -8 -10 -25zM331 264h-263q-12 0 -12 10v13q0 9 6 14l27 21l31 22l27 22l30 24l27 23q15 13 27 25t22 23q42 45 42 101q0 84 -103 84q-42 0 -78 -12q-18 -6 -21 -6q-7 0 -9 6
q-4 14 -4 19q0 9 15 14q42 17 104 17q77 0 107 -30.5t30 -86.5q0 -73 -42 -119q-65 -70 -179 -147q38 1 216 1q12 0 12 -11v-16q0 -11 -12 -11zM706 218q88 -8 88 -102q0 -64 -36.5 -94t-114.5 -30q-61 0 -98 12q-16 5 -16 13q0 1 5 21q3 5 10 5q2 0 5 -1t8 -2t8 -2
q34 -9 77 -9q68 0 89.5 23t21.5 62q0 42 -25.5 62.5t-88.5 20.5h-14q-12 0 -12 12v13q0 12 12 12h14q103 0 103 73q0 42 -20.5 58.5t-74.5 16.5q-44 0 -73 -11q-18 -6 -22 -6q-6 0 -9 7q-3 9 -3 18t15 14q50 16 99 16q77 0 103.5 -26t26.5 -85q0 -73 -78 -91z" />
    <glyph glyph-name="oneeighth" unicode="&#x215b;" horiz-adv-x="836" 
d="M226 -16q-9 -16 -21 -16h-12q-10 0 -10 12q2 8 6 17l333 692q11 22 23 22h11q13 0 13 -12q-1 -8 -10 -25zM170 631l-63 -27q-8 -4 -13 -4t-8 6q-7 17 -7 19q0 6 8 9l82 37q12 5 19 5h11q12 0 12 -11v-390q0 -12 -12 -12h-17q-12 0 -12 12v356zM679 217q85 -12 85 -104
q0 -121 -144 -121q-76 0 -110.5 28.5t-34.5 90.5q0 85 84 106q-69 18 -69 97q0 106 133 106q69 0 99 -24.5t30 -80.5q0 -78 -73 -98zM711 310q0 37 -20 55t-71 18t-70.5 -19t-19.5 -56q0 -39 25.5 -57t64.5 -18q36 0 63.5 18t27.5 59zM722 113q0 84 -102 84q-104 0 -104 -83
q0 -49 27.5 -67.5t76.5 -18.5q102 0 102 85z" />
    <glyph glyph-name="threeeighths" unicode="&#x215c;" horiz-adv-x="836" 
d="M257 -16q-9 -16 -21 -16h-12q-10 0 -10 12q2 8 6 17l333 692q11 22 23 22h11q13 0 13 -12q-1 -8 -10 -25zM224 482q88 -8 88 -102q0 -64 -36.5 -94t-114.5 -30q-61 0 -98 12q-16 5 -16 13q0 1 5 21q3 5 10 5q2 0 5 -1t8 -2t8 -2q34 -9 77 -9q68 0 89.5 23t21.5 62
q0 42 -25.5 62.5t-88.5 20.5h-14q-12 0 -12 12v13q0 12 12 12h14q103 0 103 73q0 42 -20.5 58.5t-74.5 16.5q-44 0 -73 -11q-18 -6 -22 -6q-6 0 -9 7q-3 9 -3 18t15 14q50 16 99 16q77 0 103.5 -26t26.5 -85q0 -73 -78 -91zM693 217q85 -12 85 -104q0 -121 -144 -121
q-76 0 -110.5 28.5t-34.5 90.5q0 85 84 106q-69 18 -69 97q0 106 133 106q69 0 99 -24.5t30 -80.5q0 -78 -73 -98zM725 310q0 37 -20 55t-71 18t-70.5 -19t-19.5 -56q0 -39 25.5 -57t64.5 -18q36 0 63.5 18t27.5 59zM736 113q0 84 -102 84q-104 0 -104 -83q0 -49 27.5 -67.5
t76.5 -18.5q102 0 102 85z" />
    <glyph glyph-name="fiveeighths" unicode="&#x215d;" horiz-adv-x="836" 
d="M264 -16q-9 -16 -21 -16h-12q-10 0 -10 12q2 8 6 17l333 692q11 22 23 22h11q13 0 13 -12q-1 -8 -10 -25zM108 510q38 11 81 11q74 0 105.5 -29.5t31.5 -98.5q0 -137 -159 -137q-63 0 -100 12q-14 5 -14 13q0 6 4 20q4 6 10 6q2 0 5 -1t7 -2l8 -2q36 -9 82 -9
q115 0 115 98q0 54 -27 74t-80 20q-40 0 -83 -12q-10 -4 -16 -4q-10 0 -10 12q0 1 0.5 10t0.5 12l14 157q1 16 14 16h196q12 0 12 -11v-14q0 -11 -13 -11h-173zM694 217q85 -12 85 -104q0 -121 -144 -121q-76 0 -110.5 28.5t-34.5 90.5q0 85 84 106q-69 18 -69 97
q0 106 133 106q69 0 99 -24.5t30 -80.5q0 -78 -73 -98zM726 310q0 37 -20 55t-71 18t-70.5 -19t-19.5 -56q0 -39 25.5 -57t64.5 -18q36 0 63.5 18t27.5 59zM737 113q0 84 -102 84q-104 0 -104 -83q0 -49 27.5 -67.5t76.5 -18.5q102 0 102 85z" />
    <glyph glyph-name="seveneighths" unicode="&#x215e;" horiz-adv-x="836" 
d="M217 -16q-9 -16 -21 -16h-12q-10 0 -10 12q2 8 6 17l333 692q11 22 23 22h11q13 0 13 -12q-1 -8 -10 -25zM296 640q-40 -1 -227 -1q-13 0 -13 11v15q0 11 13 11h263q11 0 11 -10v-10q0 -13 -3 -20q-118 -248 -160 -359q-5 -14 -16 -14h-18q-12 0 -12 9q0 4 4 16
q101 245 158 352zM658 217q85 -12 85 -104q0 -121 -144 -121q-76 0 -110.5 28.5t-34.5 90.5q0 85 84 106q-69 18 -69 97q0 106 133 106q69 0 99 -24.5t30 -80.5q0 -78 -73 -98zM690 310q0 37 -20 55t-71 18t-70.5 -19t-19.5 -56q0 -39 25.5 -57t64.5 -18q36 0 63.5 18
t27.5 59zM701 113q0 84 -102 84q-104 0 -104 -83q0 -49 27.5 -67.5t76.5 -18.5q102 0 102 85z" />
    <glyph glyph-name="arrowleft" unicode="&#x2190;" horiz-adv-x="768" 
d="M713 358q20 0 20 -15v-12q0 -16 -15 -16q-522 0 -613 1l285 -269q8 -6 8 -14q0 -6 -4 -10l-11 -14q-6 -6 -10 -6q-3 0 -11 6l-319 316q-5 4 -5 11q0 8 5 12l321 321q5 5 9 5q5 0 10 -5l11 -13q6 -6 6 -10q0 -6 -5 -11q-178 -177 -290 -279q87 2 608 2z" />
    <glyph glyph-name="arrowup" unicode="&#x2191;" horiz-adv-x="768" 
d="M361 17q0 515 2 601q-91 -100 -281 -281q-4 -4 -9 -4q-6 0 -10 4l-9 11q-5 7 -5 11q0 5 5 10l321 319q5 6 11 6q7 0 11 -5l317 -318q6 -6 6 -10q0 -6 -6 -12l-9 -10q-5 -5 -11 -5q-5 0 -15 8l-270 276q1 -90 1 -603q0 -15 -14 -15h-21q-14 0 -14 17z" />
    <glyph glyph-name="arrowright" unicode="&#x2192;" horiz-adv-x="768" 
d="M54 358q520 0 607 -2l-289 279q-4 5 -4 11q0 5 5 10l11 13q5 5 10 5q4 0 9 -5l321 -321q5 -4 5 -12q0 -7 -5 -11l-319 -316q-5 -4 -11 -4q-5 0 -10 5l-11 13q-4 4 -4 9q0 7 8 15l284 269q-91 -1 -612 -1q-14 0 -14 16v12q0 15 19 15z" />
    <glyph glyph-name="arrowdown" unicode="&#x2193;" horiz-adv-x="768" 
d="M361 655q0 20 14 20h21q14 0 14 -15q0 -515 -1 -605l271 278q8 8 14 8q7 0 10 -3l10 -12q6 -6 6 -11t-6 -11l-316 -318q-6 -6 -12 -6q-4 0 -11 6l-321 319q-6 6 -6 11q0 3 6 11l13 11q4 4 10 4q3 0 9 -4q163 -156 277 -282q-2 90 -2 599z" />
    <glyph glyph-name="uni2196" unicode="&#x2196;" horiz-adv-x="768" 
d="M646 111q8 -6 8 -14q0 -7 -11 -18q-9 -10 -15 -10q-5 0 -10 5l-429 428q6 -186 6 -387q0 -10 -5 -16q-4 -4 -9 -4h-18q-7 0 -11 4q-4 6 -4 15v444q0 8 5 13q4 4 13 4h452q8 0 11 -3q4 -3 4 -11v-16q0 -10 -4 -13q-3 -3 -12 -3q-266 0 -401 5z" />
    <glyph glyph-name="uni2197" unicode="&#x2197;" horiz-adv-x="768" 
d="M156 77q-8 -8 -13 -8q-8 0 -17 9q-11 13 -11 19t5 11l432 424q-6 0 -46.5 -1.5t-130.5 -3t-214 -1.5q-10 0 -14 3q-5 4 -5 12v19q0 7 4 11t13 4h447q7 0 12 -4q4 -3 4 -14v-449q0 -10 -3 -13q-4 -4 -11 -4h-16q-6 0 -9 3q-5 3 -5 13q0 286 4 394z" />
    <glyph glyph-name="uni2198" unicode="&#x2198;" horiz-adv-x="768" 
d="M123 556q-8 7 -8 15q0 6 10 16t17 10q5 0 10 -5q349 -343 429 -427q0 6 -1.5 47t-2.5 129.5t-1 209.5q0 11 4 15q4 6 10 6h18q5 0 10 -5q4 -4 4 -14v-444q0 -9 -4 -13q-4 -5 -14 -5h-452q-8 0 -11 3q-3 4 -3 11v16q0 10 3 13t12 3q293 0 401 -4z" />
    <glyph glyph-name="uni2199" unicode="&#x2199;" horiz-adv-x="768" 
d="M614 592q10 8 13 8q7 0 18 -11q10 -11 10 -17q0 -7 -5 -12l-431 -423q5 0 46 1t130.5 2t214.5 1q10 0 14 -4q5 -5 5 -11v-18q0 -7 -4 -11t-14 -4h-446q-9 0 -12 5q-5 5 -5 13v451q0 8 4 12t14 4h14q8 0 11 -4q4 -8 4 -13q0 -282 -4 -390q56 59 423 421z" />
    <glyph glyph-name="partialdiff" unicode="&#x2202;" horiz-adv-x="542" 
d="M426 375q-3 58 -7.5 96.5t-14.5 74.5t-27 56.5t-44.5 32.5t-66.5 12q-73 0 -113 -14q-12 -4 -14 -4q-9 0 -13 10q-5 11 -5 19q0 7 10 11q45 19 143 19q51 0 86 -16t57.5 -45t34.5 -80.5t16.5 -111t4.5 -147.5q0 -161 -52 -231t-161 -70q-193 0 -193 214q0 221 204 221
q100 0 155 -47zM428 318q-44 64 -159 64q-77 0 -117.5 -41.5t-40.5 -140.5q0 -172 150 -172q61 0 98.5 26t54.5 90q14 52 14 174z" />
    <glyph glyph-name="Delta" unicode="&#x2206;" horiz-adv-x="627" 
d="M613 27q4 -8 4 -16q0 -11 -13 -11h-582q-12 0 -12 11q0 3 3 12l271 641q5 13 20 13h23q13 0 18 -13zM313 632q-32 -87 -244 -591h488q-213 509 -244 591z" />
    <glyph glyph-name="product" unicode="&#x220f;" horiz-adv-x="702" 
d="M161 -116q0 -17 -16 -17h-13q-16 0 -16 17v775q0 17 17 17h438q15 0 15 -17v-775q0 -17 -16 -17h-13q-16 0 -16 17v751h-380v-751z" />
    <glyph glyph-name="summation" unicode="&#x2211;" horiz-adv-x="586" 
d="M534 -130h-472q-19 0 -19 15v6q0 9 7 20l268 378l-249 350q-4 7 -4 16v6q0 15 17 15h426q17 0 17 -16v-10q0 -15 -17 -15h-385l234 -324q8 -11 8 -20t-9 -22l-256 -358h434q17 0 17 -15v-11q0 -15 -17 -15z" />
    <glyph glyph-name="minus" unicode="&#x2212;" horiz-adv-x="701" 
d="M611 287q0 -14 -14 -14h-494q-13 0 -13 14v16q0 14 13 14h494q14 0 14 -14v-16z" />
    <glyph glyph-name="uni2215" unicode="&#x2215;" horiz-adv-x="84" 
d="M-108 -16q-9 -16 -21 -16h-12q-10 0 -10 12q2 8 6 17l333 692q11 22 23 22h11q13 0 13 -12q-1 -8 -10 -25z" />
    <glyph glyph-name="uni2219" unicode="&#x2219;" horiz-adv-x="200" 
d="M137 269q0 -37 -37 -37t-37 37t37 37t37 -37z" />
    <glyph glyph-name="radical" unicode="&#x221a;" horiz-adv-x="639" 
d="M337 -167q-3 -14 -15 -14h-17q-11 0 -17 12l-140 286l-57 -27q-3 -1 -7 -1q-6 0 -10 7q-8 14 -8 20t7 10l84 42q5 3 11 3t9 -8l136 -279l245 800q3 13 15 13h19q12 0 12 -10q0 -3 -3 -12z" />
    <glyph glyph-name="infinity" unicode="&#x221e;" horiz-adv-x="730" 
d="M365 321q46 57 87.5 83t88.5 26q59 0 94.5 -38.5t35.5 -99.5q0 -64 -38.5 -105t-100.5 -41q-48 0 -82.5 24t-84.5 85q-51 -60 -88.5 -84t-84.5 -24q-60 0 -97.5 38t-37.5 100q0 64 39 105t102 41q46 0 82 -24t85 -86zM339 287q-46 58 -74 80.5t-69 22.5q-42 0 -70 -28.5
t-28 -71.5q0 -45 27 -73.5t69 -28.5q40 0 74 25t71 74zM390 290q58 -66 78 -81q30 -22 66 -22q42 0 69 28t27 72q0 45 -25.5 72.5t-66.5 27.5q-73 0 -148 -97z" />
    <glyph glyph-name="integral" unicode="&#x222b;" horiz-adv-x="316" 
d="M149 -50q0 21 -3 93l-19 473q-2 48 -2 76q0 57 27.5 87t74.5 30q23 0 45 -6q10 -2 10 -12t-3 -19q-2 -11 -12 -11q-1 0 -15 2t-26 2q-25 0 -41.5 -19.5t-16.5 -58.5q0 -25 2 -71l19 -472q0 -1 2 -37.5t2 -54.5q0 -59 -25.5 -86t-79.5 -27q-21 0 -41 5q-12 2 -12 13
q0 9 3 19q3 12 13 12q1 0 13 -2.5t26 -2.5q29 0 44 14t15 53z" />
    <glyph glyph-name="approxequal" unicode="&#x2248;" horiz-adv-x="701" 
d="M130 153q-5 -7 -11 -7q-8 0 -17 9q-6 6 -6 11q0 8 4 12q40 50 72 68.5t71 18.5q41 0 122 -49q60 -36 99 -36q30 0 54 16.5t50 54.5q8 10 13 10t16 -9q7 -5 7 -12t-6 -15q-32 -46 -62 -67t-73 -21q-49 0 -119 41q-74 43 -107 43q-30 0 -54 -15.5t-53 -52.5zM130 342
q-5 -8 -11 -8q-8 0 -17 9q-6 6 -6 12q0 7 4 11q39 50 71.5 68.5t71.5 18.5q41 0 122 -49q60 -36 99 -36q56 0 104 72q7 9 13 9q5 0 16 -8q7 -6 7 -12q0 -8 -6 -16q-32 -46 -62 -67t-73 -21q-47 0 -119 42q-75 42 -107 42q-30 0 -54 -15.5t-53 -51.5z" />
    <glyph glyph-name="notequal" unicode="&#x2260;" horiz-adv-x="701" 
d="M235 16q-5 -9 -14 -9h-11q-12 0 -12 7q0 3 2 9l78 155h-175q-13 0 -13 14v15q0 14 13 14h194l70 143h-264q-13 0 -13 13v16q0 13 13 13h284l77 152q5 11 15 11h12q11 0 11 -10q0 -1 -3 -10l-72 -143h170q14 0 14 -13v-16q0 -13 -14 -13h-190l-71 -143h261q14 0 14 -14
v-15q0 -14 -14 -14h-280z" />
    <glyph glyph-name="lessequal" unicode="&#x2264;" horiz-adv-x="701" 
d="M567 162q0 -12 -9 -12q-4 0 -6 1l-425 200q-10 4 -10 16v20q0 12 10 16l425 205q4 2 6 2q9 0 9 -12v-22q0 -12 -10 -16l-389 -182l389 -176q10 -4 10 -16v-24zM567 14q0 -14 -13 -14h-424q-13 0 -13 14v15q0 14 13 14h424q13 0 13 -14v-15z" />
    <glyph glyph-name="greaterequal" unicode="&#x2265;" horiz-adv-x="701" 
d="M584 367q0 -11 -11 -16l-422 -198q-6 -3 -9 -3q-9 0 -9 12v23q0 12 10 16l389 177l-389 181q-10 4 -10 16v23q0 12 9 12q4 0 6 -1l425 -205q11 -5 11 -16v-21zM584 14q0 -14 -14 -14h-424q-13 0 -13 14v15q0 14 13 14h424q14 0 14 -14v-15z" />
    <glyph glyph-name="lozenge" unicode="&#x25ca;" horiz-adv-x="703" 
d="M321 669q5 11 19 11h28q10 0 16 -10l153 -317q2 -6 2 -11q0 -7 -4 -15l-151 -317q-4 -10 -15 -10h-33q-10 0 -14 10l-157 319q-2 6 -2 12q0 5 2 11zM209 341l145 -295l139 296l-140 293z" />
    <glyph glyph-name="commaaccent" unicode="&#xf6c3;" horiz-adv-x="185" 
d="M125 -72q15 0 15 -15q0 -105 -63 -171q-8 -8 -15 -8q-4 0 -12 6q-7 5 -7 11t6 14q44 57 44 140q0 23 16 23h16z" />
    <glyph glyph-name="Dotlessi" horiz-adv-x="265" 
d="M155 14q0 -17 -16 -17h-13q-16 0 -16 17v678q0 17 17 17h13q15 0 15 -17v-678z" />
    <glyph glyph-name="Euro.denominator" horiz-adv-x="402" 
d="M296 234h-149v-25v-28h149q11 0 11 -10v-9q0 -10 -11 -10h-147q5 -59 30.5 -90.5t87.5 -31.5q50 0 88 11q13 5 17 5q5 0 9 -8q4 -12 4 -17q0 -7 -13 -12q-44 -16 -106 -16q-75 0 -113 35.5t-45 123.5h-48q-11 0 -11 10v9q0 10 11 10h46v19v34h-46q-11 0 -11 11v8
q0 11 11 11h48q8 83 47.5 119.5t127.5 36.5q42 0 80 -8q12 -1 12 -11q0 -12 -3 -21q-2 -5 -8 -5q-9 0 -21 3q-21 4 -70 4q-64 0 -91.5 -31t-32.5 -87h147q11 0 11 -11v-8q0 -11 -11 -11z" />
    <glyph glyph-name="Euro.inferior" horiz-adv-x="402" 
d="M296 108h-149v-25v-28h149q11 0 11 -10v-9q0 -10 -11 -10h-147q5 -58 30.5 -90t87.5 -32q50 0 88 11q13 5 17 5q5 0 9 -8q4 -12 4 -17q0 -7 -13 -12q-44 -16 -106 -16q-75 0 -113 35.5t-45 123.5h-48q-11 0 -11 10v9q0 10 11 10h46v19v34h-46q-11 0 -11 11v8q0 11 11 11
h48q8 83 47.5 119.5t127.5 36.5q42 0 80 -8q12 -1 12 -11q0 -12 -3 -21q-2 -5 -8 -5q-9 0 -21 3q-21 4 -70 4q-64 0 -91.5 -31t-32.5 -87h147q11 0 11 -11v-8q0 -11 -11 -11z" />
    <glyph glyph-name="Euro.numerator" horiz-adv-x="402" 
d="M296 498h-149v-25v-28h149q11 0 11 -10v-9q0 -10 -11 -10h-147q5 -59 30.5 -90.5t87.5 -31.5q50 0 88 11q13 5 17 5q5 0 9 -8q4 -12 4 -17q0 -7 -13 -12q-44 -16 -106 -16q-75 0 -113 35.5t-45 123.5h-48q-11 0 -11 10v9q0 10 11 10h46v19v34h-46q-11 0 -11 11v8
q0 11 11 11h48q8 83 47.5 119.5t127.5 36.5q42 0 80 -8q12 -1 12 -11q0 -12 -3 -21q-2 -5 -8 -5q-9 0 -21 3q-21 4 -70 4q-64 0 -91.5 -31t-32.5 -87h147q11 0 11 -11v-8q0 -11 -11 -11z" />
    <glyph glyph-name="Euro.oldstyle" horiz-adv-x="579" 
d="M437 345h-231v-43v-45h231q17 0 17 -15v-6q0 -15 -17 -15h-229q3 -43 11.5 -75t26.5 -61t50 -44.5t78 -15.5q76 0 126 18q21 7 22 7q6 0 11 -11q4 -10 4 -13q0 -9 -17 -15q-63 -24 -140 -24q-102 0 -155 53t-63 181h-64q-17 0 -17 15v6q0 15 17 15h62v33q0 37 1 55h-63
q-17 0 -17 15v6q0 15 17 15h65q12 120 66 174t174 54q57 0 106 -10q15 -4 15 -17q0 -8 -4 -18q-1 -7 -11 -7q-4 0 -14.5 2.5t-15.5 3.5q-44 7 -97 7q-91 0 -129 -50.5t-45 -138.5h229q17 0 17 -15v-6q0 -15 -17 -15z" />
    <glyph glyph-name="Euro.superior" horiz-adv-x="402" 
d="M296 654h-149v-25v-28h149q11 0 11 -10v-9q0 -10 -11 -10h-147q5 -59 30.5 -90.5t87.5 -31.5q50 0 88 11q13 5 17 5q5 0 9 -8q4 -12 4 -17q0 -7 -13 -12q-44 -16 -106 -16q-75 0 -113 35.5t-45 123.5h-48q-11 0 -11 10v9q0 10 11 10h46v19v34h-46q-11 0 -11 11v8
q0 11 11 11h48q8 83 47.5 119.5t127.5 36.5q42 0 80 -8q12 -1 12 -11q0 -12 -3 -21q-2 -5 -8 -5q-9 0 -21 3q-21 4 -70 4q-64 0 -91.5 -31t-32.5 -87h147q11 0 11 -11v-8q0 -11 -11 -11z" />
    <glyph glyph-name="Kgreenlandic" horiz-adv-x="662" 
d="M592 500q-17 0 -17 15q0 58 22 119.5t61 95.5q8 8 15 8q5 0 13 -5q8 -6 8 -12q0 -8 -6 -14q-24 -22 -43.5 -70t-19.5 -114q0 -23 -17 -23h-16zM155 14q0 -17 -16 -17h-13q-16 0 -16 17v678q0 17 17 17h13q15 0 15 -17v-304h65q32 0 44 16l219 292q10 13 25 13h16
q14 0 14 -10q0 -8 -10 -20q-194 -252 -242 -310l258 -339q12 -16 12 -21q0 -12 -16 -12h-15q-14 0 -24 14l-242 320q-12 17 -38 17h-66v-334z" />
    <glyph glyph-name="S_S" horiz-adv-x="1106" 
d="M338 357q88 -27 123.5 -62.5t35.5 -107.5q0 -96 -55.5 -148t-180.5 -52q-105 0 -189 36q-17 7 -17 16q0 7 5 20q5 12 16 12q4 0 23 -7q76 -34 162 -34q51 0 88 10.5t56 25.5t30 37.5t13.5 39.5t2.5 40q0 21 -4.5 37t-19 36t-47.5 37.5t-84 32.5l-99 29q-64 19 -98.5 64.5
t-34.5 105.5q0 96 56 145t178 49q85 0 154 -22q16 -5 16 -16q0 -5 -5 -20q-3 -9 -15 -9q-9 0 -21 4q-79 21 -134 21q-106 0 -144.5 -38t-38.5 -110q0 -50 28.5 -85.5t112.5 -60.5zM890 357q88 -27 123.5 -62.5t35.5 -107.5q0 -96 -55.5 -148t-180.5 -52q-105 0 -189 36
q-17 7 -17 16q0 7 5 20q5 12 16 12q4 0 23 -7q76 -34 162 -34q51 0 88 10.5t56 25.5t30 37.5t13.5 39.5t2.5 40q0 21 -4.5 37t-19 36t-47.5 37.5t-84 32.5l-99 29q-64 19 -98.5 64.5t-34.5 105.5q0 96 56 145t178 49q85 0 154 -22q16 -5 16 -16q0 -5 -5 -20q-3 -9 -15 -9
q-9 0 -21 4q-80 21 -134 21q-106 0 -144.5 -38t-38.5 -110q0 -50 28.5 -85.5t112.5 -60.5z" />
    <glyph glyph-name="a.sc" horiz-adv-x="453" 
d="M55 15q-8 -18 -19 -18h-15q-14 0 -14 11q0 6 5 18l190 478q6 14 16 14h16q12 0 17 -14l190 -478q6 -14 6 -18q0 -11 -14 -11h-15q-12 0 -19 19l-62 156h-221zM226 457l-95 -248h192z" />
    <glyph glyph-name="a.superior" horiz-adv-x="345" 
d="M244 288q-35 -31 -96 -31q-108 0 -108 97q0 48 40 70q32 18 95 18q36 0 68 -4v33q0 31 -5 41q-11 27 -70 27q-42 0 -73 -7q-4 0 -11 -2t-10 -2q-6 0 -8 7q-3 7 -3 18q0 7 9 10q44 13 103 13q65 0 90 -23q18 -18 18 -76v-201q0 -8 -2.5 -10.5t-9.5 -2.5h-13q-12 0 -13 8z
M243 408q-14 2 -63 2q-60 0 -82 -16q-18 -14 -18 -40q0 -30 16.5 -46.5t60.5 -16.5q45 0 71 16q7 5 11 11q4 5 4 14v76z" />
    <glyph glyph-name="aacute.sc" horiz-adv-x="453" 
d="M55 15q-8 -18 -19 -18h-15q-14 0 -14 11q0 6 5 18l190 478q6 14 16 14h16q12 0 17 -14l190 -478q6 -14 6 -18q0 -11 -14 -11h-15q-12 0 -19 19l-62 156h-221zM226 457l-95 -248h192zM201 599q-8 -9 -19 -9h-16q-9 0 -9 9q0 6 4 10l112 138q7 10 19 10h29q10 0 10 -9
q0 -7 -7 -14z" />
    <glyph glyph-name="abreve.sc" horiz-adv-x="453" 
d="M55 15q-8 -18 -19 -18h-15q-14 0 -14 11q0 6 5 18l190 478q6 14 16 14h16q12 0 17 -14l190 -478q6 -14 6 -18q0 -11 -14 -11h-15q-12 0 -19 19l-62 156h-221zM226 457l-95 -248h192zM347 724q10 0 10 -10q0 -13 -4 -33q-21 -98 -129 -98q-113 0 -127 105q-2 14 -2 26
q0 10 12 10h11q10 0 12 -10q5 -44 26.5 -66.5t67.5 -22.5q92 0 99 90q0 9 11 9h13z" />
    <glyph glyph-name="acircumflex.sc" horiz-adv-x="453" 
d="M55 15q-8 -18 -19 -18h-15q-14 0 -14 11q0 6 5 18l190 478q6 14 16 14h16q12 0 17 -14l190 -478q6 -14 6 -18q0 -11 -14 -11h-15q-12 0 -19 19l-62 156h-221zM226 457l-95 -248h192zM118 580h-12q-10 0 -10 9q0 7 6 14l100 142q8 12 22 12h13q12 0 19 -10l101 -146
q5 -7 5 -12q0 -9 -10 -9h-11q-12 0 -20 11l-93 119l-90 -117q-9 -13 -20 -13z" />
    <glyph glyph-name="acute.cap" horiz-adv-x="197" 
d="M42 772q-12 -9 -25 -9h-16q-11 0 -11 10q0 8 8 14l142 112q11 10 24 10h32q12 0 12 -10q0 -9 -10 -16z" />
    <glyph glyph-name="acute.sc" horiz-adv-x="197" 
d="M55 599q-8 -9 -19 -9h-16q-9 0 -9 9q0 6 4 10l112 138q7 10 19 10h29q10 0 10 -9q0 -7 -7 -14z" />
    <glyph glyph-name="adieresis.sc" horiz-adv-x="453" 
d="M55 15q-8 -18 -19 -18h-15q-14 0 -14 11q0 6 5 18l190 478q6 14 16 14h16q12 0 17 -14l190 -478q6 -14 6 -18q0 -11 -14 -11h-15q-12 0 -19 19l-62 156h-221zM226 457l-95 -248h192zM173 675q0 -36 -33 -36t-33 35q0 36 33 36t33 -35zM345 675q0 -36 -33 -36t-33 35
q0 36 33 36t33 -35z" />
    <glyph glyph-name="ae.sc" horiz-adv-x="751" 
d="M173 179l-118 -166q-10 -16 -22 -16h-19q-11 0 -11 10q0 7 9 19l342 477q8 12 27 12h293q16 0 16 -11v-13q0 -13 -16 -13h-247v-191h223q16 0 16 -12v-13q0 -12 -16 -12h-223v-213h258q17 0 17 -12v-13q0 -12 -17 -12h-288q-13 0 -13 13v166h-211zM197 216h187v264z" />
    <glyph glyph-name="aeacute.sc" horiz-adv-x="751" 
d="M173 179l-118 -166q-10 -16 -22 -16h-19q-11 0 -11 10q0 7 9 19l342 477q8 12 27 12h293q16 0 16 -11v-13q0 -13 -16 -13h-247v-191h223q16 0 16 -12v-13q0 -12 -16 -12h-223v-213h258q17 0 17 -12v-13q0 -12 -17 -12h-288q-13 0 -13 13v166h-211zM197 216h187v264z
M514 599q-8 -9 -19 -9h-16q-9 0 -9 9q0 6 4 10l112 138q7 10 19 10h29q10 0 10 -9q0 -7 -7 -14z" />
    <glyph glyph-name="agrave.sc" horiz-adv-x="453" 
d="M55 15q-8 -18 -19 -18h-15q-14 0 -14 11q0 6 5 18l190 478q6 14 16 14h16q12 0 17 -14l190 -478q6 -14 6 -18q0 -11 -14 -11h-15q-12 0 -19 19l-62 156h-221zM226 457l-95 -248h192zM236 599l-123 135q-7 7 -7 14q0 9 10 9h29q12 0 19 -10l112 -138q4 -4 4 -10
q0 -9 -9 -9h-16q-11 0 -19 9z" />
    <glyph glyph-name="amacron.sc" horiz-adv-x="453" 
d="M55 15q-8 -18 -19 -18h-15q-14 0 -14 11q0 6 5 18l190 478q6 14 16 14h16q12 0 17 -14l190 -478q6 -14 6 -18q0 -11 -14 -11h-15q-12 0 -19 19l-62 156h-221zM226 457l-95 -248h192zM339 629h-228q-14 0 -14 12v18q0 14 15 14h226q15 0 15 -14v-18q0 -12 -14 -12z" />
    <glyph glyph-name="ampersand.alt" horiz-adv-x="667" 
d="M536 80q-65 -93 -230 -93q-115 0 -174.5 52t-59.5 144q0 71 39.5 117.5t129.5 89.5q-88 93 -88 173q0 69 42.5 109t125.5 40q160 0 160 -132q0 -66 -44 -112.5t-126 -85.5q128 -141 218 -231q29 54 30 203q0 17 16 17h14q15 0 15 -17q0 -98 -10.5 -147.5t-32.5 -87.5
l84 -83q18 -18 18 -26q0 -13 -14 -13h-15q-16 0 -31 15q-26 25 -67 68zM434 579q0 43 -29 68t-87 25q-119 0 -119 -105q0 -37 21.5 -73t62.5 -82q77 37 114 74.5t37 92.5zM505 112l-236 247q-81 -39 -115.5 -76t-34.5 -99q0 -73 47 -114t145 -41q142 0 194 83z" />
    <glyph glyph-name="ampersand.sc" horiz-adv-x="598" 
d="M467 218q17 -25 17 -64q0 -95 -57 -131t-154 -36q-207 0 -207 153q0 61 28.5 91.5t83.5 44.5q-82 22 -82 113q0 71 43 105t137 34q57 0 93 -11q21 -4 21 -12q0 -15 -5 -24q-3 -6 -11 -6q-6 0 -26 6q-40 8 -73 8q-85 0 -112 -24.5t-27 -75.5q0 -43 30.5 -71t85.5 -28
q17 0 17 -10v-15q0 -11 -18 -11q-81 0 -110.5 -26.5t-29.5 -84.5q0 -68 40.5 -92.5t125.5 -24.5q81 0 121.5 25.5t40.5 101.5q0 33 -14 60q-24 -3 -99 -3q-17 0 -17 13v11q0 15 16 15q157 0 230 29q22 8 24 8q6 0 11 -10q4 -10 4 -14q0 -10 -16 -17q-42 -17 -111 -27z" />
    <glyph glyph-name="ampersand.scalt" horiz-adv-x="563" 
d="M450 56q-30 -34 -72 -51.5t-113 -17.5q-190 0 -190 148q0 54 28 88.5t103 65.5q-61 55 -61 125q0 114 133 114q67 0 95.5 -23.5t28.5 -75.5q0 -54 -30.5 -88.5t-97.5 -61.5q122 -122 172 -168q25 39 26 150q0 13 13 13h13q13 0 13 -13q0 -73 -9 -108.5t-28 -64.5l73 -61
q16 -13 16 -20q0 -12 -11 -12h-18q-16 0 -27 10zM358 428q0 62 -82 62q-54 0 -71.5 -19t-17.5 -54q0 -53 59 -112q62 26 87 52.5t25 70.5zM422 79q-98 88 -189 182q-66 -27 -90.5 -53t-24.5 -72q0 -53 34.5 -81.5t117.5 -28.5q111 0 152 53z" />
    <glyph glyph-name="aogonek.sc" horiz-adv-x="453" 
d="M55 15q-8 -18 -19 -18h-15q-14 0 -14 11q0 6 5 18l190 478q6 14 16 14h16q12 0 17 -14l190 -478q6 -14 6 -18q0 -11 -14 -11q-51 -34 -69 -58t-18 -61q0 -57 61 -57q12 0 28.5 2.5t18.5 2.5q6 0 8 -6q4 -12 4 -16q0 -9 -8 -12q-23 -8 -58 -8q-45 0 -70.5 23.5t-25.5 68.5
q0 46 22.5 72.5t72.5 56.5h5q-4 6 -5 11l-62 156h-221zM226 457l-95 -248h192z" />
    <glyph glyph-name="aring.sc" horiz-adv-x="453" 
d="M55 15q-8 -18 -19 -18h-15q-14 0 -14 11q0 6 5 18l190 478q6 14 16 14h16q12 0 17 -14l190 -478q6 -14 6 -18q0 -11 -14 -11h-15q-12 0 -19 19l-62 156h-221zM226 457l-95 -248h192zM319 680q0 -44 -26 -68t-69 -24q-41 0 -66 24t-25 68t25.5 69.5t68.5 25.5t67.5 -25
t24.5 -70zM287 682q0 31 -16.5 47.5t-45.5 16.5q-28 0 -44.5 -17t-16.5 -48q0 -30 17 -47.5t45 -17.5t44.5 17.5t16.5 48.5z" />
    <glyph glyph-name="aringacute.sc" horiz-adv-x="453" 
d="M55 15q-8 -18 -19 -18h-15q-14 0 -14 11q0 6 5 18l190 478q6 14 16 14h16q12 0 17 -14l190 -478q6 -14 6 -18q0 -11 -14 -11h-15q-12 0 -19 19l-62 156h-221zM226 457l-95 -248h192zM322 670q0 -44 -26 -68t-69 -24q-41 0 -66 24t-25 68t25.5 69.5t68.5 25.5t67.5 -25
t24.5 -70zM290 672q0 31 -16.5 47.5t-45.5 16.5q-28 0 -44.5 -17t-16.5 -48q0 -30 17 -47.5t45 -17.5t44.5 17.5t16.5 48.5zM224 809q-8 -9 -19 -9h-16q-9 0 -9 9q0 6 4 10l112 138q7 10 19 10h29q10 0 10 -9q0 -7 -7 -14z" />
    <glyph glyph-name="atilde.sc" horiz-adv-x="453" 
d="M55 15q-8 -18 -19 -18h-15q-14 0 -14 11q0 6 5 18l190 478q6 14 16 14h16q12 0 17 -14l190 -478q6 -14 6 -18q0 -11 -14 -11h-15q-12 0 -19 19l-62 156h-221zM226 457l-95 -248h192zM96 619h-9q-11 0 -11 11q0 8 5 18q27 69 76 69q22 0 77 -31q43 -24 64 -24q14 0 23 8
t19 35q6 17 17 17h11q11 0 11 -10q0 -7 -4 -18q-14 -43 -32 -60t-46 -17q-24 0 -77 27q-53 28 -67 28q-13 0 -21.5 -8t-17.5 -32q-5 -13 -18 -13z" />
    <glyph glyph-name="b.sc" horiz-adv-x="505" 
d="M234 0h-121q-14 0 -14 14v488q0 13 13 13h121q37 0 77 -4q118 -10 118 -123q0 -49 -19.5 -77t-62.5 -41q100 -22 100 -120q0 -105 -81 -135q-40 -15 -131 -15zM142 37h94q83 0 109 11q57 24 57 103q0 64 -58 88q-23 11 -89 11h-113v-213zM142 288h113q64 0 81 8
q49 24 49 87q0 41 -16 60t-44 29q-21 7 -87 7h-96v-191z" />
    <glyph glyph-name="b.superior" horiz-adv-x="369" 
d="M100 279l-1 -11q0 -8 -12 -8h-12q-12 0 -12 15v434q0 11 12 11h18q11 0 11 -11v-161q33 26 110 26q58 0 86.5 -35t28.5 -115q0 -96 -34.5 -129t-113.5 -33q-59 0 -81 17zM104 312q22 -16 74 -16q65 0 87.5 27t22.5 96q0 64 -18.5 91t-70.5 27q-58 0 -83 -16q-9 -7 -10 -9
q-2 -6 -2 -14v-186z" />
    <glyph glyph-name="braceleft.cap" horiz-adv-x="294" 
d="M86 342q39 -12 60.5 -41.5t21.5 -100.5v-140q0 -60 15 -82q20 -28 93 -28q8 0 8 -11v-15q0 -10 -11 -10q-58 1 -87 9.5t-45 34.5q-20 30 -20 107v134q0 64 -21 90.5t-68 34.5q-9 1 -9 11v11q0 10 9 12q49 8 69 36.5t20 87.5v130q0 73 21 105q33 51 131 51q11 0 11 -13
v-10q0 -13 -11 -13q-75 -2 -93 -35q-12 -23 -12 -78v-132q0 -72 -19.5 -99.5t-62.5 -45.5z" />
    <glyph glyph-name="braceright.cap" horiz-adv-x="294" 
d="M208 340q-39 12 -60.5 41.5t-21.5 100.5v140q0 60 -15 82q-20 28 -93 28q-8 0 -8 11v15q0 10 11 10q58 -1 87 -9.5t45 -34.5q20 -30 20 -107v-134q0 -64 21 -90.5t68 -34.5q9 -1 9 -11v-11q0 -10 -9 -12q-49 -8 -69 -36.5t-20 -87.5v-130q0 -73 -21 -105
q-33 -51 -131 -51q-11 0 -11 13v10q0 13 11 13q75 2 93 35q12 23 12 78v132q0 72 19.5 99.5t62.5 45.5z" />
    <glyph glyph-name="bracketleft.cap" horiz-adv-x="267" 
d="M124 -43h109q11 0 11 -10v-13q0 -13 -11 -13h-141q-11 0 -11 12v817q0 11 11 11h141q11 0 11 -10v-15q0 -10 -11 -10h-109v-769z" />
    <glyph glyph-name="bracketright.cap" horiz-adv-x="267" 
d="M142 725h-109q-11 0 -11 10v13q0 13 11 13h141q11 0 11 -12v-817q0 -11 -11 -11h-141q-11 0 -11 10v15q0 10 11 10h109v769z" />
    <glyph glyph-name="breve.cap" horiz-adv-x="197" 
d="M228 899q11 0 11 -10q0 -12 -4 -32q-23 -94 -138 -94q-120 0 -136 101q-2 14 -2 25q0 10 13 10h12q11 0 13 -10q5 -41 28 -62.5t72 -21.5q97 0 106 85q0 9 11 9h14z" />
    <glyph glyph-name="breve.sc" horiz-adv-x="197" 
d="M222 724q10 0 10 -10q0 -13 -4 -33q-21 -98 -129 -98q-113 0 -127 105q-2 14 -2 26q0 10 12 10h11q10 0 12 -10q5 -44 26.5 -66.5t67.5 -22.5q92 0 99 90q0 9 11 9h13z" />
    <glyph glyph-name="bullet.cap" horiz-adv-x="328" 
d="M274 317q0 -115 -110 -115t-110 114t110 114q53 0 81.5 -26t28.5 -87z" />
    <glyph glyph-name="c.sc" horiz-adv-x="478" 
d="M105 261q0 -51 4.5 -85.5t20 -71.5t50.5 -56t89 -19q82 0 140 21q16 6 22 6t11 -11q4 -10 4 -13q0 -8 -16 -14q-66 -27 -160 -27q-107 0 -158 58t-51 201q0 147 50.5 211t182.5 64q67 0 124 -11q18 -4 18 -15q0 -5 -4 -19q-3 -7 -12 -7q-3 0 -6.5 1t-9 2t-9.5 2
q-41 9 -117 9q-45 0 -78 -13.5t-51 -33t-28 -51.5t-13 -60.5t-3 -67.5z" />
    <glyph glyph-name="cacute.sc" horiz-adv-x="478" 
d="M105 261q0 -51 4.5 -85.5t20 -71.5t50.5 -56t89 -19q82 0 140 21q16 6 22 6t11 -11q4 -10 4 -13q0 -8 -16 -14q-66 -27 -160 -27q-107 0 -158 58t-51 201q0 147 50.5 211t182.5 64q67 0 124 -11q18 -4 18 -15q0 -5 -4 -19q-3 -7 -12 -7q-3 0 -6.5 1t-9 2t-9.5 2
q-41 9 -117 9q-45 0 -78 -13.5t-51 -33t-28 -51.5t-13 -60.5t-3 -67.5zM277 599q-8 -9 -19 -9h-16q-9 0 -9 9q0 6 4 10l112 138q7 10 19 10h29q10 0 10 -9q0 -7 -7 -14z" />
    <glyph glyph-name="caron.alt" horiz-adv-x="188" 
d="M126 718q15 0 15 -15q0 -105 -63 -171q-8 -8 -15 -8q-5 0 -13 6q-7 5 -7 11t6 14q43 56 43 140q0 23 16 23h18z" />
    <glyph glyph-name="caron.cap" horiz-adv-x="197" 
d="M219 904h13q10 0 10 -10q0 -6 -6 -13l-108 -102q-12 -12 -24 -12h-12q-10 0 -22 10l-111 106q-4 4 -4 11q0 10 13 10h11q10 0 24 -11l97 -77l94 76q15 12 25 12z" />
    <glyph glyph-name="caron.sc" horiz-adv-x="197" 
d="M210 761h12q10 0 10 -9q0 -7 -6 -14l-100 -142q-7 -12 -22 -12h-13q-12 0 -19 10l-101 146q-5 8 -5 12q0 9 10 9h11q12 0 20 -11l93 -119l90 117q9 13 20 13z" />
    <glyph glyph-name="ccaron.sc" horiz-adv-x="478" 
d="M105 261q0 -51 4.5 -85.5t20 -71.5t50.5 -56t89 -19q82 0 140 21q16 6 22 6t11 -11q4 -10 4 -13q0 -8 -16 -14q-66 -27 -160 -27q-107 0 -158 58t-51 201q0 147 50.5 211t182.5 64q67 0 124 -11q18 -4 18 -15q0 -5 -4 -19q-3 -7 -12 -7q-3 0 -6.5 1t-9 2t-9.5 2
q-41 9 -117 9q-45 0 -78 -13.5t-51 -33t-28 -51.5t-13 -60.5t-3 -67.5zM382 761h12q10 0 10 -9q0 -7 -6 -14l-100 -142q-8 -12 -22 -12h-13q-12 0 -19 10l-101 146q-5 7 -5 12q0 9 10 9h11q12 0 20 -11l93 -119l90 117q9 13 20 13z" />
    <glyph glyph-name="ccedilla.sc" horiz-adv-x="478" 
d="M271 -66q57 0 76.5 -21t19.5 -60q0 -86 -106 -86q-26 0 -48 6q-9 4 -9 12t2 14q4 9 12 9h3q1 0 2 -0.5t3 -1t4 -0.5q20 -4 33 -4q63 0 63 48q0 26 -13.5 37.5t-43.5 11.5q-3 0 -11 -0.5t-9 -0.5q-15 0 -15 16q0 3 1.5 12t1.5 12l9 54q-95 5 -140 63.5t-45 194.5
q0 147 50.5 211t182.5 64q67 0 124 -11q18 -4 18 -15q0 -5 -4 -19q-3 -7 -12 -7q-3 0 -6.5 1t-9 2t-9.5 2q-41 9 -117 9q-45 0 -78 -13.5t-51 -33t-28 -51.5t-13 -60.5t-3 -67.5q0 -51 4.5 -85.5t20 -71.5t50.5 -56t89 -19q82 0 140 21q16 6 22 6t11 -11q4 -10 4 -13
q0 -8 -16 -14q-61 -25 -150 -27z" />
    <glyph glyph-name="ccircumflex.sc" horiz-adv-x="478" 
d="M105 261q0 -51 4.5 -85.5t20 -71.5t50.5 -56t89 -19q82 0 140 21q16 6 22 6t11 -11q4 -10 4 -13q0 -8 -16 -14q-66 -27 -160 -27q-107 0 -158 58t-51 201q0 147 50.5 211t182.5 64q67 0 124 -11q18 -4 18 -15q0 -5 -4 -19q-3 -7 -12 -7q-3 0 -6.5 1t-9 2t-9.5 2
q-41 9 -117 9q-45 0 -78 -13.5t-51 -33t-28 -51.5t-13 -60.5t-3 -67.5zM169 580h-12q-10 0 -10 9q0 7 6 14l100 142q7 12 22 12h13q12 0 19 -10l101 -146q5 -7 5 -12q0 -9 -10 -9h-11q-12 0 -20 11l-93 119l-90 -117q-9 -13 -20 -13z" />
    <glyph glyph-name="cdotaccent.sc" horiz-adv-x="478" 
d="M105 261q0 -51 4.5 -85.5t20 -71.5t50.5 -56t89 -19q82 0 140 21q16 6 22 6t11 -11q4 -10 4 -13q0 -8 -16 -14q-66 -27 -160 -27q-107 0 -158 58t-51 201q0 147 50.5 211t182.5 64q67 0 124 -11q18 -4 18 -15q0 -5 -4 -19q-3 -7 -12 -7q-3 0 -6.5 1t-9 2t-9.5 2
q-41 9 -117 9q-45 0 -78 -13.5t-51 -33t-28 -51.5t-13 -60.5t-3 -67.5zM306 675q0 -36 -33 -36t-33 35q0 36 33 36t33 -35z" />
    <glyph glyph-name="cedilla.cap" horiz-adv-x="197" 
d="M83 -68q62 0 83 -22t21 -62q0 -89 -115 -89q-25 0 -51 6q-11 3 -11 13q0 8 2 14q4 10 13 10q4 0 13 -3q22 -4 36 -4q69 0 69 50q0 26 -14.5 38t-47.5 12q-4 0 -13 -0.5t-10 -0.5q-16 0 -16 17q0 9 4 27l14 72h36z" />
    <glyph glyph-name="cedilla.sc" horiz-adv-x="197" 
d="M86 -66q57 0 76.5 -21t19.5 -60q0 -86 -106 -86q-26 0 -48 6q-9 4 -9 12t2 14q4 9 12 9l12 -2q20 -4 33 -4q63 0 63 48q0 26 -13.5 37.5t-43.5 11.5q-3 0 -11 -0.5t-9 -0.5q-15 0 -15 16q0 3 1.5 12t1.5 12l13 72h33z" />
    <glyph glyph-name="cent.denominator" horiz-adv-x="320" 
d="M206 -46q0 -11 -11 -11h-8q-10 0 -10 11v44q-62 2 -91.5 37t-29.5 117q0 78 27.5 114.5t93.5 42.5v42q0 13 11 13h8q10 0 10 -13v-41q42 0 71 -6q11 -3 11 -11q0 -4 -3 -19q-2 -6 -8 -6q-9 0 -16 2q-26 4 -55 4v-240q39 1 63 11q9 3 14 3q6 0 8 -6q4 -8 4 -16t-11 -12
q-32 -13 -78 -15v-45zM98 158q0 -56 16 -88t63 -36v238q-48 -5 -63.5 -34t-15.5 -80z" />
    <glyph glyph-name="cent.inferior" horiz-adv-x="320" 
d="M206 -172q0 -11 -11 -11h-8q-10 0 -10 11v44q-62 2 -91.5 37t-29.5 117q0 78 27.5 114.5t93.5 42.5v42q0 13 11 13h8q10 0 10 -13v-41q42 0 71 -6q11 -3 11 -11q0 -4 -3 -19q-2 -6 -8 -6q-9 0 -16 2q-26 4 -55 4v-240q34 1 63 11q9 3 14 3q6 0 8 -6q4 -8 4 -16t-11 -12
q-32 -13 -78 -15v-45zM98 32q0 -56 16 -88t63 -35v237q-48 -5 -63.5 -34t-15.5 -80z" />
    <glyph glyph-name="cent.numerator" horiz-adv-x="320" 
d="M206 218q0 -11 -11 -11h-8q-10 0 -10 11v44q-62 2 -91.5 37t-29.5 117q0 78 27.5 114.5t93.5 42.5v42q0 13 11 13h8q10 0 10 -13v-41q42 0 71 -6q11 -3 11 -11q0 -4 -3 -19q-2 -6 -8 -6q-9 0 -16 2q-26 4 -55 4v-240q39 1 63 11q9 3 14 3q6 0 8 -6q4 -8 4 -16t-11 -12
q-29 -12 -78 -16v-44zM98 422q0 -56 16 -88t63 -36v238q-48 -5 -63.5 -34t-15.5 -80z" />
    <glyph glyph-name="cent.oldstyle" horiz-adv-x="463" 
d="M295 -77q0 -17 -15 -17h-10q-15 0 -15 17v75q-84 3 -128.5 55t-44.5 169q0 111 40.5 165t132.5 62v73q0 17 16 17h10q14 0 14 -17v-71q60 0 102 -10q16 -4 16 -14t-3 -18t-10 -8q-8 0 -21 3q-34 8 -84 9v-378q48 2 95 18q12 5 20 5q6 0 9 -7q4 -8 4 -16q0 -10 -14 -15
q-49 -20 -114 -22v-75zM126 231q0 -32 2.5 -56.5t10.5 -51t21.5 -44t37.5 -30t57 -14.5v376q-78 -9 -103.5 -54.5t-25.5 -125.5z" />
    <glyph glyph-name="cent.superior" horiz-adv-x="320" 
d="M206 374q0 -11 -11 -11h-8q-10 0 -10 11v44q-62 2 -91.5 37t-29.5 117q0 78 27.5 114.5t93.5 42.5v42q0 13 11 13h8q10 0 10 -13v-41q42 0 71 -6q11 -3 11 -11q0 -4 -3 -19q-2 -6 -8 -6q-9 0 -16 2q-26 4 -55 4v-240q39 1 63 11q9 3 14 3q6 0 8 -6q4 -8 4 -16t-11 -12
q-29 -12 -78 -16v-44zM98 578q0 -56 16 -88t63 -36v238q-48 -5 -63.5 -34t-15.5 -80z" />
    <glyph glyph-name="circumflex.cap" horiz-adv-x="197" 
d="M-22 763h-13q-10 0 -10 10q0 5 6 13l108 102q12 12 24 12h12q10 0 22 -10l111 -106q4 -4 4 -11q0 -10 -13 -10h-11q-10 0 -24 11l-97 77l-94 -76q-15 -12 -25 -12z" />
    <glyph glyph-name="circumflex.sc" horiz-adv-x="197" 
d="M-12 580h-12q-10 0 -10 9q0 7 6 14l100 142q8 12 22 12h13q12 0 19 -10l101 -146q5 -7 5 -12q0 -9 -10 -9h-11q-12 0 -20 11l-93 119l-90 -117q-9 -13 -20 -13z" />
    <glyph glyph-name="comma.denominator" horiz-adv-x="145" 
d="M88 60q14 0 14 -12q0 -37 -16 -78t-41 -63q-7 -7 -13 -7q-7 0 -14 5q-6 5 -6 10t5 10q39 41 39 118q0 17 14 17h18z" />
    <glyph glyph-name="comma.inferior" horiz-adv-x="145" 
d="M88 -66q14 0 14 -12q0 -37 -16 -78t-41 -63q-7 -7 -13 -7q-7 0 -14 5q-6 5 -6 10t5 10q39 41 39 118q0 17 14 17h18z" />
    <glyph glyph-name="comma.numerator" horiz-adv-x="145" 
d="M88 324q14 0 14 -12q0 -37 -16 -78t-41 -63q-7 -7 -13 -7q-7 0 -14 5q-6 5 -6 10t5 10q39 41 39 118q0 17 14 17h18z" />
    <glyph glyph-name="comma.superior" horiz-adv-x="145" 
d="M88 480q14 0 14 -12q0 -37 -16 -78t-41 -63q-7 -7 -13 -7q-7 0 -14 5q-6 5 -6 10t5 10q39 41 39 118q0 17 14 17h18z" />
    <glyph glyph-name="commaaccent.sc" horiz-adv-x="185" 
d="M125 -72q15 0 15 -15q0 -105 -63 -171q-8 -8 -15 -8q-4 0 -12 6q-7 5 -7 11t6 14q44 57 44 140q0 23 16 23h16z" />
    <glyph glyph-name="d.sc" horiz-adv-x="572" 
d="M142 38h92q84 0 127 18q106 45 106 208q0 154 -98 196q-41 18 -136 18h-91v-440zM227 0h-114q-14 0 -14 14v488q0 13 12 13h121q90 0 139 -13q140 -39 140 -238q0 -94 -32.5 -156.5t-111.5 -89.5q-51 -18 -140 -18z" />
    <glyph glyph-name="d.superior" horiz-adv-x="369" 
d="M306 276q0 -13 -12 -13h-14q-11 0 -12 8l-2 15q-32 -29 -102 -29q-124 0 -124 152q0 93 36 129.5t116 36.5q52 0 73 -10v144q0 11 13 11h17q11 0 11 -11v-433zM265 333v194q-18 12 -73 12q-63 0 -87 -29t-24 -97q0 -62 21.5 -91.5t71.5 -29.5q52 0 79 17q8 6 10 11
q2 2 2 13z" />
    <glyph glyph-name="dcaron.sc" horiz-adv-x="572" 
d="M142 38h92q84 0 127 18q106 45 106 208q0 154 -98 196q-41 18 -136 18h-91v-440zM227 0h-114q-14 0 -14 14v488q0 13 12 13h121q90 0 139 -13q140 -39 140 -238q0 -94 -32.5 -156.5t-111.5 -89.5q-51 -18 -140 -18zM373 761h12q10 0 10 -9q0 -7 -6 -14l-100 -142
q-7 -12 -22 -12h-13q-12 0 -19 10l-101 146q-5 7 -5 12q0 9 10 9h11q12 0 20 -11l93 -119l90 117q9 13 20 13z" />
    <glyph glyph-name="dcroat.sc" horiz-adv-x="572" 
d="M227 0h-114q-14 0 -14 14v242h-48q-14 0 -14 12v11q0 14 15 14h47v209q0 13 12 13h121q90 0 139 -13q140 -39 140 -238q0 -94 -32.5 -156.5t-111.5 -89.5q-51 -18 -140 -18zM142 38h92q84 0 127 18q106 45 106 208q0 154 -98 196q-41 18 -136 18h-91v-185h163
q15 0 15 -14v-11q0 -12 -14 -12h-164v-218z" />
    <glyph glyph-name="dieresis.cap" horiz-adv-x="197" 
d="M40 815q0 -36 -33 -36t-33 35q0 36 33 36t33 -35zM222 815q0 -36 -33 -36t-33 35q0 36 33 36t33 -35z" />
    <glyph glyph-name="dieresis.sc" horiz-adv-x="197" 
d="M45 675q0 -36 -33 -36t-33 35q0 36 33 36t33 -35zM217 675q0 -36 -33 -36t-33 35q0 36 33 36t33 -35z" />
    <glyph glyph-name="dollar.denominator" horiz-adv-x="360" 
d="M203 -46q0 -11 -11 -11h-9q-10 0 -10 11v42q-68 0 -115 20q-10 5 -10 11q0 7 4 17t12 10q5 0 15 -4q42 -18 94 -18v155l-34 9q-84 22 -84 103q0 104 118 112v42q0 12 11 12h9q10 0 10 -12v-41q57 -2 91 -12q10 -3 10 -12q0 -3 -4 -17q-2 -7 -9 -7q-5 0 -15 2
q-43 9 -73 11v-157l20 -5q54 -15 75 -36.5t21 -65.5q0 -105 -116 -115v-44zM96 303q0 -29 14.5 -45t61.5 -29l1 -1v148q-44 -3 -60.5 -22t-16.5 -51zM278 109q0 26 -14 41.5t-61 28.5v-146q32 4 50 17.5t21.5 27t3.5 31.5z" />
    <glyph glyph-name="dollar.inferior" horiz-adv-x="360" 
d="M203 -172q0 -11 -11 -11h-9q-10 0 -10 11v42q-65 0 -115 20q-10 5 -10 11q0 7 4 17t12 10q5 0 15 -4q42 -17 94 -18v155l-34 9q-84 22 -84 103q0 104 118 112v42q0 12 11 12h9q10 0 10 -12v-41q57 -2 91 -12q10 -3 10 -12q0 -3 -4 -17q-2 -7 -9 -7q-5 0 -15 2
q-43 9 -73 11v-157l20 -5q54 -15 75 -36.5t21 -65.5q0 -105 -116 -115v-44zM96 177q0 -29 14.5 -45t61.5 -29l1 -1v148q-44 -3 -60.5 -22t-16.5 -51zM278 -17q0 26 -14 41.5t-61 28.5v-145q75 9 75 75z" />
    <glyph glyph-name="dollar.numerator" horiz-adv-x="360" 
d="M203 218q0 -11 -11 -11h-9q-10 0 -10 11v42q-68 0 -115 20q-10 5 -10 11q0 7 4 17t12 10q5 0 15 -4q42 -18 94 -18v155l-34 9q-84 22 -84 103q0 104 118 112v42q0 12 11 12h9q10 0 10 -12v-41q57 -2 91 -12q10 -3 10 -12q0 -3 -4 -17q-2 -7 -9 -7q-5 0 -15 2
q-43 9 -73 11v-157l20 -5q54 -15 75 -36.5t21 -65.5q0 -105 -116 -116v-43zM96 567q0 -29 14.5 -45t61.5 -29l1 -1v148q-44 -3 -60.5 -22t-16.5 -51zM278 373q0 26 -14 41.5t-61 28.5v-146q32 4 50 17.5t21.5 27t3.5 31.5z" />
    <glyph glyph-name="dollar.oldstyle" horiz-adv-x="496" 
d="M274 -80q0 -15 -14 -15h-10q-14 0 -14 15v74q-99 0 -162 30q-13 6 -13 15q0 5 5 17q4 10 14 10q2 0 5 -1t7 -2.5t6 -2.5q61 -28 138 -28v250l-52 17q-115 36 -115 141q0 145 167 156v75q0 15 15 15h10q13 0 13 -15v-74q75 -2 128 -18q13 -4 13 -13q0 -7 -5 -20
q-2 -7 -12 -7q-7 0 -18 4q-58 14 -106 16v-247l28 -8q74 -23 105.5 -54.5t31.5 -91.5q0 -150 -165 -162v-76zM114 444q0 -42 22 -69.5t93 -48.5l7 -2v234q-72 -5 -97 -33t-25 -81zM395 156q0 38 -22.5 63.5t-98.5 50.5v-237q40 4 66.5 16.5t37 32.5t14 36t3.5 38z" />
    </font>
</defs>
</svg>
