<?xml version="1.0" standalone="no"?>
<!DOCTYPE svg PUBLIC "-//W3C//DTD SVG 1.1//EN" "http://www.w3.org/Graphics/SVG/1.1/DTD/svg11.dtd" >
<svg>
<metadata>
Created by FontForge 20090622 at Sun Feb 10 20:43:22 2019
 By deploy user
Copyright (c) 2014 by Dieter Hofrichter. All rights reserved.
</metadata>
<defs>
<font id="Orgon-Black" horiz-adv-x="404" >
  <font-face 
    font-family="Orgon-Black"
    font-weight="400"
    font-stretch="normal"
    units-per-em="1000"
    panose-1="2 0 5 3 3 0 0 2 0 4"
    ascent="752"
    descent="-248"
    x-height="505"
    cap-height="706"
    bbox="-164 -307 1313 998"
    underline-thickness="50"
    underline-position="-50"
    unicode-range="U+0020-U+FB04"
  />
<missing-glyph horiz-adv-x="501" 
d="M0 0v707h501v-707h-501zM251 399l170 257h-341zM280 354l172 -257v514zM80 50h341l-170 258zM50 611v-514l171 257z" />
    <glyph glyph-name="f_f" unicode="ff" horiz-adv-x="722" 
d="M262 31q0 -12 -8.5 -21.5t-22.5 -9.5h-127q-28 0 -28 34v326h-33q-37 0 -37 37v72q0 14 8.5 25t26.5 11h35v52q0 101 51 140q29 22 66 32.5t109 10.5q58 0 83 -10q21 -9 21 -35q0 -34 -9 -83q-5 -24 -32 -24q-4 0 -21.5 1.5t-25.5 1.5q-32 0 -44 -13t-12 -52v-21h175v72
q0 101 51 140q29 22 66 32.5t109 10.5q58 0 83 -10q21 -9 21 -35q0 -34 -9 -83q-4 -24 -32 -24q-4 0 -21.5 1.5t-25.5 1.5q-32 0 -44 -13t-12 -52v-41h74q35 0 35 -36v-76q0 -33 -36 -33h-73v-329q0 -12 -8.5 -21.5t-22.5 -9.5h-127q-28 0 -28 34v326h-175v-329z" />
    <glyph glyph-name="fi" unicode="fi" horiz-adv-x="663" 
d="M262 31q0 -12 -8.5 -21.5t-22.5 -9.5h-127q-28 0 -28 34v326h-33q-37 0 -37 37v72q0 14 8.5 25t26.5 11h35v72q0 101 51 140q29 22 66 32.5t109 10.5q58 0 83 -10q21 -9 21 -35q0 -34 -9 -83q-5 -24 -32 -24q-4 0 -21.5 1.5t-25.5 1.5q-32 0 -44 -13t-12 -52v-41h314
q17 0 23 -8t6 -25v-438q0 -34 -32 -34h-124q-30 0 -30 34v326h-157v-329zM604 654q0 -90 -92 -90q-90 0 -90 89q0 91 90 91q45 0 68.5 -20t23.5 -70z" />
    <glyph glyph-name="fl" unicode="fl" horiz-adv-x="663" 
d="M262 31q0 -12 -8.5 -21.5t-22.5 -9.5h-127q-28 0 -28 34v326h-33q-37 0 -37 37v72q0 14 8.5 25t26.5 11h35v68q0 103 53 144q56 43 190 43q218 0 264 -18q22 -9 22 -42v-666q0 -34 -32 -34h-124q-30 0 -30 34v574q-50 3 -101 3q-32 0 -44 -13t-12 -52v-41h74q35 0 35 -36
v-76q0 -33 -36 -33h-73v-329z" />
    <glyph glyph-name="f_f_i" unicode="ffi" horiz-adv-x="1024" 
d="M262 31q0 -12 -8.5 -21.5t-22.5 -9.5h-127q-28 0 -28 34v326h-33q-37 0 -37 37v72q0 14 8.5 25t26.5 11h35v52q0 101 51 140q29 22 66 32.5t109 10.5q58 0 83 -10q21 -9 21 -35q0 -34 -9 -83q-5 -24 -32 -24q-4 0 -21.5 1.5t-25.5 1.5q-32 0 -44 -13t-12 -52v-21h175v72
q0 101 51 140q29 22 66 32.5t109 10.5q58 0 83 -10q21 -9 21 -35q0 -34 -9 -83q-4 -24 -32 -24q-4 0 -21.5 1.5t-25.5 1.5q-32 0 -44 -13t-12 -52v-41h314q17 0 23 -8t6 -25v-438q0 -34 -32 -34h-124q-30 0 -30 34v326h-157v-329q0 -12 -8.5 -21.5t-22.5 -9.5h-127
q-28 0 -28 34v326h-175v-329zM964 654q0 -90 -92 -90q-90 0 -90 89q0 91 90 91q45 0 68.5 -20t23.5 -70z" />
    <glyph glyph-name="f_f_l" unicode="ffl" horiz-adv-x="1024" 
d="M262 31q0 -12 -8.5 -21.5t-22.5 -9.5h-127q-28 0 -28 34v326h-33q-37 0 -37 37v72q0 14 8.5 25t26.5 11h35v52q0 101 51 140q29 22 66 32.5t109 10.5q58 0 83 -10q21 -9 21 -35q0 -34 -9 -83q-5 -24 -32 -24q-4 0 -21.5 1.5t-25.5 1.5q-32 0 -44 -13t-12 -52v-21h175v68
q0 103 53 144q56 43 190 43q218 0 264 -18q22 -9 22 -42v-666q0 -34 -32 -34h-124q-30 0 -30 34v574q-50 3 -101 3q-32 0 -44 -13t-12 -52v-41h74q35 0 35 -36v-76q0 -33 -36 -33h-73v-329q0 -12 -8.5 -21.5t-22.5 -9.5h-127q-28 0 -28 34v326h-175v-329z" />
    <glyph glyph-name="T_h" unicode="Th" horiz-adv-x="1183" 
d="M417 36q0 -17 -10.5 -26.5t-24.5 -9.5h-125q-33 0 -33 36v510h-148q-34 0 -34 28v99q0 18 8 25.5t26 7.5h563v5q0 37 38 37h111q22 0 29.5 -10t7.5 -32v-237q53 48 140 48q130 0 154 -64q11 -29 11 -98v-321q0 -34 -30 -34h-126q-30 0 -30 34v278q0 21 -3 32
q-8 24 -45 24q-18 0 -40 -5q-17 -5 -24 -14q-7 -11 -7 -32v-283q0 -16 -9 -25t-23 -9h-124q-30 0 -30 34v512h-222v-510z" />
    <glyph glyph-name="Tcaron_h" unicode="&#x164;h" horiz-adv-x="1183" 
d="M417 36q0 -17 -10.5 -26.5t-24.5 -9.5h-125q-33 0 -33 36v510h-148q-34 0 -34 28v99q0 18 8 25.5t26 7.5h563v5q0 37 38 37h111q22 0 29.5 -10t7.5 -32v-237q53 48 140 48q130 0 154 -64q11 -29 11 -98v-321q0 -34 -30 -34h-126q-30 0 -30 34v278q0 21 -3 32
q-8 24 -45 24q-18 0 -40 -5q-17 -5 -24 -14q-7 -11 -7 -32v-283q0 -16 -9 -25t-23 -9h-124q-30 0 -30 34v512h-222v-510zM429 938h49q36 0 36 -24q0 -12 -12 -25l-94 -99q-31 -33 -62 -33h-61q-31 0 -57 29l-94 103q-12 12 -12 25q0 24 36 24h51q30 0 53 -23l56 -54l59 55
q22 22 52 22z" />
    <glyph glyph-name="f_b" unicode="fb" horiz-adv-x="954" 
d="M262 31q0 -12 -8.5 -21.5t-22.5 -9.5h-127q-28 0 -28 34v326h-33q-37 0 -37 37v72q0 14 8.5 25t26.5 11h35v68q0 103 53 144q56 43 190 43q218 0 264 -18q22 -9 22 -42v-218q49 35 142 35q91 0 134 -58.5t43 -194.5q0 -85 -13.5 -138.5t-45.5 -82.5t-73 -39t-106 -10
q-34 0 -64.5 9.5t-39.5 22.5l-1 -5q-3 -13 -12.5 -17t-32.5 -4h-76q-23 0 -32 8t-9 31v569q-50 3 -101 3q-32 0 -44 -13t-12 -52v-41h74q35 0 35 -36v-76q0 -33 -36 -33h-73v-329zM605 141q21 -8 52 -8q50 0 65 24t15 99q0 68 -11 90t-47 22q-43 0 -63 -12q-7 -5 -9 -11
t-2 -19v-185z" />
    <glyph glyph-name="f_f_b" unicode="ffb" horiz-adv-x="1328" 
d="M262 31q0 -12 -8.5 -21.5t-22.5 -9.5h-127q-28 0 -28 34v326h-33q-37 0 -37 37v72q0 14 8.5 25t26.5 11h35v52q0 101 51 140q29 22 66 32.5t109 10.5q58 0 83 -10q21 -9 21 -35q0 -34 -9 -83q-5 -24 -32 -24q-4 0 -21.5 1.5t-25.5 1.5q-32 0 -44 -13t-12 -52v-21h175v68
q0 103 53 144q56 43 190 43q218 0 264 -18q22 -9 22 -42v-218q49 35 142 35q91 0 134 -58.5t43 -194.5q0 -85 -13.5 -138.5t-45.5 -82.5t-73 -39t-106 -10q-34 0 -64.5 9.5t-39.5 22.5l-1 -5q-3 -13 -12.5 -17t-32.5 -4h-76q-23 0 -32 8t-9 31v569q-50 3 -101 3
q-32 0 -44 -13t-12 -52v-41h74q35 0 35 -36v-76q0 -33 -36 -33h-73v-329q0 -12 -8.5 -21.5t-22.5 -9.5h-127q-28 0 -28 34v326h-175v-329zM966 141q21 -8 52 -8q50 0 65 24t15 99q0 68 -11 90t-47 22q-43 0 -63 -12q-7 -5 -9 -11t-2 -19v-185z" />
    <glyph glyph-name="f_f_h" unicode="ffh" horiz-adv-x="1324" 
d="M262 31q0 -12 -8.5 -21.5t-22.5 -9.5h-127q-28 0 -28 34v326h-33q-37 0 -37 37v72q0 14 8.5 25t26.5 11h35v52q0 101 51 140q29 22 66 32.5t109 10.5q58 0 83 -10q21 -9 21 -35q0 -34 -9 -83q-5 -24 -32 -24q-4 0 -21.5 1.5t-25.5 1.5q-32 0 -44 -13t-12 -52v-21h175v68
q0 103 53 144q56 43 190 43q218 0 264 -18q22 -9 22 -42v-231q53 48 140 48q130 0 154 -64q11 -29 11 -98v-321q0 -34 -30 -34h-126q-30 0 -30 34v278q0 21 -3 32q-8 24 -45 24q-17 0 -40 -5q-17 -5 -24 -14q-7 -11 -7 -32v-283q0 -16 -9 -25t-23 -9h-124q-30 0 -30 34v574
q-50 3 -101 3q-32 0 -44 -13t-12 -52v-41h74q35 0 35 -36v-76q0 -33 -36 -33h-73v-329q0 -12 -8.5 -21.5t-22.5 -9.5h-127q-28 0 -28 34v326h-175v-329z" />
    <glyph glyph-name="f_f_j" unicode="ffj" horiz-adv-x="1033" 
d="M262 31q0 -12 -8.5 -21.5t-22.5 -9.5h-127q-28 0 -28 34v326h-33q-37 0 -37 37v72q0 14 8.5 25t26.5 11h35v52q0 101 51 140q29 22 66 32.5t109 10.5q58 0 83 -10q21 -9 21 -35q0 -34 -9 -83q-5 -24 -32 -24q-4 0 -21.5 1.5t-25.5 1.5q-32 0 -44 -13t-12 -52v-21h175v72
q0 101 51 140q29 22 66 32.5t109 10.5q58 0 83 -10q21 -9 21 -35q0 -34 -9 -83q-4 -24 -32 -24q-4 0 -21.5 1.5t-25.5 1.5q-32 0 -44 -13t-12 -52v-41h323q17 0 23 -8t6 -25v-497q0 -119 -36 -161q-28 -32 -75 -47t-147 -15q-45 0 -45 37q0 57 2 75q3 33 35 36q52 4 62 11
q18 12 18 59v390h-166v-329q0 -12 -8.5 -21.5t-22.5 -9.5h-127q-28 0 -28 34v326h-175v-329zM973 654q0 -90 -92 -90q-90 0 -90 89q0 91 90 91q45 0 68.5 -20t23.5 -70z" />
    <glyph glyph-name="f_f_k" unicode="ffk" horiz-adv-x="1316" 
d="M262 31q0 -12 -8.5 -21.5t-22.5 -9.5h-127q-28 0 -28 34v326h-33q-37 0 -37 37v72q0 14 8.5 25t26.5 11h35v52q0 101 51 140q29 22 66 32.5t109 10.5q58 0 83 -10q21 -9 21 -35q0 -34 -9 -83q-5 -24 -32 -24q-4 0 -21.5 1.5t-25.5 1.5q-32 0 -44 -13t-12 -52v-21h175v68
q0 103 53 144q56 43 190 43q218 0 264 -18q22 -9 22 -42v-347h27q34 0 46 23l56 106q12 23 42 23h119q27 0 27 -24q0 -6 -10 -26q-60 -109 -100 -167l126 -231q14 -26 14 -34q0 -11 -8.5 -17t-19.5 -6h-136q-27 0 -40 24l-85 161q-9 18 -41 18h-17v-169q0 -34 -32 -34h-124
q-30 0 -30 34v574q-50 3 -101 3q-32 0 -44 -13t-12 -52v-41h74q35 0 35 -36v-76q0 -33 -36 -33h-73v-329q0 -12 -8.5 -21.5t-22.5 -9.5h-127q-28 0 -28 34v326h-175v-329z" />
    <glyph glyph-name="f_h" unicode="fh" horiz-adv-x="963" 
d="M262 31q0 -12 -8.5 -21.5t-22.5 -9.5h-127q-28 0 -28 34v326h-33q-37 0 -37 37v72q0 14 8.5 25t26.5 11h35v68q0 103 53 144q56 43 190 43q218 0 264 -18q22 -9 22 -42v-231q53 48 140 48q130 0 154 -64q11 -29 11 -98v-321q0 -34 -30 -34h-126q-30 0 -30 34v278
q0 21 -3 32q-8 24 -45 24q-18 0 -40 -5q-17 -5 -24 -14q-7 -11 -7 -32v-283q0 -16 -9 -25t-23 -9h-124q-30 0 -30 34v574q-50 3 -101 3q-32 0 -44 -13t-12 -52v-41h74q35 0 35 -36v-76q0 -33 -36 -33h-73v-329z" />
    <glyph glyph-name="f_j" unicode="fj" horiz-adv-x="672" 
d="M262 31q0 -12 -8.5 -21.5t-22.5 -9.5h-127q-28 0 -28 34v326h-33q-37 0 -37 37v72q0 14 8.5 25t26.5 11h35v72q0 101 51 140q29 22 66 32.5t109 10.5q58 0 83 -10q21 -9 21 -35q0 -34 -9 -83q-5 -24 -32 -24q-4 0 -21.5 1.5t-25.5 1.5q-32 0 -44 -13t-12 -52v-41h323
q17 0 23 -8t6 -25v-497q0 -119 -36 -161q-28 -32 -75 -47t-147 -15q-45 0 -45 37q0 57 2 75q3 33 35 36q52 4 62 11q18 12 18 59v390h-166v-329zM613 654q0 -90 -92 -90q-90 0 -90 89q0 91 90 91q45 0 68.5 -20t23.5 -70z" />
    <glyph glyph-name="f_k" unicode="fk" horiz-adv-x="955" 
d="M262 31q0 -12 -8.5 -21.5t-22.5 -9.5h-127q-28 0 -28 34v326h-33q-37 0 -37 37v72q0 14 8.5 25t26.5 11h35v68q0 103 53 144q56 43 190 43q218 0 264 -18q22 -9 22 -42v-347h27q34 0 46 23l56 106q12 23 42 23h119q27 0 27 -24q0 -6 -10 -26q-60 -109 -100 -167l126 -231
q14 -26 14 -34q0 -11 -8.5 -17t-19.5 -6h-136q-27 0 -40 24l-85 161q-9 18 -41 18h-17v-169q0 -34 -32 -34h-124q-30 0 -30 34v574q-50 3 -101 3q-32 0 -44 -13t-12 -52v-41h74q35 0 35 -36v-76q0 -33 -36 -33h-73v-329z" />
    <glyph glyph-name="uni0162_h" unicode="&#x162;h" horiz-adv-x="1183" 
d="M354 -46q31 -1 51 -11t28 -28.5t10 -33.5t2 -40q0 -115 -162 -115q-33 0 -52 4q-30 6 -30 33q0 21 4 36q4 17 10.5 22t21.5 5q4 0 16 -2t13 -2q9 -1 27 -1q14 0 20 4.5t6 17.5q0 24 -18 24q-4 0 -13 -0.5t-12 -0.5q-26 1 -26 23q0 15 5 35l17 76h-15q-33 0 -33 36v510
h-148q-34 0 -34 28v99q0 18 8 25.5t26 7.5h563v5q0 37 38 37h111q22 0 29.5 -10t7.5 -32v-237q53 48 140 48q130 0 154 -64q11 -29 11 -98v-321q0 -34 -30 -34h-126q-30 0 -30 34v278q0 21 -3 32q-8 24 -45 24q-18 0 -40 -5q-17 -5 -24 -14q-7 -11 -7 -32v-283q0 -16 -9 -25
t-23 -9h-124q-30 0 -30 34v512h-222v-510q0 -17 -10.5 -26.5t-24.5 -9.5h-21z" />
    <glyph glyph-name="uni021A_h" unicode="&#x21a;h" horiz-adv-x="1183" 
d="M417 36q0 -17 -10.5 -26.5t-24.5 -9.5h-125q-33 0 -33 36v510h-148q-34 0 -34 28v99q0 18 8 25.5t26 7.5h563v5q0 37 38 37h111q22 0 29.5 -10t7.5 -32v-237q53 48 140 48q130 0 154 -64q11 -29 11 -98v-321q0 -34 -30 -34h-126q-30 0 -30 34v278q0 21 -3 32
q-8 24 -45 24q-18 0 -40 -5q-17 -5 -24 -14q-7 -11 -7 -32v-283q0 -16 -9 -25t-23 -9h-124q-30 0 -30 34v512h-222v-510zM349 -60q21 0 29.5 -9.5t8.5 -31.5q0 -114 -61 -182q-20 -24 -40 -24q-15 0 -35 11t-20 26q0 12 9 33q18 48 18 129q0 48 45 48h46z" />
    <glyph glyph-name=".notdef" horiz-adv-x="501" 
d="M0 0v707h501v-707h-501zM251 399l170 257h-341zM280 354l172 -257v514zM80 50h341l-170 258zM50 611v-514l171 257z" />
    <glyph glyph-name=".null" horiz-adv-x="0" 
 />
    <glyph glyph-name="nonmarkingreturn" horiz-adv-x="333" 
 />
    <glyph glyph-name="space" unicode=" " horiz-adv-x="217" 
 />
    <glyph glyph-name="exclam" unicode="!" horiz-adv-x="308" 
d="M252 302q-3 -43 -54 -43h-53q-27 0 -41 9.5t-15 36.5q-18 282 -18 339q0 31 10.5 46.5t39.5 15.5h100q26 0 38.5 -12t12.5 -43q0 -62 -20 -349zM267 88q0 -100 -101 -100q-42 0 -69.5 22.5t-27.5 76.5q0 103 100 103q45 0 71.5 -22.5t26.5 -79.5z" />
    <glyph glyph-name="quotedbl" unicode="&#x22;" horiz-adv-x="415" 
d="M161 446q-2 -24 -11.5 -32.5t-31.5 -8.5h-15q-22 0 -31.5 8.5t-12.5 35.5q-14 141 -14 211q0 56 50 56h34q24 0 36 -10t12 -39q0 -64 -16 -221zM353 446q-2 -24 -11.5 -32.5t-31.5 -8.5h-15q-22 0 -31.5 8.5t-12.5 35.5q-14 141 -14 211q0 56 50 56h34q24 0 36 -10
t12 -39q0 -64 -16 -221z" />
    <glyph glyph-name="numbersign" unicode="#" horiz-adv-x="594" 
d="M193 17q-3 -34 -30 -34h-35q-29 0 -29 25q0 14 3 30l18 126h-52q-34 0 -34 32v84q0 30 34 30h74l10 64h-57q-34 0 -34 32v84q0 30 34 30h78l22 143q4 29 28 29h41q26 0 26 -22q0 -8 -3 -28l-19 -122h109l22 143q4 29 28 29h41q26 0 26 -22q0 -8 -3 -28l-19 -122h53
q34 0 34 -31v-86q0 -17 -8 -23t-25 -6h-76l-9 -64h57q34 0 34 -31v-86q0 -17 -8 -23t-25 -6h-80l-22 -147q-3 -34 -30 -34h-35q-29 0 -29 25q0 14 3 30l18 126h-109zM246 374l-9 -64h109l10 64h-110z" />
    <glyph glyph-name="dollar" unicode="$" horiz-adv-x="578" 
d="M350 -67q0 -27 -22 -27h-57q-13 0 -18.5 6t-5.5 21v61q-113 4 -178 26q-26 10 -26 39q0 24 14 71q10 32 38 32q4 0 40 -8q62 -15 146 -15q42 0 57 11t15 36q0 30 -11 41t-45 18l-73 15q-85 17 -126.5 65t-41.5 141q0 182 191 206v61q0 29 25 29h55q23 0 23 -29v-58
q93 -4 141 -20q26 -10 26 -39q0 -28 -11 -74q-7 -28 -29 -28q-9 0 -44 5q-69 11 -135 11q-57 0 -57 -49q0 -42 51 -53l81 -19q95 -22 130 -64t35 -136q0 -89 -44 -142.5t-144 -67.5v-66z" />
    <glyph glyph-name="percent" unicode="%" horiz-adv-x="892" 
d="M375 473q0 -125 -39 -171t-137 -46q-94 0 -133 45.5t-39 170.5q0 122 44.5 167t132.5 45q97 0 134 -41t37 -170zM252 471q0 79 -9 100t-42 21q-30 0 -40.5 -23.5t-10.5 -97.5q0 -78 10 -101.5t40 -23.5q31 0 41.5 23t10.5 102zM316 -13q-10 -19 -28 -19h-29q-16 0 -16 14
q0 8 6 20l331 687q11 22 26 22h37q13 0 13 -14q0 -5 -8 -23zM865 209q0 -125 -39 -171t-137 -46q-94 0 -133 45.5t-39 170.5q0 122 44.5 167t132.5 45q97 0 134 -41t37 -170zM739 207q0 75 -8.5 95.5t-39.5 20.5q-28 0 -38 -21.5t-10 -94.5q0 -74 10.5 -97t36.5 -23
q30 0 39.5 22t9.5 98z" />
    <glyph glyph-name="ampersand" unicode="&#x26;" horiz-adv-x="750" 
d="M640 252q7 -17 7 -47q0 -116 -69.5 -167t-225.5 -51q-82 0 -140.5 11.5t-91 29t-50.5 47.5t-23 57.5t-5 67.5q0 75 34.5 119.5t114.5 55.5q-64 13 -93.5 53t-29.5 94q0 101 50.5 149t194.5 48q127 0 186 -16q28 -7 28 -33q0 -15 -11 -92q-4 -24 -33 -24q-1 0 -36 5
q-53 8 -89 8q-57 0 -76.5 -15t-19.5 -50q0 -33 14 -47t47 -16q36 -1 36 -39v-81q0 -35 -38 -36q-49 -2 -66 -16.5t-17 -54.5q0 -38 26 -56t89 -18q77 0 102.5 14.5t25.5 56.5q0 15 -5 28q-19 -2 -45 -2q-22 0 -32 8t-10 28v70q0 41 37 41q133 0 246 26q28 7 34 7
q23 0 29 -24q14 -59 14 -94q0 -24 -27 -31q-58 -14 -82 -14z" />
    <glyph glyph-name="quotesingle" unicode="'" horiz-adv-x="222" 
d="M161 446q-2 -24 -11.5 -32.5t-31.5 -8.5h-15q-22 0 -31.5 8.5t-12.5 35.5q-14 141 -14 211q0 56 50 56h34q24 0 36 -10t12 -39q0 -64 -16 -221z" />
    <glyph glyph-name="parenleft" unicode="(" horiz-adv-x="347" 
d="M202 309q0 -114 18 -193.5t45 -124t73 -91.5q8 -8 8 -20q0 -11 -14 -23q-15 -13 -28 -13q-15 0 -44 16q-36 19 -69 51t-67.5 83.5t-55 133t-20.5 180.5q0 98 21.5 179.5t56 133.5t67 84t66.5 52q30 17 45 17q13 0 27 -12q15 -13 15 -23q0 -13 -8 -21q-42 -42 -69.5 -88
t-47 -128.5t-19.5 -192.5z" />
    <glyph glyph-name="parenright" unicode=")" horiz-adv-x="347" 
d="M145 309q0 114 -18 193.5t-45 124t-73 91.5q-8 8 -8 20q0 11 14 23q15 13 28 13q15 0 44 -16q36 -19 69 -51t67.5 -83.5t55 -133t20.5 -180.5q0 -98 -21.5 -179.5t-56 -133.5t-67 -84t-66.5 -52q-30 -17 -45 -17q-13 0 -27 12q-15 13 -15 23q0 13 8 21q42 42 69.5 88
t47 128.5t19.5 192.5z" />
    <glyph glyph-name="asterisk" unicode="*" horiz-adv-x="428" 
d="M214 431l-50 -77q-13 -18 -30 -18q-12 0 -43 21q-18 12 -18 31q0 13 10 26q33 42 60 73q-41 9 -85 22q-31 9 -31 36q0 10 9 37q9 26 38 26q11 0 27 -6q45 -15 71 -27q-8 56 -8 86q0 24 10 34.5t40 10.5q34 0 43.5 -9t9.5 -33q0 -39 -5 -91q52 22 79 32q10 4 26 4
q22 0 31 -27t9 -39q0 -26 -29 -34q-35 -11 -89 -23q31 -35 59 -72q10 -11 10 -25q0 -18 -18 -30q-29 -21 -42 -21q-19 0 -32 18q-26 35 -52 75z" />
    <glyph glyph-name="plus" unicode="+" horiz-adv-x="701" 
d="M412 71q0 -36 -40 -36h-42q-40 0 -40 36v167h-164q-36 0 -36 40v34q0 40 36 40h163v167q0 36 40 36h43q40 0 40 -36v-167h163q36 0 36 -40v-34q0 -40 -36 -40h-163v-167z" />
    <glyph glyph-name="comma" unicode="," horiz-adv-x="269" 
d="M174 179q25 0 35 -10.5t10 -37.5q0 -71 -28.5 -156t-71.5 -134q-26 -30 -47 -30t-47 14q-24 13 -24 33t12 39q43 69 43 231q0 51 55 51h63z" />
    <glyph glyph-name="hyphen" unicode="-" horiz-adv-x="352" 
d="M287 196h-221q-34 0 -34 32v84q0 30 34 30h220q34 0 34 -31v-86q0 -17 -8 -23t-25 -6z" />
    <glyph glyph-name="period" unicode="." horiz-adv-x="269" 
d="M233 88q0 -100 -101 -100q-42 0 -69.5 22.5t-27.5 76.5q0 103 100 103q45 0 71.5 -22.5t26.5 -79.5z" />
    <glyph glyph-name="slash" unicode="/" horiz-adv-x="433" 
d="M136 -66q-10 -34 -37 -34h-68q-21 0 -21 17q0 9 6 25l281 780q10 29 32 29h70q22 0 22 -18q0 -13 -7 -31z" />
    <glyph glyph-name="zero" unicode="0" horiz-adv-x="600" 
d="M568 342q0 -140 -28 -217t-85 -107.5t-158 -30.5q-98 0 -153.5 30t-83.5 107t-28 217q0 104 19 174t57 107t84.5 51.5t112.5 14.5q75 0 121 -13t80 -50t48 -105t14 -178zM378 339q0 90 -5.5 129.5t-21 54.5t-51.5 15q-31 0 -47 -15t-24 -57.5t-8 -125.5q0 -89 7.5 -132.5
t23 -58t47.5 -14.5t47.5 13.5t23.5 57.5t8 133z" />
    <glyph glyph-name="one" unicode="1" horiz-adv-x="600" 
d="M263 500l-63 -30q-10 -6 -23 -6q-15 0 -22 18q-39 90 -39 98q0 15 17 23l135 64q18 9 50 9h99q32 0 32 -35v-605q0 -17 -10.5 -26.5t-24.5 -9.5h-118q-33 0 -33 36v464z" />
    <glyph glyph-name="two" unicode="2" horiz-adv-x="600" 
d="M523 0h-450q-14 0 -22.5 8.5t-8.5 19.5v81q0 25 22 40q116 80 213 165q63 55 63 135q0 49 -25 69t-78 20q-43 0 -98 -9q-35 -5 -37 -5q-7 0 -14 5t-8 12q-13 65 -13 95q0 24 26 31q71 21 198 21q75 0 124.5 -15.5t73.5 -46t32.5 -64t8.5 -81.5q0 -127 -59 -190
q-69 -74 -172 -135q59 1 224 1q34 0 34 -32v-93q0 -32 -34 -32z" />
    <glyph glyph-name="three" unicode="3" horiz-adv-x="600" 
d="M390 359q80 -9 112.5 -47.5t32.5 -118.5q0 -48 -11 -82.5t-39.5 -64t-85 -44.5t-141.5 -15q-119 0 -177 17q-26 7 -26 31q0 25 17 93q6 21 26 21q4 0 39 -5q43 -7 110 -7q58 0 78 15t20 49q0 40 -20.5 54t-76.5 14h-32q-14 0 -21 11.5t-7 24.5v79q0 14 8 26t19 12h34
q42 0 58 13.5t16 43.5q0 33 -18.5 46t-71.5 13q-52 0 -89 -6q-35 -5 -37 -5q-7 0 -14 5t-8 12q-11 55 -11 95q0 24 26 31q61 18 178 18q76 0 122.5 -11t70 -38t31 -59t7.5 -85q0 -46 -29 -84.5t-90 -51.5z" />
    <glyph glyph-name="four" unicode="4" horiz-adv-x="600" 
d="M502 36q0 -17 -10 -26.5t-25 -9.5h-111q-33 0 -33 36v98h-256q-16 0 -26.5 8.5t-10.5 24.5v77q0 32 15 55l210 348q19 29 49 29h124q21 0 21 -21q0 -14 -8 -27q-112 -190 -209 -337h91v75q0 17 9 27.5t25 10.5h113q32 0 32 -35v-78h31q38 0 38 -32v-95q0 -30 -38 -30h-31
v-98z" />
    <glyph glyph-name="five" unicode="5" horiz-adv-x="600" 
d="M239 423q48 10 85 10q57 0 93 -8t65 -30.5t41.5 -65t12.5 -110.5q0 -56 -11 -94.5t-39.5 -71.5t-85.5 -49.5t-143 -16.5q-122 0 -180 17q-26 7 -26 31q0 39 15 88q9 26 28 26q4 0 39 -5q43 -7 112 -7q61 0 80 14.5t19 60.5q0 43 -23.5 56t-72.5 13q-33 0 -102 -8
q-21 -3 -34 -3q-40 0 -40 47q0 30 1 43l22 279q2 15 11.5 26t21.5 11h344q33 0 33 -30v-96q0 -30 -37 -30h-222z" />
    <glyph glyph-name="six" unicode="6" horiz-adv-x="600" 
d="M229 397q20 19 56 30t72 11q113 0 159 -49t46 -173q0 -121 -60 -175t-193 -54q-150 0 -207 77.5t-57 264.5q0 189 71 274.5t228 85.5q104 0 152 -17q26 -9 26 -32q0 -40 -14 -92q-6 -20 -26 -20q-14 0 -50 6q-40 6 -80 6q-66 0 -94 -29t-29 -114zM238 260q-5 -12 -5 -44
q0 -47 17 -65.5t60 -18.5t60.5 15.5t17.5 65.5q0 49 -19 65t-57 16t-59 -14q-10 -7 -15 -20z" />
    <glyph glyph-name="seven" unicode="7" horiz-adv-x="600" 
d="M332 521q-74 -1 -259 -1q-37 0 -37 30v96q0 30 33 30h455q31 0 31 -32v-54q0 -35 -12 -64l-208 -493q-13 -33 -46 -33h-133q-13 0 -21 8t-8 16q0 21 8 39q62 159 197 458z" />
    <glyph glyph-name="eight" unicode="8" horiz-adv-x="600" 
d="M442 357q70 -12 96.5 -54.5t26.5 -109.5q0 -108 -59.5 -157t-209.5 -49q-144 0 -202.5 48t-58.5 152q0 138 128 167q-112 27 -112 147q0 99 62 143t194 44q129 0 187.5 -43.5t58.5 -139.5q0 -122 -111 -148zM366 479q0 34 -15 48.5t-51 14.5q-37 0 -52.5 -15t-15.5 -49
q0 -31 14.5 -45t51.5 -14q36 0 52 14t16 46zM376 204q0 37 -18.5 52.5t-57.5 15.5q-42 0 -60.5 -16.5t-18.5 -53.5t18.5 -54.5t59.5 -17.5q77 0 77 74z" />
    <glyph glyph-name="nine" unicode="9" horiz-adv-x="600" 
d="M373 281q-20 -19 -56 -30t-72 -11q-113 0 -159 48t-46 171q0 120 63.5 175t197.5 55q149 0 202.5 -77.5t53.5 -266.5q0 -190 -70 -275t-229 -85q-111 0 -159 17q-26 9 -26 32q0 40 14 92q6 20 26 20q14 0 50 -6q41 -6 87 -6q68 0 95 30t28 117zM364 418q5 12 5 41
q0 47 -16.5 66t-59.5 19q-41 0 -60 -17t-19 -65q0 -49 19 -63.5t57 -14.5t59 14q10 7 15 20z" />
    <glyph glyph-name="colon" unicode=":" horiz-adv-x="289" 
d="M253 88q0 -100 -101 -100q-42 0 -69.5 22.5t-27.5 76.5q0 103 100 103q45 0 71.5 -22.5t26.5 -79.5zM253 405q0 -100 -101 -100q-42 0 -69.5 22.5t-27.5 76.5q0 103 100 103q45 0 71.5 -22.5t26.5 -79.5z" />
    <glyph glyph-name="semicolon" unicode=";" horiz-adv-x="289" 
d="M253 405q0 -100 -101 -100q-42 0 -69.5 22.5t-27.5 76.5q0 103 100 103q45 0 71.5 -22.5t26.5 -79.5zM194 179q25 0 35 -10.5t10 -37.5q0 -71 -28.5 -156t-71.5 -134q-26 -30 -47 -30t-47 14q-24 13 -24 33t12 39q43 69 43 231q0 51 55 51h63z" />
    <glyph glyph-name="less" unicode="&#x3c;" horiz-adv-x="701" 
d="M567 66q0 -34 -26 -34q-13 0 -25 6l-377 181q-30 14 -30 47v57q0 33 29 47l374 182q16 8 30 8q25 0 25 -34v-47q0 -33 -30 -47l-304 -136l304 -134q30 -14 30 -46v-50z" />
    <glyph glyph-name="equal" unicode="=" horiz-adv-x="701" 
d="M611 166q0 -40 -36 -40h-449q-36 0 -36 40v34q0 40 36 40h449q36 0 36 -40v-34zM611 390q0 -40 -36 -40h-449q-36 0 -36 40v36q0 40 36 40h449q36 0 36 -40v-36z" />
    <glyph glyph-name="greater" unicode="&#x3e;" horiz-adv-x="701" 
d="M134 527q0 35 26 35q9 0 21 -6l382 -183q30 -14 30 -47v-56q0 -32 -29 -47l-383 -186q-12 -6 -21 -6q-26 0 -26 35v48q0 33 30 47l305 137l-305 133q-30 13 -30 46v50z" />
    <glyph glyph-name="question" unicode="?" horiz-adv-x="486" 
d="M259 260h-66q-34 0 -41 21q-4 12 -4 42q0 27 6 43t29 35q46 39 63.5 62.5t17.5 48.5q0 29 -15 44.5t-55 15.5q-39 0 -66 -4q-32 -4 -38 -4q-32 0 -40 32t-8 64q1 37 37 46q56 15 147 15q132 0 182.5 -39.5t50.5 -135.5q0 -56 -19.5 -92t-86.5 -78q-50 -31 -56 -66
q-1 -2 -2.5 -15.5t-3.5 -18.5q-6 -16 -32 -16zM322 88q0 -100 -101 -100q-42 0 -69.5 22.5t-27.5 76.5q0 103 100 103q45 0 71.5 -22.5t26.5 -79.5z" />
    <glyph glyph-name="at" unicode="@" horiz-adv-x="811" 
d="M455 111q-20 -27 -53 -40.5t-63 -13.5q-134 0 -134 133q0 61 28 129.5t74 108.5q54 47 135 47q55 0 78 -20l2 5q5 12 25 12h44q19 0 19 -15q0 -8 -4 -26l-51 -229q-6 -27 -6 -42q0 -21 19 -21q17 0 35 13q40 30 62.5 87.5t22.5 121.5q0 219 -237 219q-135 0 -229.5 -97.5
t-94.5 -257.5q0 -132 75 -204t205 -72q75 0 113.5 6.5t88.5 22.5q22 8 33 8q17 0 26 -29q3 -8 3 -19q0 -15 -23 -24q-109 -43 -242 -43q-170 0 -269 91.5t-99 262.5q0 183 117.5 303.5t297.5 120.5q148 0 234.5 -71.5t86.5 -213.5q0 -123 -67.5 -215t-164.5 -92
q-82 0 -87 54zM499 388q-23 14 -55 14q-48 0 -76 -33q-27 -31 -42.5 -75.5t-15.5 -87.5q0 -69 57 -69q41 0 67 20q9 6 15 19q7 12 10 28z" />
    <glyph glyph-name="A" unicode="A" horiz-adv-x="694" 
d="M250 159l-38 -120q-7 -21 -16 -30t-27 -9h-129q-34 0 -34 25q0 12 7 31l222 617q11 33 48 33h131q33 0 45 -33l222 -617q7 -19 7 -31q0 -25 -34 -25h-127q-18 0 -28 9t-17 30l-38 120h-194zM298 313h100q-23 76 -49 176q-4 -13 -19.5 -69t-31.5 -107z" />
    <glyph glyph-name="B" unicode="B" horiz-adv-x="650" 
d="M288 0h-177q-41 0 -41 38v630q0 38 39 38h188q61 0 113 -6q94 -11 138 -51.5t44 -117.5q0 -65 -25 -103.5t-79 -56.5q126 -30 126 -166q0 -140 -101 -180q-63 -25 -225 -25zM261 151h42q55 0 77 7q38 13 38 66q0 46 -40 59q-22 7 -76 7h-41v-139zM261 434h32q50 0 67 6
q40 12 40 56q0 50 -46 60q-17 4 -61 4h-32v-126z" />
    <glyph glyph-name="C" unicode="C" horiz-adv-x="588" 
d="M230 356q0 -90 16.5 -138.5t45 -64t78.5 -15.5q55 0 115 15q23 5 33 5q14 0 20 -14q26 -69 26 -94q0 -21 -24 -30q-84 -33 -228 -33q-68 0 -117.5 17t-86.5 57t-55.5 110t-18.5 171q0 202 71 290t243 88q112 0 172 -17q26 -7 26 -31q0 -42 -21 -99q-7 -17 -22 -17
q-4 0 -8.5 1t-12 2t-12.5 2q-39 7 -91 7q-39 0 -64 -7.5t-46 -29.5t-30 -64.5t-9 -110.5z" />
    <glyph glyph-name="D" unicode="D" horiz-adv-x="692" 
d="M262 160h40q70 0 97 14q36 20 48.5 59.5t12.5 125.5q0 85 -13 121.5t-50 52.5q-32 14 -96 14h-39v-387zM273 0h-171q-32 0 -32 36v633q0 37 32 37h187q131 0 195 -19q90 -26 132 -106.5t42 -220.5q0 -142 -38 -220.5t-137 -115.5q-66 -24 -210 -24z" />
    <glyph glyph-name="E" unicode="E" horiz-adv-x="572" 
d="M517 0h-413q-34 0 -34 35v632q0 39 34 39h394q18 0 26 -7.5t8 -25.5v-99q0 -28 -34 -28h-236v-102h215q18 0 26 -7.5t8 -25.5v-99q0 -28 -34 -28h-215v-124h255q18 0 26 -7.5t8 -25.5v-99q0 -28 -34 -28z" />
    <glyph glyph-name="F" unicode="F" horiz-adv-x="544" 
d="M262 36q0 -17 -10 -26.5t-25 -9.5h-124q-33 0 -33 36v631q0 39 34 39h384q18 0 26 -7.5t8 -25.5v-99q0 -28 -34 -28h-226v-128h185q18 0 26 -7.5t8 -25.5v-99q0 -28 -34 -28h-185v-222z" />
    <glyph glyph-name="G" unicode="G" horiz-adv-x="666" 
d="M612 67q0 -34 -26 -44q-35 -14 -109 -25t-152 -11q-151 0 -221 78t-70 277q0 201 74 289.5t247 88.5q110 0 192 -23q26 -7 26 -31q0 -42 -21 -99q-7 -17 -22 -17q-4 0 -8.5 1t-12 2t-12.5 2q-73 13 -113 13t-65.5 -7.5t-47 -29t-31.5 -65t-10 -110.5q0 -90 16.5 -138.5
t45 -64t78.5 -15.5q40 0 84 9v87h-82q-23 0 -23 24v112q0 24 22 24h214q27 0 27 -27v-300z" />
    <glyph glyph-name="H" unicode="H" horiz-adv-x="720" 
d="M262 36q0 -17 -10 -26.5t-25 -9.5h-124q-33 0 -33 36v634q0 36 34 36h126q32 0 32 -35v-227h196v226q0 36 34 36h126q32 0 32 -35v-635q0 -17 -10 -26.5t-25 -9.5h-124q-33 0 -33 36v248h-196v-248z" />
    <glyph glyph-name="I" unicode="I" horiz-adv-x="332" 
d="M262 36q0 -17 -10 -26.5t-25 -9.5h-124q-33 0 -33 36v634q0 36 34 36h126q32 0 32 -35v-635z" />
    <glyph glyph-name="J" unicode="J" horiz-adv-x="358" 
d="M290 671v-550q0 -111 -48 -165q-52 -59 -196 -59q-40 0 -56 5q-22 7 -22 32q0 49 6 83q6 32 29 32q5 0 17.5 -0.5t19.5 -0.5q31 0 44 13q14 14 14 88v521q0 36 34 36h126q32 0 32 -35z" />
    <glyph glyph-name="K" unicode="K" horiz-adv-x="670" 
d="M262 36q0 -17 -10 -26.5t-25 -9.5h-124q-33 0 -33 36v634q0 36 34 36h126q32 0 32 -35v-228h32q35 0 47 23l105 213q14 27 43 27h124q29 0 29 -24q0 -10 -10 -30q-98 -186 -152 -279q12 -24 169 -310q14 -24 14 -38q0 -11 -8.5 -18t-19.5 -7h-143q-27 0 -40 24l-124 242
q-9 18 -41 18h-25v-248z" />
    <glyph glyph-name="L" unicode="L" horiz-adv-x="582" 
d="M507 0h-403q-34 0 -34 35v635q0 36 34 36h126q32 0 32 -35v-511h245q18 0 26 -7.5t8 -25.5v-99q0 -28 -34 -28z" />
    <glyph glyph-name="M" unicode="M" horiz-adv-x="881" 
d="M259 35q0 -35 -33 -35h-126q-30 0 -30 37v632q0 37 34 37h194q41 0 53 -32q74 -198 98 -273q7 25 16 53l29 88l44 135q9 29 42 29h198q33 0 33 -38v-627q0 -41 -36 -41h-125q-31 0 -31 39q0 384 3 465q-33 -116 -100 -327q-10 -30 -44 -30h-68q-35 0 -44 28l-110 328
q3 -79 3 -468z" />
    <glyph glyph-name="N" unicode="N" horiz-adv-x="716" 
d="M256 36q0 -17 -10 -26.5t-25 -9.5h-118q-33 0 -33 36v634q0 36 34 36h111q29 0 45 -26q187 -303 201 -328q-1 102 -1 316q0 38 34 38h120q32 0 32 -35v-635q0 -17 -10 -26.5t-25 -9.5h-98q-20 0 -31 5.5t-22 21.5q-156 250 -205 335q1 -52 1 -326z" />
    <glyph glyph-name="O" unicode="O" horiz-adv-x="705" 
d="M671 358q0 -109 -19 -181.5t-60.5 -114t-99.5 -58.5t-144 -17q-83 0 -139 16.5t-97 58t-59.5 114t-18.5 181.5q0 88 16.5 152.5t43.5 104.5t69.5 64t88.5 33t105 9q56 0 97 -5.5t78 -20t61.5 -40t42.5 -65.5t26.5 -97t8.5 -134zM473 355q0 90 -12.5 136t-37 61.5
t-71.5 15.5q-42 0 -67 -16t-40 -63.5t-15 -132.5q0 -90 14.5 -138.5t39 -64t67.5 -15.5q42 0 66.5 14.5t40 63.5t15.5 139z" />
    <glyph glyph-name="P" unicode="P" horiz-adv-x="648" 
d="M261 36q0 -17 -10.5 -26.5t-24.5 -9.5h-123q-33 0 -33 36v632q0 18 8 28t32 10h178q161 0 225 -27q101 -41 101 -191q0 -77 -28 -130t-107 -77q-66 -20 -184 -20h-34v-225zM261 405h41q50 0 75 8q41 14 41 64q0 58 -38 71q-22 7 -77 7h-42v-150z" />
    <glyph glyph-name="Q" unicode="Q" horiz-adv-x="705" 
d="M671 358q0 -212 -79 -295l101 -66q14 -8 14 -21q0 -15 -66 -108q-9 -13 -21 -13q-10 0 -23 9l-190 126q-29 -3 -59 -3q-83 0 -139 16.5t-97 58t-59.5 114t-18.5 181.5q0 88 16.5 152.5t43.5 104.5t69.5 64t88.5 33t105 9q56 0 97 -5.5t78 -20t61.5 -40t42.5 -65.5
t26.5 -97t8.5 -134zM473 355q0 90 -12.5 136t-37 61.5t-71.5 15.5q-42 0 -67 -16t-40 -63.5t-15 -132.5q0 -90 14.5 -138.5t39 -64t67.5 -15.5q42 0 66.5 14.5t40 63.5t15.5 139z" />
    <glyph glyph-name="R" unicode="R" horiz-adv-x="657" 
d="M261 36q0 -17 -10.5 -26.5t-24.5 -9.5h-123q-33 0 -33 36v632q0 18 8 28t32 10h163q158 0 222 -27q101 -41 101 -190q0 -139 -94 -189l124 -235q13 -26 13 -40q0 -11 -8 -18t-19 -7h-138q-27 0 -40 24l-108 239h-46h-19v-227zM261 407h29q47 0 72 8q38 13 38 63
q0 58 -36 70q-22 7 -73 7h-30v-148z" />
    <glyph glyph-name="S" unicode="S" horiz-adv-x="600" 
d="M381 430q104 -27 139.5 -69.5t35.5 -142.5q0 -112 -64 -171.5t-218 -59.5q-141 0 -220 28q-29 11 -29 42q0 17 15 73q10 34 41 34q14 0 44 -9q65 -17 155 -17q45 0 61.5 13.5t16.5 41.5q0 33 -12.5 47t-48.5 21l-79 16q-93 19 -135.5 68t-42.5 149q0 226 270 226
q129 0 195 -23q28 -10 28 -43q0 -28 -12 -74q-7 -30 -32 -30q-22 0 -42 5q-77 12 -149 12q-62 0 -62 -56q0 -49 56 -61z" />
    <glyph glyph-name="T" unicode="T" horiz-adv-x="643" 
d="M417 36q0 -17 -10.5 -26.5t-24.5 -9.5h-125q-33 0 -33 36v510h-148q-34 0 -34 28v99q0 18 8 25.5t26 7.5h490q18 0 26 -7.5t8 -25.5v-99q0 -28 -34 -28h-149v-510z" />
    <glyph glyph-name="U" unicode="U" horiz-adv-x="706" 
d="M643 673v-391q0 -147 -32 -198q-62 -98 -268 -98q-209 0 -256 103q-24 53 -24 191v392q0 14 9 24t24 10h130q29 0 29 -33v-426q0 -61 19 -84q20 -25 80 -25q65 0 86 23t21 85v426q0 14 9 24t24 10h120q29 0 29 -33z" />
    <glyph glyph-name="V" unicode="V" horiz-adv-x="669" 
d="M396 0h-124q-37 0 -50 36l-210 613q-6 14 -6 32q0 10 8 17.5t22 7.5h138q30 0 41 -34q99 -331 124 -426q25 95 129 424q12 36 43 36h120q32 0 32 -26q0 -16 -6 -32l-214 -614q-13 -34 -47 -34z" />
    <glyph glyph-name="W" unicode="W" horiz-adv-x="932" 
d="M473 423q-45 -212 -88 -388q-4 -15 -16.5 -25t-29.5 -10h-122q-36 0 -47 38l-151 604q-5 18 -5 35q0 11 6.5 20t20.5 9h139q30 0 38 -34q73 -336 84 -405q6 39 71 383q9 43 44 43h118q34 0 43 -38q64 -296 78 -388q22 134 71 402q6 37 38 37h123q15 0 22.5 -8t7.5 -19
q0 -12 -7 -42l-146 -601q-9 -36 -45 -36h-122q-19 0 -31.5 11t-15.5 26z" />
    <glyph glyph-name="X" unicode="X" horiz-adv-x="684" 
d="M223 32q-20 -32 -48 -32h-139q-29 0 -29 25q0 13 14 32l197 310l-180 278q-14 21 -14 33q0 11 6.5 19.5t19.5 8.5h154q18 0 28 -6.5t21 -24.5l96 -162l100 162q11 18 20.5 24.5t27.5 6.5h143q10 0 16.5 -9t6.5 -19q0 -9 -14 -33l-182 -284l198 -304q12 -21 12 -32
q0 -25 -28 -25h-153q-29 0 -48 32l-113 183q-43 -74 -112 -183z" />
    <glyph glyph-name="Y" unicode="Y" horiz-adv-x="662" 
d="M428 36q0 -17 -10 -26.5t-25 -9.5h-124q-33 0 -33 36v247l-215 362q-14 24 -14 33q0 11 6.5 19.5t19.5 8.5h154q32 0 49 -31q61 -116 102 -202l106 202q17 31 48 31h141q10 0 16.5 -9t6.5 -19q0 -9 -14 -33l-214 -357v-252z" />
    <glyph glyph-name="Z" unicode="Z" horiz-adv-x="643" 
d="M581 0h-513q-47 0 -47 54v36q0 18 4 31.5t8.5 21t18.5 25.5l295 378h-267q-34 0 -34 37v84q0 39 32 39h469q24 0 35 -9t11 -36v-45q0 -34 -7 -52.5t-36 -56.5l-269 -347h301q16 0 25.5 -9t9.5 -24v-95q0 -14 -9 -23t-27 -9z" />
    <glyph glyph-name="bracketleft" unicode="[" horiz-adv-x="345" 
d="M221 -73h85q24 0 24 -22v-28q0 -22 -24 -22h-200q-28 0 -28 35v833q0 15 7.5 25t21.5 10h199q24 0 24 -21v-29q0 -9 -7 -15.5t-18 -6.5h-84v-759z" />
    <glyph glyph-name="backslash" unicode="\" horiz-adv-x="433" 
d="M415 -58q6 -16 6 -25q0 -17 -21 -17h-68q-27 0 -37 34l-278 768q-7 18 -7 31q0 18 22 18h70q22 0 32 -29z" />
    <glyph glyph-name="bracketright" unicode="]" horiz-adv-x="345" 
d="M124 686h-85q-24 0 -24 22v28q0 22 24 22h200q28 0 28 -35v-833q0 -15 -7.5 -25t-21.5 -10h-199q-24 0 -24 21v29q0 9 7 15.5t18 6.5h84v759z" />
    <glyph glyph-name="asciicircum" unicode="^" horiz-adv-x="727" 
d="M602 327q5 -13 5 -20q0 -27 -35 -27h-53q-33 0 -47 30l-110 230l-108 -230q-14 -30 -47 -30h-51q-35 0 -35 27q0 7 5 20l157 319q15 29 47 29h68q32 0 47 -29z" />
    <glyph glyph-name="underscore" unicode="_" horiz-adv-x="493" 
d="M0 -78h493v-55h-493v55z" />
    <glyph glyph-name="grave" unicode="`" horiz-adv-x="197" 
d="M93 602l-112 113q-14 14 -14 28q0 23 33 23h88q30 0 50 -27l80 -108q11 -14 11 -28q0 -23 -32 -23h-46q-34 0 -58 22z" />
    <glyph glyph-name="a" unicode="a" horiz-adv-x="560" 
d="M330 38q-46 -46 -124 -46q-174 0 -174 166q0 87 55 127q46 34 164 34q33 0 72 -3v7q0 14 -4 25q-8 19 -66 19q-46 0 -100 -7q-33 -3 -39 -3q-22 0 -29 26q-9 34 -9 80q0 30 27 37q64 19 174 19q152 0 193 -41q37 -36 37 -125v-308q0 -45 -43 -45h-87q-24 0 -34 6t-12 22z
M323 203q-18 2 -46 2q-41 0 -58 -11q-12 -9 -12 -32q0 -38 49 -38q38 0 54 11q8 4 11 15q2 9 2 32v21z" />
    <glyph glyph-name="b" unicode="b" horiz-adv-x="593" 
d="M221 26l-1 -5q-3 -13 -12.5 -17t-32.5 -4h-76q-23 0 -32 8t-9 31v670q0 39 32 39h122q19 0 25.5 -9t6.5 -30v-227q49 35 142 35q91 0 134 -58.5t43 -194.5q0 -85 -13.5 -138.5t-45.5 -82.5t-73 -39t-106 -10q-34 0 -64.5 9.5t-39.5 22.5zM244 141q21 -8 52 -8q50 0 65 24
t15 99q0 68 -11 90t-47 22q-43 0 -63 -12q-7 -5 -9 -11t-2 -19v-185z" />
    <glyph glyph-name="c" unicode="c" horiz-adv-x="462" 
d="M218 251q0 -72 19.5 -95t62.5 -23q36 0 72 10q18 5 28 5q17 0 23 -20q18 -57 18 -84q0 -20 -18 -29q-53 -28 -155 -28q-124 0 -181 56.5t-57 201.5t56 209.5t198 64.5q85 0 128 -16q19 -7 19 -29q0 -46 -13 -91q-6 -21 -25 -21q-12 0 -33 3q-33 5 -59 5q-46 0 -64.5 -25
t-18.5 -94z" />
    <glyph glyph-name="d" unicode="d" horiz-adv-x="594" 
d="M536 41q0 -23 -9 -32t-32 -9h-90q-26 0 -34.5 3.5t-10.5 19.5l-1 11q-42 -47 -144 -47q-93 0 -139 59.5t-46 196.5q0 82 15 136t48.5 85t79.5 43t115 12q36 0 62 -7v198q0 38 40 38h113q17 0 25 -7.5t8 -30.5v-669zM350 178v187q-19 5 -45 5q-54 0 -70.5 -24.5
t-16.5 -103.5q0 -61 14.5 -83t50.5 -22t56 12q6 4 9 11q2 6 2 18z" />
    <glyph glyph-name="e" unicode="e" horiz-adv-x="537" 
d="M219 198q1 -41 19 -53t59 -12q82 0 134 16q13 5 29 5q20 0 26 -21q16 -59 16 -81q0 -21 -17 -30q-31 -17 -91.5 -26t-114.5 -9q-140 0 -194.5 62t-54.5 201q0 145 58 207t193 62q45 0 79.5 -7t58.5 -18.5t41 -32t26.5 -41t14.5 -52.5t6.5 -59.5t1.5 -68.5q0 -27 -14 -36
q-9 -6 -25 -6h-251zM222 318h114q1 2 1 14q0 38 -10.5 52.5t-45.5 14.5q-32 0 -45 -19t-14 -62z" />
    <glyph glyph-name="f" unicode="f" horiz-adv-x="361" 
d="M262 31q0 -12 -8.5 -21.5t-22.5 -9.5h-127q-28 0 -28 34v326h-33q-37 0 -37 37v72q0 14 8.5 25t26.5 11h35v72q0 101 51 140q29 22 66 32.5t109 10.5q58 0 83 -10q21 -9 21 -35q0 -34 -9 -83q-5 -24 -32 -24q-4 0 -21.5 1.5t-25.5 1.5q-32 0 -44 -13t-12 -52v-41h74
q35 0 35 -36v-76q0 -33 -36 -33h-73v-329z" />
    <glyph glyph-name="g" unicode="g" horiz-adv-x="545" 
d="M100 -4q-79 24 -79 111q0 74 68 107q-41 36 -41 126q0 94 56.5 136.5t174.5 42.5q60 0 107 -14h127q30 0 30 -32v-79q0 -32 -28 -32h-28q1 -5 1 -14q0 -93 -45.5 -140.5t-162.5 -47.5q-28 0 -43 1q-24 2 -27 2q-9 0 -15 -3q-8 -6 -8 -19q0 -17 20 -22q12 -3 109 -3
q77 0 122.5 -7.5t73 -29t37 -54.5t9.5 -89q0 -92 -60.5 -138t-213.5 -46q-83 0 -135.5 9t-79 28.5t-36 43.5t-9.5 61q0 36 19.5 63.5t56.5 38.5zM384 -69q0 20 -11.5 26.5t-56.5 8.5q-31 1 -73 1q-21 0 -29 -5q-15 -10 -15 -32q0 -23 16 -32t75 -9q61 0 77.5 9t16.5 33z
M328 338q0 29 -12.5 39.5t-40.5 10.5t-41 -11t-13 -38q0 -31 13.5 -41.5t41.5 -10.5q52 0 52 51z" />
    <glyph glyph-name="h" unicode="h" horiz-adv-x="602" 
d="M244 34q0 -16 -9 -25t-23 -9h-124q-30 0 -30 34v672q0 42 38 42h111q21 0 29 -10.5t8 -32.5v-236q53 48 140 48q130 0 154 -64q11 -29 11 -98v-321q0 -34 -30 -34h-126q-30 0 -30 34v278q0 21 -3 32q-8 24 -45 24q-17 0 -40 -5q-17 -5 -24 -14q-7 -11 -7 -32v-283z" />
    <glyph glyph-name="i" unicode="i" horiz-adv-x="302" 
d="M244 34q0 -34 -32 -34h-124q-30 0 -30 34v437q0 34 31 34h126q17 0 23 -8t6 -25v-438zM246 654q0 -93 -95 -93q-93 0 -93 92q0 94 93 94q46 0 70.5 -21t24.5 -72z" />
    <glyph glyph-name="j" unicode="j" horiz-adv-x="302" 
d="M244 472v-497q0 -119 -36 -161q-28 -32 -75 -47t-147 -15q-45 0 -45 37q0 57 2 75q3 33 35 36q52 4 62 11q18 12 18 59v501q0 34 31 34h126q17 0 23 -8t6 -25zM246 654q0 -93 -95 -93q-93 0 -93 92q0 94 93 94q46 0 70.5 -21t24.5 -72z" />
    <glyph glyph-name="k" unicode="k" horiz-adv-x="594" 
d="M244 34q0 -34 -32 -34h-124q-30 0 -30 34v680q0 34 31 34h126q17 0 23 -8t6 -25v-362h27q34 0 46 23l56 106q12 23 42 23h119q27 0 27 -24q0 -6 -10 -26q-30 -56 -100 -167l126 -231q14 -26 14 -34q0 -11 -8.5 -17t-19.5 -6h-136q-27 0 -40 24l-85 161q-9 18 -41 18h-17
v-169z" />
    <glyph glyph-name="l" unicode="l" horiz-adv-x="302" 
d="M244 34q0 -34 -32 -34h-124q-30 0 -30 34v680q0 34 31 34h126q17 0 23 -8t6 -25v-681z" />
    <glyph glyph-name="m" unicode="m" horiz-adv-x="879" 
d="M244 34q0 -16 -9 -25t-23 -9h-124q-30 0 -30 34v429q0 42 38 42h108q18 0 26 -6t11 -21l2 -9q50 48 133 48q117 0 147 -50q60 50 150 50q130 0 154 -64q11 -29 11 -98v-321q0 -34 -30 -34h-126q-30 0 -30 34v278q0 23 -3 34q-7 22 -45 22q-18 0 -33 -5q-12 -4 -24 -13
q-7 -6 -7 -17q0 -3 0.5 -11t0.5 -10v-278q0 -34 -30 -34h-126q-30 0 -30 34v278q0 23 -3 34q-7 22 -45 22q-9 0 -32 -5q-17 -5 -24 -14q-7 -11 -7 -32v-283z" />
    <glyph glyph-name="n" unicode="n" horiz-adv-x="602" 
d="M244 34q0 -16 -9 -25t-23 -9h-124q-30 0 -30 34v429q0 42 38 42h108q18 0 26 -6t11 -21l2 -9q53 48 141 48q130 0 154 -64q11 -29 11 -98v-321q0 -34 -30 -34h-126q-30 0 -30 34v278q0 23 -3 34q-6 22 -45 22q-17 0 -40 -5q-17 -5 -24 -14q-7 -11 -7 -32v-283z" />
    <glyph glyph-name="o" unicode="o" horiz-adv-x="571" 
d="M541 257q0 -154 -61 -212t-198 -58q-132 0 -192 57t-60 210q0 79 19 133t55.5 82t80.5 39t104 11q67 0 110 -9.5t77.5 -37t49.5 -80t15 -135.5zM354 252q0 72 -12 95t-55 23q-39 0 -54 -24t-15 -92q0 -73 14 -97t53 -24q40 0 54.5 23.5t14.5 95.5z" />
    <glyph glyph-name="p" unicode="p" horiz-adv-x="594" 
d="M244 -206q0 -38 -40 -38h-113q-17 0 -25 7.5t-8 30.5v668q0 23 9.5 33t32.5 10h95q25 0 34.5 -5.5t11.5 -21.5l1 -7q40 46 140 46q93 0 137 -56t44 -206q0 -82 -14.5 -134t-47.5 -79.5t-76 -37.5t-110 -10q-53 0 -71 13v-213zM244 140q26 -7 45 -7q55 0 71 23.5t16 103.5
q0 65 -11.5 86.5t-52.5 21.5q-37 0 -57 -12q-6 -4 -9 -11q-2 -6 -2 -18v-187z" />
    <glyph glyph-name="q" unicode="q" horiz-adv-x="594" 
d="M350 18q-41 -29 -133 -29q-85 0 -136 62t-51 194q0 84 17 139t52.5 83.5t78 39.5t103.5 11q70 0 94 -32l1 7q3 13 12.5 17t32.5 4h74q23 0 32 -8t9 -31v-677q0 -37 -30 -37h-124q-19 0 -25.5 9t-6.5 30v218zM350 364q-16 6 -50 6q-51 0 -66.5 -24t-15.5 -99
q0 -64 13 -88.5t49 -24.5q38 0 60 13q8 5 9 12q1 4 1 17v188z" />
    <glyph glyph-name="r" unicode="r" horiz-adv-x="424" 
d="M244 34q0 -16 -9 -25t-23 -9h-124q-30 0 -30 34v429q0 42 38 42h111q31 0 34 -23l2 -11q10 17 38.5 32t62.5 15t50 -5q22 -7 22 -34q0 -64 -9 -95q-5 -20 -32 -20q-12 0 -35 2t-30 2q-28 0 -48 -6q-10 -3 -15 -13q-3 -6 -3 -17v-298z" />
    <glyph glyph-name="s" unicode="s" horiz-adv-x="478" 
d="M316 313q81 -19 109 -52t28 -108q0 -166 -221 -166q-130 0 -189 23q-22 9 -22 32q0 31 16 89q7 24 32 24q11 0 35 -6q63 -15 138 -15q33 0 33 20q0 11 -5.5 15t-24.5 8l-68 13q-73 14 -108 49t-35 113q0 76 52.5 121t166.5 45q112 0 162 -16q22 -8 22 -31q0 -30 -15 -89
q-5 -21 -26 -21q-15 0 -33 3q-58 9 -109 9q-39 0 -39 -17q0 -11 6 -16t29 -11z" />
    <glyph glyph-name="t" unicode="t" horiz-adv-x="366" 
d="M258 360v-138q0 -54 8 -73q7 -16 28 -16q6 0 19 0.5t17 0.5q23 0 28 -27q5 -34 5 -77q0 -29 -30 -35q-46 -8 -88 -8q-103 0 -142 49q-31 38 -31 129v195h-42q-28 0 -28 29v82q0 15 9 24.5t26 9.5h39q1 43 5 97q3 37 34 37h113q30 0 30 -39v-95h53q18 0 25.5 -6t7.5 -21
v-90q0 -28 -30 -28h-56z" />
    <glyph glyph-name="u" unicode="u" horiz-adv-x="602" 
d="M359 37q-52 -49 -141 -49q-130 0 -154 64q-11 29 -11 98v321q0 34 30 34h126q30 0 30 -34v-278q0 -21 3 -32q8 -24 45 -24q17 0 40 5q17 5 24 14q7 10 7 32v283q0 16 9 25t23 9h124q30 0 30 -34v-429q0 -42 -38 -42h-108q-19 0 -27 5.5t-10 19.5z" />
    <glyph glyph-name="v" unicode="v" horiz-adv-x="557" 
d="M337 0h-115q-32 0 -44 31l-167 425q-5 12 -5 28q0 21 26 21h141q27 0 36 -29q43 -131 73 -235q29 96 77 233q10 31 35 31h130q28 0 28 -22q0 -13 -6 -28l-168 -426q-13 -29 -41 -29z" />
    <glyph glyph-name="w" unicode="w" horiz-adv-x="822" 
d="M412 246q-18 -67 -68 -217q-9 -29 -44 -29h-108q-32 0 -44 31l-121 425q-5 18 -5 28q0 21 26 21h141q30 0 36 -29q43 -187 48 -212q0 1 54 187q12 39 45 39h92q28 0 41 -35q19 -51 64 -191q10 63 38 210q6 31 35 31h130q28 0 28 -22q0 -13 -6 -28l-124 -426
q-13 -29 -41 -29h-111q-34 0 -44 31q-12 38 -62 215z" />
    <glyph glyph-name="x" unicode="x" horiz-adv-x="572" 
d="M282 123l-64 -94q-20 -29 -47 -29h-137q-28 0 -28 22q0 14 12 30l146 207l-133 191q-14 19 -14 30q0 9 6.5 17t18.5 8h149q17 0 26.5 -6t21.5 -23q30 -42 52 -76q39 57 53 76q13 17 21.5 23t25.5 6h141q10 0 16 -8t6 -17q0 -10 -13 -30l-133 -190l146 -208q12 -16 12 -30
q0 -22 -27 -22h-148q-18 0 -27 6.5t-20 22.5q-46 68 -62 94z" />
    <glyph glyph-name="y" unicode="y" horiz-adv-x="557" 
d="M188 5l-177 451q-5 12 -5 28q0 21 26 21h141q27 0 36 -29q57 -171 76 -235q51 167 74 233q10 31 35 31h130q28 0 28 -22q0 -13 -6 -28l-192 -516q-13 -35 -32 -73q-22 -47 -54 -75q-47 -41 -149 -41q-95 0 -117 11q-16 7 -16 31q0 15 5.5 50t9.5 44q7 15 26 15q3 0 25 -2
t34 -2q32 0 46 8q17 10 33 41q16 33 20 49z" />
    <glyph glyph-name="z" unicode="z" horiz-adv-x="515" 
d="M472 0h-420q-37 0 -37 40v46q0 22 4.5 32t19.5 26l197 211h-180q-26 0 -26 27v95q0 28 25 28h392q19 0 27.5 -7t8.5 -27v-53q0 -24 -7 -38t-31 -40q-150 -164 -178 -190h206q27 0 27 -24v-103q0 -23 -28 -23z" />
    <glyph glyph-name="braceleft" unicode="{" horiz-adv-x="388" 
d="M148 306q109 -17 109 -143v-132q0 -53 18 -77q13 -17 61 -23q15 -2 21 -10t6 -26v-14q0 -31 -31 -31q-136 0 -175 42q-37 40 -37 111v137q0 63 -16.5 89.5t-51.5 30.5q-32 4 -32 34v21q0 31 28 37q37 8 54.5 36.5t17.5 85.5v112q0 85 35 123q49 53 170 53q20 0 28.5 -8
t8.5 -26v-12q0 -31 -30 -34q-44 -3 -62 -29q-13 -19 -13 -69v-127q0 -66 -26.5 -102.5t-82.5 -48.5z" />
    <glyph glyph-name="bar" unicode="|" horiz-adv-x="299" 
d="M221 -111q0 -34 -32 -34h-81q-30 0 -30 34v835q0 34 31 34h83q17 0 23 -8t6 -25v-836z" />
    <glyph glyph-name="braceright" unicode="}" horiz-adv-x="388" 
d="M230 306q-109 17 -109 143v132q0 53 -18 77q-13 17 -61 23q-15 2 -21 10t-6 26v14q0 31 31 31q136 0 175 -42q37 -40 37 -111v-137q0 -63 16.5 -89.5t51.5 -30.5q32 -4 32 -34v-21q0 -31 -28 -37q-37 -8 -54.5 -36.5t-17.5 -85.5v-112q0 -85 -35 -123q-49 -53 -170 -53
q-20 0 -28.5 8t-8.5 26v12q0 31 30 34q44 3 62 29q13 19 13 69v127q0 66 26.5 102.5t82.5 48.5z" />
    <glyph glyph-name="asciitilde" unicode="~" horiz-adv-x="701" 
d="M183 236q-21 -21 -37 -21q-20 0 -43 21q-20 17 -20 35q0 17 12 31q74 86 152 86q47 0 112 -35q50 -27 88 -27q40 0 70 30q24 24 38 24q16 0 42 -22q21 -18 21 -35q0 -14 -12 -30q-70 -88 -160 -88q-56 0 -113 32q-51 29 -83 29q-38 0 -67 -30z" />
    <glyph glyph-name="exclamdown" unicode="&#xa1;" horiz-adv-x="308" 
d="M56 206q3 43 54 43h53q27 0 41 -9.5t15 -36.5q18 -282 18 -339q0 -31 -10.5 -46.5t-39.5 -15.5h-100q-26 0 -38.5 12t-12.5 43q0 62 20 349zM41 420q0 100 101 100q42 0 69.5 -22.5t27.5 -76.5q0 -103 -100 -103q-45 0 -71.5 22.5t-26.5 79.5z" />
    <glyph glyph-name="cent" unicode="&#xa2;" horiz-adv-x="520" 
d="M368 -67q0 -27 -22 -27h-57q-13 0 -18.5 6t-5.5 21v65q-106 6 -155 62t-49 186q0 126 45.5 188t158.5 72v69q0 29 25 29h55q23 0 23 -29v-68q50 -4 77 -14q19 -5 19 -28q0 -41 -13 -91q-5 -21 -24 -21q-12 0 -33 3q-32 5 -59 5q-47 0 -65 -21.5t-18 -88.5q0 -69 19 -89
t63 -20q34 0 72 9q18 5 27 5q17 0 23 -19q18 -54 18 -85q0 -19 -18 -28q-29 -16 -88 -23v-68z" />
    <glyph glyph-name="sterling" unicode="&#xa3;" horiz-adv-x="626" 
d="M581 26q0 -12 -8.5 -19t-20.5 -7h-446q-30 0 -30 30v79q0 25 22 35q47 22 64.5 48.5t17.5 45.5q0 25 -5 39h-83q-25 0 -25 22v57q0 24 25 24h56q-22 76 -22 111q0 94 66.5 145.5t200.5 51.5q101 0 161 -19q19 -6 19 -28q0 -24 -21 -101q-4 -18 -25 -18q-17 0 -41 6
q-48 10 -92 10q-72 0 -72 -68q0 -12 7 -44.5t11 -45.5h153q29 0 29 -24v-57q0 -22 -29 -22h-137q4 -17 4 -43q0 -51 -56 -77h247q30 0 30 -27v-104z" />
    <glyph glyph-name="currency" unicode="&#xa4;" horiz-adv-x="554" 
d="M489 107q-13 -14 -27 -14q-13 0 -26 13l-46 47q-43 -28 -112 -28q-65 0 -112 27l-45 -46q-13 -13 -27 -13q-13 0 -26 13l-10 11q-13 13 -13 26q0 12 13 27l47 48q-33 50 -33 114t32 113l-46 47q-13 15 -13 27q0 14 14 28l9 8q15 13 26 13q14 0 27 -13l46 -47
q46 33 111 33q68 0 111 -32l47 46q13 13 26 13q14 0 27 -13l8 -8q12 -13 12 -27t-12 -27l-45 -47q31 -48 31 -114q0 -65 -31 -114l46 -48q12 -14 12 -27q0 -14 -12 -26zM387 332q0 56 -30.5 87t-78.5 31t-79.5 -31.5t-31.5 -84.5q0 -56 31 -88t80 -32q48 0 78.5 31.5
t30.5 86.5z" />
    <glyph glyph-name="yen" unicode="&#xa5;" horiz-adv-x="702" 
d="M570 311h-103l-23 -39v-18h126q25 0 25 -24v-34q0 -25 -25 -25h-126v-137q0 -16 -9.5 -25t-23.5 -9h-119q-32 0 -32 34v137h-131q-25 0 -25 25v33q0 25 25 25h131v13l-26 44h-105q-25 0 -25 25v33q0 25 25 25h56l-131 224q-13 20 -13 31q0 10 6 18.5t18 8.5h148
q31 0 47 -30q26 -49 98 -198l23 47l35 68l44 83q16 30 46 30h135q9 0 15 -8.5t6 -18.5q0 -11 -13 -31l-133 -224h54q25 0 25 -24v-34q0 -25 -25 -25z" />
    <glyph glyph-name="brokenbar" unicode="&#xa6;" horiz-adv-x="299" 
d="M221 445q0 -34 -32 -34h-81q-30 0 -30 34v239q0 34 31 34h83q17 0 23 -8t6 -25v-240zM221 16q0 -34 -32 -34h-81q-30 0 -30 34v239q0 34 31 34h83q17 0 23 -8t6 -25v-240z" />
    <glyph glyph-name="section" unicode="&#xa7;" horiz-adv-x="560" 
d="M423 146q59 -36 59 -123q0 -91 -56 -138t-189 -47q-108 0 -171 20q-26 9 -26 32q0 48 17 94q7 17 26 17q1 0 33 -5q80 -15 117 -15q38 0 53 7.5t15 23.5q0 15 -7.5 23.5t-31.5 18.5l-85 36q-78 33 -109.5 66t-31.5 96q0 60 27 98t72 48q-53 34 -53 121q0 175 216 175
q99 0 154 -16q26 -7 26 -31q0 -39 -17 -94q-5 -17 -26 -17q-5 0 -33 6q-48 9 -100 9q-50 0 -50 -30q0 -13 10 -22.5t44 -23.5l74 -30q87 -35 113 -69.5t26 -99.5q0 -50 -27 -86t-69 -44zM359 256q0 19 -24 33q-42 22 -86 41q-13 5 -22 5q-7 0 -13 -3q-9 -4 -16 -17.5
t-7 -25.5q0 -22 32 -39q27 -13 83 -38q9 -4 22 -4q6 0 12 4q19 15 19 44z" />
    <glyph glyph-name="dieresis" unicode="&#xa8;" horiz-adv-x="197" 
d="M72 654q0 -77 -73 -77q-72 0 -72 76q0 77 72 77q73 0 73 -76zM270 654q0 -77 -73 -77q-72 0 -72 76q0 77 72 77q73 0 73 -76z" />
    <glyph glyph-name="copyright" unicode="&#xa9;" horiz-adv-x="830" 
d="M769 345q0 -155 -98 -257t-257 -102t-257 102t-98 257t98 257.5t256 102.5q163 0 259.5 -101.5t96.5 -258.5zM723 345q0 138 -84.5 227.5t-225.5 89.5q-138 0 -222.5 -90t-84.5 -227t84 -226.5t224 -89.5t224.5 89.5t84.5 226.5zM358 353q0 -74 20 -97t66 -23q40 0 76 9
q14 3 21 3q9 0 14 -12q14 -40 14 -61q0 -15 -16 -21q-53 -20 -146 -20q-91 0 -136.5 48t-45.5 166q0 121 47 174t158 53q69 0 111 -10q16 -4 16 -22q0 -36 -13 -67q-4 -10 -17 -10q-6 0 -24 4q-24 4 -53 4q-49 0 -70.5 -22t-21.5 -96z" />
    <glyph glyph-name="ordfeminine" unicode="&#xaa;" horiz-adv-x="373" 
d="M213 287q-29 -28 -74 -28q-61 0 -87.5 28t-26.5 73q0 52 35 76q31 21 107 21q9 0 41 -2v4q0 10 -2 15q-4 10 -39 10q-26 0 -66 -4q-14 -2 -24 -2q-15 0 -18 16q-6 17 -6 52q0 20 17 23q41 12 114 12q99 0 126 -25q23 -22 23 -77v-188q0 -27 -27 -27h-63q-28 0 -29 17z
M208 388q-11 1 -24 1q-23 0 -34 -7q-8 -6 -8 -19q0 -23 31 -23q19 0 27 6q4 3 6 9q2 7 2 23v10z" />
    <glyph glyph-name="guillemotleft" unicode="&#xab;" horiz-adv-x="583" 
d="M188 266l114 -156q9 -11 9 -26q0 -18 -19 -18h-84q-22 0 -40 21l-119 146q-14 18 -14 32q0 15 12 30l119 149q19 24 44 24h82q19 0 19 -16q0 -15 -10 -29zM421 266l114 -156q9 -11 9 -26q0 -18 -19 -18h-84q-22 0 -40 21l-119 146q-14 18 -14 32q0 15 12 30l119 149
q19 24 44 24h82q19 0 19 -16q0 -15 -10 -29z" />
    <glyph glyph-name="logicalnot" unicode="&#xac;" horiz-adv-x="701" 
d="M601 70q0 -35 -40 -35h-40q-40 0 -40 35v168h-365q-35 0 -35 40v34q0 40 35 40h445q40 0 40 -40v-242z" />
    <glyph glyph-name="uni00AD" unicode="&#xad;" horiz-adv-x="352" 
d="M287 196h-221q-34 0 -34 32v84q0 30 34 30h220q34 0 34 -31v-86q0 -17 -8 -23t-25 -6z" />
    <glyph glyph-name="registered" unicode="&#xae;" horiz-adv-x="830" 
d="M769 345q0 -155 -98 -257t-257 -102t-257 102t-98 257t98 257.5t256 102.5q163 0 259.5 -101.5t96.5 -258.5zM723 345q0 138 -84.5 227.5t-225.5 89.5q-138 0 -222.5 -90t-84.5 -227t84 -226.5t224 -89.5t224.5 89.5t84.5 226.5zM379 164q0 -11 -7.5 -18t-17.5 -7h-72
q-24 0 -24 28v374q0 30 28 30h101q99 0 140 -17q64 -25 64 -116q0 -86 -60 -118l77 -138q8 -14 8 -24q0 -19 -22 -19h-76q-23 0 -32 19l-66 139h-29h-12v-133zM379 389h18q31 0 46 5q24 7 24 37q0 33 -23 40q-17 5 -46 5h-19v-87z" />
    <glyph glyph-name="macron" unicode="&#xaf;" horiz-adv-x="197" 
d="M224 589h-247q-34 0 -34 32v54q0 30 34 30h246q34 0 34 -31v-56q0 -17 -8 -23t-25 -6z" />
    <glyph glyph-name="degree" unicode="&#xb0;" horiz-adv-x="336" 
d="M306 575q0 -65 -38 -101.5t-101 -36.5q-61 0 -98.5 36t-37.5 101t38.5 101.5t102.5 36.5q63 0 98.5 -35.5t35.5 -101.5zM249 574q0 87 -80 87q-38 0 -59.5 -23t-21.5 -66q0 -40 22 -62.5t60 -22.5q37 0 58 23t21 64z" />
    <glyph glyph-name="plusminus" unicode="&#xb1;" horiz-adv-x="701" 
d="M412 204q0 -36 -40 -36h-42q-40 0 -40 36v158h-164q-36 0 -36 40v35q0 40 36 40h163v156q0 36 40 36h43q40 0 40 -36v-156h163q36 0 36 -40v-35q0 -40 -36 -40h-163v-158zM611 40q0 -40 -36 -40h-449q-36 0 -36 40v35q0 40 36 40h449q36 0 36 -40v-35z" />
    <glyph glyph-name="twosuperior" unicode="&#xb2;" 
d="M342 420h-284q-9 0 -15 5.5t-6 11.5v53q0 16 15 25q64 42 130 97q41 33 41 82q0 30 -13.5 40.5t-45.5 10.5q-23 0 -63 -5q-15 -3 -25 -3q-12 0 -14 10q-8 38 -8 61q0 15 17 19q46 13 123 13q94 0 126.5 -33t32.5 -94q0 -76 -39 -115q-44 -44 -102 -79q38 1 130 1
q22 0 22 -20v-60q0 -20 -22 -20z" />
    <glyph glyph-name="threesuperior" unicode="&#xb3;" 
d="M253 639q52 -5 73.5 -29t21.5 -72q0 -63 -34 -94.5t-139 -31.5q-77 0 -117 10q-17 4 -17 19q0 23 11 61q4 13 17 13q2 0 6 -0.5t10 -1.5t9 -1q24 -4 74 -4q34 0 43 7t9 28q0 24 -11.5 31.5t-47.5 7.5h-21q-18 0 -18 22v52q0 9 5.5 16t12.5 7h22q27 0 35.5 7t8.5 26
q0 20 -9 26t-39 6q-35 0 -59 -3q-20 -4 -24 -4q-11 0 -15 11q-7 34 -7 62q0 15 17 19q40 11 118 11q49 0 78.5 -6.5t43 -23.5t17.5 -35.5t4 -52.5q0 -29 -19 -52t-59 -31z" />
    <glyph glyph-name="acute" unicode="&#xb4;" horiz-adv-x="197" 
d="M104 602q-24 -22 -53 -22h-51q-32 0 -32 23q0 14 11 28l80 108q20 27 50 27h88q33 0 33 -23q0 -14 -14 -28z" />
    <glyph glyph-name="mu" unicode="&#xb5;" horiz-adv-x="614" 
d="M249 9v-179q0 -16 -9 -25t-23 -9h-124q-30 0 -30 34v641q0 34 30 34h126q30 0 30 -34v-278q0 -21 3 -32q8 -24 45 -24q17 0 40 5q17 5 24 14q7 10 7 32v283q0 16 9 25t23 9h124q30 0 30 -34v-429q0 -42 -38 -42h-108q-19 0 -27 5.5t-10 19.5l-2 12q-27 -35 -83 -35
q-25 0 -37 7z" />
    <glyph glyph-name="paragraph" unicode="&#xb6;" horiz-adv-x="590" 
d="M334 -106q0 -22 -18 -22h-25q-19 0 -19 23v331q-125 0 -176 60t-51 165q0 57 13 100.5t44.5 80t90 55.5t143.5 19h136q34 0 34 -32v-779q0 -23 -19 -23h-24q-19 0 -19 23v749h-110v-750z" />
    <glyph glyph-name="periodcentered" unicode="&#xb7;" horiz-adv-x="269" 
d="M233 267q0 -100 -101 -100q-42 0 -69.5 22.5t-27.5 76.5q0 103 100 103q45 0 71.5 -22.5t26.5 -79.5z" />
    <glyph glyph-name="cedilla" unicode="&#xb8;" horiz-adv-x="197" 
d="M129 -43q30 -1 49 -10.5t26.5 -27t9.5 -32t2 -38.5q0 -110 -155 -110q-31 0 -50 4q-29 6 -29 31q0 20 4 35q4 16 10.5 20.5t20.5 4.5q4 0 28 -3q8 -1 26 -1q14 0 19 4t5 17q0 23 -17 23q-4 0 -12.5 -0.5t-11.5 -0.5q-25 1 -25 22q0 6 6 34l17 81h86z" />
    <glyph glyph-name="onesuperior" unicode="&#xb9;" 
d="M168 720l-41 -18q-7 -4 -15 -4t-14 11q-23 54 -23 65q0 9 11 14l88 39q12 5 33 5h67q21 0 21 -21v-369q0 -22 -23 -22h-83q-21 0 -21 22v278z" />
    <glyph glyph-name="ordmasculine" unicode="&#xba;" horiz-adv-x="378" 
d="M354 421q0 -93 -40.5 -129t-126.5 -36q-84 0 -123.5 35t-39.5 128t43.5 127.5t122.5 34.5q86 0 125 -32t39 -128zM227 418q0 43 -6.5 55t-30.5 12q-22 0 -30.5 -13t-8.5 -53q0 -41 8 -55t30 -14q23 0 30.5 13t7.5 55z" />
    <glyph glyph-name="guillemotright" unicode="&#xbb;" horiz-adv-x="583" 
d="M395 268l-114 156q-9 11 -9 26q0 18 19 18h84q22 0 40 -21l119 -146q14 -18 14 -32q0 -15 -12 -30l-119 -149q-19 -24 -44 -24h-82q-19 0 -19 16q0 15 10 29zM162 268l-114 156q-9 11 -9 26q0 18 19 18h84q22 0 40 -21l119 -146q14 -18 14 -32q0 -15 -12 -30l-119 -149
q-19 -24 -44 -24h-82q-19 0 -19 16q0 15 10 29z" />
    <glyph glyph-name="onequarter" unicode="&#xbc;" horiz-adv-x="892" 
d="M284 -13q-10 -19 -28 -19h-29q-16 0 -16 14q0 8 6 20l331 687q11 22 26 22h37q13 0 13 -14q0 -5 -8 -23zM169 564l-41 -18q-7 -4 -15 -4q-9 0 -14 11q-23 54 -23 65q0 9 11 14l88 39q12 5 33 5h67q21 0 21 -21v-369q0 -22 -23 -22h-83q-21 0 -21 22v278zM755 22
q0 -22 -22 -22h-75q-21 0 -21 22v57h-170q-25 0 -25 20v50q0 19 10 33l137 213q12 17 32 17h84q14 0 14 -12q0 -8 -5 -17q-69 -110 -136 -205h59v45q0 23 22 23h75q21 0 21 -21v-47h19q25 0 25 -20v-61q0 -18 -25 -18h-19v-57z" />
    <glyph glyph-name="onehalf" unicode="&#xbd;" horiz-adv-x="892" 
d="M270 -13q-10 -19 -28 -19h-29q-16 0 -16 14q0 8 6 20l331 687q11 22 26 22h37q13 0 13 -14q0 -5 -8 -23zM160 564l-41 -18q-7 -4 -15 -4t-14 11q-23 54 -23 65q0 9 11 14l88 39q12 5 33 5h67q21 0 21 -21v-369q0 -22 -23 -22h-83q-21 0 -21 22v278zM794 0h-284
q-9 0 -15 5.5t-6 11.5v53q0 16 15 25q64 42 130 97q41 33 41 82q0 30 -13.5 40.5t-45.5 10.5q-23 0 -63 -5q-15 -3 -25 -3q-12 0 -14 10q-8 38 -8 61q0 15 17 19q46 13 123 13q94 0 126.5 -33t32.5 -94q0 -76 -39 -115q-44 -44 -102 -79q38 1 130 1q22 0 22 -20v-60
q0 -20 -22 -20z" />
    <glyph glyph-name="threequarters" unicode="&#xbe;" horiz-adv-x="892" 
d="M337 -13q-10 -19 -28 -19h-29q-16 0 -16 14q0 8 6 20l331 687q11 22 26 22h37q13 0 13 -14q0 -5 -8 -23zM284 483q52 -5 73.5 -29t21.5 -72q0 -63 -34 -94.5t-139 -31.5q-77 0 -117 10q-17 4 -17 19q0 23 11 61q4 13 17 13q2 0 6 -0.5t10 -1.5t9 -1q24 -4 74 -4
q34 0 43 7t9 28q0 24 -11.5 31.5t-47.5 7.5h-21q-18 0 -18 22v52q0 9 5.5 16t12.5 7h22q27 0 35.5 7t8.5 26q0 20 -9 26t-39 6q-35 0 -59 -3q-20 -4 -24 -4q-11 0 -15 11q-7 34 -7 62q0 15 17 19q40 11 118 11q49 0 78.5 -6.5t43 -23.5t17.5 -35.5t4 -52.5q0 -29 -19 -52
t-59 -31zM803 22q0 -22 -22 -22h-75q-21 0 -21 22v57h-170q-25 0 -25 20v50q0 19 10 33l137 213q12 17 32 17h84q14 0 14 -12q0 -8 -5 -17q-69 -110 -136 -205h59v45q0 23 22 23h75q21 0 21 -21v-47h19q25 0 25 -20v-61q0 -18 -25 -18h-19v-57z" />
    <glyph glyph-name="questiondown" unicode="&#xbf;" horiz-adv-x="486" 
d="M227 248h66q34 0 41 -21q4 -12 4 -42q0 -27 -6 -43t-29 -35q-46 -39 -63.5 -62.5t-17.5 -48.5q0 -29 15 -44.5t55 -15.5q39 0 66 4q32 4 38 4q32 0 40 -32t8 -64q-1 -37 -37 -46q-56 -15 -147 -15q-132 0 -182.5 39.5t-50.5 135.5q0 56 19.5 92t86.5 78q50 31 56 66
q1 2 2.5 15.5t3.5 18.5q6 16 32 16zM164 420q0 100 101 100q42 0 69.5 -22.5t27.5 -76.5q0 -103 -100 -103q-45 0 -71.5 22.5t-26.5 79.5z" />
    <glyph glyph-name="Agrave" unicode="&#xc0;" horiz-adv-x="694" 
d="M250 159l-38 -120q-7 -21 -16 -30t-27 -9h-129q-34 0 -34 25q0 12 7 31l222 617q11 33 48 33h131q33 0 45 -33l222 -617q7 -19 7 -31q0 -25 -34 -25h-127q-18 0 -28 9t-17 30l-38 120h-194zM298 313h100q-23 76 -49 176q-4 -13 -19.5 -69t-31.5 -107zM313 773l-146 95
q-18 11 -18 30q0 20 31 20h103q32 0 58 -23l103 -90q16 -15 16 -30q0 -18 -26 -18h-66q-28 0 -55 16z" />
    <glyph glyph-name="Aacute" unicode="&#xc1;" horiz-adv-x="694" 
d="M250 159l-38 -120q-7 -21 -16 -30t-27 -9h-129q-34 0 -34 25q0 12 7 31l222 617q11 33 48 33h131q33 0 45 -33l222 -617q7 -19 7 -31q0 -25 -34 -25h-127q-18 0 -28 9t-17 30l-38 120h-194zM298 313h100q-23 76 -49 176q-4 -13 -19.5 -69t-31.5 -107zM380 764
q-27 -16 -55 -16h-66q-26 0 -26 18q0 15 16 30l103 90q26 23 58 23h103q31 0 31 -20q0 -19 -18 -30z" />
    <glyph glyph-name="Acircumflex" unicode="&#xc2;" horiz-adv-x="694" 
d="M250 159l-38 -120q-7 -21 -16 -30t-27 -9h-129q-34 0 -34 25q0 12 7 31l222 617q11 33 48 33h131q33 0 45 -33l222 -617q7 -19 7 -31q0 -25 -34 -25h-127q-18 0 -28 9t-17 30l-38 120h-194zM298 313h100q-23 76 -49 176q-4 -13 -19.5 -69t-31.5 -107zM239 757h-49
q-36 0 -36 24q0 12 12 25l94 99q31 33 62 33h61q31 0 57 -29l94 -103q12 -12 12 -25q0 -24 -36 -24h-51q-30 0 -53 23l-56 54l-59 -55q-22 -22 -52 -22z" />
    <glyph glyph-name="Atilde" unicode="&#xc3;" horiz-adv-x="694" 
d="M250 159l-38 -120q-7 -21 -16 -30t-27 -9h-129q-34 0 -34 25q0 12 7 31l222 617q11 33 48 33h131q33 0 45 -33l222 -617q7 -19 7 -31q0 -25 -34 -25h-127q-18 0 -28 9t-17 30l-38 120h-194zM298 313h100q-23 76 -49 176q-4 -13 -19.5 -69t-31.5 -107zM228 750h-32
q-30 0 -30 28q0 9 7 28q35 106 107 106q32 0 76 -23q32 -17 52 -17q25 0 38 22t39 22h25q30 0 30 -27q0 -15 -9 -37q-38 -95 -102 -95q-34 0 -86 26q-28 14 -45 14q-22 0 -33 -19q-16 -28 -37 -28z" />
    <glyph glyph-name="Adieresis" unicode="&#xc4;" horiz-adv-x="694" 
d="M250 159l-38 -120q-7 -21 -16 -30t-27 -9h-129q-34 0 -34 25q0 12 7 31l222 617q11 33 48 33h131q33 0 45 -33l222 -617q7 -19 7 -31q0 -25 -34 -25h-127q-18 0 -28 9t-17 30l-38 120h-194zM298 313h100q-23 76 -49 176q-4 -13 -19.5 -69t-31.5 -107zM326 834
q0 -77 -73 -77q-72 0 -72 76q0 77 72 77q73 0 73 -76zM534 834q0 -77 -73 -77q-72 0 -72 76q0 77 72 77q73 0 73 -76z" />
    <glyph glyph-name="Aring" unicode="&#xc5;" horiz-adv-x="694" 
d="M250 159l-38 -120q-7 -21 -16 -30t-27 -9h-129q-34 0 -34 25q0 12 7 31l222 617q11 33 48 33h131q33 0 45 -33l222 -617q7 -19 7 -31q0 -25 -34 -25h-127q-18 0 -28 9t-17 30l-38 120h-194zM298 313h100q-23 76 -49 176q-4 -13 -19.5 -69t-31.5 -107zM445 833
q0 -46 -26.5 -71t-71.5 -25q-43 0 -68 25t-25 71q0 47 26 73t70 26q45 0 70 -26t25 -73zM398 835q0 55 -50 55q-22 0 -36 -14.5t-14 -41.5q0 -26 13.5 -40.5t37.5 -14.5q49 0 49 56z" />
    <glyph glyph-name="AE" unicode="&#xc6;" horiz-adv-x="1009" 
d="M300 159l-67 -120q-12 -21 -23.5 -30t-29.5 -9h-146q-32 0 -32 20q0 9 16 36l358 617q19 33 57 33h502q18 0 26 -7.5t8 -25.5v-99q0 -28 -34 -28h-236v-102h215q18 0 26 -7.5t8 -25.5v-99q0 -28 -34 -28h-215v-124h255q18 0 26 -7.5t8 -25.5v-99q0 -28 -34 -28h-413
q-34 0 -34 35v124h-207zM386 313h121v228q-56 -112 -121 -228z" />
    <glyph glyph-name="Ccedilla" unicode="&#xc7;" horiz-adv-x="588" 
d="M350 -46q31 -1 51 -11t28 -28.5t10 -33.5t2 -40q0 -115 -162 -115q-33 0 -52 4q-30 6 -30 33q0 21 4 36q4 17 10.5 22t21.5 5q4 0 16 -2t13 -2q9 -1 27 -1q14 0 20 4.5t6 17.5q0 24 -18 24q-4 0 -13 -0.5t-12 -0.5q-26 1 -26 23q0 15 5 35l14 65q-115 11 -173 92t-58 261
q0 202 71 290t243 88q112 0 172 -17q26 -7 26 -31q0 -42 -21 -99q-7 -17 -22 -17q-4 0 -8.5 1t-12 2t-12.5 2q-39 7 -91 7q-39 0 -64 -7.5t-46 -29.5t-30 -64.5t-9 -110.5q0 -90 16.5 -138.5t45 -64t78.5 -15.5q55 0 115 15q23 5 33 5q14 0 20 -14q26 -69 26 -94
q0 -21 -24 -30q-74 -29 -185 -32z" />
    <glyph glyph-name="Egrave" unicode="&#xc8;" horiz-adv-x="572" 
d="M517 0h-413q-34 0 -34 35v632q0 39 34 39h394q18 0 26 -7.5t8 -25.5v-99q0 -28 -34 -28h-236v-102h215q18 0 26 -7.5t8 -25.5v-99q0 -28 -34 -28h-215v-124h255q18 0 26 -7.5t8 -25.5v-99q0 -28 -34 -28zM269 773l-146 95q-18 11 -18 30q0 20 31 20h103q32 0 58 -23
l103 -90q16 -15 16 -30q0 -18 -26 -18h-66q-28 0 -55 16z" />
    <glyph glyph-name="Eacute" unicode="&#xc9;" horiz-adv-x="572" 
d="M517 0h-413q-34 0 -34 35v632q0 39 34 39h394q18 0 26 -7.5t8 -25.5v-99q0 -28 -34 -28h-236v-102h215q18 0 26 -7.5t8 -25.5v-99q0 -28 -34 -28h-215v-124h255q18 0 26 -7.5t8 -25.5v-99q0 -28 -34 -28zM327 764q-27 -16 -55 -16h-66q-26 0 -26 18q0 15 16 30l103 90
q26 23 58 23h103q31 0 31 -20q0 -19 -18 -30z" />
    <glyph glyph-name="Ecircumflex" unicode="&#xca;" horiz-adv-x="572" 
d="M517 0h-413q-34 0 -34 35v632q0 39 34 39h394q18 0 26 -7.5t8 -25.5v-99q0 -28 -34 -28h-236v-102h215q18 0 26 -7.5t8 -25.5v-99q0 -28 -34 -28h-215v-124h255q18 0 26 -7.5t8 -25.5v-99q0 -28 -34 -28zM194 757h-49q-36 0 -36 24q0 12 12 25l94 99q31 33 62 33h61
q31 0 57 -29l94 -103q12 -12 12 -25q0 -24 -36 -24h-51q-30 0 -53 23l-56 54l-59 -55q-22 -22 -52 -22z" />
    <glyph glyph-name="Edieresis" unicode="&#xcb;" horiz-adv-x="572" 
d="M517 0h-413q-34 0 -34 35v632q0 39 34 39h394q18 0 26 -7.5t8 -25.5v-99q0 -28 -34 -28h-236v-102h215q18 0 26 -7.5t8 -25.5v-99q0 -28 -34 -28h-215v-124h255q18 0 26 -7.5t8 -25.5v-99q0 -28 -34 -28zM271 834q0 -77 -73 -77q-72 0 -72 76q0 77 72 77q73 0 73 -76z
M479 834q0 -77 -73 -77q-72 0 -72 76q0 77 72 77q73 0 73 -76z" />
    <glyph glyph-name="Igrave" unicode="&#xcc;" horiz-adv-x="332" 
d="M262 36q0 -17 -10 -26.5t-25 -9.5h-124q-33 0 -33 36v634q0 36 34 36h126q32 0 32 -35v-635zM132 773l-146 95q-18 11 -18 30q0 20 31 20h103q32 0 58 -23l103 -90q16 -15 16 -30q0 -18 -26 -18h-66q-28 0 -55 16z" />
    <glyph glyph-name="Iacute" unicode="&#xcd;" horiz-adv-x="332" 
d="M262 36q0 -17 -10 -26.5t-25 -9.5h-124q-33 0 -33 36v634q0 36 34 36h126q32 0 32 -35v-635zM201 773q-27 -16 -55 -16h-66q-26 0 -26 18q0 15 16 30l103 90q26 23 58 23h103q31 0 31 -20q0 -19 -18 -30z" />
    <glyph glyph-name="Icircumflex" unicode="&#xce;" horiz-adv-x="332" 
d="M262 36q0 -17 -10 -26.5t-25 -9.5h-124q-33 0 -33 36v634q0 36 34 36h126q32 0 32 -35v-635zM55 757h-49q-36 0 -36 24q0 12 12 25l94 99q31 33 62 33h61q31 0 57 -29l94 -103q12 -12 12 -25q0 -24 -36 -24h-51q-30 0 -53 23l-56 54l-59 -55q-22 -22 -52 -22z" />
    <glyph glyph-name="Idieresis" unicode="&#xcf;" horiz-adv-x="332" 
d="M262 36q0 -17 -10 -26.5t-25 -9.5h-124q-33 0 -33 36v634q0 36 34 36h126q32 0 32 -35v-635zM134 834q0 -77 -73 -77q-72 0 -72 76q0 77 72 77q73 0 73 -76zM342 834q0 -77 -73 -77q-72 0 -72 76q0 77 72 77q73 0 73 -76z" />
    <glyph glyph-name="Eth" unicode="&#xd0;" horiz-adv-x="692" 
d="M273 0h-171q-32 0 -32 36v258h-29q-34 0 -34 32v75q0 30 34 30h29v238q0 37 32 37h187q131 0 195 -19q90 -26 132 -106.5t42 -220.5q0 -142 -38 -220.5t-137 -115.5q-66 -24 -210 -24zM262 160h40q70 0 97 14q36 20 48.5 59.5t12.5 125.5q0 85 -13 121.5t-50 52.5
q-32 14 -96 14h-39v-116h81q34 0 34 -31v-77q0 -17 -8 -23t-25 -6h-82v-134z" />
    <glyph glyph-name="Ntilde" unicode="&#xd1;" horiz-adv-x="716" 
d="M256 36q0 -17 -10 -26.5t-25 -9.5h-118q-33 0 -33 36v634q0 36 34 36h111q29 0 45 -26q187 -303 201 -328q-1 102 -1 316q0 38 34 38h120q32 0 32 -35v-635q0 -17 -10 -26.5t-25 -9.5h-98q-20 0 -31 5.5t-22 21.5q-156 250 -205 335q1 -52 1 -326zM239 750h-32
q-30 0 -30 28q0 9 7 28q35 106 107 106q32 0 76 -23q32 -17 52 -17q25 0 38 22t39 22h25q30 0 30 -27q0 -15 -9 -37q-38 -95 -102 -95q-34 0 -86 26q-28 14 -45 14q-22 0 -33 -19q-16 -28 -37 -28z" />
    <glyph glyph-name="Ograve" unicode="&#xd2;" horiz-adv-x="705" 
d="M671 358q0 -109 -19 -181.5t-60.5 -114t-99.5 -58.5t-144 -17q-83 0 -139 16.5t-97 58t-59.5 114t-18.5 181.5q0 88 16.5 152.5t43.5 104.5t69.5 64t88.5 33t105 9q56 0 97 -5.5t78 -20t61.5 -40t42.5 -65.5t26.5 -97t8.5 -134zM473 355q0 90 -12.5 136t-37 61.5
t-71.5 15.5q-42 0 -67 -16t-40 -63.5t-15 -132.5q0 -90 14.5 -138.5t39 -64t67.5 -15.5q42 0 66.5 14.5t40 63.5t15.5 139zM321 773l-146 95q-18 11 -18 30q0 20 31 20h103q32 0 58 -23l103 -90q16 -15 16 -30q0 -18 -26 -18h-66q-28 0 -55 16z" />
    <glyph glyph-name="Oacute" unicode="&#xd3;" horiz-adv-x="705" 
d="M671 358q0 -109 -19 -181.5t-60.5 -114t-99.5 -58.5t-144 -17q-83 0 -139 16.5t-97 58t-59.5 114t-18.5 181.5q0 88 16.5 152.5t43.5 104.5t69.5 64t88.5 33t105 9q56 0 97 -5.5t78 -20t61.5 -40t42.5 -65.5t26.5 -97t8.5 -134zM473 355q0 90 -12.5 136t-37 61.5
t-71.5 15.5q-42 0 -67 -16t-40 -63.5t-15 -132.5q0 -90 14.5 -138.5t39 -64t67.5 -15.5q42 0 66.5 14.5t40 63.5t15.5 139zM386 773q-27 -16 -55 -16h-66q-26 0 -26 18q0 15 16 30l103 90q26 23 58 23h103q31 0 31 -20q0 -19 -18 -30z" />
    <glyph glyph-name="Ocircumflex" unicode="&#xd4;" horiz-adv-x="705" 
d="M671 358q0 -109 -19 -181.5t-60.5 -114t-99.5 -58.5t-144 -17q-83 0 -139 16.5t-97 58t-59.5 114t-18.5 181.5q0 88 16.5 152.5t43.5 104.5t69.5 64t88.5 33t105 9q56 0 97 -5.5t78 -20t61.5 -40t42.5 -65.5t26.5 -97t8.5 -134zM473 355q0 90 -12.5 136t-37 61.5
t-71.5 15.5q-42 0 -67 -16t-40 -63.5t-15 -132.5q0 -90 14.5 -138.5t39 -64t67.5 -15.5q42 0 66.5 14.5t40 63.5t15.5 139zM243 757h-49q-36 0 -36 24q0 12 12 25l94 99q31 33 62 33h61q31 0 57 -29l94 -103q12 -12 12 -25q0 -24 -36 -24h-51q-30 0 -53 23l-56 54l-59 -55
q-22 -22 -52 -22z" />
    <glyph glyph-name="Otilde" unicode="&#xd5;" horiz-adv-x="705" 
d="M671 358q0 -109 -19 -181.5t-60.5 -114t-99.5 -58.5t-144 -17q-83 0 -139 16.5t-97 58t-59.5 114t-18.5 181.5q0 88 16.5 152.5t43.5 104.5t69.5 64t88.5 33t105 9q56 0 97 -5.5t78 -20t61.5 -40t42.5 -65.5t26.5 -97t8.5 -134zM473 355q0 90 -12.5 136t-37 61.5
t-71.5 15.5q-42 0 -67 -16t-40 -63.5t-15 -132.5q0 -90 14.5 -138.5t39 -64t67.5 -15.5q42 0 66.5 14.5t40 63.5t15.5 139zM228 750h-32q-30 0 -30 28q0 9 7 28q35 106 107 106q32 0 76 -23q32 -17 52 -17q25 0 38 22t39 22h25q30 0 30 -27q0 -15 -9 -37q-38 -95 -102 -95
q-34 0 -86 26q-28 14 -45 14q-22 0 -33 -19q-16 -28 -37 -28z" />
    <glyph glyph-name="Odieresis" unicode="&#xd6;" horiz-adv-x="705" 
d="M671 358q0 -109 -19 -181.5t-60.5 -114t-99.5 -58.5t-144 -17q-83 0 -139 16.5t-97 58t-59.5 114t-18.5 181.5q0 88 16.5 152.5t43.5 104.5t69.5 64t88.5 33t105 9q56 0 97 -5.5t78 -20t61.5 -40t42.5 -65.5t26.5 -97t8.5 -134zM473 355q0 90 -12.5 136t-37 61.5
t-71.5 15.5q-42 0 -67 -16t-40 -63.5t-15 -132.5q0 -90 14.5 -138.5t39 -64t67.5 -15.5q42 0 66.5 14.5t40 63.5t15.5 139zM324 834q0 -77 -73 -77q-72 0 -72 76q0 77 72 77q73 0 73 -76zM532 834q0 -77 -73 -77q-72 0 -72 76q0 77 72 77q73 0 73 -76z" />
    <glyph glyph-name="multiply" unicode="&#xd7;" horiz-adv-x="701" 
d="M558 174q13 -13 13 -28q0 -16 -13 -29l-27 -27q-15 -15 -29 -15t-28 14l-125 122l-122 -124q-14 -14 -28 -14t-28 14l-27 27q-14 14 -14 28t14 28l123 126l-127 126q-14 14 -14 28t14 28l30 30q13 13 27 13q15 0 29 -14l124 -127l128 127q13 13 28 13t29 -14l26 -27
q13 -14 13 -29t-13 -28l-127 -126z" />
    <glyph glyph-name="Oslash" unicode="&#xd8;" horiz-adv-x="705" 
d="M112 -24q-9 -11 -16 -11q-9 0 -42 25q-7 6 -7 12q0 7 8 18l42 58q-63 86 -63 279q0 88 16.5 152.5t43.5 104.5t69.5 64t88.5 33t105 9q122 0 185 -30l40 55q6 9 15 9q7 0 14 -5q33 -21 33 -32q0 -7 -6 -15l-39 -54q72 -79 72 -290q0 -109 -19 -181.5t-60.5 -114
t-99.5 -58.5t-144 -17q-128 0 -197 42zM473 355q0 69 -7 110l-207 -286q26 -41 92 -41q42 0 66.5 14.5t40 63.5t15.5 139zM230 356q0 -56 4 -89l201 276q-25 25 -83 25q-42 0 -67 -16t-40 -63.5t-15 -132.5z" />
    <glyph glyph-name="Ugrave" unicode="&#xd9;" horiz-adv-x="706" 
d="M643 673v-391q0 -147 -32 -198q-62 -98 -268 -98q-209 0 -256 103q-24 53 -24 191v392q0 14 9 24t24 10h130q29 0 29 -33v-426q0 -61 19 -84q20 -25 80 -25q65 0 86 23t21 85v426q0 14 9 24t24 10h120q29 0 29 -33zM320 773l-146 95q-18 11 -18 30q0 20 31 20h103
q32 0 58 -23l103 -90q16 -15 16 -30q0 -18 -26 -18h-66q-28 0 -55 16z" />
    <glyph glyph-name="Uacute" unicode="&#xda;" horiz-adv-x="706" 
d="M643 673v-391q0 -147 -32 -198q-62 -98 -268 -98q-209 0 -256 103q-24 53 -24 191v392q0 14 9 24t24 10h130q29 0 29 -33v-426q0 -61 19 -84q20 -25 80 -25q65 0 86 23t21 85v426q0 14 9 24t24 10h120q29 0 29 -33zM397 773q-27 -16 -55 -16h-66q-26 0 -26 18q0 15 16 30
l103 90q26 23 58 23h103q31 0 31 -20q0 -19 -18 -30z" />
    <glyph glyph-name="Ucircumflex" unicode="&#xdb;" horiz-adv-x="706" 
d="M643 673v-391q0 -147 -32 -198q-62 -98 -268 -98q-209 0 -256 103q-24 53 -24 191v392q0 14 9 24t24 10h130q29 0 29 -33v-426q0 -61 19 -84q20 -25 80 -25q65 0 86 23t21 85v426q0 14 9 24t24 10h120q29 0 29 -33zM251 757h-49q-36 0 -36 24q0 12 12 25l94 99
q31 33 62 33h61q31 0 57 -29l94 -103q12 -12 12 -25q0 -24 -36 -24h-51q-30 0 -53 23l-56 54l-59 -55q-22 -22 -52 -22z" />
    <glyph glyph-name="Udieresis" unicode="&#xdc;" horiz-adv-x="706" 
d="M643 673v-391q0 -147 -32 -198q-62 -98 -268 -98q-209 0 -256 103q-24 53 -24 191v392q0 14 9 24t24 10h130q29 0 29 -33v-426q0 -61 19 -84q20 -25 80 -25q65 0 86 23t21 85v426q0 14 9 24t24 10h120q29 0 29 -33zM330 834q0 -77 -73 -77q-72 0 -72 76q0 77 72 77
q73 0 73 -76zM538 834q0 -77 -73 -77q-72 0 -72 76q0 77 72 77q73 0 73 -76z" />
    <glyph glyph-name="Yacute" unicode="&#xdd;" horiz-adv-x="662" 
d="M428 36q0 -17 -10 -26.5t-25 -9.5h-124q-33 0 -33 36v247l-215 362q-14 24 -14 33q0 11 6.5 19.5t19.5 8.5h154q32 0 49 -31q61 -116 102 -202l106 202q17 31 48 31h141q10 0 16.5 -9t6.5 -19q0 -9 -14 -33l-214 -357v-252zM380 764q-27 -16 -55 -16h-66q-26 0 -26 18
q0 15 16 30l103 90q26 23 58 23h103q31 0 31 -20q0 -19 -18 -30z" />
    <glyph glyph-name="Thorn" unicode="&#xde;" horiz-adv-x="648" 
d="M262 141v-105q0 -17 -10 -26.5t-25 -9.5h-124q-33 0 -33 36v634q0 36 34 36h126q32 0 32 -35v-85h27q161 0 225 -27q101 -41 101 -191q0 -77 -28 -130t-107 -77q-66 -20 -184 -20h-34zM262 285h41q50 0 75 8q41 14 41 64q0 58 -38 71q-22 7 -77 7h-42v-150z" />
    <glyph glyph-name="germandbls" unicode="&#xdf;" horiz-adv-x="603" 
d="M244 31q0 -12 -8 -21.5t-22 -9.5h-128q-14 0 -21 9.5t-7 22.5v418q0 116 18 160q22 55 73.5 84.5t169.5 29.5q121 0 170 -43t49 -124q0 -77 -24 -113.5t-85 -52.5q85 -9 115.5 -54.5t30.5 -138.5q0 -119 -51.5 -162.5t-160.5 -43.5q-47 0 -73 9q-15 5 -15 26q0 59 9 90
q6 18 22 18q11 0 18 -1q10 -1 28 -1t28 17t10 70q0 51 -18.5 65t-58.5 14h-10q-12 0 -19.5 8t-7.5 21v88q0 35 29 35h8q23 0 31.5 17t8.5 59q0 36 -11 51t-35 15q-42 0 -55 -29q-8 -17 -8 -79v-454z" />
    <glyph glyph-name="agrave" unicode="&#xe0;" horiz-adv-x="560" 
d="M330 38q-46 -46 -124 -46q-174 0 -174 166q0 87 55 127q46 34 164 34q33 0 72 -3v7q0 14 -4 25q-8 19 -66 19q-46 0 -100 -7q-33 -3 -39 -3q-22 0 -29 26q-9 34 -9 80q0 30 27 37q64 19 174 19q152 0 193 -41q37 -36 37 -125v-308q0 -45 -43 -45h-87q-24 0 -34 6t-12 22z
M323 203q-18 2 -46 2q-41 0 -58 -11q-12 -9 -12 -32q0 -38 49 -38q38 0 54 11q8 4 11 15q2 9 2 32v21zM234 602l-112 113q-14 14 -14 28q0 23 33 23h88q31 0 50 -27l80 -108q11 -14 11 -28q0 -23 -32 -23h-46q-34 0 -58 22z" />
    <glyph glyph-name="aacute" unicode="&#xe1;" horiz-adv-x="560" 
d="M330 38q-46 -46 -124 -46q-174 0 -174 166q0 87 55 127q46 34 164 34q33 0 72 -3v7q0 14 -4 25q-8 19 -66 19q-46 0 -100 -7q-33 -3 -39 -3q-22 0 -29 26q-9 34 -9 80q0 30 27 37q64 19 174 19q152 0 193 -41q37 -36 37 -125v-308q0 -45 -43 -45h-87q-24 0 -34 6t-12 22z
M323 203q-18 2 -46 2q-41 0 -58 -11q-12 -9 -12 -32q0 -38 49 -38q38 0 54 11q8 4 11 15q2 9 2 32v21zM336 602q-24 -22 -53 -22h-51q-32 0 -32 23q0 14 11 28l80 108q19 27 50 27h88q33 0 33 -23q0 -14 -14 -28z" />
    <glyph glyph-name="acircumflex" unicode="&#xe2;" horiz-adv-x="560" 
d="M330 38q-46 -46 -124 -46q-174 0 -174 166q0 87 55 127q46 34 164 34q33 0 72 -3v7q0 14 -4 25q-8 19 -66 19q-46 0 -100 -7q-33 -3 -39 -3q-22 0 -29 26q-9 34 -9 80q0 30 27 37q64 19 174 19q152 0 193 -41q37 -36 37 -125v-308q0 -45 -43 -45h-87q-24 0 -34 6t-12 22z
M323 203q-18 2 -46 2q-41 0 -58 -11q-12 -9 -12 -32q0 -38 49 -38q38 0 54 11q8 4 11 15q2 9 2 32v21zM187 580h-47q-32 0 -32 24q0 11 11 25l77 104q25 33 48 33h73q24 0 49 -33l76 -104q10 -13 10 -25q0 -24 -31 -24h-49q-27 0 -46 23l-46 54l-47 -55q-19 -22 -46 -22z
" />
    <glyph glyph-name="atilde" unicode="&#xe3;" horiz-adv-x="560" 
d="M330 38q-46 -46 -124 -46q-174 0 -174 166q0 87 55 127q46 34 164 34q33 0 72 -3v7q0 14 -4 25q-8 19 -66 19q-46 0 -100 -7q-33 -3 -39 -3q-22 0 -29 26q-9 34 -9 80q0 30 27 37q64 19 174 19q152 0 193 -41q37 -36 37 -125v-308q0 -45 -43 -45h-87q-24 0 -34 6t-12 22z
M323 203q-18 2 -46 2q-41 0 -58 -11q-12 -9 -12 -32q0 -38 49 -38q38 0 54 11q8 4 11 15q2 9 2 32v21zM160 576h-32q-29 0 -29 26q0 10 7 31q16 48 42 76.5t60 28.5q28 0 72 -24q28 -16 50 -16q21 0 32 22q10 22 38 22h27q29 0 29 -27q0 -12 -13 -47q-30 -85 -93 -85
q-40 0 -83 26q-24 14 -40 14q-21 0 -32 -19q-6 -11 -9.5 -15.5t-10 -8.5t-15.5 -4z" />
    <glyph glyph-name="adieresis" unicode="&#xe4;" horiz-adv-x="560" 
d="M330 38q-46 -46 -124 -46q-174 0 -174 166q0 87 55 127q46 34 164 34q33 0 72 -3v7q0 14 -4 25q-8 19 -66 19q-46 0 -100 -7q-33 -3 -39 -3q-22 0 -29 26q-9 34 -9 80q0 30 27 37q64 19 174 19q152 0 193 -41q37 -36 37 -125v-308q0 -45 -43 -45h-87q-24 0 -34 6t-12 22z
M323 203q-18 2 -46 2q-41 0 -58 -11q-12 -9 -12 -32q0 -38 49 -38q38 0 54 11q8 4 11 15q2 9 2 32v21zM258 653q0 -77 -73 -77q-72 0 -72 76q0 77 72 77q73 0 73 -76zM456 653q0 -77 -73 -77q-72 0 -72 76q0 77 72 77q73 0 73 -76z" />
    <glyph glyph-name="aring" unicode="&#xe5;" horiz-adv-x="560" 
d="M330 38q-46 -46 -124 -46q-174 0 -174 166q0 87 55 127q46 34 164 34q33 0 72 -3v7q0 14 -4 25q-8 19 -66 19q-46 0 -100 -7q-33 -3 -39 -3q-22 0 -29 26q-9 34 -9 80q0 30 27 37q64 19 174 19q152 0 193 -41q37 -36 37 -125v-308q0 -45 -43 -45h-87q-24 0 -34 6t-12 22z
M323 203q-18 2 -46 2q-41 0 -58 -11q-12 -9 -12 -32q0 -38 49 -38q38 0 54 11q8 4 11 15q2 9 2 32v21zM388 670q0 -48 -28.5 -73.5t-75.5 -25.5q-45 0 -72 25.5t-27 73.5t28 75t74 27q47 0 74 -27t27 -75zM339 672q0 58 -54 58q-24 0 -39 -15.5t-15 -43.5t14.5 -43t40.5 -15
q53 0 53 59z" />
    <glyph glyph-name="ae" unicode="&#xe6;" horiz-adv-x="818" 
d="M500 205q1 -41 22.5 -56.5t61.5 -15.5q75 0 127 16q13 5 29 5q20 0 26 -21q16 -59 16 -81q0 -21 -17 -30q-64 -35 -199 -35q-129 0 -182 57q-60 -52 -174 -52q-99 0 -138.5 44.5t-39.5 121.5q0 93 55 128q54 34 164 34q45 0 72 -2v8q0 11 -4 22q-8 19 -66 19
q-46 0 -100 -7q-33 -3 -39 -3q-22 0 -29 26q-9 34 -9 80q0 30 27 37q64 19 173 19q122 0 157 -43q20 19 59 31t72 12q51 0 88.5 -8t62 -26t40 -39t22.5 -55.5t9.5 -66t2.5 -79.5q0 -25 -14 -34q-9 -6 -25 -6h-250zM323 203q-18 2 -46 2q-41 0 -58 -11q-12 -9 -12 -29
q0 -41 49 -41q59 0 77 12q-7 20 -10 67zM503 319h120q1 4 1 15q0 32 -12.5 48.5t-44.5 16.5q-64 0 -64 -80z" />
    <glyph glyph-name="ccedilla" unicode="&#xe7;" horiz-adv-x="462" 
d="M271 -43q30 -1 49 -10.5t26.5 -27t9.5 -32t2 -38.5q0 -110 -155 -110q-31 0 -50 4q-29 6 -29 31q0 20 4 35q4 16 10.5 20.5t20.5 4.5q4 0 28 -3q8 -1 26 -1q14 0 19 4t5 17q0 23 -17 23q-4 0 -12.5 -0.5t-11.5 -0.5q-25 1 -25 22q0 6 6 34l13 64q-82 15 -121 73t-39 179
q0 145 56 209.5t198 64.5q85 0 128 -16q19 -7 19 -29q0 -46 -13 -91q-6 -21 -25 -21q-12 0 -33 3q-33 5 -59 5q-46 0 -64.5 -25t-18.5 -94q0 -72 19.5 -95t62.5 -23q36 0 72 10q18 5 28 5q17 0 23 -20q18 -57 18 -84q0 -20 -18 -29q-49 -26 -147 -28z" />
    <glyph glyph-name="egrave" unicode="&#xe8;" horiz-adv-x="537" 
d="M219 198q1 -41 19 -53t59 -12q82 0 134 16q13 5 29 5q20 0 26 -21q16 -59 16 -81q0 -21 -17 -30q-31 -17 -91.5 -26t-114.5 -9q-140 0 -194.5 62t-54.5 201q0 145 58 207t193 62q45 0 79.5 -7t58.5 -18.5t41 -32t26.5 -41t14.5 -52.5t6.5 -59.5t1.5 -68.5q0 -27 -14 -36
q-9 -6 -25 -6h-251zM222 318h114q1 2 1 14q0 38 -10.5 52.5t-45.5 14.5q-32 0 -45 -19t-14 -62zM242 602l-112 113q-14 14 -14 28q0 23 33 23h88q31 0 50 -27l80 -108q11 -14 11 -28q0 -23 -32 -23h-46q-34 0 -58 22z" />
    <glyph glyph-name="eacute" unicode="&#xe9;" horiz-adv-x="537" 
d="M219 198q1 -41 19 -53t59 -12q82 0 134 16q13 5 29 5q20 0 26 -21q16 -59 16 -81q0 -21 -17 -30q-31 -17 -91.5 -26t-114.5 -9q-140 0 -194.5 62t-54.5 201q0 145 58 207t193 62q45 0 79.5 -7t58.5 -18.5t41 -32t26.5 -41t14.5 -52.5t6.5 -59.5t1.5 -68.5q0 -27 -14 -36
q-9 -6 -25 -6h-251zM222 318h114q1 2 1 14q0 38 -10.5 52.5t-45.5 14.5q-32 0 -45 -19t-14 -62zM325 602q-24 -22 -53 -22h-51q-32 0 -32 23q0 14 11 28l80 108q20 27 50 27h88q33 0 33 -23q0 -14 -14 -28z" />
    <glyph glyph-name="ecircumflex" unicode="&#xea;" horiz-adv-x="537" 
d="M219 198q1 -41 19 -53t59 -12q82 0 134 16q13 5 29 5q20 0 26 -21q16 -59 16 -81q0 -21 -17 -30q-31 -17 -91.5 -26t-114.5 -9q-140 0 -194.5 62t-54.5 201q0 145 58 207t193 62q45 0 79.5 -7t58.5 -18.5t41 -32t26.5 -41t14.5 -52.5t6.5 -59.5t1.5 -68.5q0 -27 -14 -36
q-9 -6 -25 -6h-251zM222 318h114q1 2 1 14q0 38 -10.5 52.5t-45.5 14.5q-32 0 -45 -19t-14 -62zM191 580h-47q-32 0 -32 24q0 11 11 25l77 104q25 33 48 33h73q24 0 49 -33l76 -104q10 -13 10 -25q0 -24 -31 -24h-49q-27 0 -46 23l-46 54l-47 -55q-19 -22 -46 -22z" />
    <glyph glyph-name="edieresis" unicode="&#xeb;" horiz-adv-x="537" 
d="M219 198q1 -41 19 -53t59 -12q82 0 134 16q13 5 29 5q20 0 26 -21q16 -59 16 -81q0 -21 -17 -30q-31 -17 -91.5 -26t-114.5 -9q-140 0 -194.5 62t-54.5 201q0 145 58 207t193 62q45 0 79.5 -7t58.5 -18.5t41 -32t26.5 -41t14.5 -52.5t6.5 -59.5t1.5 -68.5q0 -27 -14 -36
q-9 -6 -25 -6h-251zM222 318h114q1 2 1 14q0 38 -10.5 52.5t-45.5 14.5q-32 0 -45 -19t-14 -62zM253 654q0 -77 -73 -77q-72 0 -72 76q0 77 72 77q73 0 73 -76zM451 654q0 -77 -73 -77q-72 0 -72 76q0 77 72 77q73 0 73 -76z" />
    <glyph glyph-name="igrave" unicode="&#xec;" horiz-adv-x="302" 
d="M112 602l-112 113q-14 14 -14 28q0 23 33 23h88q31 0 50 -27l80 -108q11 -14 11 -28q0 -23 -32 -23h-46q-34 0 -58 22zM244 34q0 -34 -32 -34h-124q-30 0 -30 34v437q0 34 31 34h126q17 0 23 -8t6 -25v-438z" />
    <glyph glyph-name="iacute" unicode="&#xed;" horiz-adv-x="302" 
d="M244 34q0 -34 -32 -34h-124q-30 0 -30 34v437q0 34 31 34h126q17 0 23 -8t6 -25v-438zM186 602q-24 -22 -53 -22h-51q-32 0 -32 23q0 14 11 28l80 108q20 27 50 27h88q33 0 33 -23q0 -14 -14 -28z" />
    <glyph glyph-name="icircumflex" unicode="&#xee;" horiz-adv-x="302" 
d="M244 34q0 -34 -32 -34h-124q-30 0 -30 34v437q0 34 31 34h126q17 0 23 -8t6 -25v-438zM59 580h-47q-32 0 -32 24q0 11 11 25l77 104q25 33 48 33h73q24 0 49 -33l76 -104q10 -13 10 -25q0 -24 -31 -24h-49q-27 0 -46 23l-46 54l-47 -55q-19 -22 -46 -22z" />
    <glyph glyph-name="idieresis" unicode="&#xef;" horiz-adv-x="302" 
d="M126 654q0 -77 -73 -77q-72 0 -72 76q0 77 72 77q73 0 73 -76zM324 654q0 -77 -73 -77q-72 0 -72 76q0 77 72 77q73 0 73 -76zM244 34q0 -34 -32 -34h-124q-30 0 -30 34v437q0 34 31 34h126q17 0 23 -8t6 -25v-438z" />
    <glyph glyph-name="eth" unicode="&#xf0;" horiz-adv-x="572" 
d="M491 665l-28 -18q44 -54 61.5 -146t17.5 -241q0 -154 -62 -213.5t-198 -59.5q-132 0 -192 57t-60 210q0 73 18 123t52.5 76t75.5 36.5t96 10.5q64 0 82 -28q-10 51 -33 81l-37 -24q-16 -11 -27 -11q-12 0 -21 13l-6 9q-4 5 -6 7l-5 7q-3 4 -4 6t-3 5t-3 5t-2 4.5t-1 4
t-0.5 4t-0.5 4.5q0 13 18 25l4 3q-26 6 -63 10q-11 1 -18.5 8t-7.5 18q0 8 10 68q5 29 34 29q9 0 31 -2q99 -6 162 -34l55 36q16 11 27 11q12 0 21 -13l6 -9q4 -5 6 -7l5 -7q3 -4 4 -6t3 -5t3 -5t2 -4.5t1 -4t0.5 -4t0.5 -4.5q0 -13 -18 -25zM354 249q0 63 -13 85t-54 22
q-37 0 -53 -24.5t-16 -80.5q0 -72 13.5 -95t53.5 -23t54.5 22.5t14.5 93.5z" />
    <glyph glyph-name="ntilde" unicode="&#xf1;" horiz-adv-x="602" 
d="M244 34q0 -16 -9 -25t-23 -9h-124q-30 0 -30 34v429q0 42 38 42h108q18 0 26 -6t11 -21l2 -9q53 48 141 48q130 0 154 -64q11 -29 11 -98v-321q0 -34 -30 -34h-126q-30 0 -30 34v278q0 23 -3 34q-6 22 -45 22q-17 0 -40 -5q-17 -5 -24 -14q-7 -11 -7 -32v-283zM192 576
h-32q-29 0 -29 26q0 10 7 31q16 48 42 76.5t60 28.5q28 0 72 -24q28 -16 50 -16q21 0 32 22q10 22 38 22h27q29 0 29 -27q0 -12 -13 -47q-30 -85 -93 -85q-40 0 -83 26q-24 14 -40 14q-21 0 -32 -19q-6 -11 -9.5 -15.5t-10 -8.5t-15.5 -4z" />
    <glyph glyph-name="ograve" unicode="&#xf2;" horiz-adv-x="571" 
d="M541 257q0 -154 -61 -212t-198 -58q-132 0 -192 57t-60 210q0 79 19 133t55.5 82t80.5 39t104 11q67 0 110 -9.5t77.5 -37t49.5 -80t15 -135.5zM354 252q0 72 -12 95t-55 23q-39 0 -54 -24t-15 -92q0 -73 14 -97t53 -24q40 0 54.5 23.5t14.5 95.5zM237 602l-112 113
q-14 14 -14 28q0 23 33 23h88q30 0 50 -27l80 -108q11 -14 11 -28q0 -23 -32 -23h-46q-34 0 -58 22z" />
    <glyph glyph-name="oacute" unicode="&#xf3;" horiz-adv-x="571" 
d="M541 257q0 -154 -61 -212t-198 -58q-132 0 -192 57t-60 210q0 79 19 133t55.5 82t80.5 39t104 11q67 0 110 -9.5t77.5 -37t49.5 -80t15 -135.5zM354 252q0 72 -12 95t-55 23q-39 0 -54 -24t-15 -92q0 -73 14 -97t53 -24q40 0 54.5 23.5t14.5 95.5zM331 602
q-24 -22 -53 -22h-51q-32 0 -32 23q0 14 11 28l80 108q20 27 50 27h88q33 0 33 -23q0 -14 -14 -28z" />
    <glyph glyph-name="ocircumflex" unicode="&#xf4;" horiz-adv-x="571" 
d="M541 257q0 -154 -61 -212t-198 -58q-132 0 -192 57t-60 210q0 79 19 133t55.5 82t80.5 39t104 11q67 0 110 -9.5t77.5 -37t49.5 -80t15 -135.5zM354 252q0 72 -12 95t-55 23q-39 0 -54 -24t-15 -92q0 -73 14 -97t53 -24q40 0 54.5 23.5t14.5 95.5zM197 580h-47
q-32 0 -32 24q0 11 11 25l77 104q25 33 48 33h73q24 0 49 -33l76 -104q10 -13 10 -25q0 -24 -31 -24h-49q-27 0 -46 23l-46 54l-47 -55q-19 -22 -46 -22z" />
    <glyph glyph-name="otilde" unicode="&#xf5;" horiz-adv-x="571" 
d="M541 257q0 -154 -61 -212t-198 -58q-132 0 -192 57t-60 210q0 79 19 133t55.5 82t80.5 39t104 11q67 0 110 -9.5t77.5 -37t49.5 -80t15 -135.5zM354 252q0 72 -12 95t-55 23q-39 0 -54 -24t-15 -92q0 -73 14 -97t53 -24q40 0 54.5 23.5t14.5 95.5zM170 576h-32
q-29 0 -29 26q0 10 7 31q16 48 42 76.5t60 28.5q28 0 72 -24q28 -16 50 -16q21 0 32 22q10 22 38 22h27q29 0 29 -27q0 -12 -13 -47q-30 -85 -93 -85q-40 0 -83 26q-24 14 -40 14q-21 0 -32 -19q-6 -11 -9.5 -15.5t-10 -8.5t-15.5 -4z" />
    <glyph glyph-name="odieresis" unicode="&#xf6;" horiz-adv-x="571" 
d="M541 257q0 -154 -61 -212t-198 -58q-132 0 -192 57t-60 210q0 79 19 133t55.5 82t80.5 39t104 11q67 0 110 -9.5t77.5 -37t49.5 -80t15 -135.5zM354 252q0 72 -12 95t-55 23q-39 0 -54 -24t-15 -92q0 -73 14 -97t53 -24q40 0 54.5 23.5t14.5 95.5zM261 654q0 -77 -73 -77
q-72 0 -72 76q0 77 72 77q73 0 73 -76zM459 654q0 -77 -73 -77q-72 0 -72 76q0 77 72 77q73 0 73 -76z" />
    <glyph glyph-name="divide" unicode="&#xf7;" horiz-adv-x="701" 
d="M425 480q0 -74 -74 -74q-72 0 -72 74q0 73 75 73q71 0 71 -73zM611 278q0 -40 -34 -40h-452q-35 0 -35 40v36q0 40 35 40h452q34 0 34 -40v-36zM425 108q0 -74 -74 -74q-72 0 -72 74q0 37 20.5 55.5t54.5 18.5q71 0 71 -74z" />
    <glyph glyph-name="oslash" unicode="&#xf8;" horiz-adv-x="571" 
d="M111 -35q-10 -10 -14 -10q-8 0 -38 22q-6 6 -6 11q0 7 7 16l29 41q-59 61 -59 209q0 79 19 133t55.5 82t80.5 39t104 11q86 0 134 -17l39 54q6 8 13 8q6 0 13 -5q29 -18 29 -28q0 -6 -5 -13l-34 -47q63 -55 63 -214q0 -154 -61 -212t-198 -58q-88 0 -139 22zM362 252
q0 24 -2 56l-123 -169q15 -11 48 -11q45 0 61 24.5t16 99.5zM211 254q0 -29 1 -41l114 156q-15 6 -39 6q-43 0 -59.5 -25.5t-16.5 -95.5z" />
    <glyph glyph-name="ugrave" unicode="&#xf9;" horiz-adv-x="602" 
d="M359 37q-52 -49 -141 -49q-130 0 -154 64q-11 29 -11 98v321q0 34 30 34h126q30 0 30 -34v-278q0 -21 3 -32q8 -24 45 -24q17 0 40 5q17 5 24 14q7 10 7 32v283q0 16 9 25t23 9h124q30 0 30 -34v-429q0 -42 -38 -42h-108q-19 0 -27 5.5t-10 19.5zM227 604l-112 113
q-14 14 -14 28q0 23 33 23h88q30 0 50 -27l80 -108q11 -14 11 -28q0 -23 -32 -23h-46q-34 0 -58 22z" />
    <glyph glyph-name="uacute" unicode="&#xfa;" horiz-adv-x="602" 
d="M359 37q-52 -49 -141 -49q-130 0 -154 64q-11 29 -11 98v321q0 34 30 34h126q30 0 30 -34v-278q0 -21 3 -32q8 -24 45 -24q17 0 40 5q17 5 24 14q7 10 7 32v283q0 16 9 25t23 9h124q30 0 30 -34v-429q0 -42 -38 -42h-108q-19 0 -27 5.5t-10 19.5zM350 602
q-24 -22 -53 -22h-51q-32 0 -32 23q0 14 11 28l80 108q19 27 50 27h88q33 0 33 -23q0 -14 -14 -28z" />
    <glyph glyph-name="ucircumflex" unicode="&#xfb;" horiz-adv-x="602" 
d="M359 37q-52 -49 -141 -49q-130 0 -154 64q-11 29 -11 98v321q0 34 30 34h126q30 0 30 -34v-278q0 -21 3 -32q8 -24 45 -24q17 0 40 5q17 5 24 14q7 10 7 32v283q0 16 9 25t23 9h124q30 0 30 -34v-429q0 -42 -38 -42h-108q-19 0 -27 5.5t-10 19.5zM207 580h-47
q-32 0 -32 24q0 11 11 25l77 104q25 33 48 33h73q24 0 49 -33l76 -104q10 -13 10 -25q0 -24 -31 -24h-49q-27 0 -46 23l-46 54l-47 -55q-19 -22 -46 -22z" />
    <glyph glyph-name="udieresis" unicode="&#xfc;" horiz-adv-x="602" 
d="M359 37q-52 -49 -141 -49q-130 0 -154 64q-11 29 -11 98v321q0 34 30 34h126q30 0 30 -34v-278q0 -21 3 -32q8 -24 45 -24q17 0 40 5q17 5 24 14q7 10 7 32v283q0 16 9 25t23 9h124q30 0 30 -34v-429q0 -42 -38 -42h-108q-19 0 -27 5.5t-10 19.5zM273 654q0 -77 -73 -77
q-72 0 -72 76q0 77 72 77q73 0 73 -76zM471 654q0 -77 -73 -77q-72 0 -72 76q0 77 72 77q73 0 73 -76z" />
    <glyph glyph-name="yacute" unicode="&#xfd;" horiz-adv-x="557" 
d="M188 5l-177 451q-5 12 -5 28q0 21 26 21h141q27 0 36 -29q57 -171 76 -235q51 167 74 233q10 31 35 31h130q28 0 28 -22q0 -13 -6 -28l-192 -516q-13 -35 -32 -73q-22 -47 -54 -75q-47 -41 -149 -41q-95 0 -117 11q-16 7 -16 31q0 15 5.5 50t9.5 44q7 15 26 15q3 0 25 -2
t34 -2q32 0 46 8q17 10 33 41q16 33 20 49zM327 602q-24 -22 -53 -22h-51q-32 0 -32 23q0 14 11 28l80 108q20 27 50 27h88q33 0 33 -23q0 -14 -14 -28z" />
    <glyph glyph-name="thorn" unicode="&#xfe;" horiz-adv-x="594" 
d="M244 -206q0 -38 -40 -38h-113q-17 0 -25 7.5t-8 30.5v914q0 24 7.5 32t31.5 8h107q26 0 33 -7.5t7 -30.5v-239q40 46 138 46q93 0 137 -56t44 -206q0 -82 -14.5 -134t-47.5 -79.5t-76 -37.5t-110 -10q-53 0 -71 13v-213zM244 140q26 -7 45 -7q55 0 71 23.5t16 103.5
q0 65 -11.5 86.5t-52.5 21.5q-37 0 -57 -12q-6 -4 -9 -11q-2 -6 -2 -18v-187z" />
    <glyph glyph-name="ydieresis" unicode="&#xff;" horiz-adv-x="557" 
d="M188 5l-177 451q-5 12 -5 28q0 21 26 21h141q27 0 36 -29q57 -171 76 -235q51 167 74 233q10 31 35 31h130q28 0 28 -22q0 -13 -6 -28l-192 -516q-13 -35 -32 -73q-22 -47 -54 -75q-47 -41 -149 -41q-95 0 -117 11q-16 7 -16 31q0 15 5.5 50t9.5 44q7 15 26 15q3 0 25 -2
t34 -2q32 0 46 8q17 10 33 41q16 33 20 49zM258 654q0 -77 -73 -77q-72 0 -72 76q0 77 72 77q73 0 73 -76zM456 654q0 -77 -73 -77q-72 0 -72 76q0 77 72 77q73 0 73 -76z" />
    <glyph glyph-name="Amacron" unicode="&#x100;" horiz-adv-x="694" 
d="M250 159l-38 -120q-7 -21 -16 -30t-27 -9h-129q-34 0 -34 25q0 12 7 31l222 617q11 33 48 33h131q33 0 45 -33l222 -617q7 -19 7 -31q0 -25 -34 -25h-127q-18 0 -28 9t-17 30l-38 120h-194zM298 313h100q-23 76 -49 176q-4 -13 -19.5 -69t-31.5 -107zM477 769h-261
q-34 0 -34 32v54q0 30 34 30h260q34 0 34 -31v-56q0 -17 -8 -23t-25 -6z" />
    <glyph glyph-name="amacron" unicode="&#x101;" horiz-adv-x="560" 
d="M330 38q-46 -46 -124 -46q-174 0 -174 166q0 87 55 127q46 34 164 34q33 0 72 -3v7q0 14 -4 25q-8 19 -66 19q-46 0 -100 -7q-33 -3 -39 -3q-22 0 -29 26q-9 34 -9 80q0 30 27 37q64 19 174 19q152 0 193 -41q37 -36 37 -125v-308q0 -45 -43 -45h-87q-24 0 -34 6t-12 22z
M323 203q-18 2 -46 2q-41 0 -58 -11q-12 -9 -12 -32q0 -38 49 -38q38 0 54 11q8 4 11 15q2 9 2 32v21zM410 589h-247q-34 0 -34 32v54q0 30 34 30h246q34 0 34 -31v-56q0 -17 -8 -23t-25 -6z" />
    <glyph glyph-name="Abreve" unicode="&#x102;" horiz-adv-x="694" 
d="M250 159l-38 -120q-7 -21 -16 -30t-27 -9h-129q-34 0 -34 25q0 12 7 31l222 617q11 33 48 33h131q33 0 45 -33l222 -617q7 -19 7 -31q0 -25 -34 -25h-127q-18 0 -28 9t-17 30l-38 120h-194zM298 313h100q-23 76 -49 176q-4 -13 -19.5 -69t-31.5 -107zM488 923
q30 0 30 -27q0 -28 -8 -50q-17 -48 -53 -71.5t-111 -23.5q-134 0 -160 93q-6 16 -6 46q0 33 34 33h29q34 0 40 -27q9 -42 66 -42q34 0 47 9.5t22 31.5q11 28 39 28h31z" />
    <glyph glyph-name="abreve" unicode="&#x103;" horiz-adv-x="560" 
d="M330 38q-46 -46 -124 -46q-174 0 -174 166q0 87 55 127q46 34 164 34q33 0 72 -3v7q0 14 -4 25q-8 19 -66 19q-46 0 -100 -7q-33 -3 -39 -3q-22 0 -29 26q-9 34 -9 80q0 30 27 37q64 19 174 19q152 0 193 -41q37 -36 37 -125v-308q0 -45 -43 -45h-87q-24 0 -34 6t-12 22z
M323 203q-18 2 -46 2q-41 0 -58 -11q-12 -9 -12 -32q0 -38 49 -38q38 0 54 11q8 4 11 15q2 9 2 32v21zM422 753q28 0 28 -29q0 -30 -7 -51q-17 -51 -51 -76.5t-107 -25.5q-128 0 -154 99q-5 20 -5 47q0 36 31 36h29q32 0 38 -29q11 -51 64 -51q32 0 45 13t22 37q10 30 37 30
h30z" />
    <glyph glyph-name="Aogonek" unicode="&#x104;" horiz-adv-x="694" 
d="M250 159l-38 -120q-7 -21 -16 -30t-27 -9h-129q-34 0 -34 25q0 12 7 31l222 617q11 33 48 33h131q33 0 45 -33l222 -617q7 -19 7 -31q0 -25 -34 -25h-46q-39 -30 -53.5 -42t-29.5 -35.5t-15 -49.5q0 -44 39 -44q9 0 25 2t18 2q21 0 28 -27q6 -18 6 -38q0 -22 -31 -30
q-28 -8 -70 -8q-72 0 -102.5 29.5t-30.5 88.5q0 60 31 95t85 60q-17 7 -26 36l-38 120h-194zM298 313h100q-23 76 -49 176q-4 -13 -19.5 -69t-31.5 -107z" />
    <glyph glyph-name="aogonek" unicode="&#x105;" horiz-adv-x="560" 
d="M330 38q-46 -46 -124 -46q-174 0 -174 166q0 87 55 127q46 34 164 34q33 0 72 -3v7q0 14 -4 25q-8 19 -66 19q-46 0 -100 -7q-33 -3 -39 -3q-22 0 -29 26q-9 34 -9 80q0 30 27 37q64 19 174 19q152 0 193 -41q37 -36 37 -125v-308q0 -45 -43 -45h-10q-38 -29 -52.5 -41
t-29 -34t-14.5 -47q0 -41 38 -41q9 0 24.5 1.5t17.5 1.5q12 0 18 -5t10 -20q5 -19 5 -37q0 -22 -30 -29q-28 -7 -68 -7q-70 0 -100 28.5t-30 84.5q0 57 29.5 90t81.5 56q-20 4 -23 27zM323 203q-18 2 -46 2q-41 0 -58 -11q-12 -9 -12 -32q0 -38 49 -38q38 0 54 11q8 4 11 15
q2 9 2 32v21z" />
    <glyph glyph-name="Cacute" unicode="&#x106;" horiz-adv-x="588" 
d="M230 356q0 -90 16.5 -138.5t45 -64t78.5 -15.5q55 0 115 15q23 5 33 5q14 0 20 -14q26 -69 26 -94q0 -21 -24 -30q-84 -33 -228 -33q-68 0 -117.5 17t-86.5 57t-55.5 110t-18.5 171q0 202 71 290t243 88q112 0 172 -17q26 -7 26 -31q0 -42 -21 -99q-7 -17 -22 -17
q-4 0 -8.5 1t-12 2t-12.5 2q-39 7 -91 7q-39 0 -64 -7.5t-46 -29.5t-30 -64.5t-9 -110.5zM391 773q-27 -16 -55 -16h-66q-26 0 -26 18q0 15 16 30l103 90q26 23 58 23h103q31 0 31 -20q0 -19 -18 -30z" />
    <glyph glyph-name="cacute" unicode="&#x107;" horiz-adv-x="462" 
d="M218 251q0 -72 19.5 -95t62.5 -23q36 0 72 10q18 5 28 5q17 0 23 -20q18 -57 18 -84q0 -20 -18 -29q-53 -28 -155 -28q-124 0 -181 56.5t-57 201.5t56 209.5t198 64.5q85 0 128 -16q19 -7 19 -29q0 -46 -13 -91q-6 -21 -25 -21q-12 0 -33 3q-33 5 -59 5q-46 0 -64.5 -25
t-18.5 -94zM316 602q-24 -22 -53 -22h-51q-32 0 -32 23q0 14 11 28l80 108q19 27 50 27h88q33 0 33 -23q0 -14 -14 -28z" />
    <glyph glyph-name="Ccircumflex" unicode="&#x108;" horiz-adv-x="588" 
d="M230 356q0 -90 16.5 -138.5t45 -64t78.5 -15.5q55 0 115 15q23 5 33 5q14 0 20 -14q26 -69 26 -94q0 -21 -24 -30q-84 -33 -228 -33q-68 0 -117.5 17t-86.5 57t-55.5 110t-18.5 171q0 202 71 290t243 88q112 0 172 -17q26 -7 26 -31q0 -42 -21 -99q-7 -17 -22 -17
q-4 0 -8.5 1t-12 2t-12.5 2q-39 7 -91 7q-39 0 -64 -7.5t-46 -29.5t-30 -64.5t-9 -110.5zM222 757h-49q-36 0 -36 24q0 12 12 25l94 99q31 33 62 33h61q31 0 57 -29l94 -103q12 -12 12 -25q0 -24 -36 -24h-51q-30 0 -53 23l-56 54l-59 -55q-22 -22 -52 -22z" />
    <glyph glyph-name="ccircumflex" unicode="&#x109;" horiz-adv-x="462" 
d="M218 251q0 -72 19.5 -95t62.5 -23q36 0 72 10q18 5 28 5q17 0 23 -20q18 -57 18 -84q0 -20 -18 -29q-53 -28 -155 -28q-124 0 -181 56.5t-57 201.5t56 209.5t198 64.5q85 0 128 -16q19 -7 19 -29q0 -46 -13 -91q-6 -21 -25 -21q-12 0 -33 3q-33 5 -59 5q-46 0 -64.5 -25
t-18.5 -94zM168 580h-47q-32 0 -32 24q0 11 11 25l77 104q25 33 48 33h73q24 0 49 -33l76 -104q10 -13 10 -25q0 -24 -31 -24h-49q-27 0 -46 23l-46 54l-47 -55q-19 -22 -46 -22z" />
    <glyph glyph-name="Cdotaccent" unicode="&#x10a;" horiz-adv-x="588" 
d="M230 356q0 -90 16.5 -138.5t45 -64t78.5 -15.5q55 0 115 15q23 5 33 5q14 0 20 -14q26 -69 26 -94q0 -21 -24 -30q-84 -33 -228 -33q-68 0 -117.5 17t-86.5 57t-55.5 110t-18.5 171q0 202 71 290t243 88q112 0 172 -17q26 -7 26 -31q0 -42 -21 -99q-7 -17 -22 -17
q-4 0 -8.5 1t-12 2t-12.5 2q-39 7 -91 7q-39 0 -64 -7.5t-46 -29.5t-30 -64.5t-9 -110.5zM406 834q0 -77 -73 -77q-72 0 -72 76q0 77 72 77q73 0 73 -76z" />
    <glyph glyph-name="cdotaccent" unicode="&#x10b;" horiz-adv-x="462" 
d="M218 251q0 -72 19.5 -95t62.5 -23q36 0 72 10q18 5 28 5q17 0 23 -20q18 -57 18 -84q0 -20 -18 -29q-53 -28 -155 -28q-124 0 -181 56.5t-57 201.5t56 209.5t198 64.5q85 0 128 -16q19 -7 19 -29q0 -46 -13 -91q-6 -21 -25 -21q-12 0 -33 3q-33 5 -59 5q-46 0 -64.5 -25
t-18.5 -94zM328 654q0 -77 -73 -77q-72 0 -72 76q0 77 72 77q73 0 73 -76z" />
    <glyph glyph-name="Ccaron" unicode="&#x10c;" horiz-adv-x="588" 
d="M230 356q0 -90 16.5 -138.5t45 -64t78.5 -15.5q55 0 115 15q23 5 33 5q14 0 20 -14q26 -69 26 -94q0 -21 -24 -30q-84 -33 -228 -33q-68 0 -117.5 17t-86.5 57t-55.5 110t-18.5 171q0 202 71 290t243 88q112 0 172 -17q26 -7 26 -31q0 -42 -21 -99q-7 -17 -22 -17
q-4 0 -8.5 1t-12 2t-12.5 2q-39 7 -91 7q-39 0 -64 -7.5t-46 -29.5t-30 -64.5t-9 -110.5zM431 938h49q36 0 36 -24q0 -12 -12 -25l-94 -99q-31 -33 -62 -33h-61q-31 0 -57 29l-94 103q-12 12 -12 25q0 24 36 24h51q30 0 53 -23l56 -54l59 55q22 22 52 22z" />
    <glyph glyph-name="ccaron" unicode="&#x10d;" horiz-adv-x="462" 
d="M218 251q0 -72 19.5 -95t62.5 -23q36 0 72 10q18 5 28 5q17 0 23 -20q18 -57 18 -84q0 -20 -18 -29q-53 -28 -155 -28q-124 0 -181 56.5t-57 201.5t56 209.5t198 64.5q85 0 128 -16q19 -7 19 -29q0 -46 -13 -91q-6 -21 -25 -21q-12 0 -33 3q-33 5 -59 5q-46 0 -64.5 -25
t-18.5 -94zM347 769h47q32 0 32 -24q0 -11 -11 -25l-77 -104q-25 -33 -48 -33h-73q-24 0 -49 33l-76 104q-10 13 -10 25q0 24 31 24h49q27 0 46 -23l46 -54l47 55q19 22 46 22z" />
    <glyph glyph-name="Dcaron" unicode="&#x10e;" horiz-adv-x="692" 
d="M262 160h40q70 0 97 14q36 20 48.5 59.5t12.5 125.5q0 85 -13 121.5t-50 52.5q-32 14 -96 14h-39v-387zM273 0h-171q-32 0 -32 36v633q0 37 32 37h187q131 0 195 -19q90 -26 132 -106.5t42 -220.5q0 -142 -38 -220.5t-137 -115.5q-66 -24 -210 -24zM433 938h49
q36 0 36 -24q0 -12 -12 -25l-94 -99q-31 -33 -62 -33h-61q-31 0 -57 29l-94 103q-12 12 -12 25q0 24 36 24h51q30 0 53 -23l56 -54l59 55q22 22 52 22z" />
    <glyph glyph-name="dcaron" unicode="&#x10f;" horiz-adv-x="594" 
d="M536 41q0 -23 -9 -32t-32 -9h-90q-26 0 -34.5 3.5t-10.5 19.5l-1 11q-42 -47 -144 -47q-93 0 -139 59.5t-46 196.5q0 82 15 136t48.5 85t79.5 43t115 12q36 0 62 -7v198q0 38 40 38h113q17 0 25 -7.5t8 -30.5v-669zM350 178v187q-19 5 -45 5q-54 0 -70.5 -24.5
t-16.5 -103.5q0 -61 14.5 -83t50.5 -22t56 12q6 4 9 11q2 6 2 18zM706 748q21 0 29.5 -9.5t8.5 -31.5q0 -114 -61 -182q-20 -24 -40 -24q-15 0 -35 11t-20 26q0 12 9 33q18 48 18 129q0 48 45 48h46z" />
    <glyph glyph-name="Dcroat" unicode="&#x110;" horiz-adv-x="692" 
d="M273 0h-171q-32 0 -32 36v258h-29q-34 0 -34 32v75q0 30 34 30h29v238q0 37 32 37h187q131 0 195 -19q90 -26 132 -106.5t42 -220.5q0 -142 -38 -220.5t-137 -115.5q-66 -24 -210 -24zM262 160h40q70 0 97 14q36 20 48.5 59.5t12.5 125.5q0 85 -13 121.5t-50 52.5
q-32 14 -96 14h-39v-116h81q34 0 34 -31v-77q0 -17 -8 -23t-25 -6h-82v-134z" />
    <glyph glyph-name="dcroat" unicode="&#x111;" horiz-adv-x="594" 
d="M536 41q0 -23 -9 -32t-32 -9h-90q-26 0 -34.5 3.5t-10.5 19.5l-1 11q-42 -47 -144 -47q-93 0 -139 59.5t-46 196.5q0 82 15 136t48.5 85t79.5 43t115 12q36 0 62 -7v52h-70q-34 0 -34 32v58q0 33 35 33h69v23q0 38 40 38h113q17 0 25 -7.5t8 -30.5v-23h18q34 0 34 -32
v-62q0 -17 -8 -23t-25 -6h-19v-523zM350 178v187q-19 5 -45 5q-54 0 -70.5 -24.5t-16.5 -103.5q0 -61 14.5 -83t50.5 -22t56 12q6 4 9 11q2 6 2 18z" />
    <glyph glyph-name="Emacron" unicode="&#x112;" horiz-adv-x="572" 
d="M517 0h-413q-34 0 -34 35v632q0 39 34 39h394q18 0 26 -7.5t8 -25.5v-99q0 -28 -34 -28h-236v-102h215q18 0 26 -7.5t8 -25.5v-99q0 -28 -34 -28h-215v-124h255q18 0 26 -7.5t8 -25.5v-99q0 -28 -34 -28zM432 769h-261q-34 0 -34 32v54q0 30 34 30h260q34 0 34 -31v-56
q0 -17 -8 -23t-25 -6z" />
    <glyph glyph-name="emacron" unicode="&#x113;" horiz-adv-x="537" 
d="M219 198q1 -41 19 -53t59 -12q82 0 134 16q13 5 29 5q20 0 26 -21q16 -59 16 -81q0 -21 -17 -30q-31 -17 -91.5 -26t-114.5 -9q-140 0 -194.5 62t-54.5 201q0 145 58 207t193 62q45 0 79.5 -7t58.5 -18.5t41 -32t26.5 -41t14.5 -52.5t6.5 -59.5t1.5 -68.5q0 -27 -14 -36
q-9 -6 -25 -6h-251zM222 318h114q1 2 1 14q0 38 -10.5 52.5t-45.5 14.5q-32 0 -45 -19t-14 -62zM396 589h-247q-34 0 -34 32v54q0 30 34 30h246q34 0 34 -31v-56q0 -17 -8 -23t-25 -6z" />
    <glyph glyph-name="Ebreve" unicode="&#x114;" horiz-adv-x="572" 
d="M517 0h-413q-34 0 -34 35v632q0 39 34 39h394q18 0 26 -7.5t8 -25.5v-99q0 -28 -34 -28h-236v-102h215q18 0 26 -7.5t8 -25.5v-99q0 -28 -34 -28h-215v-124h255q18 0 26 -7.5t8 -25.5v-99q0 -28 -34 -28zM437 923q30 0 30 -27q0 -28 -8 -50q-17 -48 -53 -71.5t-111 -23.5
q-134 0 -160 93q-6 16 -6 46q0 33 34 33h29q34 0 40 -27q9 -42 66 -42q34 0 47 9.5t22 31.5q11 28 39 28h31z" />
    <glyph glyph-name="ebreve" unicode="&#x115;" horiz-adv-x="537" 
d="M219 198q1 -41 19 -53t59 -12q82 0 134 16q13 5 29 5q20 0 26 -21q16 -59 16 -81q0 -21 -17 -30q-31 -17 -91.5 -26t-114.5 -9q-140 0 -194.5 62t-54.5 201q0 145 58 207t193 62q45 0 79.5 -7t58.5 -18.5t41 -32t26.5 -41t14.5 -52.5t6.5 -59.5t1.5 -68.5q0 -27 -14 -36
q-9 -6 -25 -6h-251zM222 318h114q1 2 1 14q0 38 -10.5 52.5t-45.5 14.5q-32 0 -45 -19t-14 -62zM411 753q28 0 28 -29q0 -30 -7 -51q-17 -51 -51 -76.5t-107 -25.5q-128 0 -154 99q-5 20 -5 47q0 36 31 36h29q32 0 38 -29q11 -51 64 -51q22 0 36.5 8t19.5 17t11 25
q10 30 37 30h30z" />
    <glyph glyph-name="Edotaccent" unicode="&#x116;" horiz-adv-x="572" 
d="M517 0h-413q-34 0 -34 35v632q0 39 34 39h394q18 0 26 -7.5t8 -25.5v-99q0 -28 -34 -28h-236v-102h215q18 0 26 -7.5t8 -25.5v-99q0 -28 -34 -28h-215v-124h255q18 0 26 -7.5t8 -25.5v-99q0 -28 -34 -28zM380 834q0 -77 -73 -77q-72 0 -72 76q0 77 72 77q73 0 73 -76z
" />
    <glyph glyph-name="edotaccent" unicode="&#x117;" horiz-adv-x="537" 
d="M219 198q1 -41 19 -53t59 -12q82 0 134 16q13 5 29 5q20 0 26 -21q16 -59 16 -81q0 -21 -17 -30q-31 -17 -91.5 -26t-114.5 -9q-140 0 -194.5 62t-54.5 201q0 145 58 207t193 62q45 0 79.5 -7t58.5 -18.5t41 -32t26.5 -41t14.5 -52.5t6.5 -59.5t1.5 -68.5q0 -27 -14 -36
q-9 -6 -25 -6h-251zM222 318h114q1 2 1 14q0 38 -10.5 52.5t-45.5 14.5q-32 0 -45 -19t-14 -62zM349 654q0 -77 -73 -77q-72 0 -72 76q0 77 72 77q73 0 73 -76z" />
    <glyph glyph-name="Eogonek" unicode="&#x118;" horiz-adv-x="572" 
d="M517 0h-14q-39 -30 -53.5 -42t-29.5 -35.5t-15 -49.5q0 -44 39 -44q9 0 25 2t18 2q21 0 28 -27q6 -18 6 -38q0 -22 -31 -30q-28 -8 -70 -8q-72 0 -102.5 29.5t-30.5 88.5t29.5 93t81.5 59h-294q-34 0 -34 35v632q0 39 34 39h394q18 0 26 -7.5t8 -25.5v-99q0 -28 -34 -28
h-236v-102h215q18 0 26 -7.5t8 -25.5v-99q0 -28 -34 -28h-215v-124h255q18 0 26 -7.5t8 -25.5v-99q0 -28 -34 -28z" />
    <glyph glyph-name="eogonek" unicode="&#x119;" horiz-adv-x="537" 
d="M219 198q1 -41 19 -53t59 -12q82 0 134 16q13 5 29 5q20 0 26 -21q16 -59 16 -81q0 -21 -17 -30q-24 -13 -74 -22q-37 -28 -52 -40.5t-29 -34.5t-14 -47q0 -41 38 -41q9 0 24.5 1.5t17.5 1.5q12 0 18 -5t10 -20q5 -19 5 -37q0 -22 -30 -29q-28 -7 -68 -7q-70 0 -100 28.5
t-30 84.5q0 86 82 132h-4q-140 0 -194.5 62t-54.5 201q0 145 58 207t193 62q45 0 79.5 -7t58.5 -18.5t41 -32t26.5 -41t14.5 -52.5t6.5 -59.5t1.5 -68.5q0 -27 -14 -36q-9 -6 -25 -6h-251zM222 318h114q1 2 1 14q0 38 -10.5 52.5t-45.5 14.5q-32 0 -45 -19t-14 -62z" />
    <glyph glyph-name="Ecaron" unicode="&#x11a;" horiz-adv-x="572" 
d="M517 0h-413q-34 0 -34 35v632q0 39 34 39h394q18 0 26 -7.5t8 -25.5v-99q0 -28 -34 -28h-236v-102h215q18 0 26 -7.5t8 -25.5v-99q0 -28 -34 -28h-215v-124h255q18 0 26 -7.5t8 -25.5v-99q0 -28 -34 -28zM406 938h49q36 0 36 -24q0 -12 -12 -25l-94 -99q-31 -33 -62 -33
h-61q-31 0 -57 29l-94 103q-12 12 -12 25q0 24 36 24h51q30 0 53 -23l56 -54l59 55q22 22 52 22z" />
    <glyph glyph-name="ecaron" unicode="&#x11b;" horiz-adv-x="537" 
d="M219 198q1 -41 19 -53t59 -12q82 0 134 16q13 5 29 5q20 0 26 -21q16 -59 16 -81q0 -21 -17 -30q-31 -17 -91.5 -26t-114.5 -9q-140 0 -194.5 62t-54.5 201q0 145 58 207t193 62q45 0 79.5 -7t58.5 -18.5t41 -32t26.5 -41t14.5 -52.5t6.5 -59.5t1.5 -68.5q0 -27 -14 -36
q-9 -6 -25 -6h-251zM222 318h114q1 2 1 14q0 38 -10.5 52.5t-45.5 14.5q-32 0 -45 -19t-14 -62zM368 769h47q32 0 32 -24q0 -11 -11 -25l-77 -104q-25 -33 -48 -33h-73q-24 0 -49 33l-76 104q-10 13 -10 25q0 24 31 24h49q27 0 46 -23l46 -54l47 55q19 22 46 22z" />
    <glyph glyph-name="Gcircumflex" unicode="&#x11c;" horiz-adv-x="666" 
d="M612 67q0 -34 -26 -44q-35 -14 -109 -25t-152 -11q-151 0 -221 78t-70 277q0 201 74 289.5t247 88.5q110 0 192 -23q26 -7 26 -31q0 -42 -21 -99q-7 -17 -22 -17q-4 0 -8.5 1t-12 2t-12.5 2q-73 13 -113 13t-65.5 -7.5t-47 -29t-31.5 -65t-10 -110.5q0 -90 16.5 -138.5
t45 -64t78.5 -15.5q40 0 84 9v87h-82q-23 0 -23 24v112q0 24 22 24h214q27 0 27 -27v-300zM225 757h-49q-36 0 -36 24q0 12 12 25l94 99q31 33 62 33h61q31 0 57 -29l94 -103q12 -12 12 -25q0 -24 -36 -24h-51q-30 0 -53 23l-56 54l-59 -55q-22 -22 -52 -22z" />
    <glyph glyph-name="gcircumflex" unicode="&#x11d;" horiz-adv-x="545" 
d="M100 -4q-79 24 -79 111q0 74 68 107q-41 36 -41 126q0 94 56.5 136.5t174.5 42.5q60 0 107 -14h127q30 0 30 -32v-79q0 -32 -28 -32h-28q1 -5 1 -14q0 -93 -45.5 -140.5t-162.5 -47.5q-28 0 -43 1q-24 2 -27 2q-9 0 -15 -3q-8 -6 -8 -19q0 -17 20 -22q12 -3 109 -3
q77 0 122.5 -7.5t73 -29t37 -54.5t9.5 -89q0 -92 -60.5 -138t-213.5 -46q-83 0 -135.5 9t-79 28.5t-36 43.5t-9.5 61q0 36 19.5 63.5t56.5 38.5zM384 -69q0 20 -11.5 26.5t-56.5 8.5q-31 1 -73 1q-21 0 -29 -5q-15 -10 -15 -32q0 -23 16 -32t75 -9q61 0 77.5 9t16.5 33z
M328 338q0 29 -12.5 39.5t-40.5 10.5t-41 -11t-13 -38q0 -31 13.5 -41.5t41.5 -10.5q52 0 52 51zM181 580h-47q-32 0 -32 24q0 11 11 25l77 104q25 33 48 33h73q24 0 49 -33l76 -104q10 -13 10 -25q0 -24 -31 -24h-49q-27 0 -46 23l-46 54l-47 -55q-19 -22 -46 -22z" />
    <glyph glyph-name="Gbreve" unicode="&#x11e;" horiz-adv-x="666" 
d="M612 67q0 -34 -26 -44q-35 -14 -109 -25t-152 -11q-151 0 -221 78t-70 277q0 201 74 289.5t247 88.5q110 0 192 -23q26 -7 26 -31q0 -42 -21 -99q-7 -17 -22 -17q-4 0 -8.5 1t-12 2t-12.5 2q-73 13 -113 13t-65.5 -7.5t-47 -29t-31.5 -65t-10 -110.5q0 -90 16.5 -138.5
t45 -64t78.5 -15.5q40 0 84 9v87h-82q-23 0 -23 24v112q0 24 22 24h214q27 0 27 -27v-300zM476 923q30 0 30 -27q0 -28 -8 -50q-17 -48 -53 -71.5t-111 -23.5q-134 0 -160 93q-6 16 -6 46q0 33 34 33h29q34 0 40 -27q9 -42 66 -42q34 0 47 9.5t22 31.5q11 28 39 28h31z" />
    <glyph glyph-name="gbreve" unicode="&#x11f;" horiz-adv-x="545" 
d="M100 -4q-79 24 -79 111q0 74 68 107q-41 36 -41 126q0 94 56.5 136.5t174.5 42.5q60 0 107 -14h127q30 0 30 -32v-79q0 -32 -28 -32h-28q1 -5 1 -14q0 -93 -45.5 -140.5t-162.5 -47.5q-28 0 -43 1q-24 2 -27 2q-9 0 -15 -3q-8 -6 -8 -19q0 -17 20 -22q12 -3 109 -3
q77 0 122.5 -7.5t73 -29t37 -54.5t9.5 -89q0 -92 -60.5 -138t-213.5 -46q-83 0 -135.5 9t-79 28.5t-36 43.5t-9.5 61q0 36 19.5 63.5t56.5 38.5zM384 -69q0 20 -11.5 26.5t-56.5 8.5q-31 1 -73 1q-21 0 -29 -5q-15 -10 -15 -32q0 -23 16 -32t75 -9q61 0 77.5 9t16.5 33z
M328 338q0 29 -12.5 39.5t-40.5 10.5t-41 -11t-13 -38q0 -31 13.5 -41.5t41.5 -10.5q52 0 52 51zM413 753q28 0 28 -29q0 -30 -7 -51q-17 -51 -51 -76.5t-107 -25.5q-128 0 -154 99q-5 20 -5 47q0 36 31 36h29q32 0 38 -29q11 -51 64 -51q22 0 36.5 8t19.5 17t11 25
q10 30 37 30h30z" />
    <glyph glyph-name="Gdotaccent" unicode="&#x120;" horiz-adv-x="666" 
d="M612 67q0 -34 -26 -44q-35 -14 -109 -25t-152 -11q-151 0 -221 78t-70 277q0 201 74 289.5t247 88.5q110 0 192 -23q26 -7 26 -31q0 -42 -21 -99q-7 -17 -22 -17q-4 0 -8.5 1t-12 2t-12.5 2q-73 13 -113 13t-65.5 -7.5t-47 -29t-31.5 -65t-10 -110.5q0 -90 16.5 -138.5
t45 -64t78.5 -15.5q40 0 84 9v87h-82q-23 0 -23 24v112q0 24 22 24h214q27 0 27 -27v-300zM421 834q0 -77 -73 -77q-72 0 -72 76q0 77 72 77q73 0 73 -76z" />
    <glyph glyph-name="gdotaccent" unicode="&#x121;" horiz-adv-x="545" 
d="M100 -4q-79 24 -79 111q0 74 68 107q-41 36 -41 126q0 94 56.5 136.5t174.5 42.5q60 0 107 -14h127q30 0 30 -32v-79q0 -32 -28 -32h-28q1 -5 1 -14q0 -93 -45.5 -140.5t-162.5 -47.5q-28 0 -43 1q-24 2 -27 2q-9 0 -15 -3q-8 -6 -8 -19q0 -17 20 -22q12 -3 109 -3
q77 0 122.5 -7.5t73 -29t37 -54.5t9.5 -89q0 -92 -60.5 -138t-213.5 -46q-83 0 -135.5 9t-79 28.5t-36 43.5t-9.5 61q0 36 19.5 63.5t56.5 38.5zM384 -69q0 20 -11.5 26.5t-56.5 8.5q-31 1 -73 1q-21 0 -29 -5q-15 -10 -15 -32q0 -23 16 -32t75 -9q61 0 77.5 9t16.5 33z
M328 338q0 29 -12.5 39.5t-40.5 10.5t-41 -11t-13 -38q0 -31 13.5 -41.5t41.5 -10.5q52 0 52 51zM351 654q0 -77 -73 -77q-72 0 -72 76q0 77 72 77q73 0 73 -76z" />
    <glyph glyph-name="Gcommaaccent" unicode="&#x122;" horiz-adv-x="666" 
d="M612 67q0 -34 -26 -44q-35 -14 -109 -25t-152 -11q-151 0 -221 78t-70 277q0 201 74 289.5t247 88.5q110 0 192 -23q26 -7 26 -31q0 -42 -21 -99q-7 -17 -22 -17q-4 0 -8.5 1t-12 2t-12.5 2q-73 13 -113 13t-65.5 -7.5t-47 -29t-31.5 -65t-10 -110.5q0 -90 16.5 -138.5
t45 -64t78.5 -15.5q40 0 84 9v87h-82q-23 0 -23 24v112q0 24 22 24h214q27 0 27 -27v-300zM381 -60q21 0 29.5 -9.5t8.5 -31.5q0 -114 -61 -182q-20 -24 -40 -24q-15 0 -35 11t-20 26q0 12 9 33q18 48 18 129q0 48 45 48h46z" />
    <glyph glyph-name="gcommaaccent" unicode="&#x123;" horiz-adv-x="545" 
d="M100 -4q-79 24 -79 111q0 74 68 107q-41 36 -41 126q0 94 56.5 136.5t174.5 42.5q60 0 107 -14h127q30 0 30 -32v-79q0 -32 -28 -32h-28q1 -5 1 -14q0 -93 -45.5 -140.5t-162.5 -47.5q-28 0 -43 1q-24 2 -27 2q-9 0 -15 -3q-8 -6 -8 -19q0 -17 20 -22q12 -3 109 -3
q77 0 122.5 -7.5t73 -29t37 -54.5t9.5 -89q0 -92 -60.5 -138t-213.5 -46q-83 0 -135.5 9t-79 28.5t-36 43.5t-9.5 61q0 36 19.5 63.5t56.5 38.5zM384 -69q0 20 -11.5 26.5t-56.5 8.5q-31 1 -73 1q-21 0 -29 -5q-15 -10 -15 -32q0 -23 16 -32t75 -9q61 0 77.5 9t16.5 33z
M328 338q0 29 -12.5 39.5t-40.5 10.5t-41 -11t-13 -38q0 -31 13.5 -41.5t41.5 -10.5q52 0 52 51zM290 575h-46q-21 0 -29.5 9.5t-8.5 31.5q0 114 61 182q20 24 40 24q15 0 35 -11t20 -26q0 -12 -9 -33q-18 -48 -18 -129q0 -48 -45 -48z" />
    <glyph glyph-name="Hcircumflex" unicode="&#x124;" horiz-adv-x="720" 
d="M262 36q0 -17 -10 -26.5t-25 -9.5h-124q-33 0 -33 36v634q0 36 34 36h126q32 0 32 -35v-227h196v226q0 36 34 36h126q32 0 32 -35v-635q0 -17 -10 -26.5t-25 -9.5h-124q-33 0 -33 36v248h-196v-248zM249 757h-49q-36 0 -36 24q0 12 12 25l94 99q31 33 62 33h61
q31 0 57 -29l94 -103q12 -12 12 -25q0 -24 -36 -24h-51q-30 0 -53 23l-56 54l-59 -55q-22 -22 -52 -22z" />
    <glyph glyph-name="hcircumflex" unicode="&#x125;" horiz-adv-x="602" 
d="M244 34q0 -16 -9 -25t-23 -9h-124q-30 0 -30 34v672q0 42 38 42h111q21 0 29 -10.5t8 -32.5v-236q53 48 140 48q130 0 154 -64q11 -29 11 -98v-321q0 -34 -30 -34h-126q-30 0 -30 34v278q0 21 -3 32q-8 24 -45 24q-17 0 -40 -5q-17 -5 -24 -14q-7 -11 -7 -32v-283z
M75 787h-49q-36 0 -36 24q0 11 12 25l94 99q31 33 62 33h61q31 0 57 -29l94 -103q12 -12 12 -25q0 -24 -36 -24h-51q-30 0 -53 23l-56 54l-59 -55q-22 -22 -52 -22z" />
    <glyph glyph-name="Hbar" unicode="&#x126;" horiz-adv-x="720" 
d="M262 36q0 -17 -10 -26.5t-25 -9.5h-124q-33 0 -33 36v450h-24q-34 0 -34 32v74q0 30 34 30h24v48q0 36 34 36h126q32 0 32 -35v-49h196v48q0 36 34 36h126q32 0 32 -35v-49h23q34 0 34 -31v-76q0 -17 -8 -23t-25 -6h-24v-450q0 -17 -10 -26.5t-25 -9.5h-124q-33 0 -33 36
v248h-196v-248zM262 444h196v42h-196v-42z" />
    <glyph glyph-name="hbar" unicode="&#x127;" horiz-adv-x="602" 
d="M244 34q0 -16 -9 -25t-23 -9h-124q-30 0 -30 34v530h-15q-34 0 -34 32v58q0 33 35 33h14v19q0 42 38 42h111q21 0 29 -10.5t8 -32.5v-18h73q34 0 34 -32v-62q0 -17 -8 -23t-25 -6h-74v-95q53 48 140 48q130 0 154 -64q11 -29 11 -98v-321q0 -34 -30 -34h-126
q-30 0 -30 34v278q0 21 -3 32q-8 24 -45 24q-17 0 -40 -5q-17 -5 -24 -14q-7 -11 -7 -32v-283z" />
    <glyph glyph-name="Itilde" unicode="&#x128;" horiz-adv-x="332" 
d="M262 36q0 -17 -10 -26.5t-25 -9.5h-124q-33 0 -33 36v634q0 36 34 36h126q32 0 32 -35v-635zM41 750h-32q-30 0 -30 28q0 9 7 28q35 106 107 106q32 0 76 -23q32 -17 52 -17q25 0 38 22t39 22h25q30 0 30 -27q0 -15 -9 -37q-38 -95 -102 -95q-34 0 -86 26q-28 14 -45 14
q-22 0 -33 -19q-16 -28 -37 -28z" />
    <glyph glyph-name="itilde" unicode="&#x129;" horiz-adv-x="302" 
d="M32 576h-32q-29 0 -29 26q0 10 7 31q16 48 42 76.5t60 28.5q28 0 72 -24q28 -16 50 -16q21 0 32 22q10 22 38 22h27q29 0 29 -27q0 -12 -13 -47q-30 -85 -93 -85q-40 0 -83 26q-24 14 -40 14q-21 0 -32 -19q-6 -11 -9.5 -15.5t-10 -8.5t-15.5 -4zM244 34q0 -34 -32 -34
h-124q-30 0 -30 34v437q0 34 31 34h126q17 0 23 -8t6 -25v-438z" />
    <glyph glyph-name="Imacron" unicode="&#x12a;" horiz-adv-x="332" 
d="M262 36q0 -17 -10 -26.5t-25 -9.5h-124q-33 0 -33 36v634q0 36 34 36h126q32 0 32 -35v-635zM297 769h-261q-34 0 -34 32v54q0 30 34 30h260q34 0 34 -31v-56q0 -17 -8 -23t-25 -6z" />
    <glyph glyph-name="imacron" unicode="&#x12b;" horiz-adv-x="302" 
d="M244 34q0 -34 -32 -34h-124q-30 0 -30 34v437q0 34 31 34h126q17 0 23 -8t6 -25v-438zM275 589h-247q-34 0 -34 32v54q0 30 34 30h246q34 0 34 -31v-56q0 -17 -8 -23t-25 -6z" />
    <glyph glyph-name="Ibreve" unicode="&#x12c;" horiz-adv-x="332" 
d="M262 36q0 -17 -10 -26.5t-25 -9.5h-124q-33 0 -33 36v634q0 36 34 36h126q32 0 32 -35v-635zM306 923q30 0 30 -27q0 -28 -8 -50q-17 -48 -53 -71.5t-111 -23.5q-134 0 -160 93q-6 16 -6 46q0 33 34 33h29q34 0 40 -27q9 -42 66 -42q34 0 47 9.5t22 31.5q11 28 39 28h31z
" />
    <glyph glyph-name="ibreve" unicode="&#x12d;" horiz-adv-x="302" 
d="M244 34q0 -34 -32 -34h-124q-30 0 -30 34v437q0 34 31 34h126q17 0 23 -8t6 -25v-438zM285 753q28 0 28 -29q0 -30 -7 -51q-17 -51 -51 -76.5t-107 -25.5q-128 0 -154 99q-5 20 -5 47q0 36 31 36h29q32 0 38 -29q11 -51 64 -51q22 0 36.5 8t19.5 17t11 25q10 30 37 30h30
z" />
    <glyph glyph-name="Iogonek" unicode="&#x12e;" horiz-adv-x="332" 
d="M264 36q0 -17 -10 -26.5t-25 -9.5h-14q-39 -30 -53.5 -42t-29.5 -35.5t-15 -49.5q0 -44 39 -44q9 0 25 2t18 2q21 0 28 -27q6 -18 6 -38q0 -22 -31 -30q-28 -8 -70 -8q-72 0 -102.5 29.5t-30.5 88.5t29.5 93t81.5 59h-5q-33 0 -33 36v634q0 36 34 36h126q32 0 32 -35
v-635z" />
    <glyph glyph-name="iogonek" unicode="&#x12f;" horiz-adv-x="302" 
d="M244 34q0 -34 -32 -34h-9q-38 -29 -52.5 -41t-29 -34t-14.5 -47q0 -41 38 -41q9 0 24.5 1.5t17.5 1.5q12 0 18 -5t10 -20q5 -19 5 -37q0 -22 -30 -29q-28 -7 -68 -7q-70 0 -100 28.5t-30 84.5t28.5 88.5t78.5 56.5h-11q-30 0 -30 34v437q0 34 31 34h126q17 0 23 -8t6 -25
v-438zM246 654q0 -93 -95 -93q-93 0 -93 92q0 94 93 94q46 0 70.5 -21t24.5 -72z" />
    <glyph glyph-name="Idotaccent" unicode="&#x130;" horiz-adv-x="332" 
d="M262 36q0 -17 -10 -26.5t-25 -9.5h-124q-33 0 -33 36v634q0 36 34 36h126q32 0 32 -35v-635zM240 834q0 -77 -73 -77q-72 0 -72 76q0 77 72 77q73 0 73 -76z" />
    <glyph glyph-name="dotlessi" unicode="&#x131;" horiz-adv-x="302" 
d="M244 34q0 -34 -32 -34h-124q-30 0 -30 34v437q0 34 31 34h126q17 0 23 -8t6 -25v-438z" />
    <glyph glyph-name="IJ" unicode="&#x132;" horiz-adv-x="690" 
d="M262 36q0 -17 -10 -26.5t-25 -9.5h-124q-33 0 -33 36v634q0 36 34 36h126q32 0 32 -35v-635zM622 671v-550q0 -111 -48 -165q-52 -59 -196 -59q-40 0 -56 5q-22 7 -22 32q0 49 6 83q6 32 29 32q5 0 17.5 -0.5t19.5 -0.5q31 0 44 13q14 14 14 88v521q0 36 34 36h126
q32 0 32 -35z" />
    <glyph glyph-name="ij" unicode="&#x133;" horiz-adv-x="604" 
d="M244 34q0 -34 -32 -34h-124q-30 0 -30 34v437q0 34 31 34h126q17 0 23 -8t6 -25v-438zM246 654q0 -93 -95 -93q-93 0 -93 92q0 94 93 94q46 0 70.5 -21t24.5 -72zM546 472v-497q0 -119 -36 -161q-28 -32 -75 -47t-147 -15q-45 0 -45 37q0 57 2 75q3 33 35 36q52 4 62 11
q18 12 18 59v501q0 34 31 34h126q17 0 23 -8t6 -25zM548 654q0 -93 -95 -93q-93 0 -93 92q0 94 93 94q46 0 70.5 -21t24.5 -72z" />
    <glyph glyph-name="Jcircumflex" unicode="&#x134;" horiz-adv-x="358" 
d="M290 671v-550q0 -111 -48 -165q-52 -59 -196 -59q-40 0 -56 5q-22 7 -22 32q0 49 6 83q6 32 29 32q5 0 17.5 -0.5t19.5 -0.5q31 0 44 13q14 14 14 88v521q0 36 34 36h126q32 0 32 -35zM81 757h-49q-36 0 -36 24q0 12 12 25l94 99q31 33 62 33h61q31 0 57 -29l94 -103
q12 -12 12 -25q0 -24 -36 -24h-51q-30 0 -53 23l-56 54l-59 -55q-22 -22 -52 -22z" />
    <glyph glyph-name="jcircumflex" unicode="&#x135;" horiz-adv-x="302" 
d="M244 472v-497q0 -119 -36 -161q-28 -32 -75 -47t-147 -15q-45 0 -45 37q0 57 2 75q3 33 35 36q52 4 62 11q18 12 18 59v501q0 34 31 34h126q17 0 23 -8t6 -25zM58 580h-47q-32 0 -32 24q0 11 11 25l77 104q25 33 48 33h73q24 0 49 -33l76 -104q10 -13 10 -25
q0 -24 -31 -24h-49q-27 0 -46 23l-46 54l-47 -55q-19 -22 -46 -22z" />
    <glyph glyph-name="Kcommaaccent" unicode="&#x136;" horiz-adv-x="670" 
d="M262 36q0 -17 -10 -26.5t-25 -9.5h-124q-33 0 -33 36v634q0 36 34 36h126q32 0 32 -35v-228h32q35 0 47 23l105 213q14 27 43 27h124q29 0 29 -24q0 -10 -10 -30q-98 -186 -152 -279q12 -24 169 -310q14 -24 14 -38q0 -11 -8.5 -18t-19.5 -7h-143q-27 0 -40 24l-124 242
q-9 18 -41 18h-25v-248zM390 -60q21 0 29.5 -9.5t8.5 -31.5q0 -114 -61 -182q-20 -24 -40 -24q-15 0 -35 11t-20 26q0 12 9 33q18 48 18 129q0 48 45 48h46z" />
    <glyph glyph-name="kcommaaccent" unicode="&#x137;" horiz-adv-x="594" 
d="M244 34q0 -34 -32 -34h-124q-30 0 -30 34v680q0 34 31 34h126q17 0 23 -8t6 -25v-362h27q34 0 46 23l56 106q12 23 42 23h119q27 0 27 -24q0 -6 -10 -26q-30 -56 -100 -167l126 -231q14 -26 14 -34q0 -11 -8.5 -17t-19.5 -6h-136q-27 0 -40 24l-85 161q-9 18 -41 18h-17
v-169zM339 -60q21 0 29.5 -9.5t8.5 -31.5q0 -114 -61 -182q-20 -24 -40 -24q-15 0 -35 11t-20 26q0 12 9 33q18 48 18 129q0 48 45 48h46z" />
    <glyph glyph-name="kgreenlandic" unicode="&#x138;" horiz-adv-x="594" 
d="M244 34q0 -34 -32 -34h-124q-30 0 -30 34v436q0 34 31 34h126q17 0 23 -8t6 -25v-128h26q35 0 46 23l57 116q12 23 42 23h119q27 0 27 -24q0 -6 -10 -26q-60 -108 -101 -173l127 -225q14 -26 14 -34q0 -11 -8.5 -17t-19.5 -6h-136q-27 0 -40 24l-84 151q-10 18 -41 18
h-18v-159z" />
    <glyph glyph-name="Lacute" unicode="&#x139;" horiz-adv-x="582" 
d="M507 0h-403q-34 0 -34 35v635q0 36 34 36h126q32 0 32 -35v-511h245q18 0 26 -7.5t8 -25.5v-99q0 -28 -34 -28zM210 773q-27 -16 -55 -16h-66q-26 0 -26 18q0 15 16 30l103 90q26 23 58 23h103q31 0 31 -20q0 -19 -18 -30z" />
    <glyph glyph-name="lacute" unicode="&#x13a;" horiz-adv-x="302" 
d="M244 34q0 -34 -32 -34h-124q-30 0 -30 34v680q0 34 31 34h126q17 0 23 -8t6 -25v-681zM170 793q-27 -16 -55 -16h-66q-26 0 -26 18q0 15 16 30l103 90q26 23 58 23h103q31 0 31 -20q0 -19 -18 -30z" />
    <glyph glyph-name="Lcommaaccent" unicode="&#x13b;" horiz-adv-x="582" 
d="M507 0h-403q-34 0 -34 35v635q0 36 34 36h126q32 0 32 -35v-511h245q18 0 26 -7.5t8 -25.5v-99q0 -28 -34 -28zM341 -60q21 0 29.5 -9.5t8.5 -31.5q0 -114 -61 -182q-20 -24 -40 -24q-15 0 -35 11t-20 26q0 12 9 33q18 48 18 129q0 48 45 48h46z" />
    <glyph glyph-name="lcommaaccent" unicode="&#x13c;" horiz-adv-x="302" 
d="M244 34q0 -34 -32 -34h-124q-30 0 -30 34v680q0 34 31 34h126q17 0 23 -8t6 -25v-681zM183 -60q21 0 29.5 -9.5t8.5 -31.5q0 -114 -61 -182q-20 -24 -40 -24q-15 0 -35 11t-20 26q0 12 9 33q18 48 18 129q0 48 45 48h46z" />
    <glyph glyph-name="Lcaron" unicode="&#x13d;" horiz-adv-x="582" 
d="M507 0h-403q-34 0 -34 35v635q0 36 34 36h126q32 0 32 -35v-511h245q18 0 26 -7.5t8 -25.5v-99q0 -28 -34 -28zM451 726q21 0 29.5 -9.5t8.5 -31.5q0 -114 -61 -182q-20 -24 -40 -24q-15 0 -35 11t-20 26q0 12 9 33q18 48 18 129q0 48 45 48h46z" />
    <glyph glyph-name="lcaron" unicode="&#x13e;" horiz-adv-x="302" 
d="M244 34q0 -34 -32 -34h-124q-30 0 -30 34v680q0 34 31 34h126q17 0 23 -8t6 -25v-681zM416 748q21 0 29.5 -9.5t8.5 -31.5q0 -114 -61 -182q-20 -24 -40 -24q-15 0 -35 11t-20 26q0 12 9 33q18 48 18 129q0 48 45 48h46z" />
    <glyph glyph-name="Ldot" unicode="&#x13f;" horiz-adv-x="582" 
d="M507 0h-403q-34 0 -34 35v635q0 36 34 36h126q32 0 32 -35v-511h245q18 0 26 -7.5t8 -25.5v-99q0 -28 -34 -28zM546 365q0 -100 -101 -100q-42 0 -69.5 22.5t-27.5 76.5q0 103 100 103q45 0 71.5 -22.5t26.5 -79.5z" />
    <glyph glyph-name="ldot" unicode="&#x140;" horiz-adv-x="452" 
d="M244 34q0 -34 -32 -34h-124q-30 0 -30 34v680q0 34 31 34h126q17 0 23 -8t6 -25v-681zM470 365q0 -96 -95 -96q-90 0 -90 95q0 99 93 99q43 0 67.5 -21.5t24.5 -76.5z" />
    <glyph glyph-name="Lslash" unicode="&#x141;" horiz-adv-x="582" 
d="M507 0h-403q-34 0 -34 35v151q-6 -2 -15 -2q-11 1 -23 15q-46 70 -45 81q2 15 16 25l67 45v320q0 36 34 36h126q32 0 32 -35v-192l73 49q12 8 24 8q12 -1 21 -15q50 -70 49 -81q-1 -15 -16 -25l-151 -102v-153h245q18 0 26 -7.5t8 -25.5v-99q0 -28 -34 -28z" />
    <glyph glyph-name="lslash" unicode="&#x142;" horiz-adv-x="302" 
d="M244 34q0 -34 -32 -34h-124q-30 0 -30 34v211q-14 -7 -23 -6q-11 1 -20 14q-37 60 -36 73q0 11 19 24l60 37v327q0 34 31 34h126q17 0 23 -8t6 -25v-214q11 8 23 7q14 -1 20 -14q38 -61 37 -73t-19 -24l-61 -38v-325z" />
    <glyph glyph-name="Nacute" unicode="&#x143;" horiz-adv-x="716" 
d="M256 36q0 -17 -10 -26.5t-25 -9.5h-118q-33 0 -33 36v634q0 36 34 36h111q29 0 45 -26q187 -303 201 -328q-1 102 -1 316q0 38 34 38h120q32 0 32 -35v-635q0 -17 -10 -26.5t-25 -9.5h-98q-20 0 -31 5.5t-22 21.5q-156 250 -205 335q1 -52 1 -326zM393 773
q-27 -16 -55 -16h-66q-26 0 -26 18q0 15 16 30l103 90q26 23 58 23h103q31 0 31 -20q0 -19 -18 -30z" />
    <glyph glyph-name="nacute" unicode="&#x144;" horiz-adv-x="602" 
d="M244 34q0 -16 -9 -25t-23 -9h-124q-30 0 -30 34v429q0 42 38 42h108q18 0 26 -6t11 -21l2 -9q53 48 141 48q130 0 154 -64q11 -29 11 -98v-321q0 -34 -30 -34h-126q-30 0 -30 34v278q0 23 -3 34q-6 22 -45 22q-17 0 -40 -5q-17 -5 -24 -14q-7 -11 -7 -32v-283zM345 602
q-24 -22 -53 -22h-51q-32 0 -32 23q0 14 11 28l80 108q20 27 50 27h88q33 0 33 -23q0 -14 -14 -28z" />
    <glyph glyph-name="Ncommaaccent" unicode="&#x145;" horiz-adv-x="716" 
d="M256 36q0 -17 -10 -26.5t-25 -9.5h-118q-33 0 -33 36v634q0 36 34 36h111q29 0 45 -26q187 -303 201 -328q-1 102 -1 316q0 38 34 38h120q32 0 32 -35v-635q0 -17 -10 -26.5t-25 -9.5h-98q-20 0 -31 5.5t-22 21.5q-156 250 -205 335q1 -52 1 -326zM393 -60
q21 0 29.5 -9.5t8.5 -31.5q0 -114 -61 -182q-20 -24 -40 -24q-15 0 -35 11t-20 26q0 12 9 33q18 48 18 129q0 48 45 48h46z" />
    <glyph glyph-name="ncommaaccent" unicode="&#x146;" horiz-adv-x="602" 
d="M244 34q0 -16 -9 -25t-23 -9h-124q-30 0 -30 34v429q0 42 38 42h108q18 0 26 -6t11 -21l2 -9q53 48 141 48q130 0 154 -64q11 -29 11 -98v-321q0 -34 -30 -34h-126q-30 0 -30 34v278q0 23 -3 34q-6 22 -45 22q-17 0 -40 -5q-17 -5 -24 -14q-7 -11 -7 -32v-283zM325 -60
q21 0 29.5 -9.5t8.5 -31.5q0 -114 -61 -182q-20 -24 -40 -24q-15 0 -35 11t-20 26q0 12 9 33q18 48 18 129q0 48 45 48h46z" />
    <glyph glyph-name="Ncaron" unicode="&#x147;" horiz-adv-x="716" 
d="M256 36q0 -17 -10 -26.5t-25 -9.5h-118q-33 0 -33 36v634q0 36 34 36h111q29 0 45 -26q187 -303 201 -328q-1 102 -1 316q0 38 34 38h120q32 0 32 -35v-635q0 -17 -10 -26.5t-25 -9.5h-98q-20 0 -31 5.5t-22 21.5q-156 250 -205 335q1 -52 1 -326zM470 938h49
q36 0 36 -24q0 -12 -12 -25l-94 -99q-31 -33 -62 -33h-61q-31 0 -57 29l-94 103q-12 12 -12 25q0 24 36 24h51q30 0 53 -23l56 -54l59 55q22 22 52 22z" />
    <glyph glyph-name="ncaron" unicode="&#x148;" horiz-adv-x="602" 
d="M244 34q0 -16 -9 -25t-23 -9h-124q-30 0 -30 34v429q0 42 38 42h108q18 0 26 -6t11 -21l2 -9q53 48 141 48q130 0 154 -64q11 -29 11 -98v-321q0 -34 -30 -34h-126q-30 0 -30 34v278q0 23 -3 34q-6 22 -45 22q-17 0 -40 -5q-17 -5 -24 -14q-7 -11 -7 -32v-283zM379 769
h47q32 0 32 -24q0 -11 -11 -25l-77 -104q-25 -33 -48 -33h-73q-24 0 -49 33l-76 104q-10 13 -10 25q0 24 31 24h49q27 0 46 -23l46 -54l47 55q19 22 46 22z" />
    <glyph glyph-name="napostrophe" unicode="&#x149;" horiz-adv-x="602" 
d="M244 34q0 -16 -9 -25t-23 -9h-124q-30 0 -30 34v429q0 42 38 42h108q18 0 26 -6t11 -21l2 -9q53 48 141 48q130 0 154 -64q11 -29 11 -98v-321q0 -34 -30 -34h-126q-30 0 -30 34v278q0 23 -3 34q-6 22 -45 22q-17 0 -40 -5q-17 -5 -24 -14q-7 -11 -7 -32v-283zM134 792
q21 0 29.5 -9.5t8.5 -31.5q0 -114 -61 -182q-20 -24 -40 -24q-15 0 -35 11t-20 26q0 12 9 33q18 48 18 129q0 48 45 48h46z" />
    <glyph glyph-name="Eng" unicode="&#x14a;" horiz-adv-x="716" 
d="M256 36q0 -17 -10 -26.5t-25 -9.5h-118q-33 0 -33 36v634q0 36 34 36h111q29 0 45 -26q187 -303 201 -328q-1 102 -1 316q0 38 34 38h120q32 0 32 -35v-667q0 -111 -48 -165q-52 -59 -196 -59q-40 0 -56 5q-22 7 -22 32q0 49 6 83q6 32 29 32q5 0 17.5 -0.5t19.5 -0.5
q31 0 44 13q14 14 14 74v19q-153 245 -199 325q1 -52 1 -326z" />
    <glyph glyph-name="eng" unicode="&#x14b;" horiz-adv-x="602" 
d="M244 34q0 -16 -9 -25t-23 -9h-124q-30 0 -30 34v429q0 42 38 42h108q18 0 26 -6t11 -21l2 -9q53 48 141 48q130 0 154 -64q11 -29 11 -98v-336q0 -110 -47 -163q-52 -58 -190 -58q-39 0 -55 5q-21 7 -21 30q0 46 6 78q4 30 28 30q5 0 17 -0.5t19 -0.5q27 0 43 13
q14 12 14 87v272q0 23 -3 34q-6 22 -45 22q-17 0 -40 -5q-17 -5 -24 -14q-7 -11 -7 -32v-283z" />
    <glyph glyph-name="Omacron" unicode="&#x14c;" horiz-adv-x="705" 
d="M671 358q0 -109 -19 -181.5t-60.5 -114t-99.5 -58.5t-144 -17q-83 0 -139 16.5t-97 58t-59.5 114t-18.5 181.5q0 88 16.5 152.5t43.5 104.5t69.5 64t88.5 33t105 9q56 0 97 -5.5t78 -20t61.5 -40t42.5 -65.5t26.5 -97t8.5 -134zM473 355q0 90 -12.5 136t-37 61.5
t-71.5 15.5q-42 0 -67 -16t-40 -63.5t-15 -132.5q0 -90 14.5 -138.5t39 -64t67.5 -15.5q42 0 66.5 14.5t40 63.5t15.5 139zM486 769h-261q-34 0 -34 32v54q0 30 34 30h260q34 0 34 -31v-56q0 -17 -8 -23t-25 -6z" />
    <glyph glyph-name="omacron" unicode="&#x14d;" horiz-adv-x="571" 
d="M541 257q0 -154 -61 -212t-198 -58q-132 0 -192 57t-60 210q0 79 19 133t55.5 82t80.5 39t104 11q67 0 110 -9.5t77.5 -37t49.5 -80t15 -135.5zM354 252q0 72 -12 95t-55 23q-39 0 -54 -24t-15 -92q0 -73 14 -97t53 -24q40 0 54.5 23.5t14.5 95.5zM412 589h-247
q-34 0 -34 32v54q0 30 34 30h246q34 0 34 -31v-56q0 -17 -8 -23t-25 -6z" />
    <glyph glyph-name="Obreve" unicode="&#x14e;" horiz-adv-x="705" 
d="M671 358q0 -109 -19 -181.5t-60.5 -114t-99.5 -58.5t-144 -17q-83 0 -139 16.5t-97 58t-59.5 114t-18.5 181.5q0 88 16.5 152.5t43.5 104.5t69.5 64t88.5 33t105 9q56 0 97 -5.5t78 -20t61.5 -40t42.5 -65.5t26.5 -97t8.5 -134zM473 355q0 90 -12.5 136t-37 61.5
t-71.5 15.5q-42 0 -67 -16t-40 -63.5t-15 -132.5q0 -90 14.5 -138.5t39 -64t67.5 -15.5q42 0 66.5 14.5t40 63.5t15.5 139zM493 923q30 0 30 -27q0 -28 -8 -50q-17 -48 -53 -71.5t-111 -23.5q-134 0 -160 93q-6 16 -6 46q0 33 34 33h29q34 0 40 -27q9 -42 66 -42
q34 0 47 9.5t22 31.5q11 28 39 28h31z" />
    <glyph glyph-name="obreve" unicode="&#x14f;" horiz-adv-x="571" 
d="M541 257q0 -154 -61 -212t-198 -58q-132 0 -192 57t-60 210q0 79 19 133t55.5 82t80.5 39t104 11q67 0 110 -9.5t77.5 -37t49.5 -80t15 -135.5zM354 252q0 72 -12 95t-55 23q-39 0 -54 -24t-15 -92q0 -73 14 -97t53 -24q40 0 54.5 23.5t14.5 95.5zM418 753q28 0 28 -29
q0 -30 -7 -51q-17 -51 -51 -76.5t-107 -25.5q-128 0 -154 99q-5 20 -5 47q0 36 31 36h29q32 0 38 -29q11 -51 64 -51q32 0 45 13t22 37q10 30 37 30h30z" />
    <glyph glyph-name="Ohungarumlaut" unicode="&#x150;" horiz-adv-x="705" 
d="M671 358q0 -109 -19 -181.5t-60.5 -114t-99.5 -58.5t-144 -17q-83 0 -139 16.5t-97 58t-59.5 114t-18.5 181.5q0 88 16.5 152.5t43.5 104.5t69.5 64t88.5 33t105 9q56 0 97 -5.5t78 -20t61.5 -40t42.5 -65.5t26.5 -97t8.5 -134zM473 355q0 90 -12.5 136t-37 61.5
t-71.5 15.5q-42 0 -67 -16t-40 -63.5t-15 -132.5q0 -90 14.5 -138.5t39 -64t67.5 -15.5q42 0 66.5 14.5t40 63.5t15.5 139zM288 773q-25 -16 -55 -16h-58q-25 0 -25 18q0 16 15 30l93 90q24 23 58 23h82q30 0 30 -21q0 -15 -17 -29zM522 773q-25 -16 -55 -16h-58
q-25 0 -25 18q0 16 15 30l93 90q24 23 58 23h82q30 0 30 -21q0 -15 -17 -29z" />
    <glyph glyph-name="ohungarumlaut" unicode="&#x151;" horiz-adv-x="571" 
d="M541 257q0 -154 -61 -212t-198 -58q-132 0 -192 57t-60 210q0 79 19 133t55.5 82t80.5 39t104 11q67 0 110 -9.5t77.5 -37t49.5 -80t15 -135.5zM354 252q0 72 -12 95t-55 23q-39 0 -54 -24t-15 -92q0 -73 14 -97t53 -24q40 0 54.5 23.5t14.5 95.5zM239 603
q-20 -23 -52 -23h-36q-32 0 -32 24q0 14 11 28l70 107q18 27 49 27h63q32 0 32 -22q0 -16 -13 -32zM428 603q-20 -23 -53 -23h-34q-32 0 -32 24q0 11 11 29l70 106q18 27 49 27h62q32 0 32 -22q0 -16 -13 -32z" />
    <glyph glyph-name="OE" unicode="&#x152;" horiz-adv-x="952" 
d="M897 0h-432q-61 -7 -117 -7q-84 0 -139.5 15.5t-96.5 56t-59.5 112t-18.5 180.5t23.5 181.5t69.5 110t100.5 52t129.5 14.5q49 0 105 -9h416q18 0 26 -7.5t8 -25.5v-99q0 -28 -34 -28h-236v-102h215q18 0 26 -7.5t8 -25.5v-99q0 -28 -34 -28h-215v-124h255q18 0 26 -7.5
t8 -25.5v-99q0 -28 -34 -28zM450 159v395q-31 9 -79 9q-29 0 -46 -2.5t-37.5 -14t-31.5 -32.5t-18.5 -61t-7.5 -97q0 -73 8 -117.5t27.5 -64.5t39 -25t54.5 -5q57 0 91 15z" />
    <glyph glyph-name="oe" unicode="&#x153;" horiz-adv-x="856" 
d="M537 203q1 -41 22 -55.5t62 -14.5q75 0 127 16q12 5 29 5q20 0 26 -21q16 -59 16 -81q0 -21 -17 -30q-64 -35 -192 -35q-126 0 -174 47q-59 -47 -154 -47q-132 0 -192 57t-60 210q0 79 19 133t55.5 82t80.5 39t104 11q118 0 165 -43q49 43 150 43q61 0 103 -13.5
t65 -33.5t35.5 -59t15.5 -74t3 -94q0 -27 -14 -36q-9 -6 -25 -6h-250zM363 252q0 69 -16 93.5t-60 24.5q-40 0 -57.5 -25t-17.5 -91q0 -71 16.5 -96t57.5 -25t59 24.5t18 94.5zM540 322h120q1 2 1 10q0 36 -12 51.5t-45 15.5t-48 -18t-16 -59z" />
    <glyph glyph-name="Racute" unicode="&#x154;" horiz-adv-x="657" 
d="M261 36q0 -17 -10.5 -26.5t-24.5 -9.5h-123q-33 0 -33 36v632q0 18 8 28t32 10h163q158 0 222 -27q101 -41 101 -190q0 -139 -94 -189l124 -235q13 -26 13 -40q0 -11 -8 -18t-19 -7h-138q-27 0 -40 24l-108 239h-46h-19v-227zM366 773q-27 -16 -55 -16h-66q-26 0 -26 18
q0 15 16 30l103 90q26 23 58 23h103q31 0 31 -20q0 -19 -18 -30zM261 407h29q47 0 72 8q38 13 38 63q0 58 -36 70q-22 7 -73 7h-30v-148z" />
    <glyph glyph-name="racute" unicode="&#x155;" horiz-adv-x="424" 
d="M244 34q0 -16 -9 -25t-23 -9h-124q-30 0 -30 34v429q0 42 38 42h111q31 0 34 -23l2 -11q10 17 38.5 32t62.5 15t50 -5q22 -7 22 -34q0 -64 -9 -95q-5 -20 -32 -20q-12 0 -35 2t-30 2q-28 0 -48 -6q-10 -3 -15 -13q-3 -6 -3 -17v-298zM276 602q-24 -22 -53 -22h-51
q-32 0 -32 23q0 14 11 28l80 108q19 27 50 27h88q33 0 33 -23q0 -14 -14 -28z" />
    <glyph glyph-name="Rcommaaccent" unicode="&#x156;" horiz-adv-x="657" 
d="M261 36q0 -17 -10.5 -26.5t-24.5 -9.5h-123q-33 0 -33 36v632q0 18 8 28t32 10h163q158 0 222 -27q101 -41 101 -190q0 -139 -94 -189l124 -235q13 -26 13 -40q0 -11 -8 -18t-19 -7h-138q-27 0 -40 24l-108 239h-46h-19v-227zM358 -60q21 0 29.5 -9.5t8.5 -31.5
q0 -114 -61 -182q-20 -24 -40 -24q-15 0 -35 11t-20 26q0 12 9 33q18 48 18 129q0 48 45 48h46zM261 407h29q47 0 72 8q38 13 38 63q0 58 -36 70q-22 7 -73 7h-30v-148z" />
    <glyph glyph-name="rcommaaccent" unicode="&#x157;" horiz-adv-x="424" 
d="M244 34q0 -16 -9 -25t-23 -9h-124q-30 0 -30 34v429q0 42 38 42h111q31 0 34 -23l2 -11q10 17 38.5 32t62.5 15t50 -5q22 -7 22 -34q0 -64 -9 -95q-5 -20 -32 -20q-12 0 -35 2t-30 2q-28 0 -48 -6q-10 -3 -15 -13q-3 -6 -3 -17v-298zM184 -60q21 0 29.5 -9.5t8.5 -31.5
q0 -114 -61 -182q-20 -24 -40 -24q-15 0 -35 11t-20 26q0 12 9 33q18 48 18 129q0 48 45 48h46z" />
    <glyph glyph-name="Rcaron" unicode="&#x158;" horiz-adv-x="657" 
d="M261 36q0 -17 -10.5 -26.5t-24.5 -9.5h-123q-33 0 -33 36v632q0 18 8 28t32 10h163q158 0 222 -27q101 -41 101 -190q0 -139 -94 -189l124 -235q13 -26 13 -40q0 -11 -8 -18t-19 -7h-138q-27 0 -40 24l-108 239h-46h-19v-227zM414 938h49q36 0 36 -24q0 -12 -12 -25
l-94 -99q-31 -33 -62 -33h-61q-31 0 -57 29l-94 103q-12 12 -12 25q0 24 36 24h51q30 0 53 -23l56 -54l59 55q22 22 52 22zM261 407h29q47 0 72 8q38 13 38 63q0 58 -36 70q-22 7 -73 7h-30v-148z" />
    <glyph glyph-name="rcaron" unicode="&#x159;" horiz-adv-x="424" 
d="M244 34q0 -16 -9 -25t-23 -9h-124q-30 0 -30 34v429q0 42 38 42h111q31 0 34 -23l2 -11q10 17 38.5 32t62.5 15t50 -5q22 -7 22 -34q0 -64 -9 -95q-5 -20 -32 -20q-12 0 -35 2t-30 2q-28 0 -48 -6q-10 -3 -15 -13q-3 -6 -3 -17v-298zM303 769h47q32 0 32 -24
q0 -11 -11 -25l-77 -104q-25 -33 -48 -33h-73q-24 0 -49 33l-76 104q-10 13 -10 25q0 24 31 24h49q27 0 46 -23l46 -54l47 55q19 22 46 22z" />
    <glyph glyph-name="Sacute" unicode="&#x15a;" horiz-adv-x="600" 
d="M381 430q104 -27 139.5 -69.5t35.5 -142.5q0 -112 -64 -171.5t-218 -59.5q-141 0 -220 28q-29 11 -29 42q0 17 15 73q10 34 41 34q14 0 44 -9q65 -17 155 -17q45 0 61.5 13.5t16.5 41.5q0 33 -12.5 47t-48.5 21l-79 16q-93 19 -135.5 68t-42.5 149q0 226 270 226
q129 0 195 -23q28 -10 28 -43q0 -28 -12 -74q-7 -30 -32 -30q-22 0 -42 5q-77 12 -149 12q-62 0 -62 -56q0 -49 56 -61zM330 773q-27 -16 -55 -16h-66q-26 0 -26 18q0 15 16 30l103 90q26 23 58 23h103q31 0 31 -20q0 -19 -18 -30z" />
    <glyph glyph-name="sacute" unicode="&#x15b;" horiz-adv-x="478" 
d="M316 313q81 -19 109 -52t28 -108q0 -166 -221 -166q-130 0 -189 23q-22 9 -22 32q0 31 16 89q7 24 32 24q11 0 35 -6q63 -15 138 -15q33 0 33 20q0 11 -5.5 15t-24.5 8l-68 13q-73 14 -108 49t-35 113q0 76 52.5 121t166.5 45q112 0 162 -16q22 -8 22 -31q0 -30 -15 -89
q-5 -21 -26 -21q-15 0 -33 3q-58 9 -109 9q-39 0 -39 -17q0 -11 6 -16t29 -11zM287 602q-24 -22 -53 -22h-51q-32 0 -32 23q0 14 11 28l80 108q20 27 50 27h88q33 0 33 -23q0 -14 -14 -28z" />
    <glyph glyph-name="Scircumflex" unicode="&#x15c;" horiz-adv-x="600" 
d="M381 430q104 -27 139.5 -69.5t35.5 -142.5q0 -112 -64 -171.5t-218 -59.5q-141 0 -220 28q-29 11 -29 42q0 17 15 73q10 34 41 34q14 0 44 -9q65 -17 155 -17q45 0 61.5 13.5t16.5 41.5q0 33 -12.5 47t-48.5 21l-79 16q-93 19 -135.5 68t-42.5 149q0 226 270 226
q129 0 195 -23q28 -10 28 -43q0 -28 -12 -74q-7 -30 -32 -30q-22 0 -42 5q-77 12 -149 12q-62 0 -62 -56q0 -49 56 -61zM185 757h-49q-36 0 -36 24q0 12 12 25l94 99q31 33 62 33h61q31 0 57 -29l94 -103q12 -12 12 -25q0 -24 -36 -24h-51q-30 0 -53 23l-56 54l-59 -55
q-22 -22 -52 -22z" />
    <glyph glyph-name="scircumflex" unicode="&#x15d;" horiz-adv-x="478" 
d="M316 313q81 -19 109 -52t28 -108q0 -166 -221 -166q-130 0 -189 23q-22 9 -22 32q0 31 16 89q7 24 32 24q11 0 35 -6q63 -15 138 -15q33 0 33 20q0 11 -5.5 15t-24.5 8l-68 13q-73 14 -108 49t-35 113q0 76 52.5 121t166.5 45q112 0 162 -16q22 -8 22 -31q0 -30 -15 -89
q-5 -21 -26 -21q-15 0 -33 3q-58 9 -109 9q-39 0 -39 -17q0 -11 6 -16t29 -11zM152 580h-47q-32 0 -32 24q0 11 11 25l77 104q25 33 48 33h73q24 0 49 -33l76 -104q10 -13 10 -25q0 -24 -31 -24h-49q-27 0 -46 23l-46 54l-47 -55q-19 -22 -46 -22z" />
    <glyph glyph-name="Scedilla" unicode="&#x15e;" horiz-adv-x="600" 
d="M307 -46q31 -1 51 -11t28 -28.5t10 -33.5t2 -40q0 -115 -162 -115q-33 0 -52 4q-30 6 -30 33q0 21 4 36q4 17 10.5 22t21.5 5q4 0 16 -2t13 -2q9 -1 27 -1q14 0 20 4.5t6 17.5q0 24 -18 24q-4 0 -13 -0.5t-12 -0.5q-26 1 -26 23q0 15 5 35l14 64q-108 6 -168 27
q-29 11 -29 42q0 17 15 73q10 34 41 34q14 0 44 -9q65 -17 155 -17q45 0 61.5 13.5t16.5 41.5q0 33 -12.5 47t-48.5 21l-79 16q-93 19 -135.5 68t-42.5 149q0 226 270 226q129 0 195 -23q28 -10 28 -43q0 -28 -12 -74q-7 -30 -32 -30q-22 0 -42 5q-77 12 -149 12
q-62 0 -62 -56q0 -49 56 -61l89 -20q104 -27 139.5 -69.5t35.5 -142.5q0 -106 -55.5 -164t-188.5 -66z" />
    <glyph glyph-name="scedilla" unicode="&#x15f;" horiz-adv-x="478" 
d="M253 -43q30 -1 49 -10.5t26.5 -27t9.5 -32t2 -38.5q0 -110 -155 -110q-31 0 -50 4q-29 6 -29 31q0 20 4 35q4 16 10.5 20.5t20.5 4.5q4 0 28 -3q8 -1 26 -1q14 0 19 4t5 17q0 23 -17 23q-4 0 -12.5 -0.5t-11.5 -0.5q-25 1 -25 22q0 6 6 34l12 60q-84 4 -128 21
q-22 9 -22 32q0 31 16 89q7 24 32 24q11 0 35 -6q63 -15 138 -15q33 0 33 20q0 11 -5.5 15t-24.5 8l-68 13q-73 14 -108 49t-35 113q0 76 52.5 121t166.5 45q112 0 162 -16q22 -8 22 -31q0 -30 -15 -89q-5 -21 -26 -21q-15 0 -33 3q-58 9 -109 9q-39 0 -39 -17q0 -11 6 -16
t29 -11l66 -16q81 -19 109 -52t28 -108q0 -157 -195 -165z" />
    <glyph glyph-name="Scaron" unicode="&#x160;" horiz-adv-x="600" 
d="M381 430q104 -27 139.5 -69.5t35.5 -142.5q0 -112 -64 -171.5t-218 -59.5q-141 0 -220 28q-29 11 -29 42q0 17 15 73q10 34 41 34q14 0 44 -9q65 -17 155 -17q45 0 61.5 13.5t16.5 41.5q0 33 -12.5 47t-48.5 21l-79 16q-93 19 -135.5 68t-42.5 149q0 226 270 226
q129 0 195 -23q28 -10 28 -43q0 -28 -12 -74q-7 -30 -32 -30q-22 0 -42 5q-77 12 -149 12q-62 0 -62 -56q0 -49 56 -61zM421 938h49q36 0 36 -24q0 -12 -12 -25l-94 -99q-31 -33 -62 -33h-61q-31 0 -57 29l-94 103q-12 12 -12 25q0 24 36 24h51q30 0 53 -23l56 -54l59 55
q22 22 52 22z" />
    <glyph glyph-name="scaron" unicode="&#x161;" horiz-adv-x="478" 
d="M316 313q81 -19 109 -52t28 -108q0 -166 -221 -166q-130 0 -189 23q-22 9 -22 32q0 31 16 89q7 24 32 24q11 0 35 -6q63 -15 138 -15q33 0 33 20q0 11 -5.5 15t-24.5 8l-68 13q-73 14 -108 49t-35 113q0 76 52.5 121t166.5 45q112 0 162 -16q22 -8 22 -31q0 -30 -15 -89
q-5 -21 -26 -21q-15 0 -33 3q-58 9 -109 9q-39 0 -39 -17q0 -11 6 -16t29 -11zM334 769h47q32 0 32 -24q0 -11 -11 -25l-77 -104q-25 -33 -48 -33h-73q-24 0 -49 33l-76 104q-10 13 -10 25q0 24 31 24h49q27 0 46 -23l46 -54l47 55q19 22 46 22z" />
    <glyph glyph-name="uni0162" unicode="&#x162;" horiz-adv-x="643" 
d="M349 -46q31 -1 51 -11t28 -28.5t10 -33.5t2 -40q0 -115 -162 -115q-33 0 -52 4q-30 6 -30 33q0 21 4 36q4 17 10.5 22t21.5 5q4 0 16 -2t13 -2q9 -1 27 -1q14 0 20 4.5t6 17.5q0 24 -18 24q-4 0 -13 -0.5t-12 -0.5q-26 1 -26 23q0 15 5 35l17 76h-16q-33 0 -33 36v510
h-148q-34 0 -34 28v99q0 18 8 25.5t26 7.5h490q18 0 26 -7.5t8 -25.5v-99q0 -28 -34 -28h-149v-510q0 -17 -10 -26.5t-25 -9.5h-20z" />
    <glyph glyph-name="uni0163" unicode="&#x163;" horiz-adv-x="366" 
d="M234 -43q30 -1 49 -10.5t26.5 -27t9.5 -32t2 -38.5q0 -110 -155 -110q-31 0 -50 4q-29 6 -29 31q0 20 4 35q4 16 10.5 20.5t20.5 4.5q4 0 28 -3q8 -1 26 -1q14 0 19 4t5 17q0 23 -17 23q-4 0 -12.5 -0.5t-11.5 -0.5q-25 1 -25 22q0 6 6 34l15 71q-35 13 -52 36
q-31 38 -31 129v195h-42q-28 0 -28 29v82q0 15 9 24.5t26 9.5h39q1 43 5 97q3 37 34 37h113q30 0 30 -39v-95h53q18 0 25.5 -6t7.5 -21v-90q0 -28 -30 -28h-56v-138q0 -54 8 -73q7 -16 28 -16q6 0 19 0.5t17 0.5q23 0 28 -27q5 -34 5 -77q0 -29 -30 -35q-46 -8 -88 -8h-6z
" />
    <glyph glyph-name="Tcaron" unicode="&#x164;" horiz-adv-x="643" 
d="M411 36q0 -17 -10 -26.5t-25 -9.5h-125q-33 0 -33 36v510h-148q-34 0 -34 28v99q0 18 8 25.5t26 7.5h490q18 0 26 -7.5t8 -25.5v-99q0 -28 -34 -28h-149v-510zM423 938h49q36 0 36 -24q0 -12 -12 -25l-94 -99q-31 -33 -62 -33h-61q-31 0 -57 29l-94 103q-12 12 -12 25
q0 24 36 24h51q30 0 53 -23l56 -54l59 55q22 22 52 22z" />
    <glyph glyph-name="tcaron" unicode="&#x165;" horiz-adv-x="366" 
d="M258 360v-138q0 -54 8 -73q7 -16 28 -16q6 0 19 0.5t17 0.5q23 0 28 -27q5 -34 5 -77q0 -29 -30 -35q-46 -8 -88 -8q-103 0 -142 49q-31 38 -31 129v195h-42q-28 0 -28 29v82q0 15 9 24.5t26 9.5h39q1 43 5 97q3 37 34 37h113q30 0 30 -39v-95h53q18 0 25.5 -6t7.5 -21
v-90q0 -28 -30 -28h-56zM416 787q21 0 29.5 -9.5t8.5 -31.5q0 -114 -61 -182q-20 -24 -40 -24q-15 0 -35 11t-20 26q0 12 9 33q18 48 18 129q0 48 45 48h46z" />
    <glyph glyph-name="Tbar" unicode="&#x166;" horiz-adv-x="643" 
d="M417 36q0 -17 -10.5 -26.5t-24.5 -9.5h-125q-33 0 -33 36v258h-102q-34 0 -34 32v74q0 30 34 30h102v116h-148q-34 0 -34 28v99q0 18 8 25.5t26 7.5h490q18 0 26 -7.5t8 -25.5v-99q0 -28 -34 -28h-149v-116h104q34 0 34 -31v-76q0 -17 -8 -23t-25 -6h-105v-258z" />
    <glyph glyph-name="tbar" unicode="&#x167;" horiz-adv-x="366" 
d="M258 360v-40h39q34 0 34 -32v-62q0 -17 -8 -23t-25 -6h-40q2 -35 8 -48q7 -16 28 -16q6 0 19 0.5t17 0.5q23 0 28 -27q5 -34 5 -77q0 -29 -30 -35q-46 -8 -88 -8q-103 0 -142 49q-31 38 -31 129v32h-32q-34 0 -34 32v58q0 33 35 33h31v40h-42q-28 0 -28 29v82
q0 15 9 24.5t26 9.5h39q1 43 5 97q3 37 34 37h113q30 0 30 -39v-95h53q18 0 25.5 -6t7.5 -21v-90q0 -28 -30 -28h-56z" />
    <glyph glyph-name="Utilde" unicode="&#x168;" horiz-adv-x="706" 
d="M643 673v-391q0 -147 -32 -198q-62 -98 -268 -98q-209 0 -256 103q-24 53 -24 191v392q0 14 9 24t24 10h130q29 0 29 -33v-426q0 -61 19 -84q20 -25 80 -25q65 0 86 23t21 85v426q0 14 9 24t24 10h120q29 0 29 -33zM234 750h-32q-30 0 -30 28q0 9 7 28q35 106 107 106
q32 0 76 -23q32 -17 52 -17q25 0 38 22t39 22h25q30 0 30 -27q0 -15 -9 -37q-38 -95 -102 -95q-34 0 -86 26q-28 14 -45 14q-22 0 -33 -19q-16 -28 -37 -28z" />
    <glyph glyph-name="utilde" unicode="&#x169;" horiz-adv-x="602" 
d="M359 37q-52 -49 -141 -49q-130 0 -154 64q-11 29 -11 98v321q0 34 30 34h126q30 0 30 -34v-278q0 -21 3 -32q8 -24 45 -24q17 0 40 5q17 5 24 14q7 10 7 32v283q0 16 9 25t23 9h124q30 0 30 -34v-429q0 -42 -38 -42h-108q-19 0 -27 5.5t-10 19.5zM183 576h-32
q-29 0 -29 26q0 10 7 31q16 48 42 76.5t60 28.5q28 0 72 -24q28 -16 50 -16q21 0 32 22q10 22 38 22h27q29 0 29 -27q0 -12 -13 -47q-30 -85 -93 -85q-40 0 -83 26q-24 14 -40 14q-21 0 -32 -19q-6 -11 -9.5 -15.5t-10 -8.5t-15.5 -4z" />
    <glyph glyph-name="Umacron" unicode="&#x16a;" horiz-adv-x="706" 
d="M643 673v-391q0 -147 -32 -198q-62 -98 -268 -98q-209 0 -256 103q-24 53 -24 191v392q0 14 9 24t24 10h130q29 0 29 -33v-426q0 -61 19 -84q20 -25 80 -25q65 0 86 23t21 85v426q0 14 9 24t24 10h120q29 0 29 -33zM488 769h-261q-34 0 -34 32v54q0 30 34 30h260
q34 0 34 -31v-56q0 -17 -8 -23t-25 -6z" />
    <glyph glyph-name="umacron" unicode="&#x16b;" horiz-adv-x="602" 
d="M359 37q-52 -49 -141 -49q-130 0 -154 64q-11 29 -11 98v321q0 34 30 34h126q30 0 30 -34v-278q0 -21 3 -32q8 -24 45 -24q17 0 40 5q17 5 24 14q7 10 7 32v283q0 16 9 25t23 9h124q30 0 30 -34v-429q0 -42 -38 -42h-108q-19 0 -27 5.5t-10 19.5zM418 589h-247
q-34 0 -34 32v54q0 30 34 30h246q34 0 34 -31v-56q0 -17 -8 -23t-25 -6z" />
    <glyph glyph-name="Ubreve" unicode="&#x16c;" horiz-adv-x="706" 
d="M643 673v-391q0 -147 -32 -198q-62 -98 -268 -98q-209 0 -256 103q-24 53 -24 191v392q0 14 9 24t24 10h130q29 0 29 -33v-426q0 -61 19 -84q20 -25 80 -25q65 0 86 23t21 85v426q0 14 9 24t24 10h120q29 0 29 -33zM497 923q30 0 30 -27q0 -28 -8 -50q-17 -48 -53 -71.5
t-111 -23.5q-134 0 -160 93q-6 16 -6 46q0 33 34 33h29q34 0 40 -27q9 -42 66 -42q34 0 47 9.5t22 31.5q11 28 39 28h31z" />
    <glyph glyph-name="ubreve" unicode="&#x16d;" horiz-adv-x="602" 
d="M359 37q-52 -49 -141 -49q-130 0 -154 64q-11 29 -11 98v321q0 34 30 34h126q30 0 30 -34v-278q0 -21 3 -32q8 -24 45 -24q17 0 40 5q17 5 24 14q7 10 7 32v283q0 16 9 25t23 9h124q30 0 30 -34v-429q0 -42 -38 -42h-108q-19 0 -27 5.5t-10 19.5zM430 753q28 0 28 -29
q0 -30 -7 -51q-17 -51 -51 -76.5t-107 -25.5q-128 0 -154 99q-5 20 -5 47q0 36 31 36h29q32 0 38 -29q11 -51 64 -51q32 0 45 13t22 37q10 30 37 30h30z" />
    <glyph glyph-name="Uring" unicode="&#x16e;" horiz-adv-x="706" 
d="M643 673v-391q0 -147 -32 -198q-62 -98 -268 -98q-209 0 -256 103q-24 53 -24 191v392q0 14 9 24t24 10h130q29 0 29 -33v-426q0 -61 19 -84q20 -25 80 -25q65 0 86 23t21 85v426q0 14 9 24t24 10h120q29 0 29 -33zM454 833q0 -46 -26.5 -71t-71.5 -25q-43 0 -68 25
t-25 71q0 47 26 73t70 26q45 0 70 -26t25 -73zM407 835q0 55 -50 55q-22 0 -36 -14.5t-14 -41.5q0 -26 13.5 -40.5t37.5 -14.5q49 0 49 56z" />
    <glyph glyph-name="uring" unicode="&#x16f;" horiz-adv-x="602" 
d="M359 37q-52 -49 -141 -49q-130 0 -154 64q-11 29 -11 98v321q0 34 30 34h126q30 0 30 -34v-278q0 -21 3 -32q8 -24 45 -24q17 0 40 5q17 5 24 14q7 10 7 32v283q0 16 9 25t23 9h124q30 0 30 -34v-429q0 -42 -38 -42h-108q-19 0 -27 5.5t-10 19.5zM398 670
q0 -48 -28.5 -73.5t-75.5 -25.5q-45 0 -72 25.5t-27 73.5t28 75t74 27q47 0 74 -27t27 -75zM349 672q0 58 -54 58q-24 0 -39 -15.5t-15 -43.5t14.5 -43t40.5 -15q53 0 53 59z" />
    <glyph glyph-name="Uhungarumlaut" unicode="&#x170;" horiz-adv-x="706" 
d="M643 673v-391q0 -147 -32 -198q-62 -98 -268 -98q-209 0 -256 103q-24 53 -24 191v392q0 14 9 24t24 10h130q29 0 29 -33v-426q0 -61 19 -84q20 -25 80 -25q65 0 86 23t21 85v426q0 14 9 24t24 10h120q29 0 29 -33zM278 773q-25 -16 -55 -16h-58q-25 0 -25 18q0 16 15 30
l93 90q24 23 58 23h82q30 0 30 -21q0 -15 -17 -29zM512 773q-25 -16 -55 -16h-58q-25 0 -25 18q0 16 15 30l93 90q24 23 58 23h82q30 0 30 -21q0 -15 -17 -29z" />
    <glyph glyph-name="uhungarumlaut" unicode="&#x171;" horiz-adv-x="602" 
d="M359 37q-52 -49 -141 -49q-130 0 -154 64q-11 29 -11 98v321q0 34 30 34h126q30 0 30 -34v-278q0 -21 3 -32q8 -24 45 -24q17 0 40 5q17 5 24 14q7 10 7 32v283q0 16 9 25t23 9h124q30 0 30 -34v-429q0 -42 -38 -42h-108q-19 0 -27 5.5t-10 19.5zM259 603
q-20 -23 -52 -23h-36q-32 0 -32 24q0 14 11 28l70 107q18 27 49 27h63q32 0 32 -22q0 -16 -13 -32zM448 603q-20 -23 -53 -23h-34q-32 0 -32 24q0 11 11 29l70 106q18 27 49 27h62q32 0 32 -22q0 -16 -13 -32z" />
    <glyph glyph-name="Uogonek" unicode="&#x172;" horiz-adv-x="706" 
d="M643 673v-391q0 -147 -32 -198q-49 -79 -199 -94q-31 -24 -45.5 -37t-26.5 -34.5t-12 -45.5q0 -44 39 -44q9 0 25 2t18 2q21 0 28 -27q6 -18 6 -38q0 -22 -31 -30q-28 -8 -70 -8q-72 0 -102.5 29.5t-30.5 88.5q0 92 86 140q-168 9 -209 101q-24 53 -24 191v392q0 14 9 24
t24 10h130q29 0 29 -33v-426q0 -61 19 -84q20 -25 80 -25q65 0 86 23t21 85v426q0 14 9 24t24 10h120q29 0 29 -33z" />
    <glyph glyph-name="uogonek" unicode="&#x173;" horiz-adv-x="602" 
d="M359 37q-52 -49 -141 -49q-130 0 -154 64q-11 29 -11 98v321q0 34 30 34h126q30 0 30 -34v-278q0 -21 3 -32q8 -24 45 -24q17 0 40 5q17 5 24 14q7 10 7 32v283q0 16 9 25t23 9h124q30 0 30 -34v-429q0 -42 -38 -42h-25q-38 -29 -52.5 -41t-29 -34t-14.5 -47
q0 -41 38 -41q9 0 24.5 1.5t17.5 1.5q12 0 18 -5t10 -20q5 -19 5 -37q0 -22 -30 -29q-28 -7 -68 -7q-70 0 -100 28.5t-30 84.5q0 57 29.5 90t80.5 56q-16 4 -19 24z" />
    <glyph glyph-name="Wcircumflex" unicode="&#x174;" horiz-adv-x="932" 
d="M473 423q-45 -212 -88 -388q-4 -15 -16.5 -25t-29.5 -10h-122q-36 0 -47 38l-151 604q-5 18 -5 35q0 11 6.5 20t20.5 9h139q30 0 38 -34q73 -336 84 -405q6 39 71 383q9 43 44 43h118q34 0 43 -38q64 -296 78 -388q22 134 71 402q6 37 38 37h123q15 0 22.5 -8t7.5 -19
q0 -12 -7 -42l-146 -601q-9 -36 -45 -36h-122q-19 0 -31.5 11t-15.5 26zM361 757h-49q-36 0 -36 24q0 12 12 25l94 99q31 33 62 33h61q31 0 57 -29l94 -103q12 -12 12 -25q0 -24 -36 -24h-51q-30 0 -53 23l-56 54l-59 -55q-22 -22 -52 -22z" />
    <glyph glyph-name="wcircumflex" unicode="&#x175;" horiz-adv-x="814" 
d="M408 246q-18 -67 -68 -217q-9 -29 -44 -29h-108q-32 0 -44 31l-121 425q-5 18 -5 28q0 21 26 21h141q30 0 36 -29q43 -187 48 -212q0 1 54 187q12 39 45 39h92q28 0 41 -35q19 -51 64 -191q10 63 38 210q6 31 35 31h130q28 0 28 -22q0 -13 -6 -28l-124 -426
q-13 -29 -41 -29h-111q-34 0 -44 31q-12 38 -62 215zM319 580h-47q-32 0 -32 24q0 11 11 25l77 104q25 33 48 33h73q24 0 49 -33l76 -104q10 -13 10 -25q0 -24 -31 -24h-49q-27 0 -46 23l-46 54l-47 -55q-19 -22 -46 -22z" />
    <glyph glyph-name="Ycircumflex" unicode="&#x176;" horiz-adv-x="662" 
d="M428 36q0 -17 -10 -26.5t-25 -9.5h-124q-33 0 -33 36v247l-215 362q-14 24 -14 33q0 11 6.5 19.5t19.5 8.5h154q32 0 49 -31q61 -116 102 -202l106 202q17 31 48 31h141q10 0 16.5 -9t6.5 -19q0 -9 -14 -33l-214 -357v-252zM223 757h-49q-36 0 -36 24q0 12 12 25l94 99
q31 33 62 33h61q31 0 57 -29l94 -103q12 -12 12 -25q0 -24 -36 -24h-51q-30 0 -53 23l-56 54l-59 -55q-22 -22 -52 -22z" />
    <glyph glyph-name="ycircumflex" unicode="&#x177;" horiz-adv-x="557" 
d="M188 5l-177 451q-5 12 -5 28q0 21 26 21h141q27 0 36 -29q57 -171 76 -235q51 167 74 233q10 31 35 31h130q28 0 28 -22q0 -13 -6 -28l-192 -516q-13 -35 -32 -73q-22 -47 -54 -75q-47 -41 -149 -41q-95 0 -117 11q-16 7 -16 31q0 15 5.5 50t9.5 44q7 15 26 15q3 0 25 -2
t34 -2q32 0 46 8q17 10 33 41q16 33 20 49zM189 580h-47q-32 0 -32 24q0 11 11 25l77 104q25 33 48 33h73q24 0 49 -33l76 -104q10 -13 10 -25q0 -24 -31 -24h-49q-27 0 -46 23l-46 54l-47 -55q-19 -22 -46 -22z" />
    <glyph glyph-name="Ydieresis" unicode="&#x178;" horiz-adv-x="662" 
d="M428 36q0 -17 -10 -26.5t-25 -9.5h-124q-33 0 -33 36v247l-215 362q-14 24 -14 33q0 11 6.5 19.5t19.5 8.5h154q32 0 49 -31q61 -116 102 -202l106 202q17 31 48 31h141q10 0 16.5 -9t6.5 -19q0 -9 -14 -33l-214 -357v-252zM307 834q0 -77 -73 -77q-72 0 -72 76
q0 77 72 77q73 0 73 -76zM515 834q0 -77 -73 -77q-72 0 -72 76q0 77 72 77q73 0 73 -76z" />
    <glyph glyph-name="Zacute" unicode="&#x179;" horiz-adv-x="643" 
d="M581 0h-513q-47 0 -47 54v36q0 18 4 31.5t8.5 21t18.5 25.5l295 378h-267q-34 0 -34 37v84q0 39 32 39h469q24 0 35 -9t11 -36v-45q0 -34 -7 -52.5t-36 -56.5l-269 -347h301q16 0 25.5 -9t9.5 -24v-95q0 -14 -9 -23t-27 -9zM371 773q-27 -16 -55 -16h-66q-26 0 -26 18
q0 15 16 30l103 90q26 23 58 23h103q31 0 31 -20q0 -19 -18 -30z" />
    <glyph glyph-name="zacute" unicode="&#x17a;" horiz-adv-x="515" 
d="M472 0h-420q-37 0 -37 40v46q0 22 4.5 32t19.5 26l197 211h-180q-26 0 -26 27v95q0 28 25 28h392q19 0 27.5 -7t8.5 -27v-53q0 -24 -7 -38t-31 -40q-150 -164 -178 -190h206q27 0 27 -24v-103q0 -23 -28 -23zM315 602q-24 -22 -53 -22h-51q-32 0 -32 23q0 14 11 28
l80 108q20 27 50 27h88q33 0 33 -23q0 -14 -14 -28z" />
    <glyph glyph-name="Zdotaccent" unicode="&#x17b;" horiz-adv-x="643" 
d="M581 0h-513q-47 0 -47 54v36q0 18 4 31.5t8.5 21t18.5 25.5l295 378h-267q-34 0 -34 37v84q0 39 32 39h469q24 0 35 -9t11 -36v-45q0 -34 -7 -52.5t-36 -56.5l-269 -347h301q16 0 25.5 -9t9.5 -24v-95q0 -14 -9 -23t-27 -9zM397 834q0 -77 -73 -77q-72 0 -72 76
q0 77 72 77q73 0 73 -76z" />
    <glyph glyph-name="zdotaccent" unicode="&#x17c;" horiz-adv-x="515" 
d="M472 0h-420q-37 0 -37 40v46q0 22 4.5 32t19.5 26l197 211h-180q-26 0 -26 27v95q0 28 25 28h392q19 0 27.5 -7t8.5 -27v-53q0 -24 -7 -38t-31 -40q-150 -164 -178 -190h206q27 0 27 -24v-103q0 -23 -28 -23zM335 654q0 -77 -73 -77q-72 0 -72 76q0 77 72 77q73 0 73 -76
z" />
    <glyph glyph-name="Zcaron" unicode="&#x17d;" horiz-adv-x="643" 
d="M581 0h-513q-47 0 -47 54v36q0 18 4 31.5t8.5 21t18.5 25.5l295 378h-267q-34 0 -34 37v84q0 39 32 39h469q24 0 35 -9t11 -36v-45q0 -34 -7 -52.5t-36 -56.5l-269 -347h301q16 0 25.5 -9t9.5 -24v-95q0 -14 -9 -23t-27 -9zM431 938h49q36 0 36 -24q0 -12 -12 -25
l-94 -99q-31 -33 -62 -33h-61q-31 0 -57 29l-94 103q-12 12 -12 25q0 24 36 24h51q30 0 53 -23l56 -54l59 55q22 22 52 22z" />
    <glyph glyph-name="zcaron" unicode="&#x17e;" horiz-adv-x="515" 
d="M472 0h-420q-37 0 -37 40v46q0 22 4.5 32t19.5 26l197 211h-180q-26 0 -26 27v95q0 28 25 28h392q19 0 27.5 -7t8.5 -27v-53q0 -24 -7 -38t-31 -40q-150 -164 -178 -190h206q27 0 27 -24v-103q0 -23 -28 -23zM346 769h47q32 0 32 -24q0 -11 -11 -25l-77 -104
q-25 -33 -48 -33h-73q-24 0 -49 33l-76 104q-10 13 -10 25q0 24 31 24h49q27 0 46 -23l46 -54l47 55q19 22 46 22z" />
    <glyph glyph-name="longs" unicode="&#x17f;" horiz-adv-x="306" 
d="M244 31q0 -12 -8.5 -21.5t-22.5 -9.5h-127q-28 0 -28 34v543q0 101 51 140q30 23 63.5 33t105.5 10q51 0 76 -10q21 -9 21 -35q0 -34 -9 -83q-4 -24 -31 -24q-3 0 -17 1.5t-23 1.5q-27 0 -39 -13q-12 -14 -12 -52v-515z" />
    <glyph glyph-name="florin" unicode="&#x192;" horiz-adv-x="558" 
d="M470 329h-107l-23 -263q-10 -107 -58 -144q-29 -22 -64.5 -32.5t-107.5 -10.5q-58 0 -83 10q-21 9 -21 35q0 34 9 83q5 24 32 24q4 0 21.5 -1.5t25.5 -1.5q32 0 44 13q14 15 17 55l21 233h-76q-25 0 -25 22v57q0 24 25 24h86l7 75q10 106 57 142q29 22 64.5 32.5
t107.5 10.5q58 0 83 -10q21 -9 21 -35q0 -34 -9 -83q-5 -24 -32 -24q-4 0 -21.5 1.5t-25.5 1.5q-32 0 -44 -13q-14 -15 -17 -52l-4 -46h97q29 0 29 -24v-57q0 -22 -29 -22z" />
    <glyph glyph-name="Aringacute" unicode="&#x1fa;" horiz-adv-x="694" 
d="M437 756q0 -28 -13 -51q23 -3 35 -32l222 -617q7 -19 7 -31q0 -25 -34 -25h-127q-18 0 -28 9t-17 30l-38 120h-194l-38 -120q-7 -21 -16 -30t-27 -9h-129q-34 0 -34 25q0 12 7 31l222 617q9 27 36 32q-11 22 -11 51q0 44 24 68t65 24q42 0 65 -24t23 -68zM389 880
q-22 -13 -47 -13h-52q-11 0 -17.5 5.5t-6.5 13.5q0 14 12 25l88 69q22 18 49 18h86q28 0 28 -20q0 -16 -18 -27zM298 313h100q-23 76 -49 176q-4 -13 -19.5 -69t-31.5 -107zM394 758q0 51 -47 51q-20 0 -33 -13.5t-13 -38.5q0 -24 12.5 -37.5t34.5 -13.5q46 0 46 52z" />
    <glyph glyph-name="aringacute" unicode="&#x1fb;" horiz-adv-x="560" 
d="M330 38q-46 -46 -124 -46q-174 0 -174 166q0 87 55 127q46 34 164 34q33 0 72 -3v7q0 14 -4 25q-8 19 -66 19q-46 0 -100 -7q-33 -3 -39 -3q-22 0 -29 26q-9 34 -9 80q0 30 27 37q64 19 174 19q152 0 193 -41q37 -36 37 -125v-308q0 -45 -43 -45h-87q-24 0 -34 6t-12 22z
M323 203q-18 2 -46 2q-41 0 -58 -11q-12 -9 -12 -32q0 -38 49 -38q38 0 54 11q8 4 11 15q2 9 2 32v21zM390 670q0 -48 -28.5 -73.5t-75.5 -25.5q-45 0 -72 25.5t-27 73.5t28 75t74 27q47 0 74 -27t27 -75zM341 672q0 58 -54 58q-24 0 -39 -15.5t-15 -43.5t14.5 -43t40.5 -15
q53 0 53 59zM348 822q-24 -22 -53 -22h-48q-32 0 -32 23q0 14 11 28l70 98q20 27 50 27h84q33 0 33 -23q0 -14 -14 -28z" />
    <glyph glyph-name="AEacute" unicode="&#x1fc;" horiz-adv-x="1009" 
d="M300 159l-67 -120q-12 -21 -23.5 -30t-29.5 -9h-146q-32 0 -32 20q0 9 16 36l358 617q19 33 57 33h502q18 0 26 -7.5t8 -25.5v-99q0 -28 -34 -28h-236v-102h215q18 0 26 -7.5t8 -25.5v-99q0 -28 -34 -28h-215v-124h255q18 0 26 -7.5t8 -25.5v-99q0 -28 -34 -28h-413
q-34 0 -34 35v124h-207zM386 313h121v228q-56 -112 -121 -228zM687 773q-27 -16 -55 -16h-66q-26 0 -26 18q0 15 16 30l103 90q26 23 58 23h103q31 0 31 -20q0 -19 -18 -30z" />
    <glyph glyph-name="aeacute" unicode="&#x1fd;" horiz-adv-x="818" 
d="M500 205q1 -41 22.5 -56.5t61.5 -15.5q75 0 127 16q13 5 29 5q20 0 26 -21q16 -59 16 -81q0 -21 -17 -30q-64 -35 -199 -35q-129 0 -182 57q-60 -52 -174 -52q-99 0 -138.5 44.5t-39.5 121.5q0 93 55 128q54 34 164 34q45 0 72 -2v8q0 11 -4 22q-8 19 -66 19
q-46 0 -100 -7q-33 -3 -39 -3q-22 0 -29 26q-9 34 -9 80q0 30 27 37q64 19 173 19q122 0 157 -43q20 19 59 31t72 12q51 0 88.5 -8t62 -26t40 -39t22.5 -55.5t9.5 -66t2.5 -79.5q0 -25 -14 -34q-9 -6 -25 -6h-250zM323 203q-18 2 -46 2q-41 0 -58 -11q-12 -9 -12 -29
q0 -41 49 -41q59 0 77 12q-7 20 -10 67zM503 319h120q1 4 1 15q0 32 -12.5 48.5t-44.5 16.5q-64 0 -64 -80zM479 602q-24 -22 -53 -22h-51q-32 0 -32 23q0 14 11 28l80 108q20 27 50 27h88q33 0 33 -23q0 -14 -14 -28z" />
    <glyph glyph-name="Oslashacute" unicode="&#x1fe;" horiz-adv-x="705" 
d="M112 -24q-9 -11 -16 -11q-9 0 -42 25q-7 6 -7 12q0 7 8 18l42 58q-63 86 -63 279q0 88 16.5 152.5t43.5 104.5t69.5 64t88.5 33t105 9q122 0 185 -30l40 55q6 9 15 9q7 0 14 -5q33 -21 33 -32q0 -7 -6 -15l-39 -54q72 -79 72 -290q0 -109 -19 -181.5t-60.5 -114
t-99.5 -58.5t-144 -17q-128 0 -197 42zM473 355q0 69 -7 110l-207 -286q26 -41 92 -41q42 0 66.5 14.5t40 63.5t15.5 139zM230 356q0 -56 4 -89l201 276q-25 25 -83 25q-42 0 -67 -16t-40 -63.5t-15 -132.5zM399 773q-27 -16 -55 -16h-66q-26 0 -26 18q0 15 16 30l103 90
q26 23 58 23h103q31 0 31 -20q0 -19 -18 -30z" />
    <glyph glyph-name="oslashacute" unicode="&#x1ff;" horiz-adv-x="571" 
d="M111 -35q-10 -10 -14 -10q-8 0 -38 22q-6 6 -6 11q0 7 7 16l29 41q-59 61 -59 209q0 79 19 133t55.5 82t80.5 39t104 11q86 0 134 -17l39 54q6 8 13 8q6 0 13 -5q29 -18 29 -28q0 -6 -5 -13l-34 -47q63 -55 63 -214q0 -154 -61 -212t-198 -58q-88 0 -139 22zM322 602
q-24 -22 -53 -22h-51q-32 0 -32 23q0 14 11 28l80 108q19 27 50 27h88q33 0 33 -23q0 -14 -14 -28zM362 252q0 24 -2 56l-123 -169q15 -11 48 -11q45 0 61 24.5t16 99.5zM211 254q0 -29 1 -41l114 156q-15 6 -39 6q-43 0 -59.5 -25.5t-16.5 -95.5z" />
    <glyph glyph-name="uni0218" unicode="&#x218;" horiz-adv-x="600" 
d="M381 430q104 -27 139.5 -69.5t35.5 -142.5q0 -112 -64 -171.5t-218 -59.5q-141 0 -220 28q-29 11 -29 42q0 17 15 73q10 34 41 34q14 0 44 -9q65 -17 155 -17q45 0 61.5 13.5t16.5 41.5q0 33 -12.5 47t-48.5 21l-79 16q-93 19 -135.5 68t-42.5 149q0 226 270 226
q129 0 195 -23q28 -10 28 -43q0 -28 -12 -74q-7 -30 -32 -30q-22 0 -42 5q-77 12 -149 12q-62 0 -62 -56q0 -49 56 -61zM315 -60q21 0 29.5 -9.5t8.5 -31.5q0 -114 -61 -182q-20 -24 -40 -24q-15 0 -35 11t-20 26q0 12 9 33q18 48 18 129q0 48 45 48h46z" />
    <glyph glyph-name="uni0219" unicode="&#x219;" horiz-adv-x="478" 
d="M316 313q81 -19 109 -52t28 -108q0 -166 -221 -166q-130 0 -189 23q-22 9 -22 32q0 31 16 89q7 24 32 24q11 0 35 -6q63 -15 138 -15q33 0 33 20q0 11 -5.5 15t-24.5 8l-68 13q-73 14 -108 49t-35 113q0 76 52.5 121t166.5 45q112 0 162 -16q22 -8 22 -31q0 -30 -15 -89
q-5 -21 -26 -21q-15 0 -33 3q-58 9 -109 9q-39 0 -39 -17q0 -11 6 -16t29 -11zM267 -60q21 0 29.5 -9.5t8.5 -31.5q0 -114 -61 -182q-20 -24 -40 -24q-15 0 -35 11t-20 26q0 12 9 33q18 48 18 129q0 48 45 48h46z" />
    <glyph glyph-name="uni021A" unicode="&#x21a;" horiz-adv-x="643" 
d="M411 36q0 -17 -10 -26.5t-25 -9.5h-125q-33 0 -33 36v510h-148q-34 0 -34 28v99q0 18 8 25.5t26 7.5h490q18 0 26 -7.5t8 -25.5v-99q0 -28 -34 -28h-149v-510zM348 -60q21 0 29.5 -9.5t8.5 -31.5q0 -114 -61 -182q-20 -24 -40 -24q-15 0 -35 11t-20 26q0 12 9 33
q18 48 18 129q0 48 45 48h46z" />
    <glyph glyph-name="uni021B" unicode="&#x21b;" horiz-adv-x="366" 
d="M258 360v-138q0 -54 8 -73q7 -16 28 -16q6 0 19 0.5t17 0.5q23 0 28 -27q5 -34 5 -77q0 -29 -30 -35q-46 -8 -88 -8q-103 0 -142 49q-31 38 -31 129v195h-42q-28 0 -28 29v82q0 15 9 24.5t26 9.5h39q1 43 5 97q3 37 34 37h113q30 0 30 -39v-95h53q18 0 25.5 -6t7.5 -21
v-90q0 -28 -30 -28h-56zM227 -60q21 0 29.5 -9.5t8.5 -31.5q0 -114 -61 -182q-20 -24 -40 -24q-15 0 -35 11t-20 26q0 12 9 33q18 48 18 129q0 48 45 48h46z" />
    <glyph glyph-name="circumflex" unicode="&#x2c6;" horiz-adv-x="197" 
d="M6 580h-47q-32 0 -32 24q0 11 11 25l77 104q25 33 48 33h73q24 0 49 -33l76 -104q10 -13 10 -25q0 -24 -31 -24h-49q-27 0 -46 23l-46 54l-47 -55q-19 -22 -46 -22z" />
    <glyph glyph-name="caron" unicode="&#x2c7;" horiz-adv-x="197" 
d="M192 769h47q32 0 32 -24q0 -11 -11 -25l-77 -104q-25 -33 -48 -33h-73q-24 0 -49 33l-76 104q-10 13 -10 25q0 24 31 24h49q27 0 46 -23l46 -54l47 55q19 22 46 22z" />
    <glyph glyph-name="breve" unicode="&#x2d8;" horiz-adv-x="197" 
d="M233 753q28 0 28 -29q0 -30 -7 -51q-17 -51 -51 -76.5t-107 -25.5q-128 0 -154 99q-5 20 -5 47q0 36 31 36h29q32 0 38 -29q11 -51 64 -51q22 0 36.5 8t19.5 17t11 25q10 30 37 30h30z" />
    <glyph glyph-name="dotaccent" unicode="&#x2d9;" horiz-adv-x="197" 
d="M171 654q0 -77 -73 -77q-72 0 -72 76q0 77 72 77q73 0 73 -76z" />
    <glyph glyph-name="ring" unicode="&#x2da;" horiz-adv-x="197" 
d="M200 670q0 -48 -28.5 -73.5t-75.5 -25.5q-45 0 -72 25.5t-27 73.5t28 75t74 27q47 0 74 -27t27 -75zM151 672q0 58 -54 58q-24 0 -39 -15.5t-15 -43.5t14.5 -43t40.5 -15q53 0 53 59z" />
    <glyph glyph-name="ogonek" unicode="&#x2db;" horiz-adv-x="197" 
d="M210 10l-23 -17l-21 -16l-18 -15q-12 -10 -16 -15l-13 -15q-8 -10 -10.5 -17t-5 -17t-2.5 -20q0 -41 38 -41q9 0 24.5 1.5t17.5 1.5q12 0 18 -5t10 -20q5 -19 5 -37q0 -22 -30 -29q-28 -7 -68 -7q-70 0 -100 28.5t-30 84.5q0 62 34 95.5t96 59.5h94z" />
    <glyph glyph-name="tilde" unicode="&#x2dc;" horiz-adv-x="197" 
d="M-16 576h-32q-29 0 -29 26q0 10 7 31q16 48 42 76.5t60 28.5q28 0 72 -24q28 -16 50 -16q21 0 32 22q10 22 38 22h27q29 0 29 -27q0 -12 -13 -47q-30 -85 -93 -85q-40 0 -83 26q-24 14 -40 14q-21 0 -32 -19q-6 -11 -9.5 -15.5t-10 -8.5t-15.5 -4z" />
    <glyph glyph-name="hungarumlaut" unicode="&#x2dd;" horiz-adv-x="197" 
d="M11 603q-20 -23 -52 -23h-36q-32 0 -32 24q0 14 11 28l70 107q18 27 49 27h63q32 0 32 -22q0 -16 -13 -32zM200 603q-20 -23 -53 -23h-34q-32 0 -32 24q0 11 11 29l70 106q18 27 49 27h62q32 0 32 -22q0 -16 -13 -32z" />
    <glyph glyph-name="uni0394" unicode="&#x394;" horiz-adv-x="765" 
d="M738 55q4 -11 4 -22q0 -33 -40 -33h-639q-40 0 -40 32q0 11 4 22l234 583q9 22 19 30t31 8h153q21 0 30.5 -8.5t17.5 -29.5zM387 487q-16 -49 -122 -329h231l-29 84l-23 67l-17 49l-13 38q-5 13 -9.5 27.5t-6.5 23.5l-5 19z" />
    <glyph glyph-name="uni03A9" unicode="&#x3a9;" horiz-adv-x="764" 
d="M355 40q0 -23 -12 -31.5t-38 -8.5h-204q-24 0 -32.5 7t-8.5 27v80q0 24 9 32.5t31 8.5h129q-82 30 -124 82t-42 159q0 148 77.5 221t244.5 73q175 0 244.5 -71t69.5 -220q0 -101 -43 -158t-124 -86h128q25 0 34 -8.5t9 -32.5v-74q0 -25 -7 -32.5t-31 -7.5h-205
q-26 0 -38 8.5t-12 31.5v126q0 42 37 62q53 29 53 145q0 52 -7 85t-23.5 49t-35.5 21t-50 5q-64 0 -92 -35t-28 -129q0 -111 54 -143q37 -21 37 -61v-125z" />
    <glyph glyph-name="uni03BC" unicode="&#x3bc;" horiz-adv-x="614" 
d="M249 9v-179q0 -16 -9 -25t-23 -9h-124q-30 0 -30 34v641q0 34 30 34h126q30 0 30 -34v-278q0 -21 3 -32q8 -24 45 -24q17 0 40 5q17 5 24 14q7 10 7 32v283q0 16 9 25t23 9h124q30 0 30 -34v-429q0 -42 -38 -42h-108q-19 0 -27 5.5t-10 19.5l-2 12q-27 -35 -83 -35
q-25 0 -37 7z" />
    <glyph glyph-name="pi" unicode="&#x3c0;" horiz-adv-x="660" 
d="M281 41q0 -24 -8.5 -32.5t-31.5 -8.5h-102q-23 0 -31.5 10t-8.5 31v315h-15q-24 0 -32.5 7.5t-8.5 29.5v72q0 21 9.5 30.5t33.5 9.5h489q47 0 47 -41v-70q0 -38 -41 -38h-15v-165q0 -60 2 -86q0 -5 3 -30.5t3 -37.5q0 -21 -9 -29t-30 -8h-102q-21 0 -29 8.5t-10 27.5
q-7 56 -7 153v167h-106v-315z" />
    <glyph glyph-name="Wgrave" unicode="&#x1e80;" horiz-adv-x="932" 
d="M473 423q-45 -212 -88 -388q-4 -15 -16.5 -25t-29.5 -10h-122q-36 0 -47 38l-151 604q-5 18 -5 35q0 11 6.5 20t20.5 9h139q30 0 38 -34q73 -336 84 -405q6 39 71 383q9 43 44 43h118q34 0 43 -38q64 -296 78 -388q22 134 71 402q6 37 38 37h123q15 0 22.5 -8t7.5 -19
q0 -12 -7 -42l-146 -601q-9 -36 -45 -36h-122q-19 0 -31.5 11t-15.5 26zM428 773l-146 95q-18 11 -18 30q0 20 31 20h103q32 0 58 -23l103 -90q16 -15 16 -30q0 -18 -26 -18h-66q-28 0 -55 16z" />
    <glyph glyph-name="wgrave" unicode="&#x1e81;" horiz-adv-x="814" 
d="M408 246q-18 -67 -68 -217q-9 -29 -44 -29h-108q-32 0 -44 31l-121 425q-5 18 -5 28q0 21 26 21h141q30 0 36 -29q43 -187 48 -212q0 1 54 187q12 39 45 39h92q28 0 41 -35q19 -51 64 -191q10 63 38 210q6 31 35 31h130q28 0 28 -22q0 -13 -6 -28l-124 -426
q-13 -29 -41 -29h-111q-34 0 -44 31q-12 38 -62 215zM347 602l-112 113q-14 14 -14 28q0 23 33 23h88q30 0 50 -27l80 -108q11 -14 11 -28q0 -23 -32 -23h-46q-34 0 -58 22z" />
    <glyph glyph-name="Wacute" unicode="&#x1e82;" horiz-adv-x="932" 
d="M473 423q-45 -212 -88 -388q-4 -15 -16.5 -25t-29.5 -10h-122q-36 0 -47 38l-151 604q-5 18 -5 35q0 11 6.5 20t20.5 9h139q30 0 38 -34q73 -336 84 -405q6 39 71 383q9 43 44 43h118q34 0 43 -38q64 -296 78 -388q22 134 71 402q6 37 38 37h123q15 0 22.5 -8t7.5 -19
q0 -12 -7 -42l-146 -601q-9 -36 -45 -36h-122q-19 0 -31.5 11t-15.5 26zM517 773q-27 -16 -55 -16h-66q-26 0 -26 18q0 15 16 30l103 90q26 23 58 23h103q31 0 31 -20q0 -19 -18 -30z" />
    <glyph glyph-name="wacute" unicode="&#x1e83;" horiz-adv-x="814" 
d="M408 246q-18 -67 -68 -217q-9 -29 -44 -29h-108q-32 0 -44 31l-121 425q-5 18 -5 28q0 21 26 21h141q30 0 36 -29q43 -187 48 -212q0 1 54 187q12 39 45 39h92q28 0 41 -35q19 -51 64 -191q10 63 38 210q6 31 35 31h130q28 0 28 -22q0 -13 -6 -28l-124 -426
q-13 -29 -41 -29h-111q-34 0 -44 31q-12 38 -62 215zM464 602q-24 -22 -53 -22h-51q-32 0 -32 23q0 14 11 28l80 108q20 27 50 27h88q33 0 33 -23q0 -14 -14 -28z" />
    <glyph glyph-name="Wdieresis" unicode="&#x1e84;" horiz-adv-x="932" 
d="M473 423q-45 -212 -88 -388q-4 -15 -16.5 -25t-29.5 -10h-122q-36 0 -47 38l-151 604q-5 18 -5 35q0 11 6.5 20t20.5 9h139q30 0 38 -34q73 -336 84 -405q6 39 71 383q9 43 44 43h118q34 0 43 -38q64 -296 78 -388q22 134 71 402q6 37 38 37h123q15 0 22.5 -8t7.5 -19
q0 -12 -7 -42l-146 -601q-9 -36 -45 -36h-122q-19 0 -31.5 11t-15.5 26zM438 834q0 -77 -73 -77q-72 0 -72 76q0 77 72 77q73 0 73 -76zM646 834q0 -77 -73 -77q-72 0 -72 76q0 77 72 77q73 0 73 -76z" />
    <glyph glyph-name="wdieresis" unicode="&#x1e85;" horiz-adv-x="814" 
d="M408 246q-18 -67 -68 -217q-9 -29 -44 -29h-108q-32 0 -44 31l-121 425q-5 18 -5 28q0 21 26 21h141q30 0 36 -29q43 -187 48 -212q0 1 54 187q12 39 45 39h92q28 0 41 -35q19 -51 64 -191q10 63 38 210q6 31 35 31h130q28 0 28 -22q0 -13 -6 -28l-124 -426
q-13 -29 -41 -29h-111q-34 0 -44 31q-12 38 -62 215zM385 654q0 -77 -73 -77q-72 0 -72 76q0 77 72 77q73 0 73 -76zM583 654q0 -77 -73 -77q-72 0 -72 76q0 77 72 77q73 0 73 -76z" />
    <glyph glyph-name="Ygrave" unicode="&#x1ef2;" horiz-adv-x="662" 
d="M428 36q0 -17 -10 -26.5t-25 -9.5h-124q-33 0 -33 36v247l-215 362q-14 24 -14 33q0 11 6.5 19.5t19.5 8.5h154q32 0 49 -31q61 -116 102 -202l106 202q17 31 48 31h141q10 0 16.5 -9t6.5 -19q0 -9 -14 -33l-214 -357v-252zM276 773l-146 95q-18 11 -18 30q0 20 31 20
h103q32 0 58 -23l103 -90q16 -15 16 -30q0 -18 -26 -18h-66q-28 0 -55 16z" />
    <glyph glyph-name="ygrave" unicode="&#x1ef3;" horiz-adv-x="557" 
d="M188 5l-177 451q-5 12 -5 28q0 21 26 21h141q27 0 36 -29q57 -171 76 -235q51 167 74 233q10 31 35 31h130q28 0 28 -22q0 -13 -6 -28l-192 -516q-13 -35 -32 -73q-22 -47 -54 -75q-47 -41 -149 -41q-95 0 -117 11q-16 7 -16 31q0 15 5.5 50t9.5 44q7 15 26 15q3 0 25 -2
t34 -2q32 0 46 8q17 10 33 41q16 33 20 49zM225 602l-112 113q-14 14 -14 28q0 23 33 23h88q30 0 50 -27l80 -108q11 -14 11 -28q0 -23 -32 -23h-46q-34 0 -58 22z" />
    <glyph glyph-name="endash" unicode="&#x2013;" horiz-adv-x="562" 
d="M497 198h-431q-34 0 -34 32v80q0 30 34 30h430q34 0 34 -31v-82q0 -17 -8 -23t-25 -6z" />
    <glyph glyph-name="emdash" unicode="&#x2014;" horiz-adv-x="871" 
d="M806 198h-740q-34 0 -34 32v80q0 30 34 30h739q34 0 34 -31v-82q0 -17 -8 -23t-25 -6z" />
    <glyph glyph-name="quoteleft" unicode="&#x2018;" horiz-adv-x="238" 
d="M66 422q-24 0 -33 9.5t-9 33.5q0 63 26.5 138.5t66.5 118.5q24 26 44 26q22 0 43 -12q24 -13 24 -30q0 -15 -12 -34q-40 -64 -40 -202q0 -48 -52 -48h-58z" />
    <glyph glyph-name="quoteright" unicode="&#x2019;" horiz-adv-x="238" 
d="M171 748q24 0 33 -9.5t9 -33.5q0 -63 -26.5 -138.5t-66.5 -118.5q-24 -26 -44 -26q-22 0 -43 12q-23 12 -23 30q0 12 11 34q40 61 40 202q0 48 52 48h58z" />
    <glyph glyph-name="quotesinglbase" unicode="&#x201a;" horiz-adv-x="239" 
d="M171 128q24 0 33 -9.5t9 -33.5q0 -63 -26.5 -138.5t-66.5 -118.5q-24 -26 -44 -26q-22 0 -43 12q-23 12 -23 30q0 12 11 34q40 61 40 202q0 48 52 48h58z" />
    <glyph glyph-name="quotedblleft" unicode="&#x201c;" horiz-adv-x="448" 
d="M276 422q-24 0 -33 9.5t-9 33.5q0 63 26.5 138.5t66.5 118.5q24 26 44 26q22 0 43 -12q24 -13 24 -30q0 -10 -12 -34q-40 -61 -40 -202q0 -48 -52 -48h-58zM66 422q-24 0 -33 9.5t-9 33.5q0 63 26.5 138.5t66.5 118.5q24 26 44 26q22 0 43 -12q24 -13 24 -30
q0 -15 -12 -34q-40 -64 -40 -202q0 -48 -52 -48h-58z" />
    <glyph glyph-name="quotedblright" unicode="&#x201d;" horiz-adv-x="448" 
d="M171 748q24 0 33 -9.5t9 -33.5q0 -63 -26.5 -138.5t-66.5 -118.5q-24 -26 -44 -26q-22 0 -43 12q-23 12 -23 30q0 12 11 34q40 61 40 202q0 48 52 48h58zM381 748q24 0 33 -9.5t9 -33.5q0 -63 -26.5 -138.5t-66.5 -118.5q-24 -26 -44 -26q-22 0 -43 12q-23 12 -23 30
q0 16 11 34q40 64 40 202q0 48 52 48h58z" />
    <glyph glyph-name="quotedblbase" unicode="&#x201e;" horiz-adv-x="449" 
d="M171 128q24 0 33 -9.5t9 -33.5q0 -63 -26.5 -138.5t-66.5 -118.5q-24 -26 -44 -26q-22 0 -43 12q-23 12 -23 30q0 12 11 34q40 61 40 202q0 48 52 48h58zM381 128q24 0 33 -9.5t9 -33.5q0 -63 -26.5 -138.5t-66.5 -118.5q-24 -26 -44 -26q-22 0 -43 12q-23 12 -23 30
q0 16 11 34q40 64 40 202q0 48 52 48h58z" />
    <glyph glyph-name="dagger" unicode="&#x2020;" horiz-adv-x="488" 
d="M326 -57q0 -29 -26 -29h-112q-26 0 -26 29v443h-108q-25 0 -25 24v102q0 24 23 24h110v151q0 29 27 29h112q25 0 25 -29v-151h109q14 0 19 -5t5 -17v-106q0 -22 -23 -22h-110v-443z" />
    <glyph glyph-name="daggerdbl" unicode="&#x2021;" horiz-adv-x="488" 
d="M326 -57q0 -29 -26 -29h-112q-26 0 -26 29v139h-108q-25 0 -25 24v102q0 24 23 24h110v154h-108q-25 0 -25 24v102q0 24 23 24h110v151q0 29 27 29h112q25 0 25 -29v-151h109q14 0 19 -5t5 -17v-106q0 -22 -23 -22h-110v-154h109q14 0 19 -5t5 -17v-106q0 -22 -23 -22
h-110v-139z" />
    <glyph glyph-name="bullet" unicode="&#x2022;" horiz-adv-x="401" 
d="M354 257q0 -158 -154 -158q-153 0 -153 156q0 158 153 158q75 0 114.5 -36t39.5 -120z" />
    <glyph glyph-name="ellipsis" unicode="&#x2026;" horiz-adv-x="1079" 
d="M309 88q0 -100 -101 -100q-42 0 -69.5 22.5t-27.5 76.5q0 103 100 103q45 0 71.5 -22.5t26.5 -79.5zM638 88q0 -100 -101 -100q-42 0 -69.5 22.5t-27.5 76.5q0 103 100 103q45 0 71.5 -22.5t26.5 -79.5zM968 88q0 -100 -101 -100q-42 0 -69.5 22.5t-27.5 76.5
q0 103 100 103q45 0 71.5 -22.5t26.5 -79.5z" />
    <glyph glyph-name="perthousand" unicode="&#x2030;" horiz-adv-x="1283" 
d="M375 473q0 -125 -39 -171t-137 -46q-94 0 -133 45.5t-39 170.5q0 122 44.5 167t132.5 45q97 0 134 -41t37 -170zM252 471q0 79 -9 100t-42 21q-30 0 -40.5 -23.5t-10.5 -97.5q0 -78 10 -101.5t40 -23.5q31 0 41.5 23t10.5 102zM316 -13q-10 -19 -28 -19h-29q-16 0 -16 14
q0 8 6 20l331 687q11 22 26 22h37q13 0 13 -14q0 -5 -8 -23zM865 209q0 -125 -39 -171t-137 -46q-94 0 -133 45.5t-39 170.5q0 122 44.5 167t132.5 45q97 0 134 -41t37 -170zM739 207q0 75 -8.5 95.5t-39.5 20.5q-28 0 -38 -21.5t-10 -94.5q0 -74 10.5 -97t36.5 -23
q30 0 39.5 22t9.5 98zM1256 209q0 -125 -39 -171t-137 -46q-94 0 -133 45.5t-39 170.5q0 122 44.5 167t132.5 45q97 0 134 -41t37 -170zM1130 207q0 75 -8.5 95.5t-39.5 20.5q-28 0 -38 -21.5t-10 -94.5q0 -74 10.5 -97t36.5 -23q30 0 39.5 22t9.5 98z" />
    <glyph glyph-name="guilsinglleft" unicode="&#x2039;" horiz-adv-x="350" 
d="M188 266l114 -156q9 -11 9 -26q0 -18 -19 -18h-84q-22 0 -40 21l-119 146q-14 18 -14 32q0 15 12 30l119 149q19 24 44 24h82q19 0 19 -16q0 -15 -10 -29z" />
    <glyph glyph-name="guilsinglright" unicode="&#x203a;" horiz-adv-x="350" 
d="M162 268l-114 156q-9 11 -9 26q0 18 19 18h84q22 0 40 -21l119 -146q14 -18 14 -32q0 -15 -12 -30l-119 -149q-19 -24 -44 -24h-82q-19 0 -19 16q0 15 10 29z" />
    <glyph glyph-name="fraction" unicode="&#x2044;" horiz-adv-x="84" 
d="M-91 -13q-10 -19 -28 -19h-29q-16 0 -16 14q0 8 6 20l331 687q11 22 26 22h37q13 0 13 -14q0 -5 -8 -23z" />
    <glyph glyph-name="zero.superior" unicode="&#x2070;" 
d="M375 629q0 -125 -39 -171t-137 -46q-94 0 -133 45.5t-39 170.5q0 122 44.5 167t132.5 45q97 0 134 -41t37 -170zM249 627q0 75 -8.5 95.5t-39.5 20.5q-28 0 -38 -21.5t-10 -94.5q0 -74 10.5 -97t36.5 -23q30 0 39.5 22t9.5 98z" />
    <glyph glyph-name="four.superior" unicode="&#x2074;" 
d="M336 442q0 -22 -22 -22h-75q-21 0 -21 22v57h-170q-25 0 -25 20v50q0 19 10 33l137 213q12 17 32 17h84q14 0 14 -12q0 -8 -5 -17q-69 -110 -136 -205h59v45q0 23 22 23h75q21 0 21 -21v-47h19q25 0 25 -20v-61q0 -18 -25 -18h-19v-57z" />
    <glyph glyph-name="five.superior" unicode="&#x2075;" 
d="M161 680q28 6 56 6q73 0 105 -26.5t32 -105.5q0 -70 -37.5 -106t-143.5 -36q-76 0 -117 10q-17 4 -17 19q0 25 10 58q5 16 18 16q2 0 6 -0.5t10 -1.5t9 -1q24 -4 73 -4q37 0 49 7.5t12 33.5q0 27 -14 33.5t-47 6.5q-13 0 -24.5 -0.5t-23 -2t-16.5 -1.5q-10 -2 -22 -2
q-26 0 -26 28q0 23 1 30l14 169q1 9 7 15.5t14 6.5h224q21 0 21 -18v-62q0 -18 -24 -18h-144z" />
    <glyph glyph-name="six.superior" unicode="&#x2076;" 
d="M162 665q24 23 79 23q73 0 103 -30.5t30 -105.5q0 -74 -39 -107t-125 -33q-98 0 -135 47.5t-37 161.5q0 115 46.5 167t148.5 52q67 0 98 -10q17 -6 17 -20q0 -25 -9 -59q-3 -12 -17 -12l-32 4q-27 3 -52 3q-43 0 -59.5 -16t-16.5 -65zM167 579q-4 -9 -4 -27
q0 -27 10.5 -37.5t36.5 -10.5q27 0 37.5 8.5t10.5 37.5q0 27 -12 37t-34 10q-26 0 -36 -6q-5 -4 -9 -12z" />
    <glyph glyph-name="seven.superior" unicode="&#x2077;" 
d="M217 735q-48 -1 -168 -1q-23 0 -23 17v60q0 21 22 21h297q20 0 20 -19v-35q0 -20 -8 -39l-134 -299q-9 -20 -30 -20h-91q-9 0 -13.5 5t-4.5 10q0 15 5 23q38 93 128 277z" />
    <glyph glyph-name="eight.superior" unicode="&#x2078;" 
d="M294 638q46 -8 63 -33.5t17 -66.5q0 -66 -38.5 -96t-136.5 -30q-93 0 -131 29.5t-38 92.5q0 85 83 102q-73 17 -73 90q0 60 40.5 87t126.5 27q83 0 121 -26.5t38 -85.5q0 -75 -72 -90zM242 712q0 21 -8.5 28.5t-31.5 7.5q-24 0 -32.5 -8t-8.5 -28q0 -19 8 -26.5t32 -7.5
q23 0 32 7.5t9 26.5zM248 544q0 23 -10.5 31.5t-35.5 8.5q-27 0 -37.5 -9t-10.5 -32q0 -22 10.5 -31.5t36.5 -9.5t36.5 9.5t10.5 32.5z" />
    <glyph glyph-name="nine.superior" unicode="&#x2079;" 
d="M243 591q-29 -26 -80 -26q-73 0 -103 30t-30 105q0 73 41.5 106.5t128.5 33.5q96 0 131 -47.5t35 -162.5t-45.5 -167t-148.5 -52q-73 0 -104 10q-17 6 -17 20q0 27 11 60q3 12 16 12q17 0 33 -4q25 -3 56 -3q44 0 60 16.5t16 68.5zM238 675q3 9 3 25q0 28 -10.5 38.5
t-36.5 10.5t-37 -10t-11 -37q0 -28 11.5 -37t34.5 -9q25 0 36 7q7 6 10 12z" />
    <glyph glyph-name="parenleft.superior" unicode="&#x207d;" horiz-adv-x="236" 
d="M138 608q0 -101 20.5 -152t65.5 -94q5 -5 5 -12q0 -9 -10 -17t-18 -8q-12 0 -29 10q-54 27 -96 93t-42 180q0 78 25.5 139.5t53 89t58.5 45.5q20 10 30 10t17 -7q12 -12 12 -18q0 -8 -5 -13q-43 -39 -65 -93.5t-22 -152.5z" />
    <glyph glyph-name="parenright.superior" unicode="&#x207e;" horiz-adv-x="236" 
d="M98 609q0 101 -20.5 152t-65.5 94q-5 5 -5 12q0 9 10 17t18 8q12 0 29 -10q54 -27 96 -93t42 -180q0 -78 -25.5 -139.5t-53 -89t-58.5 -45.5q-20 -10 -30 -10t-17 7q-12 12 -12 18q0 8 5 13q43 39 65 93.5t22 152.5z" />
    <glyph glyph-name="n.superior" unicode="&#x207f;" horiz-adv-x="401" 
d="M169 285q0 -21 -20 -21h-89q-18 0 -18 21v261q0 26 23 26h74q19 0 23 -16l1 -6q32 29 89 29q86 0 102 -39q7 -17 7 -59v-196q0 -21 -19 -21h-89q-19 0 -19 21v164q0 14 -2 21q-4 13 -24 13q-13 0 -22 -3q-8 -2 -13 -9q-4 -6 -4 -20v-166z" />
    <glyph glyph-name="zero.inferior" unicode="&#x2080;" 
d="M375 83q0 -125 -39 -171t-137 -46q-94 0 -133 45.5t-39 170.5q0 122 44.5 167t132.5 45q97 0 134 -41t37 -170zM249 81q0 75 -8.5 95.5t-39.5 20.5q-28 0 -38 -21.5t-10 -94.5q0 -74 10.5 -97t36.5 -23q30 0 39.5 22t9.5 98z" />
    <glyph glyph-name="one.inferior" unicode="&#x2081;" 
d="M168 174l-41 -18q-7 -4 -15 -4t-14 11q-23 54 -23 65q0 9 11 14l88 39q12 5 33 5h67q21 0 21 -21v-369q0 -22 -23 -22h-83q-21 0 -21 22v278z" />
    <glyph glyph-name="two.inferior" unicode="&#x2082;" 
d="M342 -126h-284q-9 0 -15 5.5t-6 11.5v53q0 16 15 25q64 42 130 97q41 33 41 82q0 30 -13.5 40.5t-45.5 10.5q-23 0 -63 -5q-15 -3 -25 -3q-12 0 -14 10q-8 38 -8 61q0 15 17 19q45 13 123 13q94 0 126.5 -33t32.5 -94q0 -76 -39 -115q-44 -44 -102 -79q38 1 130 1
q22 0 22 -20v-60q0 -20 -22 -20z" />
    <glyph glyph-name="three.inferior" unicode="&#x2083;" 
d="M253 93q52 -5 73.5 -29t21.5 -72q0 -63 -34 -94.5t-139 -31.5q-77 0 -117 10q-17 4 -17 19q0 23 11 61q4 13 17 13q2 0 6 -0.5t10 -1.5t9 -1q24 -4 74 -4q34 0 43 7t9 28q0 24 -11.5 31.5t-47.5 7.5h-21q-18 0 -18 22v52q0 9 5.5 16t12.5 7h22q27 0 35.5 7t8.5 26
q0 20 -9 26t-39 6q-35 0 -59 -3q-20 -4 -24 -4q-11 0 -15 11q-7 34 -7 62q0 15 17 19q40 11 118 11q49 0 78.5 -6.5t43 -23.5t17.5 -35.5t4 -52.5q0 -29 -19 -52t-59 -31z" />
    <glyph glyph-name="four.inferior" unicode="&#x2084;" 
d="M336 -104q0 -22 -22 -22h-75q-21 0 -21 22v57h-170q-25 0 -25 20v50q0 19 10 33l137 213q12 17 32 17h84q14 0 14 -12q0 -8 -5 -17q-69 -110 -136 -205h59v45q0 23 22 23h75q21 0 21 -21v-47h19q25 0 25 -20v-61q0 -18 -25 -18h-19v-57z" />
    <glyph glyph-name="five.inferior" unicode="&#x2085;" 
d="M161 134q29 6 56 6q73 0 105 -26.5t32 -105.5q0 -70 -37.5 -106t-143.5 -36q-76 0 -117 10q-17 4 -17 19q0 26 10 58q5 16 18 16q2 0 6 -0.5t10 -1.5t9 -1q24 -4 73 -4q37 0 49 7.5t12 33.5q0 27 -14 33.5t-47 6.5q-13 0 -24.5 -0.5t-23 -2t-16.5 -1.5q-10 -2 -22 -2
q-26 0 -26 28q0 23 1 30l14 169q1 9 7 15.5t14 6.5h224q21 0 21 -18v-62q0 -18 -24 -18h-144z" />
    <glyph glyph-name="six.inferior" unicode="&#x2086;" 
d="M162 119q24 23 79 23q73 0 103 -30.5t30 -105.5q0 -74 -39 -107t-125 -33q-98 0 -135 47.5t-37 161.5q0 115 46.5 167t148.5 52q67 0 98 -10q17 -6 17 -20q0 -25 -9 -59q-3 -12 -17 -12l-32 4q-27 3 -52 3q-43 0 -59.5 -16t-16.5 -65zM167 33q-4 -9 -4 -27
q0 -27 10.5 -37.5t36.5 -10.5q27 0 37.5 8.5t10.5 37.5q0 27 -12 37t-34 10q-26 0 -36 -6q-5 -4 -9 -12z" />
    <glyph glyph-name="seven.inferior" unicode="&#x2087;" 
d="M217 189q-48 -1 -168 -1q-23 0 -23 17v60q0 21 22 21h297q20 0 20 -19v-35q0 -20 -8 -39l-134 -299q-9 -20 -30 -20h-91q-9 0 -13.5 5t-4.5 10q0 15 5 23q38 93 128 277z" />
    <glyph glyph-name="eight.inferior" unicode="&#x2088;" 
d="M294 92q46 -8 63 -33.5t17 -66.5q0 -66 -38.5 -96t-136.5 -30q-93 0 -131 29.5t-38 92.5q0 85 83 102q-73 17 -73 90q0 60 40.5 87t126.5 27q83 0 121 -26.5t38 -85.5q0 -75 -72 -90zM242 166q0 21 -8.5 28.5t-31.5 7.5q-24 0 -32.5 -8t-8.5 -28q0 -19 8 -26.5t32 -7.5
q23 0 32 7.5t9 26.5zM248 -2q0 23 -10.5 31.5t-35.5 8.5q-27 0 -37.5 -9t-10.5 -32q0 -22 10.5 -31.5t36.5 -9.5t36.5 9.5t10.5 32.5z" />
    <glyph glyph-name="nine.inferior" unicode="&#x2089;" 
d="M243 45q-29 -26 -80 -26q-73 0 -103 30t-30 105q0 73 41.5 106.5t128.5 33.5q96 0 131 -47.5t35 -162.5t-45.5 -167t-148.5 -52q-73 0 -104 10q-17 6 -17 20q0 27 11 60q3 12 16 12q17 0 33 -4q25 -3 56 -3q44 0 60 16.5t16 68.5zM238 129q3 9 3 25q0 28 -10.5 38.5
t-36.5 10.5t-37 -10t-11 -37q0 -28 11.5 -37t34.5 -9q25 0 36 7q7 6 10 12z" />
    <glyph glyph-name="parenleft.inferior" unicode="&#x208d;" horiz-adv-x="236" 
d="M138 62q0 -101 20.5 -152t65.5 -94q5 -5 5 -12q0 -9 -10 -17t-18 -8q-12 0 -29 10q-54 27 -96 93t-42 180q0 78 25.5 139.5t53 89t58.5 45.5q20 10 30 10t17 -7q12 -12 12 -18q0 -8 -5 -13q-43 -39 -65 -93.5t-22 -152.5z" />
    <glyph glyph-name="parenright.inferior" unicode="&#x208e;" horiz-adv-x="236" 
d="M98 63q0 101 -20.5 152t-65.5 94q-5 5 -5 12q0 9 10 17t18 8q12 0 29 -10q54 -27 96 -93t42 -180q0 -78 -25.5 -139.5t-53 -89t-58.5 -45.5q-20 -10 -30 -10t-17 7q-12 12 -12 18q0 8 5 13q43 39 65 93.5t22 152.5z" />
    <glyph glyph-name="Euro" unicode="&#x20ac;" horiz-adv-x="674" 
d="M503 368h-166v-28v-29h166q25 0 25 -24v-34q0 -25 -25 -25h-157q11 -52 38 -68.5t78 -16.5q50 0 105 15q20 5 30 5q12 0 18 -14q23 -63 23 -102q0 -20 -21 -28q-78 -32 -207 -32q-112 0 -174.5 54.5t-78.5 186.5h-62q-25 0 -25 25v33q0 25 25 25h57v15q0 28 1 42h-58
q-25 0 -25 25v33q0 25 25 25h65q18 124 84.5 180.5t197.5 56.5q100 0 156 -16q24 -7 24 -30q0 -45 -19 -100q-7 -16 -20 -16q-1 0 -33 5q-38 6 -80 6q-54 0 -82 -17t-41 -69h156q25 0 25 -24v-34q0 -25 -25 -25z" />
    <glyph glyph-name="afii61289" unicode="&#x2113;" horiz-adv-x="522" 
d="M266 216q3 -53 30 -70.5t76 -17.5q29 0 54 7q21 6 30 6q30 0 38 -26q15 -47 15 -64q0 -26 -29 -38q-73 -26 -137 -26q-85 0 -142 31t-82 109q-15 -10 -23 -14q-14 -8 -27 -8q-12 0 -20.5 8t-24.5 35q-16 29 -16 40q0 21 26 35q33 19 56 34q-7 49 -7 105q0 126 22 192
q44 135 207 135q92 0 134.5 -44.5t42.5 -118.5q0 -97 -77 -186q-45 -50 -146 -124zM244 363q47 37 77 76q30 37 30 76q0 42 -46 42q-35 0 -49 -30q-14 -28 -14 -107q0 -9 2 -57z" />
    <glyph glyph-name="trademark" unicode="&#x2122;" horiz-adv-x="827" 
d="M227 386q0 -11 -6.5 -17t-16.5 -6h-57q-9 0 -15.5 6.5t-6.5 16.5v232h-66q-21 0 -21 19v48q0 21 21 21h234q21 0 21 -21v-48q0 -19 -21 -19h-66v-232zM470 385q0 -22 -20 -22h-59q-21 0 -21 23v297q0 23 22 23h97q23 0 28 -15q32 -85 45 -128l41 129q5 14 24 14h98
q9 0 15 -7t6 -16v-295q0 -25 -23 -25h-58q-21 0 -21 24q0 177 2 216q-15 -59 -45 -154q-4 -15 -22 -15h-38q-17 0 -22 14l-50 155q1 -38 1 -218z" />
    <glyph glyph-name="Omega" unicode="&#x2126;" horiz-adv-x="764" 
d="M355 40q0 -23 -12 -31.5t-38 -8.5h-204q-24 0 -32.5 7t-8.5 27v80q0 24 9 32.5t31 8.5h129q-82 30 -124 82t-42 159q0 148 77.5 221t244.5 73q175 0 244.5 -71t69.5 -220q0 -101 -43 -158t-124 -86h128q25 0 34 -8.5t9 -32.5v-74q0 -25 -7 -32.5t-31 -7.5h-205
q-26 0 -38 8.5t-12 31.5v126q0 42 37 62q53 29 53 145q0 52 -7 85t-23.5 49t-35.5 21t-50 5q-64 0 -92 -35t-28 -129q0 -111 54 -143q37 -21 37 -61v-125z" />
    <glyph glyph-name="estimated" unicode="&#x212e;" horiz-adv-x="845" 
d="M803 336h-616q-6 0 -6 -4v-195q0 -10 10 -22q95 -106 233 -106q147 0 244 118h57q-54 -64 -133 -101.5t-169 -37.5q-158 0 -269.5 105t-111.5 253t111.5 252.5t269.5 104.5t269 -104.5t111 -252.5v-10zM665 362v195q0 13 -11 24q-98 101 -230 101q-135 0 -232 -105
q-11 -9 -11 -24v-191q0 -5 6 -5h472q6 0 6 5z" />
    <glyph glyph-name="onethird" unicode="&#x2153;" horiz-adv-x="892" 
d="M278 -13q-10 -19 -28 -19h-29q-16 0 -16 14q0 8 6 20l331 687q11 22 26 22h37q13 0 13 -14q0 -5 -8 -23zM165 564l-41 -18q-7 -4 -15 -4q-9 0 -14 11q-23 54 -23 65q0 9 11 14l88 39q12 5 33 5h67q21 0 21 -21v-369q0 -22 -23 -22h-83q-21 0 -21 22v278zM716 219
q52 -5 73.5 -29t21.5 -72q0 -63 -34 -94.5t-139 -31.5q-77 0 -117 10q-17 4 -17 19q0 23 11 61q4 13 17 13q2 0 6 -0.5t10 -1.5t9 -1q24 -4 74 -4q34 0 43 7t9 28q0 24 -11.5 31.5t-47.5 7.5h-21q-18 0 -18 22v52q0 9 5.5 16t12.5 7h22q27 0 35.5 7t8.5 26q0 20 -9 26t-39 6
q-35 0 -59 -3q-20 -4 -24 -4q-11 0 -15 11q-7 34 -7 62q0 15 17 19q40 11 118 11q49 0 78.5 -6.5t43 -23.5t17.5 -35.5t4 -52.5q0 -29 -19 -52t-59 -31z" />
    <glyph glyph-name="twothirds" unicode="&#x2154;" horiz-adv-x="892" 
d="M335 -13q-10 -19 -28 -19h-29q-16 0 -16 14q0 8 6 20l331 687q11 22 26 22h37q13 0 13 -14q0 -5 -8 -23zM351 264h-284q-9 0 -15 5.5t-6 11.5v53q0 16 15 25q64 42 130 97q41 33 41 82q0 30 -13.5 40.5t-45.5 10.5q-23 0 -63 -5q-15 -3 -25 -3q-12 0 -14 10q-8 38 -8 61
q0 15 17 19q46 13 123 13q94 0 126.5 -33t32.5 -94q0 -76 -39 -115q-44 -44 -102 -79q38 1 130 1q22 0 22 -20v-60q0 -20 -22 -20zM760 219q52 -5 73.5 -29t21.5 -72q0 -63 -34 -94.5t-139 -31.5q-77 0 -117 10q-17 4 -17 19q0 23 11 61q4 13 17 13q2 0 6 -0.5t10 -1.5t9 -1
q24 -4 74 -4q34 0 43 7t9 28q0 24 -11.5 31.5t-47.5 7.5h-21q-18 0 -18 22v52q0 9 5.5 16t12.5 7h22q27 0 35.5 7t8.5 26q0 20 -9 26t-39 6q-35 0 -59 -3q-20 -4 -24 -4q-11 0 -15 11q-7 34 -7 62q0 15 17 19q40 11 118 11q49 0 78.5 -6.5t43 -23.5t17.5 -35.5t4 -52.5
q0 -29 -19 -52t-59 -31z" />
    <glyph glyph-name="oneeighth" unicode="&#x215b;" horiz-adv-x="892" 
d="M271 -13q-10 -19 -28 -19h-29q-16 0 -16 14q0 8 6 20l331 687q11 22 26 22h37q13 0 13 -14q0 -5 -8 -23zM155 564l-41 -18q-7 -4 -15 -4q-9 0 -14 11q-23 54 -23 65q0 9 11 14l88 39q12 5 33 5h67q21 0 21 -21v-369q0 -22 -23 -22h-83q-21 0 -21 22v278zM746 218
q72 15 72 90q0 59 -38 85.5t-121 26.5q-86 0 -126.5 -27t-40.5 -87q0 -73 73 -90q-83 -17 -83 -102q0 -63 38 -92.5t131 -29.5q98 0 136.5 30t38.5 96q0 41 -17 66.5t-63 33.5zM694 292q0 -19 -9 -26.5t-32 -7.5q-24 0 -32 7.5t-8 26.5q0 20 8.5 28t32.5 8q23 0 31.5 -7.5
t8.5 -28.5zM700 124q0 -23 -10.5 -32.5t-36.5 -9.5t-36.5 9.5t-10.5 31.5q0 23 10.5 32t37.5 9q25 0 35.5 -8.5t10.5 -31.5z" />
    <glyph glyph-name="threeeighths" unicode="&#x215c;" horiz-adv-x="892" 
d="M308 -13q-10 -19 -28 -19h-29q-16 0 -16 14q0 8 6 20l331 687q11 22 26 22h37q13 0 13 -14q0 -5 -8 -23zM261 483q52 -5 73.5 -29t21.5 -72q0 -63 -34 -94.5t-139 -31.5q-77 0 -117 10q-17 4 -17 19q0 23 11 61q4 13 17 13q2 0 6 -0.5t10 -1.5t9 -1q24 -4 74 -4
q34 0 43 7t9 28q0 24 -11.5 31.5t-47.5 7.5h-21q-18 0 -18 22v52q0 9 5.5 16t12.5 7h22q27 0 35.5 7t8.5 26q0 20 -9 26t-39 6q-35 0 -59 -3q-20 -4 -24 -4q-11 0 -15 11q-7 34 -7 62q0 15 17 19q40 11 118 11q49 0 78.5 -6.5t43 -23.5t17.5 -35.5t4 -52.5q0 -29 -19 -52
t-59 -31zM776 218q72 15 72 90q0 59 -38 85.5t-121 26.5q-86 0 -126.5 -27t-40.5 -87q0 -73 73 -90q-83 -17 -83 -102q0 -63 38 -92.5t131 -29.5q98 0 136.5 30t38.5 96q0 41 -17 66.5t-63 33.5zM724 292q0 -19 -9 -26.5t-32 -7.5q-24 0 -32 7.5t-8 26.5q0 20 8.5 28t32.5 8
q23 0 31.5 -7.5t8.5 -28.5zM730 124q0 -23 -10.5 -32.5t-36.5 -9.5t-36.5 9.5t-10.5 31.5q0 23 10.5 32t37.5 9q25 0 35.5 -8.5t10.5 -31.5z" />
    <glyph glyph-name="fiveeighths" unicode="&#x215d;" horiz-adv-x="892" 
d="M311 -13q-10 -19 -28 -19h-29q-16 0 -16 14q0 8 6 20l331 687q11 22 26 22h37q13 0 13 -14q0 -5 -8 -23zM176 524q29 6 56 6q73 0 105 -26.5t32 -105.5q0 -70 -37.5 -106t-143.5 -36q-76 0 -117 10q-17 4 -17 19q0 25 10 58q5 16 18 16q2 0 6 -0.5t10 -1.5t9 -1
q24 -4 73 -4q37 0 49 7.5t12 33.5q0 27 -14 33.5t-47 6.5q-13 0 -24.5 -0.5t-23 -2t-16.5 -1.5q-10 -2 -22 -2q-26 0 -26 28q0 23 1 30l14 169q1 9 7 15.5t14 6.5h224q21 0 21 -18v-62q0 -18 -24 -18h-144zM775 218q72 15 72 90q0 59 -38 85.5t-121 26.5q-86 0 -126.5 -27
t-40.5 -87q0 -73 73 -90q-83 -17 -83 -102q0 -63 38 -92.5t131 -29.5q98 0 136.5 30t38.5 96q0 41 -17 66.5t-63 33.5zM723 292q0 -19 -9 -26.5t-32 -7.5q-24 0 -32 7.5t-8 26.5q0 20 8.5 28t32.5 8q23 0 31.5 -7.5t8.5 -28.5zM729 124q0 -23 -10.5 -32.5t-36.5 -9.5
t-36.5 9.5t-10.5 31.5q0 23 10.5 32t37.5 9q25 0 35.5 -8.5t10.5 -31.5z" />
    <glyph glyph-name="seveneighths" unicode="&#x215e;" horiz-adv-x="892" 
d="M263 -13q-10 -19 -28 -19h-29q-16 0 -16 14q0 8 6 20l331 687q11 22 26 22h37q13 0 13 -14q0 -5 -8 -23zM231 579q-48 -1 -168 -1q-23 0 -23 17v60q0 21 22 21h297q20 0 20 -19v-35q0 -20 -8 -39l-134 -299q-9 -20 -30 -20h-91q-9 0 -13.5 5t-4.5 10q0 15 5 23
q38 93 128 277zM737 218q72 15 72 90q0 59 -38 85.5t-121 26.5q-86 0 -126.5 -27t-40.5 -87q0 -73 73 -90q-83 -17 -83 -102q0 -63 38 -92.5t131 -29.5q98 0 136.5 30t38.5 96q0 41 -17 66.5t-63 33.5zM685 292q0 -19 -9 -26.5t-32 -7.5q-24 0 -32 7.5t-8 26.5q0 20 8.5 28
t32.5 8q23 0 31.5 -7.5t8.5 -28.5zM691 124q0 -23 -10.5 -32.5t-36.5 -9.5t-36.5 9.5t-10.5 31.5q0 23 10.5 32t37.5 9q25 0 35.5 -8.5t10.5 -31.5z" />
    <glyph glyph-name="arrowleft" unicode="&#x2190;" horiz-adv-x="768" 
d="M673 420q28 0 44 -13t16 -37v-68q0 -24 -15 -37t-39 -13q-305 0 -372 2q10 -9 120 -114q25 -23 25 -49q0 -17 -13 -32l-38 -40q-16 -16 -36 -18q-18 0 -35 17l-282 279q-17 17 -17 39t17 38l286 284q17 17 35 17t36 -18l35 -37q17 -17 17 -34q0 -19 -19 -40
q-100 -102 -130 -128q67 2 365 2z" />
    <glyph glyph-name="arrowup" unicode="&#x2191;" horiz-adv-x="768" 
d="M298 60q0 298 2 365q-39 -45 -124 -128q-20 -18 -40 -18t-34 14l-37 35q-18 18 -18 36t17 35l284 286q16 17 38 17t39 -17l279 -282q17 -17 17 -35q-2 -20 -18 -36l-40 -38q-13 -12 -31 -12q-28 0 -50 24l-110 120q2 -67 2 -372q0 -24 -13 -39t-37 -15h-76q-24 0 -37 16
t-13 44z" />
    <glyph glyph-name="arrowright" unicode="&#x2192;" horiz-adv-x="768" 
d="M95 420q298 0 365 -2q-30 26 -130 128q-19 21 -19 39q0 20 15 35l37 37q18 18 36 18t35 -17l286 -284q17 -16 17 -38t-17 -39l-282 -279q-17 -17 -35 -17q-20 2 -36 18l-40 40q-14 16 -14 31q0 26 26 50q54 53 122 114q-67 -2 -372 -2q-24 0 -39 13t-15 37v68q0 24 16 37
t44 13z" />
    <glyph glyph-name="arrowdown" unicode="&#x2193;" horiz-adv-x="768" 
d="M298 615q0 28 13 44t37 16h76q24 0 37 -15t13 -39q0 -305 -2 -372l110 120q22 24 50 24q18 0 31 -12l40 -38q16 -16 18 -36q0 -18 -17 -35l-279 -282q-17 -17 -39 -17t-38 17l-284 286q-17 17 -17 35t18 36l37 35q14 14 34 14t40 -18q85 -83 124 -128q-2 67 -2 365z" />
    <glyph glyph-name="uni2196" unicode="&#x2196;" horiz-adv-x="768" 
d="M661 194q22 -22 22 -43q0 -19 -15 -34q-42 -45 -58.5 -57t-29.5 -12q-21 0 -39 18q-183 184 -256 267q6 -75 6 -173q0 -31 -15 -47q-13 -13 -33 -13h-62q-23 0 -38 13q-12 14 -12 37v397q0 23 16 39q14 15 45 15h397q22 0 37 -13q12 -14 12 -38v-51q0 -24 -12 -36
q-14 -14 -42 -14q-94 0 -182 4z" />
    <glyph glyph-name="uni2197" unicode="&#x2197;" horiz-adv-x="768" 
d="M228 71q-22 -22 -43 -22q-19 0 -34 15q-45 42 -57 58.5t-12 29.5q0 21 18 39l267 258q-75 -6 -173 -6q-31 0 -47 15q-13 13 -13 33v60q0 23 13 38q13 12 37 12h397q23 0 39 -16q15 -13 15 -45v-397q0 -22 -13 -37q-13 -12 -38 -12h-56q-24 0 -36 12q-14 14 -14 42
q0 89 4 177z" />
    <glyph glyph-name="uni2198" unicode="&#x2198;" horiz-adv-x="768" 
d="M106 484q-22 22 -22 43q0 19 15 34q42 45 58.5 57t29.5 12q21 0 39 -18q183 -184 256 -267q-6 75 -6 173q0 31 15 47q13 13 33 13h62q23 0 38 -13q12 -13 12 -37v-397q0 -23 -16 -39q-14 -15 -45 -15h-397q-22 0 -37 13q-12 14 -12 38v51q0 24 12 36q14 14 42 14
q94 0 182 -4z" />
    <glyph glyph-name="uni2199" unicode="&#x2199;" horiz-adv-x="768" 
d="M538 606q22 22 43 22q19 0 34 -15q45 -42 57 -58.5t12 -29.5q0 -21 -18 -39q-210 -209 -267 -259q63 5 173 5q32 0 47 -14q13 -13 13 -33v-59q0 -23 -13 -38q-13 -12 -37 -12h-397q-23 0 -39 16q-15 14 -15 45v397q0 22 13 37q14 12 38 12h58q24 0 36 -12q14 -14 14 -42
q0 -94 -4 -182z" />
    <glyph glyph-name="partialdiff" unicode="&#x2202;" horiz-adv-x="575" 
d="M358 412q-1 54 -9 87t-25 47.5t-32 18.5t-41 4q-36 0 -82 -12q-12 -4 -24 -4q-30 0 -36 24q-9 38 -9 48q0 31 30 41q78 23 149 23q50 0 84.5 -7.5t67 -30.5t51.5 -64t30.5 -110t11.5 -167q0 -57 -6 -101.5t-23.5 -87.5t-45.5 -71.5t-74.5 -45.5t-109.5 -17
q-107 0 -163.5 50t-56.5 170q0 121 56.5 174.5t167.5 53.5q65 0 89 -23zM365 288q-29 30 -80 30q-48 0 -69.5 -20t-21.5 -80q0 -66 17.5 -89t63.5 -23q40 0 57 15.5t25 60.5q8 48 8 106z" />
    <glyph glyph-name="Delta" unicode="&#x2206;" horiz-adv-x="765" 
d="M738 55q4 -11 4 -22q0 -33 -40 -33h-639q-40 0 -40 32q0 11 4 22l234 583q9 22 19 30t31 8h153q21 0 30.5 -8.5t17.5 -29.5zM387 487q-16 -49 -122 -329h231l-29 84l-23 67l-17 49l-13 38q-5 13 -9.5 27.5t-6.5 23.5l-5 19z" />
    <glyph glyph-name="product" unicode="&#x220f;" horiz-adv-x="729" 
d="M265 -89q0 -25 -9.5 -34.5t-34.5 -9.5h-99q-25 0 -35 9.5t-10 33.5v720q0 46 47 46h482q46 0 46 -48v-716q0 -25 -9 -35t-33 -10h-105q-24 0 -34 9.5t-10 33.5v607h-196v-606z" />
    <glyph glyph-name="summation" unicode="&#x2211;" horiz-adv-x="620" 
d="M535 -133h-455q-48 0 -48 47v73q0 24 27 58l189 240l-180 225q-27 32 -27 55v69q0 24 11.5 33t37.5 9h444q27 0 38 -9.5t11 -34.5v-78q0 -23 -11 -29t-42 -6h-242l151 -183q22 -26 22 -51q0 -24 -30 -59l-174 -200h281q27 0 38.5 -8.5t11.5 -31.5v-85q0 -23 -11.5 -28.5
t-41.5 -5.5z" />
    <glyph glyph-name="minus" unicode="&#x2212;" horiz-adv-x="701" 
d="M611 276q0 -40 -35 -40h-451q-35 0 -35 40v39q0 40 35 40h451q35 0 35 -40v-39z" />
    <glyph glyph-name="uni2215" unicode="&#x2215;" horiz-adv-x="84" 
d="M-91 -13q-10 -19 -28 -19h-29q-16 0 -16 14q0 8 6 20l331 687q11 22 26 22h37q13 0 13 -14q0 -5 -8 -23z" />
    <glyph glyph-name="uni2219" unicode="&#x2219;" horiz-adv-x="269" 
d="M233 267q0 -100 -101 -100q-42 0 -69.5 22.5t-27.5 76.5q0 103 100 103q45 0 71.5 -22.5t26.5 -79.5z" />
    <glyph glyph-name="radical" unicode="&#x221a;" horiz-adv-x="633" 
d="M382 -147q-6 -19 -14 -26.5t-26 -7.5h-72q-17 0 -25 6t-17 23l-111 206l-31 -14q-16 -8 -28 -8q-16 0 -26 21q-17 37 -17 50q0 19 28 30l118 51q16 6 29 6t26 -26l90 -175l191 674q10 34 45 34h43q36 0 36 -31q0 -4 -2 -14z" />
    <glyph glyph-name="infinity" unicode="&#x221e;" horiz-adv-x="731" 
d="M365 379q39 43 78 64t90 21q66 0 109 -46.5t43 -119.5q0 -76 -42.5 -123t-116.5 -47q-46 0 -83 22t-77 66q-40 -44 -77.5 -66t-88.5 -22q-69 0 -111.5 42t-42.5 121t44 126t115 47q47 0 84 -21.5t76 -63.5zM296 298q-27 32 -46.5 46.5t-43.5 14.5t-40 -17.5t-16 -47.5
q0 -26 15.5 -43.5t38.5 -17.5q26 0 46 15t46 50zM435 297q51 -63 90 -63q24 0 39.5 16.5t15.5 43.5q0 64 -54 64q-41 0 -91 -61z" />
    <glyph glyph-name="integral" unicode="&#x222b;" horiz-adv-x="351" 
d="M124 11q0 30 -2 70l-17 389q-2 46 -2 81q0 158 165 158q23 0 51 -2q21 -2 30 -9t9 -24q0 -22 -6 -52q-4 -18 -11.5 -22.5t-24.5 -4.5q-1 0 -14.5 0.5t-22.5 0.5q-41 0 -41 -61q0 -43 1 -62l17 -392q2 -54 2 -85q0 -84 -46 -121t-132 -37q-23 0 -39 4q-28 6 -28 29
q0 26 5 51q6 32 35 32q2 0 14 -0.5t16 -0.5q21 0 31 12t10 46z" />
    <glyph glyph-name="approxequal" unicode="&#x2248;" horiz-adv-x="701" 
d="M183 124q-21 -21 -37 -21q-20 0 -43 21q-20 17 -20 35q0 17 12 31q74 86 152 86q47 0 112 -35q50 -27 88 -27q40 0 70 30q24 24 38 24q16 0 42 -22q21 -17 21 -35q0 -14 -12 -30q-70 -88 -160 -88q-56 0 -113 32q-51 29 -83 29q-38 0 -67 -30zM183 374q-21 -21 -37 -21
q-20 0 -43 21q-20 17 -20 35q0 17 12 31q74 86 152 86q47 0 112 -35q50 -27 88 -27q40 0 70 30q24 24 38 24q16 0 42 -22q21 -18 21 -35q0 -14 -12 -30q-70 -88 -160 -88q-56 0 -113 32q-51 29 -83 29q-38 0 -67 -30z" />
    <glyph glyph-name="notequal" unicode="&#x2260;" horiz-adv-x="701" 
d="M274 36q-8 -16 -16 -22.5t-24 -6.5h-28q-30 0 -30 21q0 12 7 26l36 72h-94q-35 0 -35 40v35q0 40 35 40h150l53 109h-203q-35 0 -35 40v36q0 40 35 40h261l37 75q8 16 16 22.5t24 6.5h28q30 0 30 -23q0 -8 -8 -24l-28 -57h91q35 0 35 -40v-36q0 -40 -35 -40h-148
l-53 -109h201q35 0 35 -40v-35q0 -40 -35 -40h-258z" />
    <glyph glyph-name="lessequal" unicode="&#x2264;" horiz-adv-x="701" 
d="M576 208q0 -35 -28 -35q-10 0 -19 4l-381 158q-31 13 -31 46v56q0 33 31 46l381 160q12 5 20 5q27 0 27 -36v-49q0 -34 -32 -46l-290 -107l290 -104q32 -12 32 -46v-52zM576 40q0 -40 -36 -40h-387q-36 0 -36 40v35q0 40 36 40h387q36 0 36 -40v-35z" />
    <glyph glyph-name="greaterequal" unicode="&#x2265;" horiz-adv-x="701" 
d="M584 383q0 -33 -31 -46l-380 -159q-12 -5 -20 -5q-27 0 -27 35v50q0 34 32 46l290 108l-290 104q-32 12 -32 46v51q0 35 28 35q10 0 19 -4l380 -158q31 -13 31 -46v-57zM584 40q0 -40 -35 -40h-388q-35 0 -35 40v35q0 40 35 40h388q35 0 35 -40v-35z" />
    <glyph glyph-name="lozenge" unicode="&#x25ca;" horiz-adv-x="727" 
d="M285 675q15 29 47 29h68q32 0 47 -29l146 -291q8 -16 8 -30q0 -16 -8 -30l-147 -295q-14 -29 -47 -29h-67q-32 0 -47 29l-152 294q-9 16 -9 31q0 12 9 30zM259 353l109 -217l105 218l-107 219z" />
    <glyph glyph-name="commaaccent" unicode="&#xf6c3;" horiz-adv-x="185" 
d="M134 -60q21 0 29.5 -9.5t8.5 -31.5q0 -114 -61 -182q-20 -24 -40 -24q-15 0 -35 11t-20 26q0 12 9 33q18 48 18 129q0 48 45 48h46z" />
    <glyph glyph-name="Dotlessi" horiz-adv-x="332" 
d="M262 36q0 -17 -10 -26.5t-25 -9.5h-124q-33 0 -33 36v634q0 36 34 36h126q32 0 32 -35v-635z" />
    <glyph glyph-name="Euro.denominator" horiz-adv-x="444" 
d="M332 224h-105v-17v-17h105q16 0 16 -15v-23q0 -15 -16 -15h-99q7 -29 23 -38t49 -9q30 0 63 7q12 3 24 3q9 0 13 -8q15 -39 15 -61q0 -15 -15 -19q-51 -20 -134 -20q-72 0 -112.5 32.5t-51.5 112.5h-40q-17 0 -17 15v22q0 16 17 16h37v9v25h-37q-17 0 -17 16v22
q0 15 17 15h42q12 75 55.5 109t127.5 34q64 0 102 -10q15 -4 15 -19q0 -33 -11 -64q-4 -9 -15 -9q-4 0 -8 0.5t-9 1.5t-8 1q-24 3 -48 3q-34 0 -51.5 -9t-25.5 -38h99q16 0 16 -15v-22q0 -16 -16 -16z" />
    <glyph glyph-name="Euro.inferior" horiz-adv-x="444" 
d="M332 98h-105v-17v-17h105q16 0 16 -15v-23q0 -15 -16 -15h-99q7 -29 23.5 -38t48.5 -9q30 0 63 7q12 3 24 3q9 0 13 -8q15 -39 15 -61q0 -15 -15 -19q-51 -20 -134 -20q-72 0 -112.5 33t-51.5 112h-40q-17 0 -17 15v22q0 16 17 16h37v9v25h-37q-17 0 -17 16v22
q0 15 17 15h42q12 75 55.5 109t127.5 34q64 0 102 -10q15 -4 15 -19q0 -33 -11 -64q-4 -9 -15 -9q-4 0 -8 0.5t-9 1.5t-8 1q-24 3 -48 3q-34 0 -51.5 -9t-25.5 -38h99q16 0 16 -15v-22q0 -16 -16 -16z" />
    <glyph glyph-name="Euro.numerator" horiz-adv-x="444" 
d="M332 488h-105v-17v-17h105q16 0 16 -15v-23q0 -15 -16 -15h-99q7 -29 23 -38t49 -9q30 0 63 7q12 3 24 3q9 0 13 -8q15 -39 15 -61q0 -15 -15 -19q-51 -20 -134 -20q-72 0 -112.5 32.5t-51.5 112.5h-40q-17 0 -17 15v22q0 16 17 16h37v9v25h-37q-17 0 -17 16v22
q0 15 17 15h42q12 75 55.5 109t127.5 34q64 0 102 -10q15 -4 15 -19q0 -33 -11 -64q-4 -9 -15 -9q-4 0 -8 0.5t-9 1.5t-8 1q-24 3 -48 3q-34 0 -51.5 -9t-25.5 -38h99q16 0 16 -15v-22q0 -16 -16 -16z" />
    <glyph glyph-name="Euro.oldstyle" horiz-adv-x="672" 
d="M503 328h-165v-26v-27h165q23 0 23 -23v-32q0 -23 -23 -23h-155q11 -39 34.5 -51t70.5 -12q46 0 100 14q24 4 29 4q13 0 19 -12q22 -59 22 -96q0 -21 -22 -28q-75 -29 -198 -29q-107 0 -167 47.5t-77 162.5h-60q-23 0 -23 23v31q0 24 23 24h55v14q0 26 1 39h-56
q-23 0 -23 24v31q0 23 23 23h64q19 108 82.5 157t188.5 49q97 0 150 -14q23 -5 23 -31q0 -46 -16 -92q-2 -6 -9 -11t-12 -5q-8 0 -32 4q-36 6 -80 6q-47 0 -72.5 -12.5t-36.5 -50.5h154q23 0 23 -22v-32q0 -24 -23 -24z" />
    <glyph glyph-name="Euro.superior" horiz-adv-x="444" 
d="M332 644h-105v-17v-17h105q16 0 16 -15v-23q0 -15 -16 -15h-99q7 -29 23 -38t49 -9q30 0 63 7q12 3 24 3q9 0 13 -8q15 -39 15 -61q0 -15 -15 -19q-51 -20 -134 -20q-72 0 -112.5 32.5t-51.5 112.5h-40q-17 0 -17 15v22q0 16 17 16h37v9v25h-37q-17 0 -17 16v22
q0 15 17 15h42q12 75 55.5 109t127.5 34q64 0 102 -10q15 -4 15 -19q0 -33 -11 -64q-4 -9 -15 -9q-4 0 -8 0.5t-9 1.5t-8 1q-24 3 -48 3q-34 0 -51.5 -9t-25.5 -38h99q16 0 16 -15v-22q0 -16 -16 -16z" />
    <glyph glyph-name="Kgreenlandic" horiz-adv-x="815" 
d="M689 411q-24 0 -33 9.5t-9 33.5q0 63 26.5 138.5t66.5 118.5q24 26 44 26q22 0 43 -12q24 -13 24 -30q0 -15 -12 -34q-40 -64 -40 -202q0 -48 -52 -48h-58zM262 36q0 -17 -10 -26.5t-25 -9.5h-124q-33 0 -33 36v634q0 36 34 36h126q32 0 32 -35v-228h32q35 0 47 23
l105 213q14 27 43 27h124q29 0 29 -24q0 -10 -10 -30q-98 -186 -152 -279q12 -24 169 -310q14 -24 14 -38q0 -11 -8.5 -18t-19.5 -7h-143q-27 0 -40 24l-124 242q-9 18 -41 18h-25v-248z" />
    <glyph glyph-name="S_S" horiz-adv-x="1199" 
d="M381 430q104 -27 139.5 -69.5t35.5 -142.5q0 -112 -64 -171.5t-218 -59.5q-141 0 -220 28q-29 11 -29 42q0 17 15 73q10 34 41 34q14 0 44 -9q65 -17 155 -17q45 0 61.5 13.5t16.5 41.5q0 33 -12.5 47t-48.5 21l-79 16q-93 19 -135.5 68t-42.5 149q0 226 270 226
q129 0 195 -23q28 -10 28 -43q0 -28 -12 -74q-7 -30 -32 -30q-22 0 -42 5q-77 12 -149 12q-62 0 -62 -56q0 -49 56 -61zM980 430q104 -27 139.5 -69.5t35.5 -142.5q0 -112 -64 -171.5t-218 -59.5q-141 0 -220 28q-29 11 -29 42q0 17 15 73q10 34 41 34q14 0 44 -9
q65 -17 155 -17q45 0 61.5 13.5t16.5 41.5q0 33 -12.5 47t-48.5 21l-79 16q-93 19 -135.5 68t-42.5 149q0 226 270 226q129 0 195 -23q28 -10 28 -43q0 -28 -12 -74q-7 -30 -32 -30q-22 0 -42 5q-77 12 -149 12q-62 0 -62 -56q0 -49 56 -61z" />
    <glyph glyph-name="a.sc" horiz-adv-x="577" 
d="M207 38q-11 -38 -41 -38h-128q-31 0 -31 23q0 12 8 36l164 437q10 28 45 28h132q30 0 41 -28l166 -444q5 -15 5 -27q0 -9 -7 -17t-22 -8h-127q-32 0 -42 35l-16 53h-132zM291 341l-13 -50l-19 -77h61q-5 19 -29 127z" />
    <glyph glyph-name="a.superior" horiz-adv-x="373" 
d="M213 287q-29 -28 -74 -28q-61 0 -87.5 28t-26.5 73q0 52 35 76q31 21 107 21q9 0 41 -2v4q0 10 -2 15q-4 10 -39 10q-26 0 -66 -4q-14 -2 -24 -2q-15 0 -18 16q-6 17 -6 52q0 20 17 23q41 12 114 12q99 0 126 -25q23 -22 23 -77v-188q0 -27 -27 -27h-63q-28 0 -29 17z
M208 388q-11 1 -24 1q-23 0 -34 -7q-8 -6 -8 -19q0 -23 31 -23q19 0 27 6q4 3 6 9q2 7 2 23v10z" />
    <glyph glyph-name="aacute.sc" horiz-adv-x="577" 
d="M207 38q-11 -38 -41 -38h-128q-31 0 -31 23q0 12 8 36l164 437q10 28 45 28h132q30 0 41 -28l166 -444q5 -15 5 -27q0 -9 -7 -17t-22 -8h-127q-32 0 -42 35l-16 53h-132zM291 341l-13 -50l-19 -77h61q-5 19 -29 127zM340 612q-24 -22 -53 -22h-51q-32 0 -32 23
q0 14 11 28l80 108q19 27 50 27h88q33 0 33 -23q0 -14 -14 -28z" />
    <glyph glyph-name="abreve.sc" horiz-adv-x="577" 
d="M207 38q-11 -38 -41 -38h-128q-31 0 -31 23q0 12 8 36l164 437q10 28 45 28h132q30 0 41 -28l166 -444q5 -15 5 -27q0 -9 -7 -17t-22 -8h-127q-32 0 -42 35l-16 53h-132zM291 341l-13 -50l-19 -77h61q-5 19 -29 127zM425 763q28 0 28 -29q0 -30 -7 -51q-17 -51 -51 -76.5
t-107 -25.5q-128 0 -154 99q-5 20 -5 47q0 36 31 36h29q32 0 38 -29q11 -51 64 -51q22 0 36.5 8t19.5 17t11 25q10 30 37 30h30z" />
    <glyph glyph-name="acircumflex.sc" horiz-adv-x="577" 
d="M207 38q-11 -38 -41 -38h-128q-31 0 -31 23q0 12 8 36l164 437q10 28 45 28h132q30 0 41 -28l166 -444q5 -15 5 -27q0 -9 -7 -17t-22 -8h-127q-32 0 -42 35l-16 53h-132zM291 341l-13 -50l-19 -77h61q-5 19 -29 127zM200 590h-47q-32 0 -32 24q0 11 11 25l77 104
q25 33 48 33h73q24 0 49 -33l76 -104q10 -13 10 -25q0 -24 -31 -24h-49q-27 0 -46 23l-46 54l-47 -55q-19 -22 -46 -22z" />
    <glyph glyph-name="acute.cap" horiz-adv-x="197" 
d="M92 773q-27 -16 -55 -16h-66q-26 0 -26 18q0 15 16 30l103 90q26 23 58 23h103q31 0 31 -20q0 -19 -18 -30z" />
    <glyph glyph-name="acute.sc" horiz-adv-x="197" 
d="M104 612q-24 -22 -53 -22h-51q-32 0 -32 23q0 14 11 28l80 108q20 27 50 27h88q33 0 33 -23q0 -14 -14 -28z" />
    <glyph glyph-name="adieresis.sc" horiz-adv-x="577" 
d="M207 38q-11 -38 -41 -38h-128q-31 0 -31 23q0 12 8 36l164 437q10 28 45 28h132q30 0 41 -28l166 -444q5 -15 5 -27q0 -9 -7 -17t-22 -8h-127q-32 0 -42 35l-16 53h-132zM291 341l-13 -50l-19 -77h61q-5 19 -29 127zM267 664q0 -77 -73 -77q-72 0 -72 76q0 77 72 77
q73 0 73 -76zM465 664q0 -77 -73 -77q-72 0 -72 76q0 77 72 77q73 0 73 -76z" />
    <glyph glyph-name="ae.sc" horiz-adv-x="823" 
d="M259 97l-33 -63q-17 -34 -48 -34h-143q-28 0 -28 21q0 11 11 28l261 445q19 30 51 30h428q31 0 31 -30v-93q0 -23 -31 -23h-165v-41h151q17 0 24 -6t7 -22v-92q0 -24 -31 -24h-151v-49h181q17 0 24 -6t7 -22v-92q0 -24 -31 -24h-337q-31 0 -31 30v67h-147zM337 236h69
v147q-22 -54 -69 -147z" />
    <glyph glyph-name="aeacute.sc" horiz-adv-x="823" 
d="M259 97l-33 -63q-17 -34 -48 -34h-143q-28 0 -28 21q0 11 11 28l261 445q19 30 51 30h428q31 0 31 -30v-93q0 -23 -31 -23h-165v-41h151q17 0 24 -6t7 -22v-92q0 -24 -31 -24h-151v-49h181q17 0 24 -6t7 -22v-92q0 -24 -31 -24h-337q-31 0 -31 30v67h-147zM337 236h69
v147q-22 -54 -69 -147zM553 612q-24 -22 -53 -22h-51q-32 0 -32 23q0 14 11 28l80 108q20 27 50 27h88q33 0 33 -23q0 -14 -14 -28z" />
    <glyph glyph-name="agrave.sc" horiz-adv-x="577" 
d="M207 38q-11 -38 -41 -38h-128q-31 0 -31 23q0 12 8 36l164 437q10 28 45 28h132q30 0 41 -28l166 -444q5 -15 5 -27q0 -9 -7 -17t-22 -8h-127q-32 0 -42 35l-16 53h-132zM291 341l-13 -50l-19 -77h61q-5 19 -29 127zM238 612l-112 113q-14 14 -14 28q0 23 33 23h88
q31 0 50 -27l80 -108q11 -14 11 -28q0 -23 -32 -23h-46q-34 0 -58 22z" />
    <glyph glyph-name="amacron.sc" horiz-adv-x="577" 
d="M207 38q-11 -38 -41 -38h-128q-31 0 -31 23q0 12 8 36l164 437q10 28 45 28h132q30 0 41 -28l166 -444q5 -15 5 -27q0 -9 -7 -17t-22 -8h-127q-32 0 -42 35l-16 53h-132zM291 341l-13 -50l-19 -77h61q-5 19 -29 127zM414 599h-247q-34 0 -34 32v54q0 30 34 30h246
q34 0 34 -31v-56q0 -17 -8 -23t-25 -6z" />
    <glyph glyph-name="ampersand.alt" horiz-adv-x="790" 
d="M537 39q-67 -52 -204 -52q-153 0 -223.5 51t-70.5 167q0 78 34.5 120.5t115.5 77.5q-68 63 -68 144q0 83 51 127t185 44q108 0 161.5 -38t53.5 -119q0 -65 -32.5 -104t-100.5 -77q56 -56 101 -96q3 15 9 72q3 36 34 36h114q32 0 32 -35q0 -55 -19 -115t-42 -85l90 -89
q20 -20 20 -38q0 -30 -37 -30h-122q-36 0 -54 14q-11 8 -28 25zM412 547q0 40 -57 40q-59 0 -59 -41q0 -33 50 -73q36 19 51 36t15 38zM427 151q-62 55 -152 145q-40 -22 -40 -77q0 -50 27 -70t80 -20q58 0 85 22z" />
    <glyph glyph-name="ampersand.sc" horiz-adv-x="585" 
d="M503 188q5 -11 5 -36q0 -86 -55.5 -125t-176.5 -39q-63 0 -109.5 9t-72.5 23.5t-41.5 36.5t-20.5 43t-5 49q0 117 113 131q-93 20 -93 111q0 74 43 109.5t156 35.5q95 0 147 -19q19 -7 19 -38q0 -18 -12 -69q-6 -27 -30 -27q-6 0 -28 4q-70 9 -85 9q-42 0 -42 -28
q0 -16 8 -24t30 -9q27 -1 27 -30v-73q0 -25 -28 -27q-21 -2 -28.5 -10.5t-7.5 -32.5q0 -20 15 -27.5t49 -7.5q86 0 86 30q0 11 -4 19q-7 -1 -26 -1q-30 0 -30 32v64q0 18 9 27.5t22 9.5q104 2 185 19q15 5 27 5q18 0 22 -18q14 -56 14 -88q0 -23 -24 -29q-27 -6 -58 -9z" />
    <glyph glyph-name="ampersand.scalt" horiz-adv-x="641" 
d="M433 23q-56 -36 -166 -36q-125 0 -182 38.5t-57 125.5q0 58 26.5 89.5t89.5 57.5q-52 49 -52 106q0 64 43 98.5t157 34.5q96 0 137.5 -28.5t41.5 -91.5q0 -47 -26 -77.5t-78 -57.5q39 -36 69 -60q2 9 7 45q4 30 36 30h96q27 0 27 -32q0 -40 -15 -82.5t-34 -63.5
q14 -13 40 -35l34 -29q14 -13 14 -29q0 -26 -34 -26h-109q-32 0 -46 8q-9 5 -19 15zM327 408q0 27 -38 27t-38 -27q0 -26 32 -55q44 23 44 55zM329 119q-36 29 -104 90q-23 -18 -23 -47q0 -28 21.5 -42t53.5 -14q35 0 52 13z" />
    <glyph glyph-name="aogonek.sc" horiz-adv-x="577" 
d="M207 38q-11 -38 -41 -38h-128q-31 0 -31 23q0 12 8 36l164 437q10 28 45 28h132q30 0 41 -28l166 -444q5 -15 5 -27q0 -9 -7 -17t-22 -8h-51q-38 -29 -52.5 -41t-29 -34t-14.5 -47q0 -41 38 -41q9 0 24.5 1.5t17.5 1.5q12 0 18 -5t10 -20q5 -19 5 -37q0 -22 -30 -29
q-28 -7 -68 -7q-70 0 -100 28.5t-30 84.5q0 58 30.5 91.5t84.5 56.5q-16 7 -22 32l-16 53h-132zM291 341l-12 -50l-20 -77h61q-5 19 -29 127z" />
    <glyph glyph-name="aring.sc" horiz-adv-x="577" 
d="M207 38q-11 -38 -41 -38h-128q-31 0 -31 23q0 12 8 36l164 437q10 28 45 28h132q30 0 41 -28l166 -444q5 -15 5 -27q0 -9 -7 -17t-22 -8h-127q-32 0 -42 35l-16 53h-132zM291 341l-13 -50l-19 -77h61q-5 19 -29 127zM396 680q0 -48 -28.5 -73.5t-75.5 -25.5
q-45 0 -72 25.5t-27 73.5t28 75t74 27q47 0 74 -27t27 -75zM347 682q0 58 -54 58q-24 0 -39 -15.5t-15 -43.5t14.5 -43t40.5 -15q53 0 53 59z" />
    <glyph glyph-name="aringacute.sc" horiz-adv-x="577" 
d="M207 38q-11 -38 -41 -38h-128q-31 0 -31 23q0 12 8 36l164 437q10 28 45 28h132q30 0 41 -28l166 -444q5 -15 5 -27q0 -9 -7 -17t-22 -8h-127q-32 0 -42 35l-16 53h-132zM291 341l-13 -50l-19 -77h61q-5 19 -29 127zM394 670q0 -48 -28.5 -73.5t-75.5 -25.5
q-45 0 -72 25.5t-27 73.5t28 75t74 27q47 0 74 -27t27 -75zM345 672q0 58 -54 58q-24 0 -39 -15.5t-15 -43.5t14.5 -43t40.5 -15q53 0 53 59zM352 822q-24 -22 -53 -22h-48q-32 0 -32 23q0 14 11 28l70 98q20 27 50 27h84q33 0 33 -23q0 -14 -14 -28z" />
    <glyph glyph-name="atilde.sc" horiz-adv-x="577" 
d="M207 38q-11 -38 -41 -38h-128q-31 0 -31 23q0 12 8 36l164 437q10 28 45 28h132q30 0 41 -28l166 -444q5 -15 5 -27q0 -9 -7 -17t-22 -8h-127q-32 0 -42 35l-16 53h-132zM291 341l-13 -50l-19 -77h61q-5 19 -29 127zM175 586h-32q-29 0 -29 26q0 10 7 31q16 48 42 76.5
t60 28.5q28 0 72 -24q28 -16 50 -16q21 0 32 22q10 22 38 22h27q29 0 29 -27q0 -12 -13 -47q-30 -85 -93 -85q-40 0 -83 26q-24 14 -40 14q-21 0 -32 -19q-6 -11 -9.5 -15.5t-10 -8.5t-15.5 -4z" />
    <glyph glyph-name="b.sc" horiz-adv-x="544" 
d="M242 0h-145q-39 0 -39 37v455q0 32 37 32h159q51 0 93 -4q79 -7 114 -38t35 -89q0 -92 -82 -118q99 -23 99 -123q0 -104 -79 -133q-52 -19 -192 -19zM243 133h20q29 0 40 3q20 5 20 33q0 27 -21 33q-11 3 -39 3h-20v-72zM243 328h14q24 0 34 3q19 5 19 30q0 29 -25 32
q-12 1 -29 1h-13v-66z" />
    <glyph glyph-name="b.superior" horiz-adv-x="392" 
d="M152 280v-4q0 -12 -29 -12h-58q-14 0 -19.5 5t-5.5 19v408q0 24 20 24h87q12 0 16 -5.5t4 -18.5v-138q30 21 84 21q58 0 87.5 -36t29.5 -118q0 -99 -36 -132t-119 -33q-46 0 -61 20zM167 353q13 -5 29 -5q31 0 37.5 11.5t6.5 58.5q0 42 -6.5 55t-29.5 13q-20 0 -30 -7
q-5 -2 -6 -7q-1 -3 -1 -11v-108z" />
    <glyph glyph-name="braceleft.cap" horiz-adv-x="388" 
d="M148 341q109 -17 109 -143v-107q0 -53 18 -77q13 -17 61 -23q15 -2 21 -10t6 -26v-14q0 -31 -31 -31q-136 0 -175 42q-37 40 -37 111v112q0 63 -16.5 89.5t-51.5 30.5q-32 4 -32 34v21q0 31 28 37q37 8 54.5 36.5t17.5 85.5v87q0 85 35 123q49 53 170 53q20 0 28.5 -8
t8.5 -26v-12q0 -31 -30 -34q-44 -3 -62 -29q-13 -19 -13 -69v-102q0 -66 -26.5 -102.5t-82.5 -48.5z" />
    <glyph glyph-name="braceright.cap" horiz-adv-x="388" 
d="M230 341q-109 17 -109 143v107q0 53 -18 77q-13 17 -61 23q-15 2 -21 10t-6 26v14q0 31 31 31q136 0 175 -42q37 -40 37 -111v-112q0 -63 16.5 -89.5t51.5 -30.5q32 -4 32 -34v-21q0 -31 -28 -37q-37 -8 -54.5 -36.5t-17.5 -85.5v-87q0 -85 -35 -123q-49 -53 -170 -53
q-20 0 -28.5 8t-8.5 26v12q0 31 30 34q44 3 62 29q13 19 13 69v102q0 66 26.5 102.5t82.5 48.5z" />
    <glyph glyph-name="bracketleft.cap" horiz-adv-x="345" 
d="M221 -23h85q24 0 24 -22v-28q0 -22 -24 -22h-200q-28 0 -28 35v783q0 15 7.5 25t21.5 10h199q24 0 24 -21v-29q0 -9 -7 -15.5t-18 -6.5h-84v-709z" />
    <glyph glyph-name="bracketright.cap" horiz-adv-x="345" 
d="M124 686h-85q-24 0 -24 22v28q0 22 24 22h200q28 0 28 -35v-783q0 -15 -7.5 -25t-21.5 -10h-199q-24 0 -24 21v29q0 9 7 15.5t18 6.5h84v709z" />
    <glyph glyph-name="breve.cap" horiz-adv-x="197" 
d="M238 923q30 0 30 -27q0 -28 -8 -50q-17 -48 -53 -71.5t-111 -23.5q-134 0 -160 93q-6 16 -6 46q0 33 34 33h29q34 0 40 -27q9 -42 66 -42q34 0 47 9.5t22 31.5q11 28 39 28h31z" />
    <glyph glyph-name="breve.sc" horiz-adv-x="197" 
d="M233 763q28 0 28 -29q0 -30 -7 -51q-17 -51 -51 -76.5t-107 -25.5q-128 0 -154 99q-5 20 -5 47q0 36 31 36h29q32 0 38 -29q11 -51 64 -51q22 0 36.5 8t19.5 17t11 25q10 30 37 30h30z" />
    <glyph glyph-name="bullet.cap" horiz-adv-x="401" 
d="M354 307q0 -158 -154 -158q-153 0 -153 156q0 158 153 158q75 0 114.5 -36t39.5 -120z" />
    <glyph glyph-name="c.sc" horiz-adv-x="479" 
d="M222 263q0 -46 4.5 -72.5t17.5 -39t25.5 -15t39.5 -2.5q32 0 80 12q11 3 27 3q18 0 23 -14q19 -57 19 -95q0 -22 -19 -29q-68 -24 -175 -24q-112 0 -172.5 60.5t-60.5 205.5q0 149 59.5 216t195.5 67q87 0 137 -13q21 -6 21 -28q0 -46 -20 -102q-7 -14 -22 -14
q-13 0 -35 4q-36 6 -59 6q-51 0 -68.5 -21.5t-17.5 -104.5z" />
    <glyph glyph-name="cacute.sc" horiz-adv-x="479" 
d="M222 263q0 -46 4.5 -72.5t17.5 -39t25.5 -15t39.5 -2.5q32 0 80 12q11 3 27 3q18 0 23 -14q19 -57 19 -95q0 -22 -19 -29q-68 -24 -175 -24q-112 0 -172.5 60.5t-60.5 205.5q0 149 59.5 216t195.5 67q87 0 137 -13q21 -6 21 -28q0 -46 -20 -102q-7 -14 -22 -14
q-13 0 -35 4q-36 6 -59 6q-51 0 -68.5 -21.5t-17.5 -104.5zM316 612q-24 -22 -53 -22h-51q-32 0 -32 23q0 14 11 28l80 108q19 27 50 27h88q33 0 33 -23q0 -14 -14 -28z" />
    <glyph glyph-name="caron.alt" horiz-adv-x="188" 
d="M134 739q21 0 29.5 -9.5t8.5 -31.5q0 -114 -61 -182q-20 -24 -40 -24q-15 0 -35 11t-20 26q0 12 9 33q18 48 18 129q0 48 45 48h46z" />
    <glyph glyph-name="caron.cap" horiz-adv-x="197" 
d="M210 938h49q36 0 36 -24q0 -12 -12 -25l-94 -99q-31 -33 -62 -33h-61q-31 0 -57 29l-94 103q-12 12 -12 25q0 24 36 24h51q30 0 53 -23l56 -54l59 55q22 22 52 22z" />
    <glyph glyph-name="caron.sc" horiz-adv-x="197" 
d="M192 779h47q32 0 32 -24q0 -11 -11 -25l-77 -104q-25 -33 -48 -33h-73q-24 0 -49 33l-76 104q-10 13 -10 25q0 24 31 24h49q27 0 46 -23l46 -54l47 55q19 22 46 22z" />
    <glyph glyph-name="ccaron.sc" horiz-adv-x="479" 
d="M222 263q0 -46 4.5 -72.5t17.5 -39t25.5 -15t39.5 -2.5q32 0 80 12q11 3 27 3q18 0 23 -14q19 -57 19 -95q0 -22 -19 -29q-68 -24 -175 -24q-112 0 -172.5 60.5t-60.5 205.5q0 149 59.5 216t195.5 67q87 0 137 -13q21 -6 21 -28q0 -46 -20 -102q-7 -14 -22 -14
q-13 0 -35 4q-36 6 -59 6q-51 0 -68.5 -21.5t-17.5 -104.5zM355 779h47q32 0 32 -24q0 -11 -11 -25l-77 -104q-25 -33 -48 -33h-73q-24 0 -49 33l-76 104q-10 13 -10 25q0 24 31 24h49q27 0 46 -23l46 -54l47 55q19 22 46 22z" />
    <glyph glyph-name="ccedilla.sc" horiz-adv-x="479" 
d="M281 -43q30 -1 49 -10.5t26.5 -27t9.5 -32t2 -38.5q0 -110 -155 -110q-31 0 -50 4q-29 6 -29 31q0 20 4 35q4 16 10.5 20.5t20.5 4.5q4 0 28 -3q8 -1 26 -1q14 0 19 4t5 17q0 23 -17 23q-4 0 -12.5 -0.5t-11.5 -0.5q-25 1 -25 22q0 6 6 34l13 64q-169 30 -169 260
q0 149 59.5 216t195.5 67q87 0 137 -13q21 -6 21 -28q0 -46 -20 -102q-7 -14 -22 -14q-13 0 -35 4q-36 6 -59 6q-51 0 -68.5 -21.5t-17.5 -104.5q0 -46 4.5 -72.5t17.5 -39t25.5 -15t39.5 -2.5q32 0 80 12q11 3 27 3q18 0 23 -14q19 -57 19 -95q0 -22 -19 -29
q-60 -21 -153 -24z" />
    <glyph glyph-name="ccircumflex.sc" horiz-adv-x="479" 
d="M222 263q0 -46 4.5 -72.5t17.5 -39t25.5 -15t39.5 -2.5q32 0 80 12q11 3 27 3q18 0 23 -14q19 -57 19 -95q0 -22 -19 -29q-68 -24 -175 -24q-112 0 -172.5 60.5t-60.5 205.5q0 149 59.5 216t195.5 67q87 0 137 -13q21 -6 21 -28q0 -46 -20 -102q-7 -14 -22 -14
q-13 0 -35 4q-36 6 -59 6q-51 0 -68.5 -21.5t-17.5 -104.5zM180 590h-47q-32 0 -32 24q0 11 11 25l77 104q25 33 48 33h73q24 0 49 -33l76 -104q10 -13 10 -25q0 -24 -31 -24h-49q-27 0 -46 23l-46 54l-47 -55q-19 -22 -46 -22z" />
    <glyph glyph-name="cdotaccent.sc" horiz-adv-x="479" 
d="M222 263q0 -46 4.5 -72.5t17.5 -39t25.5 -15t39.5 -2.5q32 0 80 12q11 3 27 3q18 0 23 -14q19 -57 19 -95q0 -22 -19 -29q-68 -24 -175 -24q-112 0 -172.5 60.5t-60.5 205.5q0 149 59.5 216t195.5 67q87 0 137 -13q21 -6 21 -28q0 -46 -20 -102q-7 -14 -22 -14
q-13 0 -35 4q-36 6 -59 6q-51 0 -68.5 -21.5t-17.5 -104.5zM333 664q0 -77 -73 -77q-72 0 -72 76q0 77 72 77q73 0 73 -76z" />
    <glyph glyph-name="cedilla.cap" horiz-adv-x="197" 
d="M130 -46q31 -1 51 -11t28 -28.5t10 -33.5t2 -40q0 -115 -162 -115q-33 0 -52 4q-30 6 -30 33q0 21 4 36q4 17 10.5 22t21.5 5q4 0 16 -2t13 -2q9 -1 27 -1q14 0 20 4.5t6 17.5q0 24 -18 24q-4 0 -13 -0.5t-12 -0.5q-26 1 -26 23q0 15 5 35l19 86h89z" />
    <glyph glyph-name="cedilla.sc" horiz-adv-x="197" 
d="M129 -43q30 -1 49 -10.5t26.5 -27t9.5 -32t2 -38.5q0 -110 -155 -110q-31 0 -50 4q-29 6 -29 31q0 20 4 35q4 16 10.5 20.5t20.5 4.5q4 0 28 -3q8 -1 26 -1q14 0 19 4t5 17q0 23 -17 23q-4 0 -12.5 -0.5t-11.5 -0.5q-25 1 -25 22q0 6 6 34l17 81h86z" />
    <glyph glyph-name="cent.denominator" horiz-adv-x="338" 
d="M244 -40q0 -16 -14 -16h-41q-16 0 -16 16v39q-69 4 -101 38.5t-32 113.5q0 77 29.5 114.5t103.5 43.5v44q0 18 18 18h38q15 0 15 -18v-43q24 -1 45 -8q13 -4 13 -18q0 -26 -9 -58q-3 -13 -15 -13q-3 0 -11.5 1t-10.5 1q-17 3 -38 3q-31 0 -42 -12t-11 -52
q0 -42 11.5 -52.5t40.5 -10.5q27 0 47 5q12 3 17 3q12 0 15 -11q12 -31 12 -53q0 -15 -13 -21q-18 -8 -51 -13v-41z" />
    <glyph glyph-name="cent.inferior" horiz-adv-x="338" 
d="M244 -167q0 -16 -14 -16h-41q-16 0 -16 16v39q-69 4 -101 38.5t-32 113.5q0 77 29.5 114.5t103.5 43.5v44q0 18 18 18h38q15 0 15 -18v-43q24 -1 45 -8q13 -4 13 -18q0 -27 -9 -58q-3 -13 -15 -13q-10 0 -22 2q-21 3 -38 3q-31 0 -42 -12t-11 -52q0 -42 11.5 -52.5
t40.5 -10.5q27 0 47 5q12 3 17 3q12 0 15 -11q12 -31 12 -53q0 -15 -13 -21q-18 -8 -51 -13v-41z" />
    <glyph glyph-name="cent.numerator" horiz-adv-x="338" 
d="M244 223q0 -16 -14 -16h-41q-16 0 -16 16v39q-69 4 -101 38.5t-32 113.5q0 77 29.5 114.5t103.5 43.5v44q0 18 18 18h38q15 0 15 -18v-43q24 -1 45 -8q13 -4 13 -18q0 -27 -9 -58q-3 -13 -15 -13q-3 0 -11.5 1t-10.5 1q-17 3 -38 3q-31 0 -42 -12t-11 -52
q0 -42 11.5 -52.5t40.5 -10.5q27 0 47 5q12 3 17 3q12 0 15 -11q12 -31 12 -53q0 -15 -13 -21q-18 -8 -51 -13v-41z" />
    <glyph glyph-name="cent.oldstyle" horiz-adv-x="475" 
d="M236 226q0 -59 17 -74.5t58 -15.5q35 0 66 8q12 4 24 4q16 0 21 -17q17 -46 17 -84q0 -17 -17 -26q-30 -14 -77 -21v-64q0 -29 -23 -29h-51q-25 0 -25 29v62q-95 6 -139.5 56.5t-44.5 166.5q0 113 41 169t143 66v70q0 29 25 29h51q23 0 23 -29v-70q39 -3 67 -12
q18 -5 18 -26q0 -40 -12 -90q-5 -18 -22 -18q-18 0 -30 2q-30 5 -54 5q-45 0 -60.5 -16t-15.5 -75z" />
    <glyph glyph-name="cent.superior" horiz-adv-x="338" 
d="M244 379q0 -16 -14 -16h-41q-16 0 -16 16v39q-69 4 -101 38.5t-32 113.5q0 77 29.5 114.5t103.5 43.5v44q0 18 18 18h38q15 0 15 -18v-43q24 -1 45 -8q13 -4 13 -18q0 -27 -9 -58q-3 -13 -15 -13q-3 0 -11.5 1t-10.5 1q-17 3 -38 3q-31 0 -42 -12t-11 -52
q0 -42 11.5 -52.5t40.5 -10.5q27 0 47 5q12 3 17 3q12 0 15 -11q12 -31 12 -53q0 -15 -13 -21q-18 -8 -51 -13v-41z" />
    <glyph glyph-name="circumflex.cap" horiz-adv-x="197" 
d="M-12 757h-49q-36 0 -36 24q0 12 12 25l94 99q31 33 62 33h61q31 0 57 -29l94 -103q12 -12 12 -25q0 -24 -36 -24h-51q-30 0 -53 23l-56 54l-59 -55q-22 -22 -52 -22z" />
    </font>
</defs>
</svg>
