<?xml version="1.0" standalone="no"?>
<!DOCTYPE svg PUBLIC "-//W3C//DTD SVG 1.1//EN" "http://www.w3.org/Graphics/SVG/1.1/DTD/svg11.dtd" >
<svg>
<metadata>
Created by FontForge 20090622 at Sun Feb 10 20:47:04 2019
 By deploy user
Copyright (c) 2014 by Dieter Hofrichter. All rights reserved.
</metadata>
<defs>
<font id="Orgon-BoldIt" horiz-adv-x="394" >
  <font-face 
    font-family="Orgon-BoldIt"
    font-weight="400"
    font-style="italic"
    font-stretch="normal"
    units-per-em="1000"
    panose-1="2 0 8 3 0 0 0 9 0 4"
    ascent="752"
    descent="-248"
    x-height="497"
    cap-height="707"
    bbox="-202 -290 1232 991"
    underline-thickness="50"
    underline-position="-50"
    slope="-12"
    unicode-range="U+0020-U+FB04"
  />
<missing-glyph horiz-adv-x="501" 
d="M0 0v707h501v-707h-501zM251 399l170 257h-341zM280 354l172 -257v514zM80 50h341l-170 258zM50 611v-514l171 257z" />
    <glyph glyph-name="f_f" unicode="ff" horiz-adv-x="663" 
d="M171 29q-5 -30 -31 -30h-83q-20 0 -20 20q0 4 5 29l72 338h-39q-24 0 -24 21q0 16 12 64q8 26 32 26h42l13 61q22 104 75 143q51 37 152 37q51 0 70 -9q14 -6 14 -23q0 -21 -14 -65q-6 -17 -27 -17q-3 0 -21 1.5t-29 1.5q-41 0 -61 -19q-17 -15 -28 -67l-10 -44h198
l17 81q22 103 75 142q52 38 152 38q52 0 70 -9q13 -7 13 -23q0 -24 -13 -65q-6 -17 -27 -17q-3 0 -21 1.5t-29 1.5q-42 0 -62 -20q-17 -17 -28 -67l-13 -63h79q25 0 25 -21q0 -19 -12 -67q-7 -23 -33 -23h-82l-77 -357q-7 -30 -31 -30h-83q-20 0 -20 20q0 9 4 29l73 338
h-198z" />
    <glyph glyph-name="fi" unicode="fi" horiz-adv-x="607" 
d="M171 29q-7 -30 -31 -30h-83q-20 0 -20 20q0 4 5 29l72 338h-39q-24 0 -24 21q0 16 12 64q8 26 32 26h42l17 81q22 103 75 142q52 38 152 38q53 0 73 -9q13 -6 13 -23q0 -25 -13 -64q-6 -18 -27 -18q-3 0 -21.5 2t-29.5 2q-45 0 -63 -19t-29 -69l-13 -63h293q22 0 22 -20
q0 -3 -1 -7.5t-2 -10.5t-1 -8l-91 -424q-6 -28 -30 -28h-84q-20 0 -20 19q0 10 3 22l75 346h-187zM624 675q0 -47 -26 -70q-19 -20 -57 -20q-62 0 -62 54q0 44 23 68q23 23 59 23q63 0 63 -55z" />
    <glyph glyph-name="fl" unicode="fl" horiz-adv-x="604" 
d="M171 29q-5 -30 -31 -30h-83q-20 0 -20 20q0 4 5 29l72 338h-39q-24 0 -24 21q0 16 12 64q8 26 32 26h42l17 81q21 100 77 142q52 38 165 38q174 0 224 -16q16 -5 16 -22q0 -11 -3 -26l-142 -667q-6 -28 -29 -28h-82q-23 0 -23 20q0 10 3 22l130 601q-45 5 -112 5
q-45 0 -65 -20q-18 -18 -29 -69l-13 -61h79q25 0 25 -21q0 -18 -11 -67q-7 -23 -34 -23h-82z" />
    <glyph glyph-name="f_f_i" unicode="ffi" horiz-adv-x="939" 
d="M171 29q-5 -30 -31 -30h-83q-20 0 -20 20q0 12 5 29l72 338h-39q-24 0 -24 21q0 16 12 64q8 26 32 26h42l13 61q22 103 75 142q52 38 152 38q51 0 71 -9q13 -6 13 -23q0 -21 -14 -65q-6 -17 -27 -17q-3 0 -21 1.5t-29 1.5q-40 0 -61 -20q-17 -16 -29 -70l-9 -40h198
l17 81q22 103 75 142q52 38 152 38q53 0 73 -9q12 -5 12 -23q0 -24 -13 -65q-6 -17 -27 -17q-3 0 -21.5 1.5t-29.5 1.5q-43 0 -63 -20q-16 -16 -28 -70l-13 -60h294q21 0 21 -20q0 -3 -1 -7.5t-2 -10.5t-1 -8l-91 -424q-6 -28 -30 -28h-85q-19 0 -19 19q0 10 3 22l74 346
h-186l-77 -357q-7 -30 -31 -30h-83q-20 0 -20 20q0 9 4 29l73 338h-198zM956 675q0 -47 -26 -70q-20 -20 -57 -20q-62 0 -62 54q0 46 22 68q22 23 60 23q63 0 63 -55z" />
    <glyph glyph-name="f_f_l" unicode="ffl" horiz-adv-x="936" 
d="M171 29q-5 -30 -31 -30h-83q-20 0 -20 20q0 4 5 29l72 338h-39q-24 0 -24 21q0 16 12 64q8 26 32 26h42l13 61q22 103 75 142q52 38 152 38q51 0 71 -9q13 -6 13 -23q0 -18 -15 -65q-5 -17 -26 -17q-3 0 -21 1.5t-29 1.5q-41 0 -62 -20q-18 -16 -28 -70l-9 -40h198l17 81
q22 104 76 142q52 38 157 38q177 0 233 -16q16 -5 16 -22q0 -11 -3 -26l-142 -667q-6 -28 -29 -28h-83q-22 0 -22 20q0 10 3 22l129 601q-44 5 -111 5q-46 0 -66 -20q-17 -17 -29 -70l-12 -60h79q25 0 25 -21q0 -20 -12 -67q-7 -23 -34 -23h-82l-76 -357q-7 -30 -31 -30h-83
q-20 0 -20 20q0 9 4 29l73 338h-198z" />
    <glyph glyph-name="T_h" unicode="Th" horiz-adv-x="1141" 
d="M324 29q-6 -30 -31 -30h-87q-23 0 -23 20q0 6 3 18l117 547h-168q-23 0 -23 16q0 8 16 80q5 26 32 26h564l3 15q7 27 32 27h79q24 0 24 -17q0 -10 -4 -27l-52 -244q58 49 159 49q135 0 135 -88q0 -30 -10 -82l-67 -314q-3 -13 -9.5 -19.5t-21.5 -6.5h-83q-20 0 -20 19
q0 7 2 17l59 281q6 26 6 42q0 36 -59 36q-47 0 -80 -13q-15 -7 -24 -14q-8 -7 -12 -29l-66 -311q-6 -28 -32 -28h-83q-20 0 -20 19q0 7 3 19l115 547h-255z" />
    <glyph glyph-name="Tcaron_h" unicode="&#x164;h" horiz-adv-x="1141" 
d="M324 29q-6 -30 -31 -30h-87q-23 0 -23 20q0 6 3 18l117 547h-168q-23 0 -23 16q0 8 16 80q5 26 32 26h564l3 15q7 27 32 27h79q24 0 24 -17q0 -10 -4 -27l-52 -244q58 49 159 49q135 0 135 -88q0 -30 -10 -82l-67 -314q-3 -13 -9.5 -19.5t-21.5 -6.5h-83q-20 0 -20 19
q0 7 2 17l59 281q6 26 6 42q0 36 -59 36q-47 0 -80 -13q-15 -7 -24 -14q-8 -7 -12 -29l-66 -311q-6 -28 -32 -28h-83q-20 0 -20 19q0 7 3 19l115 547h-255zM527 926h50q22 0 22 -19q0 -10 -12 -22l-116 -100q-32 -26 -53 -26h-54q-22 0 -40 23l-79 102q-8 9 -8 21
q0 21 31 21h40q22 0 39 -19l56 -58l80 58q27 19 44 19z" />
    <glyph glyph-name="f_b" unicode="fb" horiz-adv-x="907" 
d="M171 29q-5 -30 -31 -30h-83q-20 0 -20 20q0 9 5 31l72 336h-39q-24 0 -24 21q0 16 12 64q8 26 33 26h41l17 81q21 100 76 139q56 41 157 41q193 0 235 -16q14 -6 14 -23q0 -16 -2 -26l-47 -223q56 38 148 38q73 0 109.5 -34t36.5 -109q0 -65 -23 -153.5t-63 -140.5
q-35 -44 -85 -60t-122 -16q-84 0 -112 30l-3 -8q-4 -12 -11 -15t-23 -3h-58q-24 0 -24 22q0 6 6 32l127 589q-45 5 -112 5q-45 0 -65 -20q-18 -18 -29 -69l-13 -61h79q25 0 25 -21q0 -20 -11 -67q-7 -23 -35 -23h-81zM510 116q24 -15 71 -15q81 0 113 47q21 31 34.5 88.5
t13.5 91.5q0 67 -76 67q-49 0 -84 -19q-10 -5 -15 -13q-5 -12 -7 -22z" />
    <glyph glyph-name="f_f_b" unicode="ffb" horiz-adv-x="1239" 
d="M171 29q-5 -30 -31 -30h-83q-20 0 -20 20q0 12 5 29l72 338h-39q-24 0 -24 21q0 16 12 64q8 26 32 26h42l13 61q22 105 75 142q50 38 152 38q48 0 71 -9q13 -7 13 -23q0 -24 -15 -65q-5 -17 -26 -17q-3 0 -21 1.5t-29 1.5q-43 0 -62 -20q-17 -16 -27 -67l-10 -43h198
l17 81q22 104 76 142q52 38 157 38q186 0 236 -16q14 -5 14 -22q0 -11 -3 -26l-48 -224q56 38 149 38q72 0 108.5 -34t36.5 -109q0 -65 -22.5 -154t-62.5 -140q-35 -44 -85 -60t-122 -16q-84 0 -112 30l-3 -8q-4 -12 -11 -15t-23 -3h-58q-24 0 -24 22q0 6 6 32l126 589
q-44 5 -111 5q-46 0 -66 -20q-17 -17 -29 -70l-12 -60h79q25 0 25 -21q0 -20 -12 -67q-7 -23 -34 -23h-82l-76 -357q-7 -30 -31 -30h-83q-20 0 -20 20q0 9 4 29l73 338h-198zM843 116q24 -15 70 -15q81 0 112 46q22 30 35 87.5t13 92.5q0 68 -76 68q-48 0 -83 -19
q-11 -5 -16 -13q-5 -12 -7 -22z" />
    <glyph glyph-name="f_f_h" unicode="ffh" horiz-adv-x="1222" 
d="M171 29q-5 -30 -31 -30h-83q-20 0 -20 20q0 12 5 29l72 338h-39q-24 0 -24 21q0 16 12 64q8 26 32 26h42l13 61q22 105 75 142q50 38 152 38q48 0 71 -9q13 -7 13 -23q0 -24 -15 -65q-5 -17 -26 -17q-3 0 -21 1.5t-29 1.5q-43 0 -62 -20q-18 -16 -28 -70l-9 -40h198
l17 81q22 104 76 142q52 38 156 38q186 0 236 -16q14 -6 14 -22q0 -11 -3 -26l-50 -234q60 49 160 49q134 0 134 -88q0 -30 -10 -82l-67 -314q-6 -26 -31 -26h-83q-21 0 -21 19q0 2 3 17l60 280q5 19 5 43q0 36 -59 36q-43 0 -79 -13q-19 -8 -25 -14q-8 -10 -13 -30
l-66 -310q-6 -28 -31 -28h-83q-20 0 -20 19q0 7 3 19l129 605q-45 5 -112 5q-45 0 -65 -20q-17 -17 -29 -70l-12 -60h79q25 0 25 -21q0 -20 -12 -67q-7 -23 -34 -23h-82l-76 -357q-7 -30 -31 -30h-83q-20 0 -20 20q0 9 4 29l73 338h-198z" />
    <glyph glyph-name="f_f_j" unicode="ffj" horiz-adv-x="948" 
d="M171 29q-5 -30 -31 -30h-83q-20 0 -20 20q0 12 5 29l72 338h-39q-24 0 -24 21q0 16 12 64q8 26 32 26h42l13 61q22 105 75 142q50 38 152 38q48 0 71 -9q13 -7 13 -23q0 -24 -15 -65q-5 -17 -26 -17q-3 0 -21 1.5t-29 1.5q-43 0 -62 -20q-18 -16 -28 -70l-9 -40h198
l17 81q22 105 75 142q50 38 152 38q48 0 71 -9q12 -7 12 -23q0 -21 -14 -65q-5 -17 -26 -17q-3 0 -21.5 1.5t-29.5 1.5q-42 0 -61 -20q-16 -15 -28 -69l-13 -61h303q21 0 21 -18q0 -10 -2 -20l-109 -507q-24 -112 -65 -149q-31 -28 -71.5 -40t-114.5 -12q-38 0 -38 30
q0 18 11 58q7 27 36 27q48 0 73 15q23 14 36 70l92 435h-196l-76 -357q-7 -30 -31 -30h-83q-20 0 -20 20q0 9 4 29l73 338h-199zM965 675q0 -46 -25 -70q-20 -20 -58 -20q-62 0 -62 54q0 44 23 68q23 23 59 23q63 0 63 -55z" />
    <glyph glyph-name="f_f_k" unicode="ffk" horiz-adv-x="1207" 
d="M171 29q-5 -30 -31 -30h-83q-20 0 -20 20q0 12 5 29l72 338h-39q-24 0 -24 21q0 16 12 64q8 26 32 26h42l13 61q22 105 75 142q50 38 152 38q48 0 71 -9q13 -7 13 -23q0 -24 -15 -65q-5 -17 -26 -17q-3 0 -21 1.5t-29 1.5q-43 0 -62 -20q-18 -16 -28 -70l-9 -40h198
l17 81q22 104 76 142q52 38 156 38q177 0 235 -16q15 -4 15 -22q0 -11 -3 -26l-77 -361h31q33 0 49 21l100 124q17 20 40 20h82q21 0 21 -20q0 -9 -14 -28q-122 -150 -149 -181q23 -48 98 -221q7 -15 7 -28q0 -21 -25 -21h-83q-21 0 -33 27l-77 178q-7 17 -35 17h-35
l-42 -194q-6 -28 -29 -28h-82q-23 0 -23 20q0 10 3 22l129 601q-45 5 -112 5q-45 0 -65 -20q-17 -17 -29 -70l-12 -60h79q25 0 25 -21q0 -20 -12 -67q-7 -23 -34 -23h-82l-76 -357q-7 -30 -31 -30h-83q-20 0 -20 20q0 9 4 29l73 338h-199z" />
    <glyph glyph-name="f_h" unicode="fh" horiz-adv-x="890" 
d="M171 29q-5 -30 -31 -30h-83q-20 0 -20 20q0 12 5 29l72 338h-39q-24 0 -24 21q0 16 12 64q8 26 32 26h42l17 81q21 100 76 142q53 38 156 38q197 0 237 -16q13 -6 13 -22q0 -11 -3 -26l-50 -234q58 49 160 49q134 0 134 -88q0 -30 -10 -82l-67 -314q-6 -26 -31 -26h-83
q-20 0 -20 19q0 2 3 17l59 281q5 27 5 42q0 36 -58 36q-49 0 -81 -13q-16 -6 -24 -14q-9 -10 -12 -30l-66 -310q-6 -28 -32 -28h-83q-20 0 -20 19q0 7 3 19l129 605q-45 5 -112 5q-45 0 -65 -20q-18 -18 -28 -70l-13 -60h79q25 0 25 -21q0 -20 -12 -67q-7 -23 -34 -23h-82z
" />
    <glyph glyph-name="f_j" unicode="fj" horiz-adv-x="616" 
d="M171 29q-5 -30 -31 -30h-83q-20 0 -20 20q0 4 5 29l72 338h-39q-24 0 -24 21q0 16 12 64q8 26 32 26h42l17 81q22 103 75 142q52 38 152 38q51 0 71 -9q13 -6 13 -23q0 -21 -14 -65q-6 -17 -27 -17q-3 0 -21 1.5t-29 1.5q-40 0 -61 -20q-17 -16 -29 -70l-13 -60h303
q21 0 21 -18q0 -5 -3 -20l-108 -507q-24 -112 -65 -149q-31 -28 -71.5 -40t-114.5 -12q-38 0 -38 30q0 15 10 58q7 27 36 27q48 0 74 15q24 15 35 70l94 435h-196zM633 675q0 -44 -26 -70q-22 -20 -57 -20q-62 0 -62 54q0 44 23 68q23 23 59 23q63 0 63 -55z" />
    <glyph glyph-name="f_k" unicode="fk" horiz-adv-x="875" 
d="M171 29q-5 -30 -31 -30h-83q-20 0 -20 20q0 12 5 29l72 338h-39q-24 0 -24 21q0 16 12 64q8 26 32 26h42l17 81q21 100 76 142q53 38 156 38q187 0 235 -16q15 -8 15 -22q0 -11 -3 -26l-77 -361h32q33 0 49 21l99 124q17 20 40 20h82q21 0 21 -20q0 -9 -14 -28
q-122 -150 -149 -181q4 -8 99 -221q6 -13 6 -28q0 -21 -25 -21h-83q-21 0 -33 27l-77 178q-7 17 -35 17h-34l-42 -194q-6 -28 -29 -28h-82q-24 0 -24 20q0 10 3 22l130 601q-45 5 -113 5q-44 0 -64 -20q-19 -19 -29 -70l-13 -60h79q25 0 25 -21q0 -24 -11 -67
q-7 -23 -34 -23h-82z" />
    <glyph glyph-name="uni0162_h" unicode="&#x162;h" horiz-adv-x="1141" 
d="M267 -54q83 -4 83 -84q0 -70 -39.5 -97.5t-118.5 -27.5q-38 0 -55 5q-19 4 -19 24q0 14 7 35q9 21 28 21q1 0 22 -3q13 -3 32 -3q23 0 31 7.5t8 26.5q0 23 -26 23q-4 0 -13.5 -0.5t-11.5 -0.5q-21 1 -21 24q0 3 9 32l24 71h-1q-23 0 -23 20q0 6 3 18l117 547h-168
q-23 0 -23 16q0 8 16 80q5 26 32 26h564l3 15q7 27 32 27h79q24 0 24 -17q0 -10 -4 -27l-52 -244q58 49 159 49q135 0 135 -88q0 -30 -10 -82l-67 -314q-3 -13 -9.5 -19.5t-21.5 -6.5h-83q-20 0 -20 19q0 7 2 17l59 281q6 26 6 42q0 36 -59 36q-47 0 -80 -13q-15 -7 -24 -14
q-8 -7 -12 -29l-66 -311q-6 -28 -32 -28h-83q-20 0 -20 19q0 7 3 19l115 547h-255l-119 -555q-6 -30 -31 -30h-9z" />
    <glyph glyph-name="uni021A_h" unicode="&#x21a;h" horiz-adv-x="1141" 
d="M324 29q-6 -30 -31 -30h-87q-23 0 -23 20q0 6 3 18l117 547h-168q-23 0 -23 16q0 8 16 80q5 26 32 26h564l3 15q7 27 32 27h79q24 0 24 -17q0 -10 -4 -27l-52 -244q58 49 159 49q135 0 135 -88q0 -30 -10 -82l-67 -314q-3 -13 -9.5 -19.5t-21.5 -6.5h-83q-20 0 -20 19
q0 7 2 17l59 281q6 26 6 42q0 36 -59 36q-47 0 -80 -13q-15 -7 -24 -14q-8 -7 -12 -29l-66 -311q-6 -28 -32 -28h-83q-20 0 -20 19q0 7 3 19l115 547h-255zM263 -64q29 0 29 -29q0 -21 -9 -47q-26 -80 -79 -130q-20 -20 -37 -20q-15 0 -32 11q-14 10 -14 22q0 13 12 27
q40 50 50 127q5 39 39 39h41z" />
    <glyph glyph-name=".notdef" horiz-adv-x="501" 
d="M0 0v707h501v-707h-501zM251 399l170 257h-341zM280 354l172 -257v514zM80 50h341l-170 258zM50 611v-514l171 257z" />
    <glyph glyph-name=".null" horiz-adv-x="0" 
 />
    <glyph glyph-name="nonmarkingreturn" horiz-adv-x="333" 
 />
    <glyph glyph-name="space" unicode=" " horiz-adv-x="220" 
 />
    <glyph glyph-name="exclam" unicode="!" horiz-adv-x="297" 
d="M230 276q-9 -35 -42 -35h-43q-34 0 -34 27q0 13 3 31q59 338 64 360q11 47 47 47h72q33 0 33 -29q0 -3 -0.5 -7t-2 -12t-3.5 -16.5t-7 -25.5l-9 -36l-13 -50l-17 -66l-22 -84zM212 90q0 -50 -29 -80q-21 -23 -62 -23q-69 0 -69 64q0 42 27 74q24 27 64 27q69 0 69 -62z
" />
    <glyph glyph-name="quotedbl" unicode="&#x22;" horiz-adv-x="383" 
d="M197 458q-5 -18 -13 -24.5t-24 -6.5h-24q-14 0 -20.5 5t-6.5 19q0 10 4 31l31 192q8 42 44 42h37q33 0 33 -24q0 -10 -5 -30q-6 -29 -56 -204zM372 458q-5 -18 -13 -24.5t-24 -6.5h-24q-14 0 -20 5t-6 19q0 7 3 31l31 192q7 42 45 42h36q33 0 33 -24q0 -14 -4 -30
q-12 -49 -57 -204z" />
    <glyph glyph-name="numbersign" unicode="#" horiz-adv-x="595" 
d="M191 186l-45 -175q-6 -27 -28 -27h-25q-22 0 -22 20q0 11 5 26l41 156h-69q-25 0 -25 22q0 11 7 65q3 26 30 26h84l23 87h-73q-24 0 -24 22q0 18 6 65q3 25 29 25h90l43 167q7 26 28 26h28q21 0 21 -17q0 -4 -6 -26l-38 -150h129l44 167q7 26 28 26h28q20 0 20 -17
q0 -8 -5 -26l-38 -150h68q25 0 25 -21q0 -8 -7 -67q-2 -14 -8.5 -19t-19.5 -5h-87l-23 -87h74q24 0 24 -22q0 -15 -6 -67q-3 -24 -28 -24h-92l-45 -174q-6 -28 -28 -28h-25q-22 0 -22 19q0 2 5 27l40 156h-131zM219 299h131l22 87h-130z" />
    <glyph glyph-name="dollar" unicode="$" horiz-adv-x="564" 
d="M246 -70q-3 -24 -22 -24h-21q-18 0 -18 16q0 1 3 16l12 56q-108 2 -173 29q-16 7 -16 26q0 16 16 59q8 25 35 25q3 0 31 -7q57 -19 130 -21l36 169l-41 15q-117 43 -117 151t64.5 166.5t178.5 67.5l14 63q5 25 23 25h22q16 0 16 -14q0 -10 -3 -20l-11 -52q86 -4 137 -20
q16 -6 16 -28q0 -18 -16 -61q-8 -20 -28 -20q-16 0 -33 5q-46 10 -100 12l-36 -170l33 -13q127 -38 127 -146q0 -223 -245 -239zM239 476q0 -21 11 -35t39 -26l32 148q-41 -4 -61.5 -24t-20.5 -63zM366 193q0 19 -11 32.5t-40 27.5l-31 -146q82 12 82 86z" />
    <glyph glyph-name="percent" unicode="%" horiz-adv-x="871" 
d="M413 571q0 -58 -21 -140.5t-56 -123.5q-44 -51 -133 -51q-72 0 -107 26t-35 95q0 55 18.5 128t52.5 117q46 60 140 60q73 0 107 -22.5t34 -88.5zM317 556q0 27 -11.5 38.5t-41.5 11.5q-39 0 -60 -33q-20 -32 -33.5 -89.5t-13.5 -94.5q0 -32 12 -44.5t41 -12.5q39 0 59 32
q17 30 32.5 96.5t15.5 95.5zM261 -14q-12 -18 -27 -18h-27q-13 0 -13 12q0 7 10 20l448 689q13 22 28 22h30q13 0 13 -11q0 -7 -12 -26zM850 307q0 -58 -21 -140.5t-56 -123.5q-44 -51 -133 -51q-72 0 -107 26t-35 95q0 55 18.5 128t52.5 117q46 60 140 60q73 0 107 -22
t34 -89zM754 292q0 27 -11.5 38.5t-41.5 11.5q-39 0 -59 -33q-20 -32 -34 -89.5t-14 -94.5q0 -32 12 -44.5t41 -12.5q41 0 59 32q17 30 32.5 96.5t15.5 95.5z" />
    <glyph glyph-name="ampersand" unicode="&#x26;" horiz-adv-x="733" 
d="M610 264q2 -9 2 -28q0 -249 -320 -249q-254 0 -254 161q0 111 55 169q43 47 128 61q-89 24 -89 115q0 49 20 96.5t59 77.5q64 50 194 50q95 0 149 -18q23 -7 23 -29q0 -23 -18 -68q-7 -18 -28 -18q-5 0 -17.5 2.5t-16.5 3.5q-42 9 -88 9q-75 0 -103 -22q-37 -30 -37 -88
q0 -64 76 -65q26 -1 26 -22q0 -16 -11 -70q-7 -27 -37 -27q-84 -2 -114 -37q-28 -31 -28 -85q0 -80 132 -80q32 0 55.5 2.5t47.5 10t39.5 21t25 37t9.5 56.5q0 10 -2 22q-18 -2 -37 -2q-27 0 -42 1q-24 0 -24 22q0 13 8 59q7 32 32 32q51 0 75 1q101 4 180 28q29 8 33 8
q11 0 15 -4t8 -16q13 -37 13 -55q0 -29 -32 -39q-67 -18 -107 -23z" />
    <glyph glyph-name="quotesingle" unicode="'" horiz-adv-x="207" 
d="M197 458q-5 -18 -13 -24.5t-24 -6.5h-24q-14 0 -20.5 5t-6.5 19q0 10 4 31l31 192q8 42 44 42h37q33 0 33 -24q0 -10 -5 -30q-6 -29 -56 -204z" />
    <glyph glyph-name="parenleft" unicode="(" horiz-adv-x="331" 
d="M413 710q-107 -72 -182 -227t-75 -332q0 -156 82 -258q6 -8 6 -16q0 -10 -12 -22q-12 -10 -21 -10q-13 0 -32 13q-52 35 -93.5 116.5t-41.5 196.5t34.5 227t108.5 208.5t175 144.5q26 13 38 13t19 -10q9 -14 9 -22q0 -12 -15 -22z" />
    <glyph glyph-name="parenright" unicode=")" horiz-adv-x="330" 
d="M-58 -100q108 72 183 226t75 331q0 156 -83 260q-6 7 -6 15q0 9 13 22q10 10 21 10t31 -13q52 -33 93.5 -115.5t41.5 -196.5q0 -116 -34 -227.5t-107.5 -208.5t-175.5 -145q-30 -14 -39 -14q-12 0 -19 11q-9 12 -9 22q0 12 15 23z" />
    <glyph glyph-name="asterisk" unicode="*" horiz-adv-x="419" 
d="M257 447q-7 -7 -34 -36l-41 -43q-11 -10 -23 -10q-13 0 -35 24q-10 10 -10 23q0 11 11 22q15 15 84 73q-76 32 -97 42q-20 11 -20 30q0 10 12 31q10 17 28 17q10 0 26 -8q62 -33 84 -47q1 43 9 101q3 17 8.5 25t22.5 8q18 0 32 -3q20 -5 20 -25q0 -5 -3 -26
q-3 -19 -11 -51l-10 -39q38 9 89 18q18 3 29 3q21 0 25 -25q3 -21 3 -32q-2 -22 -27 -25q-61 -9 -110 -12q46 -74 57 -93q5 -9 5 -19q0 -14 -17 -24q-24 -14 -38 -14q-15 0 -24 18z" />
    <glyph glyph-name="plus" unicode="+" horiz-adv-x="701" 
d="M367 63q-6 -28 -33 -28h-31q-28 0 -28 25q0 5 2 17l37 172h-182q-27 0 -27 26q0 15 5 37q6 29 33 29h186l38 185q6 28 32 28h34q27 0 27 -25q0 -8 -2 -18l-35 -170h180q28 0 28 -26q0 -8 -6 -37q-3 -29 -33 -29h-187z" />
    <glyph glyph-name="comma" unicode="," horiz-adv-x="244" 
d="M133 146q31 0 31 -26q0 -19 -12 -59q-20 -59 -59.5 -119t-80.5 -93q-25 -21 -42 -21q-20 0 -35 13q-15 12 -15 26t17 31q32 32 59.5 86t37.5 121q6 41 47 41h52z" />
    <glyph glyph-name="hyphen" unicode="-" horiz-adv-x="342" 
d="M274 214h-210q-22 0 -22 18q0 12 13 68q6 24 32 24h208q24 0 24 -18q0 -9 -15 -69q-6 -23 -30 -23z" />
    <glyph glyph-name="period" unicode="." horiz-adv-x="244" 
d="M168 90q0 -53 -28 -81q-22 -22 -62 -22q-69 0 -69 64q0 45 26 74q24 27 65 27q68 0 68 -62z" />
    <glyph glyph-name="slash" unicode="/" horiz-adv-x="383" 
d="M52 -71q-14 -29 -36 -29h-50q-16 0 -16 15q0 5 9 23l411 786q14 27 32 27h52q17 0 17 -16q0 -6 -11 -30z" />
    <glyph glyph-name="zero" unicode="0" horiz-adv-x="581" 
d="M581 503q0 -93 -31.5 -228t-85.5 -203q-69 -86 -205 -86q-109 0 -163 43t-54 155q0 92 28 210.5t79 190.5q72 100 216 100q111 0 163.5 -36.5t52.5 -145.5zM442 485q0 47 -19 66.5t-71 19.5q-34 0 -57 -12.5t-42 -44.5q-30 -52 -51.5 -152.5t-21.5 -162.5q0 -54 20.5 -76
t69.5 -22q35 0 58 11.5t40 41.5q28 49 51 163t23 168z" />
    <glyph glyph-name="one" unicode="1" horiz-adv-x="581" 
d="M304 539l-79 -34q-11 -5 -22 -5q-10 0 -17 14q-21 50 -21 67q0 14 21 24l146 63q18 8 42 8h63q24 0 24 -21q0 -3 -1 -7.5t-2 -10.5t-1 -8l-128 -601q-6 -29 -32 -29h-79q-24 0 -24 22q0 4 3 22z" />
    <glyph glyph-name="two" unicode="2" horiz-adv-x="581" 
d="M459 0h-433q-22 0 -22 20q0 25 9 61q4 20 23 33q193 127 282 204q89 75 89 167q0 45 -23.5 66.5t-81.5 21.5q-50 0 -98 -12q-26 -7 -36 -7q-15 0 -19 16q-11 48 -11 63q0 20 30 30q82 25 183 25q200 0 200 -163q0 -139 -101 -231q-116 -106 -235 -176q59 1 265 1
q24 0 24 -21q0 -10 -13 -74q-5 -24 -32 -24z" />
    <glyph glyph-name="three" unicode="3" horiz-adv-x="581" 
d="M385 355q115 -12 115 -127q0 -123 -67 -180q-72 -61 -233 -61q-102 0 -156 19q-20 8 -20 27q0 25 19 68q8 17 25 17q5 0 18 -2.5t17 -3.5q53 -10 111 -10q92 0 122 34q26 29 26 88q0 35 -26 51t-88 16h-24q-24 0 -24 22q0 24 11 65q7 29 33 29h27q65 0 98 25q27 22 27 78
q0 34 -20 48.5t-77 14.5q-54 0 -95 -10q-28 -6 -36 -6q-12 0 -17 16q-9 37 -9 61t30 32q76 22 174 22q105 0 146.5 -36t41.5 -103q0 -82 -34.5 -129t-114.5 -65z" />
    <glyph glyph-name="four" unicode="4" horiz-adv-x="581" 
d="M426 27q-4 -28 -31 -28h-77q-22 0 -22 21q0 2 4 22l24 111h-274q-25 0 -25 24q0 26 11 63q5 21 21 42l292 367q22 27 47 27h84q18 0 18 -16q0 -10 -13 -28l-292 -361h156l26 116q7 31 30 31h78q21 0 21 -19q0 -11 -4 -25l-22 -103h59q25 0 25 -21q0 -18 -16 -77
q-5 -20 -31 -20h-62z" />
    <glyph glyph-name="five" unicode="5" horiz-adv-x="581" 
d="M239 415q49 13 99 13q92 0 137.5 -34t45.5 -112q0 -144 -69 -219.5t-240 -75.5q-111 0 -167 19q-20 6 -20 26q0 22 19 67q8 19 27 19q3 0 8.5 -1t12.5 -3l13 -2q55 -10 118 -10q83 0 119 32t36 107q0 42 -27.5 57.5t-81.5 15.5q-44 0 -115 -13l-28 -4q-28 0 -28 28
q0 7 11 47l75 272q9 32 35 32h320q24 0 24 -17t-15 -77q-6 -24 -34 -24h-235z" />
    <glyph glyph-name="six" unicode="6" horiz-adv-x="581" 
d="M209 373q57 59 158 59q173 0 173 -150q0 -147 -78 -228q-66 -67 -206 -67q-206 0 -206 199q0 98 34.5 221t95.5 189q83 92 245 92q89 0 130 -15q15 -6 15 -25q0 -29 -18 -69q-7 -16 -23 -16q-15 0 -38 5q-45 7 -80 7q-92 0 -137 -51q-38 -43 -65 -151zM180 182
q0 -84 93 -84q77 0 107 46q29 42 29 102q0 77 -87 77q-33 0 -64 -11.5t-48 -29.5q-10 -10 -17 -27q-13 -29 -13 -73z" />
    <glyph glyph-name="seven" unicode="7" horiz-adv-x="581" 
d="M410 559q-69 -1 -297 -1q-26 0 -26 20q0 19 11 74q6 24 31 24h429q25 0 25 -20q0 -18 -6 -46q-7 -34 -24 -64q-175 -288 -300 -518q-17 -29 -43 -29h-84q-25 0 -25 21q0 16 11 34q119 219 298 505z" />
    <glyph glyph-name="eight" unicode="8" horiz-adv-x="581" 
d="M431 354q52 -12 78 -45t26 -81q0 -124 -70 -182.5t-217 -58.5q-112 0 -166.5 43t-54.5 118q0 87 44 142t124 69q-42 11 -63.5 43.5t-21.5 73.5q0 212 259 212q209 0 209 -144q0 -157 -147 -190zM395 220q0 73 -97 73q-60 0 -97 -28.5t-37 -89.5q0 -78 100 -78
q131 0 131 123zM444 514q0 62 -86 62q-115 0 -115 -104q0 -67 84 -67q55 0 86 28.5t31 80.5z" />
    <glyph glyph-name="nine" unicode="9" horiz-adv-x="581" 
d="M408 302q-54 -57 -157 -57q-87 0 -130 41t-43 115q0 141 77 221q65 66 206 66q105 0 155 -49t50 -149q0 -101 -32 -223.5t-93 -188.5q-83 -92 -246 -92q-94 0 -138 17q-16 6 -16 25q0 27 18 69q8 17 23 17q9 0 39 -6q45 -7 80 -7q102 0 144 49q37 41 63 152zM437 494
q0 40 -21 61.5t-72 21.5q-77 0 -107 -45q-30 -43 -30 -102q0 -77 89 -77q74 0 110 41q12 12 17 26q14 34 14 74z" />
    <glyph glyph-name="colon" unicode=":" horiz-adv-x="264" 
d="M188 90q0 -53 -28 -81q-22 -22 -62 -22q-69 0 -69 64q0 45 26 74q24 27 65 27q68 0 68 -62zM263 437q0 -51 -29 -80q-25 -23 -62 -23q-68 0 -68 64q0 46 26 75q23 26 64 26q69 0 69 -62z" />
    <glyph glyph-name="semicolon" unicode=";" horiz-adv-x="264" 
d="M263 437q0 -51 -29 -80q-25 -23 -62 -23q-68 0 -68 64q0 46 26 75q23 26 64 26q69 0 69 -62zM153 146q31 0 31 -26q0 -19 -12 -59q-20 -59 -59.5 -119t-80.5 -93q-25 -21 -40 -21q-22 0 -37 13q-15 12 -15 26t17 31q32 32 59.5 86t37.5 121q6 41 47 41h52z" />
    <glyph glyph-name="less" unicode="&#x3c;" horiz-adv-x="701" 
d="M555 62q-5 -24 -22 -24q-8 0 -18 5l-358 189q-20 10 -20 31q0 17 7 55q4 24 27 35l434 194q8 4 18 4q19 0 19 -21q0 -20 -7 -55q-4 -23 -28 -33l-368 -155l302 -149q20 -10 20 -32q0 -18 -6 -44z" />
    <glyph glyph-name="equal" unicode="=" horiz-adv-x="701" 
d="M604 171q-6 -28 -33 -28h-460q-28 0 -28 25q0 5 6 38q6 27 33 27h460q28 0 28 -24q0 -13 -6 -38zM649 383q-6 -28 -33 -28h-460q-28 0 -28 25q0 4 6 37q6 28 33 28h460q28 0 28 -25q0 -8 -6 -37z" />
    <glyph glyph-name="greater" unicode="&#x3e;" horiz-adv-x="701" 
d="M189 531q5 24 21 24q8 0 18 -5l359 -190q20 -10 20 -30q0 -16 -7 -56q-4 -23 -27 -34l-434 -194q-8 -4 -17 -4q-20 0 -20 21q0 15 7 54q4 25 28 34l368 155l-302 149q-21 11 -21 32q0 5 7 44z" />
    <glyph glyph-name="question" unicode="?" horiz-adv-x="451" 
d="M220 241h-47q-27 0 -27 22q0 17 5 47q7 35 22 57t52 46q59 39 84 66.5t25 66.5q0 31 -17 45.5t-59 14.5q-39 0 -81 -9q-2 0 -7.5 -1.5t-11.5 -2.5t-10 -1q-19 0 -24 24q-7 32 -7 47q0 29 34 38q73 19 147 19q185 0 185 -129q0 -77 -32.5 -123.5t-108.5 -89.5
q-38 -21 -55 -37t-26 -42l-14 -42q-6 -16 -27 -16zM248 90q0 -51 -29 -81q-21 -22 -62 -22q-68 0 -68 64q0 43 26 74q24 27 64 27q69 0 69 -62z" />
    <glyph glyph-name="at" unicode="@" horiz-adv-x="803" 
d="M473 111q-41 -55 -130 -55q-124 0 -124 117q0 65 32 137.5t86 116.5q57 47 142 48q55 0 81 -20l2 5q5 12 23 12h30q16 0 16 -12q0 -8 -5 -26l-70 -244q-9 -34 -9 -42q0 -22 20 -22t40 14q53 35 81.5 103t28.5 144q0 203 -232 203q-156 0 -258 -116.5t-102 -277.5
q0 -123 70.5 -189.5t201.5 -66.5q75 0 116 7.5t93 24.5q24 8 31 8q12 0 20 -24q4 -12 4 -18q0 -11 -26 -21q-111 -43 -243 -43q-159 0 -249 82t-90 236q0 122 52.5 225.5t153.5 167.5t231 64q139 0 217.5 -65.5t78.5 -194.5q0 -76 -27.5 -150t-85.5 -127t-132 -53
q-35 0 -51 11.5t-17 40.5zM539 397q-25 15 -65 15q-55 0 -91 -34q-35 -33 -57 -84.5t-22 -102.5q0 -67 66 -67q46 0 81 26q11 8 16 18q8 11 13 28z" />
    <glyph glyph-name="A" unicode="A" horiz-adv-x="640" 
d="M120 32q-10 -18 -18.5 -25.5t-23.5 -7.5h-91q-24 0 -24 21q0 7 12 29l359 631q15 27 42 27h87q29 0 33 -30l89 -625q3 -16 3 -28q0 -25 -32 -25h-78q-16 0 -22.5 7.5t-8.5 26.5l-19 153h-222zM393 540q-47 -92 -128 -237h153q-17 138 -25 237z" />
    <glyph glyph-name="B" unicode="B" horiz-adv-x="628" 
d="M225 0h-163q-24 0 -24 21q0 5 3 17l135 636q7 32 35 32h161q66 0 108 -5q136 -17 136 -139q0 -154 -135 -192q96 -20 96 -135q0 -73 -34.5 -129.5t-105.5 -82.5q-64 -23 -212 -23zM195 118h64q81 0 111 10q64 23 64 104q0 50 -37 65q-26 11 -88 11h-73zM260 421h65
q61 0 88 9q61 19 61 92q0 51 -44 64q-22 6 -83 6h-50z" />
    <glyph glyph-name="C" unicode="C" horiz-adv-x="582" 
d="M199 244q0 -72 33 -105.5t104 -33.5q73 0 133 14q23 6 32 6q14 0 18 -14q13 -41 13 -64q0 -22 -27 -31q-84 -29 -216 -29q-234 0 -234 239q0 96 33 210.5t94 184.5q85 99 264 99q91 0 150 -16q20 -5 20 -26q0 -24 -21 -75q-6 -13 -21 -13q-11 0 -34 5q-45 8 -106 8
q-94 0 -144 -54q-44 -47 -67.5 -136.5t-23.5 -168.5z" />
    <glyph glyph-name="D" unicode="D" horiz-adv-x="683" 
d="M196 121h60q92 0 138 21q38 17 66 54.5t42 84.5t20.5 91t6.5 85q0 84 -54 111q-37 17 -123 17h-57zM215 0h-154q-23 0 -23 21q0 7 3 22l135 633q6 30 34 30h154q120 0 191 -22q120 -38 120 -205q0 -73 -11.5 -139t-38 -131t-76.5 -114t-119 -71q-75 -24 -215 -24z" />
    <glyph glyph-name="E" unicode="E" horiz-adv-x="554" 
d="M452 0h-391q-23 0 -23 19q0 8 3 23l135 632q7 32 35 32h360q23 0 23 -17q0 -7 -16 -82q-4 -22 -33 -22h-249l-35 -159h232q24 0 24 -20q0 -18 -14 -78q-6 -23 -32 -23h-234l-40 -184h280q24 0 24 -19q0 -15 -15 -79q-6 -23 -34 -23z" />
    <glyph glyph-name="F" unicode="F" horiz-adv-x="524" 
d="M231 280l-54 -251q-6 -30 -33 -30h-85q-22 0 -22 17q0 5 3 23l136 635q7 32 34 32h356q25 0 25 -19q0 -16 -15 -79q-6 -23 -33 -23h-247l-41 -184h210q26 0 26 -18q0 -17 -15 -80q-5 -23 -33 -23h-212z" />
    <glyph glyph-name="G" unicode="G" horiz-adv-x="658" 
d="M569 65q-7 -29 -31 -40q-82 -38 -239 -38q-116 0 -180 56.5t-64 172.5q0 110 34.5 227.5t102.5 187.5q86 89 260 89q95 0 165 -19q20 -5 20 -24q0 -16 -20 -76q-5 -15 -22 -15q-6 0 -32 6q-62 11 -121 11q-100 0 -145 -45q-46 -47 -72 -140.5t-26 -174.5q0 -71 33 -105
t106 -34q72 0 123 18l34 134h-115q-19 0 -19 16q0 18 15 83q5 20 26 20h204q24 0 24 -18q0 -6 -5 -31z" />
    <glyph glyph-name="H" unicode="H" horiz-adv-x="705" 
d="M176 27q-6 -28 -32 -28h-85q-21 0 -21 20q0 9 2 19l137 639q7 30 32 30h85q23 0 23 -19q0 -7 -4 -29l-52 -233h260l55 251q7 30 32 30h84q24 0 24 -19q0 -2 -5 -29l-136 -632q-6 -28 -32 -28h-86q-21 0 -21 20q0 4 3 19l57 267h-259z" />
    <glyph glyph-name="I" unicode="I" horiz-adv-x="306" 
d="M176 27q-6 -28 -32 -28h-85q-21 0 -21 20q0 9 2 19l137 639q7 30 32 30h85q23 0 23 -19q0 -7 -4 -29z" />
    <glyph glyph-name="J" unicode="J" horiz-adv-x="322" 
d="M209 99q-23 -106 -71 -151q-56 -51 -166 -51q-33 0 -49 5q-15 4 -15 26q0 16 12 62q7 25 29 25q3 0 17 -0.5t21 -0.5q33 0 53 16q18 16 34 88l120 559q7 30 34 30h85q21 0 21 -18q0 -10 -3 -22z" />
    <glyph glyph-name="K" unicode="K" horiz-adv-x="638" 
d="M176 27q-6 -28 -31 -28h-86q-22 0 -22 20q0 3 0.5 7.5t2 9.5t1.5 7l136 634q7 30 32 30h86q22 0 22 -20q0 -1 -3 -19l-53 -245h42q34 0 50 21l178 241q16 22 40 22h83q20 0 20 -18q0 -12 -13 -28q-185 -248 -233 -307q20 -42 128 -302q7 -19 7 -30q0 -23 -27 -23h-87
q-21 0 -30 21l-106 267q-7 17 -36 17h-40z" />
    <glyph glyph-name="L" unicode="L" horiz-adv-x="558" 
d="M445 0h-385q-22 0 -22 20q0 3 3 21l136 637q6 29 33 29h85q21 0 21 -18q0 -9 -3 -20l-117 -548h273q23 0 23 -17q0 -16 -15 -82q-6 -22 -32 -22z" />
    <glyph glyph-name="M" unicode="M" horiz-adv-x="841" 
d="M175 28q-6 -29 -31 -29h-86q-20 0 -20 21q0 13 4 29l134 626q6 31 34 31h134q31 0 35 -26q58 -298 63 -337q43 74 211 339q15 24 38 24h138q23 0 23 -23q0 -3 -5 -30l-132 -621q-7 -33 -33 -33h-84q-22 0 -22 21q0 3 4 23q87 408 112 509q-60 -113 -224 -374
q-14 -24 -40 -24h-46q-26 0 -31 24q-49 250 -67 374q-24 -130 -109 -524z" />
    <glyph glyph-name="N" unicode="N" horiz-adv-x="701" 
d="M172 27q-6 -28 -32 -28h-81q-21 0 -21 21q0 9 3 20l135 637q7 30 34 30h71q22 0 30 -20q108 -248 176 -427q29 153 89 416q7 31 32 31h83q21 0 21 -19q0 -8 -2 -18l-137 -641q-6 -30 -34 -30h-61q-27 0 -37 23q-134 319 -176 433q-6 -31 -93 -428z" />
    <glyph glyph-name="O" unicode="O" horiz-adv-x="697" 
d="M689 507q0 -101 -33.5 -231.5t-96.5 -199.5q-81 -89 -240 -89q-124 0 -193 48.5t-69 175.5q0 106 34 227t98 191q84 91 235 91q62 0 105 -8t82 -29.5t58.5 -65.5t19.5 -110zM544 484q0 69 -29.5 94t-99.5 25q-82 0 -126 -53q-40 -49 -63.5 -147.5t-23.5 -171.5t30 -100.5
t98 -27.5q47 0 77.5 12.5t55.5 49.5q35 52 58 154t23 165z" />
    <glyph glyph-name="P" unicode="P" horiz-adv-x="629" 
d="M230 278l-54 -249q-6 -30 -31 -30h-86q-22 0 -22 19q0 3 3 21l136 635q2 10 5 16.5t11 11t21 4.5h157q145 0 196 -26q72 -38 72 -129q0 -95 -42 -163.5t-132 -94.5q-56 -15 -171 -15h-63zM253 388h67q66 0 102 12q71 26 71 118q0 45 -35 61q-24 10 -98 10h-64z" />
    <glyph glyph-name="Q" unicode="Q" horiz-adv-x="697" 
d="M683 507q0 -101 -33.5 -231.5t-96.5 -199.5l-8 -8q-4 -4 -7.5 -8t-7.5 -7l125 -81q12 -7 12 -18q0 -12 -46 -76q-7 -11 -19 -11q-8 0 -18 7l-184 120q-38 -7 -87 -7q-124 0 -193 48.5t-69 175.5q0 106 34 227t98 191q84 91 235 91q62 0 105 -8t82 -29.5t58.5 -65.5
t19.5 -110zM538 484q0 69 -29.5 94t-99.5 25q-82 0 -126 -53q-40 -49 -63.5 -147.5t-23.5 -171.5t30 -100.5t98 -27.5q47 0 77.5 12.5t55.5 49.5q35 52 58 154t23 165z" />
    <glyph glyph-name="R" unicode="R" horiz-adv-x="631" 
d="M177 29q-6 -30 -32 -30h-85q-22 0 -22 21q0 11 2 19l136 636q7 31 36 31h156q129 0 183 -24q36 -17 55.5 -53t19.5 -79q0 -87 -38.5 -152t-118.5 -94l89 -250q6 -20 6 -32q0 -9 -7 -16t-19 -7h-88q-24 0 -31 23l-85 261q-16 -1 -51 -1h-53zM254 393h60q64 0 101 12
q68 24 68 109q0 48 -34 62q-27 12 -95 12h-58z" />
    <glyph glyph-name="S" unicode="S" horiz-adv-x="572" 
d="M395 402q73 -23 105 -61t32 -101q0 -132 -74.5 -192.5t-222.5 -60.5q-131 0 -203 29q-19 9 -19 30q0 23 17 65q11 25 35 25q9 0 39 -9q77 -22 150 -22q64 0 96.5 19t32.5 73q0 28 -16 47.5t-61 36.5l-75 27q-66 25 -98 64.5t-32 102.5q0 244 294 244q102 0 167 -22
q19 -6 19 -28q0 -25 -14 -67q-6 -21 -29 -21q-15 0 -35 5q-74 15 -142 15q-112 0 -113 -89q0 -28 15 -46.5t56 -34.5z" />
    <glyph glyph-name="T" unicode="T" horiz-adv-x="602" 
d="M324 29q-6 -30 -31 -30h-87q-23 0 -23 20q0 6 3 21l118 545h-168q-24 0 -24 16q0 7 16 79q5 26 32 26h477q22 0 22 -19q0 -12 -15 -81q-4 -21 -32 -21h-169z" />
    <glyph glyph-name="U" unicode="U" horiz-adv-x="691" 
d="M621 282q-18 -88 -31.5 -131.5t-36.5 -73.5q-37 -47 -98 -68.5t-160 -21.5q-230 0 -230 153q0 50 19 140l86 399q6 28 29 28h91q20 0 20 -18q0 -9 -3 -21l-89 -410q-10 -45 -10 -80q0 -74 112 -74q84 0 117 35q27 27 45 109l91 431q6 28 31 28h83q20 0 20 -18
q0 -8 -3 -20z" />
    <glyph glyph-name="V" unicode="V" horiz-adv-x="622" 
d="M303 -1h-83q-31 0 -34 29l-81 622q-2 16 -2 26q0 31 30 31h86q25 0 28 -29q39 -363 50 -492q51 106 262 489q17 32 41 32h86q24 0 24 -21q0 -13 -12 -34l-353 -625q-15 -28 -42 -28z" />
    <glyph glyph-name="W" unicode="W" horiz-adv-x="901" 
d="M634 -1h-82q-29 0 -31 30q-9 195 -16 456q-55 -121 -221 -457q-14 -29 -42 -29h-82q-29 0 -31 31l-24 619q0 21 1 29q2 29 30 29h85q25 0 25 -30q7 -273 7 -378q0 -66 -1 -95q43 107 211 457q16 36 43 36h75q26 0 27 -32q19 -394 19 -461q65 165 201 470q14 33 37 33h90
q21 0 21 -19q0 -12 -13 -40l-287 -620q-14 -29 -42 -29z" />
    <glyph glyph-name="X" unicode="X" horiz-adv-x="659" 
d="M145 30q-27 -31 -51 -31h-95q-22 0 -22 19q0 10 21 35l272 323l-132 277q-8 16 -8 32q0 9 7 16t18 7h88q23 0 35 -26l98 -213q50 64 181 212q14 16 22.5 21.5t23.5 5.5h98q19 0 19 -19q0 -13 -18 -33l-257 -302l145 -301q10 -19 10 -31q0 -23 -27 -23h-87
q-14 0 -21.5 6.5t-15.5 23.5q-81 165 -109 233z" />
    <glyph glyph-name="Y" unicode="Y" horiz-adv-x="613" 
d="M328 29q-6 -30 -31 -30h-85q-24 0 -24 21q0 2 3 23l54 250l-138 359q-8 22 -8 32q0 9 7 16t20 7h92q24 0 34 -26q76 -212 87 -248q63 90 192 247q22 27 48 27h98q18 0 18 -19q0 -12 -18 -35l-292 -356z" />
    <glyph glyph-name="Z" unicode="Z" horiz-adv-x="609" 
d="M524 0h-502q-30 0 -30 28q0 9 5 40q5 26 32 56l413 461h-299q-24 0 -24 22q0 10 11 70q6 29 32 29h456q16 0 23 -4.5t7 -17.5q0 -10 -7 -45q-6 -24 -13.5 -38.5t-29.5 -39.5l-393 -440h339q25 0 25 -20q0 -17 -12 -75q-5 -26 -33 -26z" />
    <glyph glyph-name="bracketleft" unicode="[" horiz-adv-x="317" 
d="M199 -143h-175q-20 0 -20 18q0 8 3 20l175 827q5 27 27 27h180q16 0 16 -13q0 -6 -6 -32q-5 -15 -24 -15h-93l-163 -772h93q15 0 15 -13q0 -11 -5 -31q-4 -16 -23 -16z" />
    <glyph glyph-name="backslash" unicode="\" horiz-adv-x="437" 
d="M395 -62q4 -16 4 -22q0 -16 -20 -16h-40q-23 0 -29 27l-207 778q-4 15 -4 26q0 20 20 20h41q20 0 27 -27z" />
    <glyph glyph-name="bracketright" unicode="]" horiz-adv-x="317" 
d="M147 749h175q20 0 20 -18q0 -3 -1 -7.5t-2 -10.5t-1 -8l-174 -821q-5 -27 -27 -27h-180q-16 0 -16 12q0 10 7 33q3 15 23 15h93l164 772h-94q-15 0 -15 13q0 11 5 31q4 16 23 16z" />
    <glyph glyph-name="asciicircum" unicode="^" horiz-adv-x="718" 
d="M608 322q3 -9 3 -18q0 -23 -27 -23h-37q-27 0 -34 26l-72 262l-183 -268q-13 -20 -37 -20h-45q-27 0 -27 19q0 10 7 20l234 335q14 20 38 20h54q25 0 33 -26z" />
    <glyph glyph-name="underscore" unicode="_" horiz-adv-x="493" 
d="M-77 -78h493v-55h-493v55z" />
    <glyph glyph-name="grave" unicode="`" horiz-adv-x="197" 
d="M100 598l-104 117q-10 13 -10 24q0 21 24 21h74q21 0 38 -25l81 -114q9 -13 9 -23q0 -18 -25 -18h-45q-25 0 -42 18z" />
    <glyph glyph-name="a" unicode="a" horiz-adv-x="581" 
d="M460 32q-4 -19 -10.5 -26t-23.5 -7h-68q-27 0 -27 20q0 9 2 17q-51 -48 -150 -48q-72 0 -111 39t-39 118q0 84 29.5 172.5t86.5 135.5q64 52 178 52q74 0 102 -28q9 25 33 25h65q26 0 26 -23q0 -11 -5 -34zM352 154l49 227q-24 13 -71 13q-61 0 -97 -34
q-27 -27 -43.5 -79.5t-16.5 -101.5q0 -42 17.5 -60t55.5 -18q50 0 83 20q12 8 15 13q7 14 8 20z" />
    <glyph glyph-name="b" unicode="b" horiz-adv-x="575" 
d="M143 25l-3 -8q-4 -12 -10.5 -15t-23.5 -3h-57q-24 0 -24 22q0 10 5 32l142 664q7 31 33 31h77q25 0 25 -20q0 -9 -3 -24l-51 -234q56 38 149 38q72 0 108.5 -34t36.5 -109q0 -65 -23 -153.5t-63 -140.5q-34 -44 -83.5 -60t-122.5 -16q-84 0 -112 30zM178 117
q24 -15 71 -15q79 0 112 47q21 30 34 86.5t13 91.5q0 68 -76 68q-48 0 -83 -19q-10 -5 -15 -13t-8 -22z" />
    <glyph glyph-name="c" unicode="c" horiz-adv-x="449" 
d="M171 183q0 -45 20.5 -64t66.5 -19q47 0 79 8q18 4 29 4q14 0 18 -15q9 -34 9 -61q0 -19 -22 -27q-69 -22 -150 -22q-95 0 -142.5 38t-47.5 128q0 69 22 151t66 132q69 76 211 76q61 0 106 -13q17 -5 17 -23q0 -33 -14 -70q-7 -17 -23 -17q-5 0 -29 3q-31 6 -67 6
q-68 0 -98 -36q-26 -30 -38.5 -81.5t-12.5 -97.5z" />
    <glyph glyph-name="d" unicode="d" horiz-adv-x="578" 
d="M460 32q-4 -19 -10.5 -26t-23.5 -7h-68q-27 0 -27 20q0 9 2 17q-51 -48 -150 -48q-72 0 -111 39t-39 118q0 86 28 174.5t86 135.5q65 53 193 53q54 0 84 -15l48 225q7 30 37 30h74q24 0 24 -20q0 -3 -4 -21zM352 155l49 229q-27 12 -71 12q-65 0 -98 -34q-27 -27 -43 -80
t-16 -102q0 -42 17.5 -60.5t55.5 -18.5q50 0 84 21q8 4 15 13q2 4 7 20z" />
    <glyph glyph-name="e" unicode="e" horiz-adv-x="521" 
d="M171 208q-3 -22 -3 -35q0 -44 24.5 -58.5t77.5 -14.5q60 0 122 15q20 5 27 5q15 0 18 -16q10 -34 10 -58q0 -21 -21 -30q-71 -29 -198 -29q-108 0 -152.5 44.5t-44.5 133.5q0 66 21.5 141.5t65.5 125.5q69 79 204 79q98 0 138 -36.5t40 -106.5q0 -52 -13 -122
q-4 -24 -18 -32q-7 -6 -27 -6h-271zM187 303h182q9 31 9 55q0 28 -16 42t-57 14q-47 0 -73 -23q-29 -25 -45 -88z" />
    <glyph glyph-name="f" unicode="f" horiz-adv-x="332" 
d="M248 386l-77 -357q-7 -30 -31 -30h-83q-20 0 -20 20q0 4 5 29l72 338h-39q-24 0 -24 21q0 16 12 64q8 26 33 26h41l17 81q22 103 75 142q52 38 152 38q50 0 71 -9q13 -6 13 -23q0 -18 -14 -64q-5 -18 -27 -18q-3 0 -21 1.5t-29 1.5q-43 0 -62 -19q-17 -17 -27 -67
l-14 -64h79q25 0 25 -21q0 -19 -12 -67q-5 -23 -33 -23h-82z" />
    <glyph glyph-name="g" unicode="g" horiz-adv-x="521" 
d="M61 4q-61 19 -61 82q0 93 91 129q-26 26 -26 81q0 127 88 180q57 34 155 34q59 0 95 -13h125q23 0 23 -20q0 -11 -8 -60q-4 -23 -29 -23h-41q6 -12 6 -39q0 -90 -57 -142q-58 -52 -168 -52q-32 0 -62 6q-18 3 -28 3q-14 0 -21 -6q-18 -14 -18 -38q0 -23 22 -27
q17 -4 122 -4q116 0 163.5 -27t47.5 -92q0 -124 -69.5 -174t-218.5 -50q-127 0 -175 34t-48 91q0 93 92 127zM348 -67q0 24 -19 35.5t-70 12.5q-37 1 -78 1q-20 0 -36 -6q-44 -20 -44 -61q0 -57 112 -57q69 0 102 14.5t33 60.5zM362 356q0 54 -73 54q-39 0 -60 -15
q-37 -27 -37 -82q0 -53 73 -53q50 0 72 25q25 26 25 71z" />
    <glyph glyph-name="h" unicode="h" horiz-adv-x="586" 
d="M159 27q-6 -28 -31 -28h-83q-20 0 -20 19q0 7 3 19l143 678q6 33 33 33h79q25 0 25 -17q0 -3 -4 -27l-53 -244q60 49 159 49q135 0 135 -88q0 -38 -10 -82l-68 -314q-5 -26 -30 -26h-83q-20 0 -20 19q0 7 2 17l60 281q6 24 6 42q0 36 -59 36q-44 0 -80 -13
q-20 -9 -25 -14q-7 -9 -12 -29z" />
    <glyph glyph-name="i" unicode="i" horiz-adv-x="275" 
d="M129 -1h-84q-20 0 -20 19q0 1 3 22l92 430q7 28 30 28h84q20 0 20 -19q0 -12 -4 -26l-91 -426q-6 -28 -30 -28zM293 675q0 -44 -27 -71q-22 -20 -57 -20q-63 0 -63 54q0 46 22 69q24 24 61 24q64 0 64 -56z" />
    <glyph glyph-name="j" unicode="j" horiz-adv-x="275" 
d="M143 -48q-24 -112 -65 -149q-31 -28 -71.5 -40t-114.5 -12q-38 0 -38 30q0 21 11 58q7 27 36 27q48 0 74 15q24 15 35 70l110 519q7 28 31 28h82q21 0 21 -17q0 -11 -2 -21zM294 675q0 -44 -27 -71q-22 -20 -57 -20q-63 0 -63 54q0 46 22 69q24 24 61 24q64 0 64 -56z
" />
    <glyph glyph-name="k" unicode="k" horiz-adv-x="543" 
d="M159 27q-6 -28 -29 -28h-82q-23 0 -23 20q0 10 3 22l144 675q6 29 30 29h83q21 0 21 -18q0 -8 -2 -20l-80 -374h30q34 0 50 21l98 124q15 20 40 20h84q21 0 21 -20q0 -10 -15 -28q-114 -142 -148 -181l98 -221q7 -15 7 -27q0 -10 -7 -16t-18 -6h-83q-21 0 -33 27l-78 178
q-7 17 -35 17h-34z" />
    <glyph glyph-name="l" unicode="l" horiz-adv-x="276" 
d="M159 27q-6 -28 -29 -28h-83q-22 0 -22 20q0 10 3 22l145 679q6 28 30 28h83q22 0 22 -17q0 -5 -3 -20z" />
    <glyph glyph-name="m" unicode="m" horiz-adv-x="876" 
d="M159 27q-6 -28 -31 -28h-83q-20 0 -20 19q0 7 3 19l91 429q6 33 34 33h75q14 0 19.5 -5t5.5 -17q0 -10 -2 -17q60 49 153 49q106 0 127 -54q62 54 170 54q136 0 136 -86q0 -36 -10 -83l-67 -315q-5 -26 -30 -26h-84q-20 0 -20 19q0 3 3 18l60 280q5 23 5 42q0 36 -54 36
q-39 0 -78 -14q-16 -6 -24 -15q-7 -10 -13 -40l-65 -300q-5 -26 -31 -26h-83q-20 0 -20 19q0 2 3 17l59 281q7 30 7 43q0 35 -55 35q-39 0 -78 -13q-17 -8 -23 -13q-8 -9 -13 -30z" />
    <glyph glyph-name="n" unicode="n" horiz-adv-x="586" 
d="M159 27q-6 -28 -31 -28h-83q-20 0 -20 19q0 7 3 19l91 429q6 33 34 33h75q14 0 19.5 -5t5.5 -17q0 -10 -2 -17q60 49 159 49q135 0 135 -88q0 -38 -10 -82l-68 -314q-5 -26 -30 -26h-83q-20 0 -20 19q0 7 2 17l60 281q6 24 6 42q0 36 -59 36q-44 0 -80 -13
q-20 -9 -25 -14q-7 -8 -12 -29z" />
    <glyph glyph-name="o" unicode="o" horiz-adv-x="561" 
d="M531 350q0 -67 -22 -152.5t-64 -136.5q-60 -74 -198 -74q-48 0 -83 7t-66.5 24.5t-48 52t-16.5 86.5q0 75 23.5 155.5t71.5 130.5q64 68 187 68q49 0 83 -5.5t67 -21t49.5 -49t16.5 -85.5zM395 327q0 40 -21.5 55t-66.5 15q-59 0 -86 -37q-23 -32 -36.5 -89.5
t-13.5 -94.5q0 -43 21 -59.5t66 -16.5q63 0 89 39q20 29 34 91.5t14 96.5z" />
    <glyph glyph-name="p" unicode="p" horiz-adv-x="575" 
d="M157 12l-49 -226q-4 -17 -11.5 -23.5t-22.5 -6.5h-77q-23 0 -23 22q0 3 3 18l142 670q4 18 12 25.5t25 7.5h63q32 0 32 -20q0 -8 -3 -23q51 52 152 52q72 0 109.5 -33.5t37.5 -109.5q0 -60 -17.5 -137.5t-50.5 -130.5q-36 -59 -89 -80.5t-139 -21.5q-72 0 -94 17z
M178 116q30 -14 71 -14q45 0 72 12t43 40q20 33 32 84.5t12 90.5q0 35 -17.5 50.5t-60.5 15.5q-47 0 -81 -19q-11 -4 -15 -12q-4 -7 -7 -21z" />
    <glyph glyph-name="q" unicode="q" horiz-adv-x="576" 
d="M325 27q-52 -39 -141 -39q-70 0 -110.5 38.5t-40.5 118.5q0 79 24.5 162t75.5 135q65 66 193 66q36 0 68 -8t43 -21l3 8q8 18 38 18h51q27 0 27 -18q0 -4 -2 -14l-146 -688q-6 -29 -32 -29h-80q-24 0 -24 20q0 8 3 21zM352 156l50 228q-19 12 -74 12q-66 0 -101 -43
q-24 -29 -39 -80.5t-15 -95.5q0 -39 18 -57t57 -18q51 0 83 20q7 3 13 14q4 6 8 20z" />
    <glyph glyph-name="r" unicode="r" horiz-adv-x="390" 
d="M159 24q-6 -25 -31 -25h-81q-22 0 -22 19q0 1 3 19l91 429q6 33 35 33h76q23 0 23 -19q0 -14 -2 -20q19 20 54 34.5t73 14.5q25 0 36 -4q14 -6 14 -22q0 -8 -7.5 -37.5t-12.5 -39.5q-8 -16 -28 -16q-6 0 -27 2t-29 2q-41 0 -68 -12q-13 -5 -19 -15q-7 -9 -10 -24z" />
    <glyph glyph-name="s" unicode="s" horiz-adv-x="446" 
d="M299 290q104 -35 104 -118q0 -90 -51 -138q-53 -47 -170 -47q-120 0 -174 27q-15 7 -15 20q0 23 20 71q8 18 28 18q12 0 27 -5q57 -19 127 -19q50 0 64 15q11 11 11 30q0 14 -10 23t-40 18l-58 19q-107 33 -107 120q0 95 65 144q56 42 166 42q81 0 129 -14q19 -6 19 -22
q0 -29 -15 -74q-7 -17 -26 -17q-8 0 -26 3q-56 12 -102 12q-42 0 -61 -11q-16 -10 -16 -36q0 -13 11 -22t41 -19z" />
    <glyph glyph-name="t" unicode="t" horiz-adv-x="337" 
d="M245 386l-44 -202q-8 -39 -8 -58q0 -27 35 -27q10 0 22 1t15 1q19 0 20 -21q1 -18 1 -52q0 -26 -32 -33q-37 -8 -85 -8q-118 0 -118 92q0 32 9 71l51 236h-43q-22 0 -22 18q0 14 12 66q7 27 32 27h47q0 7 26 108q8 30 31 30h78q19 0 19 -19q0 -6 -3 -24l-21 -95h69
q23 0 23 -18q0 -13 -12 -71q-5 -22 -32 -22h-70z" />
    <glyph glyph-name="u" unicode="u" horiz-adv-x="590" 
d="M334 37q-58 -49 -156 -49q-138 0 -138 91q0 31 11 81l66 312q7 26 31 26h83q21 0 21 -19l-3 -18l-59 -278q-6 -24 -6 -42q0 -38 61 -38q45 0 77 13q16 5 25 15q9 9 13 30l66 309q6 28 32 28h82q20 0 20 -19q0 -7 -3 -19l-91 -429q-7 -33 -34 -33h-75q-14 0 -19.5 5
t-5.5 17q0 3 2 17z" />
    <glyph glyph-name="v" unicode="v" horiz-adv-x="504" 
d="M241 -1h-73q-28 0 -34 26l-76 425q-2 14 -2 21q0 27 30 27h84q21 0 26 -28q32 -214 40 -289q42 83 164 288q16 29 36 29h91q21 0 21 -19q0 -10 -10 -27l-259 -428q-15 -25 -38 -25z" />
    <glyph glyph-name="w" unicode="w" horiz-adv-x="766" 
d="M396 300q-30 -62 -150 -276q-13 -25 -40 -25h-72q-29 0 -31 29l-34 417q-1 13 -1 25q0 28 27 28h86q23 0 24 -28q12 -196 14 -273q50 100 136 253q16 31 44 31h62q22 0 27 -32q30 -206 35 -253q46 111 125 272q16 30 34 30h97q20 0 20 -17q0 -8 -13 -34l-218 -423
q-12 -25 -38 -25h-75q-27 0 -30 26q-22 183 -29 275z" />
    <glyph glyph-name="x" unicode="x" horiz-adv-x="532" 
d="M253 158l-121 -132q-23 -26 -46 -26h-95q-18 0 -18 20q0 10 18 30l193 211l-101 189q-7 13 -7 28q0 20 24 20h85q13 0 20 -5.5t15 -20.5q41 -75 63 -121q35 43 112 121q24 26 46 26h95q18 0 18 -17q0 -15 -16 -31l-186 -203l108 -198q9 -16 9 -28q0 -21 -26 -21h-83
q-23 0 -37 27q-60 111 -70 131z" />
    <glyph glyph-name="y" unicode="y" horiz-adv-x="507" 
d="M141 9l-82 441q-2 12 -2 20q0 28 28 28h87q21 0 26 -28q32 -196 44 -289q41 84 158 288q17 29 36 29h93q21 0 21 -17q0 -10 -13 -32l-288 -489q-43 -73 -64.5 -105t-50.5 -60q-47 -45 -149 -45q-55 0 -71 8q-16 6 -16 21q0 35 20 75q7 13 24 13q3 0 20.5 -2t26.5 -2
q47 0 72 27q32 35 72 105z" />
    <glyph glyph-name="z" unicode="z" horiz-adv-x="486" 
d="M397 0h-392q-23 0 -23 20q0 4 7 42q5 23 27 47l276 273h-203q-18 0 -18 17q0 28 13 76q5 22 26 22h361q23 0 23 -17q0 -8 -7 -47q-3 -17 -10 -26.5t-29 -32.5l-259 -259h226q22 0 22 -18q0 -14 -15 -80q-3 -17 -25 -17z" />
    <glyph glyph-name="braceleft" unicode="{" horiz-adv-x="354" 
d="M141 303q76 -16 76 -89q0 -17 -8 -57l-29 -137q-6 -28 -6 -48t9 -34q15 -20 63 -22q17 0 17 -17q0 -15 -4 -27q-7 -20 -29 -20q-110 0 -141 34q-23 26 -23 64q0 28 8 62l29 137q9 43 9 58q0 57 -57 66q-19 3 -19 18q0 11 4 26q6 25 27 28q43 8 67 36t36 85l26 118
q20 91 54 124q27 26 65.5 36t100.5 10q24 0 24 -18q0 -10 -3 -25q-3 -21 -29 -23q-57 -2 -80 -28q-14 -16 -27 -75l-29 -133q-14 -68 -46 -102t-85 -47z" />
    <glyph glyph-name="bar" unicode="|" horiz-adv-x="264" 
d="M108 -118q-6 -29 -29 -29h-57q-21 0 -21 18q0 7 3 22l178 836q6 28 30 28h58q20 0 20 -17q0 -2 -4 -22z" />
    <glyph glyph-name="braceright" unicode="}" horiz-adv-x="363" 
d="M242 302q-76 16 -76 90q0 16 8 56l29 137q6 30 6 48q0 21 -9 34q-12 18 -63 22q-17 1 -17 17q0 12 5 27q6 21 28 21q111 0 142 -35q22 -24 22 -64q0 -25 -7 -62l-30 -137q-8 -38 -8 -58q0 -59 56 -65q20 -3 20 -18q0 -14 -4 -29q-5 -21 -28 -26q-43 -8 -66.5 -35.5
t-36.5 -85.5l-25 -118q-20 -89 -55 -123q-27 -27 -65 -36.5t-101 -9.5q-24 0 -24 17q0 10 3 26q3 20 29 22q57 2 80 28q16 19 28 75l28 133q15 69 46.5 102.5t84.5 46.5z" />
    <glyph glyph-name="asciitilde" unicode="~" horiz-adv-x="701" 
d="M178 241q-14 -15 -25 -15q-16 0 -34 16q-16 15 -16 29q0 13 9 23q75 85 150 85q43 0 115 -40q53 -30 91 -30q45 0 85 45q16 16 28 16q10 0 26 -13q23 -17 23 -31q0 -10 -9 -23q-69 -89 -154 -89q-54 0 -114 35q-58 34 -91 34q-43 0 -84 -42z" />
    <glyph glyph-name="exclamdown" unicode="&#xa1;" horiz-adv-x="297" 
d="M74 223q9 36 42 36h42q34 0 34 -27q0 -13 -3 -31q-59 -338 -64 -360q-5 -24 -15.5 -35.5t-31.5 -11.5h-71q-34 0 -34 29q0 16 101 400zM92 410q0 54 28 81q24 22 62 22q69 0 69 -64q0 -45 -26 -74q-24 -27 -65 -27q-68 0 -68 62z" />
    <glyph glyph-name="cent" unicode="&#xa2;" horiz-adv-x="505" 
d="M268 -70q-5 -24 -23 -24h-19q-19 0 -19 14q0 7 2 17l13 61q-84 3 -126.5 39.5t-42.5 116.5q0 72 27 157.5t78 133.5q60 56 172 63l15 69q5 25 25 25h20q17 0 17 -13q0 -7 -3 -22l-13 -59q47 -2 76 -11q19 -8 19 -25q0 -22 -18 -69q-7 -16 -23 -16q-5 0 -29 3q-18 3 -49 5
l-61 -286q29 3 62 10q18 4 29 4q12 0 17 -15q9 -36 9 -57q0 -19 -22 -29q-50 -21 -119 -24zM195 182q0 -32 12 -48.5t39 -21.5l59 280q-38 -7 -61 -38q-22 -31 -35.5 -82t-13.5 -90z" />
    <glyph glyph-name="sterling" unicode="&#xa3;" horiz-adv-x="601" 
d="M494 0h-437q-22 0 -22 17q0 20 10 65q4 19 22 27q119 56 119 139q0 13 -2 33h-83q-20 0 -20 16q0 15 7 47q4 19 25 19h63q-6 41 -6 96q0 113 73.5 171.5t200.5 58.5q96 0 148 -17q15 -5 15 -24q0 -15 -21 -76q-6 -15 -22 -15q-13 0 -34 6q-47 12 -98 12
q-121 -1 -121 -128q0 -57 4 -84h176q22 0 22 -18q0 -4 -7 -46q-4 -18 -27 -18h-162q2 -9 2 -28q0 -89 -94 -134h286q24 0 24 -20q0 -22 -13 -78q-4 -21 -28 -21z" />
    <glyph glyph-name="currency" unicode="&#xa4;" horiz-adv-x="548" 
d="M496 114q-10 -11 -21 -11q-12 0 -21 10l-48 49q-47 -32 -115 -32q-67 0 -115 31l-46 -47q-11 -12 -22 -12q-10 0 -21 11l-10 10q-10 12 -10 21q0 10 10 22l49 50q-35 50 -35 116q0 65 35 115l-49 49q-10 12 -10 21q0 12 11 23l9 8q11 11 20 11q10 0 21 -11l49 -49
q48 36 114 36q69 0 114 -35l49 48q13 11 21 11q9 0 20 -11l8 -8q10 -10 10 -22q0 -9 -10 -21l-47 -49q34 -48 34 -116q0 -67 -34 -116l49 -50q9 -11 9 -21t-10 -22zM414 332q0 59 -34.5 93.5t-88.5 34.5q-53 0 -88.5 -35t-35.5 -92q0 -59 35 -94.5t89 -35.5q53 0 88 35.5
t35 93.5z" />
    <glyph glyph-name="yen" unicode="&#xa5;" horiz-adv-x="652" 
d="M539 323h-113l-34 -42l-6 -27h138q19 0 19 -15q0 -10 -6 -32q-4 -20 -26 -20h-140l-34 -161q-6 -27 -31 -27h-81q-21 0 -21 19q0 12 3 24l30 145h-137q-18 0 -18 15t5 33q7 19 27 19h138l5 24l-18 45h-110q-19 0 -19 16q0 12 6 32q7 20 27 20h70l-90 230q-8 18 -8 31
q0 11 7 17.5t18 6.5h90q24 0 33 -25q53 -135 84 -241l188 239q13 16 22 21.5t23 5.5h94q19 0 19 -18q0 -10 -18 -32l-193 -235h70q18 0 18 -15q0 -7 -6 -34q-4 -19 -25 -19z" />
    <glyph glyph-name="brokenbar" unicode="&#xa6;" horiz-adv-x="264" 
d="M227 439q-6 -28 -30 -28h-57q-21 0 -21 18q0 2 4 22l50 239q6 28 31 28h58q19 0 19 -18q0 -7 -3 -22zM135 10q-6 -28 -30 -28h-57q-21 0 -21 17q0 2 4 22l50 239q6 29 31 29h58q19 0 19 -19q0 -7 -3 -22z" />
    <glyph glyph-name="section" unicode="&#xa7;" horiz-adv-x="529" 
d="M379 126q42 -32 42 -93q0 -94 -61 -144t-178 -50q-97 0 -163 28q-21 10 -21 27q0 24 18 68q7 14 25 14q2 0 28 -7q58 -20 129 -20q88 0 88 62q0 19 -13 32.5t-52 35.5l-61 35q-59 33 -84.5 66.5t-25.5 77.5q0 64 37 105.5t95 50.5q-39 28 -39 88q0 86 52.5 137.5
t163.5 52.5q87 0 140 -21q20 -7 20 -29q0 -26 -16 -65q-7 -16 -25 -16q-2 0 -28 7q-47 14 -103 14q-77 0 -77 -60q0 -33 62 -69l52 -31q66 -38 92 -70t26 -73q0 -63 -32.5 -101.5t-90.5 -51.5zM375 246q0 32 -35 53q-42 28 -79 49q-10 5 -23 5q-10 0 -20 -3
q-20 -6 -34.5 -22t-14.5 -41q0 -27 40 -52q39 -26 84 -49q10 -5 20 -5t20 5q17 8 29.5 24.5t12.5 35.5z" />
    <glyph glyph-name="dieresis" unicode="&#xa8;" horiz-adv-x="197" 
d="M67 674q0 -44 -22 -65q-19 -17 -50 -17q-54 0 -54 49q0 40 20 61t51 21q55 0 55 -49zM255 674q0 -44 -22 -65q-19 -17 -49 -17q-55 0 -55 49q0 41 20 61q20 21 52 21q54 0 54 -49z" />
    <glyph glyph-name="copyright" unicode="&#xa9;" horiz-adv-x="830" 
d="M789 345q0 -155 -98 -257t-257 -102t-257 102t-98 257t98 257.5t256 102.5q163 0 259.5 -101.5t96.5 -258.5zM747 345q0 139 -86 229.5t-228 90.5q-140 0 -225 -91t-85 -229t85 -228.5t226 -90.5t227 90.5t86 228.5zM336 291q0 -85 89 -85q45 0 81 10q13 4 24 4t14 -12
q6 -28 6 -44t-19 -22q-57 -20 -139 -20q-74 1 -116.5 41.5t-42.5 119.5q0 150 80 227q57 57 168 57q60 0 93 -11q15 -4 15 -20q0 -20 -13 -52q-4 -9 -16 -9q-3 0 -12 2t-12 2q-30 5 -57 5q-63 0 -93 -31q-50 -53 -50 -162z" />
    <glyph glyph-name="ordfeminine" unicode="&#xaa;" horiz-adv-x="379" 
d="M340 285q-2 -13 -6.5 -17.5t-15.5 -4.5h-52q-17 0 -18 12q0 1 0.5 5.5t0.5 5.5q-32 -29 -90 -29q-46 0 -71.5 24t-25.5 71q0 50 19 105t55 84q40 31 111 31q46 0 63 -17q6 16 21 16h50q18 0 18 -15q0 -6 -4 -22zM262 362l29 131q-14 7 -38 7q-38 0 -57 -20
q-35 -37 -35 -103q0 -25 10 -36t32 -11q24 0 45 12q7 5 8 8q5 7 6 12z" />
    <glyph glyph-name="guillemotleft" unicode="&#xab;" horiz-adv-x="535" 
d="M164 262l87 -160q7 -14 7 -20t-5.5 -11t-15.5 -5h-64q-19 0 -32 21l-92 157q-8 14 -8 23q0 13 16 29l151 147q23 23 43 23h73q14 0 14 -13q0 -8 -17 -27zM381 262l86 -160q7 -14 7 -20q0 -16 -20 -16h-65q-19 0 -32 21l-92 157q-7 12 -7 23q0 13 16 29l150 147
q23 23 44 23h72q15 0 15 -13q0 -8 -17 -27z" />
    <glyph glyph-name="logicalnot" unicode="&#xac;" horiz-adv-x="701" 
d="M577 63q-6 -28 -34 -28h-31q-28 0 -28 25q0 6 2 14l37 175h-397q-28 0 -28 25q0 8 6 38q8 29 33 29h461q28 0 28 -26q0 -8 -3 -20z" />
    <glyph glyph-name="uni00AD" unicode="&#xad;" horiz-adv-x="342" 
d="M274 214h-210q-22 0 -22 18q0 12 13 68q6 24 32 24h208q24 0 24 -18q0 -9 -15 -69q-6 -23 -30 -23z" />
    <glyph glyph-name="registered" unicode="&#xae;" horiz-adv-x="830" 
d="M789 345q0 -155 -98 -257t-257 -102t-257 102t-98 257t98 257.5t256 102.5q163 0 259.5 -101.5t96.5 -258.5zM747 345q0 139 -86 229.5t-228 90.5q-140 0 -225 -91t-85 -229t85 -228.5t226 -90.5t227 90.5t86 228.5zM339 157q-5 -21 -26 -21h-49q-18 0 -18 17q0 5 4 25
l79 367q5 27 29 27h97q85 0 119 -18q47 -24 47 -88q0 -108 -94 -145l53 -146q5 -13 5 -22q0 -17 -21 -17h-54q-18 0 -23 17l-48 152h-37h-31zM386 380h37q45 0 62 6q41 13 41 60q0 33 -22 41q-19 7 -57 7h-35z" />
    <glyph glyph-name="macron" unicode="&#xaf;" horiz-adv-x="197" 
d="M201 599h-224q-22 0 -22 19q0 16 9 52q8 25 32 25h222q24 0 24 -19q0 -17 -10 -54q-4 -14 -10.5 -18.5t-20.5 -4.5z" />
    <glyph glyph-name="degree" unicode="&#xb0;" horiz-adv-x="336" 
d="M375 588q0 -69 -39.5 -110t-108.5 -41q-58 0 -92.5 33t-34.5 93q0 68 40 108.5t109 40.5q59 0 92.5 -32t33.5 -92zM321 583q0 82 -78 82q-41 0 -65.5 -25.5t-24.5 -76.5q0 -38 21.5 -59t58.5 -21q40 0 64 26t24 74z" />
    <glyph glyph-name="plusminus" unicode="&#xb1;" horiz-adv-x="701" 
d="M385 180q-5 -29 -33 -29h-31q-27 0 -27 25q0 6 2 18l35 167h-181q-28 0 -28 25q0 12 6 37q6 28 33 28h186l37 179q6 28 32 28h33q28 0 28 -26q0 -7 -2 -17l-34 -164h179q29 0 29 -25q0 -8 -6 -37q-4 -28 -33 -28h-187zM552 0h-462q-28 0 -28 25q0 7 6 37q6 29 32 29h464
q28 0 28 -26q0 -8 -6 -37q-5 -28 -34 -28z" />
    <glyph glyph-name="twosuperior" unicode="&#xb2;" 
d="M371 420h-276q-15 0 -15 13q0 6 8 42q3 12 17 21q100 64 172 120q53 40 53 97q0 27 -14.5 38.5t-49.5 11.5q-32 0 -61 -6q-18 -4 -23 -4q-10 0 -13 10q-7 34 -7 43q0 14 20 19q56 15 118 15q131 0 131 -102q0 -87 -66 -142q-67 -58 -142 -99q38 1 163 1q15 0 15 -13
q0 -14 -9 -50q-4 -15 -21 -15z" />
    <glyph glyph-name="threesuperior" unicode="&#xb3;" 
d="M327 637q73 -7 73 -78q0 -77 -44 -111q-45 -36 -151 -36q-66 0 -99 12q-13 5 -13 16q0 15 13 47q4 11 16 11q7 0 23 -4q33 -6 70 -6q54 0 73 18q17 17 17 51q0 19 -16 28t-55 9h-15q-16 0 -16 14q0 16 8 45q5 18 22 18h17q42 0 59 13q18 13 18 45q0 20 -13 27t-48 7
q-34 0 -56 -5q-18 -4 -24 -4q-9 0 -11 10q-6 36 -6 43q0 14 21 20q54 13 107 13q70 0 97.5 -22.5t27.5 -63.5q0 -50 -21.5 -78t-73.5 -39z" />
    <glyph glyph-name="acute" unicode="&#xb4;" horiz-adv-x="197" 
d="M83 598q-18 -18 -41 -18h-49q-24 0 -24 18q0 11 10 23l107 117q19 22 39 22h79q25 0 25 -19q0 -10 -13 -23z" />
    <glyph glyph-name="mu" unicode="&#xb5;" horiz-adv-x="583" 
d="M157 14l-40 -190q-7 -28 -30 -28h-85q-21 0 -21 18q0 4 3 19l136 637q7 28 29 28h86q20 0 20 -19q0 -3 -3 -18l-59 -277q-6 -25 -6 -44q0 -36 60 -36q50 0 86 14q18 9 23 15q8 8 13 29l66 308q7 28 31 28h84q20 0 20 -20q0 -10 -2 -18l-93 -428q-6 -33 -35 -33h-73
q-25 0 -25 20q0 10 2 18q-43 -39 -124 -39q-48 0 -63 16z" />
    <glyph glyph-name="paragraph" unicode="&#xb6;" horiz-adv-x="576" 
d="M245 -108q-5 -20 -20 -20h-21q-15 0 -15 12q0 4 2 14l72 334q-97 0 -141 44t-44 118q0 80 32 150t94 111q76 51 214 51h132q27 0 27 -20q0 -5 -3 -23l-165 -770q-2 -8 -3.5 -11.5t-5 -6.5t-10.5 -3h-22q-14 0 -14 13q0 5 2 13l160 753h-110z" />
    <glyph glyph-name="periodcentered" unicode="&#xb7;" horiz-adv-x="244" 
d="M206 290q0 -54 -29 -80q-22 -22 -62 -22q-69 0 -69 64q0 45 26 74q25 26 65 26q69 0 69 -62z" />
    <glyph glyph-name="cedilla" unicode="&#xb8;" horiz-adv-x="197" 
d="M131 -51q79 -4 79 -80q0 -68 -38 -94.5t-114 -26.5q-30 0 -53 5q-18 6 -18 23q0 13 7 34q7 19 27 19q7 0 21 -2q14 -3 31 -3q22 0 29.5 7t7.5 26q0 22 -25 22q-4 0 -13 -0.5t-11 -0.5q-20 1 -20 22q0 4 9 31l27 79h73z" />
    <glyph glyph-name="onesuperior" unicode="&#xb9;" 
d="M269 742l-49 -19q-8 -4 -15 -4q-6 0 -10 9q-14 35 -14 46q0 9 12 15l96 38q12 5 27 5h47q15 0 15 -14q0 -7 -2 -15l-82 -365q-5 -19 -22 -19h-56q-16 0 -16 15q0 3 2 13z" />
    <glyph glyph-name="ordmasculine" unicode="&#xba;" horiz-adv-x="372" 
d="M384 477q0 -41 -14 -92.5t-41 -82.5q-40 -46 -129 -46q-64 0 -101 22t-37 83q0 45 15 93.5t46 79.5q41 42 119 42q68 0 105 -19.5t37 -79.5zM286 458q0 23 -12 31.5t-37 8.5q-31 0 -47 -23q-13 -19 -21.5 -50t-8.5 -49q0 -24 11.5 -33t35.5 -9q34 0 51 22q12 16 20 49
t8 53z" />
    <glyph glyph-name="guillemotright" unicode="&#xbb;" horiz-adv-x="535" 
d="M385 270l-87 160q-7 14 -7 21q0 15 20 15h65q19 0 32 -21l92 -157q8 -14 8 -23q0 -12 -16 -28l-151 -148q-23 -23 -43 -23h-73q-14 0 -14 14q0 8 17 27zM168 270l-86 160q-7 12 -7 21q0 15 20 15h65q18 0 31 -21l92 -157q8 -14 8 -23q0 -12 -16 -28l-150 -148
q-23 -23 -44 -23h-72q-15 0 -15 14q0 8 17 27z" />
    <glyph glyph-name="onequarter" unicode="&#xbc;" horiz-adv-x="871" 
d="M231 -14q-12 -18 -27 -18h-27q-14 0 -14 12q0 7 10 20l448 689q13 22 29 22h30q13 0 13 -11q0 -7 -12 -26zM234 586l-49 -19q-8 -4 -15 -4q-6 0 -10 9q-14 35 -14 46t12 15l96 38q12 5 27 5h47q15 0 15 -14q0 -7 -2 -15l-82 -365q-5 -19 -22 -19h-56q-16 0 -16 15
q0 3 2 13zM691 17q-4 -18 -21 -18h-55q-15 0 -15 14q0 6 2 14l16 63h-177q-17 0 -17 14t7 44q3 12 15 27l188 221q13 16 32 16h60q12 0 12 -9q0 -7 -9 -18l-188 -218h93l17 66q5 20 20 20h55q15 0 15 -12q0 -6 -3 -18l-14 -56h37q17 0 17 -12q0 -8 -13 -52q-3 -13 -19 -13
h-38z" />
    <glyph glyph-name="onehalf" unicode="&#xbd;" horiz-adv-x="871" 
d="M216 -14q-12 -18 -27 -18h-27q-14 0 -14 12q0 7 10 20l448 689q13 22 29 22h30q13 0 13 -11q0 -7 -12 -26zM229 586l-49 -19q-8 -4 -15 -4q-6 0 -10 9q-14 35 -14 46t12 15l96 38q12 5 27 5h47q15 0 15 -14q0 -7 -2 -15l-82 -365q-5 -19 -22 -19h-56q-16 0 -16 15
q0 3 2 13zM731 0h-276q-15 0 -15 13q0 6 8 42q3 12 17 21q100 64 172 120q53 40 53 97q0 27 -14.5 38.5t-49.5 11.5q-32 0 -61 -6q-18 -4 -23 -4q-10 0 -13 10q-7 34 -7 43q0 14 20 19q56 15 118 15q131 0 131 -102q0 -87 -66 -142q-67 -58 -142 -99q38 1 163 1q15 0 15 -13
q0 -14 -9 -50q-4 -15 -21 -15z" />
    <glyph glyph-name="threequarters" unicode="&#xbe;" horiz-adv-x="871" 
d="M289 -14q-12 -18 -27 -18h-27q-14 0 -14 12q0 7 10 20l448 689q13 22 29 22h30q13 0 13 -11q0 -7 -12 -26zM320 481q73 -7 73 -78q0 -77 -44 -111q-45 -36 -151 -36q-66 0 -99 12q-13 5 -13 16q0 15 13 47q4 11 16 11q7 0 23 -4q33 -6 70 -6q54 0 73 18q17 17 17 51
q0 19 -16 28t-55 9h-15q-16 0 -16 14q0 16 8 45q4 18 22 18h17q42 0 59 13q18 13 18 45q0 20 -13 27t-48 7q-33 0 -56 -5q-18 -4 -24 -4q-9 0 -11 10q-6 36 -6 43q0 14 21 20q54 13 107 13q70 0 97.5 -22.5t27.5 -63.5q0 -50 -21.5 -78t-73.5 -39zM738 17q-4 -18 -21 -18
h-55q-15 0 -15 14q0 6 2 14l16 63h-177q-17 0 -17 14t7 44q3 12 15 27l188 221q13 16 32 16h60q12 0 12 -9q0 -7 -9 -18l-188 -218h93l17 66q5 20 20 20h55q15 0 15 -12q0 -6 -3 -18l-14 -56h37q17 0 17 -12q0 -8 -13 -52q-3 -13 -19 -13h-38z" />
    <glyph glyph-name="questiondown" unicode="&#xbf;" horiz-adv-x="451" 
d="M232 256h46q29 0 29 -22q0 -23 -6 -47q-7 -35 -22.5 -57.5t-51.5 -46.5q-60 -40 -84.5 -66t-24.5 -65q0 -31 17 -45.5t59 -14.5t82 9q24 4 28 4q19 0 25 -24q8 -32 8 -47q0 -30 -34 -38q-73 -19 -149 -19q-185 0 -185 130q0 77 33 123.5t109 88.5q37 21 54 37t26 43l7 20
q4 15 7 22q7 15 27 15zM204 408q0 54 29 80q22 22 62 22q69 0 69 -64q0 -45 -26 -74q-25 -26 -65 -26q-69 0 -69 62z" />
    <glyph glyph-name="Agrave" unicode="&#xc0;" horiz-adv-x="640" 
d="M120 32q-10 -18 -18.5 -25.5t-23.5 -7.5h-91q-24 0 -24 21q0 7 12 29l359 631q15 27 42 27h87q29 0 33 -30l89 -625q3 -16 3 -28q0 -25 -32 -25h-78q-16 0 -22.5 7.5t-8.5 26.5l-19 153h-222zM393 540q-47 -92 -128 -237h153q-17 138 -25 237zM386 772l-134 101
q-15 11 -15 24q0 18 24 18h86q26 0 46 -19l102 -97q13 -13 13 -24q0 -16 -20 -16h-57q-20 0 -45 13z" />
    <glyph glyph-name="Aacute" unicode="&#xc1;" horiz-adv-x="640" 
d="M120 32q-10 -18 -18.5 -25.5t-23.5 -7.5h-91q-24 0 -24 21q0 7 12 29l359 631q15 27 42 27h87q29 0 33 -30l89 -625q3 -16 3 -28q0 -25 -32 -25h-78q-16 0 -22.5 7.5t-8.5 26.5l-19 153h-222zM393 540q-47 -92 -128 -237h153q-17 138 -25 237zM444 763q-23 -13 -45 -13
h-59q-20 0 -20 15q0 14 13 25l128 98q23 18 45 18h93q23 0 23 -16q0 -18 -14 -26z" />
    <glyph glyph-name="Acircumflex" unicode="&#xc2;" horiz-adv-x="640" 
d="M120 32q-10 -18 -18.5 -25.5t-23.5 -7.5h-91q-24 0 -24 21q0 7 12 29l359 631q15 27 42 27h87q29 0 33 -30l89 -625q3 -16 3 -28q0 -25 -32 -25h-78q-16 0 -22.5 7.5t-8.5 26.5l-19 153h-222zM393 540q-47 -92 -128 -237h153q-17 138 -25 237zM314 759h-49q-23 0 -23 19
q0 10 13 21l115 100q29 27 53 27h54q23 0 41 -23l79 -103q7 -10 7 -20q0 -21 -30 -21h-40q-21 0 -40 19l-56 58l-80 -59q-24 -18 -44 -18z" />
    <glyph glyph-name="Atilde" unicode="&#xc3;" horiz-adv-x="640" 
d="M120 32q-10 -18 -18.5 -25.5t-23.5 -7.5h-91q-24 0 -24 21q0 7 12 29l359 631q15 27 42 27h87q29 0 33 -30l89 -625q3 -16 3 -28q0 -25 -32 -25h-78q-16 0 -22.5 7.5t-8.5 26.5l-19 153h-222zM393 540q-47 -92 -128 -237h153q-17 138 -25 237zM300 759h-31q-24 0 -24 20
q0 10 9 31q42 96 109 96q26 0 70 -26q35 -19 55 -19q21 0 38 29q12 20 35 20h27q24 0 24 -19q0 -15 -13 -39q-43 -88 -103 -88q-37 0 -79 25q-29 17 -46 17q-23 0 -38 -26q-14 -21 -33 -21z" />
    <glyph glyph-name="Adieresis" unicode="&#xc4;" horiz-adv-x="640" 
d="M120 32q-10 -18 -18.5 -25.5t-23.5 -7.5h-91q-24 0 -24 21q0 7 12 29l359 631q15 27 42 27h87q29 0 33 -30l89 -625q3 -16 3 -28q0 -25 -32 -25h-78q-16 0 -22.5 7.5t-8.5 26.5l-19 153h-222zM393 540q-47 -92 -128 -237h153q-17 138 -25 237zM391 847q0 -44 -21 -65
q-20 -18 -50 -18q-54 0 -54 49q0 42 19 62t52 20q54 0 54 -48zM587 847q0 -44 -21 -65q-20 -18 -50 -18q-55 0 -55 49q0 41 20 62q19 20 52 20q54 0 54 -48z" />
    <glyph glyph-name="Aring" unicode="&#xc5;" horiz-adv-x="640" 
d="M120 32q-10 -18 -18.5 -25.5t-23.5 -7.5h-91q-24 0 -24 21q0 7 12 29l359 631q15 27 42 27h87q29 0 33 -30l89 -625q3 -16 3 -28q0 -25 -32 -25h-78q-16 0 -22.5 7.5t-8.5 26.5l-19 153h-222zM393 540q-47 -92 -128 -237h153q-17 138 -25 237zM526 840q0 -48 -27 -76
t-76 -28q-40 0 -62.5 22t-22.5 63q0 48 27.5 76.5t74.5 28.5q40 0 63 -22.5t23 -63.5zM484 839q0 48 -48 48q-25 0 -41.5 -17t-16.5 -44q0 -52 50 -52q26 0 41 17t15 48z" />
    <glyph glyph-name="AE" unicode="&#xc6;" horiz-adv-x="977" 
d="M275 189l-131 -158q-27 -32 -49 -32h-102q-23 0 -23 18q0 11 17 31l520 631q22 27 54 27h432q14 0 19 -4.5t5 -16.5q0 -18 -14 -77q-6 -23 -33 -23h-249l-35 -159h231q26 0 26 -19q0 -15 -15 -79q-4 -23 -33 -23h-234l-40 -184h278q27 0 27 -18q0 -10 -15 -80
q-6 -23 -33 -23h-393q-22 0 -22 20q0 8 3 21l31 148h-222zM362 306h160l58 271q-50 -69 -218 -271z" />
    <glyph glyph-name="Ccedilla" unicode="&#xc7;" horiz-adv-x="582" 
d="M304 -54q83 -4 83 -84q0 -70 -39.5 -97.5t-118.5 -27.5q-37 0 -55 5q-19 4 -19 24q0 14 7 35q9 21 28 21q1 0 22 -3q14 -3 32 -3q23 0 31 7.5t8 26.5q0 23 -26 23q-4 0 -13.5 -0.5t-11.5 -0.5q-21 1 -21 24q0 3 9 32l21 62q-186 22 -186 236q0 96 33 210.5t94 184.5
q85 99 264 99q91 0 150 -16q20 -5 20 -26q0 -24 -21 -75q-6 -13 -21 -13q-11 0 -34 5q-45 8 -106 8q-94 0 -144 -54q-44 -47 -67.5 -136.5t-23.5 -168.5q0 -72 33 -105.5t104 -33.5q73 0 133 14q23 6 32 6q14 0 18 -14q13 -41 13 -64q0 -22 -27 -31q-76 -26 -188 -29z" />
    <glyph glyph-name="Egrave" unicode="&#xc8;" horiz-adv-x="554" 
d="M452 0h-391q-23 0 -23 19q0 8 3 23l135 632q7 32 35 32h360q23 0 23 -17q0 -7 -16 -82q-4 -22 -33 -22h-249l-35 -159h232q24 0 24 -20q0 -18 -14 -78q-6 -23 -32 -23h-234l-40 -184h280q24 0 24 -19q0 -15 -15 -79q-6 -23 -34 -23zM352 772l-134 101q-15 11 -15 24
q0 18 24 18h86q26 0 46 -19l102 -97q13 -13 13 -24q0 -16 -20 -16h-57q-20 0 -45 13z" />
    <glyph glyph-name="Eacute" unicode="&#xc9;" horiz-adv-x="554" 
d="M417 0h-391q-23 0 -23 19q0 8 3 23l135 632q7 32 35 32h360q23 0 23 -17q0 -7 -16 -82q-4 -22 -33 -22h-249l-35 -159h232q24 0 24 -20q0 -18 -14 -78q-6 -23 -32 -23h-234l-40 -184h280q24 0 24 -19q0 -15 -15 -79q-6 -23 -34 -23zM387 763q-23 -13 -45 -13h-59
q-20 0 -20 15q0 14 13 25l128 98q22 18 45 18h93q23 0 23 -16q0 -18 -14 -26z" />
    <glyph glyph-name="Ecircumflex" unicode="&#xca;" horiz-adv-x="554" 
d="M452 0h-391q-23 0 -23 19q0 8 3 23l135 632q7 32 35 32h360q23 0 23 -17q0 -7 -16 -82q-4 -22 -33 -22h-249l-35 -159h232q24 0 24 -20q0 -18 -14 -78q-6 -23 -32 -23h-234l-40 -184h280q24 0 24 -19q0 -15 -15 -79q-6 -23 -34 -23zM289 759h-49q-23 0 -23 19q0 10 13 21
l115 100q29 27 53 27h54q23 0 41 -23l79 -103q7 -10 7 -20q0 -21 -30 -21h-40q-21 0 -40 19l-56 58l-80 -59q-24 -18 -44 -18z" />
    <glyph glyph-name="Edieresis" unicode="&#xcb;" horiz-adv-x="554" 
d="M452 0h-391q-23 0 -23 19q0 8 3 23l135 632q7 32 35 32h360q23 0 23 -17q0 -7 -16 -82q-4 -22 -33 -22h-249l-35 -159h232q24 0 24 -20q0 -18 -14 -78q-6 -23 -32 -23h-234l-40 -184h280q24 0 24 -19q0 -15 -15 -79q-6 -23 -34 -23zM367 847q0 -44 -21 -65
q-20 -18 -50 -18q-54 0 -54 49q0 42 19 62t52 20q54 0 54 -48zM563 847q0 -44 -21 -65q-20 -18 -50 -18q-55 0 -55 49q0 41 20 62q19 20 52 20q54 0 54 -48z" />
    <glyph glyph-name="Igrave" unicode="&#xcc;" horiz-adv-x="306" 
d="M176 27q-6 -28 -32 -28h-85q-21 0 -21 20q0 9 2 19l137 639q7 30 32 30h85q23 0 23 -19q0 -7 -4 -29zM227 772l-134 101q-15 11 -15 24q0 18 24 18h86q26 0 46 -19l102 -97q13 -13 13 -24q0 -16 -20 -16h-57q-20 0 -45 13z" />
    <glyph glyph-name="Iacute" unicode="&#xcd;" horiz-adv-x="306" 
d="M176 27q-6 -28 -32 -28h-85q-21 0 -21 20q0 9 2 19l137 639q7 30 32 30h85q23 0 23 -19q0 -7 -4 -29zM279 772q-23 -13 -45 -13h-59q-20 0 -20 15q0 14 13 25l128 98q22 18 45 18h93q23 0 23 -16q0 -18 -14 -26z" />
    <glyph glyph-name="Icircumflex" unicode="&#xce;" horiz-adv-x="306" 
d="M176 27q-6 -28 -32 -28h-85q-21 0 -21 20q0 9 2 19l137 639q7 30 32 30h85q23 0 23 -19q0 -7 -4 -29zM150 759h-49q-23 0 -23 19q0 10 13 21l115 100q29 27 53 27h54q23 0 41 -23l79 -103q7 -10 7 -20q0 -21 -30 -21h-40q-21 0 -40 19l-56 58l-80 -59q-24 -18 -44 -18z
" />
    <glyph glyph-name="Idieresis" unicode="&#xcf;" horiz-adv-x="306" 
d="M176 27q-6 -28 -32 -28h-85q-21 0 -21 20q0 9 2 19l137 639q7 30 32 30h85q23 0 23 -19q0 -7 -4 -29zM232 847q0 -44 -21 -65q-20 -18 -50 -18q-54 0 -54 49q0 42 19 62t52 20q54 0 54 -48zM428 847q0 -44 -21 -65q-19 -18 -50 -18q-55 0 -55 49q0 41 20 62q19 20 52 20
q54 0 54 -48z" />
    <glyph glyph-name="Eth" unicode="&#xd0;" horiz-adv-x="683" 
d="M215 0h-154q-23 0 -23 21q0 7 3 22l57 270h-48q-22 0 -22 19q0 14 11 60q6 24 30 24h51l56 260q6 30 34 30h154q120 0 191 -22q120 -38 120 -205q0 -73 -11.5 -139t-38 -131t-76.5 -114t-119 -71q-75 -24 -215 -24zM196 121h60q92 0 138 21q38 17 66 54.5t42 84.5
t20.5 91t6.5 85q0 84 -54 111q-37 17 -123 17h-57l-36 -169h120q22 0 22 -18q0 -11 -13 -64q-3 -13 -9.5 -17t-21.5 -4h-120z" />
    <glyph glyph-name="Ntilde" unicode="&#xd1;" horiz-adv-x="701" 
d="M172 27q-6 -28 -32 -28h-81q-21 0 -21 21q0 9 3 20l135 637q7 30 34 30h71q22 0 30 -20q108 -248 176 -427q29 153 89 416q7 31 32 31h83q21 0 21 -19q0 -8 -2 -18l-137 -641q-6 -30 -34 -30h-61q-27 0 -37 23q-134 319 -176 433q-6 -31 -93 -428zM346 759h-31
q-24 0 -24 20q0 10 9 31q42 96 109 96q26 0 70 -26q35 -19 55 -19q21 0 38 29q12 20 35 20h27q24 0 24 -19q0 -15 -13 -39q-43 -88 -103 -88q-37 0 -79 25q-29 17 -46 17q-23 0 -38 -26q-14 -21 -33 -21z" />
    <glyph glyph-name="Ograve" unicode="&#xd2;" horiz-adv-x="697" 
d="M689 507q0 -101 -33.5 -231.5t-96.5 -199.5q-81 -89 -240 -89q-124 0 -193 48.5t-69 175.5q0 106 34 227t98 191q84 91 235 91q62 0 105 -8t82 -29.5t58.5 -65.5t19.5 -110zM544 484q0 69 -29.5 94t-99.5 25q-82 0 -126 -53q-40 -49 -63.5 -147.5t-23.5 -171.5t30 -100.5
t98 -27.5q47 0 77.5 12.5t55.5 49.5q35 52 58 154t23 165zM416 772l-134 101q-15 11 -15 24q0 18 24 18h86q26 0 46 -19l102 -97q13 -13 13 -24q0 -16 -20 -16h-57q-20 0 -45 13z" />
    <glyph glyph-name="Oacute" unicode="&#xd3;" horiz-adv-x="697" 
d="M689 507q0 -101 -33.5 -231.5t-96.5 -199.5q-81 -89 -240 -89q-124 0 -193 48.5t-69 175.5q0 106 34 227t98 191q84 91 235 91q62 0 105 -8t82 -29.5t58.5 -65.5t19.5 -110zM544 484q0 69 -29.5 94t-99.5 25q-82 0 -126 -53q-40 -49 -63.5 -147.5t-23.5 -171.5t30 -100.5
t98 -27.5q47 0 77.5 12.5t55.5 49.5q35 52 58 154t23 165zM478 772q-23 -13 -45 -13h-59q-20 0 -20 15q0 14 13 25l128 98q23 18 45 18h93q23 0 23 -16q0 -18 -14 -26z" />
    <glyph glyph-name="Ocircumflex" unicode="&#xd4;" horiz-adv-x="697" 
d="M689 507q0 -101 -33.5 -231.5t-96.5 -199.5q-81 -89 -240 -89q-124 0 -193 48.5t-69 175.5q0 106 34 227t98 191q84 91 235 91q62 0 105 -8t82 -29.5t58.5 -65.5t19.5 -110zM544 484q0 69 -29.5 94t-99.5 25q-82 0 -126 -53q-40 -49 -63.5 -147.5t-23.5 -171.5t30 -100.5
t98 -27.5q47 0 77.5 12.5t55.5 49.5q35 52 58 154t23 165zM349 759h-49q-23 0 -23 19q0 10 13 21l115 100q29 27 53 27h54q23 0 41 -23l79 -103q7 -10 7 -20q0 -21 -30 -21h-40q-21 0 -40 19l-56 58l-80 -59q-24 -18 -44 -18z" />
    <glyph glyph-name="Otilde" unicode="&#xd5;" horiz-adv-x="697" 
d="M689 507q0 -101 -33.5 -231.5t-96.5 -199.5q-81 -89 -240 -89q-124 0 -193 48.5t-69 175.5q0 106 34 227t98 191q84 91 235 91q62 0 105 -8t82 -29.5t58.5 -65.5t19.5 -110zM544 484q0 69 -29.5 94t-99.5 25q-82 0 -126 -53q-40 -49 -63.5 -147.5t-23.5 -171.5t30 -100.5
t98 -27.5q47 0 77.5 12.5t55.5 49.5q35 52 58 154t23 165zM342 759h-31q-24 0 -24 20q0 10 9 31q42 96 109 96q26 0 70 -26q35 -19 55 -19q21 0 38 29q12 20 35 20h27q24 0 24 -19q0 -15 -13 -39q-43 -88 -103 -88q-37 0 -79 25q-29 17 -46 17q-23 0 -38 -26
q-14 -21 -33 -21z" />
    <glyph glyph-name="Odieresis" unicode="&#xd6;" horiz-adv-x="697" 
d="M689 507q0 -101 -33.5 -231.5t-96.5 -199.5q-81 -89 -240 -89q-124 0 -193 48.5t-69 175.5q0 106 34 227t98 191q84 91 235 91q62 0 105 -8t82 -29.5t58.5 -65.5t19.5 -110zM544 484q0 69 -29.5 94t-99.5 25q-82 0 -126 -53q-40 -49 -63.5 -147.5t-23.5 -171.5t30 -100.5
t98 -27.5q47 0 77.5 12.5t55.5 49.5q35 52 58 154t23 165zM429 847q0 -44 -21 -65q-20 -18 -50 -18q-54 0 -54 49q0 42 19 62t52 20q54 0 54 -48zM625 847q0 -44 -21 -65q-20 -18 -50 -18q-55 0 -55 49q0 41 20 62q19 20 52 20q54 0 54 -48z" />
    <glyph glyph-name="multiply" unicode="&#xd7;" horiz-adv-x="701" 
d="M562 160q10 -10 10 -22q0 -11 -11 -22l-26 -26q-11 -10 -22 -10q-10 0 -21 11l-126 137l-155 -140q-9 -9 -21 -9q-10 0 -21 12l-19 22q-10 10 -10 21t13 24l155 139l-128 138q-10 10 -10 21q0 13 12 23l27 25q10 10 21 10q12 0 22 -11l126 -139l158 142q10 9 20 9
q13 0 22 -12l19 -23q8 -10 8 -20q0 -12 -11 -23l-159 -141z" />
    <glyph glyph-name="Oslash" unicode="&#xd8;" horiz-adv-x="697" 
d="M88 -15q-8 -8 -16 -8q-7 0 -32 22q-6 6 -6 12q0 7 9 16l41 48q-33 52 -33 136q0 107 33.5 227.5t98.5 190.5q82 89 235 89q124 0 184 -35l39 46q7 8 15 8q5 0 12 -5q24 -18 24 -27q0 -7 -7 -16l-39 -46q37 -50 37 -136q0 -101 -33.5 -231.5t-96.5 -199.5
q-81 -89 -241 -89q-123 0 -186 43zM538 485q0 11 -2 29l-319 -377q27 -36 106 -36q48 0 78.5 12.5t55.5 49.5q35 52 58 155.5t23 166.5zM195 228v-22l316 370q-28 28 -103 28q-81 0 -125 -53q-40 -49 -64 -149.5t-24 -173.5z" />
    <glyph glyph-name="Ugrave" unicode="&#xd9;" horiz-adv-x="691" 
d="M621 282q-18 -88 -31.5 -131.5t-36.5 -73.5q-37 -47 -98 -68.5t-160 -21.5q-230 0 -230 153q0 50 19 140l86 399q6 28 29 28h91q20 0 20 -18q0 -9 -3 -21l-89 -410q-10 -45 -10 -80q0 -74 112 -74q84 0 117 35q27 27 45 109l91 431q6 28 31 28h83q20 0 20 -18
q0 -8 -3 -20zM415 772l-134 101q-15 11 -15 24q0 18 24 18h86q26 0 46 -19l102 -97q13 -13 13 -24q0 -16 -20 -16h-57q-20 0 -45 13z" />
    <glyph glyph-name="Uacute" unicode="&#xda;" horiz-adv-x="691" 
d="M621 282q-18 -88 -31.5 -131.5t-36.5 -73.5q-37 -47 -98 -68.5t-160 -21.5q-230 0 -230 153q0 50 19 140l86 399q6 28 29 28h91q20 0 20 -18q0 -9 -3 -21l-89 -410q-10 -45 -10 -80q0 -74 112 -74q84 0 117 35q27 27 45 109l91 431q6 28 31 28h83q20 0 20 -18
q0 -8 -3 -20zM469 772q-23 -13 -45 -13h-59q-20 0 -20 15q0 14 13 25l128 98q22 18 45 18h93q23 0 23 -16q0 -18 -14 -26z" />
    <glyph glyph-name="Ucircumflex" unicode="&#xdb;" horiz-adv-x="691" 
d="M621 282q-18 -88 -31.5 -131.5t-36.5 -73.5q-37 -47 -98 -68.5t-160 -21.5q-230 0 -230 153q0 50 19 140l86 399q6 28 29 28h91q20 0 20 -18q0 -9 -3 -21l-89 -410q-10 -45 -10 -80q0 -74 112 -74q84 0 117 35q27 27 45 109l91 431q6 28 31 28h83q20 0 20 -18
q0 -8 -3 -20zM337 759h-49q-23 0 -23 19q0 10 13 21l115 100q29 27 53 27h54q23 0 41 -23l79 -103q7 -10 7 -20q0 -21 -30 -21h-40q-21 0 -40 19l-56 58l-80 -59q-24 -18 -44 -18z" />
    <glyph glyph-name="Udieresis" unicode="&#xdc;" horiz-adv-x="691" 
d="M621 282q-18 -88 -31.5 -131.5t-36.5 -73.5q-37 -47 -98 -68.5t-160 -21.5q-230 0 -230 153q0 50 19 140l86 399q6 28 29 28h91q20 0 20 -18q0 -9 -3 -21l-89 -410q-10 -45 -10 -80q0 -74 112 -74q84 0 117 35q27 27 45 109l91 431q6 28 31 28h83q20 0 20 -18
q0 -8 -3 -20zM418 847q0 -44 -21 -65q-19 -18 -50 -18q-54 0 -54 49q0 42 19 62t52 20q54 0 54 -48zM614 847q0 -44 -21 -65q-20 -18 -50 -18q-55 0 -55 49q0 41 20 62q19 20 52 20q54 0 54 -48z" />
    <glyph glyph-name="Yacute" unicode="&#xdd;" horiz-adv-x="613" 
d="M328 29q-6 -30 -31 -30h-85q-24 0 -24 21q0 2 3 23l54 250l-138 359q-8 18 -8 32q0 9 7 16t20 7h92q26 0 34 -26q62 -164 87 -248q63 90 192 247q22 27 48 27h98q18 0 18 -19q0 -12 -18 -35l-292 -356zM434 789q-20 -16 -44 -16h-52q-23 0 -23 18q0 13 11 23l120 107
q23 20 42 20h83q25 0 25 -18q0 -14 -13 -24z" />
    <glyph glyph-name="Thorn" unicode="&#xde;" horiz-adv-x="629" 
d="M201 138l-25 -111q-6 -28 -32 -28h-85q-21 0 -21 20q0 9 2 19l137 639q7 30 32 30h85q23 0 23 -19q0 -7 -4 -29l-22 -90h50q140 0 196 -29q72 -38 72 -128q0 -95 -42 -163.5t-132 -93.5q-59 -17 -170 -17h-64zM224 249h67q69 0 102 11q70 26 70 119q0 49 -34 63
q-23 11 -99 11h-62z" />
    <glyph glyph-name="germandbls" unicode="&#xdf;" horiz-adv-x="569" 
d="M132 -1h-88q-20 0 -20 19l3 18l93 431q26 120 49 156q33 51 80.5 76t139.5 25q91 0 132.5 -39t41.5 -101q0 -168 -139 -196q113 -13 113 -118q0 -142 -66 -216q-56 -63 -182 -63q-46 0 -73 9q-13 6 -13 18q0 27 19 71q8 15 22 15q13 0 19 -1q14 -3 41 -3q51 0 71 37
q27 48 27 118q0 36 -22 51t-75 15h-13q-18 0 -18 17q0 28 13 74q6 23 30 23h11q45 0 71 32q31 35 31 100q0 55 -64 55q-53 0 -77 -36q-14 -24 -30 -96l-100 -464q-6 -27 -27 -27z" />
    <glyph glyph-name="agrave" unicode="&#xe0;" horiz-adv-x="581" 
d="M460 32q-4 -19 -10.5 -26t-23.5 -7h-68q-27 0 -27 20q0 9 2 17q-51 -48 -150 -48q-72 0 -111 39t-39 118q0 84 29.5 172.5t86.5 135.5q64 52 178 52q74 0 102 -28q9 25 33 25h65q26 0 26 -23q0 -11 -5 -34zM352 154l49 227q-24 13 -71 13q-61 0 -97 -34
q-27 -27 -43.5 -79.5t-16.5 -101.5q0 -42 17.5 -60t55.5 -18q50 0 83 20q12 8 15 13q7 14 8 20zM322 598l-104 117q-10 13 -10 24q0 21 24 21h74q21 0 38 -25l81 -114q9 -13 9 -23q0 -18 -25 -18h-45q-25 0 -42 18z" />
    <glyph glyph-name="aacute" unicode="&#xe1;" horiz-adv-x="581" 
d="M460 32q-4 -19 -10.5 -26t-23.5 -7h-68q-27 0 -27 20q0 9 2 17q-51 -48 -150 -48q-72 0 -111 39t-39 118q0 84 29.5 172.5t86.5 135.5q64 52 178 52q74 0 102 -28q9 25 33 25h65q26 0 26 -23q0 -11 -5 -34zM352 154l49 227q-24 13 -71 13q-61 0 -97 -34
q-27 -27 -43.5 -79.5t-16.5 -101.5q0 -42 17.5 -60t55.5 -18q50 0 83 20q12 8 15 13q7 14 8 20zM394 598q-18 -18 -41 -18h-49q-24 0 -24 18q0 11 10 23l107 117q19 22 39 22h79q25 0 25 -19q0 -10 -13 -23z" />
    <glyph glyph-name="acircumflex" unicode="&#xe2;" horiz-adv-x="581" 
d="M460 32q-4 -19 -10.5 -26t-23.5 -7h-68q-27 0 -27 20q0 9 2 17q-51 -48 -150 -48q-72 0 -111 39t-39 118q0 84 29.5 172.5t86.5 135.5q64 52 178 52q74 0 102 -28q9 25 33 25h65q26 0 26 -23q0 -11 -5 -34zM352 154l49 227q-24 13 -71 13q-61 0 -97 -34
q-27 -27 -43.5 -79.5t-16.5 -101.5q0 -42 17.5 -60t55.5 -18q50 0 83 20q12 8 15 13q7 14 8 20zM274 577h-48q-20 0 -20 17q0 9 12 23l107 117q24 26 43 26h62q21 0 34 -25l61 -119q5 -12 5 -20q0 -19 -27 -19h-42q-21 0 -33 19l-42 71l-72 -71q-19 -19 -40 -19z" />
    <glyph glyph-name="atilde" unicode="&#xe3;" horiz-adv-x="581" 
d="M460 32q-4 -19 -10.5 -26t-23.5 -7h-68q-27 0 -27 20q0 9 2 17q-51 -48 -150 -48q-72 0 -111 39t-39 118q0 84 29.5 172.5t86.5 135.5q64 52 178 52q74 0 102 -28q9 25 33 25h65q26 0 26 -23q0 -11 -5 -34zM352 154l49 227q-24 13 -71 13q-61 0 -97 -34
q-27 -27 -43.5 -79.5t-16.5 -101.5q0 -42 17.5 -60t55.5 -18q50 0 83 20q12 8 15 13q7 14 8 20zM249 585h-32q-22 0 -22 20q0 10 8 31q39 96 106 96q19 0 66 -26q32 -19 51 -19q20 0 37 29q11 20 34 20h27q23 0 23 -20q0 -12 -12 -38q-39 -88 -99 -88q-34 0 -76 25
q-29 17 -44 17q-21 0 -36 -25q-13 -22 -31 -22z" />
    <glyph glyph-name="adieresis" unicode="&#xe4;" horiz-adv-x="581" 
d="M460 32q-4 -19 -10.5 -26t-23.5 -7h-68q-27 0 -27 20q0 9 2 17q-51 -48 -150 -48q-72 0 -111 39t-39 118q0 84 29.5 172.5t86.5 135.5q64 52 178 52q74 0 102 -28q9 25 33 25h65q26 0 26 -23q0 -11 -5 -34zM352 154l49 227q-24 13 -71 13q-61 0 -97 -34
q-27 -27 -43.5 -79.5t-16.5 -101.5q0 -42 17.5 -60t55.5 -18q50 0 83 20q12 8 15 13q7 14 8 20zM347 674q0 -44 -22 -65q-19 -17 -50 -17q-54 0 -54 49q0 40 20 61t51 21q55 0 55 -49zM535 674q0 -44 -22 -65q-19 -17 -49 -17q-55 0 -55 49q0 41 20 61q20 21 52 21
q54 0 54 -49z" />
    <glyph glyph-name="aring" unicode="&#xe5;" horiz-adv-x="581" 
d="M460 32q-4 -19 -10.5 -26t-23.5 -7h-68q-27 0 -27 20q0 9 2 17q-51 -48 -150 -48q-72 0 -111 39t-39 118q0 84 29.5 172.5t86.5 135.5q64 52 178 52q74 0 102 -28q9 25 33 25h65q26 0 26 -23q0 -11 -5 -34zM352 154l49 227q-24 13 -71 13q-61 0 -97 -34
q-27 -27 -43.5 -79.5t-16.5 -101.5q0 -42 17.5 -60t55.5 -18q50 0 83 20q12 8 15 13q7 14 8 20zM466 682q0 -50 -28.5 -79.5t-78.5 -29.5q-42 0 -65.5 23.5t-23.5 65.5q0 48 29.5 78t77.5 30q42 0 65.5 -23t23.5 -65zM423 681q0 50 -51 50q-26 0 -43.5 -18t-17.5 -47
q0 -54 52 -54q60 0 60 69z" />
    <glyph glyph-name="ae" unicode="&#xe6;" horiz-adv-x="839" 
d="M393 43q-76 -55 -201 -55q-75 0 -117 41t-42 120q0 85 28.5 171.5t85.5 133.5q66 54 177 54q61 0 95 -24l3 9q8 22 33 22h42q22 0 22 -18q0 -7 -2 -23l-2 -11q18 21 54.5 33.5t74.5 12.5q97 0 136 -35.5t39 -105.5q0 -54 -14 -122q-5 -25 -17 -32q-9 -6 -28 -6h-270
q-3 -22 -3 -35q0 -44 24.5 -58.5t77.5 -14.5q60 0 120 15q23 5 28 5q15 0 18 -16q10 -42 10 -57q0 -20 -20 -29q-71 -30 -196 -30q-119 0 -156 55zM363 147q0 33 1 53q1 36 19 115l16 67q-23 12 -69 12q-64 0 -98 -33q-28 -27 -43.5 -78.5t-15.5 -100.5q0 -43 17.5 -62
t55.5 -19q78 0 117 46zM506 303h182q8 29 8 57q0 29 -15.5 43t-56.5 14q-47 0 -74 -23q-30 -26 -44 -91z" />
    <glyph glyph-name="ccedilla" unicode="&#xe7;" horiz-adv-x="449" 
d="M228 -51q79 -4 79 -80q0 -68 -38 -94.5t-114 -26.5q-30 0 -53 5q-18 6 -18 23q0 13 7 34q7 19 27 19q7 0 21 -2q13 -3 31 -3q22 0 29.5 7t7.5 26q0 22 -25 22q-4 0 -13 -0.5t-11 -0.5q-20 1 -20 22q0 4 9 31l20 60q-68 9 -102 47.5t-34 114.5q0 69 22 151t66 132
q69 76 211 76q61 0 106 -13q17 -5 17 -23q0 -33 -14 -70q-7 -17 -23 -17q-5 0 -29 3q-31 6 -67 6q-68 0 -98 -36q-26 -30 -38.5 -81.5t-12.5 -97.5q0 -45 20.5 -64t66.5 -19q47 0 79 8q18 4 29 4q14 0 18 -15q9 -34 9 -61q0 -19 -22 -27q-59 -19 -131 -22z" />
    <glyph glyph-name="egrave" unicode="&#xe8;" horiz-adv-x="521" 
d="M171 208q-3 -22 -3 -35q0 -44 24.5 -58.5t77.5 -14.5q60 0 122 15q20 5 27 5q15 0 18 -16q10 -34 10 -58q0 -21 -21 -30q-71 -29 -198 -29q-108 0 -152.5 44.5t-44.5 133.5q0 66 21.5 141.5t65.5 125.5q69 79 204 79q98 0 138 -36.5t40 -106.5q0 -52 -13 -122
q-4 -24 -18 -32q-7 -6 -27 -6h-271zM187 303h182q9 31 9 55q0 28 -16 42t-57 14q-47 0 -73 -23q-29 -25 -45 -88zM272 598l-104 117q-10 13 -10 24q0 21 24 21h74q21 0 38 -25l81 -114q9 -13 9 -23q0 -18 -25 -18h-45q-25 0 -42 18z" />
    <glyph glyph-name="eacute" unicode="&#xe9;" horiz-adv-x="521" 
d="M171 208q-3 -22 -3 -35q0 -44 24.5 -58.5t77.5 -14.5q60 0 122 15q20 5 27 5q15 0 18 -16q10 -34 10 -58q0 -21 -21 -30q-71 -29 -198 -29q-108 0 -152.5 44.5t-44.5 133.5q0 66 21.5 141.5t65.5 125.5q69 79 204 79q98 0 138 -36.5t40 -106.5q0 -52 -13 -122
q-4 -24 -18 -32q-7 -6 -27 -6h-271zM187 303h182q9 31 9 55q0 28 -16 42t-57 14q-47 0 -73 -23q-29 -25 -45 -88zM345 598q-18 -18 -41 -18h-49q-24 0 -24 18q0 11 10 23l107 117q19 22 39 22h79q25 0 25 -19q0 -10 -13 -23z" />
    <glyph glyph-name="ecircumflex" unicode="&#xea;" horiz-adv-x="521" 
d="M171 208q-3 -22 -3 -35q0 -44 24.5 -58.5t77.5 -14.5q60 0 122 15q20 5 27 5q15 0 18 -16q10 -34 10 -58q0 -21 -21 -30q-71 -29 -198 -29q-108 0 -152.5 44.5t-44.5 133.5q0 66 21.5 141.5t65.5 125.5q69 79 204 79q98 0 138 -36.5t40 -106.5q0 -52 -13 -122
q-4 -24 -18 -32q-7 -6 -27 -6h-271zM187 303h182q9 31 9 55q0 28 -16 42t-57 14q-47 0 -73 -23q-29 -25 -45 -88zM241 577h-48q-20 0 -20 17q0 9 12 23l107 117q24 26 43 26h62q21 0 34 -25l61 -119q5 -12 5 -20q0 -19 -27 -19h-42q-21 0 -33 19l-42 71l-72 -71
q-19 -19 -40 -19z" />
    <glyph glyph-name="edieresis" unicode="&#xeb;" horiz-adv-x="521" 
d="M171 208q-3 -22 -3 -35q0 -44 24.5 -58.5t77.5 -14.5q60 0 122 15q20 5 27 5q15 0 18 -16q10 -34 10 -58q0 -21 -21 -30q-71 -29 -198 -29q-108 0 -152.5 44.5t-44.5 133.5q0 66 21.5 141.5t65.5 125.5q69 79 204 79q98 0 138 -36.5t40 -106.5q0 -52 -13 -122
q-4 -24 -18 -32q-7 -6 -27 -6h-271zM187 303h182q9 31 9 55q0 28 -16 42t-57 14q-47 0 -73 -23q-29 -25 -45 -88zM313 674q0 -44 -22 -65q-19 -17 -50 -17q-54 0 -54 49q0 40 20 61t51 21q55 0 55 -49zM501 674q0 -44 -22 -65q-19 -17 -49 -17q-55 0 -55 49q0 41 20 61
q20 21 52 21q54 0 54 -49z" />
    <glyph glyph-name="igrave" unicode="&#xec;" horiz-adv-x="275" 
d="M165 598l-104 117q-10 13 -10 24q0 21 24 21h74q21 0 38 -25l81 -114q9 -13 9 -23q0 -18 -25 -18h-45q-25 0 -42 18zM159 27q-6 -28 -30 -28h-84q-20 0 -20 19q0 10 3 22l92 430q7 28 30 28h85q19 0 19 -19q0 -6 -3 -24z" />
    <glyph glyph-name="iacute" unicode="&#xed;" horiz-adv-x="275" 
d="M233 598q-18 -18 -41 -18h-49q-24 0 -24 18q0 11 10 23l107 117q19 22 39 22h79q25 0 25 -19q0 -10 -13 -23zM159 27q-6 -28 -30 -28h-84q-20 0 -20 19q0 10 3 22l92 430q7 28 30 28h85q19 0 19 -19q0 -6 -3 -24z" />
    <glyph glyph-name="icircumflex" unicode="&#xee;" horiz-adv-x="275" 
d="M159 27q-6 -28 -30 -28h-84q-20 0 -20 19q0 10 3 22l92 430q7 28 30 28h85q19 0 19 -19q0 -6 -3 -24zM109 577h-48q-20 0 -20 17q0 9 12 23l107 117q24 26 43 26h62q21 0 34 -25l61 -119q5 -12 5 -20q0 -19 -27 -19h-42q-21 0 -33 19l-42 71l-72 -71q-19 -19 -40 -19z
" />
    <glyph glyph-name="idieresis" unicode="&#xef;" horiz-adv-x="275" 
d="M181 674q0 -44 -22 -65q-19 -17 -50 -17q-54 0 -54 49q0 40 20 61t51 21q55 0 55 -49zM369 674q0 -44 -22 -65q-19 -17 -49 -17q-55 0 -55 49q0 41 20 61q20 21 52 21q54 0 54 -49zM159 27q-6 -28 -30 -28h-84q-20 0 -20 19q0 10 3 22l92 430q7 28 30 28h85q19 0 19 -19
q0 -6 -3 -24z" />
    <glyph glyph-name="eth" unicode="&#xf0;" horiz-adv-x="563" 
d="M538 667l-48 -28q48 -69 48 -193q0 -264 -92 -383q-59 -75 -199 -75q-101 0 -157.5 35.5t-56.5 133.5q0 74 21 148.5t67 124.5q63 67 186 67q33 0 64.5 -9.5t41.5 -27.5q-4 71 -33 113l-65 -38q-15 -9 -25 -9t-17 12q-21 34 -21 44q0 13 19 23l40 23q-36 15 -91 23
q-19 2 -19 21q0 24 10 54q8 21 29 21q24 0 35 -1q95 -10 154 -48l64 38q13 8 23 8q9 0 16 -9q23 -35 23 -46q0 -12 -17 -22zM394 322q0 40 -21.5 54.5t-66.5 14.5q-60 0 -86 -37q-23 -31 -36 -87.5t-13 -94.5q0 -42 21 -57t67 -15q62 0 88 38q20 30 33.5 90t13.5 94z" />
    <glyph glyph-name="ntilde" unicode="&#xf1;" horiz-adv-x="586" 
d="M159 27q-6 -28 -31 -28h-83q-20 0 -20 19q0 7 3 19l91 429q6 33 34 33h75q14 0 19.5 -5t5.5 -17q0 -10 -2 -17q60 49 159 49q135 0 135 -88q0 -38 -10 -82l-68 -314q-5 -26 -30 -26h-83q-20 0 -20 19q0 7 2 17l60 281q6 24 6 42q0 36 -59 36q-44 0 -80 -13
q-20 -9 -25 -14q-7 -8 -12 -29zM245 585h-32q-22 0 -22 20q0 10 8 31q39 96 106 96q19 0 66 -26q32 -19 51 -19q20 0 37 29q11 20 34 20h27q23 0 23 -20q0 -12 -12 -38q-39 -88 -99 -88q-34 0 -76 25q-29 17 -44 17q-21 0 -36 -25q-13 -22 -31 -22z" />
    <glyph glyph-name="ograve" unicode="&#xf2;" horiz-adv-x="561" 
d="M531 350q0 -67 -22 -152.5t-64 -136.5q-60 -74 -198 -74q-48 0 -83 7t-66.5 24.5t-48 52t-16.5 86.5q0 75 23.5 155.5t71.5 130.5q64 68 187 68q49 0 83 -5.5t67 -21t49.5 -49t16.5 -85.5zM395 327q0 40 -21.5 55t-66.5 15q-59 0 -86 -37q-23 -32 -36.5 -89.5
t-13.5 -94.5q0 -43 21 -59.5t66 -16.5q63 0 89 39q20 29 34 91.5t14 96.5zM303 598l-104 117q-10 13 -10 24q0 21 24 21h74q21 0 38 -25l81 -114q9 -13 9 -23q0 -18 -25 -18h-45q-25 0 -42 18z" />
    <glyph glyph-name="oacute" unicode="&#xf3;" horiz-adv-x="561" 
d="M531 350q0 -67 -22 -152.5t-64 -136.5q-60 -74 -198 -74q-48 0 -83 7t-66.5 24.5t-48 52t-16.5 86.5q0 75 23.5 155.5t71.5 130.5q64 68 187 68q49 0 83 -5.5t67 -21t49.5 -49t16.5 -85.5zM395 327q0 40 -21.5 55t-66.5 15q-59 0 -86 -37q-23 -32 -36.5 -89.5
t-13.5 -94.5q0 -43 21 -59.5t66 -16.5q63 0 89 39q20 29 34 91.5t14 96.5zM368 598q-18 -18 -41 -18h-49q-24 0 -24 18q0 11 10 23l107 117q19 22 39 22h79q25 0 25 -19q0 -10 -13 -23z" />
    <glyph glyph-name="ocircumflex" unicode="&#xf4;" horiz-adv-x="561" 
d="M531 350q0 -67 -22 -152.5t-64 -136.5q-60 -74 -198 -74q-48 0 -83 7t-66.5 24.5t-48 52t-16.5 86.5q0 75 23.5 155.5t71.5 130.5q64 68 187 68q49 0 83 -5.5t67 -21t49.5 -49t16.5 -85.5zM395 327q0 40 -21.5 55t-66.5 15q-59 0 -86 -37q-23 -32 -36.5 -89.5
t-13.5 -94.5q0 -43 21 -59.5t66 -16.5q63 0 89 39q20 29 34 91.5t14 96.5zM256 577h-48q-20 0 -20 17q0 9 12 23l107 117q24 26 43 26h62q21 0 34 -25l61 -119q5 -12 5 -20q0 -19 -27 -19h-42q-21 0 -33 19l-42 71l-72 -71q-19 -19 -40 -19z" />
    <glyph glyph-name="otilde" unicode="&#xf5;" horiz-adv-x="561" 
d="M531 350q0 -67 -22 -152.5t-64 -136.5q-60 -74 -198 -74q-48 0 -83 7t-66.5 24.5t-48 52t-16.5 86.5q0 75 23.5 155.5t71.5 130.5q64 68 187 68q49 0 83 -5.5t67 -21t49.5 -49t16.5 -85.5zM395 327q0 40 -21.5 55t-66.5 15q-59 0 -86 -37q-23 -32 -36.5 -89.5
t-13.5 -94.5q0 -43 21 -59.5t66 -16.5q63 0 89 39q20 29 34 91.5t14 96.5zM235 585h-32q-22 0 -22 20q0 10 8 31q39 96 106 96q19 0 66 -26q32 -19 51 -19q20 0 37 29q11 20 34 20h27q23 0 23 -20q0 -12 -12 -38q-39 -88 -99 -88q-34 0 -76 25q-29 17 -44 17q-21 0 -36 -25
q-13 -22 -31 -22z" />
    <glyph glyph-name="odieresis" unicode="&#xf6;" horiz-adv-x="561" 
d="M531 350q0 -67 -22 -152.5t-64 -136.5q-60 -74 -198 -74q-48 0 -83 7t-66.5 24.5t-48 52t-16.5 86.5q0 75 23.5 155.5t71.5 130.5q64 68 187 68q49 0 83 -5.5t67 -21t49.5 -49t16.5 -85.5zM395 327q0 40 -21.5 55t-66.5 15q-59 0 -86 -37q-23 -32 -36.5 -89.5
t-13.5 -94.5q0 -43 21 -59.5t66 -16.5q63 0 89 39q20 29 34 91.5t14 96.5zM328 674q0 -44 -22 -65q-19 -17 -50 -17q-54 0 -54 49q0 40 20 61t51 21q55 0 55 -49zM516 674q0 -44 -22 -65q-19 -17 -49 -17q-55 0 -55 49q0 41 20 61q20 21 52 21q54 0 54 -49z" />
    <glyph glyph-name="divide" unicode="&#xf7;" horiz-adv-x="701" 
d="M463 486q0 -34 -17 -56t-53 -22q-52 0 -52 50q0 35 17 55t49 20q23 0 39.5 -12t16.5 -35zM593 251h-460q-27 0 -27 26q0 11 6 36q6 29 32 29h460q28 0 28 -24q0 -13 -6 -41q-6 -26 -33 -26zM392 130q0 -33 -17.5 -54.5t-52.5 -21.5q-53 0 -53 50q0 35 17 54.5t50 19.5
q23 0 39.5 -12t16.5 -36z" />
    <glyph glyph-name="oslash" unicode="&#xf8;" horiz-adv-x="561" 
d="M77 -22q-8 -8 -15 -8q-9 0 -29 19q-5 5 -5 12q0 6 7 13l26 30q-34 39 -34 113q0 75 23 155.5t71 130.5q63 67 188 67q91 0 136 -19l36 42q6 7 12 7q9 -2 13 -6q20 -15 20 -24q0 -6 -5 -13l-31 -37q35 -38 35 -110q0 -67 -22 -153t-64 -136q-60 -73 -199 -73
q-87 0 -135 22zM391 332q0 8 -1 12l-202 -236q19 -13 63 -13q62 0 90 39q21 30 35.5 96t14.5 102zM162 170v-9l198 231q-19 10 -59 10q-59 0 -87 -38q-24 -31 -38 -93t-14 -101z" />
    <glyph glyph-name="ugrave" unicode="&#xf9;" horiz-adv-x="590" 
d="M334 37q-58 -49 -156 -49q-138 0 -138 91q0 31 11 81l66 312q7 26 31 26h83q21 0 21 -19l-3 -18l-59 -278q-6 -24 -6 -42q0 -38 61 -38q45 0 77 13q16 5 25 15q9 9 13 30l66 309q6 28 32 28h82q20 0 20 -19q0 -7 -3 -19l-91 -429q-7 -33 -34 -33h-75q-14 0 -19.5 5
t-5.5 17q0 3 2 17zM316 600l-104 117q-10 13 -10 24q0 21 24 21h74q21 0 38 -25l81 -114q9 -14 9 -23q0 -18 -25 -18h-45q-25 0 -42 18z" />
    <glyph glyph-name="uacute" unicode="&#xfa;" horiz-adv-x="590" 
d="M334 37q-58 -49 -156 -49q-138 0 -138 91q0 31 11 81l66 312q7 26 31 26h83q21 0 21 -19l-3 -18l-59 -278q-6 -24 -6 -42q0 -38 61 -38q45 0 77 13q16 5 25 15q9 9 13 30l66 309q6 28 32 28h82q20 0 20 -19q0 -7 -3 -19l-91 -429q-7 -33 -34 -33h-75q-14 0 -19.5 5
t-5.5 17q0 3 2 17zM377 598q-18 -18 -41 -18h-49q-24 0 -24 18q0 11 10 23l107 117q19 22 39 22h79q25 0 25 -19q0 -10 -13 -23z" />
    <glyph glyph-name="ucircumflex" unicode="&#xfb;" horiz-adv-x="590" 
d="M334 37q-58 -49 -156 -49q-138 0 -138 91q0 31 11 81l66 312q7 26 31 26h83q21 0 21 -19l-3 -18l-59 -278q-6 -24 -6 -42q0 -38 61 -38q45 0 77 13q16 5 25 15q9 9 13 30l66 309q6 28 32 28h82q20 0 20 -19q0 -7 -3 -19l-91 -429q-7 -33 -34 -33h-75q-14 0 -19.5 5
t-5.5 17q0 3 2 17zM262 577h-48q-20 0 -20 17q0 9 12 23l107 117q24 26 43 26h62q21 0 34 -25l61 -119q5 -12 5 -20q0 -19 -27 -19h-42q-21 0 -33 19l-42 71l-72 -71q-19 -19 -40 -19z" />
    <glyph glyph-name="udieresis" unicode="&#xfc;" horiz-adv-x="590" 
d="M334 37q-58 -49 -156 -49q-138 0 -138 91q0 31 11 81l66 312q7 26 31 26h83q21 0 21 -19l-3 -18l-59 -278q-6 -24 -6 -42q0 -38 61 -38q45 0 77 13q16 5 25 15q9 9 13 30l66 309q6 28 32 28h82q20 0 20 -19q0 -7 -3 -19l-91 -429q-7 -33 -34 -33h-75q-14 0 -19.5 5
t-5.5 17q0 3 2 17zM336 674q0 -44 -22 -65q-19 -17 -50 -17q-54 0 -54 49q0 40 20 61t51 21q55 0 55 -49zM524 674q0 -44 -22 -65q-19 -17 -49 -17q-55 0 -55 49q0 41 20 61q20 21 52 21q54 0 54 -49z" />
    <glyph glyph-name="yacute" unicode="&#xfd;" horiz-adv-x="507" 
d="M141 9l-82 441q-2 12 -2 20q0 28 28 28h87q21 0 26 -28q32 -196 44 -289q41 84 158 288q17 29 36 29h93q21 0 21 -17q0 -10 -13 -32l-288 -489q-43 -73 -64.5 -105t-50.5 -60q-47 -45 -149 -45q-55 0 -71 8q-16 6 -16 21q0 35 20 75q7 13 24 13q3 0 20.5 -2t26.5 -2
q47 0 72 27q32 35 72 105zM350 598q-18 -18 -41 -18h-49q-24 0 -24 18q0 11 10 23l107 117q19 22 39 22h79q25 0 25 -19q0 -10 -13 -23z" />
    <glyph glyph-name="thorn" unicode="&#xfe;" horiz-adv-x="575" 
d="M157 12l-49 -226q-4 -17 -11.5 -23.5t-22.5 -6.5h-77q-23 0 -23 22l3 18l195 918q4 19 11 26.5t24 7.5h74q16 0 21.5 -4t5.5 -17q0 -7 -5 -27l-53 -243q53 51 150 51q72 0 109.5 -33.5t37.5 -109.5q0 -60 -17.5 -137.5t-50.5 -130.5q-36 -59 -89.5 -80.5t-139.5 -21.5
q-71 0 -93 17zM178 116q30 -14 71 -14q45 0 71 12t43 40q20 34 32.5 84.5t12.5 88.5q0 35 -18.5 51.5t-60.5 16.5q-46 0 -80 -19q-11 -4 -15 -12q-4 -7 -7 -21z" />
    <glyph glyph-name="ydieresis" unicode="&#xff;" horiz-adv-x="507" 
d="M141 9l-82 441q-2 12 -2 20q0 28 28 28h87q21 0 26 -28q32 -196 44 -289q41 84 158 288q17 29 36 29h93q21 0 21 -17q0 -10 -13 -32l-288 -489q-43 -73 -64.5 -105t-50.5 -60q-47 -45 -149 -45q-55 0 -71 8q-16 6 -16 21q0 35 20 75q7 13 24 13q3 0 20.5 -2t26.5 -2
q47 0 72 27q32 35 72 105zM291 674q0 -44 -22 -65q-19 -17 -50 -17q-54 0 -54 49q0 40 20 61t51 21q55 0 55 -49zM479 674q0 -44 -22 -65q-19 -17 -49 -17q-55 0 -55 49q0 41 20 61q20 21 52 21q54 0 54 -49z" />
    <glyph glyph-name="Amacron" unicode="&#x100;" horiz-adv-x="640" 
d="M120 32q-10 -18 -18.5 -25.5t-23.5 -7.5h-91q-24 0 -24 21q0 7 12 29l359 631q15 27 42 27h87q29 0 33 -30l89 -625q3 -16 3 -28q0 -25 -32 -25h-78q-16 0 -22.5 7.5t-8.5 26.5l-19 153h-222zM393 540q-47 -92 -128 -237h153q-17 138 -25 237zM552 779h-258q-22 0 -22 19
q0 14 11 51q7 25 31 25h256q23 0 23 -19q0 -15 -10 -52q-6 -24 -31 -24z" />
    <glyph glyph-name="amacron" unicode="&#x101;" horiz-adv-x="581" 
d="M460 32q-4 -19 -10.5 -26t-23.5 -7h-68q-27 0 -27 20q0 9 2 17q-51 -48 -150 -48q-72 0 -111 39t-39 118q0 84 29.5 172.5t86.5 135.5q64 52 178 52q74 0 102 -28q9 25 33 25h65q26 0 26 -23q0 -11 -5 -34zM352 154l49 227q-24 13 -71 13q-61 0 -97 -34
q-27 -27 -43.5 -79.5t-16.5 -101.5q0 -42 17.5 -60t55.5 -18q50 0 83 20q12 8 15 13q7 14 8 20zM465 599h-224q-22 0 -22 19q0 16 9 52q8 25 32 25h222q24 0 24 -19q0 -17 -10 -54q-4 -14 -10.5 -18.5t-20.5 -4.5z" />
    <glyph glyph-name="Abreve" unicode="&#x102;" horiz-adv-x="640" 
d="M120 32q-10 -18 -18.5 -25.5t-23.5 -7.5h-91q-24 0 -24 21q0 7 12 29l359 631q15 27 42 27h87q29 0 33 -30l89 -625q3 -16 3 -28q0 -25 -32 -25h-78q-16 0 -22.5 7.5t-8.5 26.5l-19 153h-222zM393 540q-47 -92 -128 -237h153q-17 138 -25 237zM575 915q20 0 20 -23
q0 -19 -10 -44q-40 -93 -166 -93q-63 0 -103.5 29t-40.5 84q0 18 3 28q6 19 28 19h29q26 0 27 -21q2 -16 7 -25q13 -28 59 -28q38 0 55.5 12.5t27.5 38.5q6 14 12 18.5t20 4.5h32z" />
    <glyph glyph-name="abreve" unicode="&#x103;" horiz-adv-x="581" 
d="M460 32q-4 -19 -10.5 -26t-23.5 -7h-68q-27 0 -27 20q0 9 2 17q-51 -48 -150 -48q-72 0 -111 39t-39 118q0 84 29.5 172.5t86.5 135.5q64 52 178 52q74 0 102 -28q9 25 33 25h65q26 0 26 -23q0 -11 -5 -34zM352 154l49 227q-24 13 -71 13q-61 0 -97 -34
q-27 -27 -43.5 -79.5t-16.5 -101.5q0 -42 17.5 -60t55.5 -18q50 0 83 20q12 8 15 13q7 14 8 20zM516 740q19 0 19 -23q0 -19 -11 -46q-21 -49 -58 -74.5t-104 -25.5q-65 0 -99 31.5t-34 76.5q0 21 3 34q4 27 26 27h27q24 0 24 -22q0 -18 4 -27q12 -33 61 -33q38 0 53.5 14
t27.5 45q9 23 31 23h30z" />
    <glyph glyph-name="Aogonek" unicode="&#x104;" horiz-adv-x="640" 
d="M120 32q-10 -18 -18.5 -25.5t-23.5 -7.5h-91q-24 0 -24 21q0 7 12 29l359 631q15 27 42 27h87q29 0 33 -30l89 -625q3 -16 3 -28q0 -25 -32 -25h-11q-33 -21 -52.5 -36.5t-37.5 -42.5t-18 -56q0 -38 39 -38q10 0 26 2.5t18 2.5q9 0 13 -4.5t7 -16.5q4 -12 4 -30
q0 -21 -26 -28q-23 -7 -72 -7q-112 0 -112 92q0 59 33 96.5t94 68.5q-11 6 -14 31l-19 153h-222zM393 540q-47 -92 -128 -237h153q-17 138 -25 237z" />
    <glyph glyph-name="aogonek" unicode="&#x105;" horiz-adv-x="581" 
d="M460 32q-4 -19 -10.5 -26t-23.5 -7h-1q-28 -18 -39 -26.5t-30.5 -26t-27.5 -36t-8 -40.5q0 -35 38 -35q10 0 25 2t17 2q9 0 13 -3.5t7 -14.5q4 -18 4 -31q0 -12 -5.5 -17.5t-20.5 -9.5q-23 -6 -69 -6q-109 0 -109 88q0 56 31.5 92t89.5 64q-10 5 -10 18q0 9 2 17
q-51 -48 -150 -48q-72 0 -111 39t-39 118q0 84 29.5 172.5t86.5 135.5q64 52 178 52q74 0 102 -28q9 25 33 25h65q26 0 26 -23q0 -11 -5 -34zM352 154l49 227q-24 13 -71 13q-61 0 -97 -34q-27 -27 -43.5 -79.5t-16.5 -101.5q0 -42 17.5 -60t55.5 -18q50 0 83 20q12 8 15 13
q7 14 8 20z" />
    <glyph glyph-name="Cacute" unicode="&#x106;" horiz-adv-x="582" 
d="M199 244q0 -72 33 -105.5t104 -33.5q73 0 133 14q23 6 32 6q14 0 18 -14q13 -41 13 -64q0 -22 -27 -31q-84 -29 -216 -29q-234 0 -234 239q0 96 33 210.5t94 184.5q85 99 264 99q91 0 150 -16q20 -5 20 -26q0 -24 -21 -75q-6 -13 -21 -13q-11 0 -34 5q-45 8 -106 8
q-94 0 -144 -54q-44 -47 -67.5 -136.5t-23.5 -168.5zM431 772q-23 -13 -45 -13h-59q-20 0 -20 15q0 14 13 25l128 98q22 18 45 18h93q23 0 23 -16q0 -18 -14 -26z" />
    <glyph glyph-name="cacute" unicode="&#x107;" horiz-adv-x="449" 
d="M171 183q0 -45 20.5 -64t66.5 -19q47 0 79 8q18 4 29 4q14 0 18 -15q9 -34 9 -61q0 -19 -22 -27q-69 -22 -150 -22q-95 0 -142.5 38t-47.5 128q0 69 22 151t66 132q69 76 211 76q61 0 106 -13q17 -5 17 -23q0 -33 -14 -70q-7 -17 -23 -17q-5 0 -29 3q-31 6 -67 6
q-68 0 -98 -36q-26 -30 -38.5 -81.5t-12.5 -97.5zM349 598q-18 -18 -41 -18h-49q-24 0 -24 18q0 11 10 23l107 117q19 22 39 22h79q25 0 25 -19q0 -10 -13 -23z" />
    <glyph glyph-name="Ccircumflex" unicode="&#x108;" horiz-adv-x="582" 
d="M199 244q0 -72 33 -105.5t104 -33.5q73 0 133 14q23 6 32 6q14 0 18 -14q13 -41 13 -64q0 -22 -27 -31q-84 -29 -216 -29q-234 0 -234 239q0 96 33 210.5t94 184.5q85 99 264 99q91 0 150 -16q20 -5 20 -26q0 -24 -21 -75q-6 -13 -21 -13q-11 0 -34 5q-45 8 -106 8
q-94 0 -144 -54q-44 -47 -67.5 -136.5t-23.5 -168.5zM332 759h-49q-23 0 -23 19q0 10 13 21l115 100q29 27 53 27h54q23 0 41 -23l79 -103q7 -10 7 -20q0 -21 -30 -21h-40q-21 0 -40 19l-56 58l-80 -59q-24 -18 -44 -18z" />
    <glyph glyph-name="ccircumflex" unicode="&#x109;" horiz-adv-x="449" 
d="M171 183q0 -45 20.5 -64t66.5 -19q47 0 79 8q18 4 29 4q14 0 18 -15q9 -34 9 -61q0 -19 -22 -27q-69 -22 -150 -22q-95 0 -142.5 38t-47.5 128q0 69 22 151t66 132q69 76 211 76q61 0 106 -13q17 -5 17 -23q0 -33 -14 -70q-7 -17 -23 -17q-5 0 -29 3q-31 6 -67 6
q-68 0 -98 -36q-26 -30 -38.5 -81.5t-12.5 -97.5zM228 577h-48q-20 0 -20 17q0 9 12 23l107 117q24 26 43 26h62q21 0 34 -25l61 -119q5 -12 5 -20q0 -19 -27 -19h-42q-21 0 -33 19l-42 71l-72 -71q-19 -19 -40 -19z" />
    <glyph glyph-name="Cdotaccent" unicode="&#x10a;" horiz-adv-x="582" 
d="M199 244q0 -72 33 -105.5t104 -33.5q73 0 133 14q23 6 32 6q14 0 18 -14q13 -41 13 -64q0 -22 -27 -31q-84 -29 -216 -29q-234 0 -234 239q0 96 33 210.5t94 184.5q85 99 264 99q91 0 150 -16q20 -5 20 -26q0 -24 -21 -75q-6 -13 -21 -13q-11 0 -34 5q-45 8 -106 8
q-94 0 -144 -54q-44 -47 -67.5 -136.5t-23.5 -168.5zM506 847q0 -44 -21 -65q-18 -18 -50 -18q-54 0 -54 49q0 39 20 62q19 20 51 20q54 0 54 -48z" />
    <glyph glyph-name="cdotaccent" unicode="&#x10b;" horiz-adv-x="449" 
d="M171 183q0 -45 20.5 -64t66.5 -19q47 0 79 8q18 4 29 4q14 0 18 -15q9 -34 9 -61q0 -19 -22 -27q-69 -22 -150 -22q-95 0 -142.5 38t-47.5 128q0 69 22 151t66 132q69 76 211 76q61 0 106 -13q17 -5 17 -23q0 -33 -14 -70q-7 -17 -23 -17q-5 0 -29 3q-31 6 -67 6
q-68 0 -98 -36q-26 -30 -38.5 -81.5t-12.5 -97.5zM397 674q0 -44 -21 -65q-19 -17 -50 -17q-54 0 -54 49q0 38 20 61q20 21 51 21q54 0 54 -49z" />
    <glyph glyph-name="Ccaron" unicode="&#x10c;" horiz-adv-x="582" 
d="M199 244q0 -72 33 -105.5t104 -33.5q73 0 133 14q23 6 32 6q14 0 18 -14q13 -41 13 -64q0 -22 -27 -31q-84 -29 -216 -29q-234 0 -234 239q0 96 33 210.5t94 184.5q85 99 264 99q91 0 150 -16q20 -5 20 -26q0 -24 -21 -75q-6 -13 -21 -13q-11 0 -34 5q-45 8 -106 8
q-94 0 -144 -54q-44 -47 -67.5 -136.5t-23.5 -168.5zM565 926h50q22 0 22 -19q0 -10 -12 -22l-116 -100q-32 -26 -53 -26h-54q-22 0 -40 23l-79 102q-8 9 -8 21q0 21 31 21h40q22 0 39 -19l56 -58l80 58q27 19 44 19z" />
    <glyph glyph-name="ccaron" unicode="&#x10d;" horiz-adv-x="449" 
d="M171 183q0 -45 20.5 -64t66.5 -19q47 0 79 8q18 4 29 4q14 0 18 -15q9 -34 9 -61q0 -19 -22 -27q-69 -22 -150 -22q-95 0 -142.5 38t-47.5 128q0 69 22 151t66 132q69 76 211 76q61 0 106 -13q17 -5 17 -23q0 -33 -14 -70q-7 -17 -23 -17q-5 0 -29 3q-31 6 -67 6
q-68 0 -98 -36q-26 -30 -38.5 -81.5t-12.5 -97.5zM439 760h48q20 0 20 -18q0 -8 -12 -22l-107 -117q-24 -26 -43 -26h-62q-21 0 -34 25l-61 119q-5 12 -5 20q0 19 27 19h42q21 0 33 -19l42 -72l72 72q19 19 40 19z" />
    <glyph glyph-name="Dcaron" unicode="&#x10e;" horiz-adv-x="683" 
d="M196 121h60q92 0 138 21q38 17 66 54.5t42 84.5t20.5 91t6.5 85q0 84 -54 111q-37 17 -123 17h-57zM215 0h-154q-23 0 -23 21q0 7 3 22l135 633q6 30 34 30h154q120 0 191 -22q120 -38 120 -205q0 -73 -11.5 -139t-38 -131t-76.5 -114t-119 -71q-75 -24 -215 -24z
M546 926h50q22 0 22 -19q0 -10 -12 -22l-116 -100q-32 -26 -53 -26h-54q-22 0 -40 23l-79 102q-8 9 -8 21q0 21 31 21h40q22 0 39 -19l56 -58l80 58q27 19 44 19z" />
    <glyph glyph-name="dcaron" unicode="&#x10f;" horiz-adv-x="578" 
d="M460 32q-4 -19 -10.5 -26t-23.5 -7h-68q-27 0 -27 20q0 9 2 17q-51 -48 -150 -48q-72 0 -111 39t-39 118q0 86 28 174.5t86 135.5q65 53 193 53q54 0 84 -15l48 225q7 30 37 30h74q24 0 24 -20q0 -3 -4 -21zM352 155l49 229q-27 12 -71 12q-65 0 -98 -34q-27 -27 -43 -80
t-16 -102q0 -42 17.5 -60.5t55.5 -18.5q50 0 84 21q8 4 15 13q2 4 7 20zM770 747q29 0 29 -28q0 -25 -13 -59q-24 -71 -75 -119q-20 -20 -37 -20q-14 0 -32 12q-14 9 -14 21q0 9 12 27q42 54 50 127q5 39 39 39h41z" />
    <glyph glyph-name="Dcroat" unicode="&#x110;" horiz-adv-x="683" 
d="M215 0h-154q-23 0 -23 21q0 7 3 22l57 270h-48q-22 0 -22 19q0 14 11 60q6 24 30 24h51l56 260q6 30 34 30h154q120 0 191 -22q120 -38 120 -205q0 -73 -11.5 -139t-38 -131t-76.5 -114t-119 -71q-75 -24 -215 -24zM196 121h60q92 0 138 21q38 17 66 54.5t42 84.5
t20.5 91t6.5 85q0 84 -54 111q-37 17 -123 17h-57l-36 -169h120q22 0 22 -18q0 -11 -13 -64q-3 -13 -9.5 -17t-21.5 -4h-120z" />
    <glyph glyph-name="dcroat" unicode="&#x111;" horiz-adv-x="578" 
d="M460 32q-4 -19 -10.5 -26t-23.5 -7h-68q-27 0 -27 20q0 9 2 17q-51 -48 -150 -48q-72 0 -111 39t-39 118q0 86 28 174.5t86 135.5q65 53 193 53q54 0 84 -15l17 81h-87q-22 0 -22 19q0 9 9 49q7 25 31 25h89l11 51q7 30 37 30h74q24 0 24 -20q0 -3 -4 -21l-9 -40h32
q21 0 21 -20q0 -9 -9 -52q-5 -21 -30 -21h-33zM352 155l49 229q-27 12 -71 12q-65 0 -98 -34q-27 -27 -43 -80t-16 -102q0 -42 17.5 -60.5t55.5 -18.5q50 0 84 21q8 4 15 13q2 4 7 20z" />
    <glyph glyph-name="Emacron" unicode="&#x112;" horiz-adv-x="554" 
d="M452 0h-391q-23 0 -23 19q0 8 3 23l135 632q7 32 35 32h360q23 0 23 -17q0 -7 -16 -82q-4 -22 -33 -22h-249l-35 -159h232q24 0 24 -20q0 -18 -14 -78q-6 -23 -32 -23h-234l-40 -184h280q24 0 24 -19q0 -15 -15 -79q-6 -23 -34 -23zM523 779h-258q-22 0 -22 19
q0 14 11 51q7 25 31 25h256q23 0 23 -19q0 -15 -10 -52q-6 -24 -31 -24z" />
    <glyph glyph-name="emacron" unicode="&#x113;" horiz-adv-x="521" 
d="M171 208q-3 -22 -3 -35q0 -44 24.5 -58.5t77.5 -14.5q60 0 122 15q20 5 27 5q15 0 18 -16q10 -34 10 -58q0 -21 -21 -30q-71 -29 -198 -29q-108 0 -152.5 44.5t-44.5 133.5q0 66 21.5 141.5t65.5 125.5q69 79 204 79q98 0 138 -36.5t40 -106.5q0 -52 -13 -122
q-4 -24 -18 -32q-7 -6 -27 -6h-271zM187 303h182q9 31 9 55q0 28 -16 42t-57 14q-47 0 -73 -23q-29 -25 -45 -88zM445 599h-224q-22 0 -22 19q0 16 9 52q8 25 32 25h222q24 0 24 -19q0 -17 -10 -54q-4 -14 -10.5 -18.5t-20.5 -4.5z" />
    <glyph glyph-name="Ebreve" unicode="&#x114;" horiz-adv-x="554" 
d="M452 0h-391q-23 0 -23 19q0 8 3 23l135 632q7 32 35 32h360q23 0 23 -17q0 -7 -16 -82q-4 -22 -33 -22h-249l-35 -159h232q24 0 24 -20q0 -18 -14 -78q-6 -23 -32 -23h-234l-40 -184h280q24 0 24 -19q0 -15 -15 -79q-6 -23 -34 -23zM546 915q20 0 20 -23q0 -19 -10 -44
q-40 -93 -166 -93q-63 0 -103.5 29t-40.5 84q0 18 3 28q6 19 28 19h29q26 0 27 -21q2 -16 7 -25q13 -28 59 -28q38 0 55.5 12.5t27.5 38.5q6 14 12 18.5t20 4.5h32z" />
    <glyph glyph-name="ebreve" unicode="&#x115;" horiz-adv-x="521" 
d="M171 208q-3 -22 -3 -35q0 -44 24.5 -58.5t77.5 -14.5q60 0 122 15q20 5 27 5q15 0 18 -16q10 -34 10 -58q0 -21 -21 -30q-71 -29 -198 -29q-108 0 -152.5 44.5t-44.5 133.5q0 66 21.5 141.5t65.5 125.5q69 79 204 79q98 0 138 -36.5t40 -106.5q0 -52 -13 -122
q-4 -24 -18 -32q-7 -6 -27 -6h-271zM187 303h182q9 31 9 55q0 28 -16 42t-57 14q-47 0 -73 -23q-29 -25 -45 -88zM473 740q19 0 19 -23q0 -19 -11 -46q-21 -49 -58 -74.5t-104 -25.5q-65 0 -99 31.5t-34 76.5q0 21 3 34q4 27 26 27h27q24 0 24 -22q0 -18 4 -27
q12 -33 61 -33q38 0 53.5 14t27.5 45q9 23 31 23h30z" />
    <glyph glyph-name="Edotaccent" unicode="&#x116;" horiz-adv-x="554" 
d="M452 0h-391q-23 0 -23 19q0 8 3 23l135 632q7 32 35 32h360q23 0 23 -17q0 -7 -16 -82q-4 -22 -33 -22h-249l-35 -159h232q24 0 24 -20q0 -18 -14 -78q-6 -23 -32 -23h-234l-40 -184h280q24 0 24 -19q0 -15 -15 -79q-6 -23 -34 -23zM461 847q0 -44 -21 -65
q-18 -18 -50 -18q-54 0 -54 49q0 39 20 62q19 20 51 20q54 0 54 -48z" />
    <glyph glyph-name="edotaccent" unicode="&#x117;" horiz-adv-x="521" 
d="M171 208q-3 -22 -3 -35q0 -44 24.5 -58.5t77.5 -14.5q60 0 122 15q20 5 27 5q15 0 18 -16q10 -34 10 -58q0 -21 -21 -30q-71 -29 -198 -29q-108 0 -152.5 44.5t-44.5 133.5q0 66 21.5 141.5t65.5 125.5q69 79 204 79q98 0 138 -36.5t40 -106.5q0 -52 -13 -122
q-4 -24 -18 -32q-7 -6 -27 -6h-271zM187 303h182q9 31 9 55q0 28 -16 42t-57 14q-47 0 -73 -23q-29 -25 -45 -88zM398 674q0 -44 -21 -65q-19 -17 -50 -17q-54 0 -54 49q0 38 20 61q20 21 51 21q54 0 54 -49z" />
    <glyph glyph-name="Eogonek" unicode="&#x118;" horiz-adv-x="554" 
d="M452 0h-12q-33 -21 -52.5 -36.5t-38 -43t-18.5 -56.5q0 -38 39 -38q10 0 26 2.5t18 2.5q9 0 13 -4.5t7 -16.5q4 -12 4 -30q0 -21 -26 -28q-23 -7 -72 -7q-112 0 -112 92q0 58 32 95.5t91 67.5h-290q-23 0 -23 19q0 8 3 23l135 632q7 32 35 32h360q23 0 23 -17
q0 -7 -16 -82q-4 -22 -33 -22h-249l-35 -159h232q24 0 24 -20q0 -18 -14 -78q-6 -23 -32 -23h-234l-40 -184h280q24 0 24 -19q0 -15 -15 -79q-6 -23 -34 -23z" />
    <glyph glyph-name="eogonek" unicode="&#x119;" horiz-adv-x="521" 
d="M171 208q-3 -22 -3 -35q0 -44 24.5 -58.5t77.5 -14.5q60 0 122 15q20 5 27 5q15 0 18 -16q10 -34 10 -58q0 -21 -21 -30q-26 -10 -54 -16q-64 -42 -83 -66q-24 -29 -24 -64t38 -35q10 0 25 2t17 2q9 0 13 -3.5t7 -14.5q4 -18 4 -31q0 -12 -5.5 -17.5t-20.5 -9.5
q-23 -6 -69 -6q-109 0 -109 88q0 89 95 143q-11 -1 -32 -1q-108 0 -152.5 44.5t-44.5 133.5q0 66 21.5 141.5t65.5 125.5q69 79 204 79q98 0 138 -36.5t40 -106.5q0 -52 -13 -122q-4 -24 -18 -32q-7 -6 -27 -6h-271zM187 303h182q9 31 9 55q0 28 -16 42t-57 14
q-47 0 -73 -23q-29 -25 -45 -88z" />
    <glyph glyph-name="Ecaron" unicode="&#x11a;" horiz-adv-x="554" 
d="M452 0h-391q-23 0 -23 19q0 8 3 23l135 632q7 32 35 32h360q23 0 23 -17q0 -7 -16 -82q-4 -22 -33 -22h-249l-35 -159h232q24 0 24 -20q0 -18 -14 -78q-6 -23 -32 -23h-234l-40 -184h280q24 0 24 -19q0 -15 -15 -79q-6 -23 -34 -23zM521 926h50q22 0 22 -19
q0 -10 -12 -22l-116 -100q-32 -26 -53 -26h-54q-22 0 -40 23l-79 102q-8 9 -8 21q0 21 31 21h40q22 0 39 -19l56 -58l80 58q27 19 44 19z" />
    <glyph glyph-name="ecaron" unicode="&#x11b;" horiz-adv-x="521" 
d="M171 208q-3 -22 -3 -35q0 -44 24.5 -58.5t77.5 -14.5q60 0 122 15q20 5 27 5q15 0 18 -16q10 -34 10 -58q0 -21 -21 -30q-71 -29 -198 -29q-108 0 -152.5 44.5t-44.5 133.5q0 66 21.5 141.5t65.5 125.5q69 79 204 79q98 0 138 -36.5t40 -106.5q0 -52 -13 -122
q-4 -24 -18 -32q-7 -6 -27 -6h-271zM187 303h182q9 31 9 55q0 28 -16 42t-57 14q-47 0 -73 -23q-29 -25 -45 -88zM454 760h48q20 0 20 -18q0 -8 -12 -22l-107 -117q-24 -26 -43 -26h-62q-21 0 -34 25l-61 119q-5 12 -5 20q0 19 27 19h42q21 0 33 -19l42 -72l72 72
q19 19 40 19z" />
    <glyph glyph-name="Gcircumflex" unicode="&#x11c;" horiz-adv-x="658" 
d="M569 65q-7 -29 -31 -40q-82 -38 -239 -38q-116 0 -180 56.5t-64 172.5q0 110 34.5 227.5t102.5 187.5q86 89 260 89q95 0 165 -19q20 -5 20 -24q0 -16 -20 -76q-5 -15 -22 -15q-6 0 -32 6q-62 11 -121 11q-100 0 -145 -45q-46 -47 -72 -140.5t-26 -174.5q0 -71 33 -105
t106 -34q72 0 123 18l34 134h-115q-19 0 -19 16q0 18 15 83q5 20 26 20h204q24 0 24 -18q0 -6 -5 -31zM354 759h-49q-23 0 -23 19q0 10 13 21l115 100q29 27 53 27h54q23 0 41 -23l79 -103q7 -10 7 -20q0 -21 -30 -21h-40q-21 0 -40 19l-56 58l-80 -59q-24 -18 -44 -18z" />
    <glyph glyph-name="gcircumflex" unicode="&#x11d;" horiz-adv-x="521" 
d="M61 4q-61 19 -61 82q0 93 91 129q-26 26 -26 81q0 127 88 180q57 34 155 34q59 0 95 -13h125q23 0 23 -20q0 -11 -8 -60q-4 -23 -29 -23h-41q6 -12 6 -39q0 -90 -57 -142q-58 -52 -168 -52q-32 0 -62 6q-18 3 -28 3q-14 0 -21 -6q-18 -14 -18 -38q0 -23 22 -27
q17 -4 122 -4q116 0 163.5 -27t47.5 -92q0 -124 -69.5 -174t-218.5 -50q-127 0 -175 34t-48 91q0 93 92 127zM348 -67q0 24 -19 35.5t-70 12.5q-37 1 -78 1q-20 0 -36 -6q-44 -20 -44 -61q0 -57 112 -57q69 0 102 14.5t33 60.5zM362 356q0 54 -73 54q-39 0 -60 -15
q-37 -27 -37 -82q0 -53 73 -53q50 0 72 25q25 26 25 71zM229 577h-48q-20 0 -20 17q0 9 12 23l107 117q24 26 43 26h62q21 0 34 -25l61 -119q5 -12 5 -20q0 -19 -27 -19h-42q-21 0 -33 19l-42 71l-72 -71q-19 -19 -40 -19z" />
    <glyph glyph-name="Gbreve" unicode="&#x11e;" horiz-adv-x="658" 
d="M569 65q-7 -29 -31 -40q-82 -38 -239 -38q-116 0 -180 56.5t-64 172.5q0 110 34.5 227.5t102.5 187.5q86 89 260 89q95 0 165 -19q20 -5 20 -24q0 -16 -20 -76q-5 -15 -22 -15q-6 0 -32 6q-62 11 -121 11q-100 0 -145 -45q-46 -47 -72 -140.5t-26 -174.5q0 -71 33 -105
t106 -34q72 0 123 18l34 134h-115q-19 0 -19 16q0 18 15 83q5 20 26 20h204q24 0 24 -18q0 -6 -5 -31zM605 915q20 0 20 -23q0 -19 -10 -44q-40 -93 -166 -93q-63 0 -103.5 29t-40.5 84q0 18 3 28q6 19 28 19h29q26 0 27 -21q2 -16 7 -25q13 -28 59 -28q38 0 55.5 12.5
t27.5 38.5q6 14 12 18.5t20 4.5h32z" />
    <glyph glyph-name="gbreve" unicode="&#x11f;" horiz-adv-x="521" 
d="M61 4q-61 19 -61 82q0 93 91 129q-26 26 -26 81q0 127 88 180q57 34 155 34q59 0 95 -13h125q23 0 23 -20q0 -11 -8 -60q-4 -23 -29 -23h-41q6 -12 6 -39q0 -90 -57 -142q-58 -52 -168 -52q-32 0 -62 6q-18 3 -28 3q-14 0 -21 -6q-18 -14 -18 -38q0 -23 22 -27
q17 -4 122 -4q116 0 163.5 -27t47.5 -92q0 -124 -69.5 -174t-218.5 -50q-127 0 -175 34t-48 91q0 93 92 127zM348 -67q0 24 -19 35.5t-70 12.5q-37 1 -78 1q-20 0 -36 -6q-44 -20 -44 -61q0 -57 112 -57q69 0 102 14.5t33 60.5zM362 356q0 54 -73 54q-39 0 -60 -15
q-37 -27 -37 -82q0 -53 73 -53q50 0 72 25q25 26 25 71zM475 740q19 0 19 -23q0 -19 -11 -46q-21 -49 -58 -74.5t-104 -25.5q-65 0 -99 31.5t-34 76.5q0 21 3 34q4 27 26 27h27q24 0 24 -22q0 -18 4 -27q12 -33 61 -33q38 0 53.5 14t27.5 45q9 23 31 23h30z" />
    <glyph glyph-name="Gdotaccent" unicode="&#x120;" horiz-adv-x="658" 
d="M569 65q-7 -29 -31 -40q-82 -38 -239 -38q-116 0 -180 56.5t-64 172.5q0 110 34.5 227.5t102.5 187.5q86 89 260 89q95 0 165 -19q20 -5 20 -24q0 -16 -20 -76q-5 -15 -22 -15q-6 0 -32 6q-62 11 -121 11q-100 0 -145 -45q-46 -47 -72 -140.5t-26 -174.5q0 -71 33 -105
t106 -34q72 0 123 18l34 134h-115q-19 0 -19 16q0 18 15 83q5 20 26 20h204q24 0 24 -18q0 -6 -5 -31zM505 847q0 -44 -21 -65q-18 -18 -50 -18q-54 0 -54 49q0 39 20 62q19 20 51 20q54 0 54 -48z" />
    <glyph glyph-name="gdotaccent" unicode="&#x121;" horiz-adv-x="521" 
d="M61 4q-61 19 -61 82q0 93 91 129q-26 26 -26 81q0 127 88 180q57 34 155 34q59 0 95 -13h125q23 0 23 -20q0 -11 -8 -60q-4 -23 -29 -23h-41q6 -12 6 -39q0 -90 -57 -142q-58 -52 -168 -52q-32 0 -62 6q-18 3 -28 3q-14 0 -21 -6q-18 -14 -18 -38q0 -23 22 -27
q17 -4 122 -4q116 0 163.5 -27t47.5 -92q0 -124 -69.5 -174t-218.5 -50q-127 0 -175 34t-48 91q0 93 92 127zM348 -67q0 24 -19 35.5t-70 12.5q-37 1 -78 1q-20 0 -36 -6q-44 -20 -44 -61q0 -57 112 -57q69 0 102 14.5t33 60.5zM362 356q0 54 -73 54q-39 0 -60 -15
q-37 -27 -37 -82q0 -53 73 -53q50 0 72 25q25 26 25 71zM386 674q0 -44 -21 -65q-19 -17 -50 -17q-54 0 -54 49q0 38 20 61q20 21 51 21q54 0 54 -49z" />
    <glyph glyph-name="Gcommaaccent" unicode="&#x122;" horiz-adv-x="658" 
d="M569 65q-7 -29 -31 -40q-82 -38 -239 -38q-116 0 -180 56.5t-64 172.5q0 110 34.5 227.5t102.5 187.5q86 89 260 89q95 0 165 -19q20 -5 20 -24q0 -16 -20 -76q-5 -15 -22 -15q-6 0 -32 6q-62 11 -121 11q-100 0 -145 -45q-46 -47 -72 -140.5t-26 -174.5q0 -71 33 -105
t106 -34q72 0 123 18l34 134h-115q-19 0 -19 16q0 18 15 83q5 20 26 20h204q24 0 24 -18q0 -6 -5 -31zM346 -64q29 0 29 -29q0 -21 -9 -47q-26 -80 -79 -130q-20 -20 -37 -20q-16 0 -32 11q-14 10 -14 22q0 13 12 27q40 50 50 127q5 39 39 39h41z" />
    <glyph glyph-name="gcommaaccent" unicode="&#x123;" horiz-adv-x="521" 
d="M61 4q-61 19 -61 82q0 93 91 129q-26 24 -26 81q0 127 88 180q57 34 155 34q59 0 95 -13h125q23 0 23 -20q0 -11 -8 -60q-4 -23 -29 -23h-42q7 -14 7 -39q0 -88 -56 -142q-55 -52 -171 -52q-30 0 -60 6q-18 3 -28 3q-14 0 -21 -6q-18 -14 -18 -38q0 -23 22 -27
q17 -4 122 -4q116 0 163.5 -28t47.5 -93q0 -124 -69.5 -173t-218.5 -49q-127 0 -175 34t-48 91q0 93 92 127zM348 -67q0 24 -19 35.5t-70 12.5q-37 1 -78 1q-20 0 -36 -6q-44 -19 -44 -60q0 -59 112 -59q68 0 101.5 15t33.5 61zM362 356q0 54 -73 54q-41 0 -59 -14
q-38 -25 -38 -83q0 -53 73 -53q50 0 72 25q25 26 25 71zM324 577h-38q-29 0 -29 28q0 25 13 61q25 70 77 116q20 18 35 18q11 0 29 -12q13 -9 13 -21q0 -9 -12 -27q-37 -49 -48 -124q-5 -39 -40 -39z" />
    <glyph glyph-name="Hcircumflex" unicode="&#x124;" horiz-adv-x="705" 
d="M176 27q-6 -28 -32 -28h-85q-21 0 -21 20q0 9 2 19l137 639q7 30 32 30h85q23 0 23 -19q0 -7 -4 -29l-52 -233h260l55 251q7 30 32 30h84q24 0 24 -19q0 -2 -5 -29l-136 -632q-6 -28 -32 -28h-86q-21 0 -21 20q0 4 3 19l57 267h-259zM350 759h-49q-23 0 -23 19
q0 10 13 21l115 100q29 27 53 27h54q23 0 41 -23l79 -103q7 -10 7 -20q0 -21 -30 -21h-40q-21 0 -40 19l-56 58l-80 -59q-24 -18 -44 -18z" />
    <glyph glyph-name="hcircumflex" unicode="&#x125;" horiz-adv-x="586" 
d="M159 27q-6 -28 -31 -28h-83q-20 0 -20 19q0 7 3 19l143 678q6 33 33 33h79q25 0 25 -17q0 -3 -4 -27l-53 -244q60 49 159 49q135 0 135 -88q0 -38 -10 -82l-68 -314q-5 -26 -30 -26h-83q-20 0 -20 19q0 7 2 17l60 281q6 24 6 42q0 36 -59 36q-44 0 -80 -13
q-20 -9 -25 -14q-7 -9 -12 -29zM186 778h-49q-23 0 -23 19q0 10 13 21l115 100q29 27 53 27h54q23 0 41 -23l79 -103q7 -10 7 -20q0 -21 -30 -21h-40q-21 0 -40 19l-56 58l-80 -59q-24 -18 -44 -18z" />
    <glyph glyph-name="Hbar" unicode="&#x126;" horiz-adv-x="705" 
d="M176 27q-6 -28 -32 -28h-85q-21 0 -21 20q0 9 2 19l96 451h-46q-21 0 -21 19q0 13 11 61q7 24 30 24h49l18 84q7 30 32 30h85q23 0 23 -19q0 -7 -4 -29l-15 -66h259l19 84q7 30 32 30h84q24 0 24 -19q0 -2 -5 -29l-14 -66h40q22 0 22 -18q0 -4 -12 -64
q-4 -13 -10.5 -17.5t-20.5 -4.5h-42l-99 -462q-6 -28 -32 -28h-86q-21 0 -21 20q0 4 3 19l57 267h-259zM261 426h260l14 63h-260z" />
    <glyph glyph-name="hbar" unicode="&#x127;" horiz-adv-x="586" 
d="M159 27q-6 -28 -31 -28h-83q-20 0 -20 19q0 7 3 19l113 537h-37q-22 0 -22 19q0 4 10 49q7 25 30 25h39l10 48q6 33 33 33h79q25 0 25 -17q0 -3 -4 -27l-8 -37h80q22 0 22 -20q0 -4 -10 -52q-5 -21 -30 -21h-82l-25 -114q60 49 159 49q135 0 135 -88q0 -38 -10 -82
l-68 -314q-5 -26 -30 -26h-83q-20 0 -20 19q0 7 2 17l60 281q6 24 6 42q0 36 -59 36q-44 0 -80 -13q-20 -9 -25 -14q-7 -9 -12 -29z" />
    <glyph glyph-name="Itilde" unicode="&#x128;" horiz-adv-x="306" 
d="M176 27q-6 -28 -32 -28h-85q-21 0 -21 20q0 9 2 19l137 639q7 30 32 30h85q23 0 23 -19q0 -7 -4 -29zM144 759h-31q-24 0 -24 20q0 10 9 31q42 96 109 96q26 0 70 -26q35 -19 55 -19q21 0 38 29q12 20 35 20h27q24 0 24 -19q0 -15 -13 -39q-43 -88 -103 -88q-37 0 -79 25
q-29 17 -46 17q-23 0 -38 -26q-14 -21 -33 -21z" />
    <glyph glyph-name="itilde" unicode="&#x129;" horiz-adv-x="275" 
d="M97 585h-32q-22 0 -22 20q0 10 8 31q39 96 106 96q19 0 66 -26q32 -19 51 -19q20 0 37 29q11 20 34 20h27q23 0 23 -20q0 -12 -12 -38q-39 -88 -99 -88q-33 0 -76 25q-29 17 -44 17q-21 0 -36 -25q-13 -22 -31 -22zM159 27q-6 -28 -30 -28h-84q-20 0 -20 19q0 10 3 22
l92 430q7 28 30 28h85q19 0 19 -19q0 -6 -3 -24z" />
    <glyph glyph-name="Imacron" unicode="&#x12a;" horiz-adv-x="306" 
d="M176 27q-6 -28 -32 -28h-85q-21 0 -21 20q0 9 2 19l137 639q7 30 32 30h85q23 0 23 -19q0 -7 -4 -29zM386 779h-258q-22 0 -22 19q0 14 11 51q7 25 31 25h256q23 0 23 -19q0 -15 -10 -52q-6 -24 -31 -24z" />
    <glyph glyph-name="imacron" unicode="&#x12b;" horiz-adv-x="275" 
d="M317 599h-224q-22 0 -22 19q0 16 9 52q8 25 32 25h222q24 0 24 -19q0 -17 -10 -54q-4 -14 -10.5 -18.5t-20.5 -4.5zM159 27q-6 -28 -30 -28h-84q-20 0 -20 19q0 10 3 22l92 430q7 28 30 28h85q19 0 19 -19q0 -6 -3 -24z" />
    <glyph glyph-name="Ibreve" unicode="&#x12c;" horiz-adv-x="306" 
d="M176 27q-6 -28 -32 -28h-85q-21 0 -21 20q0 9 2 19l137 639q7 30 32 30h85q23 0 23 -19q0 -7 -4 -29zM412 915q20 0 20 -23q0 -19 -10 -44q-40 -93 -166 -93q-63 0 -103.5 29t-40.5 84q0 18 3 28q6 19 28 19h29q26 0 27 -21q2 -16 7 -25q13 -28 59 -28q38 0 55.5 12.5
t27.5 38.5q6 14 12 18.5t20 4.5h32z" />
    <glyph glyph-name="ibreve" unicode="&#x12d;" horiz-adv-x="275" 
d="M351 740q19 0 19 -23q0 -19 -11 -46q-21 -49 -58 -74.5t-104 -25.5q-65 0 -99 31.5t-34 76.5q0 21 3 34q4 27 26 27h27q24 0 24 -22q0 -18 4 -27q12 -33 61 -33q38 0 53.5 14t27.5 45q9 23 31 23h30zM159 27q-6 -28 -30 -28h-84q-20 0 -20 19q0 10 3 22l92 430
q7 28 30 28h85q19 0 19 -19q0 -6 -3 -24z" />
    <glyph glyph-name="Iogonek" unicode="&#x12e;" horiz-adv-x="306" 
d="M176 27q-6 -28 -32 -28h-1q-33 -21 -52.5 -36.5t-37.5 -42.5t-18 -56q0 -38 39 -38q10 0 26 2.5t18 2.5q9 0 13 -4.5t7 -16.5q4 -12 4 -30q0 -21 -26 -28q-23 -7 -72 -7q-112 0 -112 92q0 58 31.5 95t90.5 67q-16 1 -16 20q0 9 2 19l137 639q7 30 32 30h85q23 0 23 -19
q0 -7 -4 -29z" />
    <glyph glyph-name="iogonek" unicode="&#x12f;" horiz-adv-x="275" 
d="M129 -1h-1q-28 -18 -39 -26.5t-30.5 -26t-27.5 -36t-8 -40.5q0 -35 38 -35q10 0 25 2t17 2q9 0 13 -3.5t7 -14.5q4 -18 4 -31q0 -12 -5.5 -17.5t-20.5 -9.5q-23 -6 -69 -6q-109 0 -109 88q0 54 30.5 90t86.5 64q-15 1 -15 19q0 1 3 22l92 430q7 28 30 28h84q20 0 20 -19
q0 -12 -4 -26l-91 -426q-6 -28 -30 -28zM293 675q0 -44 -27 -71q-22 -20 -57 -20q-63 0 -63 54q0 46 22 69q24 24 61 24q64 0 64 -56z" />
    <glyph glyph-name="Idotaccent" unicode="&#x130;" horiz-adv-x="306" 
d="M176 27q-6 -28 -32 -28h-85q-21 0 -21 20q0 9 2 19l137 639q7 30 32 30h85q23 0 23 -19q0 -7 -4 -29zM340 847q0 -44 -21 -65q-18 -18 -50 -18q-54 0 -54 49q0 39 20 62q19 20 51 20q54 0 54 -48z" />
    <glyph glyph-name="dotlessi" unicode="&#x131;" horiz-adv-x="275" 
d="M159 27q-6 -28 -30 -28h-84q-20 0 -20 19q0 10 3 22l92 430q7 28 30 28h85q19 0 19 -19q0 -6 -3 -24z" />
    <glyph glyph-name="IJ" unicode="&#x132;" horiz-adv-x="643" 
d="M176 27q-6 -28 -32 -28h-85q-21 0 -21 20q0 9 2 19l137 639q7 30 32 30h85q23 0 23 -19q0 -7 -4 -29zM516 99q-23 -106 -71 -151q-56 -51 -166 -51q-33 0 -49 5q-15 4 -15 26q0 16 12 62q7 25 29 25q3 0 17 -0.5t21 -0.5q33 0 53 16q18 16 34 88l120 559q7 30 34 30h85
q21 0 21 -18q0 -10 -3 -22z" />
    <glyph glyph-name="ij" unicode="&#x133;" horiz-adv-x="555" 
d="M129 -1h-84q-20 0 -20 19q0 1 3 22l92 430q7 28 30 28h84q20 0 20 -19q0 -12 -4 -26l-91 -426q-6 -28 -30 -28zM293 675q0 -44 -27 -71q-22 -20 -57 -20q-63 0 -63 54q0 46 22 69q24 24 61 24q64 0 64 -56zM419 -48q-24 -112 -65 -149q-31 -28 -71.5 -40t-114.5 -12
q-38 0 -38 30q0 21 11 58q7 27 36 27q48 0 74 15q24 15 35 70l110 519q7 28 31 28h82q21 0 21 -17q0 -11 -2 -21zM570 675q0 -44 -27 -71q-22 -20 -57 -20q-63 0 -63 54q0 46 22 69q24 24 61 24q64 0 64 -56z" />
    <glyph glyph-name="Jcircumflex" unicode="&#x134;" horiz-adv-x="322" 
d="M209 99q-23 -106 -71 -151q-56 -51 -166 -51q-33 0 -49 5q-15 4 -15 26q0 16 12 62q7 25 29 25q3 0 17 -0.5t21 -0.5q33 0 53 16q18 16 34 88l120 559q7 30 34 30h85q21 0 21 -18q0 -10 -3 -22zM160 759h-49q-23 0 -23 19q0 10 13 21l115 100q29 27 53 27h54q23 0 41 -23
l79 -103q7 -10 7 -20q0 -21 -30 -21h-40q-21 0 -40 19l-56 58l-80 -59q-24 -18 -44 -18z" />
    <glyph glyph-name="jcircumflex" unicode="&#x135;" horiz-adv-x="275" 
d="M143 -48q-24 -112 -65 -149q-31 -28 -71.5 -40t-114.5 -12q-38 0 -38 30q0 13 10 55q7 27 36 27q48 0 73 15t36 70l111 522q7 28 31 28h82q21 0 21 -17q0 -11 -2 -21zM106 577h-48q-20 0 -20 17q0 9 12 23l107 117q24 26 43 26h62q21 0 34 -25l61 -119q5 -12 5 -20
q0 -19 -27 -19h-42q-21 0 -33 19l-42 71l-72 -71q-19 -19 -40 -19z" />
    <glyph glyph-name="Kcommaaccent" unicode="&#x136;" horiz-adv-x="638" 
d="M176 27q-6 -28 -31 -28h-86q-22 0 -22 20q0 3 0.5 7.5t2 9.5t1.5 7l136 634q7 30 32 30h86q22 0 22 -20q0 -1 -3 -19l-53 -245h42q34 0 50 21l178 241q16 22 40 22h83q20 0 20 -18q0 -12 -13 -28q-185 -248 -233 -307q20 -42 128 -302q7 -19 7 -30q0 -23 -27 -23h-87
q-21 0 -30 21l-106 267q-7 17 -36 17h-40zM298 -64q29 0 29 -29q0 -21 -9 -47q-26 -80 -79 -130q-20 -20 -37 -20q-16 0 -32 11q-14 10 -14 22q0 13 12 27q40 50 50 127q5 39 39 39h41z" />
    <glyph glyph-name="kcommaaccent" unicode="&#x137;" horiz-adv-x="543" 
d="M159 27q-6 -28 -29 -28h-82q-23 0 -23 20q0 10 3 22l144 675q6 29 30 29h83q21 0 21 -18q0 -8 -2 -20l-80 -374h30q34 0 50 21l98 124q15 20 40 20h84q21 0 21 -20q0 -10 -15 -28q-114 -142 -148 -181l98 -221q7 -15 7 -27q0 -10 -7 -16t-18 -6h-83q-21 0 -33 27l-78 178
q-7 17 -35 17h-34zM256 -64q29 0 29 -29q0 -21 -9 -47q-26 -80 -79 -130q-20 -20 -37 -20q-16 0 -32 11q-14 10 -14 22q0 13 12 27q40 50 50 127q5 39 39 39h41z" />
    <glyph glyph-name="kgreenlandic" unicode="&#x138;" horiz-adv-x="543" 
d="M159 27q-6 -28 -29 -28h-82q-23 0 -23 20q0 10 3 22l91 428q6 29 31 29h82q22 0 22 -17q0 -11 -2 -21l-31 -138h28q35 0 50 21l106 135q15 20 38 20h83q21 0 21 -20q0 -8 -15 -28l-148 -184l98 -218q7 -15 7 -27q0 -22 -25 -22h-83q-23 0 -33 27l-76 167q-8 19 -35 19
h-38z" />
    <glyph glyph-name="Lacute" unicode="&#x139;" horiz-adv-x="558" 
d="M445 0h-385q-22 0 -22 20q0 3 3 21l136 637q6 29 33 29h85q21 0 21 -18q0 -9 -3 -20l-117 -548h273q23 0 23 -17q0 -16 -15 -82q-6 -22 -32 -22zM304 772q-23 -13 -45 -13h-59q-20 0 -20 15q0 14 13 25l128 98q23 18 45 18h93q23 0 23 -16q0 -18 -14 -26z" />
    <glyph glyph-name="lacute" unicode="&#x13a;" horiz-adv-x="276" 
d="M159 27q-6 -28 -29 -28h-83q-22 0 -22 20q0 10 3 22l145 679q6 28 30 28h83q22 0 22 -17q0 -5 -3 -20zM284 792q-23 -13 -45 -13h-59q-20 0 -20 15q0 14 13 25l128 98q23 18 45 18h93q23 0 23 -16q0 -18 -14 -26z" />
    <glyph glyph-name="Lcommaaccent" unicode="&#x13b;" horiz-adv-x="558" 
d="M445 0h-385q-22 0 -22 20q0 3 3 21l136 637q6 29 33 29h85q21 0 21 -18q0 -9 -3 -20l-117 -548h273q23 0 23 -17q0 -16 -15 -82q-6 -22 -32 -22zM280 -64q29 0 29 -29q0 -21 -9 -47q-26 -80 -79 -130q-20 -20 -37 -20q-16 0 -32 11q-14 10 -14 22q0 13 12 27
q40 50 50 127q5 39 39 39h41z" />
    <glyph glyph-name="lcommaaccent" unicode="&#x13c;" horiz-adv-x="276" 
d="M159 27q-6 -28 -29 -28h-83q-22 0 -22 20q0 10 3 22l145 679q6 28 30 28h83q22 0 22 -17q0 -5 -3 -20zM99 -64q29 0 29 -29q0 -21 -9 -47q-26 -80 -79 -130q-20 -20 -37 -20q-15 0 -32 11q-14 10 -14 22q0 13 12 27q40 50 50 127q5 39 39 39h41z" />
    <glyph glyph-name="Lcaron" unicode="&#x13d;" horiz-adv-x="558" 
d="M445 0h-385q-22 0 -22 20q0 3 3 21l136 637q6 29 33 29h85q21 0 21 -18q0 -9 -3 -20l-117 -548h273q23 0 23 -17q0 -16 -15 -82q-6 -22 -32 -22zM488 723q29 0 29 -28q0 -25 -13 -59q-24 -71 -75 -119q-20 -20 -37 -20q-14 0 -32 12q-14 9 -14 21q0 9 12 27q42 54 50 127
q5 39 39 39h41z" />
    <glyph glyph-name="lcaron" unicode="&#x13e;" horiz-adv-x="276" 
d="M159 27q-6 -28 -29 -28h-83q-22 0 -22 20q0 10 3 22l145 679q6 28 30 28h83q22 0 22 -17q0 -5 -3 -20zM461 747q29 0 29 -28q0 -25 -13 -59q-24 -71 -75 -119q-20 -20 -37 -20q-14 0 -32 12q-14 9 -14 21q0 9 12 27q42 54 50 127q5 39 39 39h41z" />
    <glyph glyph-name="Ldot" unicode="&#x13f;" horiz-adv-x="558" 
d="M451 0h-385q-22 0 -22 20q0 2 3 20l136 638q6 29 33 29h86q21 0 21 -18q0 -2 -0.5 -5.5t-1.5 -8t-1 -6.5l-118 -550h274q23 0 23 -17q0 -14 -16 -80q-6 -22 -32 -22zM533 378q0 -54 -29 -80q-22 -22 -62 -22q-69 0 -69 64q0 45 26 74q25 26 65 26q69 0 69 -62z" />
    <glyph glyph-name="ldot" unicode="&#x140;" horiz-adv-x="412" 
d="M166 27q-6 -28 -29 -28h-83q-22 0 -22 20q0 10 3 22l145 679q6 28 30 28h83q21 0 21 -17q0 -10 -2 -20zM448 377q0 -52 -28 -77q-22 -22 -60 -22q-67 0 -67 63q0 43 25 71q23 26 63 26q67 0 67 -61z" />
    <glyph glyph-name="Lslash" unicode="&#x141;" horiz-adv-x="558" 
d="M445 0h-385q-22 0 -22 20q0 3 3 21l41 193l-22 -12q-8 -4 -20 -4q-10 0 -19 16q-24 45 -24 57t14 20l99 55l67 312q6 29 33 29h85q21 0 21 -18q0 -9 -3 -20l-46 -216l94 53q9 5 20 5q9 0 17 -15q27 -46 27 -57t-14 -20l-172 -97l-43 -201h273q23 0 23 -17q0 -16 -15 -82
q-6 -22 -32 -22z" />
    <glyph glyph-name="lslash" unicode="&#x142;" horiz-adv-x="276" 
d="M159 27q-6 -28 -29 -28h-83q-22 0 -22 20q0 10 3 22l48 225l-15 -8q-14 -7 -21 -7q-10 1 -17 15q-21 43 -21 50q1 12 17 21l81 42l73 341q6 28 30 28h83q22 0 22 -17q0 -5 -3 -20l-54 -253l21 11q10 5 19 5q11 0 19 -15q20 -40 20 -50q0 -12 -16 -19l-87 -46z" />
    <glyph glyph-name="Nacute" unicode="&#x143;" horiz-adv-x="701" 
d="M172 27q-6 -28 -32 -28h-81q-21 0 -21 21q0 9 3 20l135 637q7 30 34 30h71q22 0 30 -20q108 -248 176 -427q29 153 89 416q7 31 32 31h83q21 0 21 -19q0 -8 -2 -18l-137 -641q-6 -30 -34 -30h-61q-27 0 -37 23q-134 319 -176 433q-6 -31 -93 -428zM488 772
q-23 -13 -45 -13h-59q-20 0 -20 15q0 14 13 25l128 98q23 18 45 18h93q23 0 23 -16q0 -18 -14 -26z" />
    <glyph glyph-name="nacute" unicode="&#x144;" horiz-adv-x="586" 
d="M159 27q-6 -28 -31 -28h-83q-20 0 -20 19q0 7 3 19l91 429q6 33 34 33h75q14 0 19.5 -5t5.5 -17q0 -10 -2 -17q60 49 159 49q135 0 135 -88q0 -38 -10 -82l-68 -314q-5 -26 -30 -26h-83q-20 0 -20 19q0 7 2 17l60 281q6 24 6 42q0 36 -59 36q-44 0 -80 -13
q-20 -9 -25 -14q-7 -8 -12 -29zM376 598q-18 -18 -41 -18h-49q-24 0 -24 18q0 11 10 23l107 117q19 22 39 22h79q25 0 25 -19q0 -10 -13 -23z" />
    <glyph glyph-name="Ncommaaccent" unicode="&#x145;" horiz-adv-x="701" 
d="M172 27q-6 -28 -32 -28h-81q-21 0 -21 21q0 9 3 20l135 637q7 30 34 30h71q22 0 30 -20q108 -248 176 -427q29 153 89 416q7 31 32 31h83q21 0 21 -19q0 -8 -2 -18l-137 -641q-6 -30 -34 -30h-61q-27 0 -37 23q-134 319 -176 433q-6 -31 -93 -428zM328 -64q29 0 29 -29
q0 -21 -9 -47q-26 -80 -79 -130q-20 -20 -37 -20q-16 0 -32 11q-14 10 -14 22q0 13 12 27q40 50 50 127q5 39 39 39h41z" />
    <glyph glyph-name="ncommaaccent" unicode="&#x146;" horiz-adv-x="586" 
d="M159 27q-6 -28 -31 -28h-83q-20 0 -20 19q0 7 3 19l91 429q6 33 34 33h75q14 0 19.5 -5t5.5 -17q0 -10 -2 -17q60 49 159 49q135 0 135 -88q0 -38 -10 -82l-68 -314q-5 -26 -30 -26h-83q-20 0 -20 19q0 7 2 17l60 281q6 24 6 42q0 36 -59 36q-44 0 -80 -13
q-20 -9 -25 -14q-7 -8 -12 -29zM261 -64q29 0 29 -29q0 -21 -9 -47q-26 -80 -79 -130q-20 -20 -37 -20q-15 0 -32 11q-14 10 -14 22q0 13 12 27q40 50 50 127q5 39 39 39h41z" />
    <glyph glyph-name="Ncaron" unicode="&#x147;" horiz-adv-x="701" 
d="M172 27q-6 -28 -32 -28h-81q-21 0 -21 21q0 9 3 20l135 637q7 30 34 30h71q22 0 30 -20q108 -248 176 -427q29 153 89 416q7 31 32 31h83q21 0 21 -19q0 -8 -2 -18l-137 -641q-6 -30 -34 -30h-61q-27 0 -37 23q-134 319 -176 433q-6 -31 -93 -428zM583 926h50
q22 0 22 -19q0 -10 -12 -22l-116 -100q-32 -26 -53 -26h-54q-22 0 -40 23l-79 102q-8 9 -8 21q0 21 31 21h40q22 0 39 -19l56 -58l80 58q27 19 44 19z" />
    <glyph glyph-name="ncaron" unicode="&#x148;" horiz-adv-x="586" 
d="M159 27q-6 -28 -31 -28h-83q-20 0 -20 19q0 7 3 19l91 429q6 33 34 33h75q14 0 19.5 -5t5.5 -17q0 -10 -2 -17q60 49 159 49q135 0 135 -88q0 -38 -10 -82l-68 -314q-5 -26 -30 -26h-83q-20 0 -20 19q0 7 2 17l60 281q6 24 6 42q0 36 -59 36q-44 0 -80 -13
q-20 -9 -25 -14q-7 -8 -12 -29zM466 760h48q20 0 20 -18q0 -8 -12 -22l-107 -117q-24 -26 -43 -26h-62q-21 0 -34 25l-61 119q-5 12 -5 20q0 19 27 19h42q21 0 33 -19l42 -72l72 72q19 19 40 19z" />
    <glyph glyph-name="napostrophe" unicode="&#x149;" horiz-adv-x="586" 
d="M159 27q-6 -28 -31 -28h-83q-20 0 -20 19q0 7 3 19l91 429q6 33 34 33h75q14 0 19.5 -5t5.5 -17q0 -10 -2 -17q60 49 159 49q135 0 135 -88q0 -38 -10 -82l-68 -314q-5 -26 -30 -26h-83q-20 0 -20 19q0 7 2 17l60 281q6 24 6 42q0 36 -59 36q-44 0 -80 -13
q-20 -9 -25 -14q-7 -8 -12 -29zM245 784q29 0 29 -29q0 -22 -9 -47q-26 -80 -79 -130q-20 -20 -37 -20q-15 0 -32 11q-14 10 -14 22q0 13 12 27q40 50 50 127q5 39 39 39h41z" />
    <glyph glyph-name="Eng" unicode="&#x14a;" horiz-adv-x="701" 
d="M172 27q-6 -28 -32 -28h-81q-21 0 -21 21q0 9 3 20l135 637q7 30 34 30h71q22 0 30 -20q122 -280 176 -427q29 153 89 416q7 31 32 31h83q21 0 21 -19q0 -8 -2 -18l-147 -688q-24 -113 -65 -152q-55 -50 -172 -50q-34 0 -50 4q-17 5 -17 27q0 19 12 62q6 26 30 26
q2 0 14.5 -1t22.5 -1q38 0 57 15q5 4 8.5 9.5t7 16l5.5 16.5l5 23q4 17 6 24l9 36q-118 280 -171 418q-6 -31 -93 -428z" />
    <glyph glyph-name="eng" unicode="&#x14b;" horiz-adv-x="586" 
d="M159 27q-6 -28 -31 -28h-83q-20 0 -20 19q0 7 3 19l91 429q6 33 34 33h75q14 0 19.5 -5t5.5 -17q0 -10 -2 -17q60 49 159 49q135 0 135 -88q0 -38 -10 -82l-74 -344q-23 -110 -66 -148q-52 -47 -159 -48q-42 0 -55 5q-15 4 -15 23t12 61q7 22 28 22q3 0 16 -0.5t23 -0.5
q32 0 51 14t35 89l65 304q6 28 6 42q0 36 -59 36q-44 0 -80 -13q-20 -9 -25 -14q-7 -9 -12 -29z" />
    <glyph glyph-name="Omacron" unicode="&#x14c;" horiz-adv-x="697" 
d="M689 507q0 -101 -33.5 -231.5t-96.5 -199.5q-81 -89 -240 -89q-124 0 -193 48.5t-69 175.5q0 106 34 227t98 191q84 91 235 91q62 0 105 -8t82 -29.5t58.5 -65.5t19.5 -110zM544 484q0 69 -29.5 94t-99.5 25q-82 0 -126 -53q-40 -49 -63.5 -147.5t-23.5 -171.5t30 -100.5
t98 -27.5q47 0 77.5 12.5t55.5 49.5q35 52 58 154t23 165zM581 779h-258q-22 0 -22 19q0 14 11 51q7 25 31 25h256q23 0 23 -19q0 -15 -10 -52q-6 -24 -31 -24z" />
    <glyph glyph-name="omacron" unicode="&#x14d;" horiz-adv-x="561" 
d="M531 350q0 -67 -22 -152.5t-64 -136.5q-60 -74 -198 -74q-48 0 -83 7t-66.5 24.5t-48 52t-16.5 86.5q0 75 23.5 155.5t71.5 130.5q64 68 187 68q49 0 83 -5.5t67 -21t49.5 -49t16.5 -85.5zM395 327q0 40 -21.5 55t-66.5 15q-59 0 -86 -37q-23 -32 -36.5 -89.5
t-13.5 -94.5q0 -43 21 -59.5t66 -16.5q63 0 89 39q20 29 34 91.5t14 96.5zM454 599h-224q-22 0 -22 19q0 16 9 52q8 25 32 25h222q24 0 24 -19q0 -17 -10 -54q-4 -14 -10.5 -18.5t-20.5 -4.5z" />
    <glyph glyph-name="Obreve" unicode="&#x14e;" horiz-adv-x="697" 
d="M689 507q0 -101 -33.5 -231.5t-96.5 -199.5q-81 -89 -240 -89q-124 0 -193 48.5t-69 175.5q0 106 34 227t98 191q84 91 235 91q62 0 105 -8t82 -29.5t58.5 -65.5t19.5 -110zM544 484q0 69 -29.5 94t-99.5 25q-82 0 -126 -53q-40 -49 -63.5 -147.5t-23.5 -171.5t30 -100.5
t98 -27.5q47 0 77.5 12.5t55.5 49.5q35 52 58 154t23 165zM606 915q20 0 20 -23q0 -19 -10 -44q-40 -93 -166 -93q-63 0 -103.5 29t-40.5 84q0 18 3 28q6 19 28 19h29q26 0 27 -21q2 -16 7 -25q13 -28 59 -28q38 0 55.5 12.5t27.5 38.5q6 14 12 18.5t20 4.5h32z" />
    <glyph glyph-name="obreve" unicode="&#x14f;" horiz-adv-x="561" 
d="M531 350q0 -67 -22 -152.5t-64 -136.5q-60 -74 -198 -74q-48 0 -83 7t-66.5 24.5t-48 52t-16.5 86.5q0 75 23.5 155.5t71.5 130.5q64 68 187 68q49 0 83 -5.5t67 -21t49.5 -49t16.5 -85.5zM395 327q0 40 -21.5 55t-66.5 15q-59 0 -86 -37q-23 -32 -36.5 -89.5
t-13.5 -94.5q0 -43 21 -59.5t66 -16.5q63 0 89 39q20 29 34 91.5t14 96.5zM486 740q19 0 19 -23q0 -19 -11 -46q-21 -49 -58 -74.5t-104 -25.5q-65 0 -99 31.5t-34 76.5q0 21 3 34q4 27 26 27h27q24 0 24 -22q0 -18 4 -27q12 -33 61 -33q38 0 53.5 14t27.5 45q9 23 31 23h30
z" />
    <glyph glyph-name="Ohungarumlaut" unicode="&#x150;" horiz-adv-x="697" 
d="M689 507q0 -101 -33.5 -231.5t-96.5 -199.5q-81 -89 -240 -89q-124 0 -193 48.5t-69 175.5q0 106 34 227t98 191q84 91 235 91q62 0 105 -8t82 -29.5t58.5 -65.5t19.5 -110zM544 484q0 69 -29.5 94t-99.5 25q-82 0 -126 -53q-40 -49 -63.5 -147.5t-23.5 -171.5t30 -100.5
t98 -27.5q47 0 77.5 12.5t55.5 49.5q35 52 58 154t23 165zM387 772q-21 -13 -45 -13h-50q-19 0 -19 15q0 13 13 25l113 97q23 18 46 18h70q23 0 23 -17q0 -13 -15 -25zM599 772q-21 -13 -45 -13h-50q-19 0 -19 15q0 13 13 25l113 97q23 18 46 18h70q23 0 23 -17
q0 -13 -15 -25z" />
    <glyph glyph-name="ohungarumlaut" unicode="&#x151;" horiz-adv-x="561" 
d="M531 350q0 -67 -22 -152.5t-64 -136.5q-60 -74 -198 -74q-48 0 -83 7t-66.5 24.5t-48 52t-16.5 86.5q0 75 23.5 155.5t71.5 130.5q64 68 187 68q49 0 83 -5.5t67 -21t49.5 -49t16.5 -85.5zM395 327q0 40 -21.5 55t-66.5 15q-59 0 -86 -37q-23 -32 -36.5 -89.5
t-13.5 -94.5q0 -43 21 -59.5t66 -16.5q63 0 89 39q20 29 34 91.5t14 96.5zM298 598q-16 -18 -40 -18h-39q-24 0 -24 19q0 11 9 23l87 116q16 22 39 22h60q24 0 24 -18q0 -12 -11 -26zM470 598q-18 -18 -41 -18h-38q-23 0 -23 19q0 11 9 23l87 116q17 22 38 22h61
q24 0 24 -18q0 -11 -12 -26z" />
    <glyph glyph-name="OE" unicode="&#x152;" horiz-adv-x="950" 
d="M848 0h-406q-68 -9 -134 -9q-127 0 -188.5 55t-61.5 171q0 111 36.5 227t107.5 186q88 85 266 85q62 0 120 -9h377q25 0 25 -17q0 -6 -16 -82q-4 -22 -33 -22h-249l-35 -159h231q25 0 25 -20q0 -17 -14 -78q-4 -23 -33 -23h-234l-40 -184h281q23 0 23 -19q0 -16 -14 -79
q-4 -23 -34 -23zM453 120l101 471q-40 8 -105 8q-54 0 -91 -12.5t-67 -50.5q-42 -52 -65 -138t-23 -163q0 -72 33 -100.5t100 -28.5q63 0 117 14z" />
    <glyph glyph-name="oe" unicode="&#x153;" horiz-adv-x="856" 
d="M506 208q-2 -15 -2 -35q0 -42 25 -58t76 -16q63 0 123 15q20 5 27 5q16 0 19 -16q9 -38 9 -56q0 -20 -21 -29q-70 -30 -195 -30q-120 0 -151 63q-50 -63 -170 -63q-101 0 -157 35.5t-56 133.5q0 75 23.5 155.5t71.5 130.5q63 67 187 67q66 0 107 -12t60 -50q55 62 175 62
q99 0 139 -36t40 -106q0 -54 -14 -122q-4 -21 -18 -32q-9 -6 -27 -6h-271zM392 327q0 41 -21 55.5t-65 14.5q-58 0 -86 -38q-23 -31 -36 -89t-13 -96q0 -42 20.5 -58t66.5 -16q62 0 88 38q20 30 33 91.5t13 97.5zM522 303h183q9 27 9 55q0 29 -16 42.5t-57 13.5
q-47 0 -73 -23q-31 -28 -46 -88z" />
    <glyph glyph-name="Racute" unicode="&#x154;" horiz-adv-x="631" 
d="M177 29q-6 -30 -32 -30h-85q-22 0 -22 21q0 11 2 19l136 636q7 31 36 31h156q129 0 183 -24q36 -17 55.5 -53t19.5 -79q0 -87 -38.5 -152t-118.5 -94l89 -250q6 -20 6 -32q0 -9 -7 -16t-19 -7h-88q-24 0 -31 23l-85 261q-16 -1 -51 -1h-53zM254 393h60q64 0 101 12
q68 24 68 109q0 48 -34 62q-27 12 -95 12h-58zM436 772q-23 -13 -45 -13h-59q-20 0 -20 15q0 14 13 25l128 98q23 18 45 18h93q23 0 23 -16q0 -18 -14 -26z" />
    <glyph glyph-name="racute" unicode="&#x155;" horiz-adv-x="390" 
d="M159 24q-6 -25 -31 -25h-81q-22 0 -22 19q0 1 3 19l91 429q6 33 35 33h76q23 0 23 -19q0 -14 -2 -20q19 20 54 34.5t73 14.5q25 0 36 -4q14 -6 14 -22q0 -8 -7.5 -37.5t-12.5 -39.5q-8 -16 -28 -16q-6 0 -27 2t-29 2q-41 0 -68 -12q-13 -5 -19 -15q-7 -9 -10 -24z
M322 598q-18 -18 -41 -18h-49q-24 0 -24 18q0 11 10 23l107 117q19 22 39 22h79q25 0 25 -19q0 -10 -13 -23z" />
    <glyph glyph-name="Rcommaaccent" unicode="&#x156;" horiz-adv-x="631" 
d="M177 29q-6 -30 -32 -30h-85q-22 0 -22 21q0 11 2 19l136 636q7 31 36 31h156q129 0 183 -24q36 -17 55.5 -53t19.5 -79q0 -87 -38.5 -152t-118.5 -94l89 -250q6 -20 6 -32q0 -9 -7 -16t-19 -7h-88q-24 0 -31 23l-85 261q-16 -1 -51 -1h-53zM254 393h60q64 0 101 12
q68 24 68 109q0 48 -34 62q-27 12 -95 12h-58zM307 -64q29 0 29 -29q0 -21 -9 -47q-26 -80 -79 -130q-20 -20 -37 -20q-16 0 -32 11q-14 10 -14 22q0 13 12 27q40 50 50 127q5 39 39 39h41z" />
    <glyph glyph-name="rcommaaccent" unicode="&#x157;" horiz-adv-x="390" 
d="M159 24q-6 -25 -31 -25h-81q-22 0 -22 19q0 1 3 19l91 429q6 33 35 33h76q23 0 23 -19q0 -14 -2 -20q19 20 54 34.5t73 14.5q25 0 36 -4q14 -6 14 -22q0 -8 -7.5 -37.5t-12.5 -39.5q-8 -16 -28 -16q-6 0 -27 2t-29 2q-41 0 -68 -12q-13 -5 -19 -15q-7 -9 -10 -24z
M109 -64q29 0 29 -29q0 -21 -9 -47q-26 -80 -79 -130q-20 -20 -37 -20q-15 0 -32 11q-14 10 -14 22q0 13 12 27q40 50 50 127q5 39 39 39h41z" />
    <glyph glyph-name="Rcaron" unicode="&#x158;" horiz-adv-x="631" 
d="M177 29q-6 -30 -32 -30h-85q-22 0 -22 21q0 11 2 19l136 636q7 31 36 31h156q129 0 183 -24q36 -17 55.5 -53t19.5 -79q0 -87 -38.5 -152t-118.5 -94l89 -250q6 -20 6 -32q0 -9 -7 -16t-19 -7h-88q-24 0 -31 23l-85 261q-16 -1 -51 -1h-53zM254 393h60q64 0 101 12
q68 24 68 109q0 48 -34 62q-27 12 -95 12h-58zM518 926h50q22 0 22 -19q0 -10 -12 -22l-116 -100q-32 -26 -53 -26h-54q-22 0 -40 23l-79 102q-8 9 -8 21q0 21 31 21h40q22 0 39 -19l56 -58l80 58q27 19 44 19z" />
    <glyph glyph-name="rcaron" unicode="&#x159;" horiz-adv-x="390" 
d="M159 24q-6 -25 -31 -25h-81q-22 0 -22 19q0 1 3 19l91 429q6 33 35 33h76q23 0 23 -19q0 -14 -2 -20q19 20 54 34.5t73 14.5q25 0 36 -4q14 -6 14 -22q0 -8 -7.5 -37.5t-12.5 -39.5q-8 -16 -28 -16q-6 0 -27 2t-29 2q-41 0 -68 -12q-13 -5 -19 -15q-7 -9 -10 -24z
M394 760h48q20 0 20 -18q0 -8 -12 -22l-107 -117q-24 -26 -43 -26h-62q-21 0 -34 25l-61 119q-5 12 -5 20q0 19 27 19h42q21 0 33 -19l42 -72l72 72q19 19 40 19z" />
    <glyph glyph-name="Sacute" unicode="&#x15a;" horiz-adv-x="572" 
d="M395 402q73 -23 105 -61t32 -101q0 -132 -74.5 -192.5t-222.5 -60.5q-131 0 -203 29q-19 9 -19 30q0 23 17 65q11 25 35 25q9 0 39 -9q77 -22 150 -22q64 0 96.5 19t32.5 73q0 28 -16 47.5t-61 36.5l-75 27q-66 25 -98 64.5t-32 102.5q0 244 294 244q102 0 167 -22
q19 -6 19 -28q0 -25 -14 -67q-6 -21 -29 -21q-15 0 -35 5q-74 15 -142 15q-112 0 -113 -89q0 -28 15 -46.5t56 -34.5zM416 772q-23 -13 -45 -13h-59q-20 0 -20 15q0 14 13 25l128 98q23 18 45 18h93q23 0 23 -16q0 -18 -14 -26z" />
    <glyph glyph-name="sacute" unicode="&#x15b;" horiz-adv-x="446" 
d="M299 290q104 -35 104 -118q0 -90 -51 -138q-53 -47 -170 -47q-120 0 -174 27q-15 7 -15 20q0 23 20 71q8 18 28 18q12 0 27 -5q57 -19 127 -19q50 0 64 15q11 11 11 30q0 14 -10 23t-40 18l-58 19q-107 33 -107 120q0 95 65 144q56 42 166 42q81 0 129 -14q19 -6 19 -22
q0 -29 -15 -74q-7 -17 -26 -17q-8 0 -26 3q-56 12 -102 12q-42 0 -61 -11q-16 -10 -16 -36q0 -13 11 -22t41 -19zM311 598q-18 -18 -41 -18h-49q-24 0 -24 18q0 11 10 23l107 117q19 22 39 22h79q25 0 25 -19q0 -10 -13 -23z" />
    <glyph glyph-name="Scircumflex" unicode="&#x15c;" horiz-adv-x="572" 
d="M395 402q73 -23 105 -61t32 -101q0 -132 -74.5 -192.5t-222.5 -60.5q-131 0 -203 29q-19 9 -19 30q0 23 17 65q11 25 35 25q9 0 39 -9q77 -22 150 -22q64 0 96.5 19t32.5 73q0 28 -16 47.5t-61 36.5l-75 27q-66 25 -98 64.5t-32 102.5q0 244 294 244q102 0 167 -22
q19 -6 19 -28q0 -25 -14 -67q-6 -21 -29 -21q-15 0 -35 5q-74 15 -142 15q-112 0 -113 -89q0 -28 15 -46.5t56 -34.5zM289 759h-49q-23 0 -23 19q0 10 13 21l115 100q29 27 53 27h54q23 0 41 -23l79 -103q7 -10 7 -20q0 -21 -30 -21h-40q-21 0 -40 19l-56 58l-80 -59
q-24 -18 -44 -18z" />
    <glyph glyph-name="scircumflex" unicode="&#x15d;" horiz-adv-x="446" 
d="M299 290q104 -35 104 -118q0 -90 -51 -138q-53 -47 -170 -47q-120 0 -174 27q-15 7 -15 20q0 23 20 71q8 18 28 18q12 0 27 -5q57 -19 127 -19q50 0 64 15q11 11 11 30q0 14 -10 23t-40 18l-58 19q-107 33 -107 120q0 95 65 144q56 42 166 42q81 0 129 -14q19 -6 19 -22
q0 -29 -15 -74q-7 -17 -26 -17q-8 0 -26 3q-56 12 -102 12q-42 0 -61 -11q-16 -10 -16 -36q0 -13 11 -22t41 -19zM203 577h-48q-20 0 -20 17q0 9 12 23l107 117q24 26 43 26h62q21 0 34 -25l61 -119q5 -12 5 -20q0 -19 -27 -19h-42q-21 0 -33 19l-42 71l-72 -71
q-19 -19 -40 -19z" />
    <glyph glyph-name="Scedilla" unicode="&#x15e;" horiz-adv-x="572" 
d="M253 -54q83 -4 83 -84q0 -70 -39.5 -97.5t-118.5 -27.5q-38 0 -55 5q-19 4 -19 24q0 14 7 35q9 21 28 21q1 0 22 -3q13 -3 32 -3q23 0 31 7.5t8 26.5q0 23 -26 23q-4 0 -13.5 -0.5t-11.5 -0.5q-21 1 -21 24q0 3 9 32l20 60q-100 5 -157 28q-19 9 -19 30q0 23 17 65
q11 25 35 25q9 0 39 -9q77 -22 150 -22q64 0 96.5 19t32.5 73q0 28 -16 47.5t-61 36.5l-75 27q-66 25 -98 64.5t-32 102.5q0 244 294 244q102 0 167 -22q19 -6 19 -28q0 -25 -14 -67q-6 -21 -29 -21q-15 0 -35 5q-74 15 -142 15q-112 0 -113 -89q0 -28 15 -46.5t56 -34.5
l76 -29q73 -23 105 -61t32 -101q0 -124 -66.5 -185t-199.5 -67z" />
    <glyph glyph-name="scedilla" unicode="&#x15f;" horiz-adv-x="446" 
d="M199 -51q79 -4 79 -80q0 -68 -38 -94.5t-114 -26.5q-30 0 -53 5q-18 6 -18 23q0 13 7 34q7 19 27 19q7 0 21 -2q14 -3 31 -3q22 0 29.5 7t7.5 26q0 22 -25 22q-4 0 -13 -0.5t-11 -0.5q-20 1 -20 22q0 4 9 31l19 57q-86 5 -129 26q-15 7 -15 20q0 23 20 71q8 18 28 18
q12 0 27 -5q57 -19 127 -19q50 0 64 15q11 11 11 30q0 14 -10 23t-40 18l-58 19q-107 33 -107 120q0 95 65 144q56 42 166 42q81 0 129 -14q19 -6 19 -22q0 -29 -15 -74q-7 -17 -26 -17q-8 0 -26 3q-56 12 -102 12q-42 0 -61 -11q-16 -10 -16 -36q0 -13 11 -22t41 -19
l59 -20q104 -35 104 -118q0 -90 -51 -138q-46 -41 -141 -46z" />
    <glyph glyph-name="Scaron" unicode="&#x160;" horiz-adv-x="572" 
d="M395 402q73 -23 105 -61t32 -101q0 -132 -74.5 -192.5t-222.5 -60.5q-131 0 -203 29q-19 9 -19 30q0 23 17 65q11 25 35 25q9 0 39 -9q77 -22 150 -22q64 0 96.5 19t32.5 73q0 28 -16 47.5t-61 36.5l-75 27q-66 25 -98 64.5t-32 102.5q0 244 294 244q102 0 167 -22
q19 -6 19 -28q0 -25 -14 -67q-6 -21 -29 -21q-15 0 -35 5q-74 15 -142 15q-112 0 -113 -89q0 -28 15 -46.5t56 -34.5zM506 926h50q22 0 22 -19q0 -10 -12 -22l-116 -100q-32 -26 -53 -26h-54q-22 0 -40 23l-79 102q-8 9 -8 21q0 21 31 21h40q22 0 39 -19l56 -58l80 58
q27 19 44 19z" />
    <glyph glyph-name="scaron" unicode="&#x161;" horiz-adv-x="446" 
d="M299 290q104 -35 104 -118q0 -90 -51 -138q-53 -47 -170 -47q-120 0 -174 27q-15 7 -15 20q0 23 20 71q8 18 28 18q12 0 27 -5q57 -19 127 -19q50 0 64 15q11 11 11 30q0 14 -10 23t-40 18l-58 19q-107 33 -107 120q0 95 65 144q56 42 166 42q81 0 129 -14q19 -6 19 -22
q0 -29 -15 -74q-7 -17 -26 -17q-8 0 -26 3q-56 12 -102 12q-42 0 -61 -11q-16 -10 -16 -36q0 -13 11 -22t41 -19zM395 760h48q20 0 20 -18q0 -8 -12 -22l-107 -117q-24 -26 -43 -26h-62q-21 0 -34 25l-61 119q-5 12 -5 20q0 19 27 19h42q21 0 33 -19l42 -72l72 72
q19 19 40 19z" />
    <glyph glyph-name="uni0162" unicode="&#x162;" horiz-adv-x="602" 
d="M264 -54q83 -4 83 -84q0 -70 -39.5 -97.5t-118.5 -27.5q-37 0 -55 5q-19 4 -19 24q0 14 7 35q9 21 28 21q1 0 22 -3q14 -3 32 -3q23 0 31 7.5t8 26.5q0 23 -26 23q-4 0 -13.5 -0.5t-11.5 -0.5q-21 1 -21 24q0 3 9 32l24 71h-4q-23 0 -23 20q0 6 3 21l118 545h-168
q-24 0 -24 16q0 7 16 79q5 26 32 26h477q22 0 22 -19q0 -12 -15 -81q-4 -21 -32 -21h-169l-119 -556q-6 -30 -31 -30h-6z" />
    <glyph glyph-name="uni0163" unicode="&#x163;" horiz-adv-x="337" 
d="M168 -51q79 -4 79 -80q0 -68 -38 -94.5t-114 -26.5q-30 0 -53 5q-18 6 -18 23q0 13 7 34q7 19 27 19q7 0 21 -2q13 -3 31 -3q22 0 29.5 7t7.5 26q0 22 -25 22q-4 0 -13 -0.5t-11 -0.5q-20 1 -20 22q0 4 9 31l22 65q-58 19 -58 83q0 32 9 71l51 236h-43q-22 0 -22 18
q0 14 12 66q7 27 32 27h47q0 7 26 108q8 30 31 30h78q19 0 19 -19q0 -6 -3 -24l-21 -95h69q23 0 23 -18q0 -13 -12 -71q-5 -22 -32 -22h-70l-44 -202q-8 -39 -8 -58q0 -27 35 -27q10 0 22 1t15 1q19 0 20 -21q1 -18 1 -52q0 -26 -32 -33q-32 -6 -74 -8z" />
    <glyph glyph-name="Tcaron" unicode="&#x164;" horiz-adv-x="602" 
d="M318 29q-6 -30 -31 -30h-87q-23 0 -23 20q0 6 3 21l118 545h-168q-24 0 -24 16q0 7 16 79q5 26 32 26h477q22 0 22 -19q0 -12 -15 -81q-4 -21 -32 -21h-169zM526 926h50q22 0 22 -19q0 -10 -12 -22l-116 -100q-32 -26 -53 -26h-54q-22 0 -40 23l-79 102q-8 9 -8 21
q0 21 31 21h40q22 0 39 -19l56 -58l80 58q27 19 44 19z" />
    <glyph glyph-name="tcaron" unicode="&#x165;" horiz-adv-x="337" 
d="M245 386l-44 -202q-8 -39 -8 -58q0 -27 35 -27q10 0 22 1t15 1q19 0 20 -21q1 -18 1 -52q0 -26 -32 -33q-37 -8 -85 -8q-118 0 -118 92q0 32 9 71l51 236h-43q-22 0 -22 18q0 14 12 66q7 27 32 27h47q0 7 26 108q8 30 31 30h78q19 0 19 -19q0 -6 -3 -24l-21 -95h69
q23 0 23 -18q0 -13 -12 -71q-5 -22 -32 -22h-70zM463 760q29 0 29 -28q0 -25 -13 -59q-24 -71 -75 -119q-20 -20 -37 -20q-14 0 -32 12q-14 9 -14 21q0 9 12 27q42 54 50 127q5 39 39 39h41z" />
    <glyph glyph-name="Tbar" unicode="&#x166;" horiz-adv-x="602" 
d="M324 29q-6 -30 -31 -30h-87q-23 0 -23 20q0 6 3 21l62 286h-107q-22 0 -22 19q0 14 12 60q2 13 8.5 18.5t21.5 5.5h109l34 156h-168q-24 0 -24 16q0 7 16 79q5 26 32 26h477q22 0 22 -19q0 -12 -15 -81q-4 -21 -32 -21h-169l-34 -156h119q23 0 23 -17q0 -12 -13 -65
q-3 -13 -9.5 -17t-21.5 -4h-120z" />
    <glyph glyph-name="tbar" unicode="&#x167;" horiz-adv-x="337" 
d="M245 386l-13 -60h69q22 0 22 -20q0 -6 -11 -52q-4 -21 -29 -21h-72l-10 -49q-8 -39 -8 -58q0 -27 35 -27q10 0 22 1t15 1q19 0 20 -21q1 -18 1 -52q0 -26 -32 -33q-37 -8 -85 -8q-118 0 -118 92q0 32 9 71l18 83h-34q-22 0 -22 19q0 1 9 48q7 26 31 26h36l13 60h-43
q-22 0 -22 18q0 14 12 66q7 27 32 27h47q0 7 26 108q8 30 31 30h78q19 0 19 -19q0 -6 -3 -24l-21 -95h69q23 0 23 -18q0 -13 -12 -71q-5 -22 -32 -22h-70z" />
    <glyph glyph-name="Utilde" unicode="&#x168;" horiz-adv-x="691" 
d="M621 282q-18 -88 -31.5 -131.5t-36.5 -73.5q-37 -47 -98 -68.5t-160 -21.5q-230 0 -230 153q0 50 19 140l86 399q6 28 29 28h91q20 0 20 -18q0 -9 -3 -21l-89 -410q-10 -45 -10 -80q0 -74 112 -74q84 0 117 35q27 27 45 109l91 431q6 28 31 28h83q20 0 20 -18
q0 -8 -3 -20zM342 759h-31q-24 0 -24 20q0 10 9 31q42 96 109 96q26 0 70 -26q35 -19 55 -19q21 0 38 29q12 20 35 20h27q24 0 24 -19q0 -15 -13 -39q-43 -88 -103 -88q-37 0 -79 25q-29 17 -46 17q-23 0 -38 -26q-14 -21 -33 -21z" />
    <glyph glyph-name="utilde" unicode="&#x169;" horiz-adv-x="590" 
d="M334 37q-58 -49 -156 -49q-138 0 -138 91q0 31 11 81l66 312q7 26 31 26h83q21 0 21 -19l-3 -18l-59 -278q-6 -24 -6 -42q0 -38 61 -38q45 0 77 13q16 5 25 15q9 9 13 30l66 309q6 28 32 28h82q20 0 20 -19q0 -7 -3 -19l-91 -429q-7 -33 -34 -33h-75q-14 0 -19.5 5
t-5.5 17q0 3 2 17zM252 585h-32q-22 0 -22 20q0 10 8 31q39 96 106 96q19 0 66 -26q32 -19 51 -19q20 0 37 29q11 20 34 20h27q23 0 23 -20q0 -12 -12 -38q-39 -88 -99 -88q-33 0 -76 25q-29 17 -44 17q-21 0 -36 -25q-13 -22 -31 -22z" />
    <glyph glyph-name="Umacron" unicode="&#x16a;" horiz-adv-x="691" 
d="M621 282q-18 -88 -31.5 -131.5t-36.5 -73.5q-37 -47 -98 -68.5t-160 -21.5q-230 0 -230 153q0 50 19 140l86 399q6 28 29 28h91q20 0 20 -18q0 -9 -3 -21l-89 -410q-10 -45 -10 -80q0 -74 112 -74q84 0 117 35q27 27 45 109l91 431q6 28 31 28h83q20 0 20 -18
q0 -8 -3 -20zM576 779h-258q-22 0 -22 19q0 14 11 51q7 25 31 25h256q23 0 23 -19q0 -15 -10 -52q-6 -24 -31 -24z" />
    <glyph glyph-name="umacron" unicode="&#x16b;" horiz-adv-x="590" 
d="M334 37q-58 -49 -156 -49q-138 0 -138 91q0 31 11 81l66 312q7 26 31 26h83q21 0 21 -19l-3 -18l-59 -278q-6 -24 -6 -42q0 -38 61 -38q45 0 77 13q16 5 25 15q9 9 13 30l66 309q6 28 32 28h82q20 0 20 -19q0 -7 -3 -19l-91 -429q-7 -33 -34 -33h-75q-14 0 -19.5 5
t-5.5 17q0 3 2 17zM467 599h-224q-22 0 -22 19q0 16 9 52q8 25 32 25h222q24 0 24 -19q0 -17 -10 -54q-4 -14 -10.5 -18.5t-20.5 -4.5z" />
    <glyph glyph-name="Ubreve" unicode="&#x16c;" horiz-adv-x="691" 
d="M621 282q-18 -88 -31.5 -131.5t-36.5 -73.5q-37 -47 -98 -68.5t-160 -21.5q-230 0 -230 153q0 50 19 140l86 399q6 28 29 28h91q20 0 20 -18q0 -9 -3 -21l-89 -410q-10 -45 -10 -80q0 -74 112 -74q84 0 117 35q27 27 45 109l91 431q6 28 31 28h83q20 0 20 -18
q0 -8 -3 -20zM600 915q20 0 20 -23q0 -19 -10 -44q-40 -93 -166 -93q-63 0 -103.5 29t-40.5 84q0 18 3 28q6 19 28 19h29q26 0 27 -21q2 -16 7 -25q13 -28 59 -28q38 0 55.5 12.5t27.5 38.5q6 14 12 18.5t20 4.5h32z" />
    <glyph glyph-name="ubreve" unicode="&#x16d;" horiz-adv-x="590" 
d="M334 37q-58 -49 -156 -49q-138 0 -138 91q0 31 11 81l66 312q7 26 31 26h83q21 0 21 -19l-3 -18l-59 -278q-6 -24 -6 -42q0 -38 61 -38q45 0 77 13q16 5 25 15q9 9 13 30l66 309q6 28 32 28h82q20 0 20 -19q0 -7 -3 -19l-91 -429q-7 -33 -34 -33h-75q-14 0 -19.5 5
t-5.5 17q0 3 2 17zM497 740q19 0 19 -23q0 -19 -11 -46q-21 -49 -58 -74.5t-104 -25.5q-65 0 -99 31.5t-34 76.5q0 21 3 34q4 27 26 27h27q24 0 24 -22q0 -18 4 -27q12 -33 61 -33q38 0 53.5 14t27.5 45q9 23 31 23h30z" />
    <glyph glyph-name="Uring" unicode="&#x16e;" horiz-adv-x="691" 
d="M621 282q-18 -88 -31.5 -131.5t-36.5 -73.5q-37 -47 -98 -68.5t-160 -21.5q-230 0 -230 153q0 50 19 140l86 399q6 28 29 28h91q20 0 20 -18q0 -9 -3 -21l-89 -410q-10 -45 -10 -80q0 -74 112 -74q84 0 117 35q27 27 45 109l91 431q6 28 31 28h83q20 0 20 -18
q0 -8 -3 -20zM551 840q0 -48 -27 -76t-76 -28q-40 0 -62.5 22t-22.5 63q0 48 27.5 76.5t74.5 28.5q40 0 63 -22.5t23 -63.5zM509 839q0 48 -48 48q-25 0 -41.5 -17t-16.5 -44q0 -52 50 -52q26 0 41 17t15 48z" />
    <glyph glyph-name="uring" unicode="&#x16f;" horiz-adv-x="590" 
d="M334 37q-58 -49 -156 -49q-138 0 -138 91q0 31 11 81l66 312q7 26 31 26h83q21 0 21 -19l-3 -18l-59 -278q-6 -24 -6 -42q0 -38 61 -38q45 0 77 13q16 5 25 15q9 9 13 30l66 309q6 28 32 28h82q20 0 20 -19q0 -7 -3 -19l-91 -429q-7 -33 -34 -33h-75q-14 0 -19.5 5
t-5.5 17q0 3 2 17zM457 682q0 -50 -28.5 -79.5t-78.5 -29.5q-42 0 -65.5 23.5t-23.5 65.5q0 48 29.5 78t77.5 30q42 0 65.5 -23t23.5 -65zM414 681q0 50 -51 50q-26 0 -43.5 -18t-17.5 -47q0 -54 52 -54q60 0 60 69z" />
    <glyph glyph-name="Uhungarumlaut" unicode="&#x170;" horiz-adv-x="691" 
d="M621 282q-18 -88 -31.5 -131.5t-36.5 -73.5q-37 -47 -98 -68.5t-160 -21.5q-230 0 -230 153q0 50 19 140l86 399q6 28 29 28h91q20 0 20 -18q0 -9 -3 -21l-89 -410q-10 -45 -10 -80q0 -74 112 -74q84 0 117 35q27 27 45 109l91 431q6 28 31 28h83q20 0 20 -18
q0 -8 -3 -20zM380 772q-21 -13 -45 -13h-50q-19 0 -19 15q0 13 13 25l113 97q22 18 46 18h70q23 0 23 -17q0 -13 -15 -25zM592 772q-21 -13 -45 -13h-50q-19 0 -19 15q0 13 13 25l113 97q22 18 46 18h70q23 0 23 -17q0 -13 -15 -25z" />
    <glyph glyph-name="uhungarumlaut" unicode="&#x171;" horiz-adv-x="590" 
d="M334 37q-58 -49 -156 -49q-138 0 -138 91q0 31 11 81l66 312q7 26 31 26h83q21 0 21 -19l-3 -18l-59 -278q-6 -24 -6 -42q0 -38 61 -38q45 0 77 13q16 5 25 15q9 9 13 30l66 309q6 28 32 28h82q20 0 20 -19q0 -7 -3 -19l-91 -429q-7 -33 -34 -33h-75q-14 0 -19.5 5
t-5.5 17q0 3 2 17zM319 598q-16 -18 -40 -18h-39q-24 0 -24 19q0 11 9 23l87 116q16 22 39 22h60q24 0 24 -18q0 -12 -11 -26zM491 598q-18 -18 -41 -18h-38q-23 0 -23 19q0 11 9 23l87 116q17 22 38 22h61q24 0 24 -18q0 -11 -12 -26z" />
    <glyph glyph-name="Uogonek" unicode="&#x172;" horiz-adv-x="691" 
d="M621 282q-18 -88 -31.5 -131.5t-36.5 -73.5q-61 -78 -202 -88q-43 -29 -68 -58t-25 -67t39 -38q10 0 26 2.5t18 2.5q9 0 13 -4.5t7 -16.5q4 -12 4 -30q0 -21 -26 -28q-23 -7 -72 -7q-112 0 -112 92q0 94 102 151q-192 12 -192 152q0 50 19 140l86 399q6 28 29 28h91
q20 0 20 -18q0 -9 -3 -21l-89 -410q-10 -45 -10 -80q0 -74 112 -74q84 0 117 35q27 27 45 109l91 431q6 28 31 28h83q20 0 20 -18q0 -8 -3 -20z" />
    <glyph glyph-name="uogonek" unicode="&#x173;" horiz-adv-x="590" 
d="M334 37q-58 -49 -156 -49q-138 0 -138 91q0 31 11 81l66 312q7 26 31 26h83q21 0 21 -19l-3 -18l-59 -278q-6 -24 -6 -42q0 -38 61 -38q45 0 77 13q16 5 25 15q9 9 13 30l66 309q6 28 32 28h82q20 0 20 -19q0 -7 -3 -19l-91 -429q-7 -33 -34 -33h-10q-27 -18 -38 -26.5
t-30.5 -26t-27 -35.5t-7.5 -40q0 -35 38 -35q10 0 25 2t17 2q9 0 13 -3.5t7 -14.5q4 -18 4 -31q0 -12 -5.5 -17.5t-20.5 -9.5q-23 -6 -69 -6q-109 0 -109 88q0 56 31.5 91.5t89.5 64.5q-8 4 -8 19q0 3 2 17z" />
    <glyph glyph-name="Wcircumflex" unicode="&#x174;" horiz-adv-x="901" 
d="M634 -1h-82q-29 0 -31 30q-9 195 -16 456q-55 -121 -221 -457q-14 -29 -42 -29h-82q-29 0 -31 31l-24 619q0 21 1 29q2 29 30 29h85q25 0 25 -30q7 -273 7 -378q0 -66 -1 -95q43 107 211 457q16 36 43 36h75q26 0 27 -32q19 -394 19 -461q65 165 201 470q14 33 37 33h90
q21 0 21 -19q0 -12 -13 -40l-287 -620q-14 -29 -42 -29zM439 759h-49q-23 0 -23 19q0 10 13 21l115 100q29 27 53 27h54q23 0 41 -23l79 -103q7 -10 7 -20q0 -21 -30 -21h-40q-21 0 -40 19l-56 58l-80 -59q-24 -18 -44 -18z" />
    <glyph glyph-name="wcircumflex" unicode="&#x175;" horiz-adv-x="766" 
d="M396 300q-30 -62 -150 -276q-13 -25 -40 -25h-72q-29 0 -31 29l-34 417q-1 13 -1 25q0 28 27 28h86q23 0 24 -28q12 -196 14 -273q50 100 136 253q16 31 44 31h62q22 0 27 -32q30 -206 35 -253q46 111 125 272q16 30 34 30h97q20 0 20 -17q0 -8 -13 -34l-218 -423
q-12 -25 -38 -25h-75q-27 0 -30 26q-22 183 -29 275zM347 577h-48q-20 0 -20 17q0 9 12 23l107 117q24 26 43 26h62q21 0 34 -25l61 -119q5 -12 5 -20q0 -19 -27 -19h-42q-21 0 -33 19l-42 71l-72 -71q-19 -19 -40 -19z" />
    <glyph glyph-name="Ycircumflex" unicode="&#x176;" horiz-adv-x="613" 
d="M328 29q-6 -30 -31 -30h-85q-24 0 -24 21q0 2 3 23l54 250l-138 359q-8 22 -8 32q0 9 7 16t20 7h92q24 0 34 -26q76 -212 87 -248q63 90 192 247q22 27 48 27h98q18 0 18 -19q0 -12 -18 -35l-292 -356zM299 759h-49q-23 0 -23 19q0 10 13 21l115 100q29 27 53 27h54
q23 0 41 -23l79 -103q7 -10 7 -20q0 -21 -30 -21h-40q-21 0 -40 19l-56 58l-80 -59q-24 -18 -44 -18z" />
    <glyph glyph-name="ycircumflex" unicode="&#x177;" horiz-adv-x="507" 
d="M141 9l-82 441q-2 12 -2 20q0 28 28 28h87q21 0 26 -28q32 -196 44 -289q41 84 158 288q17 29 36 29h93q21 0 21 -17q0 -10 -13 -32l-288 -489q-43 -73 -64.5 -105t-50.5 -60q-47 -45 -149 -45q-55 0 -71 8q-16 6 -16 21q0 35 20 75q7 13 24 13q3 0 20.5 -2t26.5 -2
q47 0 72 27q32 35 72 105zM220 577h-48q-20 0 -20 17q0 9 12 23l107 117q24 26 43 26h62q21 0 34 -25l61 -119q5 -12 5 -20q0 -19 -27 -19h-42q-21 0 -33 19l-42 71l-72 -71q-19 -19 -40 -19z" />
    <glyph glyph-name="Ydieresis" unicode="&#x178;" horiz-adv-x="613" 
d="M328 29q-6 -30 -31 -30h-85q-24 0 -24 21q0 2 3 23l54 250l-138 359q-8 22 -8 32q0 9 7 16t20 7h92q24 0 34 -26q76 -212 87 -248q63 90 192 247q22 27 48 27h98q18 0 18 -19q0 -12 -18 -35l-292 -356zM380 847q0 -44 -21 -65q-19 -18 -50 -18q-54 0 -54 49q0 42 19 62
t52 20q54 0 54 -48zM576 847q0 -44 -21 -65q-19 -18 -50 -18q-55 0 -55 49q0 41 20 62q19 20 52 20q54 0 54 -48z" />
    <glyph glyph-name="Zacute" unicode="&#x179;" horiz-adv-x="609" 
d="M524 0h-502q-30 0 -30 28q0 9 5 40q5 26 32 56l413 461h-299q-24 0 -24 22q0 10 11 70q6 29 32 29h456q16 0 23 -4.5t7 -17.5q0 -10 -7 -45q-6 -24 -13.5 -38.5t-29.5 -39.5l-393 -440h339q25 0 25 -20q0 -17 -12 -75q-5 -26 -33 -26zM426 772q-23 -13 -45 -13h-59
q-20 0 -20 15q0 14 13 25l128 98q23 18 45 18h93q23 0 23 -16q0 -18 -14 -26z" />
    <glyph glyph-name="zacute" unicode="&#x17a;" horiz-adv-x="486" 
d="M397 0h-392q-23 0 -23 20q0 4 7 42q5 23 27 47l276 273h-203q-18 0 -18 17q0 28 13 76q5 22 26 22h361q23 0 23 -17q0 -8 -7 -47q-3 -17 -10 -26.5t-29 -32.5l-259 -259h226q22 0 22 -18q0 -14 -15 -80q-3 -17 -25 -17zM344 598q-18 -18 -41 -18h-49q-24 0 -24 18
q0 11 10 23l107 117q19 22 39 22h79q25 0 25 -19q0 -10 -13 -23z" />
    <glyph glyph-name="Zdotaccent" unicode="&#x17b;" horiz-adv-x="609" 
d="M524 0h-502q-30 0 -30 28q0 9 5 40q5 26 32 56l413 461h-299q-24 0 -24 22q0 10 11 70q6 29 32 29h456q16 0 23 -4.5t7 -17.5q0 -10 -7 -45q-6 -24 -13.5 -38.5t-29.5 -39.5l-393 -440h339q25 0 25 -20q0 -17 -12 -75q-5 -26 -33 -26zM464 847q0 -44 -21 -65
q-18 -18 -50 -18q-54 0 -54 49q0 39 20 62q19 20 51 20q54 0 54 -48z" />
    <glyph glyph-name="zdotaccent" unicode="&#x17c;" horiz-adv-x="486" 
d="M397 0h-392q-23 0 -23 20q0 4 7 42q5 23 27 47l276 273h-203q-18 0 -18 17q0 28 13 76q5 22 26 22h361q23 0 23 -17q0 -8 -7 -47q-3 -17 -10 -26.5t-29 -32.5l-259 -259h226q22 0 22 -18q0 -14 -15 -80q-3 -17 -25 -17zM377 674q0 -44 -21 -65q-19 -17 -50 -17
q-54 0 -54 49q0 38 20 61q20 21 51 21q54 0 54 -49z" />
    <glyph glyph-name="Zcaron" unicode="&#x17d;" horiz-adv-x="609" 
d="M524 0h-502q-30 0 -30 28q0 9 5 40q5 26 32 56l413 461h-299q-24 0 -24 22q0 10 11 70q6 29 32 29h456q16 0 23 -4.5t7 -17.5q0 -10 -7 -45q-6 -24 -13.5 -38.5t-29.5 -39.5l-393 -440h339q25 0 25 -20q0 -17 -12 -75q-5 -26 -33 -26zM520 926h50q22 0 22 -19
q0 -10 -12 -22l-116 -100q-32 -26 -53 -26h-54q-22 0 -40 23l-79 102q-8 9 -8 21q0 21 31 21h40q22 0 39 -19l56 -58l80 58q27 19 44 19z" />
    <glyph glyph-name="zcaron" unicode="&#x17e;" horiz-adv-x="486" 
d="M397 0h-392q-23 0 -23 20q0 4 7 42q5 23 27 47l276 273h-203q-18 0 -18 17q0 28 13 76q5 22 26 22h361q23 0 23 -17q0 -8 -7 -47q-3 -17 -10 -26.5t-29 -32.5l-259 -259h226q22 0 22 -18q0 -14 -15 -80q-3 -17 -25 -17zM410 760h48q20 0 20 -18q0 -8 -12 -22l-107 -117
q-24 -26 -43 -26h-62q-21 0 -34 25l-61 119q-5 12 -5 20q0 19 27 19h42q21 0 33 -19l42 -72l72 72q19 19 40 19z" />
    <glyph glyph-name="longs" unicode="&#x17f;" horiz-adv-x="283" 
d="M159 29q-7 -30 -31 -30h-83q-20 0 -20 20q0 12 5 29l112 530q22 104 75 143q49 37 151 37q46 0 69 -9q13 -7 13 -23q0 -21 -14 -65q-5 -17 -26 -17q-3 0 -20.5 1.5t-28.5 1.5q-41 0 -60 -19q-17 -17 -29 -71z" />
    <glyph glyph-name="florin" unicode="&#x192;" horiz-adv-x="517" 
d="M451 352h-107l-59 -288q-22 -108 -70 -145q-54 -40 -154 -40q-46 0 -70 8q-13 5 -13 25q0 24 13 67q6 20 28 20q3 0 19.5 -2t27.5 -2q41 0 59 19q17 20 29 73l54 265h-80q-19 0 -19 16q0 7 7 47q4 20 26 20h83l16 74q21 102 70 141q50 40 153 40q53 0 74 -8q14 -6 14 -26
q0 -22 -13 -65q-6 -20 -27 -20q-4 0 -22 2t-29 2q-44 0 -60 -20q-19 -23 -29 -69l-11 -51h104q21 0 21 -20q0 -12 -8 -44q-4 -19 -27 -19z" />
    <glyph glyph-name="Aringacute" unicode="&#x1fa;" horiz-adv-x="640" 
d="M509 765q0 -42 -23 -67q7 -7 10 -21l89 -625q3 -16 3 -28q0 -25 -32 -25h-78q-16 0 -22.5 7.5t-8.5 26.5l-19 153h-222l-86 -154q-10 -18 -18.5 -25.5t-23.5 -7.5h-91q-24 0 -24 21q0 7 12 29l359 631q7 13 17 20q-13 20 -13 48q0 43 24.5 69t68.5 26q36 0 57 -20.5
t21 -57.5zM265 303h153q-18 141 -25 237q-33 -66 -128 -237zM466 875q-20 -12 -38 -12h-37q-19 0 -19 16q0 12 11 20l102 77q18 15 40 15h63q22 0 22 -17q0 -14 -14 -22zM470 765q0 20 -11.5 31t-31.5 11q-22 0 -36.5 -15t-14.5 -39q0 -22 12 -34t32 -12q23 0 36.5 15
t13.5 43z" />
    <glyph glyph-name="aringacute" unicode="&#x1fb;" horiz-adv-x="581" 
d="M460 32q-4 -19 -10.5 -26t-23.5 -7h-68q-27 0 -27 20q0 9 2 17q-51 -48 -150 -48q-72 0 -111 39t-39 118q0 85 29 173t86 135q64 52 179 52q76 0 103 -29q7 26 33 26h64q26 0 26 -23q0 -11 -5 -34zM352 154l49 227q-24 13 -71 13q-61 0 -97 -34q-27 -27 -43.5 -79.5
t-16.5 -101.5q0 -42 17.5 -60t55.5 -18q50 0 83 20q12 8 15 13q7 14 8 20zM468 682q0 -50 -29 -79.5t-80 -29.5q-41 0 -64.5 23.5t-23.5 65.5q0 48 29.5 78t77.5 30q42 0 66 -23t24 -65zM425 681q0 51 -52 51q-27 0 -44 -18t-17 -48q0 -55 52 -55q29 0 45 18.5t16 51.5z
M416 817q-17 -17 -40 -17h-35q-23 0 -23 18q0 12 9 21l106 114q18 20 37 20h64q23 0 23 -17q0 -12 -11 -23z" />
    <glyph glyph-name="AEacute" unicode="&#x1fc;" horiz-adv-x="977" 
d="M275 189l-131 -158q-27 -32 -49 -32h-102q-23 0 -23 18q0 11 17 31l520 631q22 27 54 27h432q14 0 19 -4.5t5 -16.5q0 -18 -14 -77q-6 -23 -33 -23h-249l-35 -159h231q26 0 26 -19q0 -15 -15 -79q-4 -23 -33 -23h-234l-40 -184h278q27 0 27 -18q0 -10 -15 -80
q-6 -23 -33 -23h-393q-22 0 -22 20q0 8 3 21l31 148h-222zM362 306h160l58 271q-50 -69 -218 -271zM792 772q-23 -13 -45 -13h-59q-20 0 -20 15q0 14 13 25l128 98q23 18 45 18h93q23 0 23 -16q0 -18 -14 -26z" />
    <glyph glyph-name="aeacute" unicode="&#x1fd;" horiz-adv-x="839" 
d="M393 43q-76 -55 -201 -55q-75 0 -117 41t-42 120q0 85 28.5 171.5t85.5 133.5q66 54 177 54q61 0 95 -24l3 9q8 22 33 22h42q22 0 22 -18q0 -7 -2 -23l-2 -11q18 21 54.5 33.5t74.5 12.5q97 0 136 -35.5t39 -105.5q0 -54 -14 -122q-5 -25 -17 -32q-9 -6 -28 -6h-270
q-3 -22 -3 -35q0 -44 24.5 -58.5t77.5 -14.5q60 0 120 15q23 5 28 5q15 0 18 -16q10 -42 10 -57q0 -20 -20 -29q-71 -30 -196 -30q-119 0 -156 55zM363 147q0 33 1 53q1 36 19 115l16 67q-23 12 -69 12q-64 0 -98 -33q-28 -27 -43.5 -78.5t-15.5 -100.5q0 -43 17.5 -62
t55.5 -19q78 0 117 46zM506 303h182q8 29 8 57q0 29 -15.5 43t-56.5 14q-47 0 -74 -23q-30 -26 -44 -91zM532 598q-18 -18 -41 -18h-49q-24 0 -24 18q0 11 10 23l107 117q19 22 39 22h79q25 0 25 -19q0 -10 -13 -23z" />
    <glyph glyph-name="Oslashacute" unicode="&#x1fe;" horiz-adv-x="697" 
d="M88 -15q-8 -8 -16 -8q-7 0 -32 22q-6 6 -6 12q0 7 9 16l41 48q-33 52 -33 136q0 107 33.5 227.5t98.5 190.5q82 89 235 89q124 0 184 -35l39 46q7 8 15 8q5 0 12 -5q24 -18 24 -27q0 -7 -7 -16l-39 -46q37 -50 37 -136q0 -101 -33.5 -231.5t-96.5 -199.5
q-81 -89 -241 -89q-123 0 -186 43zM538 485q0 11 -2 29l-319 -377q27 -36 106 -36q48 0 78.5 12.5t55.5 49.5q35 52 58 155.5t23 166.5zM195 228v-22l316 370q-28 28 -103 28q-81 0 -125 -53q-40 -49 -64 -149.5t-24 -173.5zM480 772q-23 -13 -45 -13h-59q-20 0 -20 15
q0 14 13 25l128 98q23 18 45 18h93q23 0 23 -16q0 -18 -14 -26z" />
    <glyph glyph-name="oslashacute" unicode="&#x1ff;" horiz-adv-x="561" 
d="M77 -22q-8 -8 -15 -8q-9 0 -29 19q-5 5 -5 12q0 6 7 13l26 30q-34 39 -34 113q0 75 23 155.5t71 130.5q63 67 188 67q91 0 136 -19l36 42q6 7 12 7q9 -2 13 -6q20 -15 20 -24q0 -6 -5 -13l-31 -37q35 -38 35 -110q0 -67 -22 -153t-64 -136q-60 -73 -199 -73
q-87 0 -135 22zM372 598q-18 -18 -41 -18h-49q-24 0 -24 18q0 11 10 23l107 117q19 22 39 22h79q25 0 25 -19q0 -10 -13 -23zM391 332q0 8 -1 12l-202 -236q19 -13 63 -13q62 0 90 39q21 30 35.5 96t14.5 102zM162 170v-9l198 231q-19 10 -59 10q-59 0 -87 -38
q-24 -31 -38 -93t-14 -101z" />
    <glyph glyph-name="uni0218" unicode="&#x218;" horiz-adv-x="572" 
d="M395 402q73 -23 105 -61t32 -101q0 -132 -74.5 -192.5t-222.5 -60.5q-131 0 -203 29q-19 9 -19 30q0 23 17 65q11 25 35 25q9 0 39 -9q77 -22 150 -22q64 0 96.5 19t32.5 73q0 28 -16 47.5t-61 36.5l-75 27q-66 25 -98 64.5t-32 102.5q0 244 294 244q102 0 167 -22
q19 -6 19 -28q0 -25 -14 -67q-6 -21 -29 -21q-15 0 -35 5q-74 15 -142 15q-112 0 -113 -89q0 -28 15 -46.5t56 -34.5zM269 -64q29 0 29 -29q0 -21 -9 -47q-26 -80 -79 -130q-20 -20 -37 -20q-15 0 -32 11q-14 10 -14 22q0 13 12 27q40 50 50 127q5 39 39 39h41z" />
    <glyph glyph-name="uni0219" unicode="&#x219;" horiz-adv-x="446" 
d="M299 290q104 -35 104 -118q0 -90 -51 -138q-53 -47 -170 -47q-120 0 -174 27q-15 7 -15 20q0 23 20 71q8 18 28 18q12 0 27 -5q57 -19 127 -19q50 0 64 15q11 11 11 30q0 14 -10 23t-40 18l-58 19q-107 33 -107 120q0 95 65 144q56 42 166 42q81 0 129 -14q19 -6 19 -22
q0 -29 -15 -74q-7 -17 -26 -17q-8 0 -26 3q-56 12 -102 12q-42 0 -61 -11q-16 -10 -16 -36q0 -13 11 -22t41 -19zM203 -64q29 0 29 -29q0 -21 -9 -47q-26 -80 -79 -130q-20 -20 -37 -20q-15 0 -32 11q-14 10 -14 22q0 13 12 27q40 50 50 127q5 39 39 39h41z" />
    <glyph glyph-name="uni021A" unicode="&#x21a;" horiz-adv-x="602" 
d="M318 29q-6 -30 -31 -30h-87q-23 0 -23 20q0 6 3 21l118 545h-168q-24 0 -24 16q0 7 16 79q5 26 32 26h477q22 0 22 -19q0 -12 -15 -81q-4 -21 -32 -21h-169zM257 -64q29 0 29 -29q0 -21 -9 -47q-26 -80 -79 -130q-20 -20 -37 -20q-15 0 -32 11q-14 10 -14 22q0 13 12 27
q40 50 50 127q5 39 39 39h41z" />
    <glyph glyph-name="uni021B" unicode="&#x21b;" horiz-adv-x="337" 
d="M245 386l-44 -202q-8 -39 -8 -58q0 -27 35 -27q10 0 22 1t15 1q19 0 20 -21q1 -18 1 -52q0 -26 -32 -33q-37 -8 -85 -8q-118 0 -118 92q0 32 9 71l51 236h-43q-22 0 -22 18q0 14 12 66q7 27 32 27h47q0 7 26 108q8 30 31 30h78q19 0 19 -19q0 -6 -3 -24l-21 -95h69
q23 0 23 -18q0 -13 -12 -71q-5 -22 -32 -22h-70zM164 -64q29 0 29 -29q0 -21 -9 -47q-26 -80 -79 -130q-20 -20 -37 -20q-16 0 -32 11q-14 10 -14 22q0 13 12 27q40 50 50 127q5 39 39 39h41z" />
    <glyph glyph-name="circumflex" unicode="&#x2c6;" horiz-adv-x="197" 
d="M5 577h-48q-20 0 -20 17q0 9 12 23l107 117q24 26 43 26h62q21 0 34 -25l61 -119q5 -12 5 -20q0 -19 -27 -19h-42q-21 0 -33 19l-42 71l-72 -71q-19 -19 -40 -19z" />
    <glyph glyph-name="caron" unicode="&#x2c7;" horiz-adv-x="197" 
d="M193 760h48q20 0 20 -18q0 -8 -12 -22l-107 -117q-24 -26 -43 -26h-62q-21 0 -34 25l-61 119q-5 12 -5 20q0 19 27 19h42q21 0 33 -19l42 -72l72 72q19 19 40 19z" />
    <glyph glyph-name="breve" unicode="&#x2d8;" horiz-adv-x="197" 
d="M250 740q19 0 19 -23q0 -19 -11 -46q-21 -49 -58 -74.5t-104 -25.5q-65 0 -99 31.5t-34 76.5q0 21 3 34q4 27 26 27h27q24 0 24 -22q0 -18 4 -27q12 -33 61 -33q38 0 53.5 14t27.5 45q9 23 31 23h30z" />
    <glyph glyph-name="dotaccent" unicode="&#x2d9;" horiz-adv-x="197" 
d="M161 674q0 -44 -21 -65q-19 -17 -50 -17q-54 0 -54 49q0 38 20 61q20 21 51 21q54 0 54 -49z" />
    <glyph glyph-name="ring" unicode="&#x2da;" horiz-adv-x="197" 
d="M196 682q0 -50 -28.5 -79.5t-78.5 -29.5q-42 0 -65.5 23.5t-23.5 65.5q0 48 29.5 78t77.5 30q42 0 65.5 -23t23.5 -65zM153 681q0 50 -51 50q-26 0 -43.5 -18t-17.5 -47q0 -54 52 -54q60 0 60 69z" />
    <glyph glyph-name="ogonek" unicode="&#x2db;" horiz-adv-x="197" 
d="M208 8q-4 -2 -22 -15l-25 -17q-6 -4 -21 -16t-21 -19.5t-14.5 -19.5t-11.5 -24.5t-3 -26.5q0 -35 38 -35q10 0 25 2t17 2q9 0 13 -3.5t7 -14.5q4 -18 4 -31q0 -12 -5.5 -17.5t-20.5 -9.5q-23 -6 -69 -6q-109 0 -109 88q0 59 35.5 96t100.5 67h82z" />
    <glyph glyph-name="tilde" unicode="&#x2dc;" horiz-adv-x="197" 
d="M-24 585h-32q-22 0 -22 20q0 10 8 31q39 96 106 96q19 0 66 -26q32 -19 51 -19q20 0 37 29q11 20 34 20h27q23 0 23 -20q0 -12 -12 -38q-39 -88 -99 -88q-33 0 -76 25q-29 17 -44 17q-21 0 -36 -25q-13 -22 -31 -22z" />
    <glyph glyph-name="hungarumlaut" unicode="&#x2dd;" horiz-adv-x="197" 
d="M5 598q-16 -18 -40 -18h-39q-24 0 -24 19q0 11 9 23l87 116q16 22 39 22h60q24 0 24 -18q0 -12 -11 -26zM177 598q-18 -18 -41 -18h-38q-23 0 -23 19q0 11 9 23l87 116q17 22 38 22h61q24 0 24 -18q0 -11 -12 -26z" />
    <glyph glyph-name="uni0394" unicode="&#x394;" horiz-adv-x="715" 
d="M663 57q3 -12 3 -27q0 -30 -34 -30h-619q-26 0 -26 20q0 11 11 28l373 598q10 17 19.5 23.5t25.5 6.5h106q15 0 21 -6.5t9 -23.5zM446 535q-24 -44 -253 -413h321q-67 404 -68 413z" />
    <glyph glyph-name="uni03A9" unicode="&#x3a9;" horiz-adv-x="747" 
d="M307 34q-5 -34 -41 -34h-202q-29 0 -29 18t12 72q4 18 11.5 24t23.5 6h143q-67 27 -101.5 72t-34.5 121q0 77 26 155t78 131q90 90 262 90q136 0 196 -52t60 -156q0 -160 -76 -258q-54 -67 -149 -103h149q29 0 29 -21q0 -8 -12 -66q-4 -19 -10 -26t-24 -7h-212
q-34 0 -34 24t17 105q6 34 35 48q67 31 96 84q43 82 43 187q0 66 -31 93.5t-97 27.5q-94 0 -139 -56q-31 -39 -47 -99t-16 -113q0 -85 71 -125q21 -13 21 -37q0 -15 -18 -105z" />
    <glyph glyph-name="uni03BC" unicode="&#x3bc;" horiz-adv-x="583" 
d="M157 14l-40 -190q-7 -28 -30 -28h-85q-21 0 -21 18q0 4 3 19l136 637q5 28 29 28h86q20 0 20 -19q0 -3 -3 -18l-59 -277q-6 -25 -6 -44q0 -36 60 -36q50 0 86 14q18 9 23 15q8 8 13 29l66 308q7 28 31 28h84q20 0 20 -20q0 -10 -2 -18l-93 -428q-6 -33 -35 -33h-73
q-25 0 -25 20q0 10 2 18q-43 -39 -124 -39q-48 0 -63 16z" />
    <glyph glyph-name="pi" unicode="&#x3c0;" horiz-adv-x="631" 
d="M191 29q-3 -17 -10 -23t-24 -6h-73q-26 0 -26 20q0 9 2 19l75 344h-31q-25 0 -25 18q0 13 13 70q4 16 12 21.5t26 5.5h478q29 0 29 -20q0 -13 -13 -68q-4 -16 -11 -21.5t-23 -5.5h-33l-42 -195q-13 -57 -17 -102q-1 -8 -2.5 -28.5t-2.5 -28.5q-4 -29 -35 -29h-71
q-16 0 -21 7.5t-5 24.5q0 44 24 154l42 197h-159z" />
    <glyph glyph-name="Wgrave" unicode="&#x1e80;" horiz-adv-x="901" 
d="M634 -1h-82q-29 0 -31 30q-9 195 -16 456q-55 -121 -221 -457q-14 -29 -42 -29h-82q-29 0 -31 31l-24 619q0 21 1 29q2 29 30 29h85q25 0 25 -30q7 -273 7 -378q0 -66 -1 -95q43 107 211 457q16 36 43 36h75q26 0 27 -32q19 -394 19 -461q65 165 201 470q14 33 37 33h90
q21 0 21 -19q0 -12 -13 -40l-287 -620q-14 -29 -42 -29zM505 772l-134 101q-15 11 -15 24q0 18 24 18h86q26 0 46 -19l102 -97q13 -13 13 -24q0 -16 -20 -16h-57q-20 0 -45 13z" />
    <glyph glyph-name="wgrave" unicode="&#x1e81;" horiz-adv-x="766" 
d="M396 300q-30 -62 -150 -276q-13 -25 -40 -25h-72q-29 0 -31 29l-34 417q-1 13 -1 25q0 28 27 28h86q23 0 24 -28q12 -196 14 -273q50 100 136 253q16 31 44 31h62q22 0 27 -32q30 -206 35 -253q46 111 125 272q16 30 34 30h97q20 0 20 -17q0 -8 -13 -34l-218 -423
q-12 -25 -38 -25h-75q-27 0 -30 26q-22 183 -29 275zM390 598l-104 117q-10 13 -10 24q0 21 24 21h74q21 0 38 -25l81 -114q9 -13 9 -23q0 -18 -25 -18h-45q-25 0 -42 18z" />
    <glyph glyph-name="Wacute" unicode="&#x1e82;" horiz-adv-x="901" 
d="M634 -1h-82q-29 0 -31 30q-9 195 -16 456q-55 -121 -221 -457q-14 -29 -42 -29h-82q-29 0 -31 31l-24 619q0 21 1 29q2 29 30 29h85q25 0 25 -30q7 -273 7 -378q0 -66 -1 -95q43 107 211 457q16 36 43 36h75q26 0 27 -32q19 -394 19 -461q65 165 201 470q14 33 37 33h90
q21 0 21 -19q0 -12 -13 -40l-287 -620q-14 -29 -42 -29zM579 772q-23 -13 -45 -13h-59q-20 0 -20 15q0 14 13 25l128 98q22 18 45 18h93q23 0 23 -16q0 -18 -14 -26z" />
    <glyph glyph-name="wacute" unicode="&#x1e83;" horiz-adv-x="766" 
d="M396 300q-30 -62 -150 -276q-13 -25 -40 -25h-72q-29 0 -31 29l-34 417q-1 13 -1 25q0 28 27 28h86q23 0 24 -28q12 -196 14 -273q50 100 136 253q16 31 44 31h62q22 0 27 -32q30 -206 35 -253q46 111 125 272q16 30 34 30h97q20 0 20 -17q0 -8 -13 -34l-218 -423
q-12 -25 -38 -25h-75q-27 0 -30 26q-22 183 -29 275zM483 598q-18 -18 -41 -18h-49q-24 0 -24 18q0 11 10 23l107 117q19 22 39 22h79q25 0 25 -19q0 -10 -13 -23z" />
    <glyph glyph-name="Wdieresis" unicode="&#x1e84;" horiz-adv-x="901" 
d="M634 -1h-82q-29 0 -31 30q-9 195 -16 456q-55 -121 -221 -457q-14 -29 -42 -29h-82q-29 0 -31 31l-24 619q0 21 1 29q2 29 30 29h85q25 0 25 -30q7 -273 7 -378q0 -66 -1 -95q43 107 211 457q16 36 43 36h75q26 0 27 -32q19 -394 19 -461q65 165 201 470q14 33 37 33h90
q21 0 21 -19q0 -12 -13 -40l-287 -620q-14 -29 -42 -29zM522 847q0 -44 -21 -65q-19 -18 -50 -18q-54 0 -54 49q0 42 19 62t52 20q54 0 54 -48zM718 847q0 -44 -21 -65q-19 -18 -50 -18q-55 0 -55 49q0 41 20 62q19 20 52 20q54 0 54 -48z" />
    <glyph glyph-name="wdieresis" unicode="&#x1e85;" horiz-adv-x="766" 
d="M396 300q-30 -62 -150 -276q-13 -25 -40 -25h-72q-29 0 -31 29l-34 417q-1 13 -1 25q0 28 27 28h86q23 0 24 -28q12 -196 14 -273q50 100 136 253q16 31 44 31h62q22 0 27 -32q30 -206 35 -253q46 111 125 272q16 30 34 30h97q20 0 20 -17q0 -8 -13 -34l-218 -423
q-12 -25 -38 -25h-75q-27 0 -30 26q-22 183 -29 275zM421 674q0 -44 -22 -65q-19 -17 -50 -17q-54 0 -54 49q0 40 20 61t51 21q55 0 55 -49zM609 674q0 -44 -22 -65q-19 -17 -49 -17q-55 0 -55 49q0 41 20 61q20 21 52 21q54 0 54 -49z" />
    <glyph glyph-name="Ygrave" unicode="&#x1ef2;" horiz-adv-x="613" 
d="M328 29q-6 -30 -31 -30h-85q-24 0 -24 21q0 2 3 23l54 250l-138 359q-8 22 -8 32q0 9 7 16t20 7h92q24 0 34 -26q76 -212 87 -248q63 90 192 247q22 27 48 27h98q18 0 18 -19q0 -12 -18 -35l-292 -356zM355 772l-134 101q-15 11 -15 24q0 18 24 18h86q26 0 46 -19
l102 -97q13 -13 13 -24q0 -16 -20 -16h-57q-20 0 -45 13z" />
    <glyph glyph-name="ygrave" unicode="&#x1ef3;" horiz-adv-x="507" 
d="M141 9l-82 441q-2 12 -2 20q0 28 28 28h87q21 0 26 -28q32 -196 44 -289q41 84 158 288q17 29 36 29h93q21 0 21 -17q0 -10 -13 -32l-288 -489q-43 -73 -64.5 -105t-50.5 -60q-47 -45 -149 -45q-55 0 -71 8q-16 6 -16 21q0 35 20 75q7 13 24 13q3 0 20.5 -2t26.5 -2
q47 0 72 27q32 35 72 105zM259 598l-104 117q-10 13 -10 24q0 21 24 21h74q21 0 38 -25l81 -114q9 -13 9 -23q0 -18 -25 -18h-45q-25 0 -42 18z" />
    <glyph glyph-name="endash" unicode="&#x2013;" horiz-adv-x="564" 
d="M496 215h-432q-22 0 -22 19q0 8 13 65q7 24 32 24h430q24 0 24 -19q0 -7 -15 -66q-6 -23 -30 -23z" />
    <glyph glyph-name="emdash" unicode="&#x2014;" horiz-adv-x="856" 
d="M788 215h-724q-22 0 -22 19q0 12 13 65q7 24 32 24h723q23 0 23 -19q0 -9 -14 -66q-5 -23 -31 -23z" />
    <glyph glyph-name="quoteleft" unicode="&#x2018;" horiz-adv-x="210" 
d="M162 455h-48q-31 0 -31 34q0 23 12 57q15 49 48 98.5t69 80.5q22 20 38 20q17 0 38 -16q12 -8 12 -24q0 -14 -12 -26q-69 -82 -82 -185q-5 -39 -44 -39z" />
    <glyph glyph-name="quoteright" unicode="&#x2019;" horiz-adv-x="211" 
d="M247 748q31 0 31 -34q0 -19 -11 -54q-15 -50 -48 -101.5t-70 -80.5q-24 -20 -38 -20q-20 0 -38 16q-13 10 -13 24q0 12 13 27q69 80 82 184q5 39 44 39h48z" />
    <glyph glyph-name="quotesinglbase" unicode="&#x201a;" horiz-adv-x="213" 
d="M112 112q30 0 30 -34q0 -24 -9 -51q-15 -50 -49 -101.5t-71 -83.5q-22 -20 -38 -20t-37 16q-13 9 -13 24q0 12 13 27q68 78 81 184q5 39 45 39h48z" />
    <glyph glyph-name="quotedblleft" unicode="&#x201c;" horiz-adv-x="397" 
d="M353 455h-48q-30 0 -30 34q0 20 10 52q16 50 49.5 100.5t69.5 83.5q24 20 37 20q17 0 38 -16q13 -8 13 -24q0 -13 -13 -26q-68 -80 -82 -185q-5 -39 -44 -39zM162 455h-48q-31 0 -31 34q0 20 10 52q15 50 48.5 101t70.5 83q22 20 38 20q17 0 38 -16q12 -8 12 -24
q0 -14 -12 -26q-69 -82 -82 -185q-5 -39 -44 -39z" />
    <glyph glyph-name="quotedblright" unicode="&#x201d;" horiz-adv-x="397" 
d="M247 748q31 0 31 -34q0 -19 -8 -45q-14 -51 -48.5 -105.5t-72.5 -85.5q-24 -20 -38 -20q-13 0 -38 17q-13 9 -13 23q0 12 13 27q69 80 82 184q5 39 44 39h48zM439 748q30 0 30 -34q0 -20 -10 -52q-15 -50 -48.5 -102.5t-70.5 -81.5q-24 -20 -38 -20q-16 0 -37 16
q-13 9 -13 24q0 12 13 27q68 78 81 184q5 39 45 39h48z" />
    <glyph glyph-name="quotedblbase" unicode="&#x201e;" horiz-adv-x="398" 
d="M110 112q31 0 31 -34q0 -18 -9 -50q-15 -51 -48.5 -103t-71.5 -83q-24 -20 -38 -20q-17 0 -38 16q-12 8 -12 24q0 13 12 27q69 80 82 184q5 39 44 39h48zM302 112q30 0 30 -34q0 -23 -9 -50q-15 -52 -48 -103.5t-72 -82.5q-24 -20 -38 -20q-16 0 -37 16q-13 9 -13 24
q0 12 13 27q68 78 81 184q5 39 45 39h48z" />
    <glyph glyph-name="dagger" unicode="&#x2020;" horiz-adv-x="479" 
d="M238 -61q-5 -25 -26 -25h-75q-20 0 -20 16q0 6 2 16l99 464h-126q-18 0 -18 14q0 5 15 77q4 20 25 20h127l37 170q5 25 27 25h75q19 0 19 -16q0 -7 -3 -19l-34 -160h126q18 0 18 -12q0 -8 -17 -84q-3 -15 -24 -15h-127z" />
    <glyph glyph-name="daggerdbl" unicode="&#x2021;" horiz-adv-x="479" 
d="M239 -61q-6 -25 -26 -25h-75q-20 0 -20 16q0 6 2 16l33 158h-123q-17 0 -17 14q0 10 14 78q5 20 25 20h125l42 194h-126q-18 0 -18 14q0 11 15 77q4 20 24 20h128l37 170q5 25 27 25h75q19 0 19 -16q0 -7 -3 -19l-34 -160h126q18 0 18 -12q0 -3 -17 -84q-4 -15 -24 -15
h-127l-41 -194h128q18 0 18 -14q0 -5 -16 -83q-4 -15 -25 -15h-129z" />
    <glyph glyph-name="bullet" unicode="&#x2022;" horiz-adv-x="375" 
d="M331 311q0 -35 -12.5 -76.5t-38.5 -66.5q-41 -38 -112 -38q-123 0 -123 110q0 84 47 132q42 43 116 43q123 0 123 -104z" />
    <glyph glyph-name="ellipsis" unicode="&#x2026;" horiz-adv-x="989" 
d="M231 90q0 -51 -29 -81q-21 -22 -62 -22q-68 0 -68 64q0 43 26 74q24 27 64 27q69 0 69 -62zM539 90q0 -51 -29 -81q-21 -22 -62 -22q-69 0 -69 64q0 42 27 74q24 27 64 27q69 0 69 -62zM846 90q0 -53 -28 -81q-22 -22 -63 -22q-68 0 -68 64q0 45 26 74q24 27 65 27
q68 0 68 -62z" />
    <glyph glyph-name="perthousand" unicode="&#x2030;" horiz-adv-x="1253" 
d="M413 571q0 -58 -21 -140.5t-56 -123.5q-44 -51 -133 -51q-72 0 -107 26t-35 95q0 55 18.5 128t52.5 117q46 60 140 60q73 0 107 -22.5t34 -88.5zM317 556q0 27 -11.5 38.5t-41.5 11.5q-39 0 -60 -33q-20 -32 -33.5 -89.5t-13.5 -94.5q0 -32 12 -44.5t41 -12.5q39 0 59 32
q17 30 32.5 96.5t15.5 95.5zM261 -14q-12 -18 -27 -18h-27q-13 0 -13 12q0 7 10 20l448 689q13 22 28 22h30q13 0 13 -11q0 -7 -12 -26zM850 307q0 -58 -21 -140.5t-56 -123.5q-44 -51 -133 -51q-72 0 -107 26t-35 95q0 55 18.5 128t52.5 117q46 60 140 60q73 0 107 -22
t34 -89zM754 292q0 27 -11.5 38.5t-41.5 11.5q-39 0 -59 -33q-20 -32 -34 -89.5t-14 -94.5q0 -32 12 -44.5t41 -12.5q41 0 59 32q17 30 32.5 96.5t15.5 95.5zM1232 307q0 -58 -20.5 -140.5t-56.5 -123.5q-44 -51 -132 -51q-72 0 -107 26t-35 95q0 55 18.5 127.5t52.5 117.5
q46 60 140 60q72 0 106 -22t34 -89zM1136 292q0 28 -11.5 39t-41.5 11q-39 0 -59 -33q-20 -32 -34 -89.5t-14 -94.5q0 -32 12 -44.5t42 -12.5q40 0 58 32q18 29 33 95.5t15 96.5z" />
    <glyph glyph-name="guilsinglleft" unicode="&#x2039;" horiz-adv-x="323" 
d="M164 262l87 -160q7 -14 7 -20t-5.5 -11t-15.5 -5h-64q-19 0 -32 21l-92 157q-8 14 -8 23q0 13 16 29l151 147q23 23 43 23h73q14 0 14 -13q0 -8 -17 -27z" />
    <glyph glyph-name="guilsinglright" unicode="&#x203a;" horiz-adv-x="322" 
d="M168 270l-86 160q-7 12 -7 21q0 15 20 15h65q18 0 31 -21l92 -157q8 -14 8 -23q0 -12 -16 -28l-150 -148q-23 -23 -44 -23h-72q-15 0 -15 14q0 8 17 27z" />
    <glyph glyph-name="fraction" unicode="&#x2044;" horiz-adv-x="84" 
d="M-134 -14q-12 -18 -27 -18h-27q-14 0 -14 12q0 7 10 20l448 689q13 22 29 22h30q13 0 13 -11q0 -7 -12 -26z" />
    <glyph glyph-name="zero.superior" unicode="&#x2070;" 
d="M453 727q0 -58 -21 -140.5t-56 -123.5q-44 -51 -133 -51q-72 0 -107 26t-35 95q0 55 18.5 128t52.5 117q46 60 140 60q73 0 107 -22.5t34 -88.5zM357 712q0 27 -11.5 38.5t-41.5 11.5q-39 0 -60 -33q-20 -32 -33.5 -89.5t-13.5 -94.5q0 -32 12 -44.5t41 -12.5q39 0 59 32
q17 30 32.5 96.5t15.5 95.5z" />
    <glyph glyph-name="four.superior" unicode="&#x2074;" 
d="M360 437q-4 -18 -21 -18h-55q-15 0 -15 14q0 6 2 14l16 63h-177q-17 0 -17 14t7 44q3 12 15 27l188 221q13 16 32 16h60q12 0 12 -9q0 -7 -9 -18l-188 -218h93l17 66q5 20 20 20h55q15 0 15 -12q0 -6 -3 -18l-14 -56h37q17 0 17 -12q0 -8 -13 -52q-3 -13 -19 -13h-38z
" />
    <glyph glyph-name="five.superior" unicode="&#x2075;" 
d="M235 675q34 8 63 8q59 0 87.5 -20.5t28.5 -68.5q0 -89 -45 -135.5t-157 -46.5q-73 0 -109 11q-13 5 -13 17q0 13 13 46q6 13 19 13q3 0 12 -2t13 -2q35 -7 73 -7q52 0 74 17.5t22 60.5q0 24 -17 32.5t-51 8.5t-73 -7q-15 -3 -19 -3q-19 0 -19 17q0 5 7 31l49 167
q7 20 23 20h210q16 0 16 -13t-9 -50q-3 -16 -23 -16h-152z" />
    <glyph glyph-name="six.superior" unicode="&#x2076;" 
d="M216 654q37 32 98 32q112 0 112 -94q0 -91 -51 -139q-42 -41 -134 -41q-135 0 -135 122q0 60 22.5 134t62.5 115q56 57 160 57q54 0 82 -10q12 -4 12 -17q0 -20 -11 -46q-5 -10 -16 -10q-2 0 -26 4q-34 4 -51 4q-60 0 -86 -30q-23 -26 -39 -81zM197 533q0 -48 55 -48
q46 0 66 27q17 24 17 57q0 44 -53 44q-42 0 -65 -21q-7 -5 -11 -15q-9 -23 -9 -44z" />
    <glyph glyph-name="seven.superior" unicode="&#x2077;" 
d="M334 754q-45 -1 -187 -1q-19 0 -19 13q0 14 9 51q4 15 21 15h280q17 0 17 -12l-4 -30q-5 -24 -17 -41q-80 -122 -192 -311q-11 -19 -29 -19h-58q-17 0 -17 14q0 9 8 22z" />
    <glyph glyph-name="eight.superior" unicode="&#x2078;" 
d="M356 636q66 -14 66 -76q0 -76 -45 -112t-141 -36q-145 0 -145 98q0 110 107 129q-53 14 -53 72q0 129 168 129q138 0 138 -89q0 -96 -95 -115zM326 554q0 42 -59 42q-81 0 -81 -69q0 -43 60 -43q80 0 80 70zM358 732q0 34 -52 34q-70 0 -70 -59q0 -37 51 -37q71 0 71 62z
" />
    <glyph glyph-name="nine.superior" unicode="&#x2079;" 
d="M334 601q-36 -33 -98 -33q-112 0 -112 96q0 85 51 135q42 41 134 41q134 0 134 -122q0 -63 -20.5 -138.5t-59.5 -114.5q-53 -54 -162 -54q-63 0 -90 11q-10 3 -10 16q0 16 13 47q6 11 16 11q3 0 27 -4q32 -4 49 -4q62 0 90 29q24 25 38 84zM354 720q0 47 -57 47
q-48 0 -66 -28q-17 -24 -17 -55q0 -44 54 -44q43 0 64 21q6 5 13 18q9 18 9 41z" />
    <glyph glyph-name="parenleft.superior" unicode="&#x207d;" horiz-adv-x="224" 
d="M346 851q-70 -47 -117.5 -139t-47.5 -200q0 -93 53 -155q3 -4 3 -11q0 -6 -8 -14q-7 -7 -16 -7q-7 0 -20 8q-35 23 -62 72.5t-27 119.5q0 109 54.5 210t152.5 144q18 8 27 8q6 0 12 -8t6 -15q0 -6 -10 -13z" />
    <glyph glyph-name="parenright.superior" unicode="&#x207e;" horiz-adv-x="224" 
d="M26 362q70 46 117 138t47 200q0 91 -52 156q-4 4 -4 10t8 14q7 7 15 7t21 -8q35 -23 62 -72.5t27 -118.5q0 -110 -54.5 -211t-152.5 -144q-15 -7 -27 -7q-7 0 -12 7q-6 8 -6 15q0 6 11 14z" />
    <glyph glyph-name="n.superior" unicode="&#x207f;" horiz-adv-x="383" 
d="M146 281q-3 -18 -20 -18h-61q-13 0 -13 12q0 7 2 13l56 259q4 21 23 21h55q17 0 17 -13q0 -4 -1 -10q37 29 100 29q87 0 87 -54q0 -16 -7 -49l-41 -191q-5 -17 -20 -17h-62q-13 0 -13 13q0 4 2 12l36 162q3 14 3 24q0 22 -33 22q-28 0 -46 -8q-12 -6 -15 -9q-6 -6 -8 -17
z" />
    <glyph glyph-name="zero.inferior" unicode="&#x2080;" 
d="M342 181q0 -58 -21 -140.5t-56 -123.5q-44 -51 -133 -51q-72 0 -107 26t-35 95q0 55 18.5 128t52.5 117q46 60 140 60q73 0 107 -22.5t34 -88.5zM246 166q0 27 -11.5 38.5t-41.5 11.5q-39 0 -60 -33q-20 -32 -33.5 -89.5t-13.5 -94.5q0 -32 12 -44.5t41 -12.5q39 0 59 32
q17 30 32.5 96.5t15.5 95.5z" />
    <glyph glyph-name="one.inferior" unicode="&#x2081;" 
d="M158 196l-49 -19q-8 -4 -15 -4q-6 0 -10 9q-14 35 -14 46q0 9 12 15l96 38q12 5 27 5h47q15 0 15 -14q0 -7 -2 -15l-82 -365q-5 -19 -22 -19h-56q-16 0 -16 15q0 3 2 13z" />
    <glyph glyph-name="two.inferior" unicode="&#x2082;" 
d="M260 -126h-276q-15 0 -15 13q0 6 8 42q3 12 17 21q100 64 172 120q53 40 53 97q0 27 -14.5 38.5t-49.5 11.5q-33 0 -61 -6q-18 -4 -23 -4q-10 0 -13 10q-7 34 -7 43q0 14 20 19q56 15 118 15q131 0 131 -102q0 -87 -66 -142q-67 -58 -142 -99q38 1 163 1q15 0 15 -13
q0 -14 -9 -50q-5 -15 -21 -15z" />
    <glyph glyph-name="three.inferior" unicode="&#x2083;" 
d="M216 91q73 -7 73 -78q0 -77 -44 -111q-45 -36 -151 -36q-66 0 -99 12q-13 5 -13 16q0 15 13 47q4 11 16 11q7 0 23 -4q33 -6 70 -6q54 0 73 18q17 17 17 51q0 19 -16 28t-55 9h-15q-16 0 -16 14q0 16 8 45q4 18 22 18h17q42 0 59 13q18 13 18 45q0 20 -13 27t-48 7
q-33 0 -56 -5q-18 -4 -24 -4q-9 0 -11 10q-6 36 -6 43q0 14 21 20q54 13 107 13q70 0 97.5 -22.5t27.5 -63.5q0 -50 -21.5 -78t-73.5 -39z" />
    <glyph glyph-name="four.inferior" unicode="&#x2084;" 
d="M249 -109q-4 -18 -21 -18h-55q-15 0 -15 14q0 6 2 14l16 63h-177q-17 0 -17 14t7 44q3 12 15 27l188 221q13 16 32 16h60q12 0 12 -9q0 -7 -9 -18l-188 -218h93l17 66q5 20 20 20h55q15 0 15 -12q0 -6 -3 -18l-14 -56h37q17 0 17 -12q0 -8 -13 -52q-3 -13 -19 -13h-38z
" />
    <glyph glyph-name="five.inferior" unicode="&#x2085;" 
d="M124 129q34 8 63 8q59 0 87.5 -20.5t28.5 -68.5q0 -89 -45 -135.5t-157 -46.5q-73 0 -109 11q-13 5 -13 17q0 13 13 46q6 13 19 13q3 0 12 -2t13 -2q35 -7 73 -7q52 0 74 17.5t22 60.5q0 24 -17 32.5t-51 8.5q-35 0 -73 -7q-15 -3 -19 -3q-19 0 -19 17q0 5 7 31l49 167
q7 20 23 20h210q16 0 16 -13t-9 -50q-3 -16 -23 -16h-152z" />
    <glyph glyph-name="six.inferior" unicode="&#x2086;" 
d="M105 108q37 32 98 32q112 0 112 -94q0 -91 -51 -139q-42 -41 -134 -41q-135 0 -135 122q0 60 22.5 134t62.5 115q56 57 160 57q54 0 82 -10q12 -4 12 -17q0 -20 -11 -46q-5 -10 -16 -10q-2 0 -26 4q-34 4 -51 4q-60 0 -86 -30q-23 -26 -39 -81zM86 -13q0 -48 55 -48
q46 0 66 27q17 24 17 57q0 44 -53 44q-42 0 -65 -21q-7 -5 -11 -15q-9 -22 -9 -44z" />
    <glyph glyph-name="seven.inferior" unicode="&#x2087;" 
d="M223 208q-45 -1 -187 -1q-19 0 -19 13q0 14 9 51q4 15 21 15h280q17 0 17 -12l-4 -30q-5 -24 -17 -41q-80 -122 -192 -311q-11 -19 -29 -19h-58q-17 0 -17 14q0 9 8 22z" />
    <glyph glyph-name="eight.inferior" unicode="&#x2088;" 
d="M245 90q66 -14 66 -76q0 -76 -45 -112t-141 -36q-145 0 -145 98q0 110 107 129q-53 14 -53 72q0 129 168 129q138 0 138 -89q0 -96 -95 -115zM215 8q0 42 -59 42q-81 0 -81 -69q0 -43 60 -43q80 0 80 70zM247 186q0 34 -52 34q-70 0 -70 -59q0 -37 51 -37q71 0 71 62z
" />
    <glyph glyph-name="nine.inferior" unicode="&#x2089;" 
d="M223 55q-36 -33 -98 -33q-112 0 -112 96q0 85 51 135q42 41 134 41q134 0 134 -122q0 -63 -20.5 -138.5t-59.5 -114.5q-53 -54 -162 -54q-63 0 -90 11q-10 3 -10 16q0 16 13 47q5 11 16 11q3 0 27 -4q32 -4 49 -4q62 0 90 29q24 25 38 84zM243 174q0 47 -57 47
q-48 0 -66 -28q-17 -24 -17 -55q0 -44 54 -44q43 0 64 21q6 5 13 18q9 18 9 41z" />
    <glyph glyph-name="parenleft.inferior" unicode="&#x208d;" horiz-adv-x="224" 
d="M235 305q-70 -47 -117.5 -139t-47.5 -200q0 -93 53 -155q3 -4 3 -11q0 -6 -8 -14q-7 -7 -16 -7q-7 0 -20 8q-35 23 -62 72.5t-27 119.5q0 109 54.5 210t152.5 144q18 8 27 8q6 0 12 -8t6 -15q0 -6 -10 -13z" />
    <glyph glyph-name="parenright.inferior" unicode="&#x208e;" horiz-adv-x="224" 
d="M-85 -184q70 46 117 138t47 200q0 91 -52 156q-4 4 -4 10t8 14q7 7 15 7t21 -8q35 -23 62 -72.5t27 -118.5q0 -110 -54.5 -211t-152.5 -144q-15 -7 -27 -7q-7 0 -12 7q-6 8 -6 15q0 6 11 14z" />
    <glyph glyph-name="Euro" unicode="&#x20ac;" horiz-adv-x="649" 
d="M295 238q0 -16 2 -32q6 -50 32.5 -74.5t83.5 -24.5q72 0 114 12q24 6 31 6q14 0 19 -18q11 -40 11 -62q0 -21 -29 -31q-77 -26 -190 -26q-191 0 -211 190q-2 15 -2 60h-64q-19 0 -19 16t6 32q5 19 26 19h56q5 40 13 70h-58q-18 0 -18 15q0 16 6 33q6 19 26 19h62
q31 92 82 151q82 95 243 95q78 0 128 -14q19 -6 19 -26q0 -8 -7 -34t-14 -41q-6 -14 -19 -14q-4 0 -15.5 2.5t-16.5 3.5q-39 6 -85 6q-90 0 -133 -50q-22 -24 -43 -79h186q18 0 18 -15q0 -9 -5 -33q-4 -19 -27 -19h-191q-8 -32 -13 -70h194q18 0 18 -14q0 -11 -5 -33
q-5 -20 -27 -20h-184z" />
    <glyph glyph-name="afii61289" unicode="&#x2113;" horiz-adv-x="487" 
d="M219 217q-4 -20 -4 -41q0 -82 90 -82q39 0 79 17q19 7 26 7q19 0 26 -19q11 -31 11 -47q0 -20 -28 -32q-70 -33 -152 -33q-140 0 -164 117q-4 19 -4 43q-10 -5 -38 -21q-12 -6 -24 -6q-9 0 -15 5.5t-14 25.5q-7 25 -7 29q0 16 25 29q29 15 71 39q7 64 16 114
q29 135 62 198q34 65 83 96.5t124 31.5q69 0 102 -36t33 -89q0 -66 -28 -115.5t-84 -101.5q-15 -14 -30 -26t-39 -28l-32 -22l-44 -28zM228 330q65 45 119 96q63 59 63 116q0 47 -48 47q-42 0 -70 -41q-24 -36 -51 -144q-7 -30 -13 -74z" />
    <glyph glyph-name="trademark" unicode="&#x2122;" horiz-adv-x="811" 
d="M243 382q-4 -19 -20 -19h-44q-15 0 -15 14q0 4 2 14l53 246h-79q-15 0 -15 12q0 2 8 40q4 17 22 17h236q15 0 15 -11q0 -7 -9 -43q-3 -15 -22 -15h-77zM477 382q-3 -19 -20 -19h-43q-14 0 -14 13q0 3 2 17l63 292q5 21 23 21h70q17 0 20 -13q24 -105 32 -157
q14 25 98 154q10 16 25 16h69q17 0 17 -15q0 -8 -2 -18l-62 -289q-4 -21 -22 -21h-43q-14 0 -14 13q0 7 2 17q46 207 52 231q-24 -47 -105 -176q-7 -12 -21 -12h-27q-14 0 -16 13q-30 149 -33 176q-15 -76 -51 -243z" />
    <glyph glyph-name="Omega" unicode="&#x2126;" horiz-adv-x="747" 
d="M307 34q-5 -34 -41 -34h-202q-29 0 -29 18t12 72q4 18 11.5 24t23.5 6h143q-67 27 -101.5 72t-34.5 121q0 77 26 155t78 131q90 90 262 90q136 0 196 -52t60 -156q0 -160 -76 -258q-54 -67 -149 -103h149q29 0 29 -21q0 -8 -12 -66q-4 -19 -10 -26t-24 -7h-212
q-34 0 -34 24q0 26 18 106q8 34 34 47q67 31 96 84q43 82 43 187q0 66 -31 93.5t-97 27.5q-94 0 -139 -56q-31 -39 -47 -99t-16 -113q0 -85 71 -125q21 -13 21 -37q0 -8 -18 -105z" />
    <glyph glyph-name="estimated" unicode="&#x212e;" horiz-adv-x="845" 
d="M824 336h-616q-6 0 -6 -4v-195q0 -10 10 -22q95 -106 233 -106q147 0 244 118h57q-54 -64 -133 -101.5t-169 -37.5q-158 0 -269.5 105t-111.5 253t111.5 252.5t269.5 104.5t269 -104.5t111 -252.5v-10zM686 362v195q0 13 -11 24q-98 101 -230 101q-135 0 -232 -105
q-11 -9 -11 -24v-191q0 -5 6 -5h472q6 0 6 5z" />
    <glyph glyph-name="onethird" unicode="&#x2153;" horiz-adv-x="871" 
d="M226 -14q-12 -18 -27 -18h-27q-14 0 -14 12q0 7 10 20l448 689q13 22 29 22h30q13 0 13 -11q0 -7 -12 -26zM235 586l-49 -19q-8 -4 -15 -4q-6 0 -10 9q-14 35 -14 46t12 15l96 38q12 5 27 5h47q15 0 15 -14q0 -7 -2 -15l-82 -365q-5 -19 -22 -19h-56q-16 0 -16 15
q0 3 2 13zM704 217q73 -7 73 -78q0 -77 -44 -111q-45 -36 -151 -36q-66 0 -99 12q-13 5 -13 16q0 15 13 47q4 11 16 11q7 0 23 -4q33 -6 70 -6q54 0 73 18q17 17 17 51q0 19 -16 28t-55 9h-15q-16 0 -16 14q0 16 8 45q4 18 22 18h17q42 0 59 13q18 13 18 45q0 20 -13 27
t-48 7q-33 0 -56 -5q-18 -4 -24 -4q-9 0 -11 10q-6 36 -6 43q0 14 21 20q54 13 107 13q70 0 97.5 -22.5t27.5 -63.5q0 -50 -21.5 -78t-73.5 -39z" />
    <glyph glyph-name="twothirds" unicode="&#x2154;" horiz-adv-x="871" 
d="M286 -14q-12 -18 -27 -18h-27q-14 0 -14 12q0 7 10 20l448 689q13 22 29 22h30q13 0 13 -11q0 -7 -12 -26zM347 264h-276q-15 0 -15 13q0 6 8 42q3 12 17 21q100 64 172 120q53 40 53 97q0 27 -14.5 38.5t-49.5 11.5q-32 0 -61 -6q-18 -4 -23 -4q-10 0 -13 10
q-7 34 -7 43q0 14 20 19q56 15 118 15q131 0 131 -102q0 -87 -66 -142q-67 -58 -142 -99q38 1 160 1q18 0 18 -15q0 -12 -9 -48q-4 -15 -21 -15zM750 217q73 -7 73 -78q0 -77 -44 -111q-45 -36 -151 -36q-66 0 -99 12q-13 5 -13 16q0 15 13 47q4 11 16 11q7 0 23 -4
q33 -6 70 -6q54 0 73 18q17 17 17 51q0 19 -16 28t-55 9h-15q-16 0 -16 14q0 16 8 45q4 18 22 18h17q42 0 59 13q18 13 18 45q0 20 -13 27t-48 7q-33 0 -56 -5q-18 -4 -24 -4q-9 0 -11 10q-6 36 -6 43q0 14 21 20q54 13 107 13q70 0 97.5 -22.5t27.5 -63.5q0 -50 -21.5 -78
t-73.5 -39z" />
    <glyph glyph-name="oneeighth" unicode="&#x215b;" horiz-adv-x="871" 
d="M214 -14q-12 -18 -27 -18h-27q-14 0 -14 12q0 7 10 20l448 689q13 22 29 22h30q13 0 13 -11q0 -7 -12 -26zM221 586l-49 -19q-8 -4 -15 -4q-6 0 -10 9q-14 35 -14 46t12 15l96 38q12 5 27 5h47q15 0 15 -14q0 -7 -2 -15l-82 -365q-5 -19 -22 -19h-56q-16 0 -16 15
q0 3 2 13zM719 216q66 -14 66 -76q0 -76 -45 -112t-141 -36q-145 0 -145 98q0 110 107 129q-53 14 -53 72q0 129 168 129q138 0 138 -89q0 -96 -95 -115zM689 134q0 42 -59 42q-81 0 -81 -69q0 -43 60 -43q80 0 80 70zM721 312q0 34 -52 34q-70 0 -70 -59q0 -37 51 -37
q71 0 71 62z" />
    <glyph glyph-name="threeeighths" unicode="&#x215c;" horiz-adv-x="871" 
d="M259 -14q-12 -18 -27 -18h-27q-14 0 -14 12q0 7 10 20l448 689q13 22 29 22h30q13 0 13 -11q0 -7 -12 -26zM295 481q73 -7 73 -78q0 -77 -44 -111q-45 -36 -151 -36q-66 0 -99 12q-13 5 -13 16q0 15 13 47q4 11 16 11q7 0 23 -4q33 -6 70 -6q54 0 73 18q17 17 17 51
q0 19 -16 28t-55 9h-15q-16 0 -16 14q0 16 8 45q5 18 22 18h17q42 0 59 13q18 13 18 45q0 20 -13 27t-48 7q-34 0 -56 -5q-18 -4 -24 -4q-9 0 -11 10q-6 36 -6 43q0 14 21 20q54 13 107 13q70 0 97.5 -22.5t27.5 -63.5q0 -50 -21.5 -78t-73.5 -39zM754 216q66 -14 66 -76
q0 -76 -45 -112t-141 -36q-145 0 -145 98q0 110 107 129q-53 14 -53 72q0 129 168 129q138 0 138 -89q0 -96 -95 -115zM724 134q0 42 -59 42q-81 0 -81 -69q0 -43 60 -43q80 0 80 70zM756 312q0 34 -52 34q-70 0 -70 -59q0 -37 51 -37q71 0 71 62z" />
    <glyph glyph-name="fiveeighths" unicode="&#x215d;" horiz-adv-x="871" 
d="M268 -14q-12 -18 -27 -18h-27q-14 0 -14 12q0 7 10 20l448 689q13 22 29 22h30q13 0 13 -11q0 -7 -12 -26zM207 519q34 8 63 8q59 0 87.5 -20.5t28.5 -68.5q0 -89 -45 -135.5t-157 -46.5q-71 0 -108 11q-14 4 -14 17t13 46q6 13 19 13q3 0 12 -2t13 -2q35 -7 73 -7
q52 0 74 17.5t22 60.5q0 24 -17 32.5t-51 8.5t-73 -7q-15 -3 -19 -3q-19 0 -19 17q0 11 7 32l49 166q7 20 23 20h210q16 0 16 -13t-9 -50q-3 -16 -23 -16h-152zM766 216q66 -14 66 -76q0 -76 -45 -112t-141 -36q-145 0 -145 98q0 110 107 129q-53 14 -53 72q0 129 168 129
q138 0 138 -89q0 -96 -95 -115zM736 134q0 42 -59 42q-81 0 -81 -69q0 -43 60 -43q80 0 80 70zM768 312q0 34 -52 34q-70 0 -70 -59q0 -37 51 -37q71 0 71 62z" />
    <glyph glyph-name="seveneighths" unicode="&#x215e;" horiz-adv-x="871" 
d="M210 -14q-12 -18 -27 -18h-27q-14 0 -14 12q0 7 10 20l448 689q13 22 29 22h30q13 0 13 -11q0 -7 -12 -26zM311 598q-45 -1 -187 -1q-19 0 -19 13q0 14 9 51q4 15 21 15h280q17 0 17 -12q0 -10 -4 -30q-4 -19 -17 -42l-192 -310q-11 -19 -27 -19h-60q-17 0 -17 14
q0 9 8 22zM712 216q66 -14 66 -76q0 -76 -45 -112t-141 -36q-145 0 -145 98q0 110 107 129q-53 14 -53 72q0 129 168 129q138 0 138 -89q0 -96 -95 -115zM682 134q0 42 -59 42q-81 0 -81 -69q0 -43 60 -43q80 0 80 70zM714 312q0 34 -52 34q-70 0 -70 -59q0 -37 51 -37
q71 0 71 62z" />
    <glyph glyph-name="arrowleft" unicode="&#x2190;" horiz-adv-x="768" 
d="M711 400q46 0 46 -38v-51q0 -18 -11.5 -28t-28.5 -10q-384 0 -460 1l180 -165q19 -19 19 -37q0 -14 -9 -25l-29 -31q-10 -12 -27 -14q-14 0 -26 13l-295 291q-13 13 -13 30t13 29l299 297q11 12 25 12t27 -13l26 -29q13 -13 13 -26q0 -14 -14 -30q-122 -119 -188 -178
q74 2 453 2z" />
    <glyph glyph-name="arrowup" unicode="&#x2191;" horiz-adv-x="768" 
d="M351 45q0 371 2 444q-49 -55 -181 -178q-14 -14 -29 -14t-25 11l-27 27q-13 15 -13 27q0 13 12 27l298 297q12 13 28 13t29 -12l293 -294q13 -15 13 -27q-2 -16 -14 -28l-29 -29q-12 -10 -23 -10q-19 0 -38 19l-168 172q1 -75 1 -449q0 -18 -9.5 -29.5t-26.5 -11.5h-56
q-37 0 -37 45z" />
    <glyph glyph-name="arrowright" unicode="&#x2192;" horiz-adv-x="768" 
d="M99 400q379 0 453 -2l-187 178q-14 14 -14 29q0 16 11 27l27 29q13 13 27 13t26 -12l299 -297q12 -11 12 -29t-12 -30l-296 -291q-11 -12 -26 -12t-27 13l-29 31q-11 11 -11 24q0 18 20 38l180 165q-75 -1 -458 -1q-18 0 -29 10t-11 28v51q0 38 45 38z" />
    <glyph glyph-name="arrowdown" unicode="&#x2193;" horiz-adv-x="768" 
d="M337 629q0 46 36 46h56q17 0 27 -11.5t10 -29.5q0 -375 -1 -449l168 172q17 19 37 19q14 0 23 -10l30 -29q13 -15 13 -27q0 -15 -13 -28l-292 -294q-15 -13 -29 -13t-29 13l-297 298q-13 13 -13 27q0 12 13 27l29 27q10 11 25 11t29 -14q138 -132 180 -179q-2 75 -2 444z
" />
    <glyph glyph-name="uni2196" unicode="&#x2196;" horiz-adv-x="768" 
d="M678 166q17 -15 17 -33q0 -17 -14 -28q-29 -33 -40.5 -41.5t-20.5 -8.5q-15 0 -29 14q-237 233 -318 320q6 -162 6 -244q0 -22 -12 -37q-10 -10 -24 -10h-46q-18 0 -28 10q-10 12 -10 30v413q0 18 12 30q10 11 34 11h417q18 0 27 -9q10 -10 10 -29v-40q0 -19 -10 -28
q-9 -10 -31 -10q-165 0 -261 4z" />
    <glyph glyph-name="uni2197" unicode="&#x2197;" horiz-adv-x="768" 
d="M222 73q-15 -17 -32 -17q-15 0 -28 13q-32 32 -40 43.5t-8 21.5q0 16 14 29l327 313q-140 -5 -252 -5q-24 0 -35 10q-11 11 -11 27v46q0 17 10 29q10 9 28 9h415q18 0 30 -12q11 -9 11 -34v-414q0 -17 -9 -30q-10 -9 -29 -9h-41q-18 0 -26 9q-11 10 -11 32q0 153 4 249z
" />
    <glyph glyph-name="uni2198" unicode="&#x2198;" horiz-adv-x="768" 
d="M137 508q-17 19 -17 34t13 28q29 32 41 41t21 9q15 0 29 -14q237 -232 319 -320q-6 78 -6 243q0 25 11 37q10 10 25 10h46q15 0 28 -9q9 -12 9 -30v-413q0 -18 -12 -30q-10 -12 -34 -12h-416q-16 0 -28 10q-9 10 -9 29v39q0 20 9 28q10 11 31 11q169 0 261 -4z" />
    <glyph glyph-name="uni2199" unicode="&#x2199;" horiz-adv-x="768" 
d="M589 601q18 18 33 18q12 0 28 -14q47 -46 47 -64q0 -17 -13 -31l-327 -313q108 4 252 4q25 0 35 -10q11 -9 11 -26v-45q0 -17 -10 -29q-9 -9 -29 -9h-415q-17 0 -29 12q-11 11 -11 34v415q0 19 9 29q9 9 30 9h42q18 0 27 -9q10 -11 10 -33q0 -155 -4 -251z" />
    <glyph glyph-name="partialdiff" unicode="&#x2202;" horiz-adv-x="563" 
d="M412 398q9 54 9 88q0 60 -25.5 83t-76.5 23q-47 0 -91 -12q-15 -5 -25 -5q-15 0 -21 20q-7 28 -7 44q0 20 23 28q60 21 141 21q97 0 149 -42.5t52 -151.5q0 -100 -27 -227.5t-79 -192.5q-69 -87 -204 -87q-86 0 -135.5 39.5t-49.5 122.5q0 143 81 221q64 61 176 61
q77 0 110 -33zM401 297q-30 41 -103 41q-64 0 -93 -29q-49 -50 -49 -139q0 -88 89 -88q47 0 74.5 18.5t47.5 69.5q17 44 34 127z" />
    <glyph glyph-name="Delta" unicode="&#x2206;" horiz-adv-x="715" 
d="M663 57q3 -12 3 -27q0 -30 -34 -30h-619q-26 0 -26 20q0 11 11 28l373 598q10 17 19.5 23.5t25.5 6.5h106q15 0 21 -6.5t9 -23.5zM446 535q-24 -44 -253 -413h321q-64 377 -68 413z" />
    <glyph glyph-name="product" unicode="&#x220f;" horiz-adv-x="719" 
d="M154 -99q-4 -20 -12 -27t-27 -7h-71q-29 0 -29 21l4 24l155 727q5 20 13.5 28.5t26.5 8.5h469q30 0 30 -24q0 -10 -5 -32l-154 -720q-4 -19 -11.5 -26t-22.5 -7h-78q-28 0 -28 21q0 10 2 20l139 646h-263z" />
    <glyph glyph-name="summation" unicode="&#x2211;" horiz-adv-x="608" 
d="M476 -132h-472q-32 0 -32 25q0 18 11 66q6 20 28 44l275 289l-151 257q-12 21 -12 34q0 17 11 60q4 19 12.5 26t27.5 7h426q32 0 32 -22q0 -18 -12 -73q-3 -17 -12.5 -21.5t-33.5 -4.5h-287l143 -233q9 -14 9 -38q0 -20 -31 -49l-245 -245h339q32 0 32 -20q0 -25 -13 -77
q-4 -15 -14 -20t-31 -5z" />
    <glyph glyph-name="minus" unicode="&#x2212;" horiz-adv-x="701" 
d="M592 249h-460q-27 0 -27 25q0 12 5 39q6 28 33 28h460q28 0 28 -25q0 -3 -6 -39q-5 -28 -33 -28z" />
    <glyph glyph-name="uni2215" unicode="&#x2215;" horiz-adv-x="84" 
d="M-134 -14q-12 -18 -27 -18h-27q-14 0 -14 12q0 7 10 20l448 689q13 22 29 22h30q13 0 13 -11q0 -7 -12 -26z" />
    <glyph glyph-name="uni2219" unicode="&#x2219;" horiz-adv-x="244" 
d="M206 290q0 -54 -29 -80q-22 -22 -62 -22q-69 0 -69 64q0 45 26 74q25 26 65 26q69 0 69 -62z" />
    <glyph glyph-name="radical" unicode="&#x221a;" horiz-adv-x="637" 
d="M290 -163q-9 -24 -35 -24h-43q-25 0 -34 25l-78 227l-38 -14q-6 -2 -13 -2q-19 0 -28 23q-6 19 -6 27q0 19 21 26l103 38q10 4 22 4q18 0 25 -22l65 -197l312 712q11 24 35 24h31q27 0 27 -21q0 -6 -6 -20z" />
    <glyph glyph-name="infinity" unicode="&#x221e;" horiz-adv-x="730" 
d="M387 360q89 92 180 92q59 0 95 -39t36 -101q0 -77 -46.5 -127t-118.5 -50q-47 0 -81.5 22.5t-72.5 71.5q-50 -48 -90 -70.5t-89 -22.5q-60 0 -97.5 37t-37.5 101q0 77 47 128t120 51q46 0 81 -22.5t74 -70.5zM330 296q-30 37 -53 54.5t-52 17.5q-37 0 -57.5 -23.5
t-20.5 -58.5q0 -29 17.5 -47t45.5 -18q56 0 120 75zM435 294q32 -41 54.5 -57.5t51.5 -16.5q35 0 55.5 24t20.5 58q0 30 -17 47.5t-46 17.5q-50 0 -119 -73z" />
    <glyph glyph-name="integral" unicode="&#x222b;" horiz-adv-x="339" 
d="M76 -8l15 78l80 415q1 7 7 37.5t9 42.5q33 144 174 144q24 0 48 -4q22 -4 22 -20q0 -25 -10 -48q-8 -22 -34 -22q-1 0 -14.5 1.5t-23.5 1.5q-46 0 -63 -67q-5 -20 -14 -65l-79 -417q-2 -9 -5 -26l-6 -34q-3 -16 -6 -29q-17 -76 -62 -108.5t-120 -32.5q-20 0 -40 4
q-15 3 -15 18q0 27 10 50q11 23 33 23q2 0 14 -1.5t19 -1.5q24 0 38.5 13t22.5 48z" />
    <glyph glyph-name="approxequal" unicode="&#x2248;" horiz-adv-x="718" 
d="M170 142q-14 -16 -24 -16q-16 0 -35 17q-15 15 -15 28t8 23q74 85 150 85q43 0 115 -39q53 -30 92 -30q44 0 84 44q14 16 28 16q11 0 27 -12q21 -17 21 -32q0 -12 -8 -22q-68 -89 -153 -89q-53 0 -115 36q-57 33 -91 33q-42 0 -84 -42zM215 350q-15 -15 -25 -15
q-15 0 -34 17q-16 15 -16 28t9 22q75 86 150 86q46 0 115 -39q55 -31 91 -31q44 0 85 44q15 17 27 17q11 0 27 -13q22 -17 22 -31q0 -12 -8 -23q-35 -44 -70.5 -66t-83.5 -22q-54 0 -115 35q-59 34 -90 34q-42 0 -84 -43z" />
    <glyph glyph-name="notequal" unicode="&#x2260;" horiz-adv-x="701" 
d="M223 24q-13 -20 -37 -20h-14q-25 0 -25 18q0 10 8 21l73 100h-116q-28 0 -28 25q0 12 6 38q6 27 33 27h164l86 122h-216q-28 0 -28 25q0 8 7 37q6 28 32 28h265l77 106q15 20 35 20h18q25 0 25 -19q0 -8 -8 -19l-66 -88h114q28 0 28 -25q0 -1 -6 -37q-4 -28 -34 -28h-161
l-85 -122h213q28 0 28 -25q0 -2 -7 -37q-5 -28 -33 -28h-262z" />
    <glyph glyph-name="lessequal" unicode="&#x2264;" horiz-adv-x="701" 
d="M569 187q-4 -23 -23 -23q-10 0 -19 5l-359 169q-21 9 -21 31q0 14 8 55q4 26 26 35l435 173q9 4 18 4q19 0 19 -21q0 -15 -7 -54q-4 -24 -28 -34l-369 -132l304 -131q22 -9 22 -32q0 -14 -6 -45zM506 0h-401q-28 0 -28 25q0 7 6 37q6 29 33 29h402q28 0 28 -26
q0 -1 -6 -37q-5 -28 -34 -28z" />
    <glyph glyph-name="greaterequal" unicode="&#x2265;" horiz-adv-x="701" 
d="M205 614q4 24 23 24q5 0 17 -5l362 -169q20 -9 20 -30q0 -11 -8 -56q-4 -25 -27 -34l-435 -174q-12 -4 -17 -4q-19 0 -19 20q0 18 7 55q4 25 28 34l369 132l-305 131q-22 10 -22 33q0 8 7 43zM519 0h-401q-28 0 -28 25q0 12 6 37q6 29 33 29h402q28 0 28 -26q0 -1 -6 -37
q-5 -28 -34 -28z" />
    <glyph glyph-name="lozenge" unicode="&#x25ca;" horiz-adv-x="718" 
d="M403 677q15 19 39 19h50q26 0 34 -28l78 -293q3 -9 3 -17q0 -13 -11 -29l-223 -309q-15 -20 -37 -20h-51q-29 0 -36 27l-82 294q-4 14 -4 20q0 15 10 28zM266 343l63 -237l177 251l-56 237z" />
    <glyph glyph-name="commaaccent" unicode="&#xf6c3;" horiz-adv-x="185" 
d="M149 -64q29 0 29 -29q0 -21 -9 -47q-26 -80 -79 -130q-20 -20 -37 -20q-15 0 -32 11q-14 10 -14 22q0 13 12 27q40 50 50 127q5 39 39 39h41z" />
    <glyph glyph-name="Dotlessi" horiz-adv-x="306" 
d="M176 27q-6 -28 -32 -28h-85q-21 0 -21 20q0 9 2 19l137 639q7 30 32 30h85q23 0 23 -19q0 -7 -4 -29z" />
    <glyph glyph-name="Euro.denominator" horiz-adv-x="429" 
d="M190 142q2 -20 3 -25q9 -45 73 -45q39 0 70 7q12 3 22 3t13 -11q7 -33 7 -43q0 -14 -20 -20q-49 -15 -127 -15q-61 0 -98.5 31.5t-37.5 93.5q0 17 1 24h-42q-12 0 -12 10q0 14 4 22q4 13 18 13h35q4 24 8 40h-37q-12 0 -12 11q0 13 4 22q5 13 17 13h41q20 54 52 89
q52 58 159 58q45 0 83 -9q14 -4 14 -16q0 -22 -15 -52q-3 -8 -13 -8q-8 0 -21 3q-23 4 -54 4q-58 0 -83 -27q-16 -16 -26 -42h116q13 0 13 -9q0 -4 -5 -24q-3 -13 -17 -13h-121q-3 -10 -8 -40h122q12 0 12 -10t-4 -23q-2 -12 -17 -12h-117z" />
    <glyph glyph-name="Euro.inferior" horiz-adv-x="429" 
d="M159 16q2 -20 3 -25q9 -45 73 -45q39 0 70 7q12 3 22 3t13 -11q7 -33 7 -43q0 -14 -20 -20q-49 -15 -127 -15q-61 0 -98.5 31.5t-37.5 93.5q0 17 1 24h-42q-12 0 -12 10q0 14 4 22q4 13 18 13h35q4 24 8 40h-37q-12 0 -12 11q0 13 4 22q5 13 17 13h41q20 54 52 89
q52 58 159 58q45 0 83 -9q14 -4 14 -16q0 -22 -15 -52q-3 -8 -13 -8q-7 0 -21 3q-23 4 -54 4q-58 0 -83 -27q-16 -16 -26 -42h116q13 0 13 -9q0 -4 -5 -24q-3 -13 -17 -13h-121q-3 -10 -8 -40h122q12 0 12 -10t-4 -23q-2 -12 -17 -12h-117z" />
    <glyph glyph-name="Euro.numerator" horiz-adv-x="429" 
d="M230 406q2 -20 3 -25q9 -45 73 -45q39 0 70 7q12 3 22 3t13 -11q7 -33 7 -43q0 -14 -20 -20q-49 -15 -127 -15q-61 0 -98.5 31.5t-37.5 93.5q0 17 1 24h-42q-12 0 -12 10q0 14 4 22q4 13 18 13h35q4 24 8 40h-37q-12 0 -12 11q0 13 4 22q5 13 17 13h41q20 54 52 89
q52 58 159 58q45 0 83 -9q14 -4 14 -16q0 -22 -15 -52q-3 -8 -13 -8q-8 0 -21 3q-23 4 -54 4q-58 0 -83 -27q-16 -16 -26 -42h116q13 0 13 -9q0 -4 -5 -24q-3 -13 -17 -13h-121q-3 -10 -8 -40h122q12 0 12 -10t-4 -23q-2 -12 -17 -12h-117z" />
    <glyph glyph-name="Euro.oldstyle" horiz-adv-x="639" 
d="M298 205q0 -21 3 -36q8 -38 31.5 -54t73.5 -16q47 0 103 14q26 6 30 6q12 0 16 -12q13 -29 13 -59q0 -23 -26 -34q-69 -27 -181 -27q-186 0 -199 169q-1 13 -1 49h-60q-19 0 -19 16q0 8 5 28t24 20h57q7 45 12 65h-55q-19 0 -19 16q0 8 5 27q5 21 24 21h62q31 94 87 144
q76 69 212 69q70 0 123 -12q18 -5 18 -24q0 -24 -21 -71q-5 -13 -19 -13q-10 0 -34 4q-37 7 -77 7q-72 0 -111 -36q-26 -25 -42 -68h179q19 0 19 -16q0 -7 -6 -31q-3 -17 -23 -17h-188q-9 -32 -12 -65h186q19 0 19 -15q0 -8 -6 -32q-3 -17 -24 -17h-179z" />
    <glyph glyph-name="Euro.superior" horiz-adv-x="429" 
d="M270 562q2 -20 3 -25q9 -45 73 -45q39 0 70 7q12 3 22 3t13 -11q7 -33 7 -43q0 -14 -20 -20q-49 -15 -127 -15q-61 0 -98.5 31.5t-37.5 93.5q0 17 1 24h-42q-12 0 -12 10q0 14 4 22q4 13 18 13h35q4 24 8 40h-37q-12 0 -12 11q0 13 4 22q5 13 17 13h41q20 54 52 89
q52 58 159 58q45 0 83 -9q14 -4 14 -16q0 -22 -15 -52q-3 -8 -13 -8q-8 0 -21 3q-23 4 -54 4q-58 0 -83 -27q-16 -16 -26 -42h116q13 0 13 -9q0 -4 -5 -24q-3 -13 -17 -13h-121q-3 -10 -8 -40h122q12 0 12 -10t-4 -23q-2 -12 -17 -12h-117z" />
    <glyph glyph-name="Kgreenlandic" horiz-adv-x="785" 
d="M722 433h-41q-30 0 -30 33q0 28 14 62q16 49 48 97.5t67 75.5q22 19 37 19t30 -11q13 -9 13 -24q0 -12 -13 -27q-69 -80 -80 -186q-5 -39 -45 -39zM176 27q-6 -28 -31 -28h-86q-22 0 -22 20q0 3 0.5 7.5t2 9.5t1.5 7l136 634q7 30 32 30h86q22 0 22 -20q0 -1 -3 -19
l-53 -245h42q34 0 50 21l178 241q16 22 40 22h83q20 0 20 -18q0 -12 -13 -28q-185 -248 -233 -307q20 -42 128 -302q7 -19 7 -30q0 -23 -27 -23h-87q-21 0 -30 21l-106 267q-7 17 -36 17h-40z" />
    <glyph glyph-name="S_S" horiz-adv-x="1166" 
d="M395 402q73 -23 105 -61t32 -101q0 -132 -74.5 -192.5t-222.5 -60.5q-131 0 -203 29q-19 9 -19 30q0 23 17 65q11 25 35 25q9 0 39 -9q77 -22 150 -22q64 0 96.5 19t32.5 73q0 28 -16 47.5t-61 36.5l-75 27q-66 25 -98 64.5t-32 102.5q0 244 294 244q102 0 167 -22
q19 -6 19 -28q0 -25 -14 -67q-6 -21 -29 -21q-15 0 -35 5q-74 15 -142 15q-112 0 -113 -89q0 -28 15 -46.5t56 -34.5zM976 402q73 -23 105 -61t32 -101q0 -132 -74.5 -192.5t-222.5 -60.5q-131 0 -203 29q-19 9 -19 30q0 23 17 65q11 25 35 25q9 0 39 -9q77 -22 150 -22
q64 0 96.5 19t32.5 73q0 28 -16 47.5t-61 36.5l-75 27q-66 25 -98 64.5t-32 102.5q0 244 294 244q102 0 167 -22q19 -6 19 -28q0 -25 -14 -67q-6 -21 -29 -21q-15 0 -35 5q-74 15 -142 15q-112 0 -113 -89q0 -28 15 -46.5t56 -34.5z" />
    <glyph glyph-name="a.sc" horiz-adv-x="532" 
d="M177 123l-55 -96q-16 -28 -36 -28h-91q-22 0 -22 18q0 9 9 23l267 457q13 23 38 23h89q25 0 30 -25l76 -451q2 -16 2 -24q0 -21 -29 -21h-79q-14 0 -20 6.5t-8 21.5l-13 96h-158zM226 226h102q-12 85 -18 153q-25 -51 -84 -153z" />
    <glyph glyph-name="a.superior" horiz-adv-x="379" 
d="M340 285q-2 -13 -6.5 -17.5t-15.5 -4.5h-52q-17 0 -18 12q0 1 0.5 5.5t0.5 5.5q-32 -29 -90 -29q-46 0 -71.5 24t-25.5 71q0 51 18.5 105.5t54.5 83.5q40 31 112 31q46 0 63 -17q6 16 21 16h50q18 0 18 -15q0 -6 -4 -22zM262 362l29 131q-14 7 -38 7q-38 0 -57 -20
q-35 -37 -35 -103q0 -25 10 -36t32 -11q24 0 45 12q7 5 8 8q5 7 6 12z" />
    <glyph glyph-name="aacute.sc" horiz-adv-x="532" 
d="M177 123l-55 -96q-16 -28 -36 -28h-91q-22 0 -22 18q0 9 9 23l267 457q13 23 38 23h89q25 0 30 -25l76 -451q2 -16 2 -24q0 -21 -29 -21h-79q-14 0 -20 6.5t-8 21.5l-13 96h-158zM226 226h102q-12 85 -18 153q-25 -51 -84 -153zM367 608q-18 -18 -41 -18h-49
q-24 0 -24 18q0 11 10 23l107 117q19 22 39 22h79q25 0 25 -19q0 -10 -13 -23z" />
    <glyph glyph-name="abreve.sc" horiz-adv-x="532" 
d="M177 123l-55 -96q-16 -28 -36 -28h-91q-22 0 -22 18q0 9 9 23l267 457q13 23 38 23h89q25 0 30 -25l76 -451q2 -16 2 -24q0 -21 -29 -21h-79q-14 0 -20 6.5t-8 21.5l-13 96h-158zM226 226h102q-12 85 -18 153q-25 -51 -84 -153zM484 750q19 0 19 -23q0 -19 -11 -46
q-21 -49 -58 -74.5t-104 -25.5q-65 0 -99 31.5t-34 76.5q0 21 3 34q4 27 26 27h27q24 0 24 -22q0 -18 4 -27q12 -33 61 -33q38 0 53.5 14t27.5 45q9 23 31 23h30z" />
    <glyph glyph-name="acircumflex.sc" horiz-adv-x="532" 
d="M177 123l-55 -96q-16 -28 -36 -28h-91q-22 0 -22 18q0 9 9 23l267 457q13 23 38 23h89q25 0 30 -25l76 -451q2 -16 2 -24q0 -21 -29 -21h-79q-14 0 -20 6.5t-8 21.5l-13 96h-158zM226 226h102q-12 85 -18 153q-25 -51 -84 -153zM248 587h-48q-20 0 -20 17q0 9 12 23
l107 117q24 26 43 26h62q21 0 34 -25l61 -119q5 -12 5 -20q0 -19 -27 -19h-42q-21 0 -33 19l-42 71l-72 -71q-19 -19 -40 -19z" />
    <glyph glyph-name="acute.cap" horiz-adv-x="197" 
d="M71 772q-23 -13 -45 -13h-59q-20 0 -20 15q0 14 13 25l128 98q22 18 45 18h93q23 0 23 -16q0 -18 -14 -26z" />
    <glyph glyph-name="acute.sc" horiz-adv-x="197" 
d="M83 608q-18 -18 -41 -18h-49q-24 0 -24 18q0 11 10 23l107 117q19 22 39 22h79q25 0 25 -19q0 -10 -13 -23z" />
    <glyph glyph-name="adieresis.sc" horiz-adv-x="532" 
d="M177 123l-55 -96q-16 -28 -36 -28h-91q-22 0 -22 18q0 9 9 23l267 457q13 23 38 23h89q25 0 30 -25l76 -451q2 -16 2 -24q0 -21 -29 -21h-79q-14 0 -20 6.5t-8 21.5l-13 96h-158zM226 226h102q-12 85 -18 153q-25 -51 -84 -153zM317 684q0 -44 -22 -65q-19 -17 -50 -17
q-54 0 -54 49q0 41 20 61q20 21 51 21q55 0 55 -49zM505 684q0 -44 -22 -65q-19 -17 -49 -17q-55 0 -55 49q0 41 20 61q20 21 52 21q54 0 54 -49z" />
    <glyph glyph-name="ae.sc" horiz-adv-x="785" 
d="M217 122l-81 -95q-22 -28 -48 -28h-100q-19 0 -19 17q0 10 12 25l385 456q19 23 47 23h362q24 0 24 -19q0 -14 -14 -73q-5 -18 -28 -18h-183l-19 -88h169q23 0 23 -19q0 -14 -13 -72q-4 -19 -30 -19h-171l-22 -101h204q24 0 24 -19q0 -18 -15 -73q-5 -19 -27 -19h-318
q-21 0 -21 17q0 6 3 20l18 85h-162zM295 229h105l40 183q-40 -56 -145 -183z" />
    <glyph glyph-name="aeacute.sc" horiz-adv-x="785" 
d="M217 122l-81 -95q-22 -28 -48 -28h-100q-19 0 -19 17q0 10 12 25l385 456q19 23 47 23h362q24 0 24 -19q0 -14 -14 -73q-5 -18 -28 -18h-183l-19 -88h169q23 0 23 -19q0 -14 -13 -72q-4 -19 -30 -19h-171l-22 -101h204q24 0 24 -19q0 -18 -15 -73q-5 -19 -27 -19h-318
q-21 0 -21 17q0 6 3 20l18 85h-162zM295 229h105l40 183q-40 -56 -145 -183zM558 608q-18 -18 -41 -18h-49q-24 0 -24 18q0 11 10 23l107 117q19 22 39 22h79q25 0 25 -19q0 -10 -13 -23z" />
    <glyph glyph-name="agrave.sc" horiz-adv-x="532" 
d="M177 123l-55 -96q-16 -28 -36 -28h-91q-22 0 -22 18q0 9 9 23l267 457q13 23 38 23h89q25 0 30 -25l76 -451q2 -16 2 -24q0 -21 -29 -21h-79q-14 0 -20 6.5t-8 21.5l-13 96h-158zM226 226h102q-12 85 -18 153q-25 -51 -84 -153zM299 608l-104 117q-10 13 -10 24
q0 21 24 21h74q21 0 38 -25l81 -114q9 -13 9 -23q0 -18 -25 -18h-45q-25 0 -42 18z" />
    <glyph glyph-name="amacron.sc" horiz-adv-x="532" 
d="M177 123l-55 -96q-16 -28 -36 -28h-91q-22 0 -22 18q0 9 9 23l267 457q13 23 38 23h89q25 0 30 -25l76 -451q2 -16 2 -24q0 -21 -29 -21h-79q-14 0 -20 6.5t-8 21.5l-13 96h-158zM226 226h102q-12 85 -18 153q-25 -51 -84 -153zM448 609h-224q-22 0 -22 19q0 16 9 52
q8 25 32 25h222q24 0 24 -19q0 -17 -10 -54q-4 -14 -10.5 -18.5t-20.5 -4.5z" />
    <glyph glyph-name="ampersand.alt" horiz-adv-x="740" 
d="M503 51q-82 -64 -220 -64q-120 0 -181 50t-61 136q0 93 45.5 143t141.5 84q-47 63 -47 146q0 77 56.5 123.5t170.5 46.5q93 0 138 -33.5t45 -106.5q0 -121 -176 -197q65 -83 121 -142q25 47 37 118q5 30 31 30h73q25 0 25 -28q0 -15 -8 -49q-23 -104 -81 -166l37 -44
l35 -38q14 -19 14 -34q0 -12 -10 -19t-22 -7h-85q-30 0 -45 15q-22 19 -34 36zM356 453q55 24 85 48.5t30 59.5q0 53 -73 53q-40 0 -63 -16.5t-23 -48.5q0 -45 44 -96zM434 137q-89 96 -153 179q-52 -24 -74.5 -49.5t-22.5 -72.5q0 -43 31.5 -69.5t90.5 -26.5q90 0 128 39z
" />
    <glyph glyph-name="ampersand.sc" horiz-adv-x="588" 
d="M156 279q-71 16 -71 89q0 81 55 125q51 40 166 40q78 0 120 -15q18 -7 18 -26q0 -22 -17 -61q-9 -20 -27 -20q-3 0 -7 1t-10 2t-11 2q-43 9 -83 9q-52 0 -67 -17q-16 -18 -16 -45q0 -41 56 -44q19 -1 19 -16q0 -13 -10 -61q-4 -20 -28 -21q-87 -2 -87 -72q0 -54 90 -54
q63 0 94 14.5t32 53.5q0 15 -4 24q-10 -2 -50 -2q-22 0 -22 19q0 18 8 58q6 27 30 28q120 3 195 22q18 6 30 6q15 0 20 -20q7 -23 7 -58q0 -13 -6 -18.5t-21 -9.5q-41 -11 -82 -16q3 -8 3 -23q0 -67 -36.5 -110t-90.5 -59.5t-124 -16.5q-113 0 -163.5 36t-50.5 96
q0 140 141 160z" />
    <glyph glyph-name="ampersand.scalt" horiz-adv-x="613" 
d="M399 33q-64 -46 -181 -46q-197 0 -197 147q0 61 34 98t107 64q-40 46 -40 107q0 131 189 131q149 0 149 -109q0 -91 -133 -145q61 -66 91 -95q17 30 27 80q6 24 31 24h62q22 0 22 -24q0 -11 -7 -36q-23 -82 -60 -121q8 -9 63 -61q12 -13 12 -25q0 -24 -28 -24h-77
q-24 0 -35 9q-22 18 -29 26zM270 337q45 20 63.5 37t18.5 41q0 37 -51 37q-61 0 -61 -47q0 -34 30 -68zM331 106q-52 50 -116 120q-34 -15 -50.5 -32t-16.5 -46q0 -67 93 -67q58 0 90 25z" />
    <glyph glyph-name="aogonek.sc" horiz-adv-x="532" 
d="M177 123l-55 -96q-16 -28 -36 -28h-91q-22 0 -22 18q0 9 9 23l267 457q13 23 38 23h89q25 0 30 -25l76 -451q2 -16 2 -24q0 -21 -29 -21h-11q-32 -22 -50 -35.5t-36 -40t-18 -53.5q0 -35 38 -35q10 0 25 2t17 2q16 0 20 -19q4 -12 4 -30q0 -21 -26 -26q-22 -7 -69 -7
q-109 0 -109 88q0 56 31.5 92t90.5 64q-11 6 -14 26l-13 96h-158zM226 226h102q-12 85 -18 153q-25 -51 -84 -153z" />
    <glyph glyph-name="aring.sc" horiz-adv-x="532" 
d="M177 123l-55 -96q-16 -28 -36 -28h-91q-22 0 -22 18q0 9 9 23l267 457q13 23 38 23h89q25 0 30 -25l76 -451q2 -16 2 -24q0 -21 -29 -21h-79q-14 0 -20 6.5t-8 21.5l-13 96h-158zM226 226h102q-12 85 -18 153q-25 -51 -84 -153zM449 692q0 -50 -28.5 -79.5t-78.5 -29.5
q-42 0 -65.5 23.5t-23.5 65.5q0 48 29.5 78t77.5 30q42 0 65.5 -23t23.5 -65zM406 691q0 50 -51 50q-26 0 -43.5 -18t-17.5 -47q0 -54 52 -54q60 0 60 69z" />
    <glyph glyph-name="aringacute.sc" horiz-adv-x="532" 
d="M177 123l-55 -96q-16 -28 -36 -28h-91q-22 0 -22 18q0 9 9 23l267 457q13 23 38 23h89q25 0 30 -25l76 -451q2 -16 2 -24q0 -21 -29 -21h-79q-14 0 -20 6.5t-8 21.5l-13 96h-158zM226 226h102q-12 85 -18 153q-38 -76 -84 -153zM452 682q0 -50 -29 -79.5t-80 -29.5
q-41 0 -64.5 23.5t-23.5 65.5q0 48 29.5 78t77.5 30q42 0 66 -23t24 -65zM409 681q0 51 -52 51q-27 0 -44 -18t-17 -48q0 -55 52 -55q29 0 45 18.5t16 51.5zM401 817q-19 -17 -40 -17h-36q-23 0 -23 18q0 12 9 21l106 114q20 20 38 20h63q24 0 24 -17q0 -12 -12 -23z" />
    <glyph glyph-name="atilde.sc" horiz-adv-x="532" 
d="M177 123l-55 -96q-16 -28 -36 -28h-91q-22 0 -22 18q0 9 9 23l267 457q13 23 38 23h89q25 0 30 -25l76 -451q2 -16 2 -24q0 -21 -29 -21h-79q-14 0 -20 6.5t-8 21.5l-13 96h-158zM226 226h102q-12 85 -18 153q-25 -51 -84 -153zM224 595h-32q-22 0 -22 20q0 10 8 31
q39 96 106 96q19 0 66 -26q32 -19 51 -19q20 0 37 29q11 20 34 20h27q23 0 23 -20q0 -12 -12 -38q-39 -88 -99 -88q-33 0 -76 25q-29 17 -44 17q-21 0 -36 -25q-13 -22 -31 -22z" />
    <glyph glyph-name="b.sc" horiz-adv-x="512" 
d="M185 0h-135q-22 0 -22 17q0 4 3 19l96 456q5 28 30 28h140q47 0 85 -4q110 -14 110 -104q0 -56 -23.5 -90t-77.5 -49q78 -17 78 -102q0 -114 -109 -153q-52 -18 -175 -18zM178 105h36q52 0 76 6q40 12 40 61q0 32 -27 40q-18 6 -57 6h-43zM224 317h43q38 0 52 3
q40 9 40 59q0 28 -30 37q-19 4 -53 4h-29z" />
    <glyph glyph-name="b.superior" horiz-adv-x="378" 
d="M136 279l-2 -4q-4 -12 -22 -12h-44q-16 0 -16 15q0 5 4 21l88 401q5 20 21 20h58q17 0 17 -13q0 -3 -2 -17l-32 -139q33 23 93 23q90 0 90 -86q0 -40 -14 -94.5t-39 -85.5q-39 -47 -133 -47q-51 0 -67 18zM160 342q13 -8 41 -8q48 0 66 26q12 19 19.5 49t7.5 48
q0 40 -46 40q-23 0 -45 -10q-7 -3 -10 -8q-4 -5 -6 -17z" />
    <glyph glyph-name="braceleft.cap" horiz-adv-x="354" 
d="M147 338q76 -16 76 -89q0 -17 -8 -57l-24 -112q-6 -28 -6 -48t9 -34q12 -18 63 -22q17 -1 17 -17q0 -15 -4 -27q-7 -20 -29 -20q-110 0 -141 34q-23 26 -23 64q0 28 8 62l24 112q9 43 9 58q0 31 -14.5 46t-42.5 20q-19 3 -19 18q0 11 4 26q6 25 27 28q43 8 67 36t36 85
l20 93q18 89 54 124q27 26 65.5 36t100.5 10q24 0 24 -18q0 -10 -3 -25q-3 -21 -29 -23q-57 -2 -80 -28q-14 -16 -27 -75l-23 -108q-14 -68 -46 -102t-85 -47z" />
    <glyph glyph-name="braceright.cap" horiz-adv-x="363" 
d="M251 337q-76 16 -76 90q0 16 8 56l24 112q6 30 6 48q0 21 -9 34q-12 18 -63 22q-17 1 -17 17q0 15 4 27q7 21 29 21q107 0 141 -35q23 -23 23 -64q0 -28 -8 -62l-24 -112q-8 -38 -8 -58q0 -57 56 -65q20 -3 20 -18q0 -12 -4 -27q-6 -24 -27 -28q-44 -8 -68 -35.5
t-36 -85.5l-20 -93q-18 -90 -54 -123q-27 -26 -65.5 -36t-100.5 -10q-24 0 -24 17q0 9 3 26q2 13 8.5 17t20.5 5q57 2 80 28q15 17 27 75l24 108q14 69 45 102.5t85 46.5z" />
    <glyph glyph-name="bracketleft.cap" horiz-adv-x="317" 
d="M209 -83h-175q-19 0 -19 18q0 12 2 20l165 777q5 27 27 27h180q16 0 16 -13q0 -6 -6 -32q-5 -15 -24 -15h-93l-153 -722h93q16 0 16 -13q0 -11 -5 -31q-4 -16 -24 -16z" />
    <glyph glyph-name="bracketright.cap" horiz-adv-x="317" 
d="M147 759h175q20 0 20 -18q0 -7 -3 -22l-165 -775q-5 -27 -26 -27h-180q-16 0 -16 12q0 7 6 33q4 15 24 15h92l154 722h-94q-15 0 -15 13q0 11 5 31q4 16 23 16z" />
    <glyph glyph-name="breve.cap" horiz-adv-x="197" 
d="M238 915q20 0 20 -23q0 -19 -10 -44q-40 -93 -166 -93q-63 0 -103.5 29t-40.5 84q0 18 3 28q6 19 28 19h29q26 0 27 -21q2 -16 7 -25q13 -28 59 -28q38 0 55.5 12.5t27.5 38.5q6 14 12 18.5t20 4.5h32z" />
    </font>
</defs>
</svg>
