<?xml version="1.0" standalone="no"?>
<!DOCTYPE svg PUBLIC "-//W3C//DTD SVG 1.1//EN" "http://www.w3.org/Graphics/SVG/1.1/DTD/svg11.dtd" >
<svg>
<metadata>
Created by FontForge 20090622 at Sun Feb 10 22:02:50 2019
 By deploy user
Copyright (c) 2014 by Dieter Hofrichter. All rights reserved.
</metadata>
<defs>
<font id="Orgon-Medium" horiz-adv-x="389" >
  <font-face 
    font-family="Orgon-Medium"
    font-weight="400"
    font-stretch="normal"
    units-per-em="1000"
    panose-1="2 0 6 3 0 0 0 2 0 4"
    ascent="752"
    descent="-248"
    x-height="500"
    cap-height="708"
    bbox="-157 -290 1208 988"
    underline-thickness="50"
    underline-position="-50"
    unicode-range="U+0020-U+FB04"
  />
<missing-glyph horiz-adv-x="501" 
d="M0 0v707h501v-707h-501zM251 399l170 257h-341zM280 354l172 -257v514zM80 50h341l-170 258zM50 611v-514l171 257z" />
    <glyph glyph-name="f_f" unicode="ff" horiz-adv-x="665" 
d="M209 23q0 -25 -22 -25h-67q-21 0 -21 27v377h-47q-26 0 -26 25v48q0 25 25 25h48v59q0 100 43 140q45 39 142 39q51 0 73 -8q15 -5 15 -24q0 -21 -6 -55q-3 -17 -22 -17q-3 0 -21.5 2t-31.5 2q-50 0 -67 -23q-15 -20 -15 -78v-37h222v79q0 101 44 140q45 39 141 39
q50 0 74 -8q15 -5 15 -24q0 -21 -6 -55q-4 -17 -23 -17q-2 0 -21 2t-31 2q-51 0 -68 -23q-15 -20 -15 -78v-57h96q24 0 24 -24v-51q0 -23 -24 -23h-96v-379q0 -25 -22 -25h-66q-22 0 -22 27v377h-222v-379z" />
    <glyph glyph-name="fi" unicode="fi" horiz-adv-x="601" 
d="M209 24q0 -24 -22 -24h-67q-21 0 -21 26v376h-47q-26 0 -26 25v48q0 25 25 25h48v79q0 100 43 140q45 39 144 39q50 0 75 -9q15 -5 15 -23q0 -21 -6 -57q-5 -16 -22 -16q-3 0 -23.5 2t-32.5 2q-51 0 -68 -23q-15 -19 -15 -78v-56h290q23 0 23 -26v-448q0 -26 -23 -26h-65
q-22 0 -22 26v376h-203v-378zM531 659q0 -35 -15.5 -50.5t-48.5 -15.5q-65 0 -65 65q0 67 65 67q32 0 48 -15t16 -51z" />
    <glyph glyph-name="fl" unicode="fl" horiz-adv-x="601" 
d="M209 23q0 -25 -22 -25h-67q-21 0 -21 27v377h-47q-26 0 -26 25v48q0 25 25 25h48v76q0 99 44 140q48 42 163 42q157 0 200 -15q16 -7 16 -31v-688q0 -26 -23 -26h-65q-22 0 -22 26v628q-48 5 -109 5t-79 -25q-15 -20 -15 -76v-56h96q24 0 24 -24v-51q0 -23 -25 -23h-95
v-379z" />
    <glyph glyph-name="f_f_i" unicode="ffi" horiz-adv-x="933" 
d="M209 23q0 -25 -22 -25h-67q-21 0 -21 27v377h-47q-26 0 -26 25v48q0 25 25 25h48v59q0 100 43 140q45 39 142 39q51 0 73 -8q15 -5 15 -24q0 -21 -6 -55q-3 -17 -22 -17q-3 0 -21.5 2t-31.5 2q-50 0 -67 -23q-15 -20 -15 -78v-37h222v79q0 101 44 140q45 39 143 39
q50 0 75 -9q15 -5 15 -23q0 -20 -6 -56q-3 -16 -22 -16q-2 0 -22.5 2t-33.5 2q-51 0 -68 -23q-15 -20 -15 -78v-57h290q23 0 23 -26v-448q0 -26 -23 -26h-65q-22 0 -22 26v376h-203v-379q0 -25 -22 -25h-66q-22 0 -22 27v377h-222v-379zM863 659q0 -35 -15.5 -50.5
t-48.5 -15.5q-65 0 -65 65q0 67 65 67q32 0 48 -15t16 -51z" />
    <glyph glyph-name="f_f_l" unicode="ffl" horiz-adv-x="933" 
d="M209 23q0 -25 -22 -25h-67q-21 0 -21 27v377h-47q-26 0 -26 25v48q0 25 25 25h48v59q0 100 43 140q45 39 142 39q51 0 73 -8q15 -5 15 -24q0 -24 -7 -55q-4 -17 -22 -17q-2 0 -21 2t-31 2q-50 0 -67 -23q-15 -20 -15 -78v-37h222v76q0 101 44 140q45 42 163 42
q159 0 200 -15q16 -7 16 -31v-688q0 -26 -23 -26h-65q-22 0 -22 26v629q-48 5 -109 5q-60 0 -79 -25q-15 -20 -15 -76v-57h96q24 0 24 -24v-51q0 -23 -24 -23h-96v-379q0 -25 -22 -25h-66q-22 0 -22 27v377h-222v-379z" />
    <glyph glyph-name="T_h" unicode="Th" horiz-adv-x="1141" 
d="M356 25q0 -27 -25 -27h-66q-25 0 -25 27v574h-183q-25 0 -25 22v61q0 24 25 24h576v17q0 27 24 27h62q14 0 19 -6.5t5 -22.5v-259q24 22 73.5 36t95.5 14q67 0 99.5 -15t44.5 -47q10 -28 10 -98v-328q0 -26 -23 -26h-65q-23 0 -23 26v300q0 39 -5 54q-11 33 -75 33
q-68 0 -106 -14q-15 -6 -20 -13q-6 -10 -6 -27v-333q0 -26 -23 -26h-64q-23 0 -23 26v575h-277v-574z" />
    <glyph glyph-name="Tcaron_h" unicode="&#x164;h" horiz-adv-x="1141" 
d="M356 25q0 -27 -25 -27h-66q-25 0 -25 27v574h-183q-25 0 -25 22v61q0 24 25 24h576v17q0 27 24 27h62q14 0 19 -6.5t5 -22.5v-259q24 22 73.5 36t95.5 14q67 0 99.5 -15t44.5 -47q10 -28 10 -98v-328q0 -26 -23 -26h-65q-23 0 -23 26v300q0 39 -5 54q-11 33 -75 33
q-68 0 -106 -14q-15 -6 -20 -13q-6 -10 -6 -27v-333q0 -26 -23 -26h-64q-23 0 -23 26v575h-277v-574zM408 920h44q22 0 22 -17q0 -11 -8 -19l-102 -101q-23 -23 -42 -23h-56q-20 0 -38 20l-104 104q-7 8 -7 19q0 17 24 17h44q17 0 39 -17l73 -61l73 61q20 17 38 17z" />
    <glyph glyph-name="f_b" unicode="fb" horiz-adv-x="911" 
d="M209 23q0 -25 -22 -25h-67q-21 0 -21 27v377h-47q-26 0 -26 25v48q0 25 25 25h48v76q0 99 44 140q48 42 163 42q157 0 200 -15q16 -7 16 -31v-240q52 40 162 40q92 0 136.5 -58t44.5 -192q0 -82 -14 -135t-45.5 -82t-72.5 -39.5t-104 -10.5q-34 0 -70 8.5t-49 21.5
l-1 -12q-2 -16 -29 -16h-41q-15 0 -21 6t-6 24v626q-48 5 -109 5q-60 0 -79 -25q-15 -20 -15 -76v-57h96q24 0 24 -24v-51q0 -23 -25 -23h-95v-379zM522 108q12 -7 41 -12.5t52 -5.5q84 0 111 34t27 131q0 89 -22 122.5t-87 33.5q-73 0 -106 -21q-11 -7 -13 -14
q-3 -6 -3 -20v-248z" />
    <glyph glyph-name="f_f_b" unicode="ffb" horiz-adv-x="1249" 
d="M209 23q0 -25 -22 -25h-67q-21 0 -21 27v377h-47q-26 0 -26 25v48q0 25 25 25h48v59q0 100 43 140q45 39 142 39q51 0 73 -8q15 -5 15 -24q0 -21 -8 -55q-3 -17 -22 -17q-2 0 -21 2t-31 2q-49 0 -66 -23q-15 -20 -15 -78v-37h222v76q0 101 44 140q45 42 163 42
q159 0 200 -15q16 -7 16 -31v-240q52 40 162 40q92 0 137 -58t45 -192q0 -82 -14 -135t-46 -82t-73 -39.5t-104 -10.5q-34 0 -70 8.5t-49 21.5l-1 -12q-2 -16 -29 -16h-41q-15 0 -21 6t-6 24v626q-48 5 -109 5q-60 0 -79 -25q-15 -20 -15 -76v-57h96q24 0 24 -24v-51
q0 -23 -24 -23h-96v-379q0 -25 -22 -25h-66q-22 0 -22 27v377h-222v-379zM854 108q34 -18 94 -18q84 0 111 34.5t27 130.5q0 89 -22 122.5t-88 33.5q-73 0 -106 -21q-9 -6 -13 -14q-3 -6 -3 -20v-248z" />
    <glyph glyph-name="f_f_h" unicode="ffh" horiz-adv-x="1252" 
d="M209 23q0 -25 -22 -25h-67q-21 0 -21 27v377h-47q-26 0 -26 25v48q0 25 25 25h48v59q0 100 43 140q45 39 142 39q51 0 73 -8q15 -5 15 -24q0 -23 -8 -55q-3 -17 -22 -17q-2 0 -21 2t-31 2q-49 0 -66 -23q-15 -20 -15 -78v-37h222v76q0 101 44 140q45 42 163 42
q159 0 200 -15q16 -7 16 -31v-245q24 21 72 33t97 12q68 0 100 -15t44 -47q10 -25 10 -98v-328q0 -26 -23 -26h-66q-22 0 -22 26v300q0 39 -5 54q-11 33 -75 33q-69 0 -105 -14q-16 -5 -20 -13q-7 -9 -7 -27v-333q0 -26 -23 -26h-65q-22 0 -22 26v629q-48 5 -109 5
q-60 0 -79 -25q-15 -20 -15 -76v-57h96q24 0 24 -24v-51q0 -23 -24 -23h-96v-379q0 -25 -22 -25h-66q-22 0 -22 27v377h-222v-379z" />
    <glyph glyph-name="f_f_j" unicode="ffj" horiz-adv-x="945" 
d="M209 23q0 -25 -22 -25h-67q-21 0 -21 27v377h-47q-26 0 -26 25v48q0 25 25 25h48v59q0 100 43 140q45 39 142 39q51 0 73 -8q15 -5 15 -24q0 -21 -8 -55q-3 -17 -22 -17q-2 0 -21 2t-31 2q-49 0 -66 -23q-15 -20 -15 -78v-37h222v79q0 101 44 140q45 39 141 39
q50 0 74 -8q15 -5 15 -24q0 -21 -8 -55q-4 -17 -22 -17q-3 0 -22 2t-31 2q-49 0 -66 -23q-15 -20 -15 -78v-57h300q22 0 22 -24v-535q0 -103 -34 -140q-46 -50 -171 -50q-33 0 -33 25q0 39 1 51q3 23 27 24q61 4 77 17q23 18 23 75v459h-212v-379q0 -25 -22 -25h-66
q-22 0 -22 27v377h-222v-379zM869 659q0 -64 -61 -64t-61 63q0 65 61 65t61 -64z" />
    <glyph glyph-name="f_f_k" unicode="ffk" horiz-adv-x="1197" 
d="M209 23q0 -25 -22 -25h-67q-21 0 -21 27v377h-47q-26 0 -26 25v48q0 25 25 25h48v59q0 100 43 140q45 39 142 39q51 0 73 -8q15 -5 15 -24q0 -21 -6 -55q-3 -17 -22 -17q-3 0 -21.5 2t-31.5 2q-50 0 -67 -23q-15 -20 -15 -78v-37h222v76q0 101 44 140q45 42 163 42
q159 0 200 -15q16 -7 16 -31v-386h48q30 0 45 20l97 138q11 18 33 18h64q21 0 21 -18q0 -8 -10 -23q-91 -129 -131 -179l159 -238q13 -20 13 -28q0 -18 -22 -18h-70q-20 0 -33 20l-129 192q-12 18 -39 18h-46v-204q0 -26 -23 -26h-65q-22 0 -22 26v629q-48 5 -109 5
q-60 0 -79 -25q-15 -20 -15 -76v-57h96q24 0 24 -24v-51q0 -23 -24 -23h-96v-379q0 -25 -22 -25h-66q-22 0 -22 27v377h-222v-379z" />
    <glyph glyph-name="f_h" unicode="fh" horiz-adv-x="919" 
d="M209 23q0 -25 -22 -25h-67q-21 0 -21 27v377h-47q-26 0 -26 25v48q0 25 25 25h48v76q0 99 44 140q48 42 163 42q157 0 200 -15q16 -7 16 -31v-245q23 21 71 33t97 12q68 0 100.5 -15t44.5 -47q9 -25 9 -98v-328q0 -26 -22 -26h-66q-22 0 -22 26v300q0 36 -6 54
t-22.5 25.5t-52.5 7.5q-70 0 -104 -14q-13 -4 -20 -13t-7 -29v-331q0 -26 -23 -26h-65q-22 0 -22 26v629q-48 5 -109 5q-60 0 -79 -25q-15 -20 -15 -76v-57h96q24 0 24 -24v-51q0 -23 -25 -23h-95v-379z" />
    <glyph glyph-name="f_j" unicode="fj" horiz-adv-x="613" 
d="M209 23q0 -25 -22 -25h-67q-21 0 -21 27v377h-47q-26 0 -26 25v48q0 25 25 25h48v79q0 100 43 140q45 39 142 39q51 0 73 -8q15 -5 15 -24q0 -21 -6 -55q-3 -17 -22 -17q-3 0 -21.5 2t-31.5 2q-50 0 -67 -23q-15 -20 -15 -78v-57h300q22 0 22 -24v-535q0 -103 -34 -140
q-47 -50 -171 -50q-33 0 -33 25q0 39 1 51q2 22 26 23q58 2 78 18q23 18 23 75v459h-212v-379zM537 659q0 -64 -61 -64t-61 63q0 65 61 65t61 -64z" />
    <glyph glyph-name="f_k" unicode="fk" horiz-adv-x="865" 
d="M209 23q0 -25 -22 -25h-67q-21 0 -21 27v377h-47q-26 0 -26 25v48q0 25 25 25h48v76q0 99 44 140q48 42 163 42q157 0 200 -15q16 -7 16 -31v-386h48q29 0 44 20l100 138q13 18 32 18h63q20 0 20 -18q0 -11 -10 -23l-129 -178l28 -42l53 -81l77 -116q13 -19 13 -28
q0 -18 -22 -18h-71q-19 0 -32 20l-130 192q-12 18 -39 18h-45v-204q0 -26 -23 -26h-65q-22 0 -22 26v629q-48 5 -109 5q-60 0 -79 -25q-15 -20 -15 -76v-57h96q24 0 24 -24v-51q0 -23 -25 -23h-95v-379z" />
    <glyph glyph-name="uni0162_h" unicode="&#x162;h" horiz-adv-x="1141" 
d="M318 -54q60 -2 79.5 -28t19.5 -71q0 -105 -144 -105q-30 0 -53 5q-20 4 -20 24q0 5 6 32q5 18 22 18l24 -4q22 -2 28 -2q24 0 32.5 6.5t8.5 22.5q0 17 -7.5 23.5t-27.5 6.5q-4 0 -13 -0.5t-11 -0.5q-23 0 -23 20q0 11 4 31l15 75q-18 3 -18 26v574h-183q-25 0 -25 22v61
q0 24 25 24h576v17q0 27 24 27h62q14 0 19 -6.5t5 -22.5v-259q24 22 73.5 36t95.5 14q67 0 99.5 -15t44.5 -47q10 -28 10 -98v-328q0 -26 -23 -26h-65q-23 0 -23 26v300q0 39 -5 54q-11 33 -75 33q-68 0 -106 -14q-15 -6 -20 -13q-6 -10 -6 -27v-333q0 -26 -23 -26h-64
q-23 0 -23 26v575h-277v-574q0 -27 -25 -27h-4z" />
    <glyph glyph-name="uni021A_h" unicode="&#x21a;h" horiz-adv-x="1141" 
d="M356 25q0 -27 -25 -27h-66q-25 0 -25 27v574h-183q-25 0 -25 22v61q0 24 25 24h576v17q0 27 24 27h62q14 0 19 -6.5t5 -22.5v-259q24 22 73.5 36t95.5 14q67 0 99.5 -15t44.5 -47q10 -28 10 -98v-328q0 -26 -23 -26h-65q-23 0 -23 26v300q0 39 -5 54q-11 33 -75 33
q-68 0 -106 -14q-15 -6 -20 -13q-6 -10 -6 -27v-333q0 -26 -23 -26h-64q-23 0 -23 26v575h-277v-574zM324 -66q26 0 26 -29q0 -109 -62 -179q-14 -16 -28 -16q-19 0 -34 11q-13 8 -13 19q0 10 7 24q31 54 31 134q0 36 30 36h43z" />
    <glyph glyph-name=".notdef" horiz-adv-x="501" 
d="M0 0v707h501v-707h-501zM251 399l170 257h-341zM280 354l172 -257v514zM80 50h341l-170 258zM50 611v-514l171 257z" />
    <glyph glyph-name=".null" horiz-adv-x="0" 
 />
    <glyph glyph-name="nonmarkingreturn" horiz-adv-x="333" 
 />
    <glyph glyph-name="space" unicode=" " horiz-adv-x="222" 
 />
    <glyph glyph-name="exclam" unicode="!" horiz-adv-x="292" 
d="M215 262q-1 -30 -33 -30h-32q-33 0 -34 32q-11 375 -11 402q0 40 32 40h57q33 0 33 -37q0 -31 -12 -407zM228 59q0 -69 -67 -69q-28 0 -47 15.5t-19 53.5q0 37 18.5 54t48.5 17t48 -15t18 -56z" />
    <glyph glyph-name="quotedbl" unicode="&#x22;" horiz-adv-x="369" 
d="M141 465q-1 -28 -26 -28h-28q-14 0 -21 6.5t-8 23.5q-10 154 -10 212q0 37 33 37h41q31 0 31 -34q0 -28 -12 -217zM309 465q-1 -28 -26 -28h-29q-26 0 -28 30q-10 154 -10 212q0 37 33 37h41q31 0 31 -34q0 -28 -12 -217z" />
    <glyph glyph-name="numbersign" unicode="#" horiz-adv-x="596" 
d="M177 9q-3 -25 -24 -25h-20q-22 0 -22 18q0 12 3 25l25 170h-76q-24 0 -24 22v52q0 22 25 22h89l14 99h-81q-23 0 -23 22v52q0 22 24 22h94l27 178q3 25 24 25h23q20 0 20 -18q0 -3 -2 -23l-24 -162h139l27 178q3 25 24 25h23q20 0 20 -18q0 -8 -3 -23l-24 -162h75
q25 0 25 -23v-52q0 -21 -24 -21h-91l-14 -99h81q24 0 24 -23v-53q0 -20 -23 -20h-96l-28 -188q-3 -25 -24 -25h-21q-21 0 -21 18q0 7 2 25l25 170h-140zM234 392l-15 -99h140l15 99h-140z" />
    <glyph glyph-name="dollar" unicode="$" horiz-adv-x="558" 
d="M314 -72q0 -22 -18 -22h-18q-19 0 -19 22v66q-114 2 -185 30q-18 8 -18 30q0 15 11 46q7 22 26 22q2 0 30 -7q65 -23 136 -24v193l-47 12q-146 37 -146 184q0 177 193 194v65q0 23 20 23h17q11 0 14.5 -5t3.5 -18v-63q90 -2 148 -20q20 -7 20 -28q0 -16 -10 -50
q-3 -18 -20 -18q-15 0 -31 4q-54 12 -107 14v-191l36 -9q88 -26 121.5 -64t33.5 -119q0 -87 -45 -138t-146 -60v-69zM394 181q0 35 -15 53.5t-65 34.5v-175q49 7 64.5 29.5t15.5 57.5zM179 490q0 -33 15.5 -53t64.5 -35v175q-45 -6 -62.5 -27.5t-17.5 -59.5z" />
    <glyph glyph-name="percent" unicode="%" horiz-adv-x="862" 
d="M357 474q0 -126 -37 -172t-127 -46q-87 0 -124 45t-37 169t42 169t125 45q89 0 123.5 -41.5t34.5 -168.5zM275 473q0 90 -16 116.5t-63 26.5q-45 0 -64 -29t-19 -117q0 -91 18 -119t62 -28q47 0 64.5 28t17.5 122zM292 -15q-10 -17 -24 -17h-21q-13 0 -13 12q0 8 6 20
l333 689q11 22 24 22h23q13 0 13 -13q0 -8 -8 -24zM831 210q0 -126 -37 -172t-128 -46q-87 0 -123.5 45t-36.5 169t42 169t124 45q60 0 92.5 -15.5t49.5 -61t17 -133.5zM748 209q0 87 -16 113.5t-62 26.5q-45 0 -63.5 -27.5t-18.5 -115.5q0 -89 18 -116.5t61 -27.5
q47 0 64 27t17 120z" />
    <glyph glyph-name="ampersand" unicode="&#x26;" horiz-adv-x="730" 
d="M595 271q14 -26 14 -63q0 -123 -67 -172t-205 -49q-154 0 -216.5 50t-62.5 158q0 79 35.5 123t107.5 58q-113 28 -113 148q0 99 50.5 145t179.5 47q95 0 148 -15q27 -7 27 -28q0 -6 -10 -58q-3 -16 -24 -16q-4 0 -34 6q-41 8 -87 8q-81 0 -107.5 -23t-26.5 -77
q0 -45 27 -70t78 -25q27 0 27 -27v-51q0 -25 -28 -25q-75 -1 -103.5 -27t-28.5 -85q0 -65 39.5 -89.5t124.5 -24.5q91 0 128 22.5t37 95.5q0 30 -11 53q-25 -3 -86 -3q-32 0 -32 25v45q0 29 27 29q160 0 263 31q25 9 31 9q13 0 19 -17q12 -36 12 -58q0 -19 -23 -26
q-51 -17 -110 -24z" />
    <glyph glyph-name="quotesingle" unicode="'" horiz-adv-x="201" 
d="M141 465q-1 -28 -26 -28h-28q-14 0 -21 6.5t-8 23.5q-10 154 -10 212q0 37 33 37h41q31 0 31 -34q0 -28 -12 -217z" />
    <glyph glyph-name="parenleft" unicode="(" horiz-adv-x="324" 
d="M154 311q0 -92 12.5 -162t37.5 -119.5t48 -79t60 -64.5q7 -7 7 -15q0 -7 -10 -17q-9 -9 -18 -9q-11 0 -30 12q-36 21 -67.5 53t-65 84t-53 133.5t-19.5 182.5q0 94 18 172t49.5 130.5t64.5 87t71 58.5q19 11 30 11t20 -9q10 -9 10 -17t-7 -15q-76 -67 -117 -161t-41 -256
z" />
    <glyph glyph-name="parenright" unicode=")" horiz-adv-x="324" 
d="M170 298q0 92 -12 161.5t-38 118.5t-48.5 77t-60.5 64q-6 6 -6 15q0 7 10 17q9 9 19 9q11 0 30 -12q204 -122 204 -448q0 -314 -203 -443q-19 -12 -30 -12q-9 0 -20 9q-10 12 -10 17q0 9 6 15q75 64 117 157.5t42 254.5z" />
    <glyph glyph-name="asterisk" unicode="*" horiz-adv-x="415" 
d="M206 455q-56 -84 -65 -96q-8 -13 -20 -13q-9 0 -32 16q-13 11 -13 22q0 9 8 19q42 53 75 91q-28 6 -111 30q-21 7 -21 24q0 11 7 29q8 18 25 18q8 0 20 -4q66 -21 100 -36q-7 86 -7 111q0 17 7 25t29 8t29 -6.5t7 -23.5q0 -49 -5 -116q53 23 104 39q20 4 21 4
q14 0 20 -18q7 -21 7 -29q0 -19 -20 -24q-63 -19 -116 -31l77 -92q6 -10 6 -18q0 -12 -12 -21q-21 -16 -31 -16q-12 0 -21 12q-12 16 -68 96z" />
    <glyph glyph-name="plus" unicode="+" horiz-adv-x="701" 
d="M391 60q0 -25 -26 -25h-30q-25 0 -25 25v195h-196q-24 0 -24 28v24q0 28 24 28h195v194q0 25 26 25h30q26 0 26 -25v-194h196q24 0 24 -28v-24q0 -28 -24 -28h-196v-195z" />
    <glyph glyph-name="comma" unicode="," horiz-adv-x="232" 
d="M152 131q31 0 31 -32q0 -64 -25.5 -138t-65.5 -116q-18 -21 -32 -21q-16 0 -35 12t-19 25q0 9 9 25q53 79 53 208q0 37 36 37h48z" />
    <glyph glyph-name="hyphen" unicode="-" horiz-adv-x="319" 
d="M262 216h-205q-23 0 -23 23v59q0 22 24 22h203q24 0 24 -23v-61q0 -20 -23 -20z" />
    <glyph glyph-name="period" unicode="." horiz-adv-x="233" 
d="M188 60q0 -74 -72 -74q-71 0 -71 73q0 75 72 75q33 0 52 -16t19 -58z" />
    <glyph glyph-name="slash" unicode="/" horiz-adv-x="399" 
d="M95 -75q-9 -25 -29 -25h-37q-17 0 -17 15q0 8 5 21l285 789q9 26 26 26h38q19 0 19 -15q0 -11 -7 -28z" />
    <glyph glyph-name="zero" unicode="0" horiz-adv-x="573" 
d="M533 344q0 -107 -13.5 -176t-45 -109t-76.5 -56t-114 -16q-89 0 -140 29t-77.5 106t-26.5 216q0 85 12.5 148t33 101.5t54 61t69.5 31t84 8.5q54 0 90.5 -8t67 -29.5t47.5 -60t26 -99t9 -147.5zM419 342q0 105 -13 157t-39 70t-79 18q-48 0 -75.5 -18t-43 -73.5
t-15.5 -157.5q0 -107 15 -162t41 -72t75 -17q51 0 77.5 17t41.5 72.5t15 165.5z" />
    <glyph glyph-name="one" unicode="1" horiz-adv-x="573" 
d="M268 556l-83 -38q-14 -6 -20 -6q-11 0 -16 13q-24 56 -24 62q0 12 14 18l130 63q16 8 39 8h49q23 0 23 -25v-626q0 -27 -25 -27h-63q-24 0 -24 27v531z" />
    <glyph glyph-name="two" unicode="2" horiz-adv-x="573" 
d="M493 0h-422q-24 0 -24 21v50q0 19 15 29q189 145 261 221q64 67 64 151q0 61 -29.5 88t-104.5 27q-49 0 -111 -15q-28 -8 -34 -8q-14 0 -17 13q-12 43 -12 60q0 18 24 25q70 26 176 26q68 0 113.5 -15t68 -44t31.5 -62t9 -79q0 -118 -64 -189q-89 -101 -232 -195
q59 1 288 1q25 0 25 -24v-57q0 -24 -25 -24z" />
    <glyph glyph-name="three" unicode="3" horiz-adv-x="573" 
d="M355 358q141 -14 141 -167q0 -103 -57.5 -153.5t-194.5 -50.5q-106 0 -162 19q-23 6 -23 29q0 16 13 57q5 14 19 14q7 0 35 -6q48 -12 116 -12q86 0 112.5 27t26.5 78q0 57 -31.5 81.5t-113.5 24.5h-25q-22 0 -22 27v49q0 26 21 26h27q69 0 97 23.5t28 68.5
q0 54 -25.5 74t-98.5 20q-56 0 -101 -12q-5 -1 -13 -3t-13 -3.5t-9 -1.5q-13 0 -17 13q-10 40 -10 59q0 18 24 26q67 23 163 23q66 0 109 -11.5t65.5 -36.5t30.5 -56.5t8 -80.5q0 -55 -31 -93.5t-89 -51.5z" />
    <glyph glyph-name="four" unicode="4" horiz-adv-x="573" 
d="M456 25q0 -27 -25 -27h-60q-25 0 -25 27v135h-281q-26 0 -26 24v46q0 23 10 40l220 380q15 26 37 26h65q18 0 18 -16q0 -11 -8 -26q-110 -195 -220 -370h185v132q0 29 25 29h62q23 0 23 -27v-134h70q27 0 27 -25v-56q0 -23 -27 -23h-70v-135z" />
    <glyph glyph-name="five" unicode="5" horiz-adv-x="573" 
d="M188 413q56 15 108 15q114 0 163.5 -47t49.5 -167q0 -112 -61.5 -169.5t-197.5 -57.5q-106 0 -164 19q-24 7 -24 25q0 22 13 59q4 16 21 16q5 0 33 -6q50 -12 121 -12q78 0 111 28.5t33 93.5q0 68 -35 92.5t-104 24.5q-62 0 -118 -14q-18 -5 -27 -5q-26 0 -26 30
q0 20 1 30l22 278q1 13 8.5 21.5t17.5 8.5h318q24 0 24 -22v-58q0 -24 -26 -24h-248z" />
    <glyph glyph-name="six" unicode="6" horiz-adv-x="573" 
d="M165 363q19 30 65 49t97 19q107 0 154 -50.5t47 -167.5q0 -113 -57 -169.5t-178 -56.5q-124 0 -181.5 73t-57.5 248q0 96 13 163t44.5 117.5t88 75t140.5 24.5q92 0 133 -15q17 -6 17 -25t-9 -57q-5 -16 -21 -16q-13 0 -33 5q-38 7 -80 7q-57 0 -92 -12t-54 -42
t-26 -67.5t-10 -102.5zM170 251q-1 -5 -1 -22q0 -70 28 -107t100 -37q65 0 95 29t30 99q0 62 -27.5 91.5t-88.5 29.5q-86 0 -124 -51q-10 -12 -12 -32z" />
    <glyph glyph-name="seven" unicode="7" horiz-adv-x="573" 
d="M387 573q-67 -1 -316 -1q-26 0 -26 24v58q0 22 25 22h424q23 0 23 -23v-33q0 -22 -8 -44l-71 -164l-82 -191q-38 -91 -77 -195q-10 -28 -34 -28h-71q-10 0 -16.5 6t-6.5 13q0 15 7 32q120 300 229 524z" />
    <glyph glyph-name="eight" unicode="8" horiz-adv-x="573" 
d="M398 356q129 -21 129 -168q0 -103 -57 -152t-185 -49q-127 0 -183 47.5t-56 149.5q0 138 130 171q-110 28 -110 154q0 93 55.5 136t170.5 43t167 -41.5t52 -135.5q0 -124 -113 -155zM399 496q0 50 -25 72.5t-87 22.5t-86.5 -23.5t-24.5 -73.5q0 -96 110 -96q47 0 80 23
t33 75zM413 193q0 108 -126 108q-128 0 -128 -108q0 -62 32.5 -86t94.5 -24t94.5 25t32.5 85z" />
    <glyph glyph-name="nine" unicode="9" horiz-adv-x="573" 
d="M409 317q-19 -30 -65 -49.5t-98 -19.5q-107 0 -153.5 49t-46.5 166q0 225 242 225q123 0 177.5 -72.5t54.5 -248.5q0 -97 -12.5 -163.5t-43.5 -117.5t-87.5 -75.5t-141.5 -24.5q-97 0 -140 17q-16 7 -16 22q0 20 13 61q5 14 18 14q6 0 18.5 -2.5t14.5 -2.5q49 -9 92 -9
q56 0 90 13t51.5 45.5t23.5 69t9 103.5zM404 426q1 5 1 32q0 62 -27.5 97.5t-96.5 35.5q-66 0 -97 -29.5t-31 -98.5q0 -63 27 -91t88 -28q85 0 124 50q9 12 12 32z" />
    <glyph glyph-name="colon" unicode=":" horiz-adv-x="252" 
d="M208 60q0 -74 -72 -74q-71 0 -71 73q0 75 72 75q33 0 52 -16t19 -58zM208 427q0 -73 -72 -73q-71 0 -71 72q0 75 72 75q33 0 52 -16t19 -58z" />
    <glyph glyph-name="semicolon" unicode=";" horiz-adv-x="252" 
d="M208 427q0 -73 -72 -73q-71 0 -71 72q0 75 72 75q33 0 52 -16t19 -58zM172 131q31 0 31 -32q0 -63 -25.5 -136.5t-64.5 -117.5q-17 -21 -33 -21t-35 12t-19 25q0 9 9 25q53 79 53 208q0 37 36 37h48z" />
    <glyph glyph-name="less" unicode="&#x3c;" horiz-adv-x="701" 
d="M567 69q0 -23 -17 -23q-10 0 -18 5l-400 191q-20 10 -20 32v38q0 23 20 33l398 194q12 6 21 6q16 0 16 -24v-34q0 -23 -20 -32l-349 -160l349 -157q20 -9 20 -32v-37z" />
    <glyph glyph-name="equal" unicode="=" horiz-adv-x="701" 
d="M611 179q0 -28 -24 -28h-473q-24 0 -24 28v24q0 27 24 27h473q24 0 24 -27v-24zM611 384q0 -27 -24 -27h-473q-24 0 -24 27v26q0 27 24 27h473q24 0 24 -27v-26z" />
    <glyph glyph-name="greater" unicode="&#x3e;" horiz-adv-x="701" 
d="M134 522q0 23 17 23q7 0 15 -3l402 -193q20 -10 20 -33v-37q0 -23 -19 -33l-403 -196q-8 -5 -15 -5q-17 0 -17 24v35q0 23 20 32l349 161l-349 157q-20 9 -20 31v37z" />
    <glyph glyph-name="question" unicode="?" horiz-adv-x="435" 
d="M211 233h-38q-23 0 -26 18q-3 17 -3 48q0 40 12 64.5t48 50.5q48 34 66 60.5t18 64.5q0 40 -21 60.5t-75 20.5t-94 -9q-20 -4 -25 -4q-20 0 -25 19q-7 26 -7 45q0 24 22 30q67 19 144 19q111 0 154.5 -40t43.5 -122q0 -60 -20 -96.5t-82 -78.5q-37 -25 -49.5 -41.5
t-16.5 -48.5q-1 -8 -2 -22.5t-2 -22.5q-1 -15 -22 -15zM257 60q0 -72 -70 -72q-68 0 -68 71q0 73 70 73q32 0 50 -15.5t18 -56.5z" />
    <glyph glyph-name="at" unicode="@" horiz-adv-x="807" 
d="M473 110q-43 -53 -125 -53q-131 0 -131 129q0 66 26.5 134.5t73.5 108.5q53 46 141 46q53 0 84 -20l3 7q3 10 20 10h25q15 0 15 -13q0 -5 -4 -23l-55 -252q-5 -22 -5 -41q0 -23 22 -23q20 0 41 14q46 30 71.5 93.5t25.5 133.5q0 234 -249 234q-147 0 -242.5 -103
t-95.5 -267q0 -139 75.5 -214.5t218.5 -75.5q75 0 117 7.5t92 24.5q25 9 30 9q12 0 19 -21q3 -7 3 -16q0 -13 -23 -22q-106 -42 -239 -42q-169 0 -263.5 89.5t-94.5 260.5q0 184 113 304t292 120q147 0 228.5 -71t81.5 -214q0 -122 -64 -213.5t-157 -91.5q-67 0 -70 51z
M526 403q-27 16 -70 16q-59 0 -96 -35q-32 -31 -51 -83t-19 -103q0 -81 78 -81q48 0 85 28q8 6 15 17q7 15 10 28z" />
    <glyph glyph-name="A" unicode="A" horiz-adv-x="631" 
d="M194 199l-62 -170q-11 -31 -32 -31h-67q-25 0 -25 19q0 9 7 28l233 638q9 25 33 25h69q24 0 33 -25l233 -638q7 -17 7 -28q0 -19 -24 -19h-67q-23 0 -34 32l-60 169h-244zM225 300h182q-71 199 -91 261z" />
    <glyph glyph-name="B" unicode="B" horiz-adv-x="632" 
d="M283 0h-164q-28 0 -28 28v650q0 28 26 28h170q53 0 105 -6q84 -9 124 -50.5t40 -118.5q0 -66 -25 -104.5t-80 -56.5q127 -30 127 -165q0 -141 -102 -182q-58 -23 -193 -23zM206 103h85q82 0 112 12q58 23 58 100q0 65 -59 89q-26 11 -98 11h-98v-212zM206 416h94
q71 0 88 7q53 22 53 88q0 30 -10 48t-21.5 24.5t-32.5 13.5q-27 8 -89 8h-82v-189z" />
    <glyph glyph-name="C" unicode="C" horiz-adv-x="596" 
d="M171 357q0 -139 36.5 -203.5t142.5 -64.5q84 0 151 23q21 6 30 6q11 0 17 -14q14 -36 14 -57q0 -16 -22 -25q-87 -35 -215 -35q-138 0 -205 79t-67 276q0 202 67 289.5t237 87.5q100 0 165 -15q25 -6 25 -26q0 -29 -13 -64q-5 -13 -18 -13q-4 0 -32 6q-58 10 -125 10
q-110 0 -149 -62t-39 -198z" />
    <glyph glyph-name="D" unicode="D" horiz-adv-x="697" 
d="M206 105h83q93 0 134 20q58 27 80.5 83.5t22.5 152.5q0 91 -21.5 143t-76.5 77q-44 20 -140 20h-82v-496zM271 0h-157q-23 0 -23 27v652q0 27 23 27h168q122 0 186 -19q177 -51 177 -326q0 -135 -40.5 -217.5t-139.5 -119.5q-66 -24 -194 -24z" />
    <glyph glyph-name="E" unicode="E" horiz-adv-x="562" 
d="M505 0h-389q-25 0 -25 26v652q0 28 23 28h375q25 0 25 -24v-59q0 -22 -25 -22h-283v-182h256q26 0 26 -25v-58q0 -22 -26 -22h-256v-209h299q26 0 26 -24v-59q0 -22 -26 -22z" />
    <glyph glyph-name="F" unicode="F" horiz-adv-x="535" 
d="M206 26q0 -28 -25 -28h-66q-24 0 -24 27v653q0 28 23 28h370q26 0 26 -24v-59q0 -22 -26 -22h-278v-207h242q25 0 25 -24v-59q0 -22 -25 -22h-242v-263z" />
    <glyph glyph-name="G" unicode="G" horiz-adv-x="668" 
d="M602 62q0 -29 -23 -38q-96 -37 -244 -37q-146 0 -214 78.5t-68 276.5q0 202 69 289.5t242 87.5q101 0 177 -19q24 -6 24 -25q0 -28 -13 -65q-5 -13 -19 -13q-3 0 -31 6q-65 14 -137 14q-113 0 -153.5 -62t-40.5 -198q0 -69 7 -114t26 -82.5t56 -54.5t94 -17q75 0 147 18
v155h-132q-20 0 -20 20v69q0 19 20 19h209q24 0 24 -24v-284z" />
    <glyph glyph-name="H" unicode="H" horiz-adv-x="711" 
d="M206 25q0 -27 -25 -27h-66q-24 0 -24 27v656q0 27 25 27h67q23 0 23 -27v-262h299v262q0 27 24 27h68q23 0 23 -27v-656q0 -12 -7 -19.5t-18 -7.5h-67q-23 0 -23 27v289h-299v-289z" />
    <glyph glyph-name="I" unicode="I" horiz-adv-x="297" 
d="M206 25q0 -27 -25 -27h-66q-24 0 -24 27v656q0 27 25 27h67q23 0 23 -27v-656z" />
    <glyph glyph-name="J" unicode="J" horiz-adv-x="325" 
d="M235 681v-592q0 -103 -37 -144q-43 -48 -151 -48q-35 0 -48 3q-18 6 -18 23q0 31 5 54q3 23 22 23q3 0 17.5 -0.5t21.5 -0.5q40 0 56 16q17 16 17 93v573q0 27 25 27h67q23 0 23 -27z" />
    <glyph glyph-name="K" unicode="K" horiz-adv-x="617" 
d="M206 25q0 -27 -25 -27h-66q-24 0 -24 27v656q0 27 25 27h67q23 0 23 -27v-263h49q32 0 45 19l165 250q13 21 34 21h67q21 0 21 -18q0 -10 -10 -25l-198 -294l215 -324q13 -19 13 -30q0 -19 -22 -19h-76q-18 0 -31 20l-186 278q-12 18 -39 18h-47v-289z" />
    <glyph glyph-name="L" unicode="L" horiz-adv-x="558" 
d="M500 0h-384q-25 0 -25 26v655q0 27 25 27h67q23 0 23 -27v-576h294q26 0 26 -24v-59q0 -22 -26 -22z" />
    <glyph glyph-name="M" unicode="M" horiz-adv-x="846" 
d="M204 25q0 -27 -24 -27h-67q-22 0 -22 28v651q0 29 24 29h111q26 0 35 -24q165 -360 167 -365l27 62l52 118l82 187q10 22 32 22h109q25 0 25 -30v-648q0 -30 -25 -30h-66q-23 0 -23 29q0 442 3 548q-34 -95 -170 -396q-10 -22 -32 -22h-35q-22 0 -32 23
q-136 299 -174 395q3 -108 3 -550z" />
    <glyph glyph-name="N" unicode="N" horiz-adv-x="711" 
d="M203 25q0 -27 -26 -27h-62q-24 0 -24 27v656q0 27 25 27h60q18 0 29 -18q235 -358 304 -473q-1 87 -1 462q0 29 25 29h63q23 0 23 -27v-656q0 -12 -7 -19.5t-18 -7.5h-51q-24 0 -38 21q-248 382 -303 478q1 -77 1 -472z" />
    <glyph glyph-name="O" unicode="O" horiz-adv-x="700" 
d="M647 358q0 -109 -17.5 -181.5t-56.5 -114t-93 -58.5t-134 -17q-78 0 -130 16.5t-90 58t-55.5 114t-17.5 181.5t22 182.5t65 111.5t93.5 53t121.5 15q63 0 106 -8t81 -30.5t59.5 -62.5t33.5 -104t12 -156zM528 356q0 84 -9 135t-32 79t-54 37.5t-83 9.5q-46 0 -77 -10.5
t-55 -38.5t-35.5 -79.5t-11.5 -131.5q0 -84 10.5 -138t35 -82t54.5 -38t77 -10q37 0 62.5 5.5t49.5 21.5t37.5 45t22 77.5t8.5 117.5z" />
    <glyph glyph-name="P" unicode="P" horiz-adv-x="630" 
d="M206 25q0 -27 -26 -27h-65q-24 0 -24 27v653q0 28 28 28h164q133 0 194 -24q101 -42 101 -184q0 -160 -133 -200q-57 -16 -156 -16h-83v-257zM206 381h88q72 0 109 14q57 23 57 96q0 80 -56 101q-29 11 -113 11h-85v-222z" />
    <glyph glyph-name="Q" unicode="Q" horiz-adv-x="700" 
d="M647 358q0 -234 -93 -314l127 -83q10 -7 10 -17t-38 -66q-7 -10 -16 -10t-17 6l-181 120q-39 -7 -93 -7q-78 0 -130 16.5t-90 58t-55.5 114t-17.5 181.5t22 182.5t65 111.5t93.5 53t121.5 15q63 0 106 -8t81 -30.5t59.5 -62.5t33.5 -104t12 -156zM528 356q0 84 -9 135
t-32 79t-54 37.5t-83 9.5q-46 0 -77 -10.5t-55 -38.5t-35.5 -79.5t-11.5 -131.5q0 -84 10.5 -138t35 -82t54.5 -38t77 -10q37 0 62.5 5.5t49.5 21.5t37.5 45t22 77.5t8.5 117.5z" />
    <glyph glyph-name="R" unicode="R" horiz-adv-x="634" 
d="M206 25q0 -27 -26 -27h-65q-24 0 -24 27v653q0 28 28 28h152q136 0 194 -23q101 -40 101 -180q0 -150 -124 -193l150 -262q10 -18 10 -31q0 -8 -6 -13.5t-15 -5.5h-73q-21 0 -33 24l-147 269q-16 -1 -50 -1h-72v-265zM206 388h79q71 0 107 13q56 22 56 95
q0 44 -13.5 64.5t-41.5 31.5q-32 12 -112 12h-75v-216z" />
    <glyph glyph-name="S" unicode="S" horiz-adv-x="576" 
d="M358 396q96 -27 131.5 -67t35.5 -126q0 -105 -59.5 -160.5t-198.5 -55.5q-123 0 -204 32q-23 8 -23 30q0 19 11 50q8 23 28 23q11 0 34 -7q74 -26 158 -26q83 0 109 27t26 72q0 41 -20.5 62.5t-89.5 39.5l-89 22q-155 39 -155 197q0 101 59 155.5t193 54.5q106 0 173 -22
q22 -7 22 -30q0 -22 -8 -51q-5 -20 -23 -20q-11 0 -31 5q-73 16 -141 16q-72 0 -99 -25t-27 -72q0 -39 19.5 -61t81.5 -39z" />
    <glyph glyph-name="T" unicode="T" horiz-adv-x="598" 
d="M356 25q0 -27 -25 -27h-66q-25 0 -25 27v576h-183q-25 0 -25 22v59q0 24 25 24h483q26 0 26 -24v-59q0 -22 -26 -22h-184v-576z" />
    <glyph glyph-name="U" unicode="U" horiz-adv-x="697" 
d="M613 681v-399q0 -80 -6 -124t-24 -75q-56 -96 -241 -96q-188 0 -236 103q-22 48 -22 190v400q0 26 24 26h70q21 0 21 -25v-427q0 -88 21 -118q31 -47 129 -47q103 0 131 44q22 34 22 118v429q0 26 25 26h64q22 0 22 -25z" />
    <glyph glyph-name="V" unicode="V" horiz-adv-x="615" 
d="M338 -2h-65q-23 0 -34 27l-225 635q-6 18 -6 29q0 19 23 19h73q21 0 31 -28q137 -399 174 -521q16 52 178 519q12 30 33 30h64q24 0 24 -20q0 -12 -6 -29l-231 -635q-9 -26 -33 -26z" />
    <glyph glyph-name="W" unicode="W" horiz-adv-x="920" 
d="M464 510l-141 -486q-8 -26 -33 -26h-64q-24 0 -33 28l-164 630q-4 17 -4 30q0 22 21 22h75q21 0 28 -28q109 -441 123 -506q34 151 131 480q8 32 32 32h61q22 0 31 -29q107 -365 134 -483q34 163 118 503q7 31 30 31h64q22 0 22 -21q0 -14 -5 -34l-166 -628
q-6 -27 -31 -27h-64q-26 0 -33 28z" />
    <glyph glyph-name="X" unicode="X" horiz-adv-x="653" 
d="M150 24q-17 -26 -38 -26h-72q-22 0 -22 18q0 13 13 30l219 320l-200 290q-14 19 -14 31q0 8 5 14.5t14 6.5h80q21 0 37 -24q89 -126 157 -232l157 230q18 26 40 26h72q18 0 18 -20q0 -8 -12 -29l-203 -296l217 -316q14 -21 14 -30q0 -19 -22 -19h-78q-13 0 -21 6t-19 22
q-120 169 -171 250z" />
    <glyph glyph-name="Y" unicode="Y" horiz-adv-x="599" 
d="M358 26q0 -28 -26 -28h-65q-25 0 -25 28v272l-220 358q-14 22 -14 31q0 21 20 21h79q21 0 36 -24q117 -191 161 -270q33 62 159 268q9 15 17 20.5t21 5.5h73q18 0 18 -19q0 -9 -12 -30l-222 -358v-275z" />
    <glyph glyph-name="Z" unicode="Z" horiz-adv-x="613" 
d="M558 0h-504q-31 0 -31 34v26q0 24 19 49l373 492h-336q-26 0 -26 26v51q0 28 26 28h456q16 0 23 -6t7 -24v-26q0 -21 -3.5 -32.5t-18.5 -31.5l-363 -481h379q27 0 27 -24v-57q0 -24 -28 -24z" />
    <glyph glyph-name="bracketleft" unicode="[" horiz-adv-x="304" 
d="M170 -87h98q17 0 17 -17v-21q0 -17 -17 -17h-169q-19 0 -19 24v849q0 24 19 24h169q17 0 17 -16v-22q0 -17 -17 -17h-98v-787z" />
    <glyph glyph-name="backslash" unicode="\" horiz-adv-x="399" 
d="M381 -64q4 -11 4 -21q0 -15 -17 -15h-37q-20 0 -29 25l-283 783q-7 17 -7 28q0 15 19 15h38q18 0 27 -26z" />
    <glyph glyph-name="bracketright" unicode="]" horiz-adv-x="304" 
d="M134 700h-97q-18 0 -18 16v21q0 18 18 18h168q20 0 20 -24v-850q0 -9 -5.5 -16t-14.5 -7h-168q-18 0 -18 16v22q0 16 18 16h97v788z" />
    <glyph glyph-name="asciicircum" unicode="^" horiz-adv-x="715" 
d="M578 314q4 -8 4 -15q0 -18 -23 -18h-37q-21 0 -30 20l-135 281l-134 -281q-10 -20 -31 -20h-36q-23 0 -23 18q0 7 5 15l164 342q10 19 30 19h50q20 0 30 -19z" />
    <glyph glyph-name="underscore" unicode="_" horiz-adv-x="493" 
d="M0 -78h493v-55h-493v55z" />
    <glyph glyph-name="grave" unicode="`" horiz-adv-x="197" 
d="M110 596l-117 124q-11 13 -11 21q0 16 21 16h73q18 0 34 -19l96 -122q8 -9 8 -20q0 -16 -20 -16h-46q-23 0 -38 16z" />
    <glyph glyph-name="a" unicode="a" horiz-adv-x="541" 
d="M360 39q-49 -49 -141 -49q-173 0 -173 162q0 84 60 122q49 31 157 31q61 0 94 -5v30q0 32 -6 48q-14 35 -94 35q-62 0 -109 -10q-30 -5 -36 -5q-16 0 -19 17q-7 23 -7 54q0 20 19 25q67 20 168 20q123 0 161 -38q32 -32 32 -125v-321q0 -32 -28 -32h-46q-27 0 -30 20z
M357 220q-42 4 -80 4q-71 0 -102 -21q-23 -16 -23 -49q0 -37 21 -55.5t74 -18.5q57 0 90 21q11 5 16 16q4 7 4 27v76z" />
    <glyph glyph-name="b" unicode="b" horiz-adv-x="579" 
d="M177 25l-1 -12q-1 -16 -29 -16h-41q-15 0 -21 6.5t-6 23.5v693q0 28 24 28h64q14 0 18.5 -6.5t4.5 -21.5v-248q52 40 162 40q92 0 136.5 -58t44.5 -192q0 -82 -14 -135t-45.5 -82t-72.5 -39.5t-104 -10.5q-33 0 -69.5 8.5t-50.5 21.5zM190 108q32 -18 93 -18q84 0 111 34
t27 131q0 89 -22 122.5t-87 33.5q-73 0 -106 -21q-11 -7 -13 -14q-3 -6 -3 -20v-248z" />
    <glyph glyph-name="c" unicode="c" horiz-adv-x="460" 
d="M159 251q0 -87 24 -126t93 -39q61 0 102 14q18 6 25 6q11 0 16 -14q12 -32 12 -54q0 -16 -17 -25q-62 -26 -151 -26q-112 0 -164.5 57t-52.5 199t53.5 206.5t183.5 64.5q80 0 120 -13q18 -7 18 -22q0 -30 -10 -60q-5 -15 -19 -15t-27 3q-32 7 -76 7q-78 0 -104 -39
t-26 -124z" />
    <glyph glyph-name="d" unicode="d" horiz-adv-x="579" 
d="M500 28q0 -17 -6.5 -23.5t-21.5 -6.5h-48q-16 0 -21.5 3t-6.5 14l-3 21q-44 -48 -155 -48q-95 0 -143.5 59t-48.5 193q0 156 58 215t189 59q66 0 96 -13v220q0 27 28 27h59q13 0 18.5 -5.5t5.5 -21.5v-693zM389 144v256q-26 13 -89 13q-84 0 -113 -36t-29 -134
q0 -85 26 -120t90 -35q68 0 99 21q10 8 14 15q2 5 2 20z" />
    <glyph glyph-name="e" unicode="e" horiz-adv-x="530" 
d="M158 214q1 -75 32 -101.5t99 -26.5q65 0 135 19q21 6 26 6q12 0 17 -14q13 -39 13 -54t-16 -23q-70 -33 -184 -33q-130 0 -182 61t-52 200q0 141 57.5 203.5t178.5 62.5q54 0 92.5 -13t60.5 -33.5t34.5 -56t16 -70.5t3.5 -87q0 -25 -10 -34q-7 -6 -23 -6h-298zM160 301
h221q1 6 1 20q0 56 -20.5 81t-82.5 25q-65 0 -91 -30t-28 -96z" />
    <glyph glyph-name="f" unicode="f" horiz-adv-x="332" 
d="M209 23q0 -25 -22 -25h-67q-21 0 -21 27v377h-47q-26 0 -26 25v48q0 25 25 25h48v79q0 100 43 140q45 39 142 39q51 0 73 -8q15 -5 15 -24q0 -22 -6 -56q-3 -16 -22 -16q-3 0 -21.5 1.5t-31.5 1.5q-50 0 -67 -23q-15 -19 -15 -78v-56h96q24 0 24 -24v-51q0 -23 -25 -23
h-95v-379z" />
    <glyph glyph-name="g" unicode="g" horiz-adv-x="524" 
d="M109 4q-73 21 -73 108q0 73 67 104q-38 40 -38 122q0 176 208 176q55 0 95 -14h130q24 0 24 -24v-45q0 -23 -23 -23h-46q12 -27 12 -62q0 -183 -199 -183q-29 0 -63 6q-20 4 -32 4t-21 -6q-14 -12 -14 -36q0 -31 27 -38q17 -5 135 -5q137 0 182 -32t45 -131
q0 -88 -56 -130.5t-198 -42.5q-61 0 -104.5 8t-68 20t-39 32.5t-18.5 40t-4 46.5q0 78 72 105zM417 -76q0 32 -20 45.5t-86 15.5q-38 1 -90 1q-26 0 -38 -5q-43 -14 -43 -64q0 -38 26.5 -53.5t107.5 -15.5q89 0 116 18t27 58zM365 339q0 49 -22.5 66.5t-73.5 17.5
q-48 0 -73.5 -18t-25.5 -65q0 -54 24 -71.5t74 -17.5t73.5 19.5t23.5 68.5z" />
    <glyph glyph-name="h" unicode="h" horiz-adv-x="587" 
d="M190 24q0 -26 -23 -26h-65q-23 0 -23 26v696q0 30 26 30h61q14 0 19 -7t5 -23v-253q23 21 71 33t97 12q68 0 100 -15t44 -47q10 -25 10 -98v-328q0 -26 -23 -26h-65q-22 0 -22 26v300q0 36 -6 54t-22.5 25.5t-52.5 7.5q-69 0 -105 -14q-12 -4 -20 -13q-6 -10 -6 -27v-333
z" />
    <glyph glyph-name="i" unicode="i" horiz-adv-x="269" 
d="M190 24q0 -26 -23 -26h-65q-23 0 -23 26v452q0 26 23 26h66q22 0 22 -25v-453zM200 659q0 -67 -65 -67t-65 66q0 68 65 68t65 -67z" />
    <glyph glyph-name="j" unicode="j" horiz-adv-x="271" 
d="M190 477v-536q0 -103 -34 -140q-47 -50 -171 -50q-33 0 -33 25q0 39 1 50q2 23 26 24q59 2 78 17q22 17 22 75v534q0 26 23 26h66q22 0 22 -25zM200 659q0 -67 -65 -67t-65 66q0 68 65 68t65 -67z" />
    <glyph glyph-name="k" unicode="k" horiz-adv-x="532" 
d="M190 24q0 -26 -23 -26h-65q-23 0 -23 26v693q0 26 23 26h66q22 0 22 -25v-392h46q31 0 45 20l97 138q14 18 33 18h68q20 0 20 -18q0 -8 -10 -23q-43 -62 -135 -178q53 -74 161 -239q14 -20 14 -28q0 -18 -22 -18h-73q-17 0 -32 21l-127 191q-12 18 -40 18h-45v-204z" />
    <glyph glyph-name="l" unicode="l" horiz-adv-x="269" 
d="M190 24q0 -26 -23 -26h-65q-23 0 -23 26v698q0 26 24 26h65q22 0 22 -25v-699z" />
    <glyph glyph-name="m" unicode="m" horiz-adv-x="881" 
d="M190 23q0 -25 -23 -25h-65q-23 0 -23 25v451q0 29 27 29h57q13 0 18 -5t7 -18l2 -16q22 23 67.5 35.5t91.5 12.5q111 0 137 -53q51 53 172 53q66 0 98 -15t45 -47q10 -25 10 -98v-329q0 -25 -23 -25h-65q-23 0 -23 25v301q0 41 -5 55q-6 18 -22 25t-51 7q-56 0 -96 -17
q-14 -5 -19 -13q-6 -11 -6 -30v-328q0 -25 -23 -25h-65q-22 0 -22 25v301q0 40 -5 55q-7 18 -23 25t-51 7q-54 0 -95 -17q-14 -5 -21 -13q-6 -7 -6 -28v-330z" />
    <glyph glyph-name="n" unicode="n" horiz-adv-x="587" 
d="M190 24q0 -26 -23 -26h-65q-23 0 -23 26v450q0 29 27 29h57q13 0 18 -5t7 -18l2 -16q23 23 71 35.5t97 12.5q68 0 100 -15t44 -47q10 -25 10 -98v-328q0 -26 -23 -26h-65q-22 0 -22 26v300q0 38 -6 55q-10 32 -75 32q-64 0 -105 -17q-14 -7 -20 -14q-6 -8 -6 -27v-329z
" />
    <glyph glyph-name="o" unicode="o" horiz-adv-x="561" 
d="M515 255q0 -154 -56 -211t-181 -57q-122 0 -177 56t-55 209q0 79 17.5 132.5t51.5 81t74 38t95 10.5q63 0 101.5 -9t70.5 -36t45.5 -79t13.5 -135zM404 250q0 101 -24.5 132.5t-97.5 31.5q-66 0 -95 -33t-29 -128q0 -102 27 -134.5t95 -32.5t96 31t28 133z" />
    <glyph glyph-name="p" unicode="p" horiz-adv-x="579" 
d="M190 -217q0 -27 -27 -27h-60q-13 0 -18.5 5.5t-5.5 21.5v688q0 31 28 31h51q15 0 21.5 -4t7.5 -15l2 -17q46 45 156 45q95 0 141.5 -56.5t46.5 -197.5q0 -80 -14.5 -132t-46 -82t-74.5 -41.5t-108 -11.5q-68 0 -100 14v-221zM190 97q31 -12 89 -12q85 0 113.5 36.5
t28.5 135.5q0 86 -23 120t-89 34q-65 0 -103 -19q-10 -5 -13 -13t-3 -20v-262z" />
    <glyph glyph-name="q" unicode="q" horiz-adv-x="578" 
d="M385 26q-46 -35 -157 -35q-186 0 -186 251q0 82 16 136t49 83t75 40t104 11q80 0 112 -30l1 8q3 16 30 16h39q15 0 21 -6t6 -22v-693q0 -26 -22 -26h-65q-13 0 -18 6t-5 21v240zM385 396q-32 17 -90 17q-84 0 -112.5 -35t-28.5 -132q0 -87 23 -121.5t88 -34.5
q68 0 105 17q9 3 13 12q2 8 2 21v256z" />
    <glyph glyph-name="r" unicode="r" horiz-adv-x="382" 
d="M190 24q0 -26 -23 -26h-65q-23 0 -23 26v450q0 29 27 29h58q23 0 24 -21l2 -17q15 20 51 34t76 14q23 0 39 -4q16 -3 16 -25q0 -37 -5 -60q-3 -15 -22 -15q-7 0 -24 1t-23 1q-50 0 -86 -15q-14 -7 -18 -14q-4 -8 -4 -20v-338z" />
    <glyph glyph-name="s" unicode="s" horiz-adv-x="452" 
d="M292 289q69 -16 98 -48.5t29 -97.5q0 -156 -201 -156q-113 0 -170 24q-17 7 -17 23q0 11 16 59q6 17 22 17q10 0 25 -5q61 -19 128 -19q54 0 72 13.5t18 39.5q0 22 -13 33t-58 22l-76 18q-61 14 -91.5 48.5t-30.5 98.5q0 155 198 155q88 0 140 -15q20 -6 20 -24
q0 -12 -12 -60q-3 -16 -18 -16q-6 0 -24 3q-56 12 -107 12q-52 0 -70.5 -12t-18.5 -38q0 -23 13 -34.5t58 -22.5z" />
    <glyph glyph-name="t" unicode="t" horiz-adv-x="329" 
d="M202 402v-228q0 -51 10 -71q10 -18 41 -18q11 0 28 1.5t20 1.5q16 0 19 -17q5 -38 5 -50q0 -20 -22 -25q-35 -9 -81 -9q-76 0 -106 40q-25 33 -25 114v261h-51q-21 0 -21 22v52q0 24 25 24h50q0 38 3 108q2 28 23 28h60q22 0 22 -28v-108h81q24 0 24 -20v-56
q0 -22 -23 -22h-82z" />
    <glyph glyph-name="u" unicode="u" horiz-adv-x="587" 
d="M398 35q-47 -46 -165 -46q-68 0 -102 15.5t-46 47.5q-10 28 -10 99v325q0 26 23 26h65q23 0 23 -26v-297q0 -37 6 -55q12 -35 79 -35q64 0 100 16q15 5 21 13q5 6 5 28v330q0 26 24 26h64q23 0 23 -26v-449q0 -29 -26 -29h-57q-14 0 -19 5t-7 17z" />
    <glyph glyph-name="v" unicode="v" horiz-adv-x="491" 
d="M275 -2h-60q-22 0 -31 24l-171 437q-6 15 -6 26q0 17 21 17h74q19 0 29 -27q60 -159 116 -324q60 173 119 323q10 28 28 28h69q22 0 22 -17q0 -11 -6 -26l-174 -438q-9 -23 -30 -23z" />
    <glyph glyph-name="w" unicode="w" horiz-adv-x="765" 
d="M383 328q-17 -64 -104 -307q-9 -23 -32 -23h-56q-24 0 -32 25l-132 439q-5 17 -5 23q0 17 22 17h73q19 0 27 -27q68 -221 89 -312q25 88 97 290q12 31 33 31h49q18 0 30 -30q81 -220 104 -291q26 112 81 311q7 28 28 28h67q21 0 21 -17q0 -8 -6 -28l-132 -436
q-7 -23 -29 -23h-59q-22 0 -30 25q-84 238 -104 305z" />
    <glyph glyph-name="x" unicode="x" horiz-adv-x="524" 
d="M259 178l-111 -154q-20 -26 -38 -26h-71q-20 0 -20 17q0 12 11 26l159 214l-146 203q-14 18 -14 25q0 8 5.5 13.5t14.5 5.5h79q20 0 38 -25l98 -140q44 65 102 140q8 10 12 14.5t10 7.5t15 3h74q7 0 12 -5.5t5 -12.5q0 -9 -12 -26l-148 -200l160 -217q11 -14 11 -26
q0 -17 -19 -17h-78q-21 0 -39 26z" />
    <glyph glyph-name="y" unicode="y" horiz-adv-x="491" 
d="M190 10l-177 449q-6 15 -6 26q0 17 21 17h73q19 0 29 -27q81 -211 119 -321q35 108 119 320q10 28 28 28h68q22 0 22 -17q0 -11 -6 -26l-204 -520q-18 -44 -32 -75q-25 -53 -54 -78q-40 -36 -115 -36q-60 0 -75 6q-16 6 -16 23q0 38 10 61q5 12 19 12q2 0 18.5 -2
t30.5 -2q35 0 49 11q19 14 39 56q17 35 29 68z" />
    <glyph glyph-name="z" unicode="z" horiz-adv-x="490" 
d="M442 0h-391q-24 0 -24 26v27q0 22 16 40l254 307h-237q-20 0 -20 19v60q0 21 20 21h367q23 0 23 -23v-31q0 -24 -21 -50q-234 -283 -247 -295h261q20 0 20 -18v-65q0 -18 -21 -18z" />
    <glyph glyph-name="braceleft" unicode="{" horiz-adv-x="339" 
d="M115 307q47 -10 71 -43.5t24 -99.5v-148q0 -56 17 -79q16 -22 78 -26q17 -2 17 -24v-14q0 -21 -21 -21q-120 0 -153 43q-27 36 -27 109v147q0 64 -19 90.5t-60 32.5q-20 4 -20 23v16q0 22 17 25q44 8 63 36.5t19 86.5v133q0 80 27 114q42 52 150 52q23 0 23 -24v-11
q0 -23 -20 -23q-58 0 -78 -32q-13 -23 -13 -74v-141q0 -70 -23 -102t-72 -46z" />
    <glyph glyph-name="bar" unicode="|" horiz-adv-x="249" 
d="M170 -122q0 -25 -24 -25h-43q-23 0 -23 25v854q0 25 24 25h44q22 0 22 -24v-855z" />
    <glyph glyph-name="braceright" unicode="}" horiz-adv-x="339" 
d="M218 305q-95 21 -95 143v148q0 58 -16 79q-16 22 -77 26q-17 1 -17 24v14q0 21 20 21q119 0 152 -43q29 -36 29 -109v-147q0 -64 18 -90.5t60 -32.5q21 -3 21 -23v-16q0 -21 -19 -25q-43 -8 -61.5 -36.5t-18.5 -86.5v-133q0 -79 -28 -114q-40 -52 -149 -52q-24 0 -24 24
v11q0 23 20 23q59 2 78 32q12 21 12 74v141q0 70 23 102t72 46z" />
    <glyph glyph-name="asciitilde" unicode="~" horiz-adv-x="701" 
d="M155 243q-12 -15 -23 -15q-14 0 -30 16q-12 10 -12 23q0 12 7 21q73 87 148 87q43 0 117 -42q55 -31 94 -31q25 0 44 11t44 39q13 17 24 17q10 0 29 -16q14 -11 14 -23t-9 -23q-37 -46 -69 -67t-78 -21q-53 0 -117 36q-61 36 -95 36q-45 0 -88 -48z" />
    <glyph glyph-name="exclamdown" unicode="&#xa1;" horiz-adv-x="292" 
d="M77 242q1 29 33 29h32q33 0 34 -32q11 -341 11 -402q0 -40 -33 -40h-57q-31 0 -31 36q0 63 11 409zM64 444q0 69 68 69q65 0 65 -68q0 -72 -67 -72q-66 0 -66 71z" />
    <glyph glyph-name="cent" unicode="&#xa2;" horiz-adv-x="499" 
d="M327 -72q0 -22 -18 -22h-17q-11 0 -15 5t-4 17v70q-104 3 -153.5 59.5t-49.5 190.5q0 129 46 190.5t157 68.5v70q0 23 20 23h17q17 0 17 -23v-68q64 -2 102 -13q18 -4 18 -22q0 -21 -8 -58q-5 -15 -17 -15q-1 0 -28 3q-41 6 -67 7v-318q36 2 79 15q22 5 24 5q11 0 16 -13
q11 -29 11 -54q0 -15 -17 -23q-48 -22 -113 -25v-70zM185 256q0 -75 19 -114t69 -47v312q-52 -9 -70 -45t-18 -106z" />
    <glyph glyph-name="sterling" unicode="&#xa3;" horiz-adv-x="589" 
d="M553 21q0 -21 -22 -21h-434q-23 0 -23 22v48q0 18 15 26q101 52 101 117q0 28 -13 69h-86q-21 0 -21 19v38q0 19 21 19h65q-26 85 -26 138q0 92 58.5 142t176.5 50q92 0 152 -20q17 -5 17 -22q0 -13 -15 -64q-5 -14 -17 -14q-15 0 -31 6q-46 13 -108 13q-116 0 -116 -100
q0 -51 26 -129h188q23 0 23 -19v-38q0 -19 -23 -19h-173q10 -40 10 -71q0 -67 -74 -106h306q23 0 23 -22v-62z" />
    <glyph glyph-name="currency" unicode="&#xa4;" horiz-adv-x="545" 
d="M475 117q-9 -10 -18 -10t-19 10l-50 49q-46 -34 -115 -34q-68 0 -117 33l-47 -48q-9 -10 -19 -10q-11 0 -19 9l-9 10q-9 10 -9 19q0 10 9 19l50 51q-37 51 -37 117q0 65 37 116l-50 50q-9 9 -9 19t10 20l9 9q11 9 17 9q10 0 19 -10l49 -50q48 38 116 38q70 0 114 -37
l50 49q12 10 19 10q9 0 18 -10l8 -8q9 -9 9 -19t-9 -19l-49 -49q37 -48 37 -118q0 -66 -37 -117l51 -51q8 -8 8 -19q0 -8 -9 -19zM402 332q0 60 -36.5 96.5t-92.5 36.5t-93 -37t-37 -95q0 -61 37 -98t93 -37t92.5 37t36.5 97z" />
    <glyph glyph-name="yen" unicode="&#xa5;" horiz-adv-x="629" 
d="M514 329h-117l-26 -43v-32h143q20 0 20 -19v-21q0 -20 -20 -20h-143v-170q0 -26 -25 -26h-63q-24 0 -24 26v170h-142q-22 0 -22 20v20q0 20 22 20h142v29l-28 46h-114q-22 0 -22 20v20q0 20 22 20h77l-145 237q-13 20 -13 30q0 8 5 14t14 6h79q22 0 35 -22
q99 -167 149 -264q56 102 151 261q9 15 16 20t20 5h72q17 0 17 -19q0 -11 -11 -28l-149 -240h80q20 0 20 -20v-20q0 -20 -20 -20z" />
    <glyph glyph-name="brokenbar" unicode="&#xa6;" horiz-adv-x="258" 
d="M170 437q0 -26 -24 -26h-43q-23 0 -23 26v255q0 26 24 26h44q22 0 22 -25v-256zM170 8q0 -26 -24 -26h-43q-23 0 -23 26v255q0 26 24 26h44q22 0 22 -25v-256z" />
    <glyph glyph-name="section" unicode="&#xa7;" horiz-adv-x="518" 
d="M379 124q61 -41 61 -119q0 -167 -206 -167q-108 0 -170 27q-15 5 -15 22q0 30 14 61q5 12 19 12q7 0 24 -5q78 -20 127 -20q51 0 74 15t23 48q0 29 -17 45t-71 41l-67 30q-78 35 -106 68.5t-28 90.5q0 59 30 94.5t75 47.5q-54 35 -54 118q0 70 42.5 115.5t143.5 45.5
q91 0 140 -18q16 -4 16 -20q0 -24 -15 -65q-3 -10 -18 -10q-2 0 -6 1t-10 2t-10 2q-39 11 -100 11q-79 0 -79 -62q0 -27 16 -43t69 -41l66 -30q79 -35 104.5 -69.5t25.5 -95.5q0 -51 -28 -86.5t-70 -45.5zM377 245q0 26 -12.5 42t-46.5 32l-89 42q-12 6 -23 6q-8 0 -17 -3
q-49 -15 -49 -70q0 -24 12.5 -39t43.5 -31q41 -22 102 -48q8 -4 21 -4q4 0 16 4q17 8 29.5 27t12.5 42z" />
    <glyph glyph-name="dieresis" unicode="&#xa8;" horiz-adv-x="197" 
d="M67 659q0 -61 -59 -61q-58 0 -58 60q0 62 58 62q59 0 59 -61zM247 659q0 -61 -59 -61q-58 0 -58 60q0 62 58 62q59 0 59 -61z" />
    <glyph glyph-name="copyright" unicode="&#xa9;" horiz-adv-x="830" 
d="M769 345q0 -155 -98 -257t-257 -102t-257 102t-98 257t98 257.5t256 102.5q163 0 259.5 -101.5t96.5 -258.5zM728 345q0 140 -86 231t-229 91q-141 0 -226.5 -91.5t-85.5 -230.5t85.5 -230t227.5 -91t228 91t86 230zM313 350q0 -80 24.5 -115t88.5 -35q54 0 92 12
q15 5 21 5q7 0 12 -16q9 -22 9 -37q0 -12 -15 -18q-54 -21 -137 -21q-91 0 -137.5 49t-46.5 167q0 120 48.5 174.5t157.5 54.5q66 0 104 -9q15 -4 15 -18q0 -28 -8 -47q-4 -9 -13 -9q-5 0 -23 4q-30 5 -68 5q-73 0 -98.5 -34t-25.5 -112z" />
    <glyph glyph-name="ordfeminine" unicode="&#xaa;" horiz-adv-x="358" 
d="M229 288q-31 -30 -85 -30q-111 0 -111 99q0 51 37 75q32 20 101 20q31 0 55 -3v14q0 18 -4 27q-8 18 -54 18q-35 0 -70 -5q-3 0 -8 -1t-9 -1.5t-6 -0.5q-8 0 -12 11q-5 13 -5 37q0 13 14 18q39 13 107 13q81 0 108 -25q19 -18 19 -76v-195q0 -20 -18 -20h-37
q-20 0 -21 13zM226 396q-13 1 -44 1q-48 0 -61 -11q-12 -10 -12 -28q0 -39 55 -39q36 0 50 11q7 7 9 10q3 5 3 19v37z" />
    <glyph glyph-name="guillemotleft" unicode="&#xab;" horiz-adv-x="514" 
d="M144 265l124 -161q9 -12 9 -24q0 -14 -15 -14h-61q-17 0 -35 21l-122 149q-13 17 -13 28q0 12 10 25l124 154q19 23 36 23h61q15 0 15 -13t-10 -26zM356 265l123 -161q10 -14 10 -24q0 -14 -15 -14h-62q-16 0 -34 21l-123 149q-13 15 -13 28q0 11 10 25l125 154
q18 23 36 23h61q15 0 15 -13t-10 -26z" />
    <glyph glyph-name="logicalnot" unicode="&#xac;" horiz-adv-x="701" 
d="M601 59q0 -24 -25 -24h-28q-26 0 -26 24v196h-417q-24 0 -24 28v24q0 28 24 28h471q25 0 25 -28v-248z" />
    <glyph glyph-name="uni00AD" unicode="&#xad;" horiz-adv-x="319" 
d="M262 220h-205q-23 0 -23 22v52q0 22 24 22h203q24 0 24 -22v-54q0 -20 -23 -20z" />
    <glyph glyph-name="registered" unicode="&#xae;" horiz-adv-x="830" 
d="M769 345q0 -155 -98 -257t-257 -102t-257 102t-98 257t98 257.5t256 102.5q163 0 259.5 -101.5t96.5 -258.5zM728 345q0 140 -86 231t-229 91q-141 0 -226.5 -91.5t-85.5 -230.5t85.5 -230t227.5 -91t228 91t86 230zM352 153q0 -19 -19 -19h-42q-20 0 -20 21v391
q0 26 24 26h93q89 0 127 -16q61 -25 61 -113q0 -90 -72 -120l91 -154q6 -14 6 -20q0 -15 -16 -15h-48q-16 0 -25 17l-85 157h-35h-40v-155zM352 375h44q47 0 64 8q35 13 35 56q0 44 -33 56q-18 7 -67 7h-43v-127z" />
    <glyph glyph-name="macron" unicode="&#xaf;" horiz-adv-x="197" 
d="M218 602h-237q-24 0 -24 22v45q0 22 24 22h236q24 0 24 -22v-46q0 -21 -23 -21z" />
    <glyph glyph-name="degree" unicode="&#xb0;" horiz-adv-x="336" 
d="M306 575q0 -65 -38 -101.5t-101 -36.5q-61 0 -98.5 36t-37.5 101t38.5 101.5t102.5 36.5q63 0 98.5 -35.5t35.5 -101.5zM254 574q0 46 -22 69.5t-62 23.5q-41 0 -64 -24.5t-23 -70.5q0 -43 24 -67t64 -24q38 0 60.5 25t22.5 68z" />
    <glyph glyph-name="plusminus" unicode="&#xb1;" horiz-adv-x="701" 
d="M391 170q0 -25 -26 -25h-30q-25 0 -25 25v188h-196q-24 0 -24 27v25q0 27 24 27h195v186q0 25 26 25h30q26 0 26 -25v-186h196q24 0 24 -27v-25q0 -27 -24 -27h-196v-188zM611 27q0 -27 -24 -27h-473q-24 0 -24 27v26q0 27 24 27h473q24 0 24 -27v-26z" />
    <glyph glyph-name="twosuperior" unicode="&#xb2;" 
d="M325 420h-273q-17 0 -17 14v36q0 12 11 20q107 73 162 126q43 40 43 86q0 35 -18.5 51t-63.5 16q-38 0 -70 -8q-20 -4 -23 -4q-10 0 -12 8q-8 32 -8 44t15 16q53 15 114 15q85 0 116.5 -32t31.5 -90q0 -76 -41 -118q-43 -45 -142 -108q38 1 175 1q16 0 16 -16v-42
q0 -15 -16 -15z" />
    <glyph glyph-name="threesuperior" unicode="&#xb3;" 
d="M233 638q92 -7 92 -101q0 -63 -35.5 -94t-126.5 -31q-65 0 -107 11q-16 5 -16 16q0 20 9 44q4 10 13 10q1 0 23 -5q32 -6 74 -6q52 0 68 14t16 42q0 33 -19 46t-69 13h-17q-15 0 -15 18v36q0 17 15 17h17q42 0 58.5 13t16.5 39q0 29 -15 39t-58 10q-39 0 -65 -7
q-18 -4 -23 -4q-9 0 -12 8q-6 24 -6 43q0 12 16 17q47 14 109 14q84 0 109.5 -26t25.5 -89q0 -33 -19.5 -56t-58.5 -31z" />
    <glyph glyph-name="acute" unicode="&#xb4;" horiz-adv-x="197" 
d="M86 596q-15 -16 -35 -16h-49q-19 0 -19 16q0 10 7 20l97 122q14 19 34 19h72q21 0 21 -16q0 -11 -10 -21z" />
    <glyph glyph-name="mu" unicode="&#xb5;" horiz-adv-x="604" 
d="M198 14v-193q0 -25 -24 -25h-65q-23 0 -23 25v655q0 26 23 26h66q23 0 23 -26v-297q0 -38 6 -56q12 -35 78 -35q65 0 99 16q17 6 22 13q6 10 6 28v331q0 26 24 26h64q23 0 23 -26v-449q0 -29 -27 -29h-57q-24 0 -25 22l-1 15q-36 -39 -137 -39q-55 0 -75 18z" />
    <glyph glyph-name="paragraph" unicode="&#xb6;" horiz-adv-x="570" 
d="M321 -108q0 -20 -17 -20h-17q-17 0 -17 20v342q-224 0 -224 224q0 57 12.5 99.5t42.5 77.5t85.5 53t136.5 18h131q29 0 29 -27v-787q0 -20 -18 -20h-17q-17 0 -17 20v762h-110v-762z" />
    <glyph glyph-name="periodcentered" unicode="&#xb7;" horiz-adv-x="233" 
d="M188 269q0 -73 -72 -73q-71 0 -71 72q0 75 72 75q33 0 52 -16t19 -58z" />
    <glyph glyph-name="cedilla" unicode="&#xb8;" horiz-adv-x="197" 
d="M111 -54q30 -1 49.5 -8.5t28 -22.5t11.5 -29t3 -35q0 -98 -134 -98q-34 0 -50 4q-18 6 -18 22t4 31q5 17 21 17q6 0 20 -2q14 -3 30 -3q21 0 29.5 6t8.5 22q0 17 -7.5 24t-25.5 7q-3 0 -13 -0.5t-12 -0.5q-21 0 -21 19q0 5 5 35l15 76h67z" />
    <glyph glyph-name="onesuperior" unicode="&#xb9;" 
d="M172 750l-50 -23q-10 -4 -15 -4q-7 0 -11 9q-16 37 -16 45t10 12l85 38q12 5 25 5h38q16 0 16 -16v-379q0 -18 -17 -18h-49q-16 0 -16 18v313z" />
    <glyph glyph-name="ordmasculine" unicode="&#xba;" horiz-adv-x="369" 
d="M336 419q0 -93 -36.5 -128t-117.5 -35q-78 0 -113.5 34.5t-35.5 126.5q0 93 39.5 127.5t113.5 34.5q80 0 115 -31.5t35 -128.5zM254 417q0 57 -14 74.5t-55 17.5q-38 0 -54.5 -18.5t-16.5 -72.5q0 -56 16 -75t54 -19t54 18t16 75z" />
    <glyph glyph-name="guillemotright" unicode="&#xbb;" horiz-adv-x="514" 
d="M370 266l-123 162q-10 14 -10 24q0 14 15 14h61q17 0 35 -21l122 -149q13 -15 13 -29t-9 -24l-125 -155q-19 -22 -36 -22h-61q-15 0 -15 13q0 12 11 26zM158 266l-122 162q-11 16 -11 24q0 14 16 14h61q17 0 35 -21l122 -149q13 -17 13 -29q0 -11 -10 -24l-125 -155
q-17 -22 -36 -22h-60q-16 0 -16 13q0 12 11 26z" />
    <glyph glyph-name="onequarter" unicode="&#xbc;" horiz-adv-x="862" 
d="M262 -15q-10 -17 -24 -17h-20q-13 0 -13 13q0 7 6 19l332 689q11 22 24 22h24q13 0 13 -13q-1 -7 -10 -24zM179 594l-50 -23q-10 -4 -15 -4q-7 0 -11 10q-16 34 -16 44q0 8 10 12l85 38q12 5 25 5h38q16 0 16 -16v-379q0 -18 -17 -18h-49q-16 0 -16 18v313zM713 17
q0 -18 -18 -18h-43q-17 0 -17 18v76h-182q-19 0 -19 16v34q0 12 8 25l142 229q10 15 25 15h49q13 0 13 -10q0 -7 -5 -16l-143 -222h112v74q0 18 17 18h44q17 0 17 -17v-75h41q18 0 18 -15v-41q0 -15 -18 -15h-41v-76z" />
    <glyph glyph-name="onehalf" unicode="&#xbd;" horiz-adv-x="862" 
d="M249 -15q-10 -17 -24 -17h-20q-13 0 -13 13q0 7 6 19l332 689q11 22 24 22h24q13 0 13 -13q-1 -7 -10 -24zM170 594l-50 -23q-10 -4 -15 -4q-7 0 -11 10q-16 34 -16 44q0 8 10 12l85 38q12 5 25 5h38q16 0 16 -16v-379q0 -18 -17 -18h-49q-16 0 -16 18v313zM762 0h-273
q-17 0 -17 14v36q0 12 11 20q107 73 162 126q43 40 43 86q0 35 -18.5 51t-63.5 16q-38 0 -70 -8q-20 -4 -23 -4q-10 0 -12 8q-8 32 -8 44t15 16q52 15 114 15q85 0 116.5 -32t31.5 -90q0 -76 -41 -118q-43 -45 -142 -108q38 1 175 1q16 0 16 -16v-42q0 -15 -16 -15z" />
    <glyph glyph-name="threequarters" unicode="&#xbe;" horiz-adv-x="862" 
d="M314 -15q-10 -17 -24 -17h-20q-13 0 -13 13q0 7 6 19l332 689q11 22 24 22h24q13 0 13 -13q-1 -7 -10 -24zM267 482q92 -7 92 -101q0 -63 -35.5 -94t-126.5 -31q-66 0 -108 11q-16 5 -16 16q0 15 11 44q4 10 13 10q1 0 23 -5q31 -6 73 -6q52 0 68 14t16 42q0 33 -19 46
t-69 13h-17q-15 0 -15 18v36q0 17 15 17h17q42 0 58.5 13t16.5 39q0 29 -15 39t-58 10q-37 0 -65 -6q-18 -4 -23 -4q-9 0 -12 8q-6 24 -6 42q0 12 16 17q47 14 109 14q84 0 109.5 -26t25.5 -89q0 -33 -19.5 -56t-58.5 -31zM760 17q0 -18 -18 -18h-43q-17 0 -17 18v76h-182
q-19 0 -19 16v34q0 12 8 25l142 229q10 15 25 15h49q13 0 13 -10q0 -7 -5 -16l-143 -222h112v74q0 18 17 18h44q17 0 17 -17v-75h41q18 0 18 -15v-41q0 -15 -18 -15h-41v-76z" />
    <glyph glyph-name="questiondown" unicode="&#xbf;" horiz-adv-x="435" 
d="M225 270h37q24 0 27 -18q2 -17 2 -48q0 -40 -12 -64.5t-48 -50.5q-48 -35 -66 -61.5t-18 -64.5q0 -39 21.5 -59.5t74.5 -20.5q55 0 94 9q24 4 25 4q19 0 25 -20q7 -26 7 -45q0 -23 -21 -29q-66 -20 -145 -20q-111 0 -154.5 40.5t-43.5 122.5q0 59 20 96.5t82 78.5
q37 25 49.5 41t16.5 48q1 8 2 23t2 23q3 15 23 15zM178 443q0 72 70 72q68 0 68 -71q0 -74 -70 -74q-68 0 -68 73z" />
    <glyph glyph-name="Agrave" unicode="&#xc0;" horiz-adv-x="631" 
d="M194 199l-62 -170q-11 -31 -32 -31h-67q-25 0 -25 19q0 9 7 28l233 638q9 25 33 25h69q24 0 33 -25l233 -638q7 -17 7 -28q0 -19 -24 -19h-67q-23 0 -34 32l-60 169h-244zM225 300h182q-71 199 -91 261zM299 772l-150 104q-15 11 -15 23q0 14 21 14h81q20 0 40 -16
l123 -101q12 -11 12 -22q0 -14 -18 -14h-54q-20 0 -40 12z" />
    <glyph glyph-name="Aacute" unicode="&#xc1;" horiz-adv-x="631" 
d="M194 199l-62 -170q-11 -31 -32 -31h-67q-25 0 -25 19q0 9 7 28l233 638q9 25 33 25h69q24 0 33 -25l233 -638q7 -17 7 -28q0 -19 -24 -19h-67q-23 0 -34 32l-60 169h-244zM225 300h182q-71 199 -91 261zM324 763q-17 -12 -38 -12h-54q-19 0 -19 14q0 11 12 22l124 101
q19 16 40 16h80q21 0 21 -14t-14 -23z" />
    <glyph glyph-name="Acircumflex" unicode="&#xc2;" horiz-adv-x="631" 
d="M194 199l-62 -170q-11 -31 -32 -31h-67q-25 0 -25 19q0 9 7 28l233 638q9 25 33 25h69q24 0 33 -25l233 -638q7 -17 7 -28q0 -19 -24 -19h-67q-23 0 -34 32l-60 169h-244zM225 300h182q-71 199 -91 261zM205 760h-44q-22 0 -22 17q0 11 8 19l102 101q25 23 42 23h56
q20 0 38 -20l104 -105q7 -7 7 -18q0 -17 -23 -17h-45q-18 0 -38 17l-74 61l-73 -61q-20 -17 -38 -17z" />
    <glyph glyph-name="Atilde" unicode="&#xc3;" horiz-adv-x="631" 
d="M194 199l-62 -170q-11 -31 -32 -31h-67q-25 0 -25 19q0 9 7 28l233 638q9 25 33 25h69q24 0 33 -25l233 -638q7 -17 7 -28q0 -19 -24 -19h-67q-23 0 -34 32l-60 169h-244zM225 300h182q-71 199 -91 261zM205 761h-27q-20 0 -20 20q0 6 6 24q34 93 96 93q29 0 78 -26
q39 -21 57 -21q26 0 41 32q10 20 28 20h24q21 0 21 -19q0 -15 -6 -28q-38 -92 -96 -92q-28 0 -79 27q-40 20 -59 20q-23 0 -36 -28q-11 -22 -28 -22z" />
    <glyph glyph-name="Adieresis" unicode="&#xc4;" horiz-adv-x="631" 
d="M194 199l-62 -170q-11 -31 -32 -31h-67q-25 0 -25 19q0 9 7 28l233 638q9 25 33 25h69q24 0 33 -25l233 -638q7 -17 7 -28q0 -19 -24 -19h-67q-23 0 -34 32l-60 169h-244zM225 300h182q-71 199 -91 261zM280 827q0 -61 -59 -61q-57 0 -57 60q0 62 57 62q59 0 59 -61z
M476 827q0 -61 -59 -61q-57 0 -57 60q0 62 57 62q59 0 59 -61z" />
    <glyph glyph-name="Aring" unicode="&#xc5;" horiz-adv-x="631" 
d="M194 199l-62 -170q-11 -31 -32 -31h-67q-25 0 -25 19q0 9 7 28l233 638q9 25 33 25h69q24 0 33 -25l233 -638q7 -17 7 -28q0 -19 -24 -19h-67q-23 0 -34 32l-60 169h-244zM225 300h182q-71 199 -91 261zM411 830q0 -45 -26.5 -70t-71.5 -25q-43 0 -68.5 24.5t-25.5 70.5
t26.5 72t70.5 26t69.5 -26t25.5 -72zM369 832q0 59 -55 59q-25 0 -40 -15.5t-15 -44.5q0 -28 15 -43.5t41 -15.5q54 0 54 60z" />
    <glyph glyph-name="AE" unicode="&#xc6;" horiz-adv-x="970" 
d="M255 202l-112 -174q-19 -30 -39 -30h-79q-22 0 -22 17q0 6 14 30l403 636q15 25 44 25h433q25 0 25 -24v-59q0 -22 -25 -22h-283v-182h256q13 0 19 -5.5t6 -19.5v-58q0 -22 -25 -22h-256v-209h299q25 0 25 -24v-59q0 -22 -25 -22h-390q-25 0 -25 26v176h-243zM313 306
h185v297q-53 -94 -185 -297z" />
    <glyph glyph-name="Ccedilla" unicode="&#xc7;" horiz-adv-x="596" 
d="M348 -54q60 -2 79.5 -28t19.5 -71q0 -105 -144 -105q-30 0 -53 5q-20 4 -20 24q0 5 6 32q5 18 22 18l24 -4q22 -2 28 -2q24 0 32.5 6.5t8.5 22.5q0 17 -7.5 23.5t-27.5 6.5q-4 0 -13 -0.5t-11 -0.5q-23 0 -23 20q0 11 4 31l13 65q-118 9 -175.5 90t-57.5 263
q0 202 67 289.5t237 87.5q100 0 165 -15q25 -6 25 -26q0 -29 -13 -64q-5 -13 -18 -13q-4 0 -32 6q-58 10 -125 10q-110 0 -149 -62t-39 -198q0 -139 36.5 -203.5t142.5 -64.5q84 0 151 23q21 6 30 6q11 0 17 -14q14 -36 14 -57q0 -16 -22 -25q-75 -31 -185 -34z" />
    <glyph glyph-name="Egrave" unicode="&#xc8;" horiz-adv-x="562" 
d="M505 0h-389q-25 0 -25 26v652q0 28 23 28h375q25 0 25 -24v-59q0 -22 -25 -22h-283v-182h256q26 0 26 -25v-58q0 -22 -26 -22h-256v-209h299q26 0 26 -24v-59q0 -22 -26 -22zM289 772l-150 104q-15 11 -15 23q0 14 21 14h81q20 0 40 -16l123 -101q12 -11 12 -22
q0 -14 -18 -14h-54q-20 0 -40 12z" />
    <glyph glyph-name="Eacute" unicode="&#xc9;" horiz-adv-x="562" 
d="M505 0h-389q-25 0 -25 26v652q0 28 23 28h375q25 0 25 -24v-59q0 -22 -25 -22h-283v-182h256q26 0 26 -25v-58q0 -22 -26 -22h-256v-209h299q26 0 26 -24v-59q0 -22 -26 -22zM298 763q-17 -12 -38 -12h-54q-19 0 -19 14q0 11 12 22l124 101q19 16 40 16h80q21 0 21 -14
t-14 -23z" />
    <glyph glyph-name="Ecircumflex" unicode="&#xca;" horiz-adv-x="562" 
d="M505 0h-389q-25 0 -25 26v652q0 28 23 28h375q25 0 25 -24v-59q0 -22 -25 -22h-283v-182h256q26 0 26 -25v-58q0 -22 -26 -22h-256v-209h299q26 0 26 -24v-59q0 -22 -26 -22zM193 760h-44q-22 0 -22 17q0 11 8 19l102 101q25 23 42 23h56q20 0 38 -20l104 -105
q7 -7 7 -18q0 -17 -23 -17h-45q-18 0 -38 17l-74 61l-73 -61q-20 -17 -38 -17z" />
    <glyph glyph-name="Edieresis" unicode="&#xcb;" horiz-adv-x="562" 
d="M505 0h-389q-25 0 -25 26v652q0 28 23 28h375q25 0 25 -24v-59q0 -22 -25 -22h-283v-182h256q26 0 26 -25v-58q0 -22 -26 -22h-256v-209h299q26 0 26 -24v-59q0 -22 -26 -22zM265 827q0 -61 -59 -61q-57 0 -57 60q0 62 57 62q59 0 59 -61zM461 827q0 -61 -59 -61
q-57 0 -57 60q0 62 57 62q59 0 59 -61z" />
    <glyph glyph-name="Igrave" unicode="&#xcc;" horiz-adv-x="297" 
d="M206 25q0 -27 -25 -27h-66q-24 0 -24 27v656q0 27 25 27h67q23 0 23 -27v-656zM135 772l-150 104q-15 11 -15 23q0 14 21 14h81q20 0 40 -16l123 -101q12 -11 12 -22q0 -14 -18 -14h-54q-20 0 -40 12z" />
    <glyph glyph-name="Iacute" unicode="&#xcd;" horiz-adv-x="297" 
d="M206 25q0 -27 -25 -27h-66q-24 0 -24 27v656q0 27 25 27h67q23 0 23 -27v-656zM159 772q-17 -12 -38 -12h-54q-19 0 -19 14q0 11 12 22l124 101q19 16 40 16h80q21 0 21 -14t-14 -23z" />
    <glyph glyph-name="Icircumflex" unicode="&#xce;" horiz-adv-x="297" 
d="M206 25q0 -27 -25 -27h-66q-24 0 -24 27v656q0 27 25 27h67q23 0 23 -27v-656zM35 760h-44q-22 0 -22 17q0 11 8 19l102 101q25 23 42 23h56q20 0 38 -20l104 -105q7 -7 7 -18q0 -17 -23 -17h-45q-18 0 -38 17l-74 61l-73 -61q-20 -17 -38 -17z" />
    <glyph glyph-name="Idieresis" unicode="&#xcf;" horiz-adv-x="297" 
d="M206 25q0 -27 -25 -27h-66q-24 0 -24 27v656q0 27 25 27h67q23 0 23 -27v-656zM107 827q0 -61 -59 -61q-57 0 -57 60q0 62 57 62q59 0 59 -61zM303 827q0 -61 -59 -61q-57 0 -57 60q0 62 57 62q59 0 59 -61z" />
    <glyph glyph-name="Eth" unicode="&#xd0;" horiz-adv-x="697" 
d="M271 0h-157q-23 0 -23 27v294h-50q-24 0 -24 22v45q0 22 25 22h49v269q0 27 23 27h168q122 0 186 -19q177 -51 177 -326q0 -135 -40.5 -217.5t-139.5 -119.5q-66 -24 -194 -24zM206 105h83q93 0 134 20q58 27 80.5 83.5t22.5 152.5q0 91 -21.5 143t-76.5 77
q-44 20 -140 20h-82v-191h149q24 0 24 -22v-47q0 -12 -5.5 -16t-17.5 -4h-150v-216z" />
    <glyph glyph-name="Ntilde" unicode="&#xd1;" horiz-adv-x="711" 
d="M203 25q0 -27 -26 -27h-62q-24 0 -24 27v656q0 27 25 27h60q18 0 29 -18q235 -358 304 -473q-1 87 -1 462q0 29 25 29h63q23 0 23 -27v-656q0 -12 -7 -19.5t-18 -7.5h-51q-24 0 -38 21q-248 382 -303 478q1 -77 1 -472zM228 761h-27q-20 0 -20 20q0 6 6 24q34 93 96 93
q29 0 78 -26q39 -21 57 -21q26 0 41 32q10 20 28 20h24q21 0 21 -19q0 -15 -6 -28q-38 -92 -96 -92q-28 0 -79 27q-40 20 -59 20q-23 0 -36 -28q-11 -22 -28 -22z" />
    <glyph glyph-name="Ograve" unicode="&#xd2;" horiz-adv-x="700" 
d="M647 358q0 -109 -17.5 -181.5t-56.5 -114t-93 -58.5t-134 -17q-78 0 -130 16.5t-90 58t-55.5 114t-17.5 181.5t22 182.5t65 111.5t93.5 53t121.5 15q63 0 106 -8t81 -30.5t59.5 -62.5t33.5 -104t12 -156zM528 356q0 84 -9 135t-32 79t-54 37.5t-83 9.5q-46 0 -77 -10.5
t-55 -38.5t-35.5 -79.5t-11.5 -131.5q0 -84 10.5 -138t35 -82t54.5 -38t77 -10q37 0 62.5 5.5t49.5 21.5t37.5 45t22 77.5t8.5 117.5zM345 772l-150 104q-15 11 -15 23q0 14 21 14h81q20 0 40 -16l123 -101q12 -11 12 -22q0 -14 -18 -14h-54q-20 0 -40 12z" />
    <glyph glyph-name="Oacute" unicode="&#xd3;" horiz-adv-x="700" 
d="M647 358q0 -109 -17.5 -181.5t-56.5 -114t-93 -58.5t-134 -17q-78 0 -130 16.5t-90 58t-55.5 114t-17.5 181.5t22 182.5t65 111.5t93.5 53t121.5 15q63 0 106 -8t81 -30.5t59.5 -62.5t33.5 -104t12 -156zM528 356q0 84 -9 135t-32 79t-54 37.5t-83 9.5q-46 0 -77 -10.5
t-55 -38.5t-35.5 -79.5t-11.5 -131.5q0 -84 10.5 -138t35 -82t54.5 -38t77 -10q37 0 62.5 5.5t49.5 21.5t37.5 45t22 77.5t8.5 117.5zM359 772q-17 -12 -38 -12h-54q-19 0 -19 14q0 11 12 22l124 101q19 16 40 16h80q21 0 21 -14t-14 -23z" />
    <glyph glyph-name="Ocircumflex" unicode="&#xd4;" horiz-adv-x="700" 
d="M647 358q0 -109 -17.5 -181.5t-56.5 -114t-93 -58.5t-134 -17q-78 0 -130 16.5t-90 58t-55.5 114t-17.5 181.5t22 182.5t65 111.5t93.5 53t121.5 15q63 0 106 -8t81 -30.5t59.5 -62.5t33.5 -104t12 -156zM528 356q0 84 -9 135t-32 79t-54 37.5t-83 9.5q-46 0 -77 -10.5
t-55 -38.5t-35.5 -79.5t-11.5 -131.5q0 -84 10.5 -138t35 -82t54.5 -38t77 -10q37 0 62.5 5.5t49.5 21.5t37.5 45t22 77.5t8.5 117.5zM237 760h-44q-22 0 -22 17q0 11 8 19l102 101q25 23 42 23h56q20 0 38 -20l104 -105q7 -7 7 -18q0 -17 -23 -17h-45q-18 0 -38 17l-74 61
l-73 -61q-20 -17 -38 -17z" />
    <glyph glyph-name="Otilde" unicode="&#xd5;" horiz-adv-x="700" 
d="M647 358q0 -109 -17.5 -181.5t-56.5 -114t-93 -58.5t-134 -17q-78 0 -130 16.5t-90 58t-55.5 114t-17.5 181.5t22 182.5t65 111.5t93.5 53t121.5 15q63 0 106 -8t81 -30.5t59.5 -62.5t33.5 -104t12 -156zM528 356q0 84 -9 135t-32 79t-54 37.5t-83 9.5q-46 0 -77 -10.5
t-55 -38.5t-35.5 -79.5t-11.5 -131.5q0 -84 10.5 -138t35 -82t54.5 -38t77 -10q37 0 62.5 5.5t49.5 21.5t37.5 45t22 77.5t8.5 117.5zM221 761h-27q-20 0 -20 20q0 6 6 24q34 93 96 93q29 0 78 -26q39 -21 57 -21q26 0 41 32q10 20 28 20h24q21 0 21 -19q0 -15 -6 -28
q-38 -92 -96 -92q-28 0 -79 27q-40 20 -59 20q-23 0 -36 -28q-11 -22 -28 -22z" />
    <glyph glyph-name="Odieresis" unicode="&#xd6;" horiz-adv-x="700" 
d="M647 358q0 -109 -17.5 -181.5t-56.5 -114t-93 -58.5t-134 -17q-78 0 -130 16.5t-90 58t-55.5 114t-17.5 181.5t22 182.5t65 111.5t93.5 53t121.5 15q63 0 106 -8t81 -30.5t59.5 -62.5t33.5 -104t12 -156zM528 356q0 84 -9 135t-32 79t-54 37.5t-83 9.5q-46 0 -77 -10.5
t-55 -38.5t-35.5 -79.5t-11.5 -131.5q0 -84 10.5 -138t35 -82t54.5 -38t77 -10q37 0 62.5 5.5t49.5 21.5t37.5 45t22 77.5t8.5 117.5zM309 827q0 -61 -59 -61q-57 0 -57 60q0 62 57 62q59 0 59 -61zM505 827q0 -61 -59 -61q-57 0 -57 60q0 62 57 62q59 0 59 -61z" />
    <glyph glyph-name="multiply" unicode="&#xd7;" horiz-adv-x="701" 
d="M552 152q10 -12 10 -19q0 -10 -9 -19l-19 -21q-10 -10 -19 -10t-18 9l-148 144l-146 -146q-11 -9 -19 -9q-9 0 -18 9l-19 21q-9 11 -9 18q0 11 9 20l148 147l-150 147q-10 10 -10 20q0 8 10 18l20 22q9 9 18 9t19 -10l148 -148l151 148q11 9 18 9q9 0 18 -9l19 -20
q9 -9 9 -19q0 -12 -9 -20l-151 -147z" />
    <glyph glyph-name="Oslash" unicode="&#xd8;" horiz-adv-x="700" 
d="M105 -19q-5 -9 -14 -9q-8 0 -30 17q-7 6 -7 11q0 7 6 15l49 68q-56 86 -56 274q0 109 22 182.5t65 111.5t93.5 53t121.5 15q128 0 189 -40l41 57q6 9 14 9t13 -4q23 -16 23 -24q0 -5 -6 -13l-45 -62q63 -80 63 -284q0 -109 -17.5 -181.5t-56.5 -114t-93 -58.5t-134 -17
q-134 0 -199 53zM528 356q0 120 -22 179l-290 -401q36 -49 132 -49q47 0 76.5 9.5t55 37.5t37 83t11.5 141zM171 357q0 -104 17 -166l288 395q-38 35 -126 35q-46 0 -77 -10.5t-55 -39t-35.5 -81t-11.5 -133.5z" />
    <glyph glyph-name="Ugrave" unicode="&#xd9;" horiz-adv-x="697" 
d="M613 681v-399q0 -80 -6 -124t-24 -75q-56 -96 -241 -96q-188 0 -236 103q-22 48 -22 190v400q0 26 24 26h70q21 0 21 -25v-427q0 -88 21 -118q31 -47 129 -47q103 0 131 44q22 34 22 118v429q0 26 25 26h64q22 0 22 -25zM339 772l-150 104q-15 11 -15 23q0 14 21 14h81
q20 0 40 -16l123 -101q12 -11 12 -22q0 -14 -18 -14h-54q-20 0 -40 12z" />
    <glyph glyph-name="Uacute" unicode="&#xda;" horiz-adv-x="697" 
d="M613 681v-399q0 -80 -6 -124t-24 -75q-56 -96 -241 -96q-188 0 -236 103q-22 48 -22 190v400q0 26 24 26h70q21 0 21 -25v-427q0 -88 21 -118q31 -47 129 -47q103 0 131 44q22 34 22 118v429q0 26 25 26h64q22 0 22 -25zM362 772q-17 -12 -38 -12h-54q-19 0 -19 14
q0 11 12 22l124 101q19 16 40 16h80q21 0 21 -14t-14 -23z" />
    <glyph glyph-name="Ucircumflex" unicode="&#xdb;" horiz-adv-x="697" 
d="M613 681v-399q0 -80 -6 -124t-24 -75q-56 -96 -241 -96q-188 0 -236 103q-22 48 -22 190v400q0 26 24 26h70q21 0 21 -25v-427q0 -88 21 -118q31 -47 129 -47q103 0 131 44q22 34 22 118v429q0 26 25 26h64q22 0 22 -25zM240 760h-44q-22 0 -22 17q0 11 8 19l102 101
q25 23 42 23h56q20 0 38 -20l104 -105q7 -7 7 -18q0 -17 -23 -17h-45q-18 0 -38 17l-74 61l-73 -61q-20 -17 -38 -17z" />
    <glyph glyph-name="Udieresis" unicode="&#xdc;" horiz-adv-x="697" 
d="M613 681v-399q0 -80 -6 -124t-24 -75q-56 -96 -241 -96q-188 0 -236 103q-22 48 -22 190v400q0 26 24 26h70q21 0 21 -25v-427q0 -88 21 -118q31 -47 129 -47q103 0 131 44q22 34 22 118v429q0 26 25 26h64q22 0 22 -25zM309 827q0 -61 -59 -61q-57 0 -57 60q0 62 57 62
q59 0 59 -61zM505 827q0 -61 -59 -61q-57 0 -57 60q0 62 57 62q59 0 59 -61z" />
    <glyph glyph-name="Yacute" unicode="&#xdd;" horiz-adv-x="599" 
d="M358 26q0 -28 -26 -28h-65q-25 0 -25 28v272l-220 358q-14 22 -14 31q0 21 20 21h79q21 0 36 -24q117 -191 161 -270q33 62 159 268q9 15 17 20.5t21 5.5h73q18 0 18 -19q0 -9 -12 -30l-222 -358v-275zM318 768q-17 -12 -38 -12h-54q-19 0 -19 14q0 11 12 22l124 101
q19 16 40 16h80q21 0 21 -14t-14 -23z" />
    <glyph glyph-name="Thorn" unicode="&#xde;" horiz-adv-x="630" 
d="M206 150v-125q0 -27 -25 -27h-66q-24 0 -24 27v656q0 27 25 27h67q23 0 23 -27v-106h78q136 0 193 -24q102 -40 102 -185q0 -159 -133 -199q-60 -17 -157 -17h-83zM206 249h89q73 0 108 13q58 21 58 97q0 79 -57 102q-32 13 -112 13h-86v-225z" />
    <glyph glyph-name="germandbls" unicode="&#xdf;" horiz-adv-x="562" 
d="M190 23q0 -25 -23 -25h-66q-22 0 -22 25v452q0 111 18 149q23 49 69.5 74.5t134.5 25.5q105 0 149 -41.5t44 -123.5q0 -76 -25.5 -113.5t-83.5 -54.5q84 -9 115 -56t31 -140q0 -113 -49 -158.5t-148 -45.5q-46 0 -81 9q-14 3 -14 20q0 23 11 58q5 14 16 14q4 0 18 -2
q16 -3 48 -3q49 0 68.5 24.5t19.5 93.5t-28 96.5t-109 27.5h-13q-21 0 -21 21v55q0 25 22 25h12q49 0 74.5 24t25.5 85q0 93 -89 93q-70 0 -92 -43q-12 -24 -12 -96v-470z" />
    <glyph glyph-name="agrave" unicode="&#xe0;" horiz-adv-x="541" 
d="M360 39q-49 -49 -141 -49q-173 0 -173 162q0 84 60 122q49 31 157 31q61 0 94 -5v30q0 32 -6 48q-14 35 -94 35q-62 0 -109 -10q-30 -5 -36 -5q-16 0 -19 17q-7 23 -7 54q0 20 19 25q67 20 168 20q123 0 161 -38q32 -32 32 -125v-321q0 -32 -28 -32h-46q-27 0 -30 20z
M357 220q-42 4 -80 4q-71 0 -102 -21q-23 -16 -23 -49q0 -37 21 -55.5t74 -18.5q57 0 90 21q11 5 16 16q4 7 4 27v76zM245 596l-117 124q-11 13 -11 21q0 16 21 16h73q18 0 34 -19l96 -122q8 -9 8 -20q0 -16 -20 -16h-46q-23 0 -38 16z" />
    <glyph glyph-name="aacute" unicode="&#xe1;" horiz-adv-x="541" 
d="M360 39q-49 -49 -141 -49q-173 0 -173 162q0 84 60 122q49 31 157 31q61 0 94 -5v30q0 32 -6 48q-14 35 -94 35q-62 0 -109 -10q-30 -5 -36 -5q-16 0 -19 17q-7 23 -7 54q0 20 19 25q67 20 168 20q123 0 161 -38q32 -32 32 -125v-321q0 -32 -28 -32h-46q-27 0 -30 20z
M357 220q-42 4 -80 4q-71 0 -102 -21q-23 -16 -23 -49q0 -37 21 -55.5t74 -18.5q57 0 90 21q11 5 16 16q4 7 4 27v76zM299 596q-15 -16 -35 -16h-49q-19 0 -19 16q0 10 7 20l97 122q14 19 34 19h72q21 0 21 -16q0 -11 -10 -21z" />
    <glyph glyph-name="acircumflex" unicode="&#xe2;" horiz-adv-x="541" 
d="M360 39q-49 -49 -141 -49q-173 0 -173 162q0 84 60 122q49 31 157 31q61 0 94 -5v30q0 32 -6 48q-14 35 -94 35q-62 0 -109 -10q-30 -5 -36 -5q-16 0 -19 17q-7 23 -7 54q0 20 19 25q67 20 168 20q123 0 161 -38q32 -32 32 -125v-321q0 -32 -28 -32h-46q-27 0 -30 20z
M357 220q-42 4 -80 4q-71 0 -102 -21q-23 -16 -23 -49q0 -37 21 -55.5t74 -18.5q57 0 90 21q11 5 16 16q4 7 4 27v76zM167 575h-43q-20 0 -20 17q0 10 9 20l88 122q18 23 35 23h63q17 0 33 -22l89 -124q8 -10 8 -19q0 -17 -20 -17h-44q-17 0 -32 17l-68 82l-66 -81
q-13 -18 -32 -18z" />
    <glyph glyph-name="atilde" unicode="&#xe3;" horiz-adv-x="541" 
d="M360 39q-49 -49 -141 -49q-173 0 -173 162q0 84 60 122q49 31 157 31q61 0 94 -5v30q0 32 -6 48q-14 35 -94 35q-62 0 -109 -10q-30 -5 -36 -5q-16 0 -19 17q-7 23 -7 54q0 20 19 25q67 20 168 20q123 0 161 -38q32 -32 32 -125v-321q0 -32 -28 -32h-46q-27 0 -30 20z
M357 220q-42 4 -80 4q-71 0 -102 -21q-23 -16 -23 -49q0 -37 21 -55.5t74 -18.5q57 0 90 21q11 5 16 16q4 7 4 27v76zM134 587h-31q-20 0 -20 20q0 6 6 24q32 97 95 97q25 0 76 -27q35 -19 56 -19q12 0 18.5 5.5t14.5 25.5t27 20h29q20 0 20 -19q0 -6 -9 -33
q-28 -91 -90 -91q-34 0 -82 26q-37 20 -49 20q-22 0 -35 -27q-9 -22 -26 -22z" />
    <glyph glyph-name="adieresis" unicode="&#xe4;" horiz-adv-x="541" 
d="M360 39q-49 -49 -141 -49q-173 0 -173 162q0 84 60 122q49 31 157 31q61 0 94 -5v30q0 32 -6 48q-14 35 -94 35q-62 0 -109 -10q-30 -5 -36 -5q-16 0 -19 17q-7 23 -7 54q0 20 19 25q67 20 168 20q123 0 161 -38q32 -32 32 -125v-321q0 -32 -28 -32h-46q-27 0 -30 20z
M357 220q-42 4 -80 4q-71 0 -102 -21q-23 -16 -23 -49q0 -37 21 -55.5t74 -18.5q57 0 90 21q11 5 16 16q4 7 4 27v76zM242 659q0 -61 -59 -61q-58 0 -58 60q0 62 58 62q59 0 59 -61zM422 659q0 -61 -59 -61q-58 0 -58 60q0 62 58 62q59 0 59 -61z" />
    <glyph glyph-name="aring" unicode="&#xe5;" horiz-adv-x="541" 
d="M360 39q-49 -49 -141 -49q-173 0 -173 162q0 84 60 122q49 31 157 31q61 0 94 -5v30q0 32 -6 48q-14 35 -94 35q-62 0 -109 -10q-30 -5 -36 -5q-16 0 -19 17q-7 23 -7 54q0 20 19 25q67 20 168 20q123 0 161 -38q32 -32 32 -125v-321q0 -32 -28 -32h-46q-27 0 -30 20z
M357 220q-42 4 -80 4q-71 0 -102 -21q-23 -16 -23 -49q0 -37 21 -55.5t74 -18.5q57 0 90 21q11 5 16 16q4 7 4 27v76zM367 670q0 -46 -27 -71t-72 -25q-44 0 -69.5 25t-25.5 71q0 47 26.5 73t71.5 26t70.5 -26t25.5 -73zM325 672q0 60 -56 60q-26 0 -41 -15.5t-15 -45.5
q0 -29 15 -44.5t42 -15.5q55 0 55 61z" />
    <glyph glyph-name="ae" unicode="&#xe6;" horiz-adv-x="834" 
d="M464 220q1 -81 33 -107.5t102 -26.5t132 20q13 5 25 5q13 0 18 -14q12 -45 12 -54q0 -17 -18 -24q-70 -32 -180 -32q-129 0 -180 64q-65 -61 -187 -61q-97 0 -136 43.5t-39 118.5q0 85 59 121q54 32 159 32q39 0 93 -2v26q0 32 -6 49q-14 35 -94 35q-55 0 -110 -10
q-6 0 -18.5 -2.5t-16.5 -2.5q-15 0 -18 17q-8 28 -8 53q0 21 19 26q67 20 167 20q66 0 105 -15t51 -55q21 33 65.5 51.5t94.5 18.5q67 0 109 -17.5t62.5 -55t27.5 -80t7 -108.5q0 -19 -10 -28q-6 -5 -22 -5h-298zM357 221q-22 2 -79 2q-79 0 -104 -19q-22 -17 -22 -49
q0 -37 21 -56t74 -19q37 0 73.5 9.5t52.5 26.5q-14 33 -16 105zM466 303h225q1 7 1 19q0 54 -22.5 79.5t-82.5 25.5q-66 0 -93 -29.5t-28 -94.5z" />
    <glyph glyph-name="ccedilla" unicode="&#xe7;" horiz-adv-x="460" 
d="M267 -54q30 -1 49.5 -8.5t28 -22.5t11.5 -29t3 -35q0 -98 -134 -98q-34 0 -50 4q-18 6 -18 22t4 31q5 17 21 17q6 0 20 -2q14 -3 30 -3q21 0 29.5 6t8.5 22q0 17 -7.5 24t-25.5 7q-3 0 -13 -0.5t-12 -0.5q-21 0 -21 19q0 5 5 35l11 57q-82 12 -121.5 70t-39.5 182
q0 142 53.5 206.5t183.5 64.5q80 0 120 -13q18 -7 18 -22q0 -30 -10 -60q-5 -15 -19 -15t-27 3q-32 7 -76 7q-78 0 -104 -39t-26 -124q0 -87 24 -126t93 -39q61 0 102 14q18 6 25 6q11 0 16 -14q12 -32 12 -54q0 -16 -17 -25q-60 -24 -140 -26z" />
    <glyph glyph-name="egrave" unicode="&#xe8;" horiz-adv-x="530" 
d="M158 214q1 -75 32 -101.5t99 -26.5q65 0 135 19q21 6 26 6q12 0 17 -14q13 -39 13 -54t-16 -23q-70 -33 -184 -33q-130 0 -182 61t-52 200q0 141 57.5 203.5t178.5 62.5q54 0 92.5 -13t60.5 -33.5t34.5 -56t16 -70.5t3.5 -87q0 -25 -10 -34q-7 -6 -23 -6h-298zM160 301
h221q1 6 1 20q0 56 -20.5 81t-82.5 25q-65 0 -91 -30t-28 -96zM253 596l-117 124q-11 13 -11 21q0 16 21 16h73q18 0 34 -19l96 -122q8 -9 8 -20q0 -16 -20 -16h-46q-23 0 -38 16z" />
    <glyph glyph-name="eacute" unicode="&#xe9;" horiz-adv-x="530" 
d="M158 214q1 -75 32 -101.5t99 -26.5q65 0 135 19q21 6 26 6q12 0 17 -14q13 -39 13 -54t-16 -23q-70 -33 -184 -33q-130 0 -182 61t-52 200q0 141 57.5 203.5t178.5 62.5q54 0 92.5 -13t60.5 -33.5t34.5 -56t16 -70.5t3.5 -87q0 -25 -10 -34q-7 -6 -23 -6h-298zM160 301
h221q1 6 1 20q0 56 -20.5 81t-82.5 25q-65 0 -91 -30t-28 -96zM292 596q-15 -16 -35 -16h-49q-19 0 -19 16q0 10 7 20l97 122q14 19 34 19h72q21 0 21 -16q0 -11 -10 -21z" />
    <glyph glyph-name="ecircumflex" unicode="&#xea;" horiz-adv-x="530" 
d="M158 214q1 -75 32 -101.5t99 -26.5q65 0 135 19q21 6 26 6q12 0 17 -14q13 -39 13 -54t-16 -23q-70 -33 -184 -33q-130 0 -182 61t-52 200q0 141 57.5 203.5t178.5 62.5q54 0 92.5 -13t60.5 -33.5t34.5 -56t16 -70.5t3.5 -87q0 -25 -10 -34q-7 -6 -23 -6h-298zM160 301
h221q1 6 1 20q0 56 -20.5 81t-82.5 25q-65 0 -91 -30t-28 -96zM181 575h-43q-20 0 -20 17q0 10 9 20l88 122q18 23 35 23h63q17 0 33 -22l89 -124q8 -10 8 -19q0 -17 -20 -17h-44q-17 0 -32 17l-68 82l-66 -81q-13 -18 -32 -18z" />
    <glyph glyph-name="edieresis" unicode="&#xeb;" horiz-adv-x="530" 
d="M158 214q1 -75 32 -101.5t99 -26.5q65 0 135 19q21 6 26 6q12 0 17 -14q13 -39 13 -54t-16 -23q-70 -33 -184 -33q-130 0 -182 61t-52 200q0 141 57.5 203.5t178.5 62.5q54 0 92.5 -13t60.5 -33.5t34.5 -56t16 -70.5t3.5 -87q0 -25 -10 -34q-7 -6 -23 -6h-298zM160 301
h221q1 6 1 20q0 56 -20.5 81t-82.5 25q-65 0 -91 -30t-28 -96zM237 659q0 -61 -59 -61q-58 0 -58 60q0 62 58 62q59 0 59 -61zM417 659q0 -61 -59 -61q-58 0 -58 60q0 62 58 62q59 0 59 -61z" />
    <glyph glyph-name="igrave" unicode="&#xec;" horiz-adv-x="269" 
d="M109 596l-117 124q-11 13 -11 21q0 16 21 16h73q18 0 34 -19l96 -122q8 -9 8 -20q0 -16 -20 -16h-46q-23 0 -38 16zM190 24q0 -26 -23 -26h-65q-23 0 -23 26v452q0 26 23 26h66q22 0 22 -25v-453z" />
    <glyph glyph-name="iacute" unicode="&#xed;" horiz-adv-x="269" 
d="M146 596q-15 -16 -35 -16h-49q-19 0 -19 16q0 10 7 20l97 122q14 19 34 19h72q21 0 21 -16q0 -11 -10 -21zM190 24q0 -26 -23 -26h-65q-23 0 -23 26v452q0 26 23 26h66q22 0 22 -25v-453z" />
    <glyph glyph-name="icircumflex" unicode="&#xee;" horiz-adv-x="269" 
d="M190 24q0 -26 -23 -26h-65q-23 0 -23 26v452q0 26 23 26h66q22 0 22 -25v-453zM35 575h-43q-20 0 -20 17q0 10 9 20l88 122q18 23 35 23h63q16 0 33 -22l89 -124q8 -10 8 -19q0 -17 -20 -17h-44q-17 0 -32 17l-68 82l-66 -81q-13 -18 -32 -18z" />
    <glyph glyph-name="idieresis" unicode="&#xef;" horiz-adv-x="269" 
d="M103 659q0 -61 -59 -61q-58 0 -58 60q0 62 58 62q59 0 59 -61zM283 659q0 -61 -59 -61q-58 0 -58 60q0 62 58 62q59 0 59 -61zM190 24q0 -26 -23 -26h-65q-23 0 -23 26v452q0 26 23 26h66q22 0 22 -25v-453z" />
    <glyph glyph-name="eth" unicode="&#xf0;" horiz-adv-x="562" 
d="M482 686l-52 -35q50 -58 67.5 -153t17.5 -242q0 -154 -56 -211.5t-181 -57.5q-122 0 -177 56t-55 209q0 76 17 127.5t50.5 78t72 37t91.5 10.5q97 0 123 -44q-13 83 -59 132l-66 -43q-13 -9 -21 -9q-10 0 -19 14q-16 26 -16 33q0 9 13 18l47 31q-47 20 -109 24
q-20 2 -20 18q0 17 7 50q3 18 23 18q18 0 29 -1q101 -9 164 -47l67 44q11 8 19 8t15 -10q20 -25 20 -37q0 -6 -12 -18zM404 248q0 98 -25.5 129t-95.5 31q-66 0 -95.5 -32.5t-29.5 -123.5q0 -104 26.5 -135.5t95.5 -31.5q34 0 54.5 5t38 21.5t24.5 49.5t7 87z" />
    <glyph glyph-name="ntilde" unicode="&#xf1;" horiz-adv-x="587" 
d="M190 24q0 -26 -23 -26h-65q-23 0 -23 26v450q0 29 27 29h57q13 0 18 -5t7 -18l2 -16q23 23 71 35.5t97 12.5q68 0 100 -15t44 -47q10 -25 10 -98v-328q0 -26 -23 -26h-65q-22 0 -22 26v300q0 38 -6 55q-10 32 -75 32q-64 0 -105 -17q-14 -7 -20 -14q-6 -8 -6 -27v-329z
M177 587h-31q-20 0 -20 20q0 6 6 24q32 97 95 97q25 0 76 -27q35 -19 56 -19q12 0 18.5 5.5t14.5 25.5t27 20h29q20 0 20 -19q0 -6 -9 -33q-28 -91 -90 -91q-34 0 -82 26q-37 20 -49 20q-22 0 -35 -27q-9 -22 -26 -22z" />
    <glyph glyph-name="ograve" unicode="&#xf2;" horiz-adv-x="561" 
d="M515 255q0 -154 -56 -211t-181 -57q-122 0 -177 56t-55 209q0 79 17.5 132.5t51.5 81t74 38t95 10.5q63 0 101.5 -9t70.5 -36t45.5 -79t13.5 -135zM404 250q0 101 -24.5 132.5t-97.5 31.5q-66 0 -95 -33t-29 -128q0 -102 27 -134.5t95 -32.5t96 31t28 133zM246 596
l-117 124q-11 13 -11 21q0 16 21 16h73q18 0 34 -19l96 -122q8 -9 8 -20q0 -16 -20 -16h-46q-23 0 -38 16z" />
    <glyph glyph-name="oacute" unicode="&#xf3;" horiz-adv-x="561" 
d="M515 255q0 -154 -56 -211t-181 -57q-122 0 -177 56t-55 209q0 79 17.5 132.5t51.5 81t74 38t95 10.5q63 0 101.5 -9t70.5 -36t45.5 -79t13.5 -135zM404 250q0 101 -24.5 132.5t-97.5 31.5q-66 0 -95 -33t-29 -128q0 -102 27 -134.5t95 -32.5t96 31t28 133zM298 596
q-15 -16 -35 -16h-49q-19 0 -19 16q0 10 7 20l97 122q14 19 34 19h72q21 0 21 -16q0 -11 -10 -21z" />
    <glyph glyph-name="ocircumflex" unicode="&#xf4;" horiz-adv-x="561" 
d="M515 255q0 -154 -56 -211t-181 -57q-122 0 -177 56t-55 209q0 79 17.5 132.5t51.5 81t74 38t95 10.5q63 0 101.5 -9t70.5 -36t45.5 -79t13.5 -135zM404 250q0 101 -24.5 132.5t-97.5 31.5q-66 0 -95 -33t-29 -128q0 -102 27 -134.5t95 -32.5t96 31t28 133zM183 575h-43
q-20 0 -20 17q0 10 9 20l88 122q18 23 35 23h63q17 0 33 -22l89 -124q8 -10 8 -19q0 -17 -20 -17h-44q-17 0 -32 17l-68 82l-66 -81q-13 -18 -32 -18z" />
    <glyph glyph-name="otilde" unicode="&#xf5;" horiz-adv-x="561" 
d="M515 255q0 -154 -56 -211t-181 -57q-122 0 -177 56t-55 209q0 79 17.5 132.5t51.5 81t74 38t95 10.5q63 0 101.5 -9t70.5 -36t45.5 -79t13.5 -135zM404 250q0 101 -24.5 132.5t-97.5 31.5q-66 0 -95 -33t-29 -128q0 -102 27 -134.5t95 -32.5t96 31t28 133zM161 587h-31
q-20 0 -20 20q0 6 6 24q32 97 95 97q25 0 76 -27q35 -19 56 -19q12 0 18.5 5.5t14.5 25.5t27 20h29q20 0 20 -19q0 -6 -9 -33q-28 -91 -90 -91q-34 0 -82 26q-37 20 -49 20q-22 0 -35 -27q-9 -22 -26 -22z" />
    <glyph glyph-name="odieresis" unicode="&#xf6;" horiz-adv-x="561" 
d="M515 255q0 -154 -56 -211t-181 -57q-122 0 -177 56t-55 209q0 79 17.5 132.5t51.5 81t74 38t95 10.5q63 0 101.5 -9t70.5 -36t45.5 -79t13.5 -135zM404 250q0 101 -24.5 132.5t-97.5 31.5q-66 0 -95 -33t-29 -128q0 -102 27 -134.5t95 -32.5t96 31t28 133zM250 659
q0 -61 -59 -61q-58 0 -58 60q0 62 58 62q59 0 59 -61zM430 659q0 -61 -59 -61q-58 0 -58 60q0 62 58 62q59 0 59 -61z" />
    <glyph glyph-name="divide" unicode="&#xf7;" horiz-adv-x="701" 
d="M402 466q0 -56 -52 -56q-51 0 -51 56q0 28 15 41.5t38 13.5q50 0 50 -55zM610 283q0 -28 -22 -28h-475q-23 0 -23 28v26q0 27 23 27h475q22 0 22 -27v-26zM402 121q0 -57 -52 -57q-51 0 -51 57q0 28 15 41.5t38 13.5q50 0 50 -55z" />
    <glyph glyph-name="oslash" unicode="&#xf8;" horiz-adv-x="561" 
d="M102 -30q-5 -9 -12 -9q-8 0 -27 15q-7 6 -7 11q0 7 6 15l34 47q-50 61 -50 203q0 79 17.5 132.5t51.5 81t74 38t95 10.5q89 0 136 -21l38 52q5 8 13 8q7 0 12 -4q20 -13 20 -21q0 -6 -4 -13l-38 -51q54 -57 54 -209q0 -154 -56 -211t-181 -57q-92 0 -143 29zM407 250
q0 84 -15 119l-196 -270q27 -20 84 -20q35 0 56.5 6t38.5 23.5t24.5 52t7.5 89.5zM155 253q0 -69 12 -108l191 263q-23 13 -76 13q-69 0 -98 -34.5t-29 -133.5z" />
    <glyph glyph-name="ugrave" unicode="&#xf9;" horiz-adv-x="587" 
d="M398 35q-47 -46 -165 -46q-68 0 -102 15.5t-46 47.5q-10 28 -10 99v325q0 26 23 26h65q23 0 23 -26v-297q0 -37 6 -55q12 -35 79 -35q64 0 100 16q15 5 21 13q5 6 5 28v330q0 26 24 26h64q23 0 23 -26v-449q0 -29 -26 -29h-57q-14 0 -19 5t-7 17zM246 598l-117 124
q-11 13 -11 21q0 16 21 16h73q18 0 34 -19l96 -122q8 -9 8 -20q0 -16 -20 -16h-46q-23 0 -38 16z" />
    <glyph glyph-name="uacute" unicode="&#xfa;" horiz-adv-x="587" 
d="M398 35q-47 -46 -165 -46q-68 0 -102 15.5t-46 47.5q-10 28 -10 99v325q0 26 23 26h65q23 0 23 -26v-297q0 -37 6 -55q12 -35 79 -35q64 0 100 16q15 5 21 13q5 6 5 28v330q0 26 24 26h64q23 0 23 -26v-449q0 -29 -26 -29h-57q-14 0 -19 5t-7 17zM315 596
q-15 -16 -35 -16h-49q-19 0 -19 16q0 10 7 20l97 122q14 19 34 19h72q21 0 21 -16q0 -11 -10 -21z" />
    <glyph glyph-name="ucircumflex" unicode="&#xfb;" horiz-adv-x="587" 
d="M398 35q-47 -46 -165 -46q-68 0 -102 15.5t-46 47.5q-10 28 -10 99v325q0 26 23 26h65q23 0 23 -26v-297q0 -37 6 -55q12 -35 79 -35q64 0 100 16q15 5 21 13q5 6 5 28v330q0 26 24 26h64q23 0 23 -26v-449q0 -29 -26 -29h-57q-14 0 -19 5t-7 17zM198 575h-43
q-20 0 -20 17q0 10 9 20l88 122q18 23 35 23h63q16 0 33 -22l89 -124q8 -10 8 -19q0 -17 -20 -17h-44q-17 0 -32 17l-68 82l-66 -81q-13 -18 -32 -18z" />
    <glyph glyph-name="udieresis" unicode="&#xfc;" horiz-adv-x="587" 
d="M398 35q-47 -46 -165 -46q-68 0 -102 15.5t-46 47.5q-10 28 -10 99v325q0 26 23 26h65q23 0 23 -26v-297q0 -37 6 -55q12 -35 79 -35q64 0 100 16q15 5 21 13q5 6 5 28v330q0 26 24 26h64q23 0 23 -26v-449q0 -29 -26 -29h-57q-14 0 -19 5t-7 17zM264 659q0 -61 -59 -61
q-58 0 -58 60q0 62 58 62q59 0 59 -61zM444 659q0 -61 -59 -61q-58 0 -58 60q0 62 58 62q59 0 59 -61z" />
    <glyph glyph-name="yacute" unicode="&#xfd;" horiz-adv-x="491" 
d="M190 10l-177 449q-6 15 -6 26q0 17 21 17h73q19 0 29 -27q81 -211 119 -321q35 108 119 320q10 28 28 28h68q22 0 22 -17q0 -11 -6 -26l-204 -520q-18 -44 -32 -75q-25 -53 -54 -78q-40 -36 -115 -36q-60 0 -75 6q-16 6 -16 23q0 38 10 61q5 12 19 12q2 0 18.5 -2
t30.5 -2q35 0 49 11q19 14 39 56q17 35 29 68zM271 596q-15 -16 -35 -16h-49q-19 0 -19 16q0 10 7 20l97 122q14 19 34 19h72q21 0 21 -16q0 -11 -10 -21z" />
    <glyph glyph-name="thorn" unicode="&#xfe;" horiz-adv-x="579" 
d="M190 -217q0 -27 -27 -27h-60q-13 0 -18.5 5.5t-5.5 21.5v937q0 16 5.5 22t21.5 6h57q17 0 22 -5.5t5 -21.5v-255q46 45 155 45q95 0 141.5 -56.5t46.5 -197.5q0 -80 -14.5 -132t-46 -82t-74.5 -41.5t-108 -11.5q-68 0 -100 14v-221zM190 97q33 -13 89 -13
q85 0 113.5 36.5t28.5 136.5q0 86 -23 120t-89 34q-59 0 -102 -19q-12 -6 -14 -12q-3 -8 -3 -20v-263z" />
    <glyph glyph-name="ydieresis" unicode="&#xff;" horiz-adv-x="491" 
d="M190 10l-177 449q-6 15 -6 26q0 17 21 17h73q19 0 29 -27q81 -211 119 -321q35 108 119 320q10 28 28 28h68q22 0 22 -17q0 -11 -6 -26l-204 -520q-18 -44 -32 -75q-25 -53 -54 -78q-40 -36 -115 -36q-60 0 -75 6q-16 6 -16 23q0 38 10 61q5 12 19 12q2 0 18.5 -2
t30.5 -2q35 0 49 11q19 14 39 56q17 35 29 68zM218 659q0 -61 -59 -61q-58 0 -58 60q0 62 58 62q59 0 59 -61zM398 659q0 -61 -59 -61q-58 0 -58 60q0 62 58 62q59 0 59 -61z" />
    <glyph glyph-name="Amacron" unicode="&#x100;" horiz-adv-x="631" 
d="M194 199l-62 -170q-11 -31 -32 -31h-67q-25 0 -25 19q0 9 7 28l233 638q9 25 33 25h69q24 0 33 -25l233 -638q7 -17 7 -28q0 -19 -24 -19h-67q-23 0 -34 32l-60 169h-244zM225 300h182q-71 199 -91 261zM441 783h-254q-24 0 -24 23v41q0 23 24 23h253q24 0 24 -23v-43
q0 -21 -23 -21z" />
    <glyph glyph-name="amacron" unicode="&#x101;" horiz-adv-x="541" 
d="M360 39q-49 -49 -141 -49q-173 0 -173 162q0 84 60 122q49 31 157 31q61 0 94 -5v30q0 32 -6 48q-14 35 -94 35q-62 0 -109 -10q-30 -5 -36 -5q-16 0 -19 17q-7 23 -7 54q0 20 19 25q67 20 168 20q123 0 161 -38q32 -32 32 -125v-321q0 -32 -28 -32h-46q-27 0 -30 20z
M357 220q-42 4 -80 4q-71 0 -102 -21q-23 -16 -23 -49q0 -37 21 -55.5t74 -18.5q57 0 90 21q11 5 16 16q4 7 4 27v76zM392 602h-237q-24 0 -24 22v45q0 22 24 22h236q24 0 24 -22v-46q0 -21 -23 -21z" />
    <glyph glyph-name="Abreve" unicode="&#x102;" horiz-adv-x="631" 
d="M194 199l-62 -170q-11 -31 -32 -31h-67q-25 0 -25 19q0 9 7 28l233 638q9 25 33 25h69q24 0 33 -25l233 -638q7 -17 7 -28q0 -19 -24 -19h-67q-23 0 -34 32l-60 169h-244zM225 300h182q-71 199 -91 261zM457 912q20 0 20 -19t-6 -42q-30 -96 -157 -96q-70 0 -108.5 27.5
t-47.5 71.5q-4 18 -4 35q0 23 23 23h33q22 0 26 -19q5 -28 21.5 -41t57.5 -13q44 0 59 12t23 42q5 19 25 19h35z" />
    <glyph glyph-name="abreve" unicode="&#x103;" horiz-adv-x="541" 
d="M360 39q-49 -49 -141 -49q-173 0 -173 162q0 84 60 122q49 31 157 31q61 0 94 -5v30q0 32 -6 48q-14 35 -94 35q-62 0 -109 -10q-30 -5 -36 -5q-16 0 -19 17q-7 23 -7 54q0 20 19 25q67 20 168 20q123 0 161 -38q32 -32 32 -125v-321q0 -32 -28 -32h-46q-27 0 -30 20z
M357 220q-42 4 -80 4q-71 0 -102 -21q-23 -16 -23 -49q0 -37 21 -55.5t74 -18.5q57 0 90 21q11 5 16 16q4 7 4 27v76zM405 734q18 0 18 -20q0 -24 -5 -42q-26 -101 -149 -101q-65 0 -101.5 28.5t-45.5 74.5q-3 15 -3 37q0 23 21 23h32q22 0 25 -20q5 -32 20 -47.5t53 -15.5
q41 0 56 14.5t21 47.5q4 21 24 21h34z" />
    <glyph glyph-name="Aogonek" unicode="&#x104;" horiz-adv-x="631" 
d="M194 199l-62 -170q-11 -31 -32 -31h-67q-25 0 -25 19q0 9 7 28l233 638q9 25 33 25h69q24 0 33 -25l233 -638q7 -17 7 -28q0 -19 -24 -19h-16q-52 -37 -72 -62.5t-20 -63.5q0 -25 11 -35t38 -10q10 0 26.5 3t19.5 3q13 0 18 -17q5 -16 5 -35q0 -17 -20 -22q-25 -8 -65 -8
q-124 0 -124 107q0 55 28.5 86.5t84.5 59.5q-9 8 -15 26l-60 169h-244zM225 300h182q-71 199 -91 261z" />
    <glyph glyph-name="aogonek" unicode="&#x105;" horiz-adv-x="541" 
d="M360 39q-49 -49 -141 -49q-173 0 -173 162q0 84 60 122q49 31 157 31q61 0 94 -5v30q0 32 -6 48q-14 35 -94 35q-62 0 -109 -10q-30 -5 -36 -5q-16 0 -19 17q-7 23 -7 54q0 20 19 25q67 20 168 20q123 0 161 -38q32 -32 32 -125v-321q0 -30 -26 -32q-50 -35 -70 -59
t-20 -59q0 -44 44 -44q10 0 26.5 2t18.5 2q14 0 18 -16t4 -33q0 -14 -19 -21q-25 -7 -64 -7q-116 0 -116 102q0 53 26.5 83t79.5 56q-4 3 -6 14zM357 220q-42 4 -80 4q-71 0 -102 -21q-23 -16 -23 -49q0 -37 21 -55.5t74 -18.5q57 0 90 21q11 5 16 16q4 7 4 27v76z" />
    <glyph glyph-name="Cacute" unicode="&#x106;" horiz-adv-x="596" 
d="M171 357q0 -139 36.5 -203.5t142.5 -64.5q84 0 151 23q21 6 30 6q11 0 17 -14q14 -36 14 -57q0 -16 -22 -25q-87 -35 -215 -35q-138 0 -205 79t-67 276q0 202 67 289.5t237 87.5q100 0 165 -15q25 -6 25 -26q0 -29 -13 -64q-5 -13 -18 -13q-4 0 -32 6q-58 10 -125 10
q-110 0 -149 -62t-39 -198zM369 772q-17 -12 -38 -12h-54q-19 0 -19 14q0 11 12 22l124 101q19 16 40 16h80q21 0 21 -14t-14 -23z" />
    <glyph glyph-name="cacute" unicode="&#x107;" horiz-adv-x="460" 
d="M159 251q0 -87 24 -126t93 -39q61 0 102 14q18 6 25 6q11 0 16 -14q12 -32 12 -54q0 -16 -17 -25q-62 -26 -151 -26q-112 0 -164.5 57t-52.5 199t53.5 206.5t183.5 64.5q80 0 120 -13q18 -7 18 -22q0 -30 -10 -60q-5 -15 -19 -15t-27 3q-32 7 -76 7q-78 0 -104 -39
t-26 -124zM300 596q-15 -16 -35 -16h-49q-19 0 -19 16q0 10 7 20l97 122q14 19 34 19h72q21 0 21 -16q0 -11 -10 -21z" />
    <glyph glyph-name="Ccircumflex" unicode="&#x108;" horiz-adv-x="596" 
d="M171 357q0 -139 36.5 -203.5t142.5 -64.5q84 0 151 23q21 6 30 6q11 0 17 -14q14 -36 14 -57q0 -16 -22 -25q-87 -35 -215 -35q-138 0 -205 79t-67 276q0 202 67 289.5t237 87.5q100 0 165 -15q25 -6 25 -26q0 -29 -13 -64q-5 -13 -18 -13q-4 0 -32 6q-58 10 -125 10
q-110 0 -149 -62t-39 -198zM230 760h-44q-22 0 -22 17q0 11 8 19l102 101q25 23 42 23h56q20 0 38 -20l104 -105q7 -7 7 -18q0 -17 -23 -17h-45q-18 0 -38 17l-74 61l-73 -61q-20 -17 -38 -17z" />
    <glyph glyph-name="ccircumflex" unicode="&#x109;" horiz-adv-x="460" 
d="M159 251q0 -87 24 -126t93 -39q61 0 102 14q18 6 25 6q11 0 16 -14q12 -32 12 -54q0 -16 -17 -25q-62 -26 -151 -26q-112 0 -164.5 57t-52.5 199t53.5 206.5t183.5 64.5q80 0 120 -13q18 -7 18 -22q0 -30 -10 -60q-5 -15 -19 -15t-27 3q-32 7 -76 7q-78 0 -104 -39
t-26 -124zM169 575h-43q-20 0 -20 17q0 10 9 20l88 122q18 23 35 23h63q17 0 33 -22l89 -124q8 -10 8 -19q0 -17 -20 -17h-44q-17 0 -32 17l-68 82l-66 -81q-13 -18 -32 -18z" />
    <glyph glyph-name="Cdotaccent" unicode="&#x10a;" horiz-adv-x="596" 
d="M171 357q0 -139 36.5 -203.5t142.5 -64.5q84 0 151 23q21 6 30 6q11 0 17 -14q14 -36 14 -57q0 -16 -22 -25q-87 -35 -215 -35q-138 0 -205 79t-67 276q0 202 67 289.5t237 87.5q100 0 165 -15q25 -6 25 -26q0 -29 -13 -64q-5 -13 -18 -13q-4 0 -32 6q-58 10 -125 10
q-110 0 -149 -62t-39 -198zM402 827q0 -61 -59 -61q-57 0 -57 60q0 62 57 62q59 0 59 -61z" />
    <glyph glyph-name="cdotaccent" unicode="&#x10b;" horiz-adv-x="460" 
d="M159 251q0 -87 24 -126t93 -39q61 0 102 14q18 6 25 6q11 0 16 -14q12 -32 12 -54q0 -16 -17 -25q-62 -26 -151 -26q-112 0 -164.5 57t-52.5 199t53.5 206.5t183.5 64.5q80 0 120 -13q18 -7 18 -22q0 -30 -10 -60q-5 -15 -19 -15t-27 3q-32 7 -76 7q-78 0 -104 -39
t-26 -124zM320 659q0 -61 -59 -61q-57 0 -57 60q0 62 57 62q59 0 59 -61z" />
    <glyph glyph-name="Ccaron" unicode="&#x10c;" horiz-adv-x="596" 
d="M171 357q0 -139 36.5 -203.5t142.5 -64.5q84 0 151 23q21 6 30 6q11 0 17 -14q14 -36 14 -57q0 -16 -22 -25q-87 -35 -215 -35q-138 0 -205 79t-67 276q0 202 67 289.5t237 87.5q100 0 165 -15q25 -6 25 -26q0 -29 -13 -64q-5 -13 -18 -13q-4 0 -32 6q-58 10 -125 10
q-110 0 -149 -62t-39 -198zM448 920h44q22 0 22 -17q0 -11 -8 -19l-102 -101q-23 -23 -42 -23h-56q-20 0 -38 20l-104 104q-7 8 -7 19q0 17 24 17h44q17 0 39 -17l73 -61l73 61q20 17 38 17z" />
    <glyph glyph-name="ccaron" unicode="&#x10d;" horiz-adv-x="460" 
d="M159 251q0 -87 24 -126t93 -39q61 0 102 14q18 6 25 6q11 0 16 -14q12 -32 12 -54q0 -16 -17 -25q-62 -26 -151 -26q-112 0 -164.5 57t-52.5 199t53.5 206.5t183.5 64.5q80 0 120 -13q18 -7 18 -22q0 -30 -10 -60q-5 -15 -19 -15t-27 3q-32 7 -76 7q-78 0 -104 -39
t-26 -124zM362 760h42q21 0 21 -17q0 -6 -9 -19l-89 -122q-18 -24 -34 -24h-63q-18 0 -33 22l-89 125q-8 10 -8 18q0 17 20 17h44q18 0 32 -17l68 -82l65 81q15 18 33 18z" />
    <glyph glyph-name="Dcaron" unicode="&#x10e;" horiz-adv-x="697" 
d="M206 105h83q93 0 134 20q58 27 80.5 83.5t22.5 152.5q0 91 -21.5 143t-76.5 77q-44 20 -140 20h-82v-496zM271 0h-157q-23 0 -23 27v652q0 27 23 27h168q122 0 186 -19q177 -51 177 -326q0 -135 -40.5 -217.5t-139.5 -119.5q-66 -24 -194 -24zM433 920h44q22 0 22 -17
q0 -11 -8 -19l-102 -101q-23 -23 -42 -23h-56q-20 0 -38 20l-104 104q-7 8 -7 19q0 17 24 17h44q17 0 39 -17l73 -61l73 61q20 17 38 17z" />
    <glyph glyph-name="dcaron" unicode="&#x10f;" horiz-adv-x="579" 
d="M500 28q0 -17 -6.5 -23.5t-21.5 -6.5h-48q-16 0 -21.5 3t-6.5 14l-3 21q-44 -48 -155 -48q-95 0 -143.5 59t-48.5 193q0 156 58 215t189 59q66 0 96 -13v220q0 27 28 27h59q13 0 18.5 -5.5t5.5 -21.5v-693zM389 144v256q-26 13 -89 13q-84 0 -113 -36t-29 -134
q0 -85 26 -120t90 -35q68 0 99 21q10 8 14 15q2 5 2 20zM651 744q26 0 26 -29q0 -44 -15 -93t-47 -86q-14 -16 -28 -16q-16 0 -34 11q-13 8 -13 19q0 10 7 24q31 54 31 134q0 36 30 36h43z" />
    <glyph glyph-name="Dcroat" unicode="&#x110;" horiz-adv-x="697" 
d="M271 0h-157q-23 0 -23 27v294h-50q-24 0 -24 22v45q0 22 25 22h49v269q0 27 23 27h168q122 0 186 -19q177 -51 177 -326q0 -135 -40.5 -217.5t-139.5 -119.5q-66 -24 -194 -24zM206 105h83q93 0 134 20q58 27 80.5 83.5t22.5 152.5q0 91 -21.5 143t-76.5 77
q-44 20 -140 20h-82v-191h149q24 0 24 -22v-47q0 -12 -5.5 -16t-17.5 -4h-150v-216z" />
    <glyph glyph-name="dcroat" unicode="&#x111;" horiz-adv-x="579" 
d="M500 28q0 -17 -6.5 -23.5t-21.5 -6.5h-48q-16 0 -21.5 3t-6.5 14l-3 21q-44 -48 -155 -48q-95 0 -143.5 59t-48.5 193q0 156 58 215t189 59q66 0 96 -13v77h-99q-23 0 -23 22v35q0 24 24 24h98v62q0 27 28 27h59q13 0 18.5 -5.5t5.5 -21.5v-62h42q25 0 25 -24v-37
q0 -20 -24 -20h-43v-550zM389 144v256q-26 13 -89 13q-84 0 -113 -36t-29 -134q0 -85 26 -120t90 -35q68 0 99 21q10 8 14 15q2 5 2 20z" />
    <glyph glyph-name="Emacron" unicode="&#x112;" horiz-adv-x="562" 
d="M505 0h-389q-25 0 -25 26v652q0 28 23 28h375q25 0 25 -24v-59q0 -22 -25 -22h-283v-182h256q26 0 26 -25v-58q0 -22 -26 -22h-256v-209h299q26 0 26 -24v-59q0 -22 -26 -22zM435 783h-254q-24 0 -24 23v41q0 23 24 23h253q24 0 24 -23v-43q0 -21 -23 -21z" />
    <glyph glyph-name="emacron" unicode="&#x113;" horiz-adv-x="530" 
d="M158 214q1 -75 32 -101.5t99 -26.5q65 0 135 19q21 6 26 6q12 0 17 -14q13 -39 13 -54t-16 -23q-70 -33 -184 -33q-130 0 -182 61t-52 200q0 141 57.5 203.5t178.5 62.5q54 0 92.5 -13t60.5 -33.5t34.5 -56t16 -70.5t3.5 -87q0 -25 -10 -34q-7 -6 -23 -6h-298zM160 301
h221q1 6 1 20q0 56 -20.5 81t-82.5 25q-65 0 -91 -30t-28 -96zM391 602h-237q-24 0 -24 22v45q0 22 24 22h236q24 0 24 -22v-46q0 -21 -23 -21z" />
    <glyph glyph-name="Ebreve" unicode="&#x114;" horiz-adv-x="562" 
d="M505 0h-389q-25 0 -25 26v652q0 28 23 28h375q25 0 25 -24v-59q0 -22 -25 -22h-283v-182h256q26 0 26 -25v-58q0 -22 -26 -22h-256v-209h299q26 0 26 -24v-59q0 -22 -26 -22zM442 912q20 0 20 -19t-6 -42q-30 -96 -157 -96q-70 0 -108.5 27.5t-47.5 71.5q-4 18 -4 35
q0 23 23 23h33q22 0 26 -19q5 -28 21.5 -41t57.5 -13q44 0 59 12t23 42q5 19 25 19h35z" />
    <glyph glyph-name="ebreve" unicode="&#x115;" horiz-adv-x="530" 
d="M158 214q1 -75 32 -101.5t99 -26.5q65 0 135 19q21 6 26 6q12 0 17 -14q13 -39 13 -54t-16 -23q-70 -33 -184 -33q-130 0 -182 61t-52 200q0 141 57.5 203.5t178.5 62.5q54 0 92.5 -13t60.5 -33.5t34.5 -56t16 -70.5t3.5 -87q0 -25 -10 -34q-7 -6 -23 -6h-298zM160 301
h221q1 6 1 20q0 56 -20.5 81t-82.5 25q-65 0 -91 -30t-28 -96zM406 734q18 0 18 -20q0 -24 -5 -42q-26 -101 -149 -101q-65 0 -101.5 28.5t-45.5 74.5q-3 15 -3 37q0 23 21 23h32q22 0 25 -20q5 -32 20 -47.5t53 -15.5q41 0 56 14.5t21 47.5q4 21 24 21h34z" />
    <glyph glyph-name="Edotaccent" unicode="&#x116;" horiz-adv-x="562" 
d="M505 0h-389q-25 0 -25 26v652q0 28 23 28h375q25 0 25 -24v-59q0 -22 -25 -22h-283v-182h256q26 0 26 -25v-58q0 -22 -26 -22h-256v-209h299q26 0 26 -24v-59q0 -22 -26 -22zM364 827q0 -61 -59 -61q-57 0 -57 60q0 62 57 62q59 0 59 -61z" />
    <glyph glyph-name="edotaccent" unicode="&#x117;" horiz-adv-x="530" 
d="M158 214q1 -75 32 -101.5t99 -26.5q65 0 135 19q21 6 26 6q12 0 17 -14q13 -39 13 -54t-16 -23q-70 -33 -184 -33q-130 0 -182 61t-52 200q0 141 57.5 203.5t178.5 62.5q54 0 92.5 -13t60.5 -33.5t34.5 -56t16 -70.5t3.5 -87q0 -25 -10 -34q-7 -6 -23 -6h-298zM160 301
h221q1 6 1 20q0 56 -20.5 81t-82.5 25q-65 0 -91 -30t-28 -96zM331 659q0 -61 -59 -61q-57 0 -57 60q0 62 57 62q59 0 59 -61z" />
    <glyph glyph-name="Eogonek" unicode="&#x118;" horiz-adv-x="562" 
d="M505 0h-14q-54 -39 -74.5 -64t-20.5 -64q0 -25 11 -35t38 -10q10 0 26.5 3t19.5 3q13 0 18 -17q5 -16 5 -35q0 -17 -20 -22q-25 -8 -65 -8q-124 0 -124 107q0 53 27 84t78 58h-294q-25 0 -25 26v652q0 28 23 28h375q25 0 25 -24v-59q0 -22 -25 -22h-283v-182h256
q26 0 26 -25v-58q0 -22 -26 -22h-256v-209h299q26 0 26 -24v-59q0 -22 -26 -22z" />
    <glyph glyph-name="eogonek" unicode="&#x119;" horiz-adv-x="530" 
d="M158 214q1 -75 32 -101.5t99 -26.5q65 0 135 19q21 6 26 6q12 0 17 -14q13 -39 13 -54t-16 -23q-29 -13 -72 -21q-51 -36 -70.5 -59.5t-19.5 -59.5q0 -44 44 -44q10 0 26.5 2t18.5 2q14 0 18 -16t4 -33q0 -14 -19 -21q-25 -7 -64 -7q-116 0 -116 102q0 77 74 122h-8
q-130 0 -182 61t-52 200q0 141 57.5 203.5t178.5 62.5q54 0 92.5 -13t60.5 -33.5t34.5 -56t16 -70.5t3.5 -87q0 -25 -10 -34q-7 -6 -23 -6h-298zM160 301h221q1 6 1 20q0 56 -20.5 81t-82.5 25q-65 0 -91 -30t-28 -96z" />
    <glyph glyph-name="Ecaron" unicode="&#x11a;" horiz-adv-x="562" 
d="M505 0h-389q-25 0 -25 26v652q0 28 23 28h375q25 0 25 -24v-59q0 -22 -25 -22h-283v-182h256q26 0 26 -25v-58q0 -22 -26 -22h-256v-209h299q26 0 26 -24v-59q0 -22 -26 -22zM413 920h44q22 0 22 -17q0 -11 -8 -19l-102 -101q-23 -23 -42 -23h-56q-20 0 -38 20l-104 104
q-7 8 -7 19q0 17 24 17h44q17 0 39 -17l73 -61l73 61q20 17 38 17z" />
    <glyph glyph-name="ecaron" unicode="&#x11b;" horiz-adv-x="530" 
d="M158 214q1 -75 32 -101.5t99 -26.5q65 0 135 19q21 6 26 6q12 0 17 -14q13 -39 13 -54t-16 -23q-70 -33 -184 -33q-130 0 -182 61t-52 200q0 141 57.5 203.5t178.5 62.5q54 0 92.5 -13t60.5 -33.5t34.5 -56t16 -70.5t3.5 -87q0 -25 -10 -34q-7 -6 -23 -6h-298zM160 301
h221q1 6 1 20q0 56 -20.5 81t-82.5 25q-65 0 -91 -30t-28 -96zM373 760h42q21 0 21 -17q0 -6 -9 -19l-89 -122q-18 -24 -34 -24h-63q-18 0 -33 22l-89 125q-8 10 -8 18q0 17 20 17h44q18 0 32 -17l68 -82l65 81q15 18 33 18z" />
    <glyph glyph-name="Gcircumflex" unicode="&#x11c;" horiz-adv-x="668" 
d="M602 62q0 -29 -23 -38q-96 -37 -244 -37q-146 0 -214 78.5t-68 276.5q0 202 69 289.5t242 87.5q101 0 177 -19q24 -6 24 -25q0 -28 -13 -65q-5 -13 -19 -13q-3 0 -31 6q-65 14 -137 14q-113 0 -153.5 -62t-40.5 -198q0 -69 7 -114t26 -82.5t56 -54.5t94 -17q75 0 147 18
v155h-132q-20 0 -20 20v69q0 19 20 19h209q24 0 24 -24v-284zM235 760h-44q-22 0 -22 17q0 11 8 19l102 101q25 23 42 23h56q20 0 38 -20l104 -105q7 -7 7 -18q0 -17 -23 -17h-45q-18 0 -38 17l-74 61l-73 -61q-20 -17 -38 -17z" />
    <glyph glyph-name="gcircumflex" unicode="&#x11d;" horiz-adv-x="524" 
d="M109 4q-73 21 -73 108q0 73 67 104q-38 40 -38 122q0 176 208 176q55 0 95 -14h130q24 0 24 -24v-45q0 -23 -23 -23h-46q12 -27 12 -62q0 -183 -199 -183q-29 0 -63 6q-20 4 -32 4t-21 -6q-14 -12 -14 -36q0 -31 27 -38q17 -5 135 -5q137 0 182 -32t45 -131
q0 -88 -56 -130.5t-198 -42.5q-61 0 -104.5 8t-68 20t-39 32.5t-18.5 40t-4 46.5q0 78 72 105zM417 -76q0 32 -20 45.5t-86 15.5q-38 1 -90 1q-26 0 -38 -5q-43 -14 -43 -64q0 -38 26.5 -53.5t107.5 -15.5q89 0 116 18t27 58zM365 339q0 49 -22.5 66.5t-73.5 17.5
q-48 0 -73.5 -18t-25.5 -65q0 -54 24 -71.5t74 -17.5t73.5 19.5t23.5 68.5zM171 575h-43q-20 0 -20 17q0 10 9 20l88 122q18 23 35 23h63q17 0 33 -22l89 -124q8 -10 8 -19q0 -17 -20 -17h-44q-17 0 -32 17l-68 82l-66 -81q-13 -18 -32 -18z" />
    <glyph glyph-name="Gbreve" unicode="&#x11e;" horiz-adv-x="668" 
d="M602 62q0 -29 -23 -38q-96 -37 -244 -37q-146 0 -214 78.5t-68 276.5q0 202 69 289.5t242 87.5q101 0 177 -19q24 -6 24 -25q0 -28 -13 -65q-5 -13 -19 -13q-3 0 -31 6q-65 14 -137 14q-113 0 -153.5 -62t-40.5 -198q0 -69 7 -114t26 -82.5t56 -54.5t94 -17q75 0 147 18
v155h-132q-20 0 -20 20v69q0 19 20 19h209q24 0 24 -24v-284zM486 912q20 0 20 -19t-6 -42q-30 -96 -157 -96q-70 0 -108.5 27.5t-47.5 71.5q-4 18 -4 35q0 23 23 23h33q22 0 26 -19q5 -28 21.5 -41t57.5 -13q44 0 59 12t23 42q5 19 25 19h35z" />
    <glyph glyph-name="gbreve" unicode="&#x11f;" horiz-adv-x="524" 
d="M109 4q-73 21 -73 108q0 73 67 104q-38 40 -38 122q0 176 208 176q55 0 95 -14h130q24 0 24 -24v-45q0 -23 -23 -23h-46q12 -27 12 -62q0 -183 -199 -183q-29 0 -63 6q-20 4 -32 4t-21 -6q-14 -12 -14 -36q0 -31 27 -38q17 -5 135 -5q137 0 182 -32t45 -131
q0 -88 -56 -130.5t-198 -42.5q-61 0 -104.5 8t-68 20t-39 32.5t-18.5 40t-4 46.5q0 78 72 105zM417 -76q0 32 -20 45.5t-86 15.5q-38 1 -90 1q-26 0 -38 -5q-43 -14 -43 -64q0 -38 26.5 -53.5t107.5 -15.5q89 0 116 18t27 58zM365 339q0 49 -22.5 66.5t-73.5 17.5
q-48 0 -73.5 -18t-25.5 -65q0 -54 24 -71.5t74 -17.5t73.5 19.5t23.5 68.5zM403 734q18 0 18 -20q0 -24 -5 -42q-26 -101 -149 -101q-65 0 -101.5 28.5t-45.5 74.5q-3 15 -3 37q0 23 21 23h32q22 0 25 -20q5 -32 20 -47.5t53 -15.5q41 0 56 14.5t21 47.5q4 21 24 21h34z" />
    <glyph glyph-name="Gdotaccent" unicode="&#x120;" horiz-adv-x="668" 
d="M602 62q0 -29 -23 -38q-96 -37 -244 -37q-146 0 -214 78.5t-68 276.5q0 202 69 289.5t242 87.5q101 0 177 -19q24 -6 24 -25q0 -28 -13 -65q-5 -13 -19 -13q-3 0 -31 6q-65 14 -137 14q-113 0 -153.5 -62t-40.5 -198q0 -69 7 -114t26 -82.5t56 -54.5t94 -17q75 0 147 18
v155h-132q-20 0 -20 20v69q0 19 20 19h209q24 0 24 -24v-284zM416 827q0 -61 -59 -61q-57 0 -57 60q0 62 57 62q59 0 59 -61z" />
    <glyph glyph-name="gdotaccent" unicode="&#x121;" horiz-adv-x="524" 
d="M109 4q-73 21 -73 108q0 73 67 104q-38 40 -38 122q0 176 208 176q55 0 95 -14h130q24 0 24 -24v-45q0 -23 -23 -23h-46q12 -27 12 -62q0 -183 -199 -183q-29 0 -63 6q-20 4 -32 4t-21 -6q-14 -12 -14 -36q0 -31 27 -38q17 -5 135 -5q137 0 182 -32t45 -131
q0 -88 -56 -130.5t-198 -42.5q-61 0 -104.5 8t-68 20t-39 32.5t-18.5 40t-4 46.5q0 78 72 105zM417 -76q0 32 -20 45.5t-86 15.5q-38 1 -90 1q-26 0 -38 -5q-43 -14 -43 -64q0 -38 26.5 -53.5t107.5 -15.5q89 0 116 18t27 58zM365 339q0 49 -22.5 66.5t-73.5 17.5
q-48 0 -73.5 -18t-25.5 -65q0 -54 24 -71.5t74 -17.5t73.5 19.5t23.5 68.5zM327 659q0 -61 -59 -61q-57 0 -57 60q0 62 57 62q59 0 59 -61z" />
    <glyph glyph-name="Gcommaaccent" unicode="&#x122;" horiz-adv-x="668" 
d="M602 62q0 -29 -23 -38q-96 -37 -244 -37q-146 0 -214 78.5t-68 276.5q0 202 69 289.5t242 87.5q101 0 177 -19q24 -6 24 -25q0 -28 -13 -65q-5 -13 -19 -13q-3 0 -31 6q-65 14 -137 14q-113 0 -153.5 -62t-40.5 -198q0 -69 7 -114t26 -82.5t56 -54.5t94 -17q75 0 147 18
v155h-132q-20 0 -20 20v69q0 19 20 19h209q24 0 24 -24v-284zM384 -66q26 0 26 -29q0 -109 -62 -179q-14 -16 -28 -16q-19 0 -34 11q-13 8 -13 19q0 10 7 24q31 54 31 134q0 36 30 36h43z" />
    <glyph glyph-name="gcommaaccent" unicode="&#x123;" horiz-adv-x="524" 
d="M109 4q-73 21 -73 108q0 73 67 104q-38 40 -38 122q0 176 208 176q55 0 95 -14h130q24 0 24 -24v-45q0 -23 -23 -23h-46q12 -27 12 -62q0 -183 -199 -183q-29 0 -63 6q-20 4 -32 4t-21 -6q-14 -12 -14 -36q0 -31 27 -38q17 -5 135 -5q137 0 182 -32t45 -131
q0 -88 -56 -130.5t-198 -42.5q-61 0 -104.5 8t-68 20t-39 32.5t-18.5 40t-4 46.5q0 78 72 105zM417 -76q0 32 -20 45.5t-86 15.5q-38 1 -90 1q-26 0 -38 -5q-43 -14 -43 -64q0 -38 26.5 -53.5t107.5 -15.5q89 0 116 18t27 58zM365 339q0 49 -22.5 66.5t-73.5 17.5
q-48 0 -73.5 -18t-25.5 -65q0 -54 24 -71.5t74 -17.5t73.5 19.5t23.5 68.5zM285 577h-36q-27 0 -27 28q0 110 63 177q14 16 27 16q15 0 28 -11q13 -9 13 -19q0 -9 -7 -23q-31 -56 -31 -132q0 -36 -30 -36z" />
    <glyph glyph-name="Hcircumflex" unicode="&#x124;" horiz-adv-x="711" 
d="M206 25q0 -27 -25 -27h-66q-24 0 -24 27v656q0 27 25 27h67q23 0 23 -27v-262h299v262q0 27 24 27h68q23 0 23 -27v-656q0 -12 -7 -19.5t-18 -7.5h-67q-23 0 -23 27v289h-299v-289zM242 760h-44q-22 0 -22 17q0 11 8 19l102 101q25 23 42 23h56q20 0 38 -20l104 -105
q7 -7 7 -18q0 -17 -23 -17h-45q-18 0 -38 17l-74 61l-73 -61q-20 -17 -38 -17z" />
    <glyph glyph-name="hcircumflex" unicode="&#x125;" horiz-adv-x="587" 
d="M190 24q0 -26 -23 -26h-65q-23 0 -23 26v696q0 30 26 30h61q14 0 19 -7t5 -23v-253q23 21 71 33t97 12q68 0 100 -15t44 -47q10 -25 10 -98v-328q0 -26 -23 -26h-65q-22 0 -22 26v300q0 36 -6 54t-22.5 25.5t-52.5 7.5q-69 0 -105 -14q-12 -4 -20 -13q-6 -10 -6 -27v-333
zM62 790h-44q-22 0 -22 17q0 11 8 19l102 101q25 23 42 23h56q20 0 38 -20l104 -105q7 -7 7 -18q0 -17 -23 -17h-45q-18 0 -38 17l-74 61l-73 -61q-20 -17 -38 -17z" />
    <glyph glyph-name="Hbar" unicode="&#x126;" horiz-adv-x="711" 
d="M206 25q0 -27 -25 -27h-66q-24 0 -24 27v464h-47q-24 0 -24 23v45q0 22 24 22h47v102q0 27 25 27h67q23 0 23 -27v-102h299v102q0 27 24 27h68q23 0 23 -27v-102h46q25 0 25 -22v-47q0 -21 -24 -21h-47v-464q0 -12 -7 -19.5t-18 -7.5h-67q-23 0 -23 27v289h-299v-289z
M206 419h299v70h-299v-70z" />
    <glyph glyph-name="hbar" unicode="&#x127;" horiz-adv-x="587" 
d="M190 24q0 -26 -23 -26h-65q-23 0 -23 26v554h-41q-24 0 -24 22v35q0 24 25 24h40v61q0 30 26 30h61q14 0 19 -7t5 -23v-61h100q24 0 24 -24v-37q0 -20 -23 -20h-101v-111q23 21 71 33t97 12q68 0 100 -15t44 -47q10 -25 10 -98v-328q0 -26 -23 -26h-65q-22 0 -22 26v300
q0 36 -6 54t-22.5 25.5t-52.5 7.5q-69 0 -105 -14q-12 -4 -20 -13q-6 -10 -6 -27v-333z" />
    <glyph glyph-name="Itilde" unicode="&#x128;" horiz-adv-x="297" 
d="M206 25q0 -27 -25 -27h-66q-24 0 -24 27v656q0 27 25 27h67q23 0 23 -27v-656zM20 761h-27q-20 0 -20 20q0 6 6 24q34 93 96 93q29 0 78 -26q39 -21 57 -21q26 0 41 32q10 20 28 20h24q21 0 21 -19q0 -15 -6 -28q-38 -92 -96 -92q-28 0 -79 27q-40 20 -59 20
q-23 0 -36 -28q-11 -22 -28 -22z" />
    <glyph glyph-name="itilde" unicode="&#x129;" horiz-adv-x="269" 
d="M14 587h-31q-20 0 -20 20q0 6 6 24q32 97 95 97q25 0 76 -27q35 -19 56 -19q12 0 18.5 5.5t14.5 25.5t27 20h29q20 0 20 -19q0 -6 -9 -33q-28 -91 -90 -91q-34 0 -82 26q-37 20 -49 20q-22 0 -35 -27q-9 -22 -26 -22zM190 24q0 -26 -23 -26h-65q-23 0 -23 26v452
q0 26 23 26h66q22 0 22 -25v-453z" />
    <glyph glyph-name="Imacron" unicode="&#x12a;" horiz-adv-x="297" 
d="M206 25q0 -27 -25 -27h-66q-24 0 -24 27v656q0 27 25 27h67q23 0 23 -27v-656zM274 783h-254q-24 0 -24 23v41q0 23 24 23h253q24 0 24 -23v-43q0 -21 -23 -21z" />
    <glyph glyph-name="imacron" unicode="&#x12b;" horiz-adv-x="269" 
d="M253 602h-237q-24 0 -24 22v45q0 22 24 22h236q24 0 24 -22v-46q0 -21 -23 -21zM190 24q0 -26 -23 -26h-65q-23 0 -23 26v452q0 26 23 26h66q22 0 22 -25v-453z" />
    <glyph glyph-name="Ibreve" unicode="&#x12c;" horiz-adv-x="297" 
d="M206 25q0 -27 -25 -27h-66q-24 0 -24 27v656q0 27 25 27h67q23 0 23 -27v-656zM290 912q20 0 20 -19t-6 -42q-30 -96 -157 -96q-70 0 -108.5 27.5t-47.5 71.5q-4 18 -4 35q0 23 23 23h33q22 0 26 -19q5 -28 21.5 -41t57.5 -13q44 0 59 12t23 42q5 19 25 19h35z" />
    <glyph glyph-name="ibreve" unicode="&#x12d;" horiz-adv-x="269" 
d="M268 734q18 0 18 -20q0 -24 -5 -42q-26 -101 -149 -101q-65 0 -101.5 28.5t-45.5 74.5q-3 15 -3 37q0 23 21 23h32q22 0 25 -20q5 -32 20 -47.5t53 -15.5q41 0 56 14.5t21 47.5q4 21 24 21h34zM190 24q0 -26 -23 -26h-65q-23 0 -23 26v452q0 26 23 26h66q22 0 22 -25
v-453z" />
    <glyph glyph-name="Iogonek" unicode="&#x12e;" horiz-adv-x="297" 
d="M206 25q0 -27 -25 -27h-3q-52 -37 -72 -62.5t-20 -63.5q0 -25 11 -35t38 -10q10 0 26.5 3t19.5 3q13 0 18 -17q5 -16 5 -35q0 -17 -20 -22q-25 -8 -65 -8q-124 0 -124 107q0 53 27.5 84t79.5 59q-11 6 -11 24v656q0 27 25 27h67q23 0 23 -27v-656z" />
    <glyph glyph-name="iogonek" unicode="&#x12f;" horiz-adv-x="269" 
d="M194 8q-61 -42 -83 -66.5t-22 -61.5q0 -44 44 -44q10 0 26.5 2t18.5 2q14 0 18 -16t4 -33q0 -14 -19 -21q-25 -7 -64 -7q-116 0 -116 102q0 50 24 79.5t71 54.5q-17 2 -17 25v452q0 26 23 26h66q22 0 22 -25v-453q0 -11 -4 -16h8zM200 659q0 -67 -65 -67t-65 66
q0 68 65 68t65 -67z" />
    <glyph glyph-name="Idotaccent" unicode="&#x130;" horiz-adv-x="297" 
d="M206 25q0 -27 -25 -27h-66q-24 0 -24 27v656q0 27 25 27h67q23 0 23 -27v-656zM207 827q0 -61 -59 -61q-57 0 -57 60q0 62 57 62q59 0 59 -61z" />
    <glyph glyph-name="dotlessi" unicode="&#x131;" horiz-adv-x="269" 
d="M190 24q0 -26 -23 -26h-65q-23 0 -23 26v452q0 26 23 26h66q22 0 22 -25v-453z" />
    <glyph glyph-name="IJ" unicode="&#x132;" horiz-adv-x="622" 
d="M206 25q0 -27 -25 -27h-66q-24 0 -24 27v656q0 27 25 27h67q23 0 23 -27v-656zM531 681v-592q0 -103 -37 -144q-43 -48 -151 -48q-35 0 -48 3q-18 6 -18 23q0 31 5 54q3 23 22 23q3 0 17.5 -0.5t21.5 -0.5q40 0 56 16q17 16 17 93v573q0 27 25 27h67q23 0 23 -27z" />
    <glyph glyph-name="ij" unicode="&#x133;" horiz-adv-x="540" 
d="M190 24q0 -26 -23 -26h-65q-23 0 -23 26v452q0 26 23 26h66q22 0 22 -25v-453zM200 659q0 -67 -65 -67t-65 66q0 68 65 68t65 -67zM458 477v-536q0 -103 -34 -140q-47 -50 -171 -50q-33 0 -33 25q0 39 1 50q2 23 26 24q59 2 78 17q22 17 22 75v534q0 26 23 26h66
q22 0 22 -25zM468 659q0 -67 -65 -67t-65 66q0 68 65 68t65 -67z" />
    <glyph glyph-name="Jcircumflex" unicode="&#x134;" horiz-adv-x="325" 
d="M235 681v-592q0 -103 -37 -144q-43 -48 -151 -48q-35 0 -48 3q-18 6 -18 23q0 31 5 54q3 23 22 23q3 0 17.5 -0.5t21.5 -0.5q40 0 56 16q17 16 17 93v573q0 27 25 27h67q23 0 23 -27zM64 760h-44q-22 0 -22 17q0 11 8 19l102 101q25 23 42 23h56q20 0 38 -20l104 -105
q7 -7 7 -18q0 -17 -23 -17h-45q-18 0 -38 17l-74 61l-73 -61q-20 -17 -38 -17z" />
    <glyph glyph-name="jcircumflex" unicode="&#x135;" horiz-adv-x="271" 
d="M190 477v-536q0 -103 -34 -140q-47 -50 -171 -50q-33 0 -33 25q0 39 1 50q2 23 26 24q59 2 78 17q22 17 22 75v534q0 26 23 26h66q22 0 22 -25zM35 575h-35q-20 0 -20 17q0 9 8 20l89 122q16 23 35 23h49q17 0 32 -22l90 -124q7 -11 7 -19q0 -17 -20 -17h-36
q-17 0 -32 17l-68 82l-66 -81q-13 -18 -33 -18z" />
    <glyph glyph-name="Kcommaaccent" unicode="&#x136;" horiz-adv-x="617" 
d="M206 25q0 -27 -25 -27h-66q-24 0 -24 27v656q0 27 25 27h67q23 0 23 -27v-263h49q32 0 45 19l165 250q13 21 34 21h67q21 0 21 -18q0 -10 -10 -25l-198 -294l215 -324q13 -19 13 -30q0 -19 -22 -19h-76q-18 0 -31 20l-186 278q-12 18 -39 18h-47v-289zM361 -66
q26 0 26 -29q0 -109 -62 -179q-14 -16 -28 -16q-19 0 -34 11q-13 8 -13 19q0 10 7 24q31 54 31 134q0 36 30 36h43z" />
    <glyph glyph-name="kcommaaccent" unicode="&#x137;" horiz-adv-x="532" 
d="M190 24q0 -26 -23 -26h-65q-23 0 -23 26v693q0 26 23 26h66q22 0 22 -25v-392h46q31 0 45 20l97 138q14 18 33 18h68q20 0 20 -18q0 -8 -10 -23q-43 -62 -135 -178q53 -74 161 -239q14 -20 14 -28q0 -18 -22 -18h-73q-17 0 -32 21l-127 191q-12 18 -40 18h-45v-204z
M313 -66q26 0 26 -29q0 -109 -62 -179q-14 -16 -28 -16q-19 0 -34 11q-13 8 -13 19q0 10 7 24q31 54 31 134q0 36 30 36h43z" />
    <glyph glyph-name="kgreenlandic" unicode="&#x138;" horiz-adv-x="532" 
d="M190 24q0 -26 -23 -26h-65q-23 0 -23 26v451q0 26 23 26h66q22 0 22 -25v-163h46q33 0 46 20l100 151q13 18 33 18h63q20 0 20 -18q0 -8 -10 -23q-98 -142 -132 -187l160 -230q13 -19 13 -28q0 -18 -21 -18h-71q-20 0 -32 20l-131 183q-12 17 -39 17h-45v-194z" />
    <glyph glyph-name="Lacute" unicode="&#x139;" horiz-adv-x="558" 
d="M500 0h-384q-25 0 -25 26v655q0 27 25 27h67q23 0 23 -27v-576h294q26 0 26 -24v-59q0 -22 -26 -22zM174 772q-17 -12 -38 -12h-54q-19 0 -19 14q0 11 12 22l124 101q19 16 40 16h80q21 0 21 -14t-14 -23z" />
    <glyph glyph-name="lacute" unicode="&#x13a;" horiz-adv-x="269" 
d="M190 24q0 -26 -23 -26h-65q-23 0 -23 26v698q0 26 24 26h65q22 0 22 -25v-699zM144 792q-17 -12 -38 -12h-54q-19 0 -19 14q0 11 12 22l124 101q19 16 40 16h80q21 0 21 -14t-14 -23z" />
    <glyph glyph-name="Lcommaaccent" unicode="&#x13b;" horiz-adv-x="558" 
d="M500 0h-384q-25 0 -25 26v655q0 27 25 27h67q23 0 23 -27v-576h294q26 0 26 -24v-59q0 -22 -26 -22zM331 -66q26 0 26 -29q0 -109 -62 -179q-14 -16 -28 -16q-19 0 -34 11q-13 8 -13 19q0 10 7 24q31 54 31 134q0 36 30 36h43z" />
    <glyph glyph-name="lcommaaccent" unicode="&#x13c;" horiz-adv-x="269" 
d="M190 24q0 -26 -23 -26h-65q-23 0 -23 26v698q0 26 24 26h65q22 0 22 -25v-699zM161 -66q26 0 26 -29q0 -109 -62 -179q-14 -16 -28 -16q-19 0 -34 11q-13 8 -13 19q0 10 7 24q31 54 31 134q0 36 30 36h43z" />
    <glyph glyph-name="Lcaron" unicode="&#x13d;" horiz-adv-x="558" 
d="M500 0h-384q-25 0 -25 26v655q0 27 25 27h67q23 0 23 -27v-576h294q26 0 26 -24v-59q0 -22 -26 -22zM398 726q26 0 26 -29q0 -44 -15 -93t-47 -86q-14 -16 -28 -16q-16 0 -34 11q-13 8 -13 19q0 10 7 24q31 54 31 134q0 36 30 36h43z" />
    <glyph glyph-name="lcaron" unicode="&#x13e;" horiz-adv-x="269" 
d="M190 24q0 -26 -23 -26h-65q-23 0 -23 26v698q0 26 24 26h65q22 0 22 -25v-699zM350 749q26 0 26 -29q0 -44 -15 -93t-47 -86q-14 -16 -28 -16q-16 0 -34 11q-13 8 -13 19q0 10 7 24q31 54 31 134q0 36 30 36h43z" />
    <glyph glyph-name="Ldot" unicode="&#x13f;" horiz-adv-x="558" 
d="M501 0h-385q-25 0 -25 26v653q0 27 25 27h67q23 0 23 -26v-578h295q25 0 25 -24v-56q0 -22 -25 -22zM488 354q0 -74 -72 -74q-70 0 -70 73q0 74 72 74q33 0 51.5 -15.5t18.5 -57.5z" />
    <glyph glyph-name="ldot" unicode="&#x140;" horiz-adv-x="386" 
d="M190 24q0 -26 -23 -26h-65q-23 0 -23 26v698q0 26 24 26h65q22 0 22 -25v-699zM394 353q0 -70 -68 -70q-66 0 -66 69q0 71 67 71q31 0 49 -15t18 -55z" />
    <glyph glyph-name="Lslash" unicode="&#x141;" horiz-adv-x="558" 
d="M500 0h-384q-25 0 -25 26v200l-33 -22q-11 -6 -17 -6q-9 1 -18 14q-25 39 -25 48q0 11 11 18l82 56v347q0 27 25 27h67q23 0 23 -27v-267l121 84q9 5 17 5q9 0 18 -13q26 -41 26 -48q0 -11 -11 -19l-171 -118v-200h294q26 0 26 -24v-59q0 -22 -26 -22z" />
    <glyph glyph-name="lslash" unicode="&#x142;" horiz-adv-x="269" 
d="M190 24q0 -26 -23 -26h-65q-23 0 -23 26v254l-31 -20q-12 -7 -18 -7q-10 1 -17 14q-21 36 -21 42q0 9 13 18l74 48v349q0 26 24 26h65q22 0 22 -25v-278l30 20q10 7 18 7q10 -1 18 -14q22 -35 22 -42q0 -12 -13 -18l-75 -49v-325z" />
    <glyph glyph-name="Nacute" unicode="&#x143;" horiz-adv-x="711" 
d="M203 25q0 -27 -26 -27h-62q-24 0 -24 27v656q0 27 25 27h60q18 0 29 -18q235 -358 304 -473q-1 87 -1 462q0 29 25 29h63q23 0 23 -27v-656q0 -12 -7 -19.5t-18 -7.5h-51q-24 0 -38 21q-248 382 -303 478q1 -77 1 -472zM373 772q-17 -12 -38 -12h-54q-19 0 -19 14
q0 11 12 22l124 101q19 16 40 16h80q21 0 21 -14t-14 -23z" />
    <glyph glyph-name="nacute" unicode="&#x144;" horiz-adv-x="587" 
d="M190 24q0 -26 -23 -26h-65q-23 0 -23 26v450q0 29 27 29h57q13 0 18 -5t7 -18l2 -16q23 23 71 35.5t97 12.5q68 0 100 -15t44 -47q10 -25 10 -98v-328q0 -26 -23 -26h-65q-22 0 -22 26v300q0 38 -6 55q-10 32 -75 32q-64 0 -105 -17q-14 -7 -20 -14q-6 -8 -6 -27v-329z
M325 596q-15 -16 -35 -16h-49q-19 0 -19 16q0 10 7 20l97 122q14 19 34 19h72q21 0 21 -16q0 -11 -10 -21z" />
    <glyph glyph-name="Ncommaaccent" unicode="&#x145;" horiz-adv-x="711" 
d="M203 25q0 -27 -26 -27h-62q-24 0 -24 27v656q0 27 25 27h60q18 0 29 -18q235 -358 304 -473q-1 87 -1 462q0 29 25 29h63q23 0 23 -27v-656q0 -12 -7 -19.5t-18 -7.5h-51q-24 0 -38 21q-248 382 -303 478q1 -77 1 -472zM383 -66q26 0 26 -29q0 -109 -62 -179
q-14 -16 -28 -16q-19 0 -34 11q-13 8 -13 19q0 10 7 24q31 54 31 134q0 36 30 36h43z" />
    <glyph glyph-name="ncommaaccent" unicode="&#x146;" horiz-adv-x="587" 
d="M190 24q0 -26 -23 -26h-65q-23 0 -23 26v450q0 29 27 29h57q13 0 18 -5t7 -18l2 -16q23 23 71 35.5t97 12.5q68 0 100 -15t44 -47q10 -25 10 -98v-328q0 -26 -23 -26h-65q-22 0 -22 26v300q0 38 -6 55q-10 32 -75 32q-64 0 -105 -17q-14 -7 -20 -14q-6 -8 -6 -27v-329z
M320 -66q26 0 26 -29q0 -109 -62 -179q-14 -16 -28 -16q-19 0 -34 11q-13 8 -13 19q0 10 7 24q31 54 31 134q0 36 30 36h43z" />
    <glyph glyph-name="Ncaron" unicode="&#x147;" horiz-adv-x="711" 
d="M203 25q0 -27 -26 -27h-62q-24 0 -24 27v656q0 27 25 27h60q18 0 29 -18q235 -358 304 -473q-1 87 -1 462q0 29 25 29h63q23 0 23 -27v-656q0 -12 -7 -19.5t-18 -7.5h-51q-24 0 -38 21q-248 382 -303 478q1 -77 1 -472zM468 920h44q22 0 22 -17q0 -11 -8 -19l-102 -101
q-23 -23 -42 -23h-56q-20 0 -38 20l-104 104q-7 8 -7 19q0 17 24 17h44q17 0 39 -17l73 -61l73 61q20 17 38 17z" />
    <glyph glyph-name="ncaron" unicode="&#x148;" horiz-adv-x="587" 
d="M190 24q0 -26 -23 -26h-65q-23 0 -23 26v450q0 29 27 29h57q13 0 18 -5t7 -18l2 -16q23 23 71 35.5t97 12.5q68 0 100 -15t44 -47q10 -25 10 -98v-328q0 -26 -23 -26h-65q-22 0 -22 26v300q0 38 -6 55q-10 32 -75 32q-64 0 -105 -17q-14 -7 -20 -14q-6 -8 -6 -27v-329z
M386 760h42q21 0 21 -17q0 -6 -9 -19l-89 -122q-18 -24 -34 -24h-63q-18 0 -33 22l-89 125q-8 10 -8 18q0 17 20 17h44q18 0 32 -17l68 -82l65 81q15 18 33 18z" />
    <glyph glyph-name="napostrophe" unicode="&#x149;" horiz-adv-x="587" 
d="M190 24q0 -26 -23 -26h-65q-23 0 -23 26v450q0 29 27 29h57q13 0 18 -5t7 -18l2 -16q23 23 71 35.5t97 12.5q68 0 100 -15t44 -47q10 -25 10 -98v-328q0 -26 -23 -26h-65q-22 0 -22 26v300q0 38 -6 55q-10 32 -75 32q-64 0 -105 -17q-14 -7 -20 -14q-6 -8 -6 -27v-329z
M143 781q26 0 26 -29q0 -109 -62 -179q-14 -16 -28 -16q-19 0 -34 11q-13 8 -13 19q0 10 7 24q31 54 31 134q0 36 30 36h43z" />
    <glyph glyph-name="Eng" unicode="&#x14a;" horiz-adv-x="711" 
d="M203 27q0 -27 -26 -27h-62q-24 0 -24 27v652q0 27 25 27h60q22 0 29 -18q239 -357 304 -465q-1 87 -1 455q0 28 25 28h63q23 0 23 -26v-708q0 -105 -37 -146q-41 -46 -151 -46q-35 0 -48 4q-18 4 -18 23q0 5 4 53q3 23 23 23q3 0 17 -0.5t21 -0.5q42 0 58 16q16 15 16 81
v46q-260 391 -302 465q1 -77 1 -463z" />
    <glyph glyph-name="eng" unicode="&#x14b;" horiz-adv-x="587" 
d="M190 24q0 -26 -23 -26h-65q-23 0 -23 26v449q0 29 27 29h57q13 0 18 -5t7 -18l2 -15q23 23 71 35.5t97 12.5q68 0 100 -15t44 -47q10 -25 10 -98v-369q0 -99 -40 -141q-41 -43 -137 -43q-34 0 -48 3q-18 5 -18 21q0 30 3 48q4 21 22 21q4 0 18 -1t22 -1q32 0 49 14
q19 16 19 90v335q0 37 -6 55q-10 32 -75 32q-64 0 -105 -17q-13 -4 -20 -14q-6 -7 -6 -28v-333z" />
    <glyph glyph-name="Omacron" unicode="&#x14c;" horiz-adv-x="700" 
d="M647 358q0 -109 -17.5 -181.5t-56.5 -114t-93 -58.5t-134 -17q-78 0 -130 16.5t-90 58t-55.5 114t-17.5 181.5t22 182.5t65 111.5t93.5 53t121.5 15q63 0 106 -8t81 -30.5t59.5 -62.5t33.5 -104t12 -156zM528 356q0 84 -9 135t-32 79t-54 37.5t-83 9.5q-46 0 -77 -10.5
t-55 -38.5t-35.5 -79.5t-11.5 -131.5q0 -84 10.5 -138t35 -82t54.5 -38t77 -10q37 0 62.5 5.5t49.5 21.5t37.5 45t22 77.5t8.5 117.5zM480 783h-254q-24 0 -24 23v41q0 23 24 23h253q24 0 24 -23v-43q0 -21 -23 -21z" />
    <glyph glyph-name="omacron" unicode="&#x14d;" horiz-adv-x="561" 
d="M515 255q0 -154 -56 -211t-181 -57q-122 0 -177 56t-55 209q0 79 17.5 132.5t51.5 81t74 38t95 10.5q63 0 101.5 -9t70.5 -36t45.5 -79t13.5 -135zM404 250q0 101 -24.5 132.5t-97.5 31.5q-66 0 -95 -33t-29 -128q0 -102 27 -134.5t95 -32.5t96 31t28 133zM404 602h-237
q-24 0 -24 22v45q0 22 24 22h236q24 0 24 -22v-46q0 -21 -23 -21z" />
    <glyph glyph-name="Obreve" unicode="&#x14e;" horiz-adv-x="700" 
d="M647 358q0 -109 -17.5 -181.5t-56.5 -114t-93 -58.5t-134 -17q-78 0 -130 16.5t-90 58t-55.5 114t-17.5 181.5t22 182.5t65 111.5t93.5 53t121.5 15q63 0 106 -8t81 -30.5t59.5 -62.5t33.5 -104t12 -156zM528 356q0 84 -9 135t-32 79t-54 37.5t-83 9.5q-46 0 -77 -10.5
t-55 -38.5t-35.5 -79.5t-11.5 -131.5q0 -84 10.5 -138t35 -82t54.5 -38t77 -10q37 0 62.5 5.5t49.5 21.5t37.5 45t22 77.5t8.5 117.5zM493 912q20 0 20 -19t-6 -42q-30 -96 -157 -96q-70 0 -108.5 27.5t-47.5 71.5q-4 18 -4 35q0 23 23 23h33q22 0 26 -19q5 -28 21.5 -41
t57.5 -13q44 0 59 12t23 42q5 19 25 19h35z" />
    <glyph glyph-name="obreve" unicode="&#x14f;" horiz-adv-x="561" 
d="M515 255q0 -154 -56 -211t-181 -57q-122 0 -177 56t-55 209q0 79 17.5 132.5t51.5 81t74 38t95 10.5q63 0 101.5 -9t70.5 -36t45.5 -79t13.5 -135zM404 250q0 101 -24.5 132.5t-97.5 31.5q-66 0 -95 -33t-29 -128q0 -102 27 -134.5t95 -32.5t96 31t28 133zM415 734
q18 0 18 -20q0 -24 -5 -42q-26 -101 -149 -101q-65 0 -101.5 28.5t-45.5 74.5q-3 15 -3 37q0 23 21 23h32q22 0 25 -20q5 -32 20 -47.5t53 -15.5q41 0 56 14.5t21 47.5q4 21 24 21h34z" />
    <glyph glyph-name="Ohungarumlaut" unicode="&#x150;" horiz-adv-x="700" 
d="M647 358q0 -109 -17.5 -181.5t-56.5 -114t-93 -58.5t-134 -17q-78 0 -130 16.5t-90 58t-55.5 114t-17.5 181.5t22 182.5t65 111.5t93.5 53t121.5 15q63 0 106 -8t81 -30.5t59.5 -62.5t33.5 -104t12 -156zM528 356q0 84 -9 135t-32 79t-54 37.5t-83 9.5q-46 0 -77 -10.5
t-55 -38.5t-35.5 -79.5t-11.5 -131.5q0 -84 10.5 -138t35 -82t54.5 -38t77 -10q37 0 62.5 5.5t49.5 21.5t37.5 45t22 77.5t8.5 117.5zM286 772q-19 -12 -40 -12h-48q-17 0 -17 14q0 11 11 22l116 101q19 16 40 16h66q21 0 21 -15q0 -12 -14 -22zM488 772q-19 -12 -40 -12
h-47q-18 0 -18 14q0 13 11 22l116 101q19 16 40 16h66q21 0 21 -15q0 -12 -14 -22z" />
    <glyph glyph-name="ohungarumlaut" unicode="&#x151;" horiz-adv-x="561" 
d="M515 255q0 -154 -56 -211t-181 -57q-122 0 -177 56t-55 209q0 79 17.5 132.5t51.5 81t74 38t95 10.5q63 0 101.5 -9t70.5 -36t45.5 -79t13.5 -135zM404 250q0 101 -24.5 132.5t-97.5 31.5q-66 0 -95 -33t-29 -128q0 -102 27 -134.5t95 -32.5t96 31t28 133zM231 596
q-14 -16 -35 -16h-39q-19 0 -19 16q0 12 7 20l89 122q14 19 33 19h57q21 0 21 -16q0 -10 -10 -23zM401 596q-14 -16 -35 -16h-38q-21 0 -21 16q0 8 8 20l89 122q14 19 33 19h57q20 0 20 -16q0 -10 -10 -23z" />
    <glyph glyph-name="OE" unicode="&#x152;" horiz-adv-x="960" 
d="M903 0h-402q-68 -9 -143 -9q-167 0 -236 78t-69 284q0 105 21 177t63.5 112t97.5 56.5t131 16.5q77 0 131 -9h390q25 0 25 -24v-59q0 -22 -25 -22h-283v-182h256q26 0 26 -25v-58q0 -22 -26 -22h-256v-209h299q26 0 26 -24v-59q0 -22 -26 -22zM489 105v499q-34 8 -123 8
q-50 0 -81.5 -8.5t-59.5 -34.5t-41 -79t-13 -136q0 -84 11 -136.5t36.5 -79.5t57.5 -36.5t83 -9.5q73 0 130 13z" />
    <glyph glyph-name="oe" unicode="&#x153;" horiz-adv-x="886" 
d="M514 217q1 -79 33 -105t101 -26q75 0 130 20q22 5 26 5q12 0 17 -14q13 -37 13 -53q0 -17 -16 -24q-65 -33 -177 -33q-143 0 -187 80q-44 -80 -176 -80q-122 0 -177 56t-55 209q0 79 17.5 132.5t51.5 81t74 38t95 10.5q72 0 115.5 -16.5t64.5 -61.5q48 78 176 78
q66 0 108 -17.5t62 -55t26.5 -79t6.5 -106.5q0 -26 -10 -33q-6 -6 -22 -6h-297zM407 250q0 102 -25.5 133t-99.5 31q-67 0 -96 -32t-29 -129q0 -72 14 -108.5t38.5 -47.5t71.5 -11q33 0 53 5t38.5 21t26.5 50t8 88zM515 302h225q1 5 1 19q0 57 -21.5 82t-82.5 25
q-66 0 -93 -31t-29 -95z" />
    <glyph glyph-name="Racute" unicode="&#x154;" horiz-adv-x="634" 
d="M206 25q0 -27 -26 -27h-65q-24 0 -24 27v653q0 28 28 28h152q136 0 194 -23q101 -40 101 -180q0 -150 -124 -193l150 -262q10 -18 10 -31q0 -8 -6 -13.5t-15 -5.5h-73q-21 0 -33 24l-147 269q-16 -1 -50 -1h-72v-265zM206 388h79q71 0 107 13q56 22 56 95
q0 44 -13.5 64.5t-41.5 31.5q-32 12 -112 12h-75v-216zM324 772q-17 -12 -38 -12h-54q-19 0 -19 14q0 11 12 22l124 101q19 16 40 16h80q21 0 21 -14t-14 -23z" />
    <glyph glyph-name="racute" unicode="&#x155;" horiz-adv-x="382" 
d="M190 24q0 -26 -23 -26h-65q-23 0 -23 26v450q0 29 27 29h58q23 0 24 -21l2 -17q15 20 51 34t76 14q23 0 39 -4q16 -3 16 -25q0 -37 -5 -60q-3 -15 -22 -15q-7 0 -24 1t-23 1q-50 0 -86 -15q-14 -7 -18 -14q-4 -8 -4 -20v-338zM247 596q-15 -16 -35 -16h-49q-19 0 -19 16
q0 10 7 20l97 122q14 19 34 19h72q21 0 21 -16q0 -11 -10 -21z" />
    <glyph glyph-name="Rcommaaccent" unicode="&#x156;" horiz-adv-x="634" 
d="M206 25q0 -27 -26 -27h-65q-24 0 -24 27v653q0 28 28 28h152q136 0 194 -23q101 -40 101 -180q0 -150 -124 -193l150 -262q10 -18 10 -31q0 -8 -6 -13.5t-15 -5.5h-73q-21 0 -33 24l-147 269q-16 -1 -50 -1h-72v-265zM206 388h79q71 0 107 13q56 22 56 95
q0 44 -13.5 64.5t-41.5 31.5q-32 12 -112 12h-75v-216zM346 -66q26 0 26 -29q0 -109 -62 -179q-14 -16 -28 -16q-19 0 -34 11q-13 8 -13 19q0 10 7 24q31 54 31 134q0 36 30 36h43z" />
    <glyph glyph-name="rcommaaccent" unicode="&#x157;" horiz-adv-x="382" 
d="M190 24q0 -26 -23 -26h-65q-23 0 -23 26v450q0 29 27 29h58q23 0 24 -21l2 -17q15 20 51 34t76 14q23 0 39 -4q16 -3 16 -25q0 -37 -5 -60q-3 -15 -22 -15q-7 0 -24 1t-23 1q-50 0 -86 -15q-14 -7 -18 -14q-4 -8 -4 -20v-338zM163 -66q26 0 26 -29q0 -109 -62 -179
q-14 -16 -28 -16q-19 0 -34 11q-13 8 -13 19q0 10 7 24q31 54 31 134q0 36 30 36h43z" />
    <glyph glyph-name="Rcaron" unicode="&#x158;" horiz-adv-x="634" 
d="M206 25q0 -27 -26 -27h-65q-24 0 -24 27v653q0 28 28 28h152q136 0 194 -23q101 -40 101 -180q0 -150 -124 -193l150 -262q10 -18 10 -31q0 -8 -6 -13.5t-15 -5.5h-73q-21 0 -33 24l-147 269q-16 -1 -50 -1h-72v-265zM206 388h79q71 0 107 13q56 22 56 95
q0 44 -13.5 64.5t-41.5 31.5q-32 12 -112 12h-75v-216zM410 920h44q22 0 22 -17q0 -11 -8 -19l-102 -101q-23 -23 -42 -23h-56q-20 0 -38 20l-104 104q-7 8 -7 19q0 17 24 17h44q17 0 39 -17l73 -61l73 61q20 17 38 17z" />
    <glyph glyph-name="rcaron" unicode="&#x159;" horiz-adv-x="382" 
d="M190 24q0 -26 -23 -26h-65q-23 0 -23 26v450q0 29 27 29h58q23 0 24 -21l2 -17q15 20 51 34t76 14q23 0 39 -4q16 -3 16 -25q0 -37 -5 -60q-3 -15 -22 -15q-7 0 -24 1t-23 1q-50 0 -86 -15q-14 -7 -18 -14q-4 -8 -4 -20v-338zM310 760h42q21 0 21 -17q0 -6 -9 -19
l-89 -122q-18 -24 -34 -24h-63q-18 0 -33 22l-89 125q-8 10 -8 18q0 17 20 17h44q18 0 32 -17l68 -82l65 81q15 18 33 18z" />
    <glyph glyph-name="Sacute" unicode="&#x15a;" horiz-adv-x="576" 
d="M358 396q96 -27 131.5 -67t35.5 -126q0 -105 -59.5 -160.5t-198.5 -55.5q-123 0 -204 32q-23 8 -23 30q0 19 11 50q8 23 28 23q11 0 34 -7q74 -26 158 -26q83 0 109 27t26 72q0 41 -20.5 62.5t-89.5 39.5l-89 22q-155 39 -155 197q0 101 59 155.5t193 54.5q106 0 173 -22
q22 -7 22 -30q0 -22 -8 -51q-5 -20 -23 -20q-11 0 -31 5q-73 16 -141 16q-72 0 -99 -25t-27 -72q0 -39 19.5 -61t81.5 -39zM299 772q-17 -12 -38 -12h-54q-19 0 -19 14q0 11 12 22l124 101q19 16 40 16h80q21 0 21 -14t-14 -23z" />
    <glyph glyph-name="sacute" unicode="&#x15b;" horiz-adv-x="452" 
d="M292 289q69 -16 98 -48.5t29 -97.5q0 -156 -201 -156q-113 0 -170 24q-17 7 -17 23q0 11 16 59q6 17 22 17q10 0 25 -5q61 -19 128 -19q54 0 72 13.5t18 39.5q0 22 -13 33t-58 22l-76 18q-61 14 -91.5 48.5t-30.5 98.5q0 155 198 155q88 0 140 -15q20 -6 20 -24
q0 -12 -12 -60q-3 -16 -18 -16q-6 0 -24 3q-56 12 -107 12q-52 0 -70.5 -12t-18.5 -38q0 -23 13 -34.5t58 -22.5zM254 596q-15 -16 -35 -16h-49q-19 0 -19 16q0 10 7 20l97 122q14 19 34 19h72q21 0 21 -16q0 -11 -10 -21z" />
    <glyph glyph-name="Scircumflex" unicode="&#x15c;" horiz-adv-x="576" 
d="M358 396q96 -27 131.5 -67t35.5 -126q0 -105 -59.5 -160.5t-198.5 -55.5q-123 0 -204 32q-23 8 -23 30q0 19 11 50q8 23 28 23q11 0 34 -7q74 -26 158 -26q83 0 109 27t26 72q0 41 -20.5 62.5t-89.5 39.5l-89 22q-155 39 -155 197q0 101 59 155.5t193 54.5q106 0 173 -22
q22 -7 22 -30q0 -22 -8 -51q-5 -20 -23 -20q-11 0 -31 5q-73 16 -141 16q-72 0 -99 -25t-27 -72q0 -39 19.5 -61t81.5 -39zM175 760h-44q-22 0 -22 17q0 11 8 19l102 101q25 23 42 23h56q20 0 38 -20l104 -105q7 -7 7 -18q0 -17 -23 -17h-45q-18 0 -38 17l-74 61l-73 -61
q-20 -17 -38 -17z" />
    <glyph glyph-name="scircumflex" unicode="&#x15d;" horiz-adv-x="452" 
d="M292 289q69 -16 98 -48.5t29 -97.5q0 -156 -201 -156q-113 0 -170 24q-17 7 -17 23q0 11 16 59q6 17 22 17q10 0 25 -5q61 -19 128 -19q54 0 72 13.5t18 39.5q0 22 -13 33t-58 22l-76 18q-61 14 -91.5 48.5t-30.5 98.5q0 155 198 155q88 0 140 -15q20 -6 20 -24
q0 -12 -12 -60q-3 -16 -18 -16q-6 0 -24 3q-56 12 -107 12q-52 0 -70.5 -12t-18.5 -38q0 -23 13 -34.5t58 -22.5zM132 575h-43q-20 0 -20 17q0 10 9 20l88 122q18 23 35 23h63q16 0 33 -22l89 -124q8 -10 8 -19q0 -17 -20 -17h-44q-17 0 -32 17l-68 82l-66 -81
q-13 -18 -32 -18z" />
    <glyph glyph-name="Scedilla" unicode="&#x15e;" horiz-adv-x="576" 
d="M279 -54q60 -2 79.5 -28t19.5 -71q0 -105 -144 -105q-30 0 -53 5q-20 4 -20 24q0 5 6 32q5 18 22 18l24 -4q22 -2 28 -2q24 0 32.5 6.5t8.5 22.5q0 17 -7.5 23.5t-27.5 6.5q-5 0 -14 -0.5t-10 -0.5q-23 0 -23 20q0 11 4 31l12 65q-91 5 -153 30q-23 8 -23 30q0 19 11 50
q8 23 28 23q11 0 34 -7q74 -26 158 -26q83 0 109 27t26 72q0 41 -20.5 62.5t-89.5 39.5l-89 22q-155 39 -155 197q0 101 59 155.5t193 54.5q106 0 173 -22q22 -7 22 -30q0 -22 -8 -51q-5 -20 -23 -20q-11 0 -31 5q-73 16 -141 16q-72 0 -99 -25t-27 -72q0 -39 19.5 -61
t81.5 -39l87 -24q96 -27 131.5 -67t35.5 -126q0 -101 -55 -156.5t-184 -59.5z" />
    <glyph glyph-name="scedilla" unicode="&#x15f;" horiz-adv-x="452" 
d="M230 -54q30 -1 49.5 -8.5t28 -22.5t11.5 -29t3 -35q0 -98 -134 -98q-34 0 -50 4q-18 6 -18 22t4 31q5 17 21 17q6 0 20 -2q13 -3 30 -3q21 0 29.5 6t8.5 22q0 17 -7.5 24t-25.5 7q-3 0 -13 -0.5t-12 -0.5q-21 0 -21 19q0 5 5 35l10 55q-77 3 -121 22q-17 7 -17 23
q0 11 16 59q6 17 22 17q10 0 25 -5q61 -19 128 -19q54 0 72 13.5t18 39.5q0 22 -13 33t-58 22l-76 18q-61 14 -91.5 48.5t-30.5 98.5q0 155 198 155q88 0 140 -15q20 -6 20 -24q0 -12 -12 -60q-3 -16 -18 -16q-6 0 -24 3q-56 12 -107 12q-52 0 -70.5 -12t-18.5 -38
q0 -23 13 -34.5t58 -22.5l70 -18q69 -16 98 -48.5t29 -97.5q0 -148 -182 -155z" />
    <glyph glyph-name="Scaron" unicode="&#x160;" horiz-adv-x="576" 
d="M358 396q96 -27 131.5 -67t35.5 -126q0 -105 -59.5 -160.5t-198.5 -55.5q-123 0 -204 32q-23 8 -23 30q0 19 11 50q8 23 28 23q11 0 34 -7q74 -26 158 -26q83 0 109 27t26 72q0 41 -20.5 62.5t-89.5 39.5l-89 22q-155 39 -155 197q0 101 59 155.5t193 54.5q106 0 173 -22
q22 -7 22 -30q0 -22 -8 -51q-5 -20 -23 -20q-11 0 -31 5q-73 16 -141 16q-72 0 -99 -25t-27 -72q0 -39 19.5 -61t81.5 -39zM404 920h44q22 0 22 -17q0 -11 -8 -19l-102 -101q-23 -23 -42 -23h-56q-20 0 -38 20l-104 104q-7 8 -7 19q0 17 24 17h44q17 0 39 -17l73 -61l73 61
q20 17 38 17z" />
    <glyph glyph-name="scaron" unicode="&#x161;" horiz-adv-x="452" 
d="M292 289q69 -16 98 -48.5t29 -97.5q0 -156 -201 -156q-113 0 -170 24q-17 7 -17 23q0 11 16 59q6 17 22 17q10 0 25 -5q61 -19 128 -19q54 0 72 13.5t18 39.5q0 22 -13 33t-58 22l-76 18q-61 14 -91.5 48.5t-30.5 98.5q0 155 198 155q88 0 140 -15q20 -6 20 -24
q0 -12 -12 -60q-3 -16 -18 -16q-6 0 -24 3q-56 12 -107 12q-52 0 -70.5 -12t-18.5 -38q0 -23 13 -34.5t58 -22.5zM330 760h42q21 0 21 -17q0 -6 -9 -19l-89 -122q-18 -24 -34 -24h-63q-18 0 -33 22l-89 125q-8 10 -8 18q0 17 20 17h44q18 0 32 -17l68 -82l65 81q15 18 33 18
z" />
    <glyph glyph-name="uni0162" unicode="&#x162;" horiz-adv-x="598" 
d="M313 -54q60 -2 79.5 -28t19.5 -71q0 -105 -144 -105q-30 0 -53 5q-20 4 -20 24q0 5 6 32q5 18 22 18q3 0 7.5 -0.5t9.5 -2t7 -1.5q22 -2 28 -2q24 0 32.5 6.5t8.5 22.5q0 17 -7.5 23.5t-27.5 6.5q-5 0 -14 -0.5t-10 -0.5q-23 0 -23 20q0 11 4 31l14 75q-18 3 -18 26v576
h-183q-25 0 -25 22v59q0 24 25 24h483q26 0 26 -24v-59q0 -22 -26 -22h-184v-576q0 -27 -25 -27h-3z" />
    <glyph glyph-name="uni0163" unicode="&#x163;" horiz-adv-x="329" 
d="M210 -54q30 -1 49.5 -8.5t28 -22.5t11.5 -29t3 -35q0 -98 -134 -98q-34 0 -50 4q-18 6 -18 22t4 31q5 17 21 17q6 0 20 -2q14 -3 30 -3q21 0 29.5 6t8.5 22q0 17 -7.5 24t-25.5 7q-3 0 -13 -0.5t-12 -0.5q-21 0 -21 19q0 5 5 35l13 66q-22 8 -36 27q-25 33 -25 114v261
h-51q-21 0 -21 22v52q0 24 25 24h50q0 38 3 108q2 28 23 28h60q22 0 22 -28v-108h81q24 0 24 -20v-56q0 -22 -23 -22h-82v-228q0 -51 10 -71q10 -18 41 -18q11 0 28 1.5t20 1.5q16 0 19 -17q5 -38 5 -50q0 -20 -22 -25q-35 -9 -81 -9h-5z" />
    <glyph glyph-name="Tcaron" unicode="&#x164;" horiz-adv-x="598" 
d="M350 25q0 -27 -25 -27h-66q-25 0 -25 27v576h-183q-25 0 -25 22v59q0 24 25 24h483q26 0 26 -24v-59q0 -22 -26 -22h-184v-576zM402 920h44q22 0 22 -17q0 -11 -8 -19l-102 -101q-23 -23 -42 -23h-56q-20 0 -38 20l-104 104q-7 8 -7 19q0 17 24 17h44q17 0 39 -17l73 -61
l73 61q20 17 38 17z" />
    <glyph glyph-name="tcaron" unicode="&#x165;" horiz-adv-x="329" 
d="M202 402v-228q0 -51 10 -71q10 -18 41 -18q11 0 28 1.5t20 1.5q16 0 19 -17q5 -38 5 -50q0 -20 -22 -25q-35 -9 -81 -9q-76 0 -106 40q-25 33 -25 114v261h-51q-21 0 -21 22v52q0 24 25 24h50q0 38 3 108q2 28 23 28h60q22 0 22 -28v-108h81q24 0 24 -20v-56
q0 -22 -23 -22h-82zM358 767q26 0 26 -29q0 -44 -15 -93t-47 -86q-14 -16 -28 -16q-16 0 -34 11q-13 8 -13 19q0 10 7 24q31 54 31 134q0 36 30 36h43z" />
    <glyph glyph-name="Tbar" unicode="&#x166;" horiz-adv-x="598" 
d="M356 25q0 -27 -25 -27h-66q-25 0 -25 27v312h-120q-23 0 -23 22v46q0 22 23 22h120v174h-183q-25 0 -25 22v59q0 24 25 24h483q26 0 26 -24v-59q0 -22 -26 -22h-184v-174h124q24 0 24 -23v-46q0 -21 -23 -21h-125v-312z" />
    <glyph glyph-name="tbar" unicode="&#x167;" horiz-adv-x="329" 
d="M202 402v-73h73q24 0 24 -23v-37q0 -21 -23 -21h-74v-74q0 -51 10 -71q10 -18 41 -18q11 0 28 1.5t20 1.5q16 0 19 -17q5 -38 5 -50q0 -20 -22 -25q-35 -9 -81 -9q-76 0 -106 40q-25 33 -25 114v107h-46q-23 0 -23 22v35q0 24 24 24h45v73h-51q-21 0 -21 22v52
q0 24 25 24h50q0 38 3 108q2 28 23 28h60q22 0 22 -28v-108h81q24 0 24 -20v-56q0 -22 -23 -22h-82z" />
    <glyph glyph-name="Utilde" unicode="&#x168;" horiz-adv-x="697" 
d="M613 681v-399q0 -80 -6 -124t-24 -75q-56 -96 -241 -96q-188 0 -236 103q-22 48 -22 190v400q0 26 24 26h70q21 0 21 -25v-427q0 -88 21 -118q31 -47 129 -47q103 0 131 44q22 34 22 118v429q0 26 25 26h64q22 0 22 -25zM223 761h-27q-20 0 -20 20q0 6 6 24q34 93 96 93
q29 0 78 -26q39 -21 57 -21q26 0 41 32q10 20 28 20h24q21 0 21 -19q0 -15 -6 -28q-38 -92 -96 -92q-28 0 -79 27q-40 20 -59 20q-23 0 -36 -28q-11 -22 -28 -22z" />
    <glyph glyph-name="utilde" unicode="&#x169;" horiz-adv-x="587" 
d="M398 35q-47 -46 -165 -46q-68 0 -102 15.5t-46 47.5q-10 28 -10 99v325q0 26 23 26h65q23 0 23 -26v-297q0 -37 6 -55q12 -35 79 -35q64 0 100 16q15 5 21 13q5 6 5 28v330q0 26 24 26h64q23 0 23 -26v-449q0 -29 -26 -29h-57q-14 0 -19 5t-7 17zM176 587h-31
q-20 0 -20 20q0 6 6 24q32 97 95 97q25 0 76 -27q35 -19 56 -19q12 0 18.5 5.5t14.5 25.5t27 20h29q20 0 20 -19q0 -6 -9 -33q-28 -91 -90 -91q-34 0 -82 26q-37 20 -49 20q-22 0 -35 -27q-9 -22 -26 -22z" />
    <glyph glyph-name="Umacron" unicode="&#x16a;" horiz-adv-x="697" 
d="M613 681v-399q0 -80 -6 -124t-24 -75q-56 -96 -241 -96q-188 0 -236 103q-22 48 -22 190v400q0 26 24 26h70q21 0 21 -25v-427q0 -88 21 -118q31 -47 129 -47q103 0 131 44q22 34 22 118v429q0 26 25 26h64q22 0 22 -25zM479 783h-254q-24 0 -24 23v41q0 23 24 23h253
q24 0 24 -23v-43q0 -21 -23 -21z" />
    <glyph glyph-name="umacron" unicode="&#x16b;" horiz-adv-x="587" 
d="M398 35q-47 -46 -165 -46q-68 0 -102 15.5t-46 47.5q-10 28 -10 99v325q0 26 23 26h65q23 0 23 -26v-297q0 -37 6 -55q12 -35 79 -35q64 0 100 16q15 5 21 13q5 6 5 28v330q0 26 24 26h64q23 0 23 -26v-449q0 -29 -26 -29h-57q-14 0 -19 5t-7 17zM410 602h-237
q-24 0 -24 22v45q0 22 24 22h236q24 0 24 -22v-46q0 -21 -23 -21z" />
    <glyph glyph-name="Ubreve" unicode="&#x16c;" horiz-adv-x="697" 
d="M613 681v-399q0 -80 -6 -124t-24 -75q-56 -96 -241 -96q-188 0 -236 103q-22 48 -22 190v400q0 26 24 26h70q21 0 21 -25v-427q0 -88 21 -118q31 -47 129 -47q103 0 131 44q22 34 22 118v429q0 26 25 26h64q22 0 22 -25zM492 912q20 0 20 -19t-6 -42q-30 -96 -157 -96
q-70 0 -108.5 27.5t-47.5 71.5q-4 18 -4 35q0 23 23 23h33q22 0 26 -19q5 -28 21.5 -41t57.5 -13q44 0 59 12t23 42q5 19 25 19h35z" />
    <glyph glyph-name="ubreve" unicode="&#x16d;" horiz-adv-x="587" 
d="M398 35q-47 -46 -165 -46q-68 0 -102 15.5t-46 47.5q-10 28 -10 99v325q0 26 23 26h65q23 0 23 -26v-297q0 -37 6 -55q12 -35 79 -35q64 0 100 16q15 5 21 13q5 6 5 28v330q0 26 24 26h64q23 0 23 -26v-449q0 -29 -26 -29h-57q-14 0 -19 5t-7 17zM425 734q18 0 18 -20
q0 -24 -5 -42q-26 -101 -149 -101q-65 0 -101.5 28.5t-45.5 74.5q-3 15 -3 37q0 23 21 23h32q22 0 25 -20q5 -32 20 -47.5t53 -15.5q41 0 56 14.5t21 47.5q4 21 24 21h34z" />
    <glyph glyph-name="Uring" unicode="&#x16e;" horiz-adv-x="697" 
d="M613 681v-399q0 -80 -6 -124t-24 -75q-56 -96 -241 -96q-188 0 -236 103q-22 48 -22 190v400q0 26 24 26h70q21 0 21 -25v-427q0 -88 21 -118q31 -47 129 -47q103 0 131 44q22 34 22 118v429q0 26 25 26h64q22 0 22 -25zM449 830q0 -45 -26.5 -70t-71.5 -25
q-43 0 -68.5 24.5t-25.5 70.5t26.5 72t70.5 26t69.5 -26t25.5 -72zM407 832q0 59 -55 59q-25 0 -40 -15.5t-15 -44.5q0 -28 15 -43.5t41 -15.5q54 0 54 60z" />
    <glyph glyph-name="uring" unicode="&#x16f;" horiz-adv-x="587" 
d="M398 35q-47 -46 -165 -46q-68 0 -102 15.5t-46 47.5q-10 28 -10 99v325q0 26 23 26h65q23 0 23 -26v-297q0 -37 6 -55q12 -35 79 -35q64 0 100 16q15 5 21 13q5 6 5 28v330q0 26 24 26h64q23 0 23 -26v-449q0 -29 -26 -29h-57q-14 0 -19 5t-7 17zM387 670q0 -46 -27 -71
t-72 -25q-44 0 -69.5 25t-25.5 71q0 47 26.5 73t71.5 26t70.5 -26t25.5 -73zM345 672q0 60 -56 60q-26 0 -41 -15.5t-15 -45.5q0 -29 15 -44.5t42 -15.5q55 0 55 61z" />
    <glyph glyph-name="Uhungarumlaut" unicode="&#x170;" horiz-adv-x="697" 
d="M613 681v-399q0 -80 -6 -124t-24 -75q-56 -96 -241 -96q-188 0 -236 103q-22 48 -22 190v400q0 26 24 26h70q21 0 21 -25v-427q0 -88 21 -118q31 -47 129 -47q103 0 131 44q22 34 22 118v429q0 26 25 26h64q22 0 22 -25zM273 772q-19 -12 -40 -12h-48q-17 0 -17 14
q0 11 11 22l116 101q19 16 40 16h66q21 0 21 -15q0 -12 -14 -22zM475 772q-19 -12 -40 -12h-47q-18 0 -18 14q0 13 11 22l116 101q19 16 40 16h66q21 0 21 -15q0 -12 -14 -22z" />
    <glyph glyph-name="uhungarumlaut" unicode="&#x171;" horiz-adv-x="587" 
d="M398 35q-47 -46 -165 -46q-68 0 -102 15.5t-46 47.5q-10 28 -10 99v325q0 26 23 26h65q23 0 23 -26v-297q0 -37 6 -55q12 -35 79 -35q64 0 100 16q15 5 21 13q5 6 5 28v330q0 26 24 26h64q23 0 23 -26v-449q0 -29 -26 -29h-57q-14 0 -19 5t-7 17zM240 596
q-14 -16 -35 -16h-39q-19 0 -19 16q0 12 7 20l89 122q14 19 33 19h57q21 0 21 -16q0 -10 -10 -23zM410 596q-14 -16 -35 -16h-38q-21 0 -21 16q0 8 8 20l89 122q14 19 33 19h57q20 0 20 -16q0 -10 -10 -23z" />
    <glyph glyph-name="Uogonek" unicode="&#x172;" horiz-adv-x="697" 
d="M613 681v-399q0 -80 -6 -124t-24 -75q-49 -82 -191 -94q-44 -32 -61.5 -56.5t-17.5 -60.5q0 -25 11 -35t38 -10q10 0 26.5 3t19.5 3q13 0 18 -17q5 -16 5 -35q0 -17 -20 -22q-25 -8 -65 -8q-124 0 -124 107q0 81 83 130q-157 9 -199 102q-22 48 -22 190v400q0 26 24 26
h70q21 0 21 -25v-427q0 -88 21 -118q31 -47 129 -47q103 0 131 44q22 34 22 118v429q0 26 25 26h64q22 0 22 -25z" />
    <glyph glyph-name="uogonek" unicode="&#x173;" horiz-adv-x="587" 
d="M398 35q-47 -46 -165 -46q-68 0 -102 15.5t-46 47.5q-10 28 -10 99v325q0 26 23 26h65q23 0 23 -26v-297q0 -37 6 -55q12 -35 79 -35q64 0 100 16q15 5 21 13q5 6 5 28v330q0 26 24 26h64q23 0 23 -26v-449q0 -29 -26 -29h-7q-50 -35 -70 -59t-20 -59q0 -44 44 -44
q10 0 26.5 2t18.5 2q14 0 18 -16t4 -33q0 -14 -19 -21q-25 -7 -64 -7q-116 0 -116 102q0 53 27 83.5t80 56.5q-3 3 -5 15z" />
    <glyph glyph-name="Wcircumflex" unicode="&#x174;" horiz-adv-x="920" 
d="M464 510l-141 -486q-8 -26 -33 -26h-64q-24 0 -33 28l-164 630q-4 17 -4 30q0 22 21 22h75q21 0 28 -28q109 -441 123 -506q34 151 131 480q8 32 32 32h61q22 0 31 -29q107 -365 134 -483q34 163 118 503q7 31 30 31h64q22 0 22 -21q0 -14 -5 -34l-166 -628
q-6 -27 -31 -27h-64q-26 0 -33 28zM350 760h-44q-22 0 -22 17q0 11 8 19l102 101q25 23 42 23h56q20 0 38 -20l104 -105q7 -7 7 -18q0 -17 -23 -17h-45q-18 0 -38 17l-74 61l-73 -61q-20 -17 -38 -17z" />
    <glyph glyph-name="wcircumflex" unicode="&#x175;" horiz-adv-x="767" 
d="M383 328q-17 -64 -104 -307q-9 -23 -32 -23h-56q-24 0 -32 25l-132 439q-5 17 -5 23q0 17 22 17h73q19 0 27 -27q68 -221 89 -312q25 88 97 290q12 31 33 31h49q18 0 30 -30q81 -220 104 -291q26 112 81 311q7 28 28 28h67q21 0 21 -17q0 -8 -6 -28l-132 -436
q-7 -23 -29 -23h-59q-22 0 -30 25q-84 238 -104 305zM286 575h-43q-20 0 -20 17q0 10 9 20l88 122q18 23 35 23h63q16 0 33 -22l89 -124q8 -10 8 -19q0 -17 -20 -17h-44q-17 0 -32 17l-68 82l-66 -81q-13 -18 -32 -18z" />
    <glyph glyph-name="Ycircumflex" unicode="&#x176;" horiz-adv-x="599" 
d="M358 26q0 -28 -26 -28h-65q-25 0 -25 28v272l-220 358q-14 22 -14 31q0 21 20 21h79q21 0 36 -24q117 -191 161 -270q33 62 159 268q9 15 17 20.5t21 5.5h73q18 0 18 -19q0 -9 -12 -30l-222 -358v-275zM189 760h-44q-22 0 -22 17q0 11 8 19l102 101q25 23 42 23h56
q20 0 38 -20l104 -105q7 -7 7 -18q0 -17 -23 -17h-45q-18 0 -38 17l-74 61l-73 -61q-20 -17 -38 -17z" />
    <glyph glyph-name="ycircumflex" unicode="&#x177;" horiz-adv-x="491" 
d="M190 10l-177 449q-6 15 -6 26q0 17 21 17h73q19 0 29 -27q81 -211 119 -321q35 108 119 320q10 28 28 28h68q22 0 22 -17q0 -11 -6 -26l-204 -520q-18 -44 -32 -75q-25 -53 -54 -78q-40 -36 -115 -36q-60 0 -75 6q-16 6 -16 23q0 38 10 61q5 12 19 12q2 0 18.5 -2
t30.5 -2q35 0 49 11q19 14 39 56q17 35 29 68zM147 575h-43q-20 0 -20 17q0 10 9 20l88 122q18 23 35 23h63q17 0 33 -22l89 -124q8 -10 8 -19q0 -17 -20 -17h-44q-17 0 -32 17l-68 82l-66 -81q-13 -18 -32 -18z" />
    <glyph glyph-name="Ydieresis" unicode="&#x178;" horiz-adv-x="599" 
d="M358 26q0 -28 -26 -28h-65q-25 0 -25 28v272l-220 358q-14 22 -14 31q0 21 20 21h79q21 0 36 -24q117 -191 161 -270q33 62 159 268q9 15 17 20.5t21 5.5h73q18 0 18 -19q0 -9 -12 -30l-222 -358v-275zM262 827q0 -61 -59 -61q-57 0 -57 60q0 62 57 62q59 0 59 -61z
M458 827q0 -61 -59 -61q-57 0 -57 60q0 62 57 62q59 0 59 -61z" />
    <glyph glyph-name="Zacute" unicode="&#x179;" horiz-adv-x="613" 
d="M558 0h-504q-31 0 -31 34v26q0 24 19 49l373 492h-336q-26 0 -26 26v51q0 28 26 28h456q16 0 23 -6t7 -24v-26q0 -21 -3.5 -32.5t-18.5 -31.5l-363 -481h379q27 0 27 -24v-57q0 -24 -28 -24zM340 772q-17 -12 -38 -12h-54q-19 0 -19 14q0 11 12 22l124 101q19 16 40 16
h80q21 0 21 -14t-14 -23z" />
    <glyph glyph-name="zacute" unicode="&#x17a;" horiz-adv-x="490" 
d="M442 0h-391q-24 0 -24 26v27q0 22 16 40l254 307h-237q-20 0 -20 19v60q0 21 20 21h367q23 0 23 -23v-31q0 -24 -21 -50q-234 -283 -247 -295h261q20 0 20 -18v-65q0 -18 -21 -18zM285 596q-15 -16 -35 -16h-49q-19 0 -19 16q0 10 7 20l97 122q14 19 34 19h72
q21 0 21 -16q0 -11 -10 -21z" />
    <glyph glyph-name="Zdotaccent" unicode="&#x17b;" horiz-adv-x="613" 
d="M558 0h-504q-31 0 -31 34v26q0 24 19 49l373 492h-336q-26 0 -26 26v51q0 28 26 28h456q16 0 23 -6t7 -24v-26q0 -21 -3.5 -32.5t-18.5 -31.5l-363 -481h379q27 0 27 -24v-57q0 -24 -28 -24zM378 827q0 -61 -59 -61q-57 0 -57 60q0 62 57 62q59 0 59 -61z" />
    <glyph glyph-name="zdotaccent" unicode="&#x17c;" horiz-adv-x="490" 
d="M442 0h-391q-24 0 -24 26v27q0 22 16 40l254 307h-237q-20 0 -20 19v60q0 21 20 21h367q23 0 23 -23v-31q0 -24 -21 -50q-234 -283 -247 -295h261q20 0 20 -18v-65q0 -18 -21 -18zM314 659q0 -61 -59 -61q-57 0 -57 60q0 62 57 62q59 0 59 -61z" />
    <glyph glyph-name="Zcaron" unicode="&#x17d;" horiz-adv-x="613" 
d="M558 0h-504q-31 0 -31 34v26q0 24 19 49l373 492h-336q-26 0 -26 26v51q0 28 26 28h456q16 0 23 -6t7 -24v-26q0 -21 -3.5 -32.5t-18.5 -31.5l-363 -481h379q27 0 27 -24v-57q0 -24 -28 -24zM420 920h44q22 0 22 -17q0 -11 -8 -19l-102 -101q-23 -23 -42 -23h-56
q-20 0 -38 20l-104 104q-7 8 -7 19q0 17 24 17h44q17 0 39 -17l73 -61l73 61q20 17 38 17z" />
    <glyph glyph-name="zcaron" unicode="&#x17e;" horiz-adv-x="490" 
d="M442 0h-391q-24 0 -24 26v27q0 22 16 40l254 307h-237q-20 0 -20 19v60q0 21 20 21h367q23 0 23 -23v-31q0 -24 -21 -50q-234 -283 -247 -295h261q20 0 20 -18v-65q0 -18 -21 -18zM342 760h42q21 0 21 -17q0 -6 -9 -19l-89 -122q-18 -24 -34 -24h-63q-18 0 -33 22
l-89 125q-8 10 -8 18q0 17 20 17h44q18 0 32 -17l68 -82l65 81q15 18 33 18z" />
    <glyph glyph-name="longs" unicode="&#x17f;" horiz-adv-x="272" 
d="M190 23q0 -25 -22 -25h-67q-22 0 -22 27v554q0 99 44 140q45 39 136 39q45 0 67 -8q15 -5 15 -24q0 -17 -6 -51q-3 -16 -21 -16q-2 0 -18.5 2t-28.5 2q-45 0 -62 -23q-15 -20 -15 -79v-538z" />
    <glyph glyph-name="florin" unicode="&#x192;" horiz-adv-x="499" 
d="M417 360h-114l-25 -297q-9 -106 -52 -144q-46 -40 -139 -40q-46 0 -67 7q-15 5 -15 24q0 18 6 52q4 17 23 17q2 0 19 -1.5t29 -1.5q47 0 61 21q17 25 22 81l25 282h-81q-21 0 -21 19v37q0 20 21 20h88l7 74q9 100 53 141q45 39 137 39q50 0 74 -8q14 -5 14 -24
q0 -26 -6 -51q-4 -18 -22 -18q-3 0 -21.5 2.5t-31.5 2.5q-47 0 -64 -24q-18 -25 -22 -77l-5 -57h107q23 0 23 -20v-37q0 -19 -23 -19z" />
    <glyph glyph-name="Aringacute" unicode="&#x1fa;" horiz-adv-x="631" 
d="M398 757q0 -39 -22 -61q3 -3 7 -13l233 -638q7 -17 7 -28q0 -19 -24 -19h-67q-23 0 -34 32l-60 169h-244l-62 -170q-11 -31 -32 -31h-67q-25 0 -25 19q0 9 7 28l233 638l6 13q-21 23 -21 61q0 41 22.5 63.5t60.5 22.5q39 0 60.5 -22.5t21.5 -63.5zM225 300h182
q-71 199 -91 261zM335 872q-16 -10 -32 -10h-31q-16 0 -16 13q0 12 8 19l94 80q16 14 35 14h55q19 0 19 -15q0 -13 -13 -20zM362 759q0 49 -47 49q-46 0 -46 -50q0 -43 36 -50h21q36 7 36 51z" />
    <glyph glyph-name="aringacute" unicode="&#x1fb;" horiz-adv-x="541" 
d="M360 39q-49 -49 -141 -49q-173 0 -173 162q0 84 60 122q49 31 157 31q61 0 94 -5v30q0 32 -6 48q-14 35 -94 35q-62 0 -109 -10q-30 -5 -36 -5q-16 0 -19 17q-7 23 -7 54q0 20 19 25q67 20 168 20q123 0 161 -38q32 -32 32 -125v-321q0 -32 -28 -32h-46q-27 0 -30 20z
M357 220q-42 4 -80 4q-71 0 -102 -21q-23 -16 -23 -49q0 -37 21 -55.5t74 -18.5q57 0 90 21q11 5 16 16q4 7 4 27v76zM376 670q0 -46 -27 -71t-72 -25q-44 0 -69.5 25t-25.5 71q0 47 26.5 73t71.5 26t70.5 -26t25.5 -73zM336 672q0 61 -58 61q-26 0 -42 -16t-16 -46
q0 -29 16 -45t43 -16t42 16t15 46zM304 816q-15 -16 -35 -16h-31q-20 0 -20 16q0 8 7 20l92 117q13 18 34 18h56q20 0 20 -16q0 -9 -10 -21z" />
    <glyph glyph-name="AEacute" unicode="&#x1fc;" horiz-adv-x="970" 
d="M255 202l-112 -174q-19 -30 -39 -30h-79q-22 0 -22 17q0 6 14 30l403 636q15 25 44 25h433q25 0 25 -24v-59q0 -22 -25 -22h-283v-182h256q13 0 19 -5.5t6 -19.5v-58q0 -22 -25 -22h-256v-209h299q25 0 25 -24v-59q0 -22 -25 -22h-390q-25 0 -25 26v176h-243zM313 306
h185v297q-53 -94 -185 -297zM661 772q-17 -12 -38 -12h-54q-19 0 -19 14q0 11 12 22l124 101q19 16 40 16h80q21 0 21 -14t-14 -23z" />
    <glyph glyph-name="aeacute" unicode="&#x1fd;" horiz-adv-x="834" 
d="M464 220q1 -81 33 -107.5t102 -26.5t132 20q13 5 25 5q13 0 18 -14q12 -45 12 -54q0 -17 -18 -24q-70 -32 -180 -32q-129 0 -180 64q-65 -61 -187 -61q-97 0 -136 43.5t-39 118.5q0 85 59 121q54 32 159 32q39 0 93 -2v26q0 32 -6 49q-14 35 -94 35q-55 0 -110 -10
q-6 0 -18.5 -2.5t-16.5 -2.5q-15 0 -18 17q-8 28 -8 53q0 21 19 26q67 20 167 20q66 0 105 -15t51 -55q21 33 65.5 51.5t94.5 18.5q67 0 109 -17.5t62.5 -55t27.5 -80t7 -108.5q0 -19 -10 -28q-6 -5 -22 -5h-298zM357 221q-22 2 -79 2q-79 0 -104 -19q-22 -17 -22 -49
q0 -37 21 -56t74 -19q37 0 73.5 9.5t52.5 26.5q-14 33 -16 105zM466 303h225q1 7 1 19q0 54 -22.5 79.5t-82.5 25.5q-66 0 -93 -29.5t-28 -94.5zM465 596q-15 -16 -35 -16h-49q-19 0 -19 16q0 10 7 20l97 122q14 19 34 19h72q21 0 21 -16q0 -11 -10 -21z" />
    <glyph glyph-name="Oslashacute" unicode="&#x1fe;" horiz-adv-x="700" 
d="M105 -19q-5 -9 -14 -9q-8 0 -30 17q-7 6 -7 11q0 7 6 15l49 68q-56 86 -56 274q0 109 22 182.5t65 111.5t93.5 53t121.5 15q128 0 189 -40l41 57q6 9 14 9t13 -4q23 -16 23 -24q0 -5 -6 -13l-45 -62q63 -80 63 -284q0 -109 -17.5 -181.5t-56.5 -114t-93 -58.5t-134 -17
q-134 0 -199 53zM528 356q0 120 -22 179l-290 -401q36 -49 132 -49q47 0 76.5 9.5t55 37.5t37 83t11.5 141zM171 357q0 -104 17 -166l288 395q-38 35 -126 35q-46 0 -77 -10.5t-55 -39t-35.5 -81t-11.5 -133.5zM381 772q-17 -12 -38 -12h-54q-19 0 -19 14q0 11 12 22
l124 101q19 16 40 16h80q21 0 21 -14t-14 -23z" />
    <glyph glyph-name="oslashacute" unicode="&#x1ff;" horiz-adv-x="561" 
d="M102 -30q-5 -9 -12 -9q-8 0 -27 15q-7 6 -7 11q0 7 6 15l34 47q-50 61 -50 203q0 79 17.5 132.5t51.5 81t74 38t95 10.5q89 0 136 -21l38 52q5 8 13 8q7 0 12 -4q20 -13 20 -21q0 -6 -4 -13l-38 -51q54 -57 54 -209q0 -154 -56 -211t-181 -57q-92 0 -143 29zM407 250
q0 84 -15 119l-196 -270q27 -20 84 -20q35 0 56.5 6t38.5 23.5t24.5 52t7.5 89.5zM155 253q0 -69 12 -108l191 263q-23 13 -76 13q-69 0 -98 -34.5t-29 -133.5zM305 596q-15 -16 -35 -16h-49q-19 0 -19 16q0 10 7 20l97 122q14 19 34 19h72q21 0 21 -16q0 -11 -10 -21z" />
    <glyph glyph-name="uni0218" unicode="&#x218;" horiz-adv-x="576" 
d="M358 396q96 -27 131.5 -67t35.5 -126q0 -105 -59.5 -160.5t-198.5 -55.5q-123 0 -204 32q-23 8 -23 30q0 19 11 50q8 23 28 23q11 0 34 -7q74 -26 158 -26q83 0 109 27t26 72q0 41 -20.5 62.5t-89.5 39.5l-89 22q-155 39 -155 197q0 101 59 155.5t193 54.5q106 0 173 -22
q22 -7 22 -30q0 -22 -8 -51q-5 -20 -23 -20q-11 0 -31 5q-73 16 -141 16q-72 0 -99 -25t-27 -72q0 -39 19.5 -61t81.5 -39zM302 -66q26 0 26 -29q0 -109 -62 -179q-14 -16 -28 -16q-19 0 -34 11q-13 8 -13 19q0 10 7 24q31 54 31 134q0 36 30 36h43z" />
    <glyph glyph-name="uni0219" unicode="&#x219;" horiz-adv-x="452" 
d="M292 289q69 -16 98 -48.5t29 -97.5q0 -156 -201 -156q-113 0 -170 24q-17 7 -17 23q0 11 16 59q6 17 22 17q10 0 25 -5q61 -19 128 -19q54 0 72 13.5t18 39.5q0 22 -13 33t-58 22l-76 18q-61 14 -91.5 48.5t-30.5 98.5q0 155 198 155q88 0 140 -15q20 -6 20 -24
q0 -12 -12 -60q-3 -16 -18 -16q-6 0 -24 3q-56 12 -107 12q-52 0 -70.5 -12t-18.5 -38q0 -23 13 -34.5t58 -22.5zM251 -66q26 0 26 -29q0 -109 -62 -179q-14 -16 -28 -16q-19 0 -34 11q-13 8 -13 19q0 10 7 24q31 54 31 134q0 36 30 36h43z" />
    <glyph glyph-name="uni021A" unicode="&#x21a;" horiz-adv-x="598" 
d="M350 25q0 -27 -25 -27h-66q-25 0 -25 27v576h-183q-25 0 -25 22v59q0 24 25 24h483q26 0 26 -24v-59q0 -22 -26 -22h-184v-576zM321 -66q26 0 26 -29q0 -109 -62 -179q-14 -16 -28 -16q-19 0 -34 11q-13 8 -13 19q0 10 7 24q31 54 31 134q0 36 30 36h43z" />
    <glyph glyph-name="uni021B" unicode="&#x21b;" horiz-adv-x="329" 
d="M202 402v-228q0 -51 10 -71q10 -18 41 -18q11 0 28 1.5t20 1.5q16 0 19 -17q5 -38 5 -50q0 -20 -22 -25q-35 -9 -81 -9q-76 0 -106 40q-25 33 -25 114v261h-51q-21 0 -21 22v52q0 24 25 24h50q0 38 3 108q2 28 23 28h60q22 0 22 -28v-108h81q24 0 24 -20v-56
q0 -22 -23 -22h-82zM215 -66q26 0 26 -29q0 -109 -62 -179q-14 -16 -28 -16q-19 0 -34 11q-13 8 -13 19q0 10 7 24q31 54 31 134q0 36 30 36h43z" />
    <glyph glyph-name="circumflex" unicode="&#x2c6;" horiz-adv-x="197" 
d="M0 575h-43q-20 0 -20 17q0 10 9 20l88 122q18 23 35 23h63q16 0 33 -22l89 -124q8 -10 8 -19q0 -17 -20 -17h-44q-17 0 -32 17l-68 82l-66 -81q-13 -18 -32 -18z" />
    <glyph glyph-name="caron" unicode="&#x2c7;" horiz-adv-x="197" 
d="M199 760h42q21 0 21 -17q0 -6 -9 -19l-89 -122q-18 -24 -34 -24h-63q-18 0 -33 22l-89 125q-8 10 -8 18q0 17 20 17h44q18 0 32 -17l68 -82l65 81q15 18 33 18z" />
    <glyph glyph-name="breve" unicode="&#x2d8;" horiz-adv-x="197" 
d="M234 734q18 0 18 -20q0 -24 -5 -42q-26 -101 -149 -101q-65 0 -101.5 28.5t-45.5 74.5q-3 15 -3 37q0 23 21 23h32q22 0 25 -20q5 -32 20 -47.5t53 -15.5q41 0 56 14.5t21 47.5q4 21 24 21h34z" />
    <glyph glyph-name="dotaccent" unicode="&#x2d9;" horiz-adv-x="197" 
d="M156 659q0 -61 -59 -61q-57 0 -57 60q0 62 57 62q59 0 59 -61z" />
    <glyph glyph-name="ring" unicode="&#x2da;" horiz-adv-x="197" 
d="M195 670q0 -46 -27 -71t-72 -25q-44 0 -69.5 25t-25.5 71q0 47 26.5 73t71.5 26t70.5 -26t25.5 -73zM153 672q0 60 -56 60q-26 0 -41 -15.5t-15 -45.5q0 -29 15 -44.5t42 -15.5q55 0 55 61z" />
    <glyph glyph-name="ogonek" unicode="&#x2db;" horiz-adv-x="197" 
d="M192 8q-61 -42 -83 -66.5t-22 -61.5q0 -44 44 -44q10 0 26.5 2t18.5 2q14 0 18 -16t4 -33q0 -14 -19 -21q-25 -7 -64 -7q-116 0 -116 102q0 54 28.5 84.5t85.5 58.5h79z" />
    <glyph glyph-name="tilde" unicode="&#x2dc;" horiz-adv-x="197" 
d="M-20 587h-31q-20 0 -20 20q0 6 6 24q32 97 95 97q25 0 76 -27q35 -19 56 -19q12 0 18.5 5.5t14.5 25.5t27 20h29q20 0 20 -19q0 -6 -9 -33q-28 -91 -90 -91q-34 0 -82 26q-37 20 -49 20q-22 0 -35 -27q-9 -22 -26 -22z" />
    <glyph glyph-name="hungarumlaut" unicode="&#x2dd;" horiz-adv-x="197" 
d="M3 596q-14 -16 -35 -16h-39q-19 0 -19 16q0 12 7 20l89 122q14 19 33 19h57q21 0 21 -16q0 -10 -10 -23zM173 596q-14 -16 -35 -16h-38q-21 0 -21 16q0 8 8 20l89 122q14 19 33 19h57q20 0 20 -16q0 -10 -10 -23z" />
    <glyph glyph-name="uni0394" unicode="&#x394;" horiz-adv-x="693" 
d="M672 41q0 -4 2 -10.5t2 -8.5q0 -22 -25 -22h-609q-26 0 -26 22q0 5 4 17l253 611q11 26 34 26h85q23 0 33 -26zM348 558q-16 -46 -183 -453h361q-164 409 -178 453z" />
    <glyph glyph-name="uni03A9" unicode="&#x3a9;" horiz-adv-x="740" 
d="M335 27q0 -27 -31 -27h-210q-15 0 -21 5t-6 19v52q0 16 6 22t20 6h157q-92 36 -135 97.5t-43 177.5q0 157 73 233.5t230 76.5q159 0 224.5 -75t65.5 -230q0 -112 -42 -176.5t-133 -103.5h154q15 0 21.5 -6t6.5 -22v-49q0 -16 -5 -21.5t-21 -5.5h-210q-31 0 -31 27v85
q0 26 22 37q59 26 88.5 78t29.5 143q0 122 -39 168.5t-133 46.5q-96 0 -138 -49.5t-42 -168.5q0 -86 29 -137.5t90 -81.5q23 -11 23 -37v-84z" />
    <glyph glyph-name="uni03BC" unicode="&#x3bc;" horiz-adv-x="604" 
d="M198 14v-193q0 -25 -24 -25h-65q-23 0 -23 25v655q0 26 23 26h66q23 0 23 -26v-297q0 -38 6 -56q12 -35 78 -35t100 17q2 1 5 2t5.5 2.5t5.5 3.5t5 4q6 10 6 28v331q0 26 24 26h64q23 0 23 -26v-449q0 -29 -27 -29h-57q-24 0 -25 22l-1 15q-36 -39 -137 -39q-55 0 -75 18
z" />
    <glyph glyph-name="pi" unicode="&#x3c0;" horiz-adv-x="618" 
d="M226 28q0 -16 -5.5 -22t-20.5 -6h-57q-27 0 -27 28v374h-36q-15 0 -21 5t-6 20v46q0 27 28 27h473q29 0 29 -28v-44q0 -26 -26 -26h-36v-215q0 -69 7 -117q6 -36 6 -44q0 -26 -25 -26h-57q-23 0 -28 25q-13 67 -13 160v217h-185v-374z" />
    <glyph glyph-name="Wgrave" unicode="&#x1e80;" horiz-adv-x="920" 
d="M464 510l-141 -486q-8 -26 -33 -26h-64q-24 0 -33 28l-164 630q-4 17 -4 30q0 22 21 22h75q21 0 28 -28q109 -441 123 -506q34 151 131 480q8 32 32 32h61q22 0 31 -29q107 -365 134 -483q34 163 118 503q7 31 30 31h64q22 0 22 -21q0 -14 -5 -34l-166 -628
q-6 -27 -31 -27h-64q-26 0 -33 28zM447 772l-150 104q-15 11 -15 23q0 14 21 14h81q20 0 40 -16l123 -101q12 -11 12 -22q0 -14 -18 -14h-54q-20 0 -40 12z" />
    <glyph glyph-name="wgrave" unicode="&#x1e81;" horiz-adv-x="766" 
d="M383 328q-17 -64 -104 -307q-9 -23 -32 -23h-56q-24 0 -32 25l-132 439q-5 17 -5 23q0 17 22 17h73q19 0 27 -27q68 -221 89 -312q25 88 97 290q12 31 33 31h49q18 0 30 -30q81 -220 104 -291q26 112 81 311q7 28 28 28h67q21 0 21 -17q0 -8 -6 -28l-132 -436
q-7 -23 -29 -23h-59q-22 0 -30 25q-84 238 -104 305zM347 596l-117 124q-11 13 -11 21q0 16 21 16h73q18 0 34 -19l96 -122q8 -9 8 -20q0 -16 -20 -16h-46q-23 0 -38 16z" />
    <glyph glyph-name="Wacute" unicode="&#x1e82;" horiz-adv-x="920" 
d="M464 510l-141 -486q-8 -26 -33 -26h-64q-24 0 -33 28l-164 630q-4 17 -4 30q0 22 21 22h75q21 0 28 -28q109 -441 123 -506q34 151 131 480q8 32 32 32h61q22 0 31 -29q107 -365 134 -483q34 163 118 503q7 31 30 31h64q22 0 22 -21q0 -14 -5 -34l-166 -628
q-6 -27 -31 -27h-64q-26 0 -33 28zM497 772q-17 -12 -38 -12h-54q-19 0 -19 14q0 11 12 22l124 101q19 16 40 16h80q21 0 21 -14t-14 -23z" />
    <glyph glyph-name="wacute" unicode="&#x1e83;" horiz-adv-x="765" 
d="M383 328q-17 -64 -104 -307q-9 -23 -32 -23h-56q-24 0 -32 25l-132 439q-5 17 -5 23q0 17 22 17h73q19 0 27 -27q68 -221 89 -312q25 88 97 290q12 31 33 31h49q18 0 30 -30q81 -220 104 -291q26 112 81 311q7 28 28 28h67q21 0 21 -17q0 -8 -6 -28l-132 -436
q-7 -23 -29 -23h-59q-22 0 -30 25q-84 238 -104 305zM419 596q-15 -16 -35 -16h-49q-19 0 -19 16q0 10 7 20l97 122q14 19 34 19h72q21 0 21 -16q0 -11 -10 -21z" />
    <glyph glyph-name="Wdieresis" unicode="&#x1e84;" horiz-adv-x="920" 
d="M464 510l-141 -486q-8 -26 -33 -26h-64q-24 0 -33 28l-164 630q-4 17 -4 30q0 22 21 22h75q21 0 28 -28q109 -441 123 -506q34 151 131 480q8 32 32 32h61q22 0 31 -29q107 -365 134 -483q34 163 118 503q7 31 30 31h64q22 0 22 -21q0 -14 -5 -34l-166 -628
q-6 -27 -31 -27h-64q-26 0 -33 28zM420 827q0 -61 -59 -61q-57 0 -57 60q0 62 57 62q59 0 59 -61zM616 827q0 -61 -59 -61q-57 0 -57 60q0 62 57 62q59 0 59 -61z" />
    <glyph glyph-name="wdieresis" unicode="&#x1e85;" horiz-adv-x="755" 
d="M378 328q-17 -64 -104 -307q-9 -23 -32 -23h-56q-24 0 -32 25l-132 439q-5 17 -5 23q0 17 22 17h73q20 0 27 -27q68 -221 89 -312q25 88 97 290q12 31 33 31h49q18 0 30 -30q81 -220 104 -291q26 112 81 311q7 28 28 28h67q21 0 21 -17q0 -8 -6 -28l-132 -436
q-7 -23 -29 -23h-59q-22 0 -30 25q-84 238 -104 305zM351 659q0 -61 -59 -61q-58 0 -58 60q0 62 58 62q59 0 59 -61zM531 659q0 -61 -59 -61q-58 0 -58 60q0 62 58 62q59 0 59 -61z" />
    <glyph glyph-name="Ygrave" unicode="&#x1ef2;" horiz-adv-x="599" 
d="M358 26q0 -28 -26 -28h-65q-25 0 -25 28v272l-220 358q-14 22 -14 31q0 21 20 21h79q21 0 36 -24q117 -191 161 -270q33 62 159 268q9 15 17 20.5t21 5.5h73q18 0 18 -19q0 -9 -12 -30l-222 -358v-275zM275 772l-150 104q-15 11 -15 23q0 14 21 14h81q20 0 40 -16
l123 -101q12 -11 12 -22q0 -14 -18 -14h-54q-20 0 -40 12z" />
    <glyph glyph-name="ygrave" unicode="&#x1ef3;" horiz-adv-x="491" 
d="M190 10l-177 449q-6 15 -6 26q0 17 21 17h73q19 0 29 -27q81 -211 119 -321q35 108 119 320q10 28 28 28h68q22 0 22 -17q0 -11 -6 -26l-204 -520q-18 -44 -32 -75q-25 -53 -54 -78q-40 -36 -115 -36q-60 0 -75 6q-16 6 -16 23q0 38 10 61q5 12 19 12q2 0 18.5 -2
t30.5 -2q35 0 49 11q19 14 39 56q17 35 29 68zM216 596l-117 124q-11 13 -11 21q0 16 21 16h73q18 0 34 -19l96 -122q8 -9 8 -20q0 -16 -20 -16h-46q-23 0 -38 16z" />
    <glyph glyph-name="endash" unicode="&#x2013;" horiz-adv-x="550" 
d="M493 218h-436q-23 0 -23 22v56q0 23 24 23h434q24 0 24 -23v-58q0 -12 -5.5 -16t-17.5 -4z" />
    <glyph glyph-name="emdash" unicode="&#x2014;" horiz-adv-x="849" 
d="M792 218h-735q-23 0 -23 22v56q0 23 24 23h733q24 0 24 -23v-58q0 -12 -5.5 -16t-17.5 -4z" />
    <glyph glyph-name="quoteleft" unicode="&#x2018;" horiz-adv-x="201" 
d="M56 465q-30 0 -30 29q0 58 25 126t63 111q14 17 29 17t37 -14q14 -8 14 -21q0 -14 -8 -24q-51 -69 -51 -189q0 -35 -34 -35h-45z" />
    <glyph glyph-name="quoteright" unicode="&#x2019;" horiz-adv-x="201" 
d="M147 748q29 0 29 -29q0 -61 -24.5 -129t-62.5 -109q-16 -16 -29 -16q-18 0 -37 14q-15 9 -15 21q0 11 9 24q51 67 51 188q0 36 34 36h45z" />
    <glyph glyph-name="quotesinglbase" unicode="&#x201a;" horiz-adv-x="202" 
d="M147 104q29 0 29 -30q0 -60 -24.5 -128.5t-62.5 -108.5q-17 -17 -29 -17q-16 0 -37 15q-15 11 -15 20q0 12 9 25q51 67 51 188q0 36 34 36h45z" />
    <glyph glyph-name="quotedblleft" unicode="&#x201c;" horiz-adv-x="375" 
d="M230 465q-30 0 -30 29q0 60 25 128.5t63 108.5q14 17 29 17t37 -14q15 -9 15 -21q0 -11 -9 -24q-51 -67 -51 -189q0 -35 -34 -35h-45zM52 465q-30 0 -30 29q0 60 25 128.5t63 108.5q14 17 29 17t37 -14q15 -9 15 -21q0 -13 -9 -24q-51 -69 -51 -189q0 -35 -34 -35h-45z
" />
    <glyph glyph-name="quotedblright" unicode="&#x201d;" horiz-adv-x="375" 
d="M147 748q29 0 29 -29q0 -61 -24.5 -129t-62.5 -109q-16 -16 -29 -16q-18 0 -37 14q-15 9 -15 21q0 11 9 24q51 67 51 188q0 36 34 36h45zM325 748q29 0 29 -29q0 -61 -24.5 -129t-62.5 -109q-16 -16 -29 -16q-18 0 -37 14q-15 9 -15 21q0 11 9 24q51 70 51 188
q0 36 34 36h45z" />
    <glyph glyph-name="quotedblbase" unicode="&#x201e;" horiz-adv-x="376" 
d="M147 104q29 0 29 -30q0 -60 -24.5 -128.5t-62.5 -108.5q-17 -17 -29 -17q-9 0 -36 15q-16 10 -16 20q0 12 9 25q51 67 51 188q0 36 34 36h45zM325 104q29 0 29 -30q0 -60 -24.5 -128.5t-62.5 -108.5q-17 -17 -29 -17q-9 0 -36 15q-16 10 -16 20q0 12 9 25q51 70 51 188
q0 36 34 36h45z" />
    <glyph glyph-name="dagger" unicode="&#x2020;" horiz-adv-x="475" 
d="M288 -63q0 -23 -21 -23h-60q-21 0 -21 23v479h-134q-19 0 -19 18v63q0 19 18 19h135v177q0 23 22 23h60q20 0 20 -23v-177h135q11 0 15 -4t4 -14v-65q0 -17 -18 -17h-136v-479z" />
    <glyph glyph-name="daggerdbl" unicode="&#x2021;" horiz-adv-x="475" 
d="M288 -63q0 -23 -21 -23h-60q-21 0 -21 23v175h-134q-19 0 -19 19v63q0 19 18 19h135v206h-134q-19 0 -19 18v64q0 19 18 19h135v173q0 23 22 23h60q20 0 20 -23v-173h135q11 0 15 -4t4 -14v-65q0 -18 -18 -18h-136v-206h135q11 0 15 -4t4 -14v-65q0 -18 -18 -18h-136
v-175z" />
    <glyph glyph-name="bullet" unicode="&#x2022;" horiz-adv-x="363" 
d="M312 262q0 -137 -131 -137q-130 0 -130 135q0 137 130 137q64 0 97.5 -31.5t33.5 -103.5z" />
    <glyph glyph-name="ellipsis" unicode="&#x2026;" horiz-adv-x="980" 
d="M258 60q0 -74 -72 -74q-70 0 -70 73q0 75 72 75q33 0 51.5 -16t18.5 -58zM561 60q0 -74 -72 -74q-71 0 -71 73q0 75 72 75q33 0 52 -16t19 -58zM864 60q0 -74 -72 -74q-70 0 -70 73q0 75 72 75q33 0 51.5 -16t18.5 -58z" />
    <glyph glyph-name="perthousand" unicode="&#x2030;" horiz-adv-x="1239" 
d="M357 474q0 -126 -37 -172t-127 -46q-87 0 -124 45t-37 169t42 169t125 45q89 0 123.5 -41.5t34.5 -168.5zM275 473q0 90 -16 118t-63 28q-45 0 -64 -30t-19 -119q0 -91 18 -120.5t62 -29.5q31 0 47.5 10.5t25.5 44t9 98.5zM292 -15q-10 -17 -24 -17h-21q-13 0 -13 12
q0 8 6 20l333 689q11 22 24 22h23q13 0 13 -13q0 -8 -8 -24zM831 210q0 -126 -37 -172t-128 -46q-87 0 -123.5 45t-36.5 169t42 169t124 45q60 0 92.5 -15.5t49.5 -61t17 -133.5zM748 209q0 88 -16 115.5t-62 27.5q-44 0 -63 -29t-19 -117q0 -89 18.5 -118t60.5 -29
q46 0 63.5 28.5t17.5 121.5zM1208 210q0 -126 -37 -172t-128 -46q-87 0 -123.5 45t-36.5 169t42 169t124 45q60 0 92.5 -15.5t49.5 -61t17 -133.5zM1125 209q0 88 -16.5 115.5t-62.5 27.5q-44 0 -62.5 -29t-18.5 -117q0 -89 18.5 -118t60.5 -29q46 0 63.5 28.5t17.5 121.5z
" />
    <glyph glyph-name="guilsinglleft" unicode="&#x2039;" horiz-adv-x="311" 
d="M144 265l124 -161q9 -12 9 -24q0 -14 -15 -14h-61q-17 0 -35 21l-122 149q-13 17 -13 28t10 25l124 154q19 23 36 23h61q15 0 15 -13t-10 -26z" />
    <glyph glyph-name="guilsinglright" unicode="&#x203a;" horiz-adv-x="311" 
d="M158 266l-122 162q-11 12 -11 24q0 14 16 14h61q17 0 35 -21l122 -149q13 -17 13 -29q0 -11 -10 -24l-125 -155q-17 -22 -36 -22h-60q-16 0 -16 13q0 12 11 26z" />
    <glyph glyph-name="fraction" unicode="&#x2044;" horiz-adv-x="84" 
d="M-100 -15q-10 -17 -24 -17h-20q-13 0 -13 13q0 7 6 19l332 689q11 22 24 22h24q13 0 13 -13q-1 -7 -10 -24z" />
    <glyph glyph-name="zero.superior" unicode="&#x2070;" 
d="M356 630q0 -127 -36.5 -172.5t-126.5 -45.5q-87 0 -124 45t-37 169t42 169t125 45q60 0 91.5 -15.5t48.5 -61t17 -133.5zM276 629q0 88 -16.5 114.5t-63.5 26.5q-45 0 -64 -28t-19 -116q0 -90 18 -118t62 -28q47 0 65 28t18 121z" />
    <glyph glyph-name="four.superior" unicode="&#x2074;" 
d="M305 437q0 -18 -18 -18h-43q-17 0 -17 18v76h-182q-19 0 -19 16v34q0 12 8 25l142 229q10 15 25 15h49q13 0 13 -10q0 -7 -5 -16l-143 -222h112v74q0 18 17 18h44q17 0 17 -17v-75h41q18 0 18 -15v-41q0 -15 -18 -15h-41v-76z" />
    <glyph glyph-name="five.superior" unicode="&#x2075;" 
d="M129 675q32 8 69 8q74 0 105.5 -28.5t31.5 -102.5q0 -70 -39 -105t-130 -35q-68 0 -109 11q-16 5 -16 17q0 15 10 42q4 11 14 11q1 0 24 -5q33 -6 75 -6q49 0 68.5 15t19.5 51q0 40 -21 52.5t-64 12.5q-34 0 -74 -8q-15 -3 -19 -3q-18 0 -18 20q0 11 2 27l14 164
q2 19 17 19h209q16 0 16 -15v-41q0 -15 -17 -15h-160z" />
    <glyph glyph-name="six.superior" unicode="&#x2076;" 
d="M118 648q13 15 42 25.5t60 10.5q70 0 100.5 -31t30.5 -103q0 -139 -154 -139q-84 0 -121 45.5t-37 153.5q0 119 40.5 174.5t146.5 55.5q56 0 88 -9q11 -4 11 -16q0 -17 -7 -43q-2 -9 -12 -9l-24 4q-26 3 -53 3q-67 0 -87 -25t-24 -97zM123 574q-1 -7 -1 -24q0 -72 74 -72
q42 0 60 16.5t18 55.5q0 35 -17 51.5t-54 16.5q-52 0 -72 -26q-6 -8 -8 -18z" />
    <glyph glyph-name="seven.superior" unicode="&#x2077;" 
d="M247 762q-44 -1 -200 -1q-18 0 -18 14v41q0 16 17 16h279q16 0 16 -14v-23q0 -18 -5 -30q-104 -220 -148 -328q-6 -18 -23 -18h-53q-7 0 -11 4.5t-4 8.5q0 9 5 19q61 149 145 311z" />
    <glyph glyph-name="eight.superior" unicode="&#x2078;" 
d="M266 637q82 -12 82 -101q0 -64 -36.5 -94t-121.5 -30q-84 0 -120.5 29t-36.5 91q0 85 84 105q-72 18 -72 93q0 57 36.5 83.5t113.5 26.5q76 0 109.5 -25.5t33.5 -83.5q0 -75 -72 -94zM258 721q0 28 -14.5 40t-52.5 12t-52.5 -12.5t-14.5 -40.5q0 -53 67 -53t67 54z
M266 539q0 60 -75 60q-78 0 -78 -61q0 -35 19.5 -48t58.5 -13q75 0 75 62z" />
    <glyph glyph-name="nine.superior" unicode="&#x2079;" 
d="M265 609q-13 -17 -41 -28t-59 -11q-71 0 -100.5 30t-29.5 102q0 138 158 138q82 0 117 -45t35 -154q0 -119 -39.5 -174t-145.5 -55q-64 0 -92 9q-14 4 -14 15q0 12 8 42q2 11 14 11q9 0 27 -3q24 -4 55 -4q65 0 85 26.5t22 100.5zM261 681q0 3 0.5 7t0.5 6q0 80 -70 80
q-43 0 -62 -16.5t-19 -55.5q0 -36 16 -51.5t53 -15.5q52 0 73 26q8 8 8 20z" />
    <glyph glyph-name="parenleft.superior" unicode="&#x207d;" horiz-adv-x="218" 
d="M108 610q0 -73 15.5 -125t33 -75t49.5 -54q6 -6 6 -11q0 -7 -7 -14q-7 -5 -13 -5q-9 0 -22 7q-133 76 -133 276q0 109 39 175.5t93 97.5q14 8 22 8q6 0 14 -6q7 -7 7 -13q0 -7 -4 -10q-48 -41 -74 -97t-26 -154z" />
    <glyph glyph-name="parenright.superior" unicode="&#x207e;" horiz-adv-x="218" 
d="M110 606q0 105 -25 158t-75 98q-4 4 -4 10q0 7 7 12q8 6 13 6q8 0 22 -7q53 -30 93 -95.5t40 -180.5q0 -109 -39 -175.5t-93 -98.5q-13 -8 -22 -8q-8 0 -14 6q-8 8 -8 14q0 5 5 10q48 39 74 96t26 155z" />
    <glyph glyph-name="n.superior" unicode="&#x207f;" horiz-adv-x="387" 
d="M135 280q0 -17 -16 -17h-51q-15 0 -15 17v272q0 19 17 19h45q13 0 16 -14l1 -9q31 29 104 29q80 0 94 -40q7 -18 7 -58v-199q0 -17 -16 -17h-52q-15 0 -15 17v174q0 22 -3 32q-7 18 -42 18q-40 0 -58 -8q-10 -7 -12 -9q-4 -6 -4 -18v-189z" />
    <glyph glyph-name="zero.inferior" unicode="&#x2080;" 
d="M356 84q0 -127 -36.5 -172.5t-126.5 -45.5q-87 0 -124 45t-37 169t42 169t125 45q60 0 91.5 -15.5t48.5 -61t17 -133.5zM276 83q0 88 -16.5 114.5t-63.5 26.5q-45 0 -64 -28t-19 -116q0 -90 18 -118t62 -28q47 0 65 28t18 121z" />
    <glyph glyph-name="one.inferior" unicode="&#x2081;" 
d="M172 204l-50 -23q-10 -4 -15 -4q-7 0 -11 9q-16 37 -16 45t10 12l85 38q12 5 25 5h38q16 0 16 -16v-379q0 -18 -17 -18h-49q-16 0 -16 18v313z" />
    <glyph glyph-name="two.inferior" unicode="&#x2082;" 
d="M325 -126h-273q-17 0 -17 14v36q0 12 11 20q107 73 162 126q43 40 43 86q0 35 -18.5 51t-63.5 16q-38 0 -70 -8q-20 -4 -23 -4q-10 0 -12 8q-8 32 -8 44t15 16q52 15 114 15q85 0 116.5 -32t31.5 -90q0 -76 -41 -118q-43 -45 -142 -108q38 1 175 1q16 0 16 -16v-42
q0 -15 -16 -15z" />
    <glyph glyph-name="three.inferior" unicode="&#x2083;" 
d="M233 92q92 -7 92 -101q0 -63 -35.5 -94t-126.5 -31q-65 0 -107 11q-16 5 -16 16q0 20 9 44q4 10 13 10q1 0 23 -5q31 -6 74 -6q52 0 68 14t16 42q0 33 -19 46t-69 13h-17q-15 0 -15 18v36q0 17 15 17h17q42 0 58.5 13t16.5 39q0 29 -15 39t-58 10q-39 0 -65 -7
q-18 -4 -23 -4q-9 0 -12 8q-6 24 -6 43q0 12 16 17q47 14 109 14q84 0 109.5 -26t25.5 -89q0 -33 -19.5 -56t-58.5 -31z" />
    <glyph glyph-name="four.inferior" unicode="&#x2084;" 
d="M305 -109q0 -18 -18 -18h-43q-17 0 -17 18v76h-182q-19 0 -19 16v34q0 12 8 25l142 229q10 15 25 15h49q13 0 13 -10q0 -7 -5 -16l-143 -222h112v74q0 18 17 18h44q17 0 17 -17v-75h41q18 0 18 -15v-41q0 -15 -18 -15h-41v-76z" />
    <glyph glyph-name="five.inferior" unicode="&#x2085;" 
d="M129 129q32 8 69 8q74 0 105.5 -28.5t31.5 -102.5q0 -70 -39 -105t-130 -35q-68 0 -109 11q-16 5 -16 17q0 15 10 42q4 11 14 11q1 0 24 -5q33 -6 75 -6q49 0 68.5 15t19.5 51q0 40 -21 52.5t-64 12.5q-34 0 -74 -8q-15 -3 -19 -3q-18 0 -18 20q0 11 2 27l14 164
q2 19 17 19h209q16 0 16 -15v-41q0 -15 -17 -15h-160z" />
    <glyph glyph-name="six.inferior" unicode="&#x2086;" 
d="M118 102q13 15 42 25.5t60 10.5q70 0 100.5 -31t30.5 -103q0 -139 -154 -139q-84 0 -121 45.5t-37 153.5q0 119 40.5 174.5t146.5 55.5q56 0 88 -9q11 -4 11 -16q0 -17 -7 -43q-2 -9 -12 -9l-24 4q-25 3 -53 3q-67 0 -87 -25t-24 -97zM123 28q-1 -7 -1 -24q0 -72 74 -72
q42 0 60 16.5t18 55.5q0 35 -17 51.5t-54 16.5q-52 0 -72 -26q-6 -8 -8 -18z" />
    <glyph glyph-name="seven.inferior" unicode="&#x2087;" 
d="M247 216q-44 -1 -200 -1q-18 0 -18 14v41q0 16 17 16h279q16 0 16 -14v-23q0 -18 -5 -30q-104 -220 -148 -328q-6 -18 -23 -18h-53q-7 0 -11 4.5t-4 8.5q0 9 5 19q61 149 145 311z" />
    <glyph glyph-name="eight.inferior" unicode="&#x2088;" 
d="M266 91q82 -12 82 -101q0 -64 -36.5 -94t-121.5 -30q-84 0 -120.5 29t-36.5 91q0 85 84 105q-72 18 -72 93q0 57 36.5 83.5t113.5 26.5q76 0 109.5 -25.5t33.5 -83.5q0 -75 -72 -94zM258 175q0 28 -14.5 40t-52.5 12t-52.5 -12.5t-14.5 -40.5q0 -53 67 -53t67 54zM266 -7
q0 60 -75 60q-78 0 -78 -61q0 -35 19.5 -48t58.5 -13q75 0 75 62z" />
    <glyph glyph-name="nine.inferior" unicode="&#x2089;" 
d="M265 63q-13 -17 -41 -28t-59 -11q-71 0 -100.5 30t-29.5 102q0 138 158 138q82 0 117 -45t35 -154q0 -119 -39.5 -174t-145.5 -55q-64 0 -92 9q-14 4 -14 15q0 12 8 42q2 11 14 11q9 0 27 -3q24 -4 55 -4q65 0 85 26.5t22 100.5zM261 135q0 3 0.5 7t0.5 6q0 80 -70 80
q-43 0 -62 -16.5t-19 -55.5q0 -36 16 -51.5t53 -15.5q52 0 73 26q8 8 8 20z" />
    <glyph glyph-name="parenleft.inferior" unicode="&#x208d;" horiz-adv-x="218" 
d="M108 64q0 -73 15.5 -125t33 -75t49.5 -54q6 -6 6 -11q0 -7 -7 -14q-7 -5 -13 -5q-9 0 -22 7q-133 76 -133 276q0 109 39 175.5t93 97.5q14 8 22 8q6 0 14 -6q7 -7 7 -13q0 -7 -4 -10q-48 -41 -74 -97t-26 -154z" />
    <glyph glyph-name="parenright.inferior" unicode="&#x208e;" horiz-adv-x="218" 
d="M110 60q0 105 -25 158t-75 98q-4 4 -4 10q0 7 7 12q8 6 13 6q8 0 22 -7q53 -30 93 -95.5t40 -180.5q0 -109 -39 -175.5t-93 -98.5q-13 -8 -22 -8q-8 0 -14 6q-8 8 -8 14q0 5 5 10q48 39 74 96t26 155z" />
    <glyph glyph-name="Euro" unicode="&#x20ac;" horiz-adv-x="637" 
d="M469 378h-205v-37v-38h205q20 0 20 -20v-20q0 -21 -20 -21h-201q9 -78 45 -115t113 -37q70 0 121 18q19 6 29 6q9 0 15 -13q14 -37 14 -59q0 -18 -20 -25q-71 -29 -180 -29q-114 0 -175 57t-74 197h-67q-21 0 -21 21v20q0 20 21 20h64v24q0 34 1 51h-65q-21 0 -21 20v20
q0 20 21 20h69q15 132 78.5 191t196.5 59q86 0 136 -14q21 -6 21 -23q0 -27 -13 -64q-3 -12 -16 -12q-3 0 -7.5 1t-11.5 2t-12 2q-35 7 -95 7q-80 0 -118 -36t-48 -113h200q20 0 20 -20v-20q0 -20 -20 -20z" />
    <glyph glyph-name="afii61289" unicode="&#x2113;" horiz-adv-x="471" 
d="M200 217q4 -72 32.5 -103.5t81.5 -31.5q45 0 88 23q12 7 21 7q19 0 25 -16q13 -30 13 -44q0 -16 -16 -25q-66 -40 -147 -40q-158 0 -189 167l-17 -11l-20 -12q-12 -6 -19 -6q-14 0 -30 28q-10 20 -10 26q0 14 16 23q30 18 63 41q-6 66 -6 119q0 136 21 200
q41 126 175 126q73 0 109 -38t36 -108q0 -90 -70 -181q-45 -58 -157 -144zM188 315q72 60 107 108q42 55 42 113q0 35 -15.5 48.5t-45.5 13.5q-48 0 -70 -46q-21 -43 -21 -156q0 -27 3 -81z" />
    <glyph glyph-name="trademark" unicode="&#x2122;" horiz-adv-x="804" 
d="M211 381q0 -18 -17 -18h-36q-15 0 -15 18v262h-85q-16 0 -16 15v32q0 16 16 16h236q18 0 18 -16v-32q0 -15 -18 -15h-83v-262zM440 380q0 -17 -14 -17h-37q-15 0 -15 18v305q0 20 16 20h62q15 0 20 -12q60 -129 77 -171q18 46 72 171q5 12 20 12h60q17 0 17 -20v-304
q0 -19 -16 -19h-36q-15 0 -15 19q0 200 2 249q-11 -34 -79 -183q-4 -11 -15 -11h-23q-12 0 -17 12q-67 147 -80 182q1 -50 1 -251z" />
    <glyph glyph-name="Omega" unicode="&#x2126;" horiz-adv-x="740" 
d="M335 27q0 -27 -31 -27h-210q-15 0 -21 5t-6 19v52q0 16 6 22t20 6h157q-92 36 -135 97.5t-43 177.5q0 157 73 233.5t230 76.5q159 0 224.5 -75t65.5 -230q0 -112 -42 -176.5t-133 -103.5h154q15 0 21.5 -6t6.5 -22v-49q0 -16 -5 -21.5t-21 -5.5h-210q-31 0 -31 27v85
q0 26 22 37q59 26 88.5 78t29.5 143q0 122 -39 168.5t-133 46.5q-96 0 -138 -49.5t-42 -168.5q0 -86 29 -137.5t90 -81.5q23 -11 23 -37v-84z" />
    <glyph glyph-name="estimated" unicode="&#x212e;" horiz-adv-x="845" 
d="M803 336h-616q-6 0 -6 -4v-195q0 -10 10 -22q95 -106 233 -106q147 0 244 118h57q-54 -64 -133 -101.5t-169 -37.5q-158 0 -269.5 105t-111.5 253t111.5 252.5t269.5 104.5t269 -104.5t111 -252.5v-10zM665 362v195q0 13 -11 24q-98 101 -230 101q-135 0 -232 -105
q-11 -9 -11 -24v-191q0 -5 6 -5h472q6 0 6 5z" />
    <glyph glyph-name="onethird" unicode="&#x2153;" horiz-adv-x="862" 
d="M261 -15q-10 -17 -24 -17h-20q-13 0 -13 13q0 7 6 19l332 689q11 22 24 22h24q13 0 13 -13q-1 -7 -10 -24zM179 594l-50 -23q-10 -4 -15 -4q-7 0 -11 10q-16 34 -16 44q0 8 10 12l85 38q12 5 25 5h38q16 0 16 -16v-379q0 -18 -17 -18h-49q-16 0 -16 18v313zM692 218
q92 -7 92 -101q0 -63 -35.5 -94t-126.5 -31q-65 0 -107 11q-16 5 -16 16q0 20 9 44q4 10 13 10q1 0 23 -5q32 -6 74 -6q52 0 68 14t16 42q0 33 -19 46t-69 13h-17q-15 0 -15 18v36q0 17 15 17h17q42 0 58.5 13t16.5 39q0 29 -15 39t-58 10q-39 0 -65 -7q-18 -4 -23 -4
q-9 0 -12 8q-6 24 -6 43q0 12 16 17q47 14 109 14q84 0 109.5 -26t25.5 -89q0 -33 -19.5 -56t-58.5 -31z" />
    <glyph glyph-name="twothirds" unicode="&#x2154;" horiz-adv-x="862" 
d="M313 -15q-10 -17 -24 -17h-20q-13 0 -13 13q0 7 6 19l332 689q11 22 24 22h24q13 0 13 -13q-1 -7 -10 -24zM340 264h-273q-17 0 -17 14v36q0 12 11 20q107 73 162 126q43 40 43 86q0 35 -18.5 51t-63.5 16q-38 0 -70 -8q-20 -4 -23 -4q-10 0 -12 8q-8 32 -8 44t15 16
q52 15 114 15q85 0 116.5 -32t31.5 -90q0 -76 -41 -118q-43 -45 -142 -108q38 1 175 1q16 0 16 -16v-42q0 -15 -16 -15zM730 218q92 -7 92 -101q0 -63 -35.5 -94t-126.5 -31q-65 0 -107 11q-16 5 -16 16q0 20 9 44q4 10 13 10q1 0 23 -5q31 -6 74 -6q52 0 68 14t16 42
q0 33 -19 46t-69 13h-17q-15 0 -15 18v36q0 17 15 17h17q42 0 58.5 13t16.5 39q0 29 -15 39t-58 10q-39 0 -65 -7q-18 -4 -23 -4q-9 0 -12 8q-6 24 -6 43q0 12 16 17q47 14 109 14q84 0 109.5 -26t25.5 -89q0 -33 -19.5 -56t-58.5 -31z" />
    <glyph glyph-name="oneeighth" unicode="&#x215b;" horiz-adv-x="862" 
d="M247 -15q-10 -17 -24 -17h-20q-13 0 -13 13q0 7 6 19l332 689q11 22 24 22h24q13 0 13 -13q-1 -7 -10 -24zM163 594l-50 -23q-10 -4 -15 -4q-7 0 -11 10q-16 34 -16 44q0 8 10 12l85 38q12 5 25 5h38q16 0 16 -16v-379q0 -18 -17 -18h-49q-16 0 -16 18v313zM710 217
q82 -12 82 -101q0 -64 -36.5 -94t-121.5 -30q-84 0 -120.5 29t-36.5 91q0 85 84 105q-72 18 -72 93q0 57 36.5 83.5t113.5 26.5q76 0 109.5 -25.5t33.5 -83.5q0 -75 -72 -94zM702 301q0 28 -14.5 40t-52.5 12t-52.5 -12.5t-14.5 -40.5q0 -53 67 -53t67 54zM710 119
q0 60 -75 60q-78 0 -78 -61q0 -35 19.5 -48t58.5 -13q75 0 75 62z" />
    <glyph glyph-name="threeeighths" unicode="&#x215c;" horiz-adv-x="862" 
d="M281 -15q-10 -17 -24 -17h-20q-13 0 -13 13q0 7 6 19l332 689q11 22 24 22h24q13 0 13 -13q-1 -7 -10 -24zM241 482q92 -7 92 -101q0 -63 -35.5 -94t-126.5 -31q-66 0 -108 11q-16 5 -16 16q0 15 11 44q4 10 13 10q1 0 23 -5q32 -6 73 -6q52 0 68 14t16 42q0 33 -19 46
t-69 13h-17q-15 0 -15 18v36q0 17 15 17h17q42 0 58.5 13t16.5 39q0 29 -15 39t-58 10q-37 0 -65 -6q-18 -4 -23 -4q-9 0 -12 8q-6 24 -6 42q0 12 16 17q47 14 109 14q84 0 109.5 -26t25.5 -89q0 -33 -19.5 -56t-58.5 -31zM732 217q82 -12 82 -101q0 -64 -36.5 -94
t-121.5 -30q-84 0 -120.5 29t-36.5 91q0 85 84 105q-72 18 -72 93q0 57 36.5 83.5t113.5 26.5q76 0 109.5 -25.5t33.5 -83.5q0 -75 -72 -94zM724 301q0 28 -14.5 40t-52.5 12t-52.5 -12.5t-14.5 -40.5q0 -53 67 -53t67 54zM732 119q0 60 -75 60q-78 0 -78 -61
q0 -35 19.5 -48t58.5 -13q75 0 75 62z" />
    <glyph glyph-name="fiveeighths" unicode="&#x215d;" horiz-adv-x="862" 
d="M285 -15q-10 -17 -24 -17h-20q-13 0 -13 13q0 7 6 19l332 689q11 22 24 22h24q13 0 13 -13q-1 -7 -10 -24zM140 519q32 8 69 8q74 0 105.5 -28.5t31.5 -102.5q0 -70 -39 -105t-130 -35q-68 0 -109 11q-16 5 -16 17q0 15 10 42q4 11 14 11q2 0 24 -5q33 -6 75 -6
q49 0 68.5 15t19.5 51q0 40 -21 52.5t-64 12.5q-34 0 -74 -8q-15 -3 -19 -3q-18 0 -18 20q0 11 2 27l14 164q2 19 17 19h209q16 0 16 -15v-41q0 -15 -17 -15h-160zM732 217q82 -12 82 -101q0 -64 -36.5 -94t-121.5 -30q-84 0 -120.5 29t-36.5 91q0 85 84 105q-72 18 -72 93
q0 57 36.5 83.5t113.5 26.5q76 0 109.5 -25.5t33.5 -83.5q0 -75 -72 -94zM724 301q0 28 -14.5 40t-52.5 12t-52.5 -12.5t-14.5 -40.5q0 -53 67 -53t67 54zM732 119q0 60 -75 60q-78 0 -78 -61q0 -35 19.5 -48t58.5 -13q75 0 75 62z" />
    <glyph glyph-name="seveneighths" unicode="&#x215e;" horiz-adv-x="862" 
d="M238 -15q-10 -17 -24 -17h-20q-13 0 -13 13q0 7 6 19l332 689q11 22 24 22h24q13 0 13 -13q-1 -7 -10 -24zM265 606q-44 -1 -200 -1q-18 0 -18 14v41q0 16 17 16h279q16 0 16 -14v-23q0 -18 -5 -30q-104 -220 -148 -328q-6 -18 -23 -18h-53q-7 0 -11 4.5t-4 8.5q0 9 5 19
q61 149 145 311zM695 217q82 -12 82 -101q0 -64 -36.5 -94t-121.5 -30q-84 0 -120.5 29t-36.5 91q0 85 84 105q-72 18 -72 93q0 57 36.5 83.5t113.5 26.5q76 0 109.5 -25.5t33.5 -83.5q0 -75 -72 -94zM687 301q0 28 -14.5 40t-52.5 12t-52.5 -12.5t-14.5 -40.5q0 -53 67 -53
t67 54zM695 119q0 60 -75 60q-78 0 -78 -61q0 -35 19.5 -48t58.5 -13q75 0 75 62z" />
    <glyph glyph-name="arrowleft" unicode="&#x2190;" horiz-adv-x="768" 
d="M694 389q39 0 39 -32v-40q0 -34 -34 -34q-418 0 -497 2l205 -191q17 -15 17 -31q0 -11 -8 -21l-24 -28q-10 -10 -23 -12q-10 0 -23 11l-300 298q-11 10 -11 25t11 25l304 302q10 11 21 11q12 0 22 -11l23 -26q11 -11 11 -22q0 -15 -12 -26l-213 -202q77 2 492 2z" />
    <glyph glyph-name="arrowup" unicode="&#x2191;" horiz-adv-x="768" 
d="M331 35q0 407 2 484q-59 -66 -206 -202q-11 -11 -24 -11t-21 8l-22 24q-12 12 -12 24t11 23l303 302q11 11 24 11q14 0 24 -11l299 -299q11 -11 11 -23q0 -13 -12 -25l-23 -24q-9 -9 -20 -9q-16 0 -32 16l-194 196q1 -78 1 -484q0 -35 -31 -35h-47q-31 0 -31 35z" />
    <glyph glyph-name="arrowright" unicode="&#x2192;" horiz-adv-x="768" 
d="M74 388q413 0 491 -2l-214 203q-12 11 -12 25q0 13 10 23l24 25q11 12 24 12q8 0 21 -11l304 -302q11 -10 11 -25t-11 -25l-301 -298q-10 -10 -23 -10q-11 0 -22 11l-25 28q-9 9 -9 21q0 17 16 31l208 192q-80 -2 -498 -2q-15 0 -24 9t-9 25v38q0 32 39 32z" />
    <glyph glyph-name="arrowdown" unicode="&#x2193;" horiz-adv-x="768" 
d="M331 635q0 40 31 40h47q31 0 31 -35q0 -407 -1 -485l194 197q16 16 32 16q11 0 19 -8l24 -25q12 -12 12 -24q0 -13 -11 -24l-298 -299q-12 -12 -25 -12q-12 0 -24 12l-303 302q-11 11 -11 23t12 24l24 24q8 8 21 8t24 -11q110 -103 204 -202q-2 78 -2 479z" />
    <glyph glyph-name="uni2196" unicode="&#x2196;" horiz-adv-x="768" 
d="M652 153q17 -15 17 -28q0 -11 -15 -28q-34 -37 -47 -37q-11 0 -24 11l-346 346q4 -60 4 -279q0 -21 -10 -32q-8 -8 -21 -8h-38q-16 0 -24 8q-8 10 -8 27v419q0 18 10 26q12 10 29 10h425q16 0 24 -8q8 -10 8 -25v-32q0 -15 -8 -25q-7 -8 -27 -8q-241 0 -303 5z" />
    <glyph glyph-name="uni2197" unicode="&#x2197;" horiz-adv-x="768" 
d="M190 77q-16 -16 -28 -16q-13 0 -25 12q-26 27 -32 36t-6 17q0 12 12 23l356 341q-140 -5 -290 -5q-21 0 -31 9q-8 8 -8 23v39q0 14 8 24q8 8 25 8h423q15 0 25 -10q9 -8 9 -30v-422q0 -17 -8 -25q-8 -9 -24 -9h-37q-17 0 -23 8q-9 10 -9 28q0 211 3 286
q-90 -96 -340 -337z" />
    <glyph glyph-name="uni2198" unicode="&#x2198;" horiz-adv-x="768" 
d="M116 520q-16 14 -16 28q0 13 14 27q35 36 48 36q12 0 23 -10q295 -288 348 -346q0 7 -1.5 40.5t-2.5 96.5t-1 142q0 21 10 32q9 9 20 9h40q12 0 23 -9q8 -8 8 -26v-420q0 -16 -10 -26q-9 -10 -29 -10h-425q-16 0 -24 8q-7 7 -7 25v34q0 17 7 24q10 9 30 9q196 0 296 -4z
" />
    <glyph glyph-name="uni2199" unicode="&#x2199;" horiz-adv-x="768" 
d="M579 598q14 14 27 14q12 0 25 -12q37 -36 37 -51q0 -14 -12 -26l-356 -342q145 5 291 5q21 0 30 -10q9 -7 9 -22v-37q0 -16 -8 -24q-9 -9 -25 -9h-422q-13 0 -25 12q-10 9 -10 30v422q0 15 8 25q10 8 25 8h38q15 0 23 -8q8 -9 8 -29q0 -183 -4 -283q83 88 341 337z" />
    <glyph glyph-name="partialdiff" unicode="&#x2202;" horiz-adv-x="558" 
d="M394 394q-4 120 -33.5 165t-101.5 45q-59 0 -99 -13q-16 -4 -18 -4q-19 0 -24 17q-9 27 -9 37q0 19 20 27q57 20 148 20q83 0 129.5 -34t68.5 -118t22 -237q0 -155 -53.5 -233.5t-180.5 -78.5q-99 0 -152.5 50.5t-53.5 166.5q0 119 54.5 172t158.5 53q83 0 124 -35z
M398 300q-37 47 -122 47q-63 0 -94.5 -29.5t-31.5 -108.5q0 -78 30 -108.5t88 -30.5q51 0 78.5 20t40.5 74q11 46 11 136z" />
    <glyph glyph-name="Delta" unicode="&#x2206;" horiz-adv-x="693" 
d="M672 41q4 -9 4 -19q0 -22 -25 -22h-609q-26 0 -26 22q0 5 4 17l253 611q11 26 34 26h85q23 0 33 -26zM348 558q-21 -62 -183 -453h361q-164 409 -178 453z" />
    <glyph glyph-name="product" unicode="&#x220f;" horiz-adv-x="715" 
d="M210 -102q0 -17 -6 -24t-23 -7h-54q-30 0 -30 30v747q0 32 32 32h459q30 0 30 -33v-745q0 -16 -6 -23.5t-23 -7.5h-57q-16 0 -22.5 6.5t-6.5 23.5v675h-293v-674z" />
    <glyph glyph-name="summation" unicode="&#x2211;" horiz-adv-x="602" 
d="M534 -131h-463q-34 0 -34 31v41q0 17 17 39l230 307l-215 286q-16 21 -16 36v38q0 29 33 29h435q32 0 32 -30v-48q0 -16 -7.5 -20.5t-27.5 -4.5h-314l193 -249q15 -19 15 -36q0 -18 -19 -41l-216 -275h359q17 0 24.5 -5.5t7.5 -22.5v-51q0 -16 -7 -20t-27 -4z" />
    <glyph glyph-name="minus" unicode="&#x2212;" horiz-adv-x="701" 
d="M611 281q0 -27 -24 -27h-474q-23 0 -23 27v28q0 28 23 28h474q24 0 24 -28v-28z" />
    <glyph glyph-name="uni2215" unicode="&#x2215;" horiz-adv-x="84" 
d="M-100 -15q-10 -17 -24 -17h-20q-13 0 -13 13q0 7 6 19l332 689q11 22 24 22h24q13 0 13 -13q-1 -7 -10 -24z" />
    <glyph glyph-name="uni2219" unicode="&#x2219;" horiz-adv-x="233" 
d="M188 269q0 -73 -72 -73q-71 0 -71 72q0 75 72 75q33 0 52 -16t19 -58z" />
    <glyph glyph-name="radical" unicode="&#x221a;" horiz-adv-x="636" 
d="M359 -157q-8 -24 -27 -24h-44q-17 0 -29 21l-126 244l-44 -20q-13 -5 -18 -5q-10 0 -17 15q-12 25 -12 35q0 13 17 21l100 46q8 5 19 5q10 0 18 -18l114 -225l219 735q7 24 29 24h31q23 0 23 -21q0 -5 -2 -13z" />
    <glyph glyph-name="infinity" unicode="&#x221e;" horiz-adv-x="730" 
d="M365 351q82 96 172 96q63 0 102 -42t39 -110q0 -70 -40.5 -114t-108.5 -44q-47 0 -83 23t-81 75q-45 -52 -82.5 -75t-86.5 -23q-64 0 -104.5 40.5t-40.5 110.5q0 72 42 116t108 44q47 0 83.5 -22.5t80.5 -74.5zM319 293q-27 31 -40.5 44.5t-34 25t-43.5 11.5
q-33 0 -55.5 -23t-22.5 -59q0 -35 21.5 -58t54.5 -23t60.5 20t59.5 62zM412 294q40 -47 63.5 -65t54.5 -18q33 0 54.5 22t21.5 58q0 38 -20 59.5t-54 21.5q-58 0 -120 -78z" />
    <glyph glyph-name="integral" unicode="&#x222b;" horiz-adv-x="333" 
d="M137 -16q0 15 -3 81l-17 427q-2 48 -2 79q0 138 132 138q11 0 29 -2l19 -2q23 -3 23 -23q0 -18 -4 -38q-4 -19 -24 -19q-1 0 -14.5 1t-24.5 1q-50 0 -50 -67q0 -24 2 -66l18 -431q3 -78 3 -88q0 -72 -35.5 -104t-104.5 -32q-20 0 -40 4q-19 3 -19 21q0 21 3 38
q6 22 24 22q1 0 13.5 -1.5t21.5 -1.5q25 0 37.5 13.5t12.5 49.5z" />
    <glyph glyph-name="approxequal" unicode="&#x2248;" horiz-adv-x="701" 
d="M155 138q-12 -14 -23 -14q-15 0 -30 15q-12 12 -12 23q0 13 7 22q72 87 148 87q43 0 117 -42q57 -32 94 -32q46 0 88 50q16 18 24 18q10 0 29 -16q14 -11 14 -24q0 -10 -9 -23q-33 -44 -67 -66t-80 -22q-51 0 -117 37q-63 36 -95 36q-45 0 -88 -49zM155 359
q-13 -15 -23 -15q-15 0 -30 15q-12 12 -12 23q0 13 7 22q71 86 148 86q43 0 117 -42q56 -30 94 -30q47 0 88 49q16 18 24 18q10 0 29 -16q14 -11 14 -23q0 -13 -9 -24q-33 -44 -67 -66t-80 -22q-51 0 -117 37q-62 35 -95 35q-45 0 -88 -47z" />
    <glyph glyph-name="notequal" unicode="&#x2260;" horiz-adv-x="701" 
d="M254 26q-9 -19 -27 -19h-19q-20 0 -20 14q0 10 4 18l58 112h-137q-23 0 -23 28v25q0 27 23 27h174l61 126h-235q-23 0 -23 27v26q0 27 23 27h274l57 112q10 20 28 20h19q20 0 20 -16q0 -5 -5 -17l-51 -99h132q24 0 24 -27v-26q0 -27 -24 -27h-170l-62 -126h232
q24 0 24 -27v-25q0 -28 -24 -28h-270z" />
    <glyph glyph-name="lessequal" unicode="&#x2264;" horiz-adv-x="701" 
d="M571 186q0 -24 -18 -24q-4 0 -12 2l-404 179q-20 9 -20 31v39q0 22 20 31l404 182q8 4 13 4q17 0 17 -25v-36q0 -24 -20 -31l-342 -143l342 -140q20 -7 20 -31v-38zM571 27q0 -27 -24 -27h-406q-24 0 -24 27v26q0 27 24 27h406q24 0 24 -27v-26z" />
    <glyph glyph-name="greaterequal" unicode="&#x2265;" horiz-adv-x="701" 
d="M584 375q0 -22 -21 -31l-402 -178q-8 -4 -13 -4q-18 0 -18 24v36q0 23 20 32l342 141l-342 142q-20 9 -20 31v37q0 25 18 25q6 0 12 -3l403 -181q21 -9 21 -31v-40zM584 27q0 -27 -24 -27h-407q-23 0 -23 27v26q0 27 23 27h407q24 0 24 -27v-26z" />
    <glyph glyph-name="lozenge" unicode="&#x25ca;" horiz-adv-x="715" 
d="M304 672q9 21 32 21h48q19 0 30 -20l149 -304q5 -7 5 -21q0 -12 -5 -22l-150 -306q-9 -20 -30 -20h-49q-20 0 -30 20l-155 306q-5 15 -5 22q0 4 5 21zM232 347l129 -255l122 256l-124 255z" />
    <glyph glyph-name="commaaccent" unicode="&#xf6c3;" horiz-adv-x="185" 
d="M136 -66q26 0 26 -29q0 -109 -62 -179q-14 -16 -28 -16q-19 0 -34 11q-13 8 -13 19q0 10 7 24q31 54 31 134q0 36 30 36h43z" />
    <glyph glyph-name="Dotlessi" horiz-adv-x="297" 
d="M206 25q0 -27 -25 -27h-66q-24 0 -24 27v656q0 27 25 27h67q23 0 23 -27v-656z" />
    <glyph glyph-name="Euro.denominator" horiz-adv-x="422" 
d="M313 229h-126v-21v-23h126q14 0 14 -12v-16q0 -12 -14 -12h-123q5 -43 26 -62t68 -19q44 0 75 9q12 3 21 3q7 0 11 -8q11 -24 11 -40q0 -13 -14 -18q-47 -17 -119 -17q-74 0 -113.5 34t-48.5 118h-44q-14 0 -14 12v15q0 13 14 13h42v15v29h-42q-14 0 -14 13v15
q0 14 14 14h46q10 78 51.5 113.5t126.5 35.5q57 0 91 -9q13 -4 13 -18q0 -24 -8 -43q-3 -8 -12 -8q-4 0 -13 1.5t-10 1.5q-36 4 -58 4q-48 0 -70.5 -18.5t-28.5 -59.5h122q14 0 14 -14v-15q0 -13 -14 -13z" />
    <glyph glyph-name="Euro.inferior" horiz-adv-x="422" 
d="M313 103h-126v-21v-23h126q14 0 14 -12v-16q0 -12 -14 -12h-123q5 -43 26 -62t68 -19q44 0 75 9q12 3 21 3q7 0 11 -8q11 -24 11 -40q0 -13 -14 -18q-47 -17 -119 -17q-74 0 -113.5 34t-48.5 118h-44q-14 0 -14 12v15q0 13 14 13h42v15v29h-42q-14 0 -14 13v15
q0 14 14 14h46q10 78 51.5 113.5t126.5 35.5q57 0 91 -9q13 -4 13 -18q0 -24 -8 -43q-3 -8 -12 -8q-4 0 -13 1.5t-10 1.5q-36 4 -58 4q-48 0 -70.5 -18.5t-28.5 -59.5h122q14 0 14 -14v-15q0 -13 -14 -13z" />
    <glyph glyph-name="Euro.numerator" horiz-adv-x="422" 
d="M313 493h-126v-21v-23h126q14 0 14 -12v-16q0 -12 -14 -12h-123q5 -43 26 -62t68 -19q42 0 74 9q16 4 21 4q7 0 12 -9q11 -24 11 -40q0 -13 -14 -18q-47 -17 -119 -17q-74 0 -113.5 34t-48.5 118h-44q-14 0 -14 12v15q0 13 14 13h42v15v29h-42q-14 0 -14 13v15
q0 14 14 14h46q10 78 51.5 113.5t126.5 35.5q57 0 91 -9q13 -4 13 -18q0 -24 -8 -43q-3 -8 -12 -8q-4 0 -13 1.5t-10 1.5q-36 4 -58 4q-48 0 -70.5 -18.5t-28.5 -59.5h122q14 0 14 -14v-15q0 -13 -14 -13z" />
    <glyph glyph-name="Euro.oldstyle" horiz-adv-x="624" 
d="M469 336h-200v-34v-36h200q20 0 20 -19v-19q0 -20 -20 -20h-195q9 -63 39.5 -93t97.5 -30q61 0 112 16q20 5 25 5q9 0 15 -12q15 -40 15 -59q0 -14 -19 -21q-68 -27 -168 -27q-104 0 -160 50t-70 171h-63q-20 0 -20 20v18q0 20 20 20h59v24q0 31 1 46h-60q-20 0 -20 20
v19q0 19 20 19h65q14 114 73.5 165t181.5 51q74 0 127 -11q18 -4 18 -24q0 -31 -9 -60q-4 -12 -16 -12q-1 0 -31 5q-42 7 -89 7q-68 0 -101 -29.5t-43 -91.5h195q20 0 20 -19v-19q0 -20 -20 -20z" />
    <glyph glyph-name="Euro.superior" horiz-adv-x="422" 
d="M313 649h-126v-21v-23h126q14 0 14 -12v-16q0 -12 -14 -12h-123q5 -43 26 -62t68 -19q44 0 75 9q12 3 21 3q7 0 11 -8q11 -24 11 -40q0 -13 -14 -18q-47 -17 -119 -17q-74 0 -113.5 34t-48.5 118h-44q-14 0 -14 12v15q0 13 14 13h42v15v29h-42q-14 0 -14 13v15
q0 14 14 14h46q10 78 51.5 113.5t126.5 35.5q57 0 91 -9q13 -4 13 -18q0 -24 -8 -43q-3 -8 -12 -8q-4 0 -13 1.5t-10 1.5q-36 4 -58 4q-48 0 -70.5 -18.5t-28.5 -59.5h122q14 0 14 -14v-15q0 -13 -14 -13z" />
    <glyph glyph-name="Kgreenlandic" horiz-adv-x="735" 
d="M638 454q-28 0 -28 30q0 61 24 129t63 107q16 18 29 18q12 0 28 -9q15 -9 15 -21q0 -9 -9 -25q-52 -65 -52 -193q0 -36 -34 -36h-36zM206 25q0 -27 -25 -27h-66q-24 0 -24 27v656q0 27 25 27h67q23 0 23 -27v-263h49q32 0 45 19l165 250q13 21 34 21h67q21 0 21 -18
q0 -10 -10 -25l-198 -294l215 -324q13 -19 13 -30q0 -19 -22 -19h-76q-18 0 -31 20l-186 278q-12 18 -39 18h-47v-289z" />
    <glyph glyph-name="S_S" horiz-adv-x="1151" 
d="M358 396q96 -27 131.5 -67t35.5 -126q0 -105 -59.5 -160.5t-198.5 -55.5q-123 0 -204 32q-23 8 -23 30q0 19 11 50q8 23 28 23q11 0 34 -7q74 -26 158 -26q83 0 109 27t26 72q0 41 -20.5 62.5t-89.5 39.5l-89 22q-155 39 -155 197q0 101 59 155.5t193 54.5q106 0 173 -22
q22 -7 22 -30q0 -22 -8 -51q-5 -20 -23 -20q-11 0 -31 5q-73 16 -141 16q-72 0 -99 -25t-27 -72q0 -39 19.5 -61t81.5 -39zM932 396q96 -27 131.5 -67t35.5 -126q0 -105 -59.5 -160.5t-198.5 -55.5q-123 0 -204 32q-23 8 -23 30q0 19 11 50q8 23 28 23q11 0 34 -7
q74 -26 158 -26q83 0 109 27t26 72q0 41 -20.5 62.5t-89.5 39.5l-89 22q-155 39 -155 197q0 101 59 155.5t193 54.5q106 0 173 -22q22 -7 22 -30q0 -22 -8 -51q-5 -20 -23 -20q-11 0 -31 5q-73 16 -141 16q-72 0 -99 -25t-27 -72q0 -39 19.5 -61t81.5 -39z" />
    <glyph glyph-name="a.sc" horiz-adv-x="512" 
d="M127 27q-10 -29 -29 -29h-69q-22 0 -22 17q0 12 6 28l178 457q7 21 30 21h71q21 0 29 -21l178 -461q6 -14 6 -22q0 -19 -21 -19h-69q-20 0 -30 28l-39 102h-180zM257 397q-17 -55 -64 -183h128q-46 123 -64 183z" />
    <glyph glyph-name="a.superior" horiz-adv-x="358" 
d="M229 288q-31 -30 -85 -30q-111 0 -111 99q0 51 37 75q32 20 101 20q31 0 55 -3v12q0 20 -4 29q-8 18 -54 18q-34 0 -69 -5q-21 -3 -22 -3q-9 0 -13 11q-6 27 -6 37q0 13 14 18q39 13 107 13q81 0 108 -25q19 -18 19 -76v-195q0 -20 -18 -20h-37q-20 0 -21 13zM226 396
q-13 1 -44 1q-48 0 -61 -11q-12 -10 -12 -28q0 -39 55 -39q36 0 50 11q7 7 9 10q3 5 3 19v37z" />
    <glyph glyph-name="aacute.sc" horiz-adv-x="512" 
d="M127 27q-10 -29 -29 -29h-69q-22 0 -22 17q0 12 6 28l178 457q7 21 30 21h71q21 0 29 -21l178 -461q6 -14 6 -22q0 -19 -21 -19h-69q-20 0 -30 28l-39 102h-180zM257 397q-17 -55 -64 -183h128q-46 123 -64 183zM270 614q-15 -16 -35 -16h-41q-19 0 -19 16q0 11 7 19
l97 123q13 18 34 18h64q21 0 21 -16q0 -11 -10 -21z" />
    <glyph glyph-name="abreve.sc" horiz-adv-x="512" 
d="M127 27q-10 -29 -29 -29h-69q-22 0 -22 17q0 12 6 28l178 457q7 21 30 21h71q21 0 29 -21l178 -461q6 -14 6 -22q0 -19 -21 -19h-69q-20 0 -30 28l-39 102h-180zM257 397q-17 -55 -64 -183h128q-46 123 -64 183zM390 744q18 0 18 -20q0 -19 -5 -42q-24 -101 -149 -101
q-65 0 -101.5 28.5t-45.5 74.5q-3 15 -3 37q0 23 21 23h32q22 0 25 -20q5 -33 20 -48t53 -15q41 0 56 14.5t21 47.5q4 21 24 21h34z" />
    <glyph glyph-name="acircumflex.sc" horiz-adv-x="512" 
d="M127 27q-10 -29 -29 -29h-69q-22 0 -22 17q0 12 6 28l178 457q7 21 30 21h71q21 0 29 -21l178 -461q6 -14 6 -22q0 -19 -21 -19h-69q-20 0 -30 28l-39 102h-180zM257 397q-17 -55 -64 -183h128q-46 123 -64 183zM160 585h-43q-20 0 -20 17q0 10 9 20l88 122q18 23 35 23
h63q16 0 33 -22l89 -124q8 -10 8 -19q0 -17 -20 -17h-44q-17 0 -32 17l-68 82l-66 -81q-13 -18 -32 -18z" />
    <glyph glyph-name="acute.cap" horiz-adv-x="197" 
d="M72 772q-17 -12 -38 -12h-54q-19 0 -19 14q0 11 12 22l124 101q19 16 40 16h80q21 0 21 -14t-14 -23z" />
    <glyph glyph-name="acute.sc" horiz-adv-x="197" 
d="M82 614q-15 -16 -35 -16h-41q-19 0 -19 16q0 11 7 19l97 123q14 18 34 18h64q21 0 21 -16q0 -11 -10 -21z" />
    <glyph glyph-name="adieresis.sc" horiz-adv-x="512" 
d="M127 27q-10 -29 -29 -29h-69q-22 0 -22 17q0 12 6 28l178 457q7 21 30 21h71q21 0 29 -21l178 -461q6 -14 6 -22q0 -19 -21 -19h-69q-20 0 -30 28l-39 102h-180zM257 397q-17 -55 -64 -183h128q-46 123 -64 183zM226 669q0 -61 -59 -61q-58 0 -58 60q0 62 58 62
q59 0 59 -61zM406 669q0 -61 -59 -61q-58 0 -58 60q0 62 58 62q59 0 59 -61z" />
    <glyph glyph-name="ae.sc" horiz-adv-x="786" 
d="M210 134l-70 -110q-8 -10 -11.5 -14t-9.5 -8t-14 -4h-81q-19 0 -19 16q0 9 10 24l303 461q14 20 39 20h357q24 0 24 -20v-58q0 -18 -24 -18h-208v-109h189q23 0 23 -20v-57q0 -19 -23 -19h-189v-122h221q24 0 24 -20v-58q0 -18 -24 -18h-311q-22 0 -22 22v112h-184z
M264 228h130v202q-21 -38 -130 -202z" />
    <glyph glyph-name="aeacute.sc" horiz-adv-x="786" 
d="M210 134l-70 -110q-8 -10 -11.5 -14t-9.5 -8t-14 -4h-81q-19 0 -19 16q0 9 10 24l303 461q14 20 39 20h357q24 0 24 -20v-58q0 -18 -24 -18h-208v-109h189q23 0 23 -20v-57q0 -19 -23 -19h-189v-122h221q24 0 24 -20v-58q0 -18 -24 -18h-311q-22 0 -22 22v112h-184z
M264 228h130v202q-21 -38 -130 -202zM535 614q-15 -16 -35 -16h-41q-19 0 -19 16q0 11 7 19l97 123q14 18 34 18h64q21 0 21 -16q0 -11 -10 -21z" />
    <glyph glyph-name="agrave.sc" horiz-adv-x="512" 
d="M127 27q-10 -29 -29 -29h-69q-22 0 -22 17q0 12 6 28l178 457q7 21 30 21h71q21 0 29 -21l178 -461q6 -14 6 -22q0 -19 -21 -19h-69q-20 0 -30 28l-39 102h-180zM257 397q-17 -55 -64 -183h128q-46 123 -64 183zM232 614l-117 123q-11 13 -11 21q0 16 21 16h65
q19 0 34 -18l96 -123q8 -11 8 -19q0 -16 -20 -16h-38q-23 0 -38 16z" />
    <glyph glyph-name="amacron.sc" horiz-adv-x="512" 
d="M127 27q-10 -29 -29 -29h-69q-22 0 -22 17q0 12 6 28l178 457q7 21 30 21h71q21 0 29 -21l178 -461q6 -14 6 -22q0 -19 -21 -19h-69q-20 0 -30 28l-39 102h-180zM257 397q-17 -55 -64 -183h128q-46 123 -64 183zM374 612h-237q-24 0 -24 22v45q0 22 24 22h236
q24 0 24 -22v-46q0 -21 -23 -21z" />
    <glyph glyph-name="ampersand.alt" horiz-adv-x="726" 
d="M536 59q-65 -72 -217 -72q-263 0 -263 207q0 75 37 119.5t123 83.5q-79 77 -79 158q0 160 201 160q186 0 186 -145q0 -65 -38.5 -107.5t-113.5 -81.5q80 -85 163 -162q17 44 19 136q2 27 25 27h62q22 0 22 -27q0 -146 -51 -216q14 -15 44 -44l43 -42q19 -21 19 -33
q0 -22 -25 -22h-66q-25 0 -43 15q-17 15 -48 46zM424 561q0 64 -89 64q-90 0 -90 -70q0 -46 68 -112q58 29 84.5 55t26.5 63zM468 132l-196 194q-51 -24 -74.5 -51.5t-23.5 -72.5q0 -60 37 -88.5t115 -28.5q106 0 142 47z" />
    <glyph glyph-name="ampersand.sc" horiz-adv-x="592" 
d="M484 201q12 -18 12 -50q0 -90 -57 -127t-165 -37q-121 0 -174 39.5t-53 117.5q0 113 112 134q-86 21 -86 112q0 72 43 107t146 35q72 0 119 -15q19 -6 19 -25q0 -15 -9 -51q-5 -16 -20 -16q-3 0 -7 1t-10 2t-10 2q-47 9 -79 9q-56 0 -73.5 -15.5t-17.5 -45.5
q0 -62 78 -63q23 0 23 -20v-49q0 -20 -24 -20q-52 0 -71 -16.5t-19 -56.5t28.5 -56t88.5 -16q66 0 96 15.5t30 56.5q0 23 -9 40q-18 -3 -64 -3q-23 0 -23 23v43q0 26 23 26q128 1 203 24q21 7 26 7q13 0 19 -15q11 -33 11 -56q0 -16 -20 -23q-36 -12 -86 -18z" />
    <glyph glyph-name="ampersand.scalt" horiz-adv-x="600" 
d="M442 39q-59 -52 -176 -52q-111 0 -162.5 38.5t-51.5 117.5q0 56 27.5 89t97.5 61q-57 51 -57 116q0 59 36.5 91t128.5 32q81 0 115.5 -26t34.5 -83q0 -51 -28.5 -83.5t-87.5 -59.5q82 -78 122 -112q14 28 17 96q0 9 6.5 15.5t17.5 6.5h52q20 0 20 -23q0 -104 -42 -159
l38 -34l35 -29q15 -12 15 -24q0 -19 -22 -19h-61q-23 0 -36 8q-15 11 -39 33zM343 418q0 41 -61 41q-65 0 -65 -46q0 -38 46 -84q45 20 62.5 39.5t17.5 49.5zM377 99q-69 59 -148 135q-39 -17 -55 -35.5t-16 -49.5q0 -79 115 -79q75 0 104 29z" />
    <glyph glyph-name="aogonek.sc" horiz-adv-x="512" 
d="M127 27q-10 -29 -29 -29h-69q-22 0 -22 17q0 12 6 28l178 457q7 21 30 21h71q21 0 29 -21l178 -461q6 -14 6 -22q0 -19 -21 -19h-24q-50 -35 -70 -59t-20 -59q0 -44 44 -44q10 0 26.5 2t18.5 2q14 0 18 -16t4 -33q0 -14 -19 -21q-25 -7 -64 -7q-116 0 -116 102
q0 54 28 84t84 58q-4 5 -9 19l-39 102h-180zM257 397q-17 -55 -64 -183h128q-46 123 -64 183z" />
    <glyph glyph-name="aring.sc" horiz-adv-x="512" 
d="M127 27q-10 -29 -29 -29h-69q-22 0 -22 17q0 12 6 28l178 457q7 21 30 21h71q21 0 29 -21l178 -461q6 -14 6 -22q0 -19 -21 -19h-69q-20 0 -30 28l-39 102h-180zM257 397q-17 -55 -64 -183h128q-46 123 -64 183zM355 680q0 -46 -27 -71t-72 -25q-44 0 -69.5 25t-25.5 71
q0 47 26.5 73t71.5 26t70.5 -26t25.5 -73zM313 682q0 60 -56 60q-26 0 -41 -15.5t-15 -45.5q0 -29 15 -44.5t42 -15.5q55 0 55 61z" />
    <glyph glyph-name="aringacute.sc" horiz-adv-x="512" 
d="M127 27q-10 -29 -29 -29h-69q-22 0 -22 17q0 12 6 28l178 457q7 21 30 21h71q21 0 29 -21l178 -461q6 -14 6 -22q0 -19 -21 -19h-69q-20 0 -30 28l-39 102h-180zM257 397q-17 -55 -64 -183h128q-46 123 -64 183zM357 670q0 -46 -27.5 -71t-72.5 -25q-43 0 -69 25t-26 71
t27 72.5t71 26.5q45 0 71 -26t26 -73zM316 672q0 61 -58 61q-26 0 -42 -16t-16 -46q0 -29 16 -45t43 -16q57 0 57 62zM285 816q-15 -16 -35 -16h-32q-19 0 -19 16q0 10 7 20l92 117q13 18 34 18h55q21 0 21 -16q0 -9 -10 -21z" />
    <glyph glyph-name="atilde.sc" horiz-adv-x="512" 
d="M127 27q-10 -29 -29 -29h-69q-22 0 -22 17q0 12 6 28l178 457q7 21 30 21h71q21 0 29 -21l178 -461q6 -14 6 -22q0 -19 -21 -19h-69q-20 0 -30 28l-39 102h-180zM257 397q-17 -55 -64 -183h128q-46 123 -64 183zM138 597h-31q-20 0 -20 20q0 6 6 24q32 97 95 97
q25 0 76 -27q35 -19 56 -19q12 0 18.5 5.5t14.5 25.5t27 20h29q20 0 20 -19q0 -6 -9 -33q-28 -91 -90 -91q-34 0 -82 26q-37 20 -49 20q-22 0 -35 -27q-9 -22 -26 -22z" />
    <glyph glyph-name="b.sc" horiz-adv-x="524" 
d="M238 0h-132q-27 0 -27 26v471q0 22 25 22h139q44 0 84 -4q133 -10 133 -124q0 -94 -82 -118q100 -23 100 -122q0 -104 -80 -134q-46 -17 -160 -17zM190 90h59q55 0 76 7q39 15 39 63q0 43 -40 58q-20 7 -65 7h-69v-135zM190 311h66q44 0 58 6q35 15 35 55q0 27 -11 38.5
t-32 16.5q-15 4 -59 4h-57v-120z" />
    <glyph glyph-name="b.superior" horiz-adv-x="380" 
d="M125 279l-1 -7q0 -10 -20 -10h-34q-18 0 -18 20v420q0 18 16 18h51q15 0 15 -18v-149q33 24 97 24q58 0 87.5 -36t29.5 -117q0 -97 -35 -130t-116 -33q-54 0 -72 18zM134 336q20 -10 53 -10q49 0 63.5 18t14.5 75q0 52 -12.5 70.5t-50.5 18.5q-41 0 -58 -12q-6 -3 -9 -7
q-1 -3 -1 -13v-140z" />
    <glyph glyph-name="braceleft.cap" horiz-adv-x="339" 
d="M115 342q47 -10 71 -43.5t24 -99.5v-123q0 -56 17 -79q16 -22 78 -26q17 -2 17 -24v-14q0 -21 -21 -21q-120 0 -153 43q-27 36 -27 109v122q0 64 -19 90.5t-60 32.5q-20 3 -20 23v16q0 22 17 25q44 8 63 36.5t19 86.5v108q0 80 27 114q42 52 150 52q23 0 23 -24v-11
q0 -23 -20 -23q-58 0 -78 -32q-13 -23 -13 -74v-116q0 -70 -23 -102t-72 -46z" />
    <glyph glyph-name="braceright.cap" horiz-adv-x="339" 
d="M218 340q-95 21 -95 143v123q0 58 -16 79q-16 22 -77 26q-17 1 -17 24v14q0 21 20 21q119 0 152 -43q29 -36 29 -109v-122q0 -64 18.5 -90.5t59.5 -32.5q21 -3 21 -23v-16q0 -21 -19 -25q-43 -8 -61.5 -36.5t-18.5 -86.5v-108q0 -79 -28 -114q-40 -52 -149 -52
q-24 0 -24 24v11q0 23 20 23q59 2 78 32q12 21 12 74v116q0 70 23 102t72 46z" />
    <glyph glyph-name="bracketleft.cap" horiz-adv-x="304" 
d="M170 -33h98q17 0 17 -16v-21q0 -17 -17 -17h-169q-19 0 -19 24v799q0 24 19 24h169q17 0 17 -16v-22q0 -16 -17 -16h-98v-739z" />
    <glyph glyph-name="bracketright.cap" horiz-adv-x="304" 
d="M133 705h-97q-17 0 -17 16v21q0 18 17 18h169q19 0 19 -24v-800q0 -23 -20 -23h-168q-17 0 -17 15v22q0 7 5 12t12 5h97v738z" />
    <glyph glyph-name="breve.cap" horiz-adv-x="197" 
d="M240 912q20 0 20 -19t-6 -42q-30 -96 -157 -96q-70 0 -108.5 27.5t-47.5 71.5q-4 18 -4 35q0 23 23 23h33q22 0 26 -19q5 -28 21.5 -41t57.5 -13q44 0 59 12t23 42q5 19 25 19h35z" />
    <glyph glyph-name="breve.sc" horiz-adv-x="197" 
d="M234 744q18 0 18 -20q0 -19 -5 -42q-24 -101 -149 -101q-65 0 -101.5 28.5t-45.5 74.5q-3 15 -3 37q0 23 21 23h32q22 0 25 -20q5 -33 20 -48t53 -15q41 0 56 14.5t21 47.5q4 21 24 21h34z" />
    <glyph glyph-name="bullet.cap" horiz-adv-x="363" 
d="M312 312q0 -137 -131 -137q-130 0 -130 135q0 137 130 137q64 0 97.5 -31.5t33.5 -103.5z" />
    <glyph glyph-name="c.sc" horiz-adv-x="478" 
d="M161 262q0 -96 25 -136t102 -40q57 0 111 17q11 3 25 3q12 0 17 -12q11 -33 11 -58q0 -16 -18 -22q-67 -25 -167 -25q-109 0 -164.5 59.5t-55.5 202.5q0 149 54.5 214.5t188.5 65.5q81 0 131 -13q19 -4 19 -21q0 -30 -12 -64q-5 -11 -17 -11q-7 0 -29 4q-48 8 -90 8
q-79 0 -105 -39.5t-26 -132.5z" />
    <glyph glyph-name="cacute.sc" horiz-adv-x="478" 
d="M161 262q0 -96 25 -136t102 -40q57 0 111 17q11 3 25 3q12 0 17 -12q11 -33 11 -58q0 -16 -18 -22q-67 -25 -167 -25q-109 0 -164.5 59.5t-55.5 202.5q0 149 54.5 214.5t188.5 65.5q81 0 131 -13q19 -4 19 -21q0 -30 -12 -64q-5 -11 -17 -11q-7 0 -29 4q-48 8 -90 8
q-79 0 -105 -39.5t-26 -132.5zM298 614q-15 -16 -35 -16h-41q-19 0 -19 16q0 11 7 19l97 123q13 18 34 18h64q21 0 21 -16q0 -11 -10 -21z" />
    <glyph glyph-name="caron.alt" horiz-adv-x="188" 
d="M136 729q26 0 26 -29q0 -44 -15 -93t-47 -86q-14 -16 -28 -16q-16 0 -34 11q-13 8 -13 19q0 10 7 24q31 54 31 134q0 36 30 36h43z" />
    <glyph glyph-name="caron.cap" horiz-adv-x="197" 
d="M211 920h44q22 0 22 -17q0 -11 -8 -19l-102 -101q-23 -23 -42 -23h-56q-20 0 -38 20l-104 104q-7 8 -7 19q0 17 24 17h44q17 0 39 -17l73 -61l73 61q20 17 38 17z" />
    <glyph glyph-name="caron.sc" horiz-adv-x="197" 
d="M199 770h42q21 0 21 -17q0 -6 -9 -19l-89 -122q-18 -24 -34 -24h-63q-18 0 -33 22l-89 125q-8 10 -8 18q0 17 20 17h44q18 0 32 -17l68 -82l65 81q15 18 33 18z" />
    <glyph glyph-name="ccaron.sc" horiz-adv-x="478" 
d="M161 262q0 -96 25 -136t102 -40q57 0 111 17q11 3 25 3q12 0 17 -12q11 -33 11 -58q0 -16 -18 -22q-67 -25 -167 -25q-109 0 -164.5 59.5t-55.5 202.5q0 149 54.5 214.5t188.5 65.5q81 0 131 -13q19 -4 19 -21q0 -30 -12 -64q-5 -11 -17 -11q-7 0 -29 4q-48 8 -90 8
q-79 0 -105 -39.5t-26 -132.5zM366 770h42q21 0 21 -17q0 -6 -9 -19l-89 -122q-18 -24 -34 -24h-63q-18 0 -33 22l-89 125q-8 10 -8 18q0 17 20 17h44q18 0 32 -17l68 -82l65 81q15 18 33 18z" />
    <glyph glyph-name="ccedilla.sc" horiz-adv-x="478" 
d="M280 -54q30 -1 49.5 -8.5t28 -22.5t11.5 -29t3 -35q0 -98 -134 -98q-34 0 -50 4q-18 6 -18 22q0 14 3 29q4 19 22 19q6 0 20 -2q13 -3 30 -3q21 0 29.5 6t8.5 22q0 17 -7.5 24t-25.5 7q-3 0 -13 -0.5t-12 -0.5q-21 0 -21 19q0 4 5 34l11 59q-86 10 -129.5 70.5
t-43.5 188.5q0 149 54.5 214.5t188.5 65.5q81 0 131 -13q19 -4 19 -21q0 -30 -12 -64q-5 -11 -17 -11q-7 0 -29 4q-48 8 -90 8q-79 0 -105 -39.5t-26 -132.5q0 -96 25 -136t102 -40q57 0 111 17q11 3 25 3q12 0 17 -12q11 -33 11 -58q0 -16 -18 -22q-59 -22 -147 -25z" />
    <glyph glyph-name="ccircumflex.sc" horiz-adv-x="478" 
d="M161 262q0 -96 25 -136t102 -40q57 0 111 17q11 3 25 3q12 0 17 -12q11 -33 11 -58q0 -16 -18 -22q-67 -25 -167 -25q-109 0 -164.5 59.5t-55.5 202.5q0 149 54.5 214.5t188.5 65.5q81 0 131 -13q19 -4 19 -21q0 -30 -12 -64q-5 -11 -17 -11q-7 0 -29 4q-48 8 -90 8
q-79 0 -105 -39.5t-26 -132.5zM177 585h-43q-20 0 -20 17q0 10 9 20l88 122q18 23 35 23h63q17 0 33 -22l89 -124q8 -10 8 -19q0 -17 -20 -17h-44q-17 0 -32 17l-68 82l-66 -81q-13 -18 -32 -18z" />
    <glyph glyph-name="cdotaccent.sc" horiz-adv-x="478" 
d="M161 262q0 -96 25 -136t102 -40q57 0 111 17q11 3 25 3q12 0 17 -12q11 -33 11 -58q0 -16 -18 -22q-67 -25 -167 -25q-109 0 -164.5 59.5t-55.5 202.5q0 149 54.5 214.5t188.5 65.5q81 0 131 -13q19 -4 19 -21q0 -30 -12 -64q-5 -11 -17 -11q-7 0 -29 4q-48 8 -90 8
q-79 0 -105 -39.5t-26 -132.5zM324 669q0 -61 -59 -61q-57 0 -57 60q0 62 57 62q59 0 59 -61z" />
    <glyph glyph-name="cedilla.cap" horiz-adv-x="197" 
d="M108 -54q60 -2 79.5 -28t19.5 -71q0 -105 -144 -105q-30 0 -53 5q-20 4 -20 24q0 5 6 32q5 18 22 18l24 -4q22 -2 28 -2q24 0 32.5 6.5t8.5 22.5q0 17 -7.5 23.5t-27.5 6.5q-4 0 -13 -0.5t-11 -0.5q-23 0 -23 20q0 11 4 31l17 86h69z" />
    <glyph glyph-name="cedilla.sc" horiz-adv-x="197" 
d="M111 -54q30 -1 49.5 -8.5t28 -22.5t11.5 -29t3 -35q0 -98 -134 -98q-34 0 -50 4q-18 6 -18 22q0 14 3 29q4 19 22 19q6 0 20 -2q14 -3 30 -3q21 0 29.5 6t8.5 22q0 17 -7.5 24t-25.5 7q-3 0 -13 -0.5t-12 -0.5q-21 0 -21 19q0 4 5 34l15 77h67z" />
    <glyph glyph-name="cent.denominator" horiz-adv-x="329" 
d="M219 -43q0 -14 -12 -14h-13q-13 0 -13 14v41q-68 2 -100 36t-32 117q0 79 29.5 116t102.5 42v43q0 15 14 15h12q12 0 12 -15v-42q40 -2 64 -7q12 -3 12 -15q0 -19 -7 -42q-3 -10 -12 -10q-2 0 -8.5 1.5t-9.5 1.5q-11 0 -39 2v-175q27 2 46 8l15 3q8 0 12 -9q9 -18 9 -38
q0 -11 -11 -16q-27 -11 -71 -15v-42zM130 155q0 -43 10.5 -63.5t40.5 -24.5v172q-31 -5 -41 -24t-10 -60z" />
    <glyph glyph-name="cent.inferior" horiz-adv-x="329" 
d="M219 -169q0 -14 -12 -14h-13q-13 0 -13 14v41q-69 2 -100.5 36.5t-31.5 116.5q0 79 29.5 116t102.5 42v43q0 15 14 15h12q12 0 12 -15v-42q40 -2 64 -7q12 -3 12 -15q0 -19 -7 -42q-3 -10 -12 -10q-2 0 -8.5 1.5t-9.5 1.5q-11 0 -39 2v-175q21 1 46 8l15 3q8 0 12 -9
q9 -18 9 -38q0 -11 -11 -16q-27 -11 -71 -15v-42zM130 29q0 -43 10.5 -63.5t40.5 -24.5v172q-31 -5 -41 -24t-10 -60z" />
    <glyph glyph-name="cent.numerator" horiz-adv-x="329" 
d="M219 221q0 -14 -12 -14h-13q-13 0 -13 14v41q-68 2 -100 36t-32 117q0 79 29.5 116t102.5 42v43q0 15 14 15h12q12 0 12 -15v-42q40 -2 64 -7q12 -3 12 -15q0 -19 -7 -42q-3 -10 -12 -10l-18 3q-26 2 -39 2v-175q19 0 40 6l9 2q8 3 12 3q8 0 12 -9q9 -18 9 -39
q0 -10 -11 -15q-27 -11 -71 -15v-42zM130 419q0 -43 10.5 -63.5t40.5 -24.5v172q-31 -5 -41 -24t-10 -60z" />
    <glyph glyph-name="cent.oldstyle" horiz-adv-x="469" 
d="M312 -73q0 -21 -18 -21h-16q-18 0 -18 21v71q-95 3 -141.5 53.5t-46.5 170.5q0 114 43 169.5t145 62.5v72q0 21 19 21h16q17 0 17 -21v-71q57 -2 92 -13q17 -5 17 -19q0 -31 -8 -59q-5 -13 -15 -13q-14 0 -26 3q-31 5 -60 6v-270q38 3 70 13q14 4 21 4q12 0 15 -12
q12 -29 12 -54q0 -14 -15 -21q-40 -18 -103 -22v-71zM178 228q0 -64 18 -96.5t64 -39.5v265q-48 -8 -65 -38t-17 -91z" />
    <glyph glyph-name="cent.superior" horiz-adv-x="329" 
d="M219 377q0 -14 -12 -14h-13q-13 0 -13 14v41q-68 2 -100 36t-32 117q0 79 29.5 116t102.5 42v43q0 15 14 15h12q12 0 12 -15v-42q40 -2 64 -7q12 -3 12 -15q0 -19 -7 -42q-3 -10 -12 -10q-2 0 -8.5 1.5t-9.5 1.5q-11 0 -39 2v-175q27 2 46 8l15 3q8 0 12 -9q9 -18 9 -38
q0 -11 -11 -16q-27 -11 -71 -15v-42zM130 575q0 -43 10.5 -63.5t40.5 -24.5v172q-31 -5 -41 -24t-10 -60z" />
    <glyph glyph-name="circumflex.cap" horiz-adv-x="197" 
d="M-14 760h-44q-22 0 -22 17q0 11 8 19l102 101q25 23 42 23h56q20 0 38 -20l104 -105q7 -7 7 -18q0 -17 -23 -17h-45q-18 0 -38 17l-74 61l-73 -61q-20 -17 -38 -17z" />
    <glyph glyph-name="circumflex.sc" horiz-adv-x="197" 
d="M0 585h-43q-20 0 -20 17q0 10 9 20l88 122q18 23 35 23h63q16 0 33 -22l89 -124q8 -10 8 -19q0 -17 -20 -17h-44q-17 0 -32 17l-68 82l-66 -81q-13 -18 -32 -18z" />
    <glyph glyph-name="comma.denominator" horiz-adv-x="162" 
d="M106 85q21 0 21 -20q0 -43 -16 -89.5t-44 -73.5q-13 -13 -21 -13q-12 0 -28 10q-10 6 -10 15q0 11 6 17q33 43 33 130q0 24 24 24h35z" />
    <glyph glyph-name="comma.inferior" horiz-adv-x="162" 
d="M106 -41q21 0 21 -20q0 -43 -16 -89.5t-44 -73.5q-13 -13 -21 -13q-12 0 -28 10q-10 6 -10 15q0 11 6 17q33 43 33 130q0 24 24 24h35z" />
    <glyph glyph-name="comma.numerator" horiz-adv-x="162" 
d="M106 349q21 0 21 -20q0 -42 -17.5 -91.5t-42.5 -71.5q-13 -13 -21 -13q-12 0 -28 10q-10 6 -10 15q0 11 6 17q33 43 33 130q0 24 24 24h35z" />
    <glyph glyph-name="comma.superior" horiz-adv-x="162" 
d="M106 505q21 0 21 -20q0 -43 -16 -89.5t-44 -73.5q-13 -13 -21 -13q-12 0 -28 10q-10 6 -10 15q0 11 6 17q33 43 33 130q0 24 24 24h35z" />
    <glyph glyph-name="commaaccent.sc" horiz-adv-x="185" 
d="M136 -66q26 0 26 -29q0 -109 -62 -179q-14 -16 -28 -16q-19 0 -34 11q-13 8 -13 19q0 10 7 24q31 54 31 134q0 36 30 36h43z" />
    <glyph glyph-name="d.sc" horiz-adv-x="570" 
d="M191 95h60q56 0 88 14q40 18 55 54t15 100q0 65 -15 99t-51 50q-29 13 -94 13h-58v-330zM227 0h-127q-21 0 -21 23v475q0 21 20 21h139q98 0 147 -13q139 -38 139 -240q0 -101 -31.5 -161t-109.5 -87q-51 -18 -156 -18z" />
    <glyph glyph-name="d.superior" horiz-adv-x="382" 
d="M329 283q0 -20 -19 -20h-40q-11 0 -14.5 2t-4.5 10l-2 11q-29 -29 -94 -29q-122 0 -122 153q0 95 37.5 131.5t121.5 36.5q37 0 54 -7v132q0 17 19 17h48q16 0 16 -17v-420zM246 360v141q-18 8 -49 8q-50 0 -66.5 -19t-16.5 -74q0 -49 15.5 -69t53.5 -20q34 0 54 12
q3 1 7 8q2 3 2 13z" />
    <glyph glyph-name="dcaron.sc" horiz-adv-x="570" 
d="M191 95h60q56 0 88 14q40 18 55 54t15 100q0 65 -15 99t-51 50q-29 13 -94 13h-58v-330zM227 0h-127q-21 0 -21 23v475q0 21 20 21h139q98 0 147 -13q139 -38 139 -240q0 -101 -31.5 -161t-109.5 -87q-51 -18 -156 -18zM358 770h42q21 0 21 -17q0 -6 -9 -19l-89 -122
q-18 -24 -34 -24h-63q-18 0 -33 22l-89 125q-8 10 -8 18q0 17 20 17h44q18 0 32 -17l68 -82l65 81q15 18 33 18z" />
    <glyph glyph-name="dcroat.sc" horiz-adv-x="570" 
d="M227 0h-127q-21 0 -21 23v208h-32q-24 0 -24 22v35q0 24 25 24h31v186q0 21 20 21h139q98 0 147 -13q139 -38 139 -240q0 -101 -31.5 -161t-109.5 -87q-51 -18 -156 -18zM191 95h60q56 0 88 14q40 18 55 54t15 100q0 65 -15 99t-51 50q-29 13 -94 13h-58v-113h100
q24 0 24 -23v-38q0 -20 -23 -20h-101v-136z" />
    <glyph glyph-name="dieresis.cap" horiz-adv-x="197" 
d="M58 827q0 -61 -59 -61q-57 0 -57 60q0 62 57 62q59 0 59 -61zM254 827q0 -61 -59 -61q-57 0 -57 60q0 62 57 62q59 0 59 -61z" />
    <glyph glyph-name="dieresis.sc" horiz-adv-x="197" 
d="M67 669q0 -61 -59 -61q-58 0 -58 60q0 62 58 62q59 0 59 -61zM247 669q0 -61 -59 -61q-58 0 -58 60q0 62 58 62q59 0 59 -61z" />
    <glyph glyph-name="dollar.denominator" horiz-adv-x="372" 
d="M212 -43q0 -14 -13 -14h-13q-13 0 -13 14v39q-79 2 -120 18q-13 6 -13 17q0 12 8 36q6 14 18 14q8 0 20 -4q43 -13 87 -13v103l-29 7q-96 22 -96 118q0 108 125 119v39q0 15 14 15h12q13 0 13 -15v-38q64 -2 95 -12q14 -5 14 -18q0 -8 -7 -36q-3 -12 -14 -12t-21 2
q-30 5 -67 7v-103l23 -5q57 -15 78.5 -39.5t21.5 -75.5q0 -111 -123 -122v-41zM128 298q0 -19 8.5 -29.5t36.5 -18.5v93q-27 -3 -36 -13.5t-9 -31.5zM255 111q0 19 -8 28.5t-35 17.5v-91q27 4 35 15t8 30z" />
    <glyph glyph-name="dollar.inferior" horiz-adv-x="372" 
d="M212 -169q0 -14 -13 -14h-13q-13 0 -13 14v39q-75 2 -120 18q-13 6 -13 17q0 12 8 36q6 14 18 14q8 0 20 -4q38 -11 87 -13v103l-29 7q-96 22 -96 118q0 108 125 119v39q0 15 14 15h12q13 0 13 -15v-38q64 -2 95 -12q14 -5 14 -18q0 -8 -7 -36q-3 -12 -14 -12t-21 2
q-30 5 -67 7v-103l23 -5q57 -15 78.5 -39.5t21.5 -75.5q0 -110 -123 -122v-41zM128 172q0 -19 8.5 -29.5t36.5 -18.5v93q-27 -3 -36 -13.5t-9 -31.5zM255 -15q0 19 -8 28.5t-35 17.5v-91q18 3 28 10.5t12.5 15t2.5 19.5z" />
    <glyph glyph-name="dollar.numerator" horiz-adv-x="372" 
d="M212 221q0 -14 -13 -14h-13q-13 0 -13 14v39q-74 0 -120 18q-13 6 -13 17q0 14 7 35q6 15 19 15q8 0 20 -4q43 -13 87 -13v103l-29 7q-96 22 -96 118q0 108 125 119v39q0 15 14 15h12q13 0 13 -15v-38q64 -2 95 -12q14 -5 14 -18q0 -8 -7 -36q-3 -12 -14 -12t-21 2
q-30 5 -67 7v-103l23 -5q57 -15 78.5 -39.5t21.5 -75.5q0 -111 -123 -123v-40zM128 562q0 -19 8.5 -29.5t36.5 -18.5v93q-27 -3 -36 -13.5t-9 -31.5zM255 375q0 19 -8 28.5t-35 17.5v-91q27 4 35 15t8 30z" />
    <glyph glyph-name="dollar.oldstyle" horiz-adv-x="524" 
d="M290 -74q0 -20 -17 -20h-16q-18 0 -18 20v68q-115 2 -173 26q-18 8 -18 28q0 10 14 49q6 19 24 19q9 0 27 -6q60 -20 126 -21v157l-45 12q-134 35 -134 169q0 157 179 171v69q0 21 19 21h16q16 0 16 -21v-67q81 -2 137 -18q18 -5 18 -25q0 -24 -8 -54q-5 -17 -19 -17
q-1 0 -29 4q-52 10 -99 12v-154l34 -9q80 -22 111.5 -58t31.5 -109q0 -160 -177 -176v-70zM166 434q0 -26 14 -42.5t59 -30.5v141q-44 -4 -58.5 -20t-14.5 -48zM362 164q0 27 -13.5 41t-58.5 28v-142q44 6 58 24.5t14 48.5z" />
    <glyph glyph-name="dollar.superior" horiz-adv-x="372" 
d="M212 377q0 -14 -13 -14h-13q-13 0 -13 14v39q-74 0 -120 18q-13 6 -13 17q0 12 8 36q6 14 18 14q8 0 20 -4q43 -13 87 -13v103l-29 7q-96 22 -96 118q0 108 125 119v39q0 15 14 15h12q13 0 13 -15v-38q64 -2 95 -12q14 -5 14 -18q0 -8 -7 -36q-3 -12 -14 -12t-21 2
q-30 5 -67 7v-103l23 -5q57 -15 78.5 -39.5t21.5 -75.5q0 -111 -123 -123v-40zM128 718q0 -19 8.5 -29.5t36.5 -18.5v93q-27 -3 -36 -13.5t-9 -31.5zM255 531q0 19 -8 28.5t-35 17.5v-91q27 4 35 15t8 30z" />
    <glyph glyph-name="dotaccent.cap" horiz-adv-x="197" 
d="M170 827q0 -61 -59 -61q-57 0 -57 60q0 62 57 62q59 0 59 -61z" />
    <glyph glyph-name="dotaccent.sc" horiz-adv-x="197" 
d="M156 669q0 -61 -59 -61q-57 0 -57 60q0 62 57 62q59 0 59 -61z" />
    <glyph glyph-name="dotlessi.sc" horiz-adv-x="270" 
d="M191 24q0 -26 -23 -26h-67q-22 0 -22 26v472q0 26 22 26h70q20 0 20 -25v-473z" />
    <glyph glyph-name="e.sc" horiz-adv-x="466" 
d="M414 0h-313q-22 0 -22 22v474q0 23 22 23h299q12 0 17 -4t5 -15v-58q0 -19 -22 -19h-209v-108h189q22 0 22 -20v-58q0 -18 -22 -18h-189v-120h223q23 0 23 -21v-60q0 -18 -23 -18z" />
    <glyph glyph-name="e.superior" horiz-adv-x="349" 
d="M116 393q1 -43 18 -56t57 -13q39 0 87 12q15 3 16 3q9 0 12 -9q8 -27 8 -39q0 -10 -10 -15q-40 -20 -120 -20q-84 0 -117.5 37t-33.5 122q0 87 37 125.5t115 38.5q82 0 108 -40t26 -123q0 -14 -6 -20q-3 -3 -15 -3h-182zM117 450h124q1 4 1 14q0 31 -12.5 43.5
t-46.5 12.5q-36 0 -50.5 -16.5t-15.5 -53.5z" />
    <glyph glyph-name="eacute.sc" horiz-adv-x="466" 
d="M414 0h-313q-22 0 -22 22v474q0 23 22 23h299q12 0 17 -4t5 -15v-58q0 -19 -22 -19h-209v-108h189q22 0 22 -20v-58q0 -18 -22 -18h-189v-120h223q23 0 23 -21v-60q0 -18 -23 -18zM270 614q-15 -16 -35 -16h-41q-19 0 -19 16q0 11 7 19l97 123q13 18 34 18h64
q21 0 21 -16q0 -11 -10 -21z" />
    </font>
</defs>
</svg>
